<?xml version="1.0" standalone="no"?>
<!DOCTYPE svg PUBLIC "-//W3C//DTD SVG 1.1//EN" "http://www.w3.org/Graphics/SVG/1.1/DTD/svg11.dtd" >
<svg xmlns="http://www.w3.org/2000/svg">
<metadata></metadata>
<defs>
<font id="siemens_serifbold_italic" horiz-adv-x="574" >
<font-face units-per-em="1000" ascent="800" descent="-200" />
<missing-glyph horiz-adv-x="250" />
<glyph unicode="fi" horiz-adv-x="691" d="M206 0h-155q28 144 50 284l29 190h-79l6 38h79l6 39q15 97 50 138q46 55 149 55q85 0 147 -32l-21 -128h-93l9 108q-5 12 -22 12q-33 0 -47 -38q-10 -28 -25 -114l-7 -41h91l-7 -37h-90l-32 -205q-28 -186 -38 -269zM563 0h-156q14 56 44 243l6 40q21 134 25 190l-60 3 l6 35l217 6q-27 -140 -41 -225l-5 -36q-22 -131 -36 -256zM590 733q34 0 56.5 -22t22.5 -56q0 -36 -22 -58.5t-58 -22.5q-35 0 -57 22t-22 57t22.5 57.5t57.5 22.5z" />
<glyph unicode="fl" horiz-adv-x="690" d="M206 0h-155q35 186 50 285l29 190h-79l6 37h79l8 46q9 59 22.5 88t43.5 51q63 48 198 48q137 0 264 -44q-28 -150 -41 -235l-31 -196q-21 -143 -25 -168q-2 -14 -6 -45.5t-7 -56.5h-155q23 125 50 285l33 211q21 139 24 170q-42 39 -99 39q-55 0 -83.5 -29.5t-39.5 -99.5 l-10 -64h111l-6 -37h-111l-32 -205q-28 -187 -38 -270z" />
<glyph unicode=" "  horiz-adv-x="250" />
<glyph unicode="&#x09;" horiz-adv-x="250" />
<glyph unicode="&#xa0;" horiz-adv-x="250" />
<glyph unicode="!" horiz-adv-x="364" d="M199 228h-46l-2 314q-1 85 9 112q20 50 84 50q38 0 59.5 -17.5t21.5 -49.5q0 -23 -19 -77q-6 -22 -12 -36zM157 158q37 0 61 -24t24 -61t-24 -61t-61 -24t-61 24t-24 62q0 36 24 60t61 24z" />
<glyph unicode="&#x22;" horiz-adv-x="436" d="M168 414h-51l-15 148q-3 38 -3 48q0 43 21.5 67.5t59.5 24.5q33 0 53 -17.5t20 -45.5q0 -22 -22 -74zM370 414h-52l-14 148q-4 38 -4 49q0 43 21.5 67t59.5 24q34 0 54 -17t20 -46q0 -22 -22 -74z" />
<glyph unicode="#" d="M98 194h-91l14 85h103l40 128h-90l13 85h102l62 200h98l-61 -200h113l61 200h99l-62 -200h96l-13 -85h-108l-40 -128h94l-14 -85h-106l-59 -194h-99l60 194h-114l-59 -194h-99zM336 279l39 128h-113l-39 -128h113z" />
<glyph unicode="$" d="M36 33l20 156h112l-10 -128q25 -19 71 -27l39 249q-100 50 -137.5 95t-37.5 115q0 53 24 97.5t67 72.5q53 35 151 41l15 95h45l-15 -96q106 -7 174 -45l-18 -146h-113l9 125q-22 16 -59 22l-38 -240q84 -41 122 -71q65 -53 65 -141q0 -106 -82 -168q-62 -47 -174 -50 l-15 -98h-45l15 98q-104 6 -185 44zM293 441l35 219q-49 -6 -80.5 -38.5t-31.5 -76.5q0 -60 77 -104zM309 262l-36 -230q56 5 90 38t34 82q0 55 -43 85q-11 7 -45 25z" />
<glyph unicode="%" horiz-adv-x="848" d="M262 703q76 0 109 -31.5t33 -105.5q0 -115 -49 -190q-40 -65 -144 -65q-77 0 -109.5 32t-32.5 108q0 108 48 186q40 66 145 66zM260 662q-39 0 -60 -80q-25 -96 -25 -168q0 -62 38 -62q39 0 60 78q25 102 25 173q0 59 -38 59zM235 -20l331 732h76l-333 -732h-74zM660 381 q77 0 109.5 -31.5t32.5 -105.5q0 -112 -48 -190q-40 -65 -144 -65q-77 0 -109.5 32t-32.5 107q0 111 48 187q40 66 144 66zM658 340q-38 0 -60 -80q-24 -92 -24 -171q0 -59 37 -59q39 0 60 78q25 98 25 173q0 59 -38 59z" />
<glyph unicode="&#x26;" horiz-adv-x="779" d="M593 351l-49 2l5 36h206l-5 -36l-48 -2q-16 -69 -44.5 -117.5t-88.5 -107.5l18 -27q28 -40 51 -53q15 -10 51 -10h30l-5 -36h-175q-37 0 -51.5 6.5t-31.5 31.5l-5 6q-45 -32 -84.5 -44t-97.5 -12q-109 0 -168.5 44.5t-59.5 126.5q0 109 104 169q26 15 94 37 q-52 93 -52 156q0 88 64 139q56 44 155 44q93 0 144.5 -33.5t51.5 -93.5q0 -75 -70 -127q-44 -32 -137 -65l135 -201q45 61 63 167zM374 417l7 3q116 56 116 164q0 39 -21 62t-57 23q-45 0 -74.5 -32.5t-29.5 -82.5q0 -53 59 -137zM428 79l-166 252q-40 -31 -57 -71t-17 -99 q0 -62 28.5 -97t77.5 -35q69 0 134 50z" />
<glyph unicode="'" horiz-adv-x="235" d="M168 414h-51l-15 148q-3 38 -3 48q0 43 21.5 67.5t59.5 24.5q33 0 53 -17.5t20 -45.5q0 -22 -22 -74z" />
<glyph unicode="(" horiz-adv-x="378" d="M293 -135l-22 -25q-98 64 -149.5 161t-51.5 216q0 176 89.5 316t254.5 221l17 -28q-83 -79 -132 -178q-40 -80 -64 -193t-24 -218q0 -156 82 -272z" />
<glyph unicode=")" horiz-adv-x="378" d="M99 729l22 25q97 -64 149 -161t52 -216q0 -176 -89.5 -316t-254.5 -221l-17 28q86 83 132 178q39 80 63.5 193t24.5 214q0 161 -82 276z" />
<glyph unicode="*" horiz-adv-x="569" d="M294 543l-89 21q-37 9 -52.5 20.5t-15.5 31.5q0 23 14.5 40.5t33.5 17.5q25 0 53 -25l75 -68l-11 95q-1 11 -1 22q0 26 14 41.5t39 15.5q24 0 39.5 -14t15.5 -36q0 -17 -12 -43l-39 -88l91 41q20 10 41 10q22 0 35 -14t13 -38q0 -27 -14.5 -38t-49.5 -11q-11 0 -19 1 l-91 7l65 -76q25 -29 25 -47q0 -22 -16 -37.5t-39 -15.5q-40 0 -53 56l-22 99l-51 -87q-23 -40 -53 -40q-22 0 -37.5 16t-15.5 39q0 16 8.5 26.5t32.5 25.5z" />
<glyph unicode="+" d="M35 203l17 105h185l32 204h117l-32 -204h185l-17 -105h-185l-32 -203h-117l33 203h-186z" />
<glyph unicode="," horiz-adv-x="287" d="M27 -188l-35 31q69 80 95 150q-56 19 -56 80q0 37 24 61t61 24q38 0 61.5 -23t23.5 -60q0 -46 -40.5 -107.5t-133.5 -155.5z" />
<glyph unicode="-" horiz-adv-x="384" d="M40 232l17 106h296l-17 -106h-296z" />
<glyph unicode="." horiz-adv-x="287" d="M115 158q36 0 60 -24t24 -61t-24 -61t-61 -24t-61 24t-24 62q0 36 24.5 60t61.5 24z" />
<glyph unicode="/" horiz-adv-x="208" d="M-45 -20l252 732h76l-253 -732h-75z" />
<glyph unicode="0" d="M359 704q104 0 150.5 -51.5t46.5 -168.5q0 -102 -25 -209t-64 -171q-37 -61 -89.5 -88.5t-132.5 -27.5q-107 0 -152 52t-45 176q0 90 22.5 190.5t56.5 163.5q38 71 92.5 102.5t139.5 31.5zM351 663q-36 0 -60.5 -35t-44.5 -113q-19 -75 -37 -199.5t-18 -177.5 q0 -58 14.5 -83.5t46.5 -25.5q38 0 64.5 39.5t45.5 127.5q20 92 35.5 200.5t15.5 164.5q0 102 -62 102z" />
<glyph unicode="1" d="M91 0l5 36l97 3q21 100 33 180l37 230q8 49 22 156q-60 -43 -151 -74l-10 42q125 46 211 119h118q-7 -27 -39 -216l-40 -250q-21 -135 -25 -187l87 -3l-6 -36h-339z" />
<glyph unicode="2" d="M23 0l14 84q136 102 232 207q133 148 133 273q0 46 -19.5 71.5t-54.5 25.5q-37 0 -80 -25l-30 -124h-114l24 146q95 46 220 46q100 0 154 -39.5t54 -112.5t-44.5 -136t-161.5 -156q-60 -47 -213 -153h337l-20 -107h-431z" />
<glyph unicode="3" d="M20 36l23 141h113l-10 -123q34 -23 73 -23q77 0 114 77q28 56 28 128q0 99 -130 99h-35h-13l7 45q11 -1 27 -1q111 0 152 53q18 24 30.5 66t12.5 79q0 86 -80 86q-38 0 -75 -22l-30 -124h-114l23 143q98 44 207 44q216 0 216 -157q0 -85 -60.5 -133t-170.5 -50 q85 -8 123 -34q61 -41 61 -124q0 -50 -22 -95t-60 -74q-67 -49 -184 -49q-113 0 -226 48z" />
<glyph unicode="4" d="M435 197l-5 -29q-12 -90 -15 -129l78 -3l-6 -36h-322l5 36l89 3q9 33 25 130l5 28h-270l13 85l355 410h131q-22 -98 -40 -225l-28 -177h100l-21 -93h-94zM306 290l52 288l-246 -288h194z" />
<glyph unicode="5" d="M24 37l23 139h113l-11 -123q31 -22 70 -22q73 0 113 87q29 64 29 133q0 56 -24.5 86.5t-68.5 30.5q-71 0 -132 -59h-52l77 383h391l-21 -107h-335l-45 -219q89 72 179 72q88 0 137.5 -49.5t49.5 -136.5q0 -55 -18 -106.5t-50 -86.5q-64 -71 -196 -71t-229 49z" />
<glyph unicode="6" d="M531 722v-39q-117 -11 -189 -76.5t-110 -193.5q46 42 112 42q85 0 134 -52.5t49 -142.5q0 -126 -72 -201q-68 -71 -184 -71q-110 0 -166.5 56t-56.5 165q0 115 49.5 226.5t129.5 178.5q122 100 304 108zM316 408q-54 0 -86 -71q-40 -91 -40 -200q0 -56 15 -82t48 -26 q57 0 89 80q35 92 35 192q0 107 -61 107z" />
<glyph unicode="7" d="M223 0h-161q37 127 133.5 262t278.5 316h-357l28 114h436l-12 -73q-278 -331 -346 -619z" />
<glyph unicode="8" d="M208 332q-49 37 -69.5 73.5t-20.5 85.5q0 93 67.5 153t172.5 60q85 0 135.5 -38t50.5 -102q0 -54 -35 -93.5t-117 -79.5q55 -39 76 -60q49 -49 49 -123q0 -99 -71.5 -159.5t-189.5 -60.5q-102 0 -162.5 45.5t-60.5 122.5q0 62 39.5 102t135.5 74zM360 414l7 4 q36 26 57.5 66t21.5 83q0 45 -24.5 70.5t-67.5 25.5q-50 0 -83.5 -32t-33.5 -79q0 -31 17 -54t64 -55q2 -1 19.5 -13t22.5 -16zM240 311l-5 -2q-45 -26 -71.5 -68.5t-26.5 -91.5q0 -55 32 -87t87 -32q58 0 97 34.5t39 84.5q0 38 -33.5 74t-118.5 88z" />
<glyph unicode="9" d="M72 -30v39q116 11 188.5 76.5t110.5 193.5q-46 -42 -112 -42q-85 0 -134 52.5t-49 142.5q0 124 72 201q68 71 184 71q110 0 166.5 -56t56.5 -166q0 -114 -49.5 -225.5t-129.5 -178.5q-122 -100 -304 -108zM350 663q-57 0 -89 -80q-35 -92 -35 -192q0 -107 61 -107 q55 0 86 71q40 93 40 198q0 57 -15 83.5t-48 26.5z" />
<glyph unicode=":" horiz-adv-x="287" d="M117 158q37 0 60.5 -24t23.5 -61t-24 -61t-61 -24t-61 24t-24 62q0 36 24.5 60t61.5 24zM173 517q37 0 61 -24t24 -61t-24 -61t-61 -24t-61 24t-24 62q0 36 24 60t61 24z" />
<glyph unicode=";" horiz-adv-x="287" d="M27 -188l-35 31q69 80 95 150q-56 19 -56 80q0 37 24 61t61 24q38 0 61.5 -23t23.5 -60q0 -46 -40.5 -107.5t-133.5 -155.5zM173 517q37 0 61 -24t24 -61t-24 -61t-61 -24q-38 0 -61.5 24t-23.5 62q0 36 24 60t61 24z" />
<glyph unicode="&#x3c;" d="M204 249l303 -147l-19 -115l-452 222l15 94l523 222l-20 -128z" />
<glyph unicode="=" d="M51 299l17 106h487l-17 -106h-487zM20 106l17 106h487l-17 -106h-487z" />
<glyph unicode="&#x3e;" d="M371 262l-303 148l18 115l453 -222l-15 -94l-523 -222l20 128z" />
<glyph unicode="?" horiz-adv-x="467" d="M217 227h-52l2 15q9 59 19.5 78.5t56.5 62.5q64 61 87 107q24 51 24 92q0 38 -18 61t-48 23q-25 0 -56 -19l-30 -135h-109l17 147q104 45 189 45q99 0 153 -36t54 -102q0 -84 -86 -148q-27 -21 -112 -71q-55 -32 -68.5 -47.5t-20.5 -57.5zM177 158q37 0 61 -24.5 t24 -60.5t-24.5 -60.5t-60.5 -24.5q-38 0 -61.5 24t-23.5 62q0 36 24 60t61 24z" />
<glyph unicode="@" horiz-adv-x="853" d="M666 526l-37 -234q-7 -45 -7 -59q0 -40 39 -40q47 0 85.5 62.5t38.5 139.5q0 122 -85 195t-228 73q-145 0 -231 -83.5t-86 -224.5q0 -153 99 -240q100 -91 249 -91q80 0 164 36l14 -32q-84 -40 -189 -40q-193 0 -312 101.5t-119 266.5q0 149 100 244q109 104 297 104 q171 0 271 -82t100 -222q0 -107 -56.5 -178t-141.5 -71q-80 0 -96 62q-48 -62 -121 -62q-69 0 -112 40q-41 37 -41 113q0 99 60 165t149 66q50 0 87 -24l3 15h106zM515 250l34 227q-24 18 -52 18q-56 0 -94 -71q-32 -58 -32 -137q0 -91 66 -91q45 0 78 54z" />
<glyph unicode="A" horiz-adv-x="677" d="M-43 0l6 36l55 4q36 55 96 178l137 278q63 127 94 196h109q8 -53 13 -78q16 -88 22 -114l49 -250q31 -146 47 -211l57 -3l-6 -36h-294l5 36l71 3q-5 40 -23 144l-8 43h-208l-19 -40q-54 -118 -65 -148l73 -2l-5 -36h-206zM379 269l-50 269l-130 -269h180z" />
<glyph unicode="B" horiz-adv-x="662" d="M-8 0l6 35l77 3q12 51 39 220l31 190q23 158 27 206l-75 3l5 35h289q131 0 180 -32q59 -40 59 -125q0 -47 -18.5 -85t-50.5 -58q-43 -27 -133 -39q85 -9 123 -38q53 -41 53 -116q0 -51 -23 -94t-64 -69q-59 -36 -181 -36h-344zM281 373h32q52 0 77.5 8t44.5 30 q17 21 29 59t12 74q0 70 -38 93q-22 13 -78 13h-31q-17 -89 -31 -175zM234 42h30q56 0 87.5 10.5t53.5 36.5q42 50 42 132q0 59 -29 84.5t-98 25.5h-45l-18 -114q-17 -116 -23 -175z" />
<glyph unicode="C" horiz-adv-x="673" d="M488 189h115l-25 -155q-93 -46 -209 -46q-162 0 -238 88q-65 76 -65 199q0 89 31 172t86 143q105 115 276 115q111 0 210 -45l-24 -153h-115l12 135q-29 18 -72 18q-110 0 -181 -132q-64 -120 -64 -275q0 -107 40 -164t115 -57q41 0 75 15z" />
<glyph unicode="D" horiz-adv-x="739" d="M-8 0l6 35l77 3q15 71 37 204l30 193q23 134 30 219l-75 3l5 35h239q177 0 248 -41q111 -63 111 -235q0 -100 -33 -187.5t-92 -141.5q-53 -48 -120.5 -67.5t-182.5 -19.5h-280zM235 42h21q72 0 120.5 22.5t82.5 71.5q37 52 60 140.5t23 176.5q0 107 -40.5 152t-135.5 45 h-35q-15 -66 -33 -186l-34 -213q-26 -187 -29 -209z" />
<glyph unicode="E" horiz-adv-x="615" d="M-8 0l6 35l77 3q18 87 37 204l30 192q24 156 30 220l-76 3l6 35h527l-29 -180h-112l16 138h-173q-11 -47 -33 -186l-14 -89h205l-8 -49h-205l-12 -75q-14 -100 -22 -150q-1 -7 -3.5 -28t-3.5 -31h193l29 139h112l-29 -181h-548z" />
<glyph unicode="F" horiz-adv-x="597" d="M-8 0l6 36l77 3q15 73 37 204l30 192q23 136 30 219l-76 3l6 35h527l-29 -180h-112l16 138h-173q-10 -42 -33 -186l-14 -88h207l-8 -49h-207l-12 -79q-25 -163 -29 -209l89 -3l-6 -36h-326z" />
<glyph unicode="G" horiz-adv-x="753" d="M426 318h308l-6 -36l-75 -3l-17 -107q-13 -83 -18 -134q-126 -50 -247 -50q-149 0 -227 74t-78 215q0 90 31 172t87 141q108 114 290 114q117 0 238 -50l-23 -142h-116l12 124q-43 24 -99 24q-122 0 -193 -126q-69 -127 -69 -302q0 -100 42 -149q42 -51 115 -51 q46 0 90 22l36 225l-87 3z" />
<glyph unicode="H" horiz-adv-x="784" d="M-8 0l6 36l77 3q15 66 37 204l30 189q24 158 30 221l-76 3l6 36h307l-5 -36l-73 -3q-17 -86 -33 -188l-14 -90h255l9 57q23 140 30 221l-70 3l5 36h308l-5 -36l-79 -3q-7 -32 -33 -187l-34 -216q-26 -177 -29 -211l76 -3l-5 -36h-308l5 36l72 3q14 62 37 204l14 88h-255 l-13 -81q-25 -163 -29 -211l70 -3l-5 -36h-308z" />
<glyph unicode="I" horiz-adv-x="388" d="M-3 0l6 36l77 3q16 76 37 204l30 189q24 156 30 221l-76 3l6 36h313l-6 -36l-78 -3q-11 -53 -33 -187l-34 -216q-25 -170 -29 -211l76 -3l-6 -36h-313z" />
<glyph unicode="J" horiz-adv-x="382" d="M100 692h319l-5 -36l-79 -3q-6 -28 -33 -185l-45 -286q-12 -78 -20 -108t-24 -56q-34 -55 -102.5 -84.5t-161.5 -29.5q-31 0 -58 5l8 38q13 -2 25 -2q38 0 73 16.5t55 43.5q32 42 55 180l39 249q25 149 30 219l-81 3z" />
<glyph unicode="K" horiz-adv-x="674" d="M277 330l-13 -80q-26 -174 -29 -211l59 -3l-5 -36h-297l6 36l77 3q19 87 37 204l30 189q24 156 30 221l-76 3l6 36h306l-6 -36l-71 -3q-17 -87 -33 -187l-13 -86l194 185q27 23 48 46q22 21 42 41l-69 4l5 36h221l-5 -36l-61 -4q-7 -7 -39 -33q-34 -29 -84 -75l-135 -124 l150 -290q44 -83 52 -91l54 -3l-6 -36h-286l6 36l54 2z" />
<glyph unicode="L" horiz-adv-x="604" d="M-8 0l6 35l77 3q15 72 37 205l30 189q24 156 30 221l-76 3l6 36h321l-6 -36l-86 -3q-12 -56 -33 -187l-33 -213q-4 -28 -11.5 -79t-11.5 -74q-1 -5 -2.5 -20.5t-4.5 -37.5h181l30 147h112l-30 -189h-536z" />
<glyph unicode="M" horiz-adv-x="920" d="M-10 0l6 35l73 3q18 93 36 193l48 285q17 96 19 137l-77 3l5 36h257q4 -33 10 -62l22 -105l64 -308l164 311q72 136 84 164h256l-5 -36l-78 -3q-11 -51 -34 -187l-34 -218q-24 -156 -29 -210l76 -3l-5 -35h-312l6 35l77 3q18 85 37 204l30 190q9 53 16.5 99t10.5 62 l-295 -557h-77l-120 551l-57 -356q-21 -145 -24 -193l74 -3l-5 -35h-219z" />
<glyph unicode="N" horiz-adv-x="739" d="M-10 0l6 36l77 3q13 63 33 181l43 268q23 163 23 165l-77 3l5 36h243q31 -82 67 -165l148 -351l43 280q19 127 24 197l-71 3l5 36h219l-5 -36l-77 -3q-11 -48 -37 -200l-72 -453h-124q-8 28 -58 151l-183 435l-52 -337q-26 -177 -27 -210l72 -3l-6 -36h-219z" />
<glyph unicode="O" horiz-adv-x="762" d="M433 704q137 0 213 -79t76 -221q0 -85 -28 -164.5t-78 -137.5q-98 -114 -259 -114q-138 0 -213.5 79t-75.5 224q0 79 26.5 156.5t73.5 135.5q97 121 265 121zM441 665q-95 0 -152 -119q-29 -60 -47.5 -145t-18.5 -161q0 -104 32 -158.5t93 -54.5q102 0 159 125 q60 130 60 300q0 109 -30.5 161t-95.5 52z" />
<glyph unicode="P" horiz-adv-x="639" d="M-8 0l6 36l77 3q16 77 37 204l30 189q25 161 30 222l-76 3l6 35h271q78 0 120.5 -7.5t73.5 -27.5q68 -43 68 -135q0 -123 -88 -181q-64 -42 -188 -42h-87l-8 -49q-25 -168 -29 -211l83 -3l-6 -36h-320zM278 342h27q52 0 79 9.5t48 35.5t34.5 69.5t13.5 86.5q0 72 -43 95 q-20 12 -74 12h-33q-13 -63 -33 -187z" />
<glyph unicode="Q" horiz-adv-x="762" d="M541 -142l-2 -46q-25 -5 -57 -5q-127 0 -181 77q-37 52 -51 119q-182 61 -182 284q0 174 100 296q99 121 265 121q142 0 214 -80q75 -81 75 -220q0 -165 -89 -282t-227 -131q15 -71 42 -102t75 -31h18zM441 665q-95 0 -152 -119q-29 -60 -47.5 -145t-18.5 -161 q0 -104 32 -158.5t93 -54.5q102 0 159 125q60 131 60 300q0 109 -30.5 161t-95.5 52z" />
<glyph unicode="R" horiz-adv-x="665" d="M-8 0l6 36l77 3q18 86 37 205l30 190q21 123 30 220l-76 3l6 35h300q126 0 179.5 -35.5t53.5 -119.5q0 -95 -58 -148q-42 -37 -125 -45q53 -13 71 -39.5t31 -114.5l20 -151l51 -3l-6 -36h-195l-10 100q-11 118 -33 173q-10 25 -28 34.5t-55 9.5h-23l-11 -68 q-26 -175 -29 -210l76 -3l-6 -36h-313zM281 359h39q79 0 115 40q44 50 44 147q0 67 -40 91q-26 13 -93 13h-16q-15 -76 -32 -186z" />
<glyph unicode="S" horiz-adv-x="578" d="M33 33l20 157h112l-10 -129q41 -30 101 -30q61 0 99.5 33.5t38.5 86.5q0 37 -17 60.5t-60 44.5q-129 64 -167 99q-60 53 -60 138q0 97 72 156q65 55 183 55q115 0 206 -46l-18 -147h-114l10 126q-35 24 -86 24q-54 0 -92 -33.5t-38 -82.5q0 -40 31 -71q23 -22 98 -60 q94 -47 129 -82q48 -46 48 -126q0 -93 -65 -153q-69 -65 -201 -65q-124 0 -220 45z" />
<glyph unicode="T" horiz-adv-x="640" d="M104 0l5 36l97 3q15 71 37 205l29 185q22 138 30 221h-105l-28 -138h-112l29 180h607l-29 -180h-112l16 138h-107q-12 -54 -33 -188l-33 -212q-23 -157 -30 -211l96 -3l-6 -36h-351z" />
<glyph unicode="U" horiz-adv-x="731" d="M99 692h313l-6 -36l-78 -3q-10 -48 -33 -185l-30 -193q-12 -80 -12 -126q0 -110 115 -110q95 0 145 61q35 43 56 176l28 180q19 125 27 197l-76 3l5 36h221l-6 -36l-76 -3q-6 -24 -11 -56l-21 -115q-4 -21 -9 -51l-22 -142q-15 -101 -29 -147.5t-38 -74.5 q-65 -79 -204 -79q-255 0 -255 175q0 44 17 154l19 117q24 154 30 219l-76 3z" />
<glyph unicode="V" horiz-adv-x="681" d="M76 692h288l-5 -36l-71 -3q9 -73 39 -242l45 -245l134 283q63 135 90 205l-64 2l6 36h203l-5 -36l-58 -3q-27 -50 -96 -182l-139 -277q-45 -90 -92 -194h-105q-10 69 -35 198l-50 259q-4 26 -16 84q-11 52 -13 60q-4 26 -8 38l-4 14l-50 3z" />
<glyph unicode="W" horiz-adv-x="956" d="M67 692h289l-6 -36l-75 -3q1 -38 14 -187l28 -292l123 273q85 193 101 245h98q5 -109 17 -218l30 -299l116 266q43 98 87 212l-70 3l5 36h207l-5 -36l-58 -3q-15 -27 -30 -59q-11 -25 -35 -73l-24 -51l-126 -272q-66 -146 -85 -198h-110q-3 66 -19 199l-30 268l-125 -273 q-58 -126 -83 -194h-110q-2 48 -19 199l-29 268q-9 84 -24 186l-58 3z" />
<glyph unicode="X" horiz-adv-x="661" d="M-40 0l6 36l44 3q15 13 100 105l165 185l-56 130q-65 153 -85 194l-58 3l5 36h291l-5 -36l-64 -3q10 -43 61 -160l26 -59l94 109q72 87 88 111l-58 2l5 36h198l-5 -36l-57 -3q-41 -41 -119 -128l-124 -140l69 -158q68 -157 84 -188l58 -3l-5 -36h-295l5 36l63 3 q-13 50 -60 161l-34 79l-124 -149q-42 -51 -73 -91l61 -3l-6 -36h-195z" />
<glyph unicode="Y" horiz-adv-x="596" d="M92 0l6 34l81 3q38 161 47 283l-90 233q-30 74 -43 100l-52 3l6 36h296l-6 -36l-79 -3q10 -38 44 -132l53 -149l77 116q90 137 106 166l-68 2l5 36h200l-6 -36l-54 -3q-46 -57 -121 -169l-109 -159q-7 -18 -23 -119t-22 -169l80 -3l-5 -34h-323z" />
<glyph unicode="Z" horiz-adv-x="644" d="M5 0l9 55q39 48 62 78q6 7 33.5 42.5t45.5 58.5l181 234q29 38 40 54q25 34 49 64q30 40 45 64h-229l-28 -138h-112l29 180h522l-9 -55q-72 -92 -107 -137q-3 -4 -21.5 -27.5t-27.5 -36.5l-143 -185l-42 -57l-48 -65q-16 -20 -46 -60l-19 -27h249l29 147h113l-30 -189 h-545z" />
<glyph unicode="[" horiz-adv-x="378" d="M173 750h230l-6 -37h-88l-131 -832h87l-6 -37h-229z" />
<glyph unicode="\" horiz-adv-x="210" d="M112 -20l-58 732h74l57 -732h-73z" />
<glyph unicode="]" horiz-adv-x="378" d="M219 -156h-229l6 37h88l131 832h-87l5 37h230z" />
<glyph unicode="^" d="M340 554l-162 -213l-160 2l284 349h109l173 -349l-152 -2z" />
<glyph unicode="_" horiz-adv-x="498" d="M-122 -215l11 70h595l-11 -70h-595z" />
<glyph unicode="`" horiz-adv-x="498" d="M418 599l-18 -28q-92 38 -149 80q-28 21 -48 45t-20 35q0 10 18 10h118q11 -35 39 -75.5t60 -66.5z" />
<glyph unicode="a" horiz-adv-x="635" d="M596 64l17 -35q-66 -41 -138 -41q-49 0 -72 17.5t-27 57.5q-31 -40 -66 -57.5t-86 -17.5q-85 0 -130.5 55t-45.5 158q0 140 68 231.5t171 91.5q93 0 143 -80l11 68h143q-24 -129 -38 -213l-27 -172q-5 -29 -5 -43q0 -36 29 -36q18 0 53 16zM376 129l41 259q-36 64 -86 64 q-61 0 -98 -95q-30 -74 -30 -164q0 -65 20.5 -99.5t58.5 -34.5q54 0 94 70z" />
<glyph unicode="b" horiz-adv-x="638" d="M185 0h-141q22 113 50 284l36 228q16 103 24 180l-60 3l6 36l211 6q-5 -24 -39 -216l-10 -60q65 62 146 62q89 0 136 -56t47 -161q0 -63 -18 -125.5t-49 -104.5q-65 -88 -179 -88q-56 0 -91 19t-56 61zM251 388l-40 -250q11 -41 36.5 -65t56.5 -24q66 0 103 107 q30 90 30 183q0 125 -70 125q-53 0 -116 -76z" />
<glyph unicode="c" horiz-adv-x="526" d="M516 489l-25 -145h-112l12 130q-20 10 -40 10q-71 0 -113 -107q-16 -39 -27 -97.5t-11 -104.5q0 -140 109 -140q61 0 130 43l21 -36q-78 -54 -179 -54q-113 0 -173.5 56t-60.5 162q0 133 74 223q78 94 224 94q90 0 171 -34z" />
<glyph unicode="d" horiz-adv-x="641" d="M374 0l7 63q-59 -75 -155 -75q-87 0 -132.5 53.5t-45.5 156.5q0 128 63 223q69 102 184 102q94 0 145 -70l9 58q22 146 24 181l-64 3l6 36l214 6q-32 -174 -52 -306l-33 -209q-20 -128 -24 -183l63 -3l-6 -36h-203zM389 135l41 252q-37 77 -92 77q-65 0 -105 -104 q-32 -84 -32 -187q0 -124 72 -124q29 0 62.5 24.5t53.5 61.5z" />
<glyph unicode="e" horiz-adv-x="586" d="M537 252h-331q-6 -43 -6 -72q0 -146 126 -146q66 0 133 43l23 -37q-86 -52 -193 -52q-116 0 -178.5 57.5t-62.5 163.5q0 123 69 213q76 101 217 101q110 0 165 -53q44 -45 44 -143q0 -35 -6 -75zM213 291h176q9 54 9 95q0 54 -13.5 77t-44.5 23q-44 0 -77 -51t-50 -144z " />
<glyph unicode="f" horiz-adv-x="389" d="M206 0h-155q25 130 50 285l29 190h-79l6 37h79l6 36q16 101 50 140q49 56 155 56q89 0 161 -32l-21 -128h-105l9 108q-12 13 -26 13q-32 0 -50 -40q-11 -28 -26 -113l-7 -40h111l-6 -37h-111l-31 -200q-31 -208 -39 -275z" />
<glyph unicode="g" horiz-adv-x="642" d="M458 518l205 -7l-6 -35l-68 -3q-13 -59 -40 -222l-29 -185q-16 -98 -31.5 -141t-47.5 -75q-74 -77 -238 -77q-113 0 -193 41l25 129h111l-11 -112q27 -17 65 -17q92 0 130 76q24 48 42 166l3 22q-57 -61 -138 -61q-87 0 -137 52t-50 143q0 134 68.5 222.5t173.5 88.5 q103 0 151 -77zM388 160l36 225q-14 38 -39.5 60t-55.5 22t-51.5 -23t-41.5 -74q-33 -86 -33 -185q0 -111 65 -111t120 86z" />
<glyph unicode="h" horiz-adv-x="647" d="M282 521l-13 -79q47 44 88 62.5t91 18.5q61 0 94.5 -30.5t33.5 -86.5q0 -35 -16 -131l-9 -56q-17 -119 -23 -180l63 -3l-6 -36h-218q10 55 37 209l15 94q9 59 9 90q0 57 -47 57q-26 0 -60.5 -21.5t-62.5 -54.5l-10 -68q-36 -233 -44 -306h-156q30 159 50 284l36 228 q21 150 23 180l-60 3l7 36l216 6q-30 -168 -38 -216z" />
<glyph unicode="i" horiz-adv-x="331" d="M204 0h-156q14 63 43 243l6 40q18 115 26 190l-60 3l6 35l216 6q-30 -162 -40 -225l-6 -36q-27 -172 -35 -256zM233 749q34 0 56.5 -22t22.5 -56q0 -36 -22 -58.5t-58 -22.5q-34 0 -56.5 22t-22.5 57t22.5 57.5t57.5 22.5z" />
<glyph unicode="j" horiz-adv-x="331" d="M63 511l220 6q-34 -189 -48 -276l-37 -230q-18 -124 -62 -169q-57 -60 -183 -60q-26 0 -61 3l8 38q75 0 106.5 43.5t51.5 176.5l39 250q18 113 24 180l-64 3zM230 749q35 0 57 -22.5t22 -57.5t-22.5 -57t-56.5 -22q-35 0 -57.5 22.5t-22.5 58.5q0 34 22.5 56t57.5 22z " />
<glyph unicode="k" horiz-adv-x="609" d="M243 278l-14 -86q0 -1 -11 -80q-6 -36 -10 -72l-5 -40h-155q3 19 9 49t9 48q20 102 32 187l36 228q21 134 24 181l-60 3l6 35l217 6l-4 -21l-12 -57q-3 -21 -11 -63l-18 -111l-29 -186l156 119q59 46 70 56l-55 2l5 36h201l-6 -36l-47 -3q-16 -8 -43 -27l-48 -34 q-11 -7 -33 -23q-4 -3 -16 -11l-56 -43l87 -188l36 -74q9 -20 19 -33l57 -4l-6 -36h-204q-7 28 -37 93z" />
<glyph unicode="l" horiz-adv-x="317" d="M197 0h-156q36 193 50 284l35 228q16 98 24 180l-60 3l7 36l216 6q-34 -192 -49 -277l-29 -190q-6 -39 -11 -71t-7 -44.5t-3.5 -25.5t-3.5 -27q-10 -70 -13 -102z" />
<glyph unicode="m" horiz-adv-x="946" d="M261 386l-19 -117q-26 -168 -38 -269h-156q25 136 47 266l4 27q14 93 16 110q6 43 8 70l-60 3l6 35l207 6l-9 -68q84 74 173 74q105 0 122 -86q53 48 94 67t91 19q127 0 127 -119q0 -31 -15 -129l-7 -44q-26 -154 -26 -192l63 -3l-5 -36h-219q9 52 47 266l4 25 q11 66 11 97q0 62 -47 62q-51 0 -112 -66l-18 -113q-4 -30 -12.5 -86.5t-12.5 -82.5q-9 -64 -13 -102h-156q27 143 48 268l3 21q11 68 11 99q0 62 -47 62q-46 0 -110 -64z" />
<glyph unicode="n" horiz-adv-x="647" d="M259 374l-11 -68q-34 -222 -44 -306h-156q32 176 50 284l5 33q16 110 20 156l-60 3l6 35l207 6l-11 -79q49 46 91 65.5t91 19.5q62 0 95.5 -30.5t33.5 -86.5q0 -37 -16 -131l-9 -56q-15 -100 -23 -180l63 -3l-6 -36h-217q15 83 36 209l12 73q12 81 12 110q0 58 -47 58 q-26 0 -60.5 -21.5t-61.5 -54.5z" />
<glyph unicode="o" horiz-adv-x="628" d="M345 523q113 0 173.5 -58.5t60.5 -167.5q0 -133 -82 -224q-78 -85 -213 -85q-126 0 -181 65q-54 62 -54 164q0 62 22 120.5t62 101.5q77 84 212 84zM344 485q-78 0 -120 -150q-22 -85 -22 -172q0 -137 81 -137q34 0 62.5 29t47.5 83q32 100 32 204q0 143 -81 143z" />
<glyph unicode="p" horiz-adv-x="646" d="M276 517l-7 -58q64 64 148 64q88 0 135 -55.5t47 -160.5q0 -138 -67 -231q-65 -88 -177 -88q-105 0 -146 77l-4 -29q-29 -190 -36 -251h-155q20 102 50 285l35 223q20 137 23 180l-59 3l6 35zM259 387l-39 -249q12 -41 37 -65t57 -24q64 0 102 107q30 85 30 179 q0 129 -71 129q-50 0 -116 -77z" />
<glyph unicode="q" horiz-adv-x="646" d="M453 512h146q-23 -126 -39 -220l-38 -238q-31 -199 -38 -269h-155q1 5 6.5 35t10.5 56q15 70 25 145l5 36q-35 -38 -67.5 -53.5t-80.5 -15.5q-180 0 -180 211q0 123 62 221q66 104 186 104q48 0 82 -17t63 -55zM388 132l41 257q-24 42 -44 58.5t-48 16.5q-64 0 -104 -104 q-32 -84 -32 -188q0 -123 71 -123q29 0 61.5 23.5t54.5 59.5z" />
<glyph unicode="r" horiz-adv-x="482" d="M271 516l-11 -79q56 84 157 84q49 0 85 -12l-27 -164h-109l12 114q-7 1 -11 1q-38 0 -73.5 -42t-43.5 -97l-9 -57q-2 -11 -25 -163q-3 -21 -13 -101h-155q30 164 44 246l7 45q9 58 16 111q1 8 3.5 30.5l4.5 40.5l-60 3l6 35z" />
<glyph unicode="s" horiz-adv-x="492" d="M24 19l21 134h104l-5 -103q29 -21 74 -21q43 0 70.5 23t27.5 59q0 31 -22 47q-13 8 -77 34q-83 33 -116.5 68.5t-33.5 91.5q0 74 57 123q55 48 158 48q100 0 169 -32l-20 -133h-102l8 110q-23 15 -64 15t-67 -22.5t-26 -56.5q0 -31 25 -47q15 -10 89 -41q78 -34 103 -58 q34 -32 34 -94q0 -84 -60 -130t-169 -46q-91 0 -178 31z" />
<glyph unicode="t" horiz-adv-x="389" d="M126 475h-80l6 37h39q66 0 99 31.5t67 126.5h47l-26 -158h129l-6 -37h-129l-50 -321q-8 -48 -8 -66q0 -47 42 -47q32 0 69 29l22 -34q-56 -48 -135 -48q-67 0 -104 29.5t-37 83.5q0 25 10 83z" />
<glyph unicode="u" horiz-adv-x="646" d="M389 139l53 334l-65 3l6 35l216 6q-9 -49 -21 -118.5t-16 -90.5l-19 -118q-15 -118 -19 -151l60 -3l-6 -36l-207 -5l10 77q-54 -48 -93 -66t-91 -18q-61 0 -93.5 30t-32.5 86q0 29 15 132l9 57q8 43 10 70q8 53 9 70q3 15 5 40l-60 3l6 35l216 6q-21 -110 -39 -216 l-16 -101q-7 -49 -7 -78q0 -61 46 -61q59 0 124 78z" />
<glyph unicode="v" horiz-adv-x="556" d="M44 512h257l-6 -36l-53 -3q1 -11 5 -43l7 -41q1 -12 5 -36l42 -214l98 190q56 108 70 144l-72 3l6 36h193l-6 -36l-48 -3q-43 -67 -87 -150l-98 -178q-68 -130 -75 -145h-105q-6 45 -6 47q-2 11 -6 35l-10 55l-36 190q-19 95 -34 146l-47 3z" />
<glyph unicode="w" horiz-adv-x="830" d="M48 511h257l-5 -35l-54 -3q1 -17 3 -41l5 -48l4 -33l28 -188l179 348h83l51 -348l85 174q7 15 20.5 43.5t20.5 42.5t21 50l-70 3l6 36h192l-6 -36l-49 -3q-28 -49 -79 -143l-105 -203q-56 -115 -62 -127h-101q-5 56 -16 135l-28 194l-106 -204l-62 -125h-101 q-1 35 -15 134l-28 193q-9 48 -15 93q-6 26 -12 53l-47 3z" />
<glyph unicode="x" horiz-adv-x="545" d="M-49 0l6 36l48 3q31 28 108 109l94 100l-49 106q-10 23 -30 67q-2 4 -27 52l-53 3l5 36h269l-6 -36l-52 -3q5 -22 37 -93l20 -45l52 58q56 61 67 80l-52 3l5 36h184l-5 -36l-50 -3q-24 -19 -89 -85l-91 -96l54 -119q55 -122 66 -134l49 -3l-6 -36h-272l5 36l58 3 q-14 42 -38 96l-31 68l-70 -82q-40 -46 -67 -82l46 -3l-6 -36h-179z" />
<glyph unicode="y" horiz-adv-x="552" d="M44 512h258l-6 -36l-55 -3q4 -31 24 -128l40 -186l85 152l60 111q17 33 25 53l-75 1l6 36h192l-6 -36l-47 -3q-13 -17 -85 -141l-207 -364q-60 -106 -113 -147.5t-127 -41.5q-36 0 -57 8l28 81q33 -12 62 -12q87 0 145 103l9 16l-75 345q-27 113 -39 153l-47 3z" />
<glyph unicode="z" horiz-adv-x="526" d="M-9 0l6 37l346 437h-159l-26 -129h-110l27 167h448l-6 -38l-348 -437h175l27 131h108l-27 -168h-461z" />
<glyph unicode="{" horiz-adv-x="378" d="M37 279l6 36q46 1 70.5 29t32.5 90l23 146q10 62 19 89t26 44q20 21 45.5 29t74.5 8h99l-6 -37h-33q-41 0 -55 -19t-26 -93l-25 -163q-10 -68 -33 -99t-72 -42q65 -18 65 -87q0 -18 -8 -73l-24 -155q-7 -43 -7 -56q0 -25 11.5 -35t39.5 -10h36l-6 -37h-98q-64 0 -88 18 q-31 22 -31 76q0 31 9 89l19 121q8 51 8 62q0 42 -29 60q-12 6 -43 9z" />
<glyph unicode="|" horiz-adv-x="287" d="M70 -215v911h143v-911h-143z" />
<glyph unicode="}" horiz-adv-x="378" d="M355 315l-5 -36q-47 -2 -72 -30t-32 -89l-23 -146q-10 -62 -19 -89.5t-25 -43.5q-20 -21 -46 -29t-75 -8h-99l6 37h33q41 0 56 20q10 13 13.5 26t11.5 66l26 163q10 69 33 100t72 41q-65 17 -65 87q0 24 7 73l25 154q7 39 7 56q0 25 -12 35.5t-40 10.5h-36l6 37h98 q66 0 90 -18q30 -22 30 -76q0 -26 -10 -89l-19 -122q-6 -42 -6 -59q0 -46 28 -62q12 -6 42 -9z" />
<glyph unicode="~" d="M91 165l-71 46q50 75 89.5 108t79.5 33q27 0 49.5 -9t80.5 -43q56 -32 79 -32q21 0 40.5 17t48.5 60l68 -45q-45 -77 -82.5 -109t-80.5 -32q-31 0 -60 12t-93 50q-39 22 -58 22q-20 0 -39 -16t-51 -62z" />
<glyph unicode="&#xa1;" horiz-adv-x="363" d="M168 284h46l2 -315q0 -89 -10 -111q-20 -50 -84 -50q-37 0 -58.5 18t-21.5 49q0 24 31 113zM210 524q37 0 61 -24t24 -62q0 -36 -24 -60t-61 -24q-38 0 -61.5 24t-23.5 61t23.5 61t61.5 24z" />
<glyph unicode="&#xa2;" d="M588 673l-25 -144h-112l12 128q-18 10 -44 11l-71 -449q8 -2 20 -2q67 0 139 45l24 -37q-77 -56 -191 -54l-10 -68h-45l11 72q-109 10 -166 64.5t-57 148.5q0 77 33 147t89 113q70 51 185 60l11 68h45l-11 -68q85 -3 163 -35zM305 229l68 435q-47 -14 -81 -67 q-29 -45 -47.5 -110.5t-18.5 -124.5q0 -106 79 -133z" />
<glyph unicode="&#xa3;" d="M-12 0l8 51q56 21 83.5 72.5t44.5 170.5l7 42h-89l7 42h89l16 101q11 69 28 108t46 64q65 53 181 53q115 0 202 -39l-24 -153h-116l14 126q-20 24 -56 24q-63 0 -96 -66q-19 -41 -33 -135l-13 -83h127l-7 -42h-127l-5 -31q-15 -98 -36 -141.5t-75 -89.5h354l-12 -74h-518 z" />
<glyph unicode="&#xa4;" d="M73 65l-64 64l73 73q-40 64 -40 147t40 147l-73 74l64 63l71 -71q65 46 159 46q88 0 158 -46l70 71l64 -63l-72 -74q39 -70 39 -147q0 -78 -39 -147l72 -73l-64 -64l-70 71q-71 -46 -158 -46q-94 0 -159 46zM302 517q-71 0 -114 -45.5t-43 -120.5q0 -79 42 -124.5 t115 -45.5q72 0 114.5 45.5t42.5 122.5t-42.5 122.5t-114.5 45.5z" />
<glyph unicode="&#xa5;" d="M87 0l5 34l82 3q12 63 27 143l3 15h-113l6 42h113q9 54 9 69h-111l6 42h95l-77 204q-30 79 -42 101l-52 3l6 36h295l-5 -36l-80 -3q5 -21 43 -131l52 -149l77 116q14 22 42 64q47 72 52 81q2 4 11 20l-69 2l6 36h199l-5 -36l-54 -3q-49 -60 -120 -167l-94 -138h96l-6 -42 h-111q-8 -42 -12 -69h112l-6 -42h-113l-2 -14q-17 -121 -18 -144l80 -3l-5 -34h-322z" />
<glyph unicode="&#xa6;" horiz-adv-x="287" d="M97 407l45 285h143l-45 -285h-143zM32 0l45 285h144l-46 -285h-143z" />
<glyph unicode="&#xa7;" d="M549 666l-23 -141h-115l11 117q-24 20 -56 20q-41 0 -70.5 -30.5t-29.5 -72.5q0 -33 24 -52q13 -11 79 -44q80 -40 110.5 -70t30.5 -70q0 -45 -26 -83.5t-87 -84.5q39 -25 53.5 -51t14.5 -68q0 -88 -66 -138.5t-181 -50.5q-93 0 -189 36l23 143h116l-12 -119 q32 -21 66 -21q49 0 81.5 30t32.5 76q0 32 -21 48q-18 15 -87 49q-89 43 -119 72.5t-30 72.5q0 42 26 79t90 87q-32 28 -45 53t-13 61q0 85 61 136t164 51q86 0 187 -35zM238 373l-12 7q-27 -34 -27 -72q0 -33 29 -56.5t136 -76.5q26 35 26 72q0 28 -26.5 51.5t-100.5 61.5 q-5 2 -14 7t-11 6z" />
<glyph unicode="&#xa8;" horiz-adv-x="498" d="M206 746q34 0 55.5 -21.5t21.5 -55.5t-21.5 -56t-55.5 -22t-56 21.5t-22 56.5q0 33 22 55t56 22zM425 746q34 0 55.5 -21.5t21.5 -55.5t-21.5 -56t-55.5 -22q-35 0 -56.5 21.5t-21.5 56.5q0 33 22 55t56 22z" />
<glyph unicode="&#xa9;" horiz-adv-x="784" d="M476 276h80v-86q-66 -38 -135 -38q-92 0 -144.5 51t-52.5 139q0 90 50 140t140 50q79 0 138 -35v-86h-76l-5 75q-18 14 -40 14q-43 0 -69.5 -42.5t-26.5 -113.5q0 -72 26.5 -114.5t71.5 -42.5q21 0 37 11zM406 702q154 0 255 -101t101 -255t-100.5 -255t-254.5 -101 q-157 0 -257 101.5t-100 259.5q0 150 102 250.5t254 100.5zM406 659q-131 0 -218 -88t-87 -221q0 -140 85.5 -228.5t220.5 -88.5q132 0 218 88.5t86 224.5t-86 224.5t-219 88.5z" />
<glyph unicode="&#xaa;" horiz-adv-x="378" d="M408 462l19 -31q-44 -28 -99 -28q-49 0 -62 38q-20 -22 -39 -30t-49 -8q-116 0 -116 121q0 79 41.5 128t106.5 49q29 0 46.5 -9t34.5 -33l6 36h103q-12 -59 -18 -96l-5 -25l-13 -85q-3 -17 -3 -24q0 -16 15 -16q11 0 32 13zM261 489l20 127q-21 36 -44 36 q-27 0 -45.5 -39.5t-18.5 -96.5q0 -64 38 -64q27 0 50 37z" />
<glyph unicode="&#xab;" horiz-adv-x="565" d="M422 254l66 -199h-46l-172 199l222 200h49zM192 254l67 -199h-47l-172 199l223 200h49z" />
<glyph unicode="&#xac;" d="M50 277v105h472v-309h-116v204h-356z" />
<glyph unicode="&#xad;" horiz-adv-x="384" d="M40 232l17 106h296l-17 -106h-296z" />
<glyph unicode="&#xae;" horiz-adv-x="584" d="M207 631h127q69 0 89 -14q29 -20 29 -58q0 -28 -14.5 -43.5t-47.5 -22.5q21 -8 31 -22.5t21 -54.5l10 -35l19 -2v-20h-80l-15 55q-13 46 -23.5 58.5t-36.5 12.5h-9v-44v-32q1 -4 2 -28l25 -2v-20h-127v20l30 2q2 28 2 59v105q0 33 -2 62l-30 2v22zM307 505h11q39 0 50 10 q13 13 13 42q0 27 -12 38.5t-40 11.5h-22v-102zM330 754q112 0 185.5 -73t73.5 -186q0 -112 -73 -185.5t-185 -73.5q-114 0 -187 74t-73 189q0 109 74 182t185 73zM330 715q-91 0 -151.5 -62t-60.5 -155q0 -98 59.5 -160.5t153.5 -62.5q91 0 151 62.5t60 157.5t-60 157.5 t-152 62.5z" />
<glyph unicode="&#xaf;" horiz-adv-x="498" d="M133 634l10 61h353l-10 -61h-353z" />
<glyph unicode="&#xb0;" horiz-adv-x="358" d="M223 702q75 0 121 -44t46 -117q0 -72 -45.5 -116.5t-119.5 -44.5q-75 0 -120.5 44.5t-45.5 118.5q0 71 45.5 115t118.5 44zM224 639q-42 0 -67 -26t-25 -71q0 -46 24.5 -72.5t68.5 -26.5q43 0 67.5 26.5t24.5 71.5q0 46 -25 72t-68 26z" />
<glyph unicode="&#xb1;" d="M49 290l17 106h185l20 126h117l-20 -126h185l-16 -106h-186l-20 -127h-116l20 127h-186zM3 0l17 106h487l-17 -106h-487z" />
<glyph unicode="&#xb2;" horiz-adv-x="398" d="M66 312l10 60q211 142 211 236q0 22 -11 35t-30 13q-15 0 -36 -11l-17 -67h-85l15 94q62 26 141 26q134 0 134 -88q0 -53 -44.5 -98.5t-174.5 -124.5h177l-14 -75h-276z" />
<glyph unicode="&#xb3;" horiz-adv-x="398" d="M63 332l15 92h84l-4 -67q13 -10 35 -10q31 0 52 26t21 65q0 49 -73 49q-13 0 -27 -1h-9l7 44q14 -1 27 -1q58 0 80 25q21 24 21 60q0 43 -42 43q-20 0 -36 -10l-16 -66h-85l14 92q62 25 132 25q140 0 140 -89q0 -38 -18.5 -61.5t-61.5 -37.5q56 -24 56 -80 q0 -60 -43.5 -92t-123.5 -32q-68 0 -145 26z" />
<glyph unicode="&#xb4;" horiz-adv-x="498" d="M215 571l-17 28q39 27 78.5 67t60.5 75h128q16 0 16 -7q0 -8 -19.5 -27t-49.5 -40q-68 -48 -197 -96z" />
<glyph unicode="&#xb5;" d="M331 -5l6 60q-29 -36 -53 -51t-55 -15q-36 0 -61 26l-4 -24q-20 -135 -27 -206h-156q13 62 41 226l45 287q18 115 23 174l-53 4l6 35l210 5q-6 -27 -16 -81l-8 -45l-4 -22q-8 -43 -11 -62l-16 -103q-7 -41 -7 -66q0 -40 16 -65t41 -25q46 0 96 65l31 196q19 123 24 165 l-55 3l6 35l209 5q-31 -174 -43 -245l-7 -43q-22 -127 -25 -189l52 -3l-5 -36z" />
<glyph unicode="&#xb6;" horiz-adv-x="736" d="M172 -132l69 436q-75 0 -116.5 42.5t-41.5 119.5q0 112 70 176q32 29 69 39.5t108 10.5h437l-5 -36l-91 -3l-125 -785h-135l123 775h-104l-123 -775h-135z" />
<glyph unicode="&#xb7;" horiz-adv-x="287" d="M149 373q36 0 60 -24t24 -61t-24 -61t-61 -24q-38 0 -61.5 24t-23.5 62q0 36 24.5 60t61.5 24z" />
<glyph unicode="&#xb8;" horiz-adv-x="498" d="M71 -229l-17 29q110 86 118 163h114q19 0 19 -11q0 -23 -28.5 -55.5t-74.5 -60.5q-32 -20 -131 -65z" />
<glyph unicode="&#xb9;" horiz-adv-x="398" d="M106 312l6 37l59 2q11 56 18 100l28 169q-33 -17 -89 -34l-12 40q86 28 134 66h85q-18 -90 -28 -157l-8 -49q-17 -111 -18 -135l52 -2l-6 -37h-221z" />
<glyph unicode="&#xba;" horiz-adv-x="378" d="M253 701q74 0 112.5 -32t38.5 -94q0 -79 -49 -126q-49 -46 -135 -46q-151 0 -151 128q0 75 50 125q46 45 134 45zM249 661q-28 0 -49 -43t-21 -99q0 -76 44 -76q29 0 49.5 42t20.5 101q0 75 -44 75z" />
<glyph unicode="&#xbb;" horiz-adv-x="565" d="M142 255l-66 199h47l171 -199l-222 -200h-49zM372 255l-66 199h46l172 -199l-222 -200h-49z" />
<glyph unicode="&#xbc;" horiz-adv-x="857" d="M105 312l6 37l59 2q11 56 18 100l28 169q-33 -17 -89 -34l-12 40q86 28 134 66h85q-18 -90 -28 -157l-8 -49q-17 -111 -18 -135l52 -2l-6 -37h-221zM313 -20h-74l331 732h75zM641 103h-173l10 59l194 218h115q-11 -52 -24 -129l-13 -85h61l-13 -63h-58l-8 -64l48 -2 l-6 -37h-206l5 37l56 2zM653 166l27 149l-127 -149h100z" />
<glyph unicode="&#xbd;" horiz-adv-x="857" d="M106 312l6 37l59 2q11 56 18 100l28 169q-33 -17 -89 -34l-12 40q86 28 134 66h85q-18 -90 -28 -157l-8 -49q-17 -111 -18 -135l52 -2l-6 -37h-221zM299 -20h-74l332 732h75zM473 0l10 60q211 143 211 236q0 22 -11 35t-29 13q-16 0 -37 -11l-17 -67h-85l15 94 q61 26 141 26q134 0 134 -88q0 -53 -43 -97t-175 -126h176l-14 -75h-276z" />
<glyph unicode="&#xbe;" horiz-adv-x="857" d="M64 332l15 92h84l-4 -67q13 -10 35 -10q31 0 52 26t21 65q0 49 -73 49q-13 0 -27 -1h-9l7 44q14 -1 27 -1q58 0 80 25q21 24 21 60q0 43 -42 43q-20 0 -36 -10l-16 -66h-85l14 92q62 25 132 25q140 0 140 -89q0 -38 -18.5 -61.5t-61.5 -37.5q56 -24 56 -80 q0 -60 -43.5 -92t-123.5 -32q-68 0 -145 26zM324 -20h-74l331 732h76zM632 103h-172l9 59l194 218h115q-15 -77 -23 -129l-14 -85h61l-13 -63h-58l-8 -64l48 -2l-6 -37h-206l6 37l56 2zM644 166l27 149l-127 -149h100z" />
<glyph unicode="&#xbf;" horiz-adv-x="467" d="M256 285h52l-2 -15q-9 -60 -19 -78.5t-57 -62.5q-111 -104 -111 -200q0 -38 18 -60.5t48 -22.5q29 0 56 19l30 135h109l-17 -147q-104 -45 -189 -45q-99 0 -153 36t-54 102q0 82 86 148q28 22 113 71q54 32 67.5 48t20.5 57zM296 524q37 0 61 -24t24 -62q0 -36 -24 -60 t-61 -24t-61 24t-24 61t24 61t61 24z" />
<glyph unicode="&#xc0;" horiz-adv-x="677" d="M-43 0l6 36l55 4q36 55 96 178l137 278q63 127 94 196h109q8 -53 13 -78q16 -88 22 -114l49 -250q31 -146 47 -211l57 -3l-6 -36h-294l5 36l71 3q-5 40 -23 144l-8 43h-208l-19 -40q-54 -118 -65 -148l73 -2l-5 -36h-206zM379 269l-50 269l-130 -269h180zM508 763 l-18 -28q-92 38 -149 80q-28 21 -48 45t-20 35q0 10 18 10h118q11 -35 39 -75.5t60 -66.5z" />
<glyph unicode="&#xc1;" horiz-adv-x="677" d="M-43 0l6 36l55 4q36 55 96 178l137 278q63 127 94 196h109q8 -53 13 -78q16 -88 22 -114l49 -250q31 -146 47 -211l57 -3l-6 -36h-294l5 36l71 3q-5 40 -23 144l-8 43h-208l-19 -40q-54 -118 -65 -148l73 -2l-5 -36h-206zM379 269l-50 269l-130 -269h180zM331 735l-17 28 q39 27 78.5 67t60.5 75h128q16 0 16 -7q0 -8 -19.5 -27t-49.5 -40q-68 -48 -197 -96z" />
<glyph unicode="&#xc2;" horiz-adv-x="677" d="M-43 0l6 36l55 4q36 55 96 178l137 278q63 127 94 196h109q8 -53 13 -78q16 -88 22 -114l49 -250q31 -146 47 -211l57 -3l-6 -36h-294l5 36l71 3q-5 40 -23 144l-8 43h-208l-19 -40q-54 -118 -65 -148l73 -2l-5 -36h-206zM379 269l-50 269l-130 -269h180zM567 764 l-19 -29q-40 15 -76.5 41t-56.5 54q-69 -64 -163 -95l-16 29q28 22 62.5 65t50.5 76h147q7 -35 28 -77.5t43 -63.5z" />
<glyph unicode="&#xc3;" horiz-adv-x="677" d="M-43 0l6 36l55 4q36 55 96 178l137 278q63 127 94 196h109q8 -53 13 -78q16 -88 22 -114l49 -250q31 -146 47 -211l57 -3l-6 -36h-294l5 36l71 3q-5 40 -23 144l-8 43h-208l-19 -40q-54 -118 -65 -148l73 -2l-5 -36h-206zM379 269l-50 269l-130 -269h180zM569 903h35 q-30 -145 -120 -145q-22 0 -39 5t-99 34q-24 10 -40 10q-26 0 -40 -48h-37q14 69 43 106.5t68 37.5q33 0 105 -27q62 -22 80 -22q17 0 27 11t17 38z" />
<glyph unicode="&#xc4;" horiz-adv-x="677" d="M-43 0l6 36l55 4q36 55 96 178l137 278q63 127 94 196h109q8 -53 13 -78q16 -88 22 -114l49 -250q31 -146 47 -211l57 -3l-6 -36h-294l5 36l71 3q-5 40 -23 144l-8 43h-208l-19 -40q-54 -118 -65 -148l73 -2l-5 -36h-206zM379 269l-50 269l-130 -269h180zM301 909 q34 0 55.5 -21.5t21.5 -55.5t-21.5 -56t-55.5 -22q-35 0 -56.5 22t-21.5 57q0 32 22 54t56 22zM520 909q34 0 55.5 -21.5t21.5 -55.5t-21.5 -56t-55.5 -22q-35 0 -56.5 22t-21.5 57q0 32 22 54t56 22z" />
<glyph unicode="&#xc5;" horiz-adv-x="677" d="M-43 0l6 36l55 4q36 55 96 178l137 278q62 123 91 189q-41 29 -41 81q0 44 30 72.5t76 28.5t76 -28.5t30 -72.5q0 -62 -57 -90q4 -19 9 -53q9 -48 24 -123l49 -250q20 -95 47 -211l57 -3l-6 -36h-294l5 36l71 3q-6 45 -23 144l-8 43h-208l-19 -40q-59 -132 -65 -148 l73 -2l-5 -36h-206zM379 269l-50 269l-130 -269h180zM407 825q-26 0 -41.5 -16t-15.5 -42q0 -28 15 -43.5t42 -15.5q26 0 41.5 16t15.5 42q0 27 -15.5 43t-41.5 16z" />
<glyph unicode="&#xc6;" horiz-adv-x="918" d="M-130 0l6 35l58 3q32 36 167 209l353 445h477l-28 -180h-112l16 138h-173q-17 -86 -33 -186l-14 -89h204l-7 -49h-204l-12 -74q-26 -167 -29 -210h192l28 139h113l-30 -181h-547l6 35l77 3q14 62 30 163l4 23h-261l-26 -37q-61 -84 -96 -136q-3 -5 -9 -13l72 -3l-5 -35 h-217zM419 269l59 373l-291 -373h232z" />
<glyph unicode="&#xc7;" horiz-adv-x="673" d="M488 189h115l-25 -155q-93 -46 -209 -46q-162 0 -238 88q-65 76 -65 199q0 89 31 172t86 143q105 115 276 115q111 0 210 -45l-24 -153h-115l12 135q-29 18 -72 18q-110 0 -181 -132q-64 -120 -64 -275q0 -107 40 -164t115 -57q41 0 75 15zM158 -229l-17 29 q110 86 118 163h114q19 0 19 -11q0 -23 -28.5 -55.5t-74.5 -60.5q-32 -20 -131 -65z" />
<glyph unicode="&#xc8;" horiz-adv-x="615" d="M-8 0l6 35l77 3q18 87 37 204l30 192q24 156 30 220l-76 3l6 35h527l-29 -180h-112l16 138h-173q-11 -47 -33 -186l-14 -89h205l-8 -49h-205l-12 -75q-14 -100 -22 -150q-1 -7 -3.5 -28t-3.5 -31h193l29 139h112l-29 -181h-548zM503 763l-18 -28q-92 38 -149 80 q-28 21 -48 45t-20 35q0 10 18 10h118q11 -35 39 -75.5t60 -66.5z" />
<glyph unicode="&#xc9;" horiz-adv-x="615" d="M-8 0l6 35l77 3q18 87 37 204l30 192q24 156 30 220l-76 3l6 35h527l-29 -180h-112l16 138h-173q-11 -47 -33 -186l-14 -89h205l-8 -49h-205l-12 -75q-14 -100 -22 -150q-1 -7 -3.5 -28t-3.5 -31h193l29 139h112l-29 -181h-548zM323 735l-17 28q39 27 78.5 67t60.5 75 h128q16 0 16 -7q0 -8 -19.5 -27t-49.5 -40q-68 -48 -197 -96z" />
<glyph unicode="&#xca;" horiz-adv-x="615" d="M-8 0l6 35l77 3q18 87 37 204l30 192q24 156 30 220l-76 3l6 35h527l-29 -180h-112l16 138h-173q-11 -47 -33 -186l-14 -89h205l-8 -49h-205l-12 -75q-14 -100 -22 -150q-1 -7 -3.5 -28t-3.5 -31h193l29 139h112l-29 -181h-548zM550 764l-19 -29q-40 15 -76.5 41 t-56.5 54q-69 -64 -163 -95l-16 29q28 22 62.5 65t50.5 76h147q7 -35 28 -77.5t43 -63.5z" />
<glyph unicode="&#xcb;" horiz-adv-x="615" d="M-8 0l6 35l77 3q18 87 37 204l30 192q24 156 30 220l-76 3l6 35h527l-29 -180h-112l16 138h-173q-11 -47 -33 -186l-14 -89h205l-8 -49h-205l-12 -75q-14 -100 -22 -150q-1 -7 -3.5 -28t-3.5 -31h193l29 139h112l-29 -181h-548zM275 909q34 0 55.5 -21.5t21.5 -55.5 t-21.5 -56t-55.5 -22q-35 0 -56.5 22t-21.5 57q0 32 22 54t56 22zM494 909q34 0 55.5 -21.5t21.5 -55.5t-21.5 -56t-55.5 -22q-35 0 -56.5 22t-21.5 57q0 32 22 54t56 22z" />
<glyph unicode="&#xcc;" horiz-adv-x="388" d="M-3 0l6 36l77 3q16 76 37 204l30 189q24 156 30 221l-76 3l6 36h313l-6 -36l-78 -3q-11 -53 -33 -187l-34 -216q-25 -170 -29 -211l76 -3l-6 -36h-313zM389 763l-18 -28q-92 38 -149 80q-28 21 -48 45t-20 35q0 10 18 10h118q11 -35 39 -75.5t60 -66.5z" />
<glyph unicode="&#xcd;" horiz-adv-x="388" d="M-3 0l6 36l77 3q16 76 37 204l30 189q24 156 30 221l-76 3l6 36h313l-6 -36l-78 -3q-11 -53 -33 -187l-34 -216q-25 -170 -29 -211l76 -3l-6 -36h-313zM185 735l-17 28q39 27 78.5 67t60.5 75h128q16 0 16 -7q0 -8 -19.5 -27t-49.5 -40q-68 -48 -197 -96z" />
<glyph unicode="&#xce;" horiz-adv-x="388" d="M-3 0l6 36l77 3q16 76 37 204l30 189q24 156 30 221l-76 3l6 36h313l-6 -36l-78 -3q-11 -53 -33 -187l-34 -216q-25 -170 -29 -211l76 -3l-6 -36h-313zM435 764l-19 -29q-40 15 -76.5 41t-56.5 54q-69 -64 -163 -95l-16 29q28 22 62.5 65t50.5 76h147q7 -35 28 -77.5 t43 -63.5z" />
<glyph unicode="&#xcf;" horiz-adv-x="388" d="M-3 0l6 36l77 3q16 76 37 204l30 189q24 156 30 221l-76 3l6 36h313l-6 -36l-78 -3q-11 -53 -33 -187l-34 -216q-25 -170 -29 -211l76 -3l-6 -36h-313zM169 909q34 0 55.5 -21.5t21.5 -55.5t-21.5 -56t-55.5 -22q-35 0 -56.5 22t-21.5 57q0 32 22 54t56 22zM388 909 q34 0 55.5 -21.5t21.5 -55.5t-21.5 -56t-55.5 -22q-35 0 -56.5 22t-21.5 57q0 32 22 54t56 22z" />
<glyph unicode="&#xd0;" horiz-adv-x="739" d="M133 373l9 61q23 147 30 220l-76 3l6 35h239q176 0 248 -41q111 -65 111 -235q0 -101 -33 -187.5t-91 -140.5q-54 -49 -121 -68.5t-183 -19.5h-280l6 35l77 3q17 75 37 204l14 89h-88l6 42h89zM283 373h120l-7 -42h-119l-13 -80q-25 -170 -29 -209h21q136 0 203 93 q37 52 60 140.5t23 175.5q0 108 -40.5 153.5t-135.5 45.5h-35q-15 -65 -33 -186z" />
<glyph unicode="&#xd1;" horiz-adv-x="739" d="M-10 0l6 36l77 3q13 63 33 181l43 268q23 163 23 165l-77 3l5 36h243q31 -82 67 -165l148 -351l43 280q19 127 24 197l-71 3l5 36h219l-5 -36l-77 -3q-11 -48 -37 -200l-72 -453h-124q-8 28 -58 151l-183 435l-52 -337q-26 -177 -27 -210l72 -3l-6 -36h-219zM633 903h35 q-30 -145 -120 -145q-22 0 -39 5t-99 34q-24 10 -40 10q-26 0 -40 -48h-37q14 69 43 106.5t68 37.5q33 0 105 -27q62 -22 80 -22q17 0 27 11t17 38z" />
<glyph unicode="&#xd2;" horiz-adv-x="762" d="M433 704q137 0 213 -79t76 -221q0 -85 -28 -164.5t-78 -137.5q-98 -114 -259 -114q-138 0 -213.5 79t-75.5 224q0 79 26.5 156.5t73.5 135.5q97 121 265 121zM441 665q-95 0 -152 -119q-29 -60 -47.5 -145t-18.5 -161q0 -104 32 -158.5t93 -54.5q102 0 159 125 q60 130 60 300q0 109 -30.5 161t-95.5 52zM597 763l-18 -28q-92 38 -149 80q-28 21 -48 45t-20 35q0 10 18 10h118q11 -35 39 -75.5t60 -66.5z" />
<glyph unicode="&#xd3;" horiz-adv-x="762" d="M433 704q137 0 213 -79t76 -221q0 -85 -28 -164.5t-78 -137.5q-98 -114 -259 -114q-138 0 -213.5 79t-75.5 224q0 79 26.5 156.5t73.5 135.5q97 121 265 121zM441 665q-95 0 -152 -119q-29 -60 -47.5 -145t-18.5 -161q0 -104 32 -158.5t93 -54.5q102 0 159 125 q60 130 60 300q0 109 -30.5 161t-95.5 52zM403 735l-17 28q39 27 78.5 67t60.5 75h128q16 0 16 -7q0 -8 -19.5 -27t-49.5 -40q-68 -48 -197 -96z" />
<glyph unicode="&#xd4;" horiz-adv-x="762" d="M433 704q137 0 213 -79t76 -221q0 -85 -28 -164.5t-78 -137.5q-98 -114 -259 -114q-138 0 -213.5 79t-75.5 224q0 79 26.5 156.5t73.5 135.5q97 121 265 121zM441 665q-95 0 -152 -119q-29 -60 -47.5 -145t-18.5 -161q0 -104 32 -158.5t93 -54.5q102 0 159 125 q60 130 60 300q0 109 -30.5 161t-95.5 52zM609 764l-19 -29q-40 15 -76.5 41t-56.5 54q-69 -64 -163 -95l-16 29q28 22 62.5 65t50.5 76h147q7 -35 28 -77.5t43 -63.5z" />
<glyph unicode="&#xd5;" horiz-adv-x="762" d="M433 704q137 0 213 -79t76 -221q0 -85 -28 -164.5t-78 -137.5q-98 -114 -259 -114q-138 0 -213.5 79t-75.5 224q0 79 26.5 156.5t73.5 135.5q97 121 265 121zM441 665q-95 0 -152 -119q-29 -60 -47.5 -145t-18.5 -161q0 -104 32 -158.5t93 -54.5q102 0 159 125 q60 130 60 300q0 109 -30.5 161t-95.5 52zM634 903h35q-30 -145 -120 -145q-22 0 -39 5t-99 34q-24 10 -40 10q-27 0 -40 -48h-37q14 69 43 106.5t68 37.5q33 0 105 -27q62 -22 80 -22q17 0 27 11t17 38z" />
<glyph unicode="&#xd6;" horiz-adv-x="762" d="M433 704q137 0 213 -79t76 -221q0 -85 -28 -164.5t-78 -137.5q-98 -114 -259 -114q-138 0 -213.5 79t-75.5 224q0 79 26.5 156.5t73.5 135.5q97 121 265 121zM441 665q-95 0 -152 -119q-29 -60 -47.5 -145t-18.5 -161q0 -104 32 -158.5t93 -54.5q102 0 159 125 q60 130 60 300q0 109 -30.5 161t-95.5 52zM353 909q34 0 55.5 -21.5t21.5 -55.5t-21.5 -56t-55.5 -22q-35 0 -56.5 22t-21.5 57q0 32 22 54t56 22zM572 909q34 0 55.5 -21.5t21.5 -55.5t-21.5 -56t-55.5 -22q-35 0 -56.5 22t-21.5 57q0 32 22 54t56 22z" />
<glyph unicode="&#xd7;" d="M212 256l-151 151l75 75l151 -152l151 152l75 -75l-151 -151l151 -152l-75 -74l-151 151l-151 -151l-75 74z" />
<glyph unicode="&#xd8;" horiz-adv-x="762" d="M69 -34l-33 31l88 94q-56 81 -56 195q0 175 100 297q99 121 262 121q130 0 206 -69l85 90l33 -31l-88 -93q57 -83 57 -199q0 -83 -28 -163t-78 -137q-98 -114 -259 -114q-132 0 -204 69zM225 197l333 356q-14 59 -41 85.5t-76 26.5q-93 0 -152 -119q-30 -60 -48 -144.5 t-18 -162.5q0 -24 2 -42zM566 496l-333 -356q29 -113 115 -113q124 0 182 183q38 112 38 250q0 24 -2 36z" />
<glyph unicode="&#xd9;" horiz-adv-x="731" d="M99 692h313l-6 -36l-78 -3q-10 -48 -33 -185l-30 -193q-12 -80 -12 -126q0 -110 115 -110q95 0 145 61q35 43 56 176l28 180q19 125 27 197l-76 3l5 36h221l-6 -36l-76 -3q-6 -24 -11 -56l-21 -115q-4 -21 -9 -51l-22 -142q-15 -101 -29 -147.5t-38 -74.5 q-65 -79 -204 -79q-255 0 -255 175q0 44 17 154l19 117q24 154 30 219l-76 3zM526 763l-18 -28q-92 38 -149 80q-28 21 -48 45t-20 35q0 10 18 10h118q11 -35 39 -75.5t60 -66.5z" />
<glyph unicode="&#xda;" horiz-adv-x="731" d="M99 692h313l-6 -36l-78 -3q-10 -48 -33 -185l-30 -193q-12 -80 -12 -126q0 -110 115 -110q95 0 145 61q35 43 56 176l28 180q19 125 27 197l-76 3l5 36h221l-6 -36l-76 -3q-6 -24 -11 -56l-21 -115q-4 -21 -9 -51l-22 -142q-15 -101 -29 -147.5t-38 -74.5 q-65 -79 -204 -79q-255 0 -255 175q0 44 17 154l19 117q24 154 30 219l-76 3zM450 735l-17 28q39 27 78.5 67t60.5 75h128q16 0 16 -7q0 -8 -19.5 -27t-49.5 -40q-68 -48 -197 -96z" />
<glyph unicode="&#xdb;" horiz-adv-x="731" d="M99 692h313l-6 -36l-78 -3q-10 -48 -33 -185l-30 -193q-12 -80 -12 -126q0 -110 115 -110q95 0 145 61q35 43 56 176l28 180q19 125 27 197l-76 3l5 36h221l-6 -36l-76 -3q-6 -24 -11 -56l-21 -115q-4 -21 -9 -51l-22 -142q-15 -101 -29 -147.5t-38 -74.5 q-65 -79 -204 -79q-255 0 -255 175q0 44 17 154l19 117q24 154 30 219l-76 3zM653 764l-19 -29q-40 15 -76.5 41t-56.5 54q-69 -64 -163 -95l-16 29q28 22 62.5 65t50.5 76h147q7 -35 28 -77.5t43 -63.5z" />
<glyph unicode="&#xdc;" horiz-adv-x="731" d="M99 692h313l-6 -36l-78 -3q-10 -48 -33 -185l-30 -193q-12 -80 -12 -126q0 -110 115 -110q95 0 145 61q35 43 56 176l28 180q19 125 27 197l-76 3l5 36h221l-6 -36l-76 -3q-6 -24 -11 -56l-21 -115q-4 -21 -9 -51l-22 -142q-15 -101 -29 -147.5t-38 -74.5 q-65 -79 -204 -79q-255 0 -255 175q0 44 17 154l19 117q24 154 30 219l-76 3zM359 909q34 0 55.5 -21.5t21.5 -55.5t-21.5 -56t-55.5 -22q-35 0 -56.5 22t-21.5 57q0 32 22 54t56 22zM578 909q34 0 55.5 -21.5t21.5 -55.5t-21.5 -56t-55.5 -22q-35 0 -56.5 22t-21.5 57 q0 32 22 54t56 22z" />
<glyph unicode="&#xdd;" horiz-adv-x="596" d="M92 0l6 34l81 3q38 161 47 283l-90 233q-30 74 -43 100l-52 3l6 36h296l-6 -36l-79 -3q10 -38 44 -132l53 -149l77 116q90 137 106 166l-68 2l5 36h200l-6 -36l-54 -3q-46 -57 -121 -169l-109 -159q-7 -18 -23 -119t-22 -169l80 -3l-5 -34h-323zM375 735l-17 28 q39 27 78.5 67t60.5 75h128q16 0 16 -7q0 -8 -19.5 -27t-49.5 -40q-68 -48 -197 -96z" />
<glyph unicode="&#xde;" horiz-adv-x="638" d="M-8 0l6 36l77 3q13 58 37 204l30 192q23 147 30 218l-76 3l6 36h313l-6 -36l-78 -3q-9 -40 -18 -99h39q78 0 120.5 -7.5t72.5 -27.5q68 -43 68 -135q0 -123 -88 -181q-64 -42 -188 -42h-86q-7 -48 -10 -67q-3 -25 -6 -55l76 -3l-6 -36h-313zM257 204h27q51 0 78 9.5 t49 35.5q47 57 47 155q0 61 -26 84.5t-91 23.5h-36z" />
<glyph unicode="&#xdf;" horiz-adv-x="641" d="M-19 0l6 36l64 3q12 52 33 178l45 280q14 85 25.5 120t35.5 61q58 66 185 66q109 0 167.5 -43.5t58.5 -124.5q0 -93 -63 -138q-37 -27 -117 -44q79 -12 114 -44q48 -43 48 -125q0 -111 -70 -176q-62 -61 -181 -61q-50 0 -89 13l13 36q23 -8 40 -8q70 0 106 82 q28 63 28 142q0 117 -94 117h-13l6 36h8q53 0 80 50q35 66 35 164q0 88 -65 88q-32 0 -53.5 -21.5t-34.5 -67.5q-12 -42 -26 -127l-44 -279q-5 -49 -10 -75q-12 -72 -19 -138h-219z" />
<glyph unicode="&#xe0;" horiz-adv-x="635" d="M596 64l17 -35q-66 -41 -138 -41q-49 0 -72 17.5t-27 57.5q-31 -40 -66 -57.5t-86 -17.5q-85 0 -130.5 55t-45.5 158q0 140 68 231.5t171 91.5q93 0 143 -80l11 68h143q-24 -129 -38 -213l-27 -172q-5 -29 -5 -43q0 -36 29 -36q18 0 53 16zM376 129l41 259q-36 64 -86 64 q-61 0 -98 -95q-30 -74 -30 -164q0 -65 20.5 -99.5t58.5 -34.5q54 0 94 70zM486 599l-18 -28q-92 38 -149 80q-28 21 -48 45t-20 35q0 10 18 10h118q11 -35 39 -75.5t60 -66.5z" />
<glyph unicode="&#xe1;" horiz-adv-x="635" d="M596 64l17 -35q-66 -41 -138 -41q-49 0 -72 17.5t-27 57.5q-31 -40 -66 -57.5t-86 -17.5q-85 0 -130.5 55t-45.5 158q0 140 68 231.5t171 91.5q93 0 143 -80l11 68h143q-24 -129 -38 -213l-27 -172q-5 -29 -5 -43q0 -36 29 -36q18 0 53 16zM376 129l41 259q-36 64 -86 64 q-61 0 -98 -95q-30 -74 -30 -164q0 -65 20.5 -99.5t58.5 -34.5q54 0 94 70zM297 571l-17 28q39 27 78.5 67t60.5 75h128q16 0 16 -7q0 -8 -19.5 -27t-49.5 -40q-68 -48 -197 -96z" />
<glyph unicode="&#xe2;" horiz-adv-x="635" d="M596 64l17 -35q-66 -41 -138 -41q-49 0 -72 17.5t-27 57.5q-31 -40 -66 -57.5t-86 -17.5q-85 0 -130.5 55t-45.5 158q0 140 68 231.5t171 91.5q93 0 143 -80l11 68h143q-24 -129 -38 -213l-27 -172q-5 -29 -5 -43q0 -36 29 -36q18 0 53 16zM376 129l41 259q-36 64 -86 64 q-61 0 -98 -95q-30 -74 -30 -164q0 -65 20.5 -99.5t58.5 -34.5q54 0 94 70zM522 600l-19 -29q-40 14 -76.5 40.5t-56.5 54.5q-69 -64 -163 -95l-16 29q28 21 62.5 64t50.5 77h147q7 -34 28.5 -77t42.5 -64z" />
<glyph unicode="&#xe3;" horiz-adv-x="635" d="M596 64l17 -35q-66 -41 -138 -41q-49 0 -72 17.5t-27 57.5q-31 -40 -66 -57.5t-86 -17.5q-85 0 -130.5 55t-45.5 158q0 140 68 231.5t171 91.5q93 0 143 -80l11 68h143q-24 -129 -38 -213l-27 -172q-5 -29 -5 -43q0 -36 29 -36q18 0 53 16zM376 129l41 259q-36 64 -86 64 q-61 0 -98 -95q-30 -74 -30 -164q0 -65 20.5 -99.5t58.5 -34.5q54 0 94 70zM535 740h35q-28 -144 -120 -144q-22 0 -39.5 5t-98.5 34q-26 9 -40 9q-27 0 -40 -47h-37q14 69 43 106t68 37q32 0 105 -26q59 -22 80 -22q17 0 27 11t17 37z" />
<glyph unicode="&#xe4;" horiz-adv-x="635" d="M596 64l17 -35q-66 -41 -138 -41q-49 0 -72 17.5t-27 57.5q-31 -40 -66 -57.5t-86 -17.5q-85 0 -130.5 55t-45.5 158q0 140 68 231.5t171 91.5q93 0 143 -80l11 68h143q-24 -129 -38 -213l-27 -172q-5 -29 -5 -43q0 -36 29 -36q18 0 53 16zM376 129l41 259q-36 64 -86 64 q-61 0 -98 -95q-30 -74 -30 -164q0 -65 20.5 -99.5t58.5 -34.5q54 0 94 70zM274 746q34 0 55.5 -21.5t21.5 -55.5t-21.5 -56t-55.5 -22t-56 21.5t-22 56.5q0 33 22 55t56 22zM493 746q34 0 55.5 -21.5t21.5 -55.5t-21.5 -56t-55.5 -22q-35 0 -56.5 21.5t-21.5 56.5 q0 33 22 55t56 22z" />
<glyph unicode="&#xe5;" horiz-adv-x="635" d="M596 64l17 -35q-66 -41 -138 -41q-49 0 -72 17.5t-27 57.5q-31 -40 -66 -57.5t-86 -17.5q-85 0 -130.5 55t-45.5 158q0 140 68 231.5t171 91.5q93 0 143 -80l11 68h143q-24 -129 -38 -213l-27 -172q-5 -29 -5 -43q0 -36 29 -36q18 0 53 16zM376 129l41 259q-36 64 -86 64 q-61 0 -98 -95q-30 -74 -30 -164q0 -65 20.5 -99.5t58.5 -34.5q54 0 94 70zM384 776q46 0 76 -28.5t30 -72.5t-30 -72.5t-76 -28.5q-47 0 -76.5 28.5t-29.5 73.5q0 43 30 71.5t76 28.5zM384 734q-26 0 -41.5 -16t-15.5 -43q0 -28 15 -43.5t42 -15.5q26 0 41.5 16t15.5 43 t-15.5 43t-41.5 16z" />
<glyph unicode="&#xe6;" horiz-adv-x="922" d="M794 77l23 -37q-82 -52 -191 -52q-155 0 -209 114q-63 -114 -190 -114q-179 0 -179 212q0 122 61 221q63 102 180 102q91 0 141 -79l11 68h88l-12 -67q66 79 170 79q102 0 151 -57q40 -46 40 -139q0 -40 -5 -76h-331q-7 -35 -7 -72q0 -146 126 -146q67 0 133 43zM387 194 l30 194q-36 64 -84 64q-64 0 -101 -99q-28 -70 -28 -164q0 -63 21 -96.5t59 -33.5q41 0 71 41q22 31 32 94zM548 291h176q9 42 9 94q0 55 -13 78.5t-45 23.5q-43 0 -78 -54t-49 -142z" />
<glyph unicode="&#xe7;" horiz-adv-x="526" d="M516 489l-25 -145h-112l12 130q-20 10 -40 10q-71 0 -113 -107q-16 -39 -27 -97.5t-11 -104.5q0 -140 109 -140q61 0 130 43l21 -36q-78 -54 -179 -54q-113 0 -173.5 56t-60.5 162q0 133 74 223q78 94 224 94q90 0 171 -34zM85 -229l-17 29q110 86 118 163h114 q19 0 19 -11q0 -23 -28.5 -55.5t-74.5 -60.5q-32 -20 -131 -65z" />
<glyph unicode="&#xe8;" horiz-adv-x="586" d="M537 252h-331q-6 -43 -6 -72q0 -146 126 -146q66 0 133 43l23 -37q-86 -52 -193 -52q-116 0 -178.5 57.5t-62.5 163.5q0 123 69 213q76 101 217 101q110 0 165 -53q44 -45 44 -143q0 -35 -6 -75zM213 291h176q9 54 9 95q0 54 -13.5 77t-44.5 23q-44 0 -77 -51t-50 -144z M474 599l-18 -28q-92 38 -149 80q-28 21 -48 45t-20 35q0 10 18 10h118q11 -35 39 -75.5t60 -66.5z" />
<glyph unicode="&#xe9;" horiz-adv-x="586" d="M537 252h-331q-6 -43 -6 -72q0 -146 126 -146q66 0 133 43l23 -37q-86 -52 -193 -52q-116 0 -178.5 57.5t-62.5 163.5q0 123 69 213q76 101 217 101q110 0 165 -53q44 -45 44 -143q0 -35 -6 -75zM213 291h176q9 54 9 95q0 54 -13.5 77t-44.5 23q-44 0 -77 -51t-50 -144z M294 571l-17 28q39 27 78.5 67t60.5 75h128q16 0 16 -7q0 -8 -19.5 -27t-49.5 -40q-68 -48 -197 -96z" />
<glyph unicode="&#xea;" horiz-adv-x="586" d="M537 252h-331q-6 -43 -6 -72q0 -146 126 -146q66 0 133 43l23 -37q-86 -52 -193 -52q-116 0 -178.5 57.5t-62.5 163.5q0 123 69 213q76 101 217 101q110 0 165 -53q44 -45 44 -143q0 -35 -6 -75zM213 291h176q9 54 9 95q0 54 -13.5 77t-44.5 23q-44 0 -77 -51t-50 -144z M514 600l-19 -29q-40 14 -76.5 40.5t-56.5 54.5q-69 -64 -163 -95l-16 29q28 21 62.5 64t50.5 77h147q7 -34 28.5 -77t42.5 -64z" />
<glyph unicode="&#xeb;" horiz-adv-x="586" d="M537 252h-331q-6 -43 -6 -72q0 -146 126 -146q66 0 133 43l23 -37q-86 -52 -193 -52q-116 0 -178.5 57.5t-62.5 163.5q0 123 69 213q76 101 217 101q110 0 165 -53q44 -45 44 -143q0 -35 -6 -75zM213 291h176q9 54 9 95q0 54 -13.5 77t-44.5 23q-44 0 -77 -51t-50 -144z M249 746q34 0 55.5 -21.5t21.5 -55.5t-21.5 -56t-55.5 -22q-35 0 -56.5 21.5t-21.5 56.5q0 33 22 55t56 22zM468 746q34 0 55.5 -21.5t21.5 -55.5t-21.5 -56t-55.5 -22t-56 21.5t-22 56.5q0 33 22 55t56 22z" />
<glyph unicode="&#xec;" horiz-adv-x="331" d="M204 0h-156q14 63 43 243l6 40q18 115 26 190l-60 3l6 35l216 6q-30 -162 -40 -225l-6 -36q-27 -172 -35 -256zM334 599l-18 -28q-92 38 -149 80q-28 21 -48 45t-20 35q0 10 18 10h118q11 -35 39 -75.5t60 -66.5z" />
<glyph unicode="&#xed;" horiz-adv-x="331" d="M204 0h-156q14 63 43 243l6 40q18 115 26 190l-60 3l6 35l216 6q-30 -162 -40 -225l-6 -36q-27 -172 -35 -256zM138 571l-17 28q39 27 78.5 67t60.5 75h128q16 0 16 -7q0 -8 -19.5 -27t-49.5 -40q-68 -48 -197 -96z" />
<glyph unicode="&#xee;" horiz-adv-x="331" d="M204 0h-156q14 63 43 243l7 40q21 137 25 190l-60 3l6 35l216 6q-25 -131 -40 -225l-5 -36q-27 -160 -36 -256zM371 600l-19 -29q-40 14 -76.5 40.5t-56.5 54.5q-69 -64 -163 -95l-16 29q28 21 62.5 64t50.5 77h147q7 -34 28.5 -77t42.5 -64z" />
<glyph unicode="&#xef;" horiz-adv-x="331" d="M203 0h-155q14 68 43 243l6 40q20 137 26 190l-60 3l5 35l217 6q-22 -112 -40 -225l-6 -36q-25 -159 -36 -256zM109 746q34 0 55.5 -21.5t21.5 -55.5t-21.5 -56t-55.5 -22q-35 0 -56.5 21.5t-21.5 56.5q0 33 22 55t56 22zM328 746q34 0 55.5 -21.5t21.5 -55.5t-21.5 -56 t-55.5 -22t-56 21.5t-22 56.5q0 33 22 55t56 22z" />
<glyph unicode="&#xf0;" horiz-adv-x="603" d="M197 531l-16 40l134 59q-47 51 -134 70l16 39q127 -13 199 -74l120 54l17 -40l-101 -45q124 -142 124 -315q0 -158 -75.5 -244.5t-212.5 -86.5q-106 0 -165 55t-59 154q0 121 76 202q66 70 165 70q85 0 131 -46q-11 100 -71 174zM324 420q-60 0 -95 -91q-32 -83 -32 -179 q0 -59 19.5 -91.5t54.5 -32.5q64 0 101 98q31 81 31 167q0 61 -20.5 95t-58.5 34z" />
<glyph unicode="&#xf1;" horiz-adv-x="647" d="M259 374l-11 -68q-34 -222 -44 -306h-156q32 176 50 284l5 33q16 110 20 156l-60 3l6 35l207 6l-11 -79q49 46 91 65.5t91 19.5q62 0 95.5 -30.5t33.5 -86.5q0 -37 -16 -131l-9 -56q-15 -100 -23 -180l63 -3l-6 -36h-217q15 83 36 209l12 73q12 81 12 110q0 58 -47 58 q-26 0 -60.5 -21.5t-61.5 -54.5zM533 740h35q-28 -144 -120 -144q-22 0 -39.5 5t-98.5 34q-26 9 -40 9q-27 0 -40 -47h-37q14 69 43 106t68 37q32 0 105 -26q59 -22 80 -22q17 0 27 11t17 37z" />
<glyph unicode="&#xf2;" horiz-adv-x="628" d="M345 523q113 0 173.5 -58.5t60.5 -167.5q0 -133 -82 -224q-78 -85 -213 -85q-126 0 -181 65q-54 62 -54 164q0 62 22 120.5t62 101.5q77 84 212 84zM344 485q-78 0 -120 -150q-22 -85 -22 -172q0 -137 81 -137q34 0 62.5 29t47.5 83q32 100 32 204q0 143 -81 143z M501 599l-18 -28q-92 38 -149 80q-28 21 -48 45t-20 35q0 10 18 10h118q11 -35 39 -75.5t60 -66.5z" />
<glyph unicode="&#xf3;" horiz-adv-x="628" d="M345 523q113 0 173.5 -58.5t60.5 -167.5q0 -133 -82 -224q-78 -85 -213 -85q-126 0 -181 65q-54 62 -54 164q0 62 22 120.5t62 101.5q77 84 212 84zM344 485q-78 0 -120 -150q-22 -85 -22 -172q0 -137 81 -137q34 0 62.5 29t47.5 83q32 100 32 204q0 143 -81 143z M311 571l-17 28q39 27 78.5 67t60.5 75h128q16 0 16 -7q0 -8 -19.5 -27t-49.5 -40q-68 -48 -197 -96z" />
<glyph unicode="&#xf4;" horiz-adv-x="628" d="M345 523q113 0 173.5 -58.5t60.5 -167.5q0 -133 -82 -224q-78 -85 -213 -85q-126 0 -181 65q-54 62 -54 164q0 62 22 120.5t62 101.5q77 84 212 84zM344 485q-78 0 -120 -150q-22 -85 -22 -172q0 -137 81 -137q34 0 62.5 29t47.5 83q32 100 32 204q0 143 -81 143z M526 600l-19 -29q-40 14 -76.5 40.5t-56.5 54.5q-69 -64 -163 -95l-16 29q28 21 62.5 64t50.5 77h147q7 -34 28.5 -77t42.5 -64z" />
<glyph unicode="&#xf5;" horiz-adv-x="628" d="M345 523q113 0 173.5 -58.5t60.5 -167.5q0 -133 -82 -224q-78 -85 -213 -85q-126 0 -181 65q-54 62 -54 164q0 62 22 120.5t62 101.5q77 84 212 84zM344 485q-78 0 -120 -150q-22 -85 -22 -172q0 -137 81 -137q34 0 62.5 29t47.5 83q32 100 32 204q0 143 -81 143z M538 740h35q-29 -144 -120 -144q-23 0 -40 5t-98 34q-25 9 -40 9q-27 0 -40 -47h-37q14 69 43 106t68 37q32 0 105 -26q59 -22 80 -22q17 0 27 11t17 37z" />
<glyph unicode="&#xf6;" horiz-adv-x="628" d="M345 523q113 0 173.5 -58.5t60.5 -167.5q0 -133 -82 -224q-78 -85 -213 -85q-126 0 -181 65q-54 62 -54 164q0 62 22 120.5t62 101.5q77 84 212 84zM344 485q-78 0 -120 -150q-22 -85 -22 -172q0 -137 81 -137q34 0 62.5 29t47.5 83q32 100 32 204q0 143 -81 143z M264 746q34 0 55.5 -21.5t21.5 -55.5t-21.5 -56t-55.5 -22t-56 21.5t-22 56.5q0 33 22 55t56 22zM483 746q34 0 55.5 -21.5t21.5 -55.5t-21.5 -56t-55.5 -22q-35 0 -56.5 21.5t-21.5 56.5q0 33 22 55t56 22z" />
<glyph unicode="&#xf7;" d="M328 519q35 0 58 -23t23 -58q0 -34 -22.5 -57t-57.5 -23q-36 0 -58.5 22.5t-22.5 59.5q0 34 23 56.5t57 22.5zM35 203l17 105h487l-17 -105h-487zM246 152q34 0 56.5 -23t22.5 -57q0 -35 -22.5 -57.5t-57.5 -22.5t-57.5 23t-22.5 58q0 34 23 56.5t58 22.5z" />
<glyph unicode="&#xf8;" horiz-adv-x="628" d="M46 -42l-32 33l77 78q-42 64 -42 147q0 72 28.5 137.5t77.5 107.5q73 62 187 62q92 0 153 -39l68 70l33 -33l-67 -68q50 -59 50 -157q0 -72 -27 -136.5t-75 -106.5q-74 -65 -191 -65q-109 0 -165 47zM202 183l218 224q-19 78 -75 78q-80 0 -123 -158q-19 -71 -20 -144z M426 346l-222 -227q14 -93 79 -93q46 0 79 47.5t50 137.5q13 72 14 135z" />
<glyph unicode="&#xf9;" horiz-adv-x="646" d="M389 139l53 334l-65 3l6 35l216 6q-9 -49 -21 -118.5t-16 -90.5l-19 -118q-15 -118 -19 -151l60 -3l-6 -36l-207 -5l10 77q-54 -48 -93 -66t-91 -18q-61 0 -93.5 30t-32.5 86q0 29 15 132l9 57q8 43 10 70q8 53 9 70q3 15 5 40l-60 3l6 35l216 6q-21 -110 -39 -216 l-16 -101q-7 -49 -7 -78q0 -61 46 -61q59 0 124 78zM475 599l-18 -28q-92 38 -149 80q-28 21 -48 45t-20 35q0 10 18 10h118q11 -35 39 -75.5t60 -66.5z" />
<glyph unicode="&#xfa;" horiz-adv-x="646" d="M389 139l53 334l-65 3l6 35l216 6q-9 -49 -21 -118.5t-16 -90.5l-19 -118q-15 -118 -19 -151l60 -3l-6 -36l-207 -5l10 77q-54 -48 -93 -66t-91 -18q-61 0 -93.5 30t-32.5 86q0 29 15 132l9 57q8 43 10 70q8 53 9 70q3 15 5 40l-60 3l6 35l216 6q-21 -110 -39 -216 l-16 -101q-7 -49 -7 -78q0 -61 46 -61q59 0 124 78zM301 571l-17 28q39 27 78.5 67t60.5 75h128q16 0 16 -7q0 -8 -19.5 -27t-49.5 -40q-68 -48 -197 -96z" />
<glyph unicode="&#xfb;" horiz-adv-x="646" d="M389 139l53 334l-65 3l6 35l216 6q-9 -49 -21 -118.5t-16 -90.5l-19 -118q-15 -118 -19 -151l60 -3l-6 -36l-207 -5l10 77q-54 -48 -93 -66t-91 -18q-61 0 -93.5 30t-32.5 86q0 29 15 132l9 57q8 43 10 70q8 53 9 70q3 15 5 40l-60 3l6 35l216 6q-21 -110 -39 -216 l-16 -101q-7 -49 -7 -78q0 -61 46 -61q59 0 124 78zM522 600l-19 -29q-40 14 -76.5 40.5t-56.5 54.5q-69 -64 -163 -95l-16 29q28 21 62.5 64t50.5 77h147q7 -34 28.5 -77t42.5 -64z" />
<glyph unicode="&#xfc;" horiz-adv-x="646" d="M389 139l53 334l-65 3l6 35l216 6q-9 -49 -21 -118.5t-16 -90.5l-19 -118q-15 -118 -19 -151l60 -3l-6 -36l-207 -5l10 77q-54 -48 -93 -66t-91 -18q-61 0 -93.5 30t-32.5 86q0 29 15 132l9 57q8 43 10 70q8 53 9 70q3 15 5 40l-60 3l6 35l216 6q-21 -110 -39 -216 l-16 -101q-7 -49 -7 -78q0 -61 46 -61q59 0 124 78zM263 746q34 0 55.5 -21.5t21.5 -55.5t-21.5 -56t-55.5 -22q-35 0 -56.5 21.5t-21.5 56.5q0 33 22 55t56 22zM482 746q34 0 55.5 -21.5t21.5 -55.5t-21.5 -56t-55.5 -22t-56 21.5t-22 56.5q0 33 22 55t56 22z" />
<glyph unicode="&#xfd;" horiz-adv-x="552" d="M44 512h258l-6 -36l-55 -3q4 -31 24 -128l40 -186l85 152l60 111q17 33 25 53l-75 1l6 36h192l-6 -36l-47 -3q-13 -17 -85 -141l-207 -364q-60 -106 -113 -147.5t-127 -41.5q-36 0 -57 8l28 81q33 -12 62 -12q87 0 145 103l9 16l-75 345q-27 113 -39 153l-47 3zM298 571 l-17 28q39 27 78.5 67t60.5 75h128q16 0 16 -7q0 -8 -19.5 -27t-49.5 -40q-68 -48 -197 -96z" />
<glyph unicode="&#xfe;" horiz-adv-x="642" d="M276 527l-10 -66q62 62 146 62q88 0 135 -55.5t47 -160.5q0 -128 -65 -224q-64 -95 -180 -95q-55 0 -88.5 18t-57.5 59l-4 -29q-25 -161 -36 -251h-155q37 195 50 286l70 441q15 95 24 180l-60 3l5 35l214 7l-4 -30l-9 -45q-11 -57 -22 -135zM254 387l-40 -252 q30 -86 94 -86t103 107q30 85 30 179q0 129 -71 129q-52 0 -116 -77z" />
<glyph unicode="&#xff;" horiz-adv-x="552" d="M44 512h258l-6 -36l-55 -3q4 -31 24 -128l40 -186l85 152l60 111q17 33 25 53l-75 1l6 36h192l-6 -36l-47 -3q-13 -17 -85 -141l-207 -364q-60 -106 -113 -147.5t-127 -41.5q-36 0 -57 8l28 81q33 -12 62 -12q87 0 145 103l9 16l-75 345q-27 113 -39 153l-47 3zM232 746 q34 0 55.5 -21.5t21.5 -55.5t-21.5 -56t-55.5 -22t-56 21.5t-22 56.5q0 33 22 55t56 22zM451 746q34 0 55.5 -21.5t21.5 -55.5t-21.5 -56t-55.5 -22q-35 0 -56.5 21.5t-21.5 56.5q0 33 22 55t56 22z" />
<glyph unicode="&#x100;" horiz-adv-x="677" d="M-43 0l6 36l55 4q36 55 96 178l137 278q63 127 94 196h109q8 -53 13 -78q16 -88 22 -114l49 -250q31 -146 47 -211l57 -3l-6 -36h-294l5 36l71 3q-5 40 -23 144l-8 43h-208l-19 -40q-54 -118 -65 -148l73 -2l-5 -36h-206zM379 269l-50 269l-130 -269h180zM222 796l10 61 h353l-10 -61h-353z" />
<glyph unicode="&#x101;" horiz-adv-x="635" d="M596 64l17 -35q-66 -41 -138 -41q-49 0 -72 17.5t-27 57.5q-31 -40 -66 -57.5t-86 -17.5q-85 0 -130.5 55t-45.5 158q0 140 68 231.5t171 91.5q93 0 143 -80l11 68h143q-24 -129 -38 -213l-27 -172q-5 -29 -5 -43q0 -36 29 -36q18 0 53 16zM376 129l41 259q-36 64 -86 64 q-61 0 -98 -95q-30 -74 -30 -164q0 -65 20.5 -99.5t58.5 -34.5q54 0 94 70zM201 634l10 61h353l-10 -61h-353z" />
<glyph unicode="&#x102;" horiz-adv-x="677" d="M-43 0l6 36l55 4q36 55 96 178l137 278q63 127 94 196h109q8 -53 13 -78q16 -88 22 -114l49 -250q31 -146 47 -211l57 -3l-6 -36h-294l5 36l71 3q-5 40 -23 144l-8 43h-208l-19 -40q-54 -118 -65 -148l73 -2l-5 -36h-206zM379 269l-50 269l-130 -269h180zM545 922h36 q-9 -75 -36 -109q-42 -60 -138 -60q-149 0 -149 123q0 24 6 46h35v-13q0 -35 26 -50t89 -15t90.5 16.5t40.5 61.5z" />
<glyph unicode="&#x103;" horiz-adv-x="635" d="M596 64l17 -35q-66 -41 -138 -41q-49 0 -72 17.5t-27 57.5q-31 -40 -66 -57.5t-86 -17.5q-85 0 -130.5 55t-45.5 158q0 140 68 231.5t171 91.5q93 0 143 -80l11 68h143q-24 -129 -38 -213l-27 -172q-5 -29 -5 -43q0 -36 29 -36q18 0 53 16zM376 129l41 259q-36 64 -86 64 q-61 0 -98 -95q-30 -74 -30 -164q0 -65 20.5 -99.5t58.5 -34.5q54 0 94 70zM517 757h36q-7 -85 -50.5 -126.5t-125.5 -41.5q-146 0 -146 114q0 23 5 54h36q1 -46 23.5 -61.5t89.5 -15.5q64 0 91.5 16t40.5 61z" />
<glyph unicode="&#x104;" horiz-adv-x="677" d="M-43 0l6 36l55 4q36 55 96 178l137 278q55 111 94 196h109q7 -52 13 -78q12 -66 22 -114l49 -250q20 -95 47 -211l57 -3l-6 -36q-102 -60 -102 -136q0 -51 55 -51q17 0 41 7l1 -34q-41 -15 -90 -15q-124 0 -124 84q0 47 37.5 80.5t125.5 64.5h-238l5 36l71 3 q-6 45 -23 144l-8 43h-208l-19 -40q-59 -132 -65 -148l73 -2l-5 -36h-206zM379 269l-50 269l-130 -269h180z" />
<glyph unicode="&#x105;" horiz-adv-x="635" d="M542 -180l1 -34q-41 -15 -90 -15q-124 0 -124 84q0 82 133 134q-43 3 -63 20t-23 54q-31 -40 -66 -57.5t-86 -17.5q-85 0 -130.5 55t-45.5 158q0 140 68 231.5t171 91.5q93 0 143 -80l11 68h143q-1 -8 -4.5 -26.5t-5.5 -28.5q-15 -88 -28 -158l-27 -172q-5 -32 -5 -41 q0 -38 29 -38q18 0 53 16l17 -36q-9 -6 -21 -11l-36 -15q-40 -16 -76 -54q-34 -37 -34 -86t55 -49q17 0 41 7zM376 129l41 259q-36 64 -86 64q-61 0 -98 -95q-30 -74 -30 -164q0 -65 20.5 -99.5t58.5 -34.5q54 0 94 70z" />
<glyph unicode="&#x106;" horiz-adv-x="673" d="M488 189h115l-25 -155q-93 -46 -209 -46q-162 0 -238 88q-65 76 -65 199q0 89 31 172t86 143q105 115 276 115q111 0 210 -45l-24 -153h-115l12 135q-29 18 -72 18q-110 0 -181 -132q-64 -120 -64 -275q0 -107 40 -164t115 -57q41 0 75 15zM400 735l-17 28q39 27 78.5 67 t60.5 75h128q16 0 16 -7q0 -8 -19.5 -27t-49.5 -40q-68 -48 -197 -96z" />
<glyph unicode="&#x107;" horiz-adv-x="526" d="M516 489l-25 -145h-112l12 130q-20 10 -40 10q-71 0 -113 -107q-16 -39 -27 -97.5t-11 -104.5q0 -140 109 -140q61 0 130 43l21 -36q-78 -54 -179 -54q-113 0 -173.5 56t-60.5 162q0 133 74 223q78 94 224 94q90 0 171 -34zM273 571l-17 28q39 27 78.5 67t60.5 75h128 q16 0 16 -7q0 -8 -19.5 -27t-49.5 -40q-68 -48 -197 -96z" />
<glyph unicode="&#x108;" horiz-adv-x="673" d="M488 189h115l-25 -155q-93 -46 -209 -46q-162 0 -238 88q-65 76 -65 199q0 89 31 172t86 143q105 115 276 115q111 0 210 -45l-24 -153h-115l12 135q-29 18 -72 18q-110 0 -181 -132q-64 -120 -64 -275q0 -107 40 -164t115 -57q41 0 75 15zM639 764l-19 -29 q-40 15 -76.5 41t-56.5 54q-69 -64 -163 -95l-16 29q28 22 62.5 65t50.5 76h147q7 -35 28 -77.5t43 -63.5z" />
<glyph unicode="&#x109;" horiz-adv-x="526" d="M516 489l-25 -145h-112l12 130q-20 10 -40 10q-71 0 -113 -107q-16 -39 -27 -97.5t-11 -104.5q0 -140 109 -140q61 0 130 43l21 -36q-78 -54 -179 -54q-113 0 -173.5 56t-60.5 162q0 133 74 223q78 94 224 94q90 0 171 -34zM513 600l-19 -29q-40 14 -76.5 40.5 t-56.5 54.5q-69 -64 -163 -95l-16 29q28 21 62.5 64t50.5 77h147q7 -34 28.5 -77t42.5 -64z" />
<glyph unicode="&#x10a;" horiz-adv-x="673" d="M488 189h115l-25 -155q-93 -46 -209 -46q-162 0 -238 88q-65 76 -65 199q0 89 31 172t86 143q105 115 276 115q111 0 210 -45l-24 -153h-115l12 135q-29 18 -72 18q-110 0 -181 -132q-64 -120 -64 -275q0 -107 40 -164t115 -57q41 0 75 15zM484 911q34 0 56.5 -22.5 t22.5 -56.5q0 -35 -22 -57.5t-57 -22.5t-57.5 22.5t-22.5 58.5q0 34 22.5 56t57.5 22z" />
<glyph unicode="&#x10b;" horiz-adv-x="526" d="M516 489l-25 -145h-112l12 130q-20 10 -40 10q-71 0 -113 -107q-16 -39 -27 -97.5t-11 -104.5q0 -140 109 -140q61 0 130 43l21 -36q-78 -54 -179 -54q-113 0 -173.5 56t-60.5 162q0 133 74 223q78 94 224 94q90 0 171 -34zM364 748q34 0 56.5 -22t22.5 -57t-22 -57.5 t-57 -22.5t-57.5 22.5t-22.5 58.5q0 34 22.5 56t57.5 22z" />
<glyph unicode="&#x10c;" horiz-adv-x="673" d="M488 189h115l-25 -155q-93 -46 -209 -46q-162 0 -238 88q-65 76 -65 199q0 89 31 172t86 143q105 115 276 115q111 0 210 -45l-24 -153h-115l12 135q-29 18 -72 18q-110 0 -181 -132q-64 -120 -64 -275q0 -107 40 -164t115 -57q41 0 75 15zM321 896l19 29 q40 -15 76.5 -41t56.5 -54q69 64 163 95l16 -29q-29 -22 -63 -64.5t-50 -76.5h-147q-7 34 -28.5 77t-42.5 64z" />
<glyph unicode="&#x10d;" horiz-adv-x="526" d="M516 489l-25 -145h-112l12 130q-20 10 -40 10q-71 0 -113 -107q-16 -39 -27 -97.5t-11 -104.5q0 -140 109 -140q61 0 130 43l21 -36q-78 -54 -179 -54q-113 0 -173.5 56t-60.5 162q0 133 74 223q78 94 224 94q90 0 171 -34zM215 731l19 29q40 -15 76.5 -41t56.5 -54 q69 64 163 95l16 -29q-29 -22 -63 -64.5t-50 -76.5h-147q-7 35 -28 77t-43 64z" />
<glyph unicode="&#x10e;" horiz-adv-x="739" d="M-8 0l6 35l77 3q15 71 37 204l30 193q23 134 30 219l-75 3l5 35h239q177 0 248 -41q111 -63 111 -235q0 -100 -33 -187.5t-92 -141.5q-53 -48 -120.5 -67.5t-182.5 -19.5h-280zM235 42h21q72 0 120.5 22.5t82.5 71.5q37 52 60 140.5t23 176.5q0 107 -40.5 152t-135.5 45 h-35q-15 -66 -33 -186l-34 -213q-26 -187 -29 -209zM231 896l19 29q40 -15 76.5 -41t56.5 -54q69 64 163 95l16 -29q-29 -22 -63 -64.5t-50 -76.5h-147q-7 34 -28.5 77t-42.5 64z" />
<glyph unicode="&#x10f;" horiz-adv-x="789" d="M374 0l7 63q-59 -75 -155 -75q-87 0 -132.5 53.5t-45.5 156.5q0 128 63 223q69 102 184 102q94 0 145 -70l9 58q22 146 24 181l-64 3l6 36l214 6q-32 -174 -52 -306l-33 -209q-20 -128 -24 -183l63 -3l-6 -36h-203zM389 135l41 252q-37 77 -92 77q-65 0 -105 -104 q-32 -84 -32 -187q0 -124 72 -124q29 0 62.5 24.5t53.5 61.5zM717 399l-39 29q59 79 74 145q-70 15 -70 81q0 39 24 63t62 24t61.5 -24t23.5 -64q0 -95 -136 -254z" />
<glyph unicode="&#x110;" horiz-adv-x="739" d="M133 373l9 61q23 147 30 220l-76 3l6 35h239q176 0 248 -41q111 -65 111 -235q0 -101 -33 -187.5t-91 -140.5q-54 -49 -121 -68.5t-183 -19.5h-280l6 35l77 3q17 75 37 204l14 89h-88l6 42h89zM283 373h120l-7 -42h-119l-13 -80q-25 -170 -29 -209h21q136 0 203 93 q37 52 60 140.5t23 175.5q0 108 -40.5 153.5t-135.5 45.5h-35q-15 -65 -33 -186z" />
<glyph unicode="&#x111;" horiz-adv-x="641" d="M374 0l7 63q-59 -75 -155 -75q-87 0 -132.5 54t-45.5 157q0 127 63 222q68 103 184 103q93 0 145 -71l20 128h-134l6 40h133q5 33 8 71l-64 3l6 36l214 6q-14 -78 -21 -116h83l-7 -40h-83l-57 -359q-20 -130 -24 -183l63 -3l-6 -36h-203zM389 135l41 252q-37 78 -92 78 q-65 0 -105 -104q-32 -86 -32 -188q0 -124 72 -124q29 0 62.5 24.5t53.5 61.5z" />
<glyph unicode="&#x112;" horiz-adv-x="615" d="M-8 0l6 35l77 3q18 87 37 204l30 192q24 156 30 220l-76 3l6 35h527l-29 -180h-112l16 138h-173q-11 -47 -33 -186l-14 -89h205l-8 -49h-205l-12 -75q-14 -100 -22 -150q-1 -7 -3.5 -28t-3.5 -31h193l29 139h112l-29 -181h-548zM202 796l10 61h353l-10 -61h-353z" />
<glyph unicode="&#x113;" horiz-adv-x="586" d="M537 252h-331q-6 -43 -6 -72q0 -146 126 -146q66 0 133 43l23 -37q-86 -52 -193 -52q-116 0 -178.5 57.5t-62.5 163.5q0 123 69 213q76 101 217 101q110 0 165 -53q44 -45 44 -143q0 -35 -6 -75zM213 291h176q9 54 9 95q0 54 -13.5 77t-44.5 23q-44 0 -77 -51t-50 -144z M163 634l10 61h353l-10 -61h-353z" />
<glyph unicode="&#x114;" horiz-adv-x="615" d="M-8 0l6 35l77 3q18 87 37 204l30 192q24 156 30 220l-76 3l6 35h527l-29 -180h-112l16 138h-173q-11 -47 -33 -186l-14 -89h205l-8 -49h-205l-12 -75q-14 -100 -22 -150q-1 -7 -3.5 -28t-3.5 -31h193l29 139h112l-29 -181h-548zM537 922h36q-9 -75 -36 -109 q-42 -60 -138 -60q-149 0 -149 123q0 24 6 46h35v-13q0 -35 26 -50t89 -15t90.5 16.5t40.5 61.5z" />
<glyph unicode="&#x116;" horiz-adv-x="615" d="M-8 0l6 35l77 3q18 87 37 204l30 192q24 156 30 220l-76 3l6 35h527l-29 -180h-112l16 138h-173q-11 -47 -33 -186l-14 -89h205l-8 -49h-205l-12 -75q-14 -100 -22 -150q-1 -7 -3.5 -28t-3.5 -31h193l29 139h112l-29 -181h-548zM401 911q35 0 57 -22.5t22 -56.5 q0 -35 -22 -57.5t-57 -22.5t-57.5 22.5t-22.5 58.5q0 34 22.5 56t57.5 22z" />
<glyph unicode="&#x117;" horiz-adv-x="586" d="M537 252h-331q-6 -43 -6 -72q0 -146 126 -146q66 0 133 43l23 -37q-86 -52 -193 -52q-116 0 -178.5 57.5t-62.5 163.5q0 123 69 213q76 101 217 101q110 0 165 -53q44 -45 44 -143q0 -35 -6 -75zM213 291h176q9 54 9 95q0 54 -13.5 77t-44.5 23q-44 0 -77 -51t-50 -144z M360 748q34 0 56.5 -22t22.5 -57t-22 -57.5t-57 -22.5t-57.5 22.5t-22.5 58.5q0 34 22.5 56t57.5 22z" />
<glyph unicode="&#x118;" horiz-adv-x="615" d="M-8 0l6 35l77 3q17 84 37 204l30 192q23 140 30 220l-76 3l6 35h527l-29 -180h-112l16 138h-173q-13 -58 -33 -186l-14 -89h205l-8 -49h-205l-12 -75q-8 -63 -15 -107q-8 -51 -14 -102h193l29 139h112l-29 -181q-54 -32 -78.5 -64.5t-24.5 -73.5q0 -49 55 -49q17 0 41 7 l2 -34q-41 -15 -91 -15q-124 0 -124 84q0 47 38 80.5t126 64.5h-492z" />
<glyph unicode="&#x119;" horiz-adv-x="586" d="M537 252h-331q-6 -43 -6 -72q0 -145 126 -145q66 0 133 42l23 -36q-57 -36 -119 -46q-93 -57 -93 -131q0 -51 55 -51q17 0 41 7l2 -34q-41 -15 -91 -15q-124 0 -124 84q0 82 132 133q-237 8 -237 221q0 123 69 213q76 101 217 101q110 0 165 -53q44 -45 44 -143 q0 -35 -6 -75zM213 291h176q9 59 9 95q0 54 -13.5 77t-44.5 23q-44 0 -77 -51t-50 -144z" />
<glyph unicode="&#x11a;" horiz-adv-x="615" d="M-8 0l6 35l77 3q18 87 37 204l30 192q24 156 30 220l-76 3l6 35h527l-29 -180h-112l16 138h-173q-11 -47 -33 -186l-14 -89h205l-8 -49h-205l-12 -75q-14 -100 -22 -150q-1 -7 -3.5 -28t-3.5 -31h193l29 139h112l-29 -181h-548zM244 896l19 29q40 -15 76.5 -41t56.5 -54 q69 64 163 95l16 -29q-29 -22 -63 -64.5t-50 -76.5h-147q-7 34 -28.5 77t-42.5 64z" />
<glyph unicode="&#x11b;" horiz-adv-x="586" d="M537 252h-331q-6 -43 -6 -72q0 -146 126 -146q66 0 133 43l23 -37q-86 -52 -193 -52q-116 0 -178.5 57.5t-62.5 163.5q0 123 69 213q76 101 217 101q110 0 165 -53q44 -45 44 -143q0 -35 -6 -75zM213 291h176q9 54 9 95q0 54 -13.5 77t-44.5 23q-44 0 -77 -51t-50 -144z M202 731l19 29q40 -15 76.5 -41t56.5 -54q69 64 163 95l16 -29q-29 -22 -63 -64.5t-50 -76.5h-147q-7 35 -28 77t-43 64z" />
<glyph unicode="&#x11c;" horiz-adv-x="753" d="M426 318h308l-6 -36l-75 -3l-17 -107q-13 -83 -18 -134q-126 -50 -247 -50q-149 0 -227 74t-78 215q0 90 31 172t87 141q108 114 290 114q117 0 238 -50l-23 -142h-116l12 124q-43 24 -99 24q-122 0 -193 -126q-69 -127 -69 -302q0 -100 42 -149q42 -51 115 -51 q46 0 90 22l36 225l-87 3zM650 764l-19 -29q-40 15 -76.5 41t-56.5 54q-69 -64 -163 -95l-16 29q28 22 62.5 65t50.5 76h147q7 -35 28 -77.5t43 -63.5z" />
<glyph unicode="&#x11d;" horiz-adv-x="642" d="M458 518l205 -7l-6 -35l-68 -3q-13 -59 -40 -222l-29 -185q-16 -98 -31.5 -141t-47.5 -75q-74 -77 -238 -77q-113 0 -193 41l25 129h111l-11 -112q27 -17 65 -17q92 0 130 76q24 48 42 166l3 22q-57 -61 -138 -61q-87 0 -137 52t-50 143q0 134 68.5 222.5t173.5 88.5 q103 0 151 -77zM388 160l36 225q-14 38 -39.5 60t-55.5 22t-51.5 -23t-41.5 -74q-33 -86 -33 -185q0 -111 65 -111t120 86zM536 600l-19 -29q-40 14 -76.5 40.5t-56.5 54.5q-69 -64 -163 -95l-16 29q28 21 62.5 64t50.5 77h147q7 -34 28.5 -77t42.5 -64z" />
<glyph unicode="&#x11e;" horiz-adv-x="753" d="M426 318h308l-6 -36l-75 -3l-17 -107q-13 -83 -18 -134q-126 -50 -247 -50q-149 0 -227 74t-78 215q0 90 31 172t87 141q108 114 290 114q117 0 238 -50l-23 -142h-116l12 124q-43 24 -99 24q-122 0 -193 -126q-69 -127 -69 -302q0 -100 42 -149q42 -51 115 -51 q46 0 90 22l36 225l-87 3zM613 922h36q-9 -75 -36 -109q-42 -60 -138 -60q-149 0 -149 123q0 24 6 46h35v-13q0 -35 26 -50t89 -15t90.5 16.5t40.5 61.5z" />
<glyph unicode="&#x11f;" horiz-adv-x="642" d="M458 518l205 -7l-6 -35l-68 -3q-13 -59 -40 -222l-29 -185q-16 -98 -31.5 -141t-47.5 -75q-74 -77 -238 -77q-113 0 -193 41l25 129h111l-11 -112q27 -17 65 -17q92 0 130 76q24 48 42 166l3 22q-57 -61 -138 -61q-87 0 -137 52t-50 143q0 134 68.5 222.5t173.5 88.5 q103 0 151 -77zM388 160l36 225q-14 38 -39.5 60t-55.5 22t-51.5 -23t-41.5 -74q-33 -86 -33 -185q0 -111 65 -111t120 86zM521 757h36q-7 -85 -50.5 -126.5t-125.5 -41.5q-146 0 -146 114q0 23 5 54h36q1 -46 23.5 -61.5t89.5 -15.5q64 0 91.5 16t40.5 61z" />
<glyph unicode="&#x120;" horiz-adv-x="753" d="M426 318h308l-6 -36l-75 -3l-17 -107q-13 -83 -18 -134q-126 -50 -247 -50q-149 0 -227 74t-78 215q0 90 31 172t87 141q108 114 290 114q117 0 238 -50l-23 -142h-116l12 124q-43 24 -99 24q-122 0 -193 -126q-69 -127 -69 -302q0 -100 42 -149q42 -51 115 -51 q46 0 90 22l36 225l-87 3zM486 911q34 0 56.5 -22.5t22.5 -56.5q0 -35 -22 -57.5t-57 -22.5t-57.5 22.5t-22.5 58.5q0 34 22.5 56t57.5 22z" />
<glyph unicode="&#x121;" horiz-adv-x="642" d="M458 518l205 -7l-6 -35l-68 -3q-13 -59 -40 -222l-29 -185q-16 -98 -31.5 -141t-47.5 -75q-74 -77 -238 -77q-113 0 -193 41l25 129h111l-11 -112q27 -17 65 -17q92 0 130 76q24 48 42 166l3 22q-57 -61 -138 -61q-87 0 -137 52t-50 143q0 134 68.5 222.5t173.5 88.5 q103 0 151 -77zM388 160l36 225q-14 38 -39.5 60t-55.5 22t-51.5 -23t-41.5 -74q-33 -86 -33 -185q0 -111 65 -111t120 86zM388 748q34 0 56.5 -22t22.5 -57t-22 -57.5t-57 -22.5t-57.5 22.5t-22.5 58.5q0 34 22.5 56t57.5 22z" />
<glyph unicode="&#x122;" horiz-adv-x="753" d="M426 318h308l-6 -36l-75 -3l-17 -107q-13 -83 -18 -134q-126 -50 -247 -50q-149 0 -227 74t-78 215q0 90 31 172t87 141q108 114 290 114q117 0 238 -50l-23 -142h-116l12 124q-43 24 -99 24q-122 0 -193 -126q-69 -127 -69 -302q0 -100 42 -149q42 -51 115 -51 q46 0 90 22l36 225l-87 3zM197 -229l-17 29q110 86 118 163h114q19 0 19 -11q0 -23 -28.5 -55.5t-74.5 -60.5q-32 -20 -131 -65z" />
<glyph unicode="&#x123;" horiz-adv-x="642" d="M458 518l205 -7l-6 -35l-68 -3q-13 -59 -40 -222l-29 -185q-16 -98 -31.5 -141t-47.5 -75q-74 -77 -238 -77q-113 0 -193 41l25 129h111l-11 -112q27 -17 65 -17q92 0 130 76q24 48 42 166l3 22q-57 -61 -138 -61q-87 0 -137 52t-50 143q0 134 68.5 222.5t173.5 88.5 q103 0 151 -77zM388 160l36 225q-14 38 -39.5 60t-55.5 22t-51.5 -23t-41.5 -74q-33 -86 -33 -185q0 -111 65 -111t120 86zM554 759l17 -28q-39 -28 -78.5 -67.5t-60.5 -74.5h-127q-16 0 -16 7q0 13 37.5 43.5t84.5 56.5q57 30 143 63z" />
<glyph unicode="&#x124;" horiz-adv-x="784" d="M-8 0l6 36l77 3q15 66 37 204l30 189q24 158 30 221l-76 3l6 36h307l-5 -36l-73 -3q-17 -86 -33 -188l-14 -90h255l9 57q23 140 30 221l-70 3l5 36h308l-5 -36l-79 -3q-7 -32 -33 -187l-34 -216q-26 -177 -29 -211l76 -3l-5 -36h-308l5 36l72 3q14 62 37 204l14 88h-255 l-13 -81q-25 -163 -29 -211l70 -3l-5 -36h-308zM641 764l-19 -29q-40 15 -76.5 41t-56.5 54q-69 -64 -163 -95l-16 29q28 22 62.5 65t50.5 76h147q7 -35 28 -77.5t43 -63.5z" />
<glyph unicode="&#x125;" horiz-adv-x="647" d="M282 521l-13 -79q47 44 88 62.5t91 18.5q61 0 94.5 -30.5t33.5 -86.5q0 -35 -16 -131l-9 -56q-17 -119 -23 -180l63 -3l-6 -36h-218q10 55 37 209l15 94q9 59 9 90q0 57 -47 57q-26 0 -60.5 -21.5t-62.5 -54.5l-10 -68q-36 -233 -44 -306h-156q30 159 50 284l36 228 q21 150 23 180l-60 3l7 36l216 6q-30 -168 -38 -216zM403 800l-19 -29q-40 15 -76.5 41t-56.5 54q-69 -64 -163 -95l-16 29q28 22 62.5 65t50.5 76h147q7 -35 28 -77.5t43 -63.5z" />
<glyph unicode="&#x126;" horiz-adv-x="784" d="M-8 0l6 36l77 3q12 51 37 204l35 220h-89l7 42h88l10 70q7 48 9 78l-76 3l6 36h307l-5 -36l-73 -3q-7 -31 -27 -148h255q3 20 12 83q5 47 7 65l-70 3l5 36h308l-5 -36l-79 -3q-6 -27 -13 -67q-4 -27 -14 -81h89l-7 -42h-88l-34 -213q-26 -177 -29 -211l76 -3l-5 -36h-308 l5 36l72 3q14 62 37 204l14 88h-255l-13 -81q-25 -163 -29 -211l70 -3l-5 -36h-308zM539 375l14 88h-256l-13 -88h255z" />
<glyph unicode="&#x127;" horiz-adv-x="647" d="M145 580h-70l7 40h67q5 37 8 72l-60 3l7 36l216 6q-10 -53 -21 -117h145l-6 -40h-147l-22 -138q48 44 88.5 62.5t90.5 18.5q62 0 95 -30.5t33 -86.5q0 -33 -16 -131l-9 -56q-14 -88 -23 -180l63 -3l-6 -36h-218q17 88 37 209l15 94q9 61 9 90q0 57 -47 57 q-26 0 -60.5 -21.5t-62.5 -54.5l-10 -68q-36 -233 -44 -306h-156q23 120 50 284z" />
<glyph unicode="&#x12a;" horiz-adv-x="388" d="M-3 0l6 36l77 3q16 76 37 204l30 189q24 156 30 221l-76 3l6 36h313l-6 -36l-78 -3q-11 -53 -33 -187l-34 -216q-25 -170 -29 -211l76 -3l-6 -36h-313zM97 796l10 61h353l-10 -61h-353z" />
<glyph unicode="&#x12b;" horiz-adv-x="331" d="M204 0h-156q13 56 43 243l7 40q21 142 25 190l-60 3l6 35l217 6q-26 -136 -41 -225l-5 -36q-25 -152 -36 -256zM29 634l10 61h353l-10 -61h-353z" />
<glyph unicode="&#x12d;" horiz-adv-x="331" d="M204 0h-156q14 63 43 243l6 40q18 115 26 190l-60 3l6 35l216 6q-30 -162 -40 -225l-6 -36q-27 -172 -35 -256zM349 757h36q-7 -85 -50.5 -126.5t-125.5 -41.5q-146 0 -146 114q0 23 5 54h36q1 -46 23.5 -61.5t89.5 -15.5q64 0 91.5 16t40.5 61z" />
<glyph unicode="&#x12e;" horiz-adv-x="388" d="M-3 0l6 36l77 3q14 62 37 204l30 189q26 169 30 221l-76 3l6 36h313l-6 -36l-78 -3q-14 -64 -33 -187l-34 -216q-25 -172 -29 -211l76 -3l-6 -36q-54 -32 -78 -64.5t-24 -73.5q0 -49 55 -49q17 0 41 7l2 -34q-41 -15 -91 -15q-124 0 -124 84q0 47 38 80.5t125 64.5h-257z " />
<glyph unicode="&#x12f;" horiz-adv-x="331" d="M148 0h-100q10 46 43 243l6 40q19 130 26 190l-60 3l6 35l216 6q-22 -114 -40 -225l-6 -36q-21 -139 -35 -256q-54 -32 -78.5 -64.5t-24.5 -73.5q0 -49 55 -49q17 0 41 7l2 -34q-41 -15 -91 -15q-124 0 -124 84q0 46 38 79.5t126 65.5zM232 749q35 0 57.5 -22t22.5 -56 q0 -36 -22 -58.5t-58 -22.5q-34 0 -56.5 22t-22.5 57t22 57.5t57 22.5z" />
<glyph unicode="&#x130;" horiz-adv-x="388" d="M-3 0l6 36l77 3q16 76 37 204l30 189q24 156 30 221l-76 3l6 36h313l-6 -36l-78 -3q-11 -53 -33 -187l-34 -216q-25 -170 -29 -211l76 -3l-6 -36h-313zM286 911q34 0 56.5 -22.5t22.5 -56.5q0 -35 -22 -57.5t-57 -22.5t-57.5 22.5t-22.5 58.5q0 34 22.5 56t57.5 22z" />
<glyph unicode="&#x131;" horiz-adv-x="331" d="M204 0h-156q14 63 43 243l6 40q18 115 26 190l-60 3l6 35l216 6q-30 -162 -40 -225l-6 -36q-27 -172 -35 -256z" />
<glyph unicode="&#x134;" horiz-adv-x="382" d="M100 692h319l-5 -36l-79 -3q-6 -28 -33 -185l-45 -286q-12 -78 -20 -108t-24 -56q-34 -55 -102.5 -84.5t-161.5 -29.5q-31 0 -58 5l8 38q13 -2 25 -2q38 0 73 16.5t55 43.5q32 42 55 180l39 249q25 149 30 219l-81 3zM426 764l-19 -29q-40 15 -76.5 41t-56.5 54 q-69 -64 -163 -95l-16 29q28 22 62.5 65t50.5 76h147q7 -35 28 -77.5t43 -63.5z" />
<glyph unicode="&#x135;" horiz-adv-x="331" d="M63 511l220 6q-34 -189 -48 -276l-37 -230q-18 -124 -62 -169q-57 -60 -183 -60q-26 0 -61 3l8 38q75 0 106.5 43.5t51.5 176.5l39 250q18 113 24 180l-64 3zM363 600l-19 -29q-40 14 -76.5 40.5t-56.5 54.5q-69 -64 -163 -95l-16 29q28 21 62.5 64t50.5 77h147 q7 -34 28.5 -77t42.5 -64z" />
<glyph unicode="&#x136;" horiz-adv-x="674" d="M277 330l-13 -80q-26 -174 -29 -211l59 -3l-5 -36h-297l6 36l77 3q19 87 37 204l30 189q24 156 30 221l-76 3l6 36h306l-6 -36l-71 -3q-17 -87 -33 -187l-13 -86l194 185q27 23 48 46q22 21 42 41l-69 4l5 36h221l-5 -36l-61 -4q-7 -7 -39 -33q-34 -29 -84 -75l-135 -124 l150 -290q44 -83 52 -91l54 -3l-6 -36h-286l6 36l54 2zM158 -229l-17 29q110 86 118 163h114q19 0 19 -11q0 -23 -28.5 -55.5t-74.5 -60.5q-32 -20 -131 -65z" />
<glyph unicode="&#x137;" horiz-adv-x="609" d="M243 278l-14 -86q0 -1 -11 -80q-6 -36 -10 -72l-5 -40h-155q3 19 9 49t9 48q20 102 32 187l36 228q21 134 24 181l-60 3l6 35l217 6l-4 -21l-12 -57q-3 -21 -11 -63l-18 -111l-29 -186l156 119q59 46 70 56l-55 2l5 36h201l-6 -36l-47 -3q-16 -8 -43 -27l-48 -34 q-11 -7 -33 -23q-4 -3 -16 -11l-56 -43l87 -188l36 -74q9 -20 19 -33l57 -4l-6 -36h-204q-7 28 -37 93zM115 -229l-17 29q110 86 118 163h114q19 0 19 -11q0 -23 -28.5 -55.5t-74.5 -60.5q-32 -20 -131 -65z" />
<glyph unicode="&#x139;" horiz-adv-x="604" d="M-8 0l6 35l77 3q15 72 37 205l30 189q24 156 30 221l-76 3l6 36h321l-6 -36l-86 -3q-12 -56 -33 -187l-33 -213q-4 -28 -11.5 -79t-11.5 -74q-1 -5 -2.5 -20.5t-4.5 -37.5h181l30 147h112l-30 -189h-536zM216 735l-17 28q39 27 78.5 67t60.5 75h128q16 0 16 -7 q0 -8 -19.5 -27t-49.5 -40q-68 -48 -197 -96z" />
<glyph unicode="&#x13a;" horiz-adv-x="317" d="M197 0h-156q36 193 50 284l35 228q16 98 24 180l-60 3l7 36l216 6q-34 -192 -49 -277l-29 -190q-6 -39 -11 -71t-7 -44.5t-3.5 -25.5t-3.5 -27q-10 -70 -13 -102zM182 785l-17 28q39 27 78.5 67t60.5 75h128q16 0 16 -7q0 -8 -19.5 -27t-49.5 -40q-68 -48 -197 -96z" />
<glyph unicode="&#x13b;" horiz-adv-x="604" d="M-8 0l6 35l77 3q15 72 37 205l30 189q24 156 30 221l-76 3l6 36h321l-6 -36l-86 -3q-12 -56 -33 -187l-33 -213q-4 -28 -11.5 -79t-11.5 -74q-1 -5 -2.5 -20.5t-4.5 -37.5h181l30 147h112l-30 -189h-536zM122 -229l-17 29q110 86 118 163h114q19 0 19 -11 q0 -23 -28.5 -55.5t-74.5 -60.5q-32 -20 -131 -65z" />
<glyph unicode="&#x13c;" horiz-adv-x="317" d="M197 0h-156q33 172 50 284l36 228q15 103 23 180l-59 3l6 36l216 6q-14 -75 -49 -277l-29 -190q-4 -29 -13 -87.5t-12 -80.5q-6 -45 -13 -102zM-51 -229l-17 29q110 86 118 163h114q19 0 19 -11q0 -23 -28.5 -55.5t-74.5 -60.5q-32 -20 -131 -65z" />
<glyph unicode="&#x13d;" horiz-adv-x="604" d="M-8 0l6 35l77 3q15 72 37 205l30 189q24 156 30 221l-76 3l6 36h321l-6 -36l-86 -3q-12 -56 -33 -187l-33 -213q-4 -28 -11.5 -79t-11.5 -74q-1 -5 -2.5 -20.5t-4.5 -37.5h181l30 147h112l-30 -189h-536zM518 399l-39 29q59 79 74 145q-70 15 -70 81q0 39 24 63t62 24 t61.5 -24t23.5 -64q0 -95 -136 -254z" />
<glyph unicode="&#x13e;" horiz-adv-x="472" d="M197 0h-156q36 193 50 284l35 228q16 98 24 180l-60 3l7 36l216 6q-34 -192 -49 -277l-29 -190q-6 -39 -11 -71t-7 -44.5t-3.5 -25.5t-3.5 -27q-10 -70 -13 -102zM400 399l-39 29q59 79 74 145q-70 15 -70 81q0 39 24 63t62 24t61.5 -24t23.5 -64q0 -95 -136 -254z" />
<glyph unicode="&#x141;" horiz-adv-x="604" d="M-8 0l6 35l77 3q16 77 37 204l5 35l-100 -67l8 54l101 68l16 102q24 154 30 219l-76 3l6 36h320l-5 -36l-86 -3q-13 -65 -33 -185l-3 -24l126 85l-8 -55l-127 -85l-22 -138q-19 -134 -22 -150q0 -6 -1.5 -14.5t-3 -21.5t-2.5 -23h181l30 147h112l-30 -189h-536z" />
<glyph unicode="&#x142;" horiz-adv-x="331" d="M204 0h-155q24 130 48 274l5 31l-93 -70l9 59l93 69l23 149q17 117 24 180l-60 3l6 35l216 7q-9 -49 -39 -222l-5 -28l92 69l-9 -59l-92 -68l-25 -160q-16 -110 -25 -165q-2 -17 -6 -47t-7 -57z" />
<glyph unicode="&#x143;" horiz-adv-x="739" d="M-10 0l6 36l77 3q13 63 33 181l43 268q23 163 23 165l-77 3l5 36h243q31 -82 67 -165l148 -351l43 280q19 127 24 197l-71 3l5 36h219l-5 -36l-77 -3q-11 -48 -37 -200l-72 -453h-124q-8 28 -58 151l-183 435l-52 -337q-26 -177 -27 -210l72 -3l-6 -36h-219zM418 735 l-17 28q39 27 78.5 67t60.5 75h128q16 0 16 -7q0 -8 -19.5 -27t-49.5 -40q-68 -48 -197 -96z" />
<glyph unicode="&#x144;" horiz-adv-x="647" d="M259 374l-11 -68q-34 -222 -44 -306h-156q32 176 50 284l5 33q16 110 20 156l-60 3l6 35l207 6l-11 -79q49 46 91 65.5t91 19.5q62 0 95.5 -30.5t33.5 -86.5q0 -37 -16 -131l-9 -56q-15 -100 -23 -180l63 -3l-6 -36h-217q15 83 36 209l12 73q12 81 12 110q0 58 -47 58 q-26 0 -60.5 -21.5t-61.5 -54.5zM304 571l-17 28q39 27 78.5 67t60.5 75h128q16 0 16 -7q0 -8 -19.5 -27t-49.5 -40q-68 -48 -197 -96z" />
<glyph unicode="&#x145;" horiz-adv-x="739" d="M-10 0l6 36l77 3q13 63 33 181l43 268q23 163 23 165l-77 3l5 36h243q31 -82 67 -165l148 -351l43 280q19 127 24 197l-71 3l5 36h219l-5 -36l-77 -3q-11 -48 -37 -200l-72 -453h-124q-8 28 -58 151l-183 435l-52 -337q-26 -177 -27 -210l72 -3l-6 -36h-219zM168 -229 l-17 29q110 86 118 163h114q19 0 19 -11q0 -23 -28.5 -55.5t-74.5 -60.5q-32 -20 -131 -65z" />
<glyph unicode="&#x146;" horiz-adv-x="647" d="M259 374l-11 -68q-34 -222 -44 -306h-156q32 176 50 284l5 33q16 110 20 156l-60 3l6 35l207 6l-11 -79q49 46 91 65.5t91 19.5q62 0 95.5 -30.5t33.5 -86.5q0 -37 -16 -131l-9 -56q-15 -100 -23 -180l63 -3l-6 -36h-217q15 83 36 209l12 73q12 81 12 110q0 58 -47 58 q-26 0 -60.5 -21.5t-61.5 -54.5zM121 -229l-17 29q110 86 118 163h114q19 0 19 -11q0 -23 -28.5 -55.5t-74.5 -60.5q-32 -20 -131 -65z" />
<glyph unicode="&#x147;" horiz-adv-x="739" d="M-10 0l6 36l77 3q13 63 33 181l43 268q23 163 23 165l-77 3l5 36h243q31 -82 67 -165l148 -351l43 280q19 127 24 197l-71 3l5 36h219l-5 -36l-77 -3q-11 -48 -37 -200l-72 -453h-124q-8 28 -58 151l-183 435l-52 -337q-26 -177 -27 -210l72 -3l-6 -36h-219zM326 896 l19 29q40 -15 76.5 -41t56.5 -54q69 64 163 95l16 -29q-29 -22 -63 -64.5t-50 -76.5h-147q-7 34 -28.5 77t-42.5 64z" />
<glyph unicode="&#x148;" horiz-adv-x="647" d="M259 374l-11 -68q-34 -222 -44 -306h-156q32 176 50 284l5 33q16 110 20 156l-60 3l6 35l207 6l-11 -79q49 46 91 65.5t91 19.5q62 0 95.5 -30.5t33.5 -86.5q0 -37 -16 -131l-9 -56q-15 -100 -23 -180l63 -3l-6 -36h-217q15 83 36 209l12 73q12 81 12 110q0 58 -47 58 q-26 0 -60.5 -21.5t-61.5 -54.5zM217 731l19 29q40 -15 76.5 -41t56.5 -54q69 64 163 95l16 -29q-29 -22 -63 -64.5t-50 -76.5h-147q-7 35 -28 77t-43 64z" />
<glyph unicode="&#x14c;" horiz-adv-x="762" d="M433 704q137 0 213 -79t76 -221q0 -85 -28 -164.5t-78 -137.5q-98 -114 -259 -114q-138 0 -213.5 79t-75.5 224q0 79 26.5 156.5t73.5 135.5q97 121 265 121zM441 665q-95 0 -152 -119q-29 -60 -47.5 -145t-18.5 -161q0 -104 32 -158.5t93 -54.5q102 0 159 125 q60 130 60 300q0 109 -30.5 161t-95.5 52zM290 796l10 61h353l-10 -61h-353z" />
<glyph unicode="&#x14d;" horiz-adv-x="628" d="M345 523q113 0 173.5 -58.5t60.5 -167.5q0 -133 -82 -224q-78 -85 -213 -85q-126 0 -181 65q-54 62 -54 164q0 62 22 120.5t62 101.5q77 84 212 84zM344 485q-78 0 -120 -150q-22 -85 -22 -172q0 -137 81 -137q34 0 62.5 29t47.5 83q32 100 32 204q0 143 -81 143z M185 634l10 61h353l-10 -61h-353z" />
<glyph unicode="&#x150;" horiz-adv-x="762" d="M433 704q137 0 213 -79t76 -221q0 -85 -28 -164.5t-78 -137.5q-98 -114 -259 -114q-138 0 -213.5 79t-75.5 224q0 79 26.5 156.5t73.5 135.5q97 121 265 121zM441 665q-95 0 -152 -119q-29 -60 -47.5 -145t-18.5 -161q0 -104 32 -158.5t93 -54.5q102 0 159 125 q60 130 60 300q0 109 -30.5 161t-95.5 52zM338 735l-12 28q36 28 70 68t51 74h122q17 0 17 -8q0 -13 -34 -43.5t-77 -55.5q-66 -36 -137 -63zM532 735l-12 28q37 28 70.5 67.5t50.5 74.5h122q17 0 17 -8q0 -13 -34 -43.5t-77 -55.5q-49 -28 -137 -63z" />
<glyph unicode="&#x151;" horiz-adv-x="628" d="M345 523q113 0 173.5 -58.5t60.5 -167.5q0 -133 -82 -224q-78 -85 -213 -85q-126 0 -181 65q-54 62 -54 164q0 62 22 120.5t62 101.5q77 84 212 84zM344 485q-78 0 -120 -150q-22 -85 -22 -172q0 -137 81 -137q34 0 62.5 29t47.5 83q32 100 32 204q0 143 -81 143z M228 571l-12 28q36 28 70 68t51 74h122q17 0 17 -8q0 -13 -34 -43.5t-77 -55.5q-66 -36 -137 -63zM422 571l-12 28q37 28 70.5 67.5t50.5 74.5h122q17 0 17 -8q0 -13 -34 -43.5t-77 -55.5q-49 -28 -137 -63z" />
<glyph unicode="&#x152;" horiz-adv-x="992" d="M916 0h-476q-114 0 -173 13t-105 49q-94 74 -94 225q0 98 38 187.5t102 141.5q55 45 115.5 60.5t183.5 15.5h498l-28 -180h-112l16 138h-174q-15 -72 -33 -186l-13 -89h204l-7 -49h-205l-12 -75q-22 -139 -29 -209h193l28 139h113zM429 42h23q12 51 37 204l29 185 q24 155 30 219h-22q-98 0 -144 -19.5t-82 -75.5q-33 -51 -54 -133t-21 -161q0 -136 66 -187q43 -32 138 -32z" />
<glyph unicode="&#x153;" horiz-adv-x="946" d="M819 77l22 -37q-81 -52 -191 -52q-117 0 -179 68q-40 -37 -83 -52.5t-106 -15.5q-124 0 -179 65q-54 63 -54 165q0 133 81 222q76 83 205 83q118 0 181 -66q79 66 182 66q108 0 159 -53q45 -45 45 -146q0 -41 -5 -72h-331q-6 -41 -6 -71q0 -147 126 -147q66 0 133 43z M345 485q-80 0 -120 -150q-23 -83 -23 -171q0 -138 82 -138q34 0 62.5 29.5t46.5 82.5q33 94 33 205q0 142 -81 142zM572 291h177q8 63 8 95q0 54 -13 77t-44 23q-44 0 -78.5 -52.5t-49.5 -142.5z" />
<glyph unicode="&#x154;" horiz-adv-x="665" d="M-8 0l6 36l77 3q18 86 37 205l30 190q21 123 30 220l-76 3l6 35h300q126 0 179.5 -35.5t53.5 -119.5q0 -95 -58 -148q-42 -37 -125 -45q53 -13 71 -39.5t31 -114.5l20 -151l51 -3l-6 -36h-195l-10 100q-11 118 -33 173q-10 25 -28 34.5t-55 9.5h-23l-11 -68 q-26 -175 -29 -210l76 -3l-6 -36h-313zM281 359h39q79 0 115 40q44 50 44 147q0 67 -40 91q-26 13 -93 13h-16q-15 -76 -32 -186zM343 735l-17 28q39 27 78.5 67t60.5 75h128q16 0 16 -7q0 -8 -19.5 -27t-49.5 -40q-68 -48 -197 -96z" />
<glyph unicode="&#x155;" horiz-adv-x="482" d="M271 516l-11 -79q56 84 157 84q49 0 85 -12l-27 -164h-109l12 114q-7 1 -11 1q-38 0 -73.5 -42t-43.5 -97l-9 -57q-2 -11 -25 -163q-3 -21 -13 -101h-155q30 164 44 246l7 45q9 58 16 111q1 8 3.5 30.5l4.5 40.5l-60 3l6 35zM257 571l-17 28q39 27 78.5 67t60.5 75h128 q16 0 16 -7q0 -8 -19.5 -27t-49.5 -40q-68 -48 -197 -96z" />
<glyph unicode="&#x156;" horiz-adv-x="665" d="M-8 0l6 36l77 3q18 86 37 205l30 190q21 123 30 220l-76 3l6 35h300q126 0 179.5 -35.5t53.5 -119.5q0 -95 -58 -148q-42 -37 -125 -45q53 -13 71 -39.5t31 -114.5l20 -151l51 -3l-6 -36h-195l-10 100q-11 118 -33 173q-10 25 -28 34.5t-55 9.5h-23l-11 -68 q-26 -175 -29 -210l76 -3l-6 -36h-313zM281 359h39q79 0 115 40q44 50 44 147q0 67 -40 91q-26 13 -93 13h-16q-15 -76 -32 -186zM183 -229l-17 29q110 86 118 163h114q19 0 19 -11q0 -23 -28.5 -55.5t-74.5 -60.5q-32 -20 -131 -65z" />
<glyph unicode="&#x157;" horiz-adv-x="482" d="M272 516l-11 -79q56 84 156 84q49 0 85 -12l-26 -164h-110l12 114q-6 1 -11 1q-37 0 -72.5 -42t-44.5 -97l-9 -57q-31 -211 -37 -264h-156q30 164 44 246l7 45l16 111q6 47 8 71l-60 3l6 35zM-40 -229l-17 29q110 86 118 163h114q19 0 19 -11q0 -23 -28.5 -55.5 t-74.5 -60.5q-32 -20 -131 -65z" />
<glyph unicode="&#x158;" horiz-adv-x="665" d="M-8 0l6 36l77 3q18 86 37 205l30 190q21 123 30 220l-76 3l6 35h300q126 0 179.5 -35.5t53.5 -119.5q0 -95 -58 -148q-42 -37 -125 -45q53 -13 71 -39.5t31 -114.5l20 -151l51 -3l-6 -36h-195l-10 100q-11 118 -33 173q-10 25 -28 34.5t-55 9.5h-23l-11 -68 q-26 -175 -29 -210l76 -3l-6 -36h-313zM281 359h39q79 0 115 40q44 50 44 147q0 67 -40 91q-26 13 -93 13h-16q-15 -76 -32 -186zM222 896l19 29q40 -15 76.5 -41t56.5 -54q69 64 163 95l16 -29q-29 -22 -63 -64.5t-50 -76.5h-147q-7 34 -28.5 77t-42.5 64z" />
<glyph unicode="&#x159;" horiz-adv-x="482" d="M271 516l-11 -79q56 84 157 84q49 0 85 -12l-27 -164h-109l12 114q-7 1 -11 1q-38 0 -73.5 -42t-43.5 -97l-9 -57q-2 -11 -25 -163q-3 -21 -13 -101h-155q30 164 44 246l7 45q9 58 16 111q1 8 3.5 30.5l4.5 40.5l-60 3l6 35zM152 731l19 29q40 -15 76.5 -41t56.5 -54 q69 64 163 95l16 -29q-29 -22 -63 -64.5t-50 -76.5h-147q-7 35 -28 77t-43 64z" />
<glyph unicode="&#x15a;" horiz-adv-x="578" d="M33 33l20 157h112l-10 -129q41 -30 101 -30q61 0 99.5 33.5t38.5 86.5q0 37 -17 60.5t-60 44.5q-129 64 -167 99q-60 53 -60 138q0 97 72 156q65 55 183 55q115 0 206 -46l-18 -147h-114l10 126q-35 24 -86 24q-54 0 -92 -33.5t-38 -82.5q0 -40 31 -71q23 -22 98 -60 q94 -47 129 -82q48 -46 48 -126q0 -93 -65 -153q-69 -65 -201 -65q-124 0 -220 45zM322 735l-17 28q39 27 78.5 67t60.5 75h128q16 0 16 -7q0 -8 -19.5 -27t-49.5 -40q-68 -48 -197 -96z" />
<glyph unicode="&#x15b;" horiz-adv-x="492" d="M24 19l21 134h104l-5 -103q29 -21 74 -21q43 0 70.5 23t27.5 59q0 31 -22 47q-13 8 -77 34q-83 33 -116.5 68.5t-33.5 91.5q0 74 57 123q55 48 158 48q100 0 169 -32l-20 -133h-102l8 110q-23 15 -64 15t-67 -22.5t-26 -56.5q0 -31 25 -47q15 -10 89 -41q78 -34 103 -58 q34 -32 34 -94q0 -84 -60 -130t-169 -46q-91 0 -178 31zM245 571l-17 28q39 27 78.5 67t60.5 75h128q16 0 16 -7q0 -8 -19.5 -27t-49.5 -40q-68 -48 -197 -96z" />
<glyph unicode="&#x15c;" horiz-adv-x="578" d="M33 33l20 157h112l-10 -129q41 -30 101 -30q61 0 99.5 33.5t38.5 86.5q0 37 -17 60.5t-60 44.5q-129 64 -167 99q-60 53 -60 138q0 97 72 156q65 55 183 55q115 0 206 -46l-18 -147h-114l10 126q-35 24 -86 24q-54 0 -92 -33.5t-38 -82.5q0 -40 31 -71q23 -22 98 -60 q94 -47 129 -82q48 -46 48 -126q0 -93 -65 -153q-69 -65 -201 -65q-124 0 -220 45zM524 764l-19 -29q-40 15 -76.5 41t-56.5 54q-69 -64 -163 -95l-16 29q28 22 62.5 65t50.5 76h147q7 -35 28 -77.5t43 -63.5z" />
<glyph unicode="&#x15d;" horiz-adv-x="492" d="M24 19l21 134h104l-5 -103q29 -21 74 -21q43 0 70.5 23t27.5 59q0 31 -22 47q-13 8 -77 34q-83 33 -116.5 68.5t-33.5 91.5q0 74 57 123q55 48 158 48q100 0 169 -32l-20 -133h-102l8 110q-23 15 -64 15t-67 -22.5t-26 -56.5q0 -31 25 -47q15 -10 89 -41q78 -34 103 -58 q34 -32 34 -94q0 -84 -60 -130t-169 -46q-91 0 -178 31zM467 600l-19 -29q-40 14 -76.5 40.5t-56.5 54.5q-69 -64 -163 -95l-16 29q28 21 62.5 64t50.5 77h147q7 -34 28.5 -77t42.5 -64z" />
<glyph unicode="&#x15e;" horiz-adv-x="578" d="M33 33l20 157h112l-10 -129q41 -30 101 -30q61 0 99.5 33.5t38.5 86.5q0 37 -17 60.5t-60 44.5q-129 64 -167 99q-60 53 -60 138q0 97 72 156q65 55 183 55q115 0 206 -46l-18 -147h-114l10 126q-35 24 -86 24q-54 0 -92 -33.5t-38 -82.5q0 -40 31 -71q23 -22 98 -60 q94 -47 129 -82q48 -46 48 -126q0 -93 -65 -153q-69 -65 -201 -65q-124 0 -220 45zM92 -229l-17 29q110 86 118 163h114q19 0 19 -11q0 -23 -28.5 -55.5t-74.5 -60.5q-32 -20 -131 -65z" />
<glyph unicode="&#x15f;" horiz-adv-x="492" d="M24 19l21 134h104l-5 -103q29 -21 74 -21q43 0 70.5 23t27.5 59q0 31 -22 47q-13 8 -77 34q-83 33 -116.5 68.5t-33.5 91.5q0 74 57 123q55 48 158 48q100 0 169 -32l-20 -133h-102l8 110q-23 15 -64 15t-67 -22.5t-26 -56.5q0 -31 25 -47q15 -10 89 -41q78 -34 103 -58 q34 -32 34 -94q0 -84 -60 -130t-169 -46q-91 0 -178 31zM46 -229l-17 29q110 86 118 163h114q19 0 19 -11q0 -23 -28.5 -55.5t-74.5 -60.5q-32 -20 -131 -65z" />
<glyph unicode="&#x160;" horiz-adv-x="578" d="M33 33l20 157h112l-10 -129q41 -30 101 -30q61 0 99.5 33.5t38.5 86.5q0 37 -17 60.5t-60 44.5q-129 64 -167 99q-60 53 -60 138q0 97 72 156q65 55 183 55q115 0 206 -46l-18 -147h-114l10 126q-35 24 -86 24q-54 0 -92 -33.5t-38 -82.5q0 -40 31 -71q23 -22 98 -60 q94 -47 129 -82q48 -46 48 -126q0 -93 -65 -153q-69 -65 -201 -65q-124 0 -220 45zM224 896l19 29q40 -15 76.5 -41t56.5 -54q69 64 163 95l16 -29q-29 -22 -63 -64.5t-50 -76.5h-147q-7 34 -28.5 77t-42.5 64z" />
<glyph unicode="&#x161;" horiz-adv-x="492" d="M24 19l21 134h104l-5 -103q29 -21 74 -21q43 0 70.5 23t27.5 59q0 31 -22 47q-13 8 -77 34q-83 33 -116.5 68.5t-33.5 91.5q0 74 57 123q55 48 158 48q100 0 169 -32l-20 -133h-102l8 110q-23 15 -64 15t-67 -22.5t-26 -56.5q0 -31 25 -47q15 -10 89 -41q78 -34 103 -58 q34 -32 34 -94q0 -84 -60 -130t-169 -46q-91 0 -178 31zM155 731l19 29q40 -15 76.5 -41t56.5 -54q69 64 163 95l16 -29q-29 -22 -63 -64.5t-50 -76.5h-147q-7 35 -28 77t-43 64z" />
<glyph unicode="&#x163;" horiz-adv-x="389" d="M125 475h-79l6 37h38q67 0 100 31.5t67 126.5h46l-26 -158h130l-6 -37h-130l-50 -321q-8 -48 -8 -66q0 -47 43 -47q30 0 69 29l21 -34q-56 -48 -135 -48q-67 0 -104 29.5t-37 83.5q0 21 10 83zM15 -229l-17 29q110 86 118 163h114q19 0 19 -11q0 -23 -28.5 -55.5 t-74.5 -60.5q-32 -20 -131 -65z" />
<glyph unicode="&#x164;" horiz-adv-x="640" d="M104 0l5 36l97 3q15 71 37 205l29 185q22 138 30 221h-105l-28 -138h-112l29 180h607l-29 -180h-112l16 138h-107q-12 -54 -33 -188l-33 -212q-23 -157 -30 -211l96 -3l-6 -36h-351zM248 896l19 29q40 -15 76.5 -41t56.5 -54q69 64 163 95l16 -29q-29 -22 -63 -64.5 t-50 -76.5h-147q-7 34 -28.5 77t-42.5 64z" />
<glyph unicode="&#x165;" horiz-adv-x="458" d="M126 475h-80l6 37h39q66 0 99 31.5t67 126.5h47l-26 -158h129l-6 -37h-129l-50 -321q-8 -48 -8 -66q0 -47 42 -47q32 0 69 29l22 -34q-56 -48 -135 -48q-67 0 -104 29.5t-37 83.5q0 25 10 83zM410 574l-39 29q59 79 74 145q-70 15 -70 81q0 39 24 63t62 24t61.5 -24 t23.5 -64q0 -95 -136 -254z" />
<glyph unicode="&#x16a;" horiz-adv-x="731" d="M99 692h313l-6 -36l-78 -3q-10 -48 -33 -185l-30 -193q-12 -80 -12 -126q0 -110 115 -110q95 0 145 61q35 43 56 176l28 180q19 125 27 197l-76 3l5 36h221l-6 -36l-76 -3q-6 -24 -11 -56l-21 -115q-4 -21 -9 -51l-22 -142q-15 -101 -29 -147.5t-38 -74.5 q-65 -79 -204 -79q-255 0 -255 175q0 44 17 154l19 117q24 154 30 219l-76 3zM295 796l10 61h353l-10 -61h-353z" />
<glyph unicode="&#x16b;" horiz-adv-x="646" d="M389 139l53 334l-65 3l6 35l216 6q-9 -49 -21 -118.5t-16 -90.5l-19 -118q-15 -118 -19 -151l60 -3l-6 -36l-207 -5l10 77q-54 -48 -93 -66t-91 -18q-61 0 -93.5 30t-32.5 86q0 29 15 132l9 57q8 43 10 70q8 53 9 70q3 15 5 40l-60 3l6 35l216 6q-21 -110 -39 -216 l-16 -101q-7 -49 -7 -78q0 -61 46 -61q59 0 124 78zM189 634l10 61h353l-10 -61h-353z" />
<glyph unicode="&#x16d;" horiz-adv-x="646" d="M389 139l53 334l-65 3l6 35l216 6q-9 -49 -21 -118.5t-16 -90.5l-19 -118q-15 -118 -19 -151l60 -3l-6 -36l-207 -5l10 77q-54 -48 -93 -66t-91 -18q-61 0 -93.5 30t-32.5 86q0 29 15 132l9 57q8 43 10 70q8 53 9 70q3 15 5 40l-60 3l6 35l216 6q-21 -110 -39 -216 l-16 -101q-7 -49 -7 -78q0 -61 46 -61q59 0 124 78zM506 757h36q-7 -85 -50.5 -126.5t-125.5 -41.5q-146 0 -146 114q0 23 5 54h36q1 -46 23.5 -61.5t89.5 -15.5q64 0 91.5 16t40.5 61z" />
<glyph unicode="&#x16e;" horiz-adv-x="731" d="M99 692h313l-6 -36l-78 -3q-10 -48 -33 -185l-30 -193q-12 -80 -12 -126q0 -110 115 -110q95 0 145 61q35 43 56 176l28 180q19 125 27 197l-76 3l5 36h221l-6 -36l-76 -3q-6 -24 -11 -56l-21 -115q-4 -21 -9 -51l-22 -142q-15 -101 -29 -147.5t-38 -74.5 q-65 -79 -204 -79q-255 0 -255 175q0 44 17 154l19 117q24 154 30 219l-76 3zM492 942q46 0 76 -28.5t30 -72.5t-30 -72.5t-76 -28.5q-47 0 -76.5 28.5t-29.5 74.5q0 43 30 71t76 28zM492 900q-26 0 -41.5 -16t-15.5 -43q0 -28 15 -43.5t42 -15.5q26 0 41.5 16t15.5 43 t-15.5 43t-41.5 16z" />
<glyph unicode="&#x16f;" horiz-adv-x="646" d="M389 139l53 334l-65 3l6 35l216 6q-9 -49 -21 -118.5t-16 -90.5l-19 -118q-15 -118 -19 -151l60 -3l-6 -36l-207 -5l10 77q-54 -48 -93 -66t-91 -18q-61 0 -93.5 30t-32.5 86q0 29 15 132l9 57q8 43 10 70q8 53 9 70q3 15 5 40l-60 3l6 35l216 6q-21 -110 -39 -216 l-16 -101q-7 -49 -7 -78q0 -61 46 -61q59 0 124 78zM369 776q46 0 76 -28.5t30 -72.5t-30 -72.5t-76 -28.5q-47 0 -76.5 28.5t-29.5 73.5q0 43 30 71.5t76 28.5zM369 734q-26 0 -41.5 -16t-15.5 -43q0 -28 15 -43.5t42 -15.5q26 0 41.5 16t15.5 43t-15.5 43t-41.5 16z" />
<glyph unicode="&#x170;" horiz-adv-x="731" d="M99 692h313l-6 -36l-78 -3q-10 -48 -33 -185l-30 -193q-12 -80 -12 -126q0 -110 115 -110q95 0 145 61q35 43 56 176l28 180q19 125 27 197l-76 3l5 36h221l-6 -36l-76 -3q-6 -24 -11 -56l-21 -115q-4 -21 -9 -51l-22 -142q-15 -101 -29 -147.5t-38 -74.5 q-65 -79 -204 -79q-255 0 -255 175q0 44 17 154l19 117q24 154 30 219l-76 3zM332 735l-12 28q36 28 70 68t51 74h122q17 0 17 -8q0 -13 -34 -43.5t-77 -55.5q-66 -36 -137 -63zM526 735l-12 28q37 28 70.5 67.5t50.5 74.5h122q17 0 17 -8q0 -13 -34 -43.5t-77 -55.5 q-49 -28 -137 -63z" />
<glyph unicode="&#x171;" horiz-adv-x="646" d="M389 139l53 334l-65 3l6 35l216 6q-9 -49 -21 -118.5t-16 -90.5l-19 -118q-15 -118 -19 -151l60 -3l-6 -36l-207 -5l10 77q-54 -48 -93 -66t-91 -18q-61 0 -93.5 30t-32.5 86q0 29 15 132l9 57q8 43 10 70q8 53 9 70q3 15 5 40l-60 3l6 35l216 6q-21 -110 -39 -216 l-16 -101q-7 -49 -7 -78q0 -61 46 -61q59 0 124 78zM223 571l-12 28q36 28 70 68t51 74h122q17 0 17 -8q0 -13 -34 -43.5t-77 -55.5q-66 -36 -137 -63zM417 571l-12 28q37 28 70.5 67.5t50.5 74.5h122q17 0 17 -8q0 -13 -34 -43.5t-77 -55.5q-49 -28 -137 -63z" />
<glyph unicode="&#x172;" horiz-adv-x="731" d="M99 692h313l-6 -36l-78 -3q-10 -46 -33 -185l-30 -193q-12 -80 -12 -126q0 -110 115 -110q95 0 145 61q35 43 56 176l28 180q19 125 27 197l-76 3l5 36h221l-6 -36l-76 -3q-20 -98 -41 -222l-22 -142q-19 -114 -29.5 -150t-37.5 -72q-42 -53 -113 -70q-52 -32 -75 -63.5 t-23 -71.5q0 -49 55 -49q17 0 41 7l2 -34q-41 -15 -91 -15q-124 0 -124 84q0 82 131 133h-16q-120 0 -183 45t-63 130q0 44 17 154l19 117q27 173 30 219l-76 3z" />
<glyph unicode="&#x173;" horiz-adv-x="646" d="M389 139l53 334l-65 3l6 35l216 6q-7 -37 -21.5 -121t-15.5 -88l-19 -118q-2 -11 -6 -44q-10 -77 -13 -107l60 -3l-6 -36q-102 -60 -102 -138q0 -49 55 -49q17 0 41 7l1 -34q-40 -15 -90 -15q-124 0 -124 84q0 46 37 79.5t122 64.5l-147 -4l10 77q-54 -48 -93 -66 t-91 -18q-61 0 -93.5 30t-32.5 86q0 29 15 132l9 57q15 97 24 180l-60 3l6 35l216 6q-15 -84 -39 -216l-16 -101q-7 -49 -7 -78q0 -61 46 -61q59 0 124 78z" />
<glyph unicode="&#x174;" horiz-adv-x="956" d="M67 692h289l-6 -36l-75 -3q1 -38 14 -187l28 -292l123 273q85 193 101 245h98q5 -109 17 -218l30 -299l116 266q43 98 87 212l-70 3l5 36h207l-5 -36l-58 -3q-15 -27 -30 -59q-11 -25 -35 -73l-24 -51l-126 -272q-66 -146 -85 -198h-110q-3 66 -19 199l-30 268l-125 -273 q-58 -126 -83 -194h-110q-2 48 -19 199l-29 268q-9 84 -24 186l-58 3zM758 764l-19 -29q-40 15 -76.5 41t-56.5 54q-69 -64 -163 -95l-16 29q28 22 62.5 65t50.5 76h147q7 -35 28 -77.5t43 -63.5z" />
<glyph unicode="&#x176;" horiz-adv-x="596" d="M92 0l6 34l81 3q38 161 47 283l-90 233q-30 74 -43 100l-52 3l6 36h296l-6 -36l-79 -3q10 -38 44 -132l53 -149l77 116q90 137 106 166l-68 2l5 36h200l-6 -36l-54 -3q-46 -57 -121 -169l-109 -159q-7 -18 -23 -119t-22 -169l80 -3l-5 -34h-323zM577 764l-19 -29 q-40 15 -76.5 41t-56.5 54q-69 -64 -163 -95l-16 29q28 22 62.5 65t50.5 76h147q7 -35 28 -77.5t43 -63.5z" />
<glyph unicode="&#x177;" horiz-adv-x="552" d="M44 512h258l-6 -36l-55 -3q4 -31 24 -128l40 -186l85 152l60 111q17 33 25 53l-75 1l6 36h192l-6 -36l-47 -3q-13 -17 -85 -141l-207 -364q-60 -106 -113 -147.5t-127 -41.5q-36 0 -57 8l28 81q33 -12 62 -12q87 0 145 103l9 16l-75 345q-27 113 -39 153l-47 3zM513 600 l-19 -29q-40 14 -76.5 40.5t-56.5 54.5q-69 -64 -163 -95l-16 29q28 21 62.5 64t50.5 77h147q7 -34 28.5 -77t42.5 -64z" />
<glyph unicode="&#x178;" horiz-adv-x="596" d="M92 0l6 34l81 3q38 161 47 283l-90 233q-30 74 -43 100l-52 3l6 36h296l-6 -36l-79 -3q10 -38 44 -132l53 -149l77 116q90 137 106 166l-68 2l5 36h200l-6 -36l-54 -3q-46 -57 -121 -169l-109 -159q-7 -18 -23 -119t-22 -169l80 -3l-5 -34h-323zM296 909q34 0 55.5 -21.5 t21.5 -55.5t-21.5 -56t-55.5 -22q-35 0 -56.5 22t-21.5 57q0 32 22 54t56 22zM515 909q34 0 55.5 -21.5t21.5 -55.5t-21.5 -56t-55.5 -22q-35 0 -56.5 22t-21.5 57q0 32 22 54t56 22z" />
<glyph unicode="&#x179;" horiz-adv-x="644" d="M5 0l9 55q39 48 62 78q6 7 33.5 42.5t45.5 58.5l181 234q29 38 40 54q25 34 49 64q30 40 45 64h-229l-28 -138h-112l29 180h522l-9 -55q-72 -92 -107 -137q-3 -4 -21.5 -27.5t-27.5 -36.5l-143 -185l-42 -57l-48 -65q-16 -20 -46 -60l-19 -27h249l29 147h113l-30 -189 h-545zM363 735l-17 28q39 27 78.5 67t60.5 75h128q16 0 16 -7q0 -8 -19.5 -27t-49.5 -40q-68 -48 -197 -96z" />
<glyph unicode="&#x17a;" horiz-adv-x="526" d="M-9 0l6 37l346 437h-159l-26 -129h-110l27 167h448l-6 -38l-348 -437h175l27 131h108l-27 -168h-461zM248 571l-17 28q39 27 78.5 67t60.5 75h128q16 0 16 -7q0 -8 -19.5 -27t-49.5 -40q-68 -48 -197 -96z" />
<glyph unicode="&#x17b;" horiz-adv-x="644" d="M5 0l9 55q39 48 62 78q6 7 33.5 42.5t45.5 58.5l181 234q29 38 40 54q25 34 49 64q30 40 45 64h-229l-28 -138h-112l29 180h522l-9 -55q-72 -92 -107 -137q-3 -4 -21.5 -27.5t-27.5 -36.5l-143 -185l-42 -57l-48 -65q-16 -20 -46 -60l-19 -27h249l29 147h113l-30 -189 h-545zM398 911q34 0 56.5 -22.5t22.5 -56.5q0 -35 -22 -57.5t-57 -22.5t-57.5 22.5t-22.5 58.5q0 34 22.5 56t57.5 22z" />
<glyph unicode="&#x17c;" horiz-adv-x="526" d="M-9 0l6 37l346 437h-159l-26 -129h-110l27 167h448l-6 -38l-348 -437h175l27 131h108l-27 -168h-461zM329 748q35 0 57 -22t22 -57t-22 -57.5t-57 -22.5t-57.5 22.5t-22.5 58.5q0 34 22.5 56t57.5 22z" />
<glyph unicode="&#x17d;" horiz-adv-x="644" d="M5 0l9 55q39 48 62 78q6 7 33.5 42.5t45.5 58.5l181 234q29 38 40 54q25 34 49 64q30 40 45 64h-229l-28 -138h-112l29 180h522l-9 -55q-72 -92 -107 -137q-3 -4 -21.5 -27.5t-27.5 -36.5l-143 -185l-42 -57l-48 -65q-16 -20 -46 -60l-19 -27h249l29 147h113l-30 -189 h-545zM257 896l19 29q40 -15 76.5 -41t56.5 -54q69 64 163 95l16 -29q-29 -22 -63 -64.5t-50 -76.5h-147q-7 34 -28.5 77t-42.5 64z" />
<glyph unicode="&#x17e;" horiz-adv-x="526" d="M-9 0l6 37l346 437h-159l-26 -129h-110l27 167h448l-6 -38l-348 -437h175l27 131h108l-27 -168h-461zM171 731l19 29q40 -15 76.5 -41t56.5 -54q69 64 163 95l16 -29q-29 -22 -63 -64.5t-50 -76.5h-147q-7 35 -28 77t-43 64z" />
<glyph unicode="&#x192;" d="M201 338h-127l6 42h128l10 68q13 79 28 121.5t40 69.5q59 65 173 65q68 0 147 -31l-22 -142h-103l13 122q-13 13 -32 13q-49 0 -73 -80q-13 -39 -30 -151l-9 -55h136l-7 -42h-135l-36 -227q-20 -130 -63 -179q-58 -67 -176 -67q-79 0 -145 29l23 146h104l-10 -126 q10 -10 28 -10q45 0 69 75q11 34 25 121z" />
<glyph unicode="&#x1cd;" horiz-adv-x="677" d="M-43 0l6 36l55 4q36 55 96 178l137 278q63 127 94 196h109q8 -53 13 -78q16 -88 22 -114l49 -250q31 -146 47 -211l57 -3l-6 -36h-294l5 36l71 3q-5 40 -23 144l-8 43h-208l-19 -40q-54 -118 -65 -148l73 -2l-5 -36h-206zM379 269l-50 269l-130 -269h180zM260 896l19 29 q40 -15 76.5 -41t56.5 -54q69 64 163 95l16 -29q-29 -22 -63 -64.5t-50 -76.5h-147q-7 34 -28.5 77t-42.5 64z" />
<glyph unicode="&#x1ce;" horiz-adv-x="635" d="M596 64l17 -35q-66 -41 -138 -41q-49 0 -72 17.5t-27 57.5q-31 -40 -66 -57.5t-86 -17.5q-85 0 -130.5 55t-45.5 158q0 140 68 231.5t171 91.5q93 0 143 -80l11 68h143q-24 -129 -38 -213l-27 -172q-5 -29 -5 -43q0 -36 29 -36q18 0 53 16zM376 129l41 259q-36 64 -86 64 q-61 0 -98 -95q-30 -74 -30 -164q0 -65 20.5 -99.5t58.5 -34.5q54 0 94 70zM210 731l19 29q40 -15 76.5 -41t56.5 -54q69 64 163 95l16 -29q-29 -22 -63 -64.5t-50 -76.5h-147q-7 35 -28 77t-43 64z" />
<glyph unicode="&#x1d3;" horiz-adv-x="731" d="M99 692h313l-6 -36l-78 -3q-10 -48 -33 -185l-30 -193q-12 -80 -12 -126q0 -110 115 -110q95 0 145 61q35 43 56 176l28 180q19 125 27 197l-76 3l5 36h221l-6 -36l-76 -3q-6 -24 -11 -56l-21 -115q-4 -21 -9 -51l-22 -142q-15 -101 -29 -147.5t-38 -74.5 q-65 -79 -204 -79q-255 0 -255 175q0 44 17 154l19 117q24 154 30 219l-76 3zM332 896l19 29q40 -15 76.5 -41t56.5 -54q69 64 163 95l16 -29q-29 -22 -63 -64.5t-50 -76.5h-147q-7 34 -28.5 77t-42.5 64z" />
<glyph unicode="&#x1e6;" horiz-adv-x="753" d="M426 318h308l-6 -36l-75 -3l-17 -107q-13 -83 -18 -134q-126 -50 -247 -50q-149 0 -227 74t-78 215q0 90 31 172t87 141q108 114 290 114q117 0 238 -50l-23 -142h-116l12 124q-43 24 -99 24q-122 0 -193 -126q-69 -127 -69 -302q0 -100 42 -149q42 -51 115 -51 q46 0 90 22l36 225l-87 3zM329 896l19 29q40 -15 76.5 -41t56.5 -54q69 64 163 95l16 -29q-29 -22 -63 -64.5t-50 -76.5h-147q-7 34 -28.5 77t-42.5 64z" />
<glyph unicode="&#x1e7;" horiz-adv-x="642" d="M458 518l205 -7l-6 -35l-68 -3q-13 -59 -40 -222l-29 -185q-16 -98 -31.5 -141t-47.5 -75q-74 -77 -238 -77q-113 0 -193 41l25 129h111l-11 -112q27 -17 65 -17q92 0 130 76q24 48 42 166l3 22q-57 -61 -138 -61q-87 0 -137 52t-50 143q0 134 68.5 222.5t173.5 88.5 q103 0 151 -77zM388 160l36 225q-14 38 -39.5 60t-55.5 22t-51.5 -23t-41.5 -74q-33 -86 -33 -185q0 -111 65 -111t120 86zM230 731l19 29q40 -15 76.5 -41t56.5 -54q69 64 163 95l16 -29q-29 -22 -63 -64.5t-50 -76.5h-147q-7 35 -28 77t-43 64z" />
<glyph unicode="&#x1f4;" horiz-adv-x="753" d="M426 318h308l-6 -36l-75 -3l-17 -107q-13 -83 -18 -134q-126 -50 -247 -50q-149 0 -227 74t-78 215q0 90 31 172t87 141q108 114 290 114q117 0 238 -50l-23 -142h-116l12 124q-43 24 -99 24q-122 0 -193 -126q-69 -127 -69 -302q0 -100 42 -149q42 -51 115 -51 q46 0 90 22l36 225l-87 3zM417 735l-17 28q39 27 78.5 67t60.5 75h128q16 0 16 -7q0 -8 -19.5 -27t-49.5 -40q-68 -48 -197 -96z" />
<glyph unicode="&#x219;" horiz-adv-x="492" d="M24 19l21 134h104l-5 -103q29 -21 74 -21q43 0 70.5 23t27.5 59q0 31 -22 47q-13 8 -77 34q-83 33 -116.5 68.5t-33.5 91.5q0 74 57 123q55 48 158 48q100 0 169 -32l-20 -133h-102l8 110q-23 15 -64 15t-67 -22.5t-26 -56.5q0 -31 25 -47q15 -10 89 -41q78 -34 103 -58 q34 -32 34 -94q0 -84 -60 -130t-169 -46q-91 0 -178 31zM52 -229l-17 29q110 86 118 163h114q19 0 19 -11q0 -23 -28.5 -55.5t-74.5 -60.5q-32 -20 -131 -65z" />
<glyph unicode="&#x21a;" horiz-adv-x="640" d="M104 0l5 36l97 3q15 71 37 205l29 185q22 138 30 221h-105l-28 -138h-112l29 180h607l-29 -180h-112l16 138h-107q-12 -54 -33 -188l-33 -212q-23 -157 -30 -211l96 -3l-6 -36h-351zM113 -229l-17 29q110 86 118 163h114q19 0 19 -11q0 -23 -28.5 -55.5t-74.5 -60.5 q-32 -20 -131 -65z" />
<glyph unicode="&#x2bc;" horiz-adv-x="285" d="M118 398l-35 31q70 78 95 147q-27 8 -42 29.5t-15 50.5q0 37 24.5 61t61.5 24q38 0 61.5 -23t23.5 -60q0 -45 -41 -106.5t-133 -153.5z" />
<glyph unicode="&#x2c6;" horiz-adv-x="498" d="M471 600l-19 -29q-40 14 -76.5 40.5t-56.5 54.5q-69 -64 -163 -95l-16 29q28 21 62.5 64t50.5 77h147q7 -34 28.5 -77t42.5 -64z" />
<glyph unicode="&#x2c7;" horiz-adv-x="498" d="M158 731l19 29q40 -15 76.5 -41t56.5 -54q69 64 163 95l16 -29q-29 -22 -63 -64.5t-50 -76.5h-147q-7 35 -28 77t-43 64z" />
<glyph unicode="&#x2c9;" horiz-adv-x="498" d="M133 634l10 61h353l-10 -61h-353z" />
<glyph unicode="&#x2d8;" horiz-adv-x="498" d="M449 757h36q-7 -85 -50.5 -126.5t-125.5 -41.5q-146 0 -146 114q0 23 5 54h36q1 -46 23.5 -61.5t89.5 -15.5q64 0 91.5 16t40.5 61z" />
<glyph unicode="&#x2d9;" horiz-adv-x="498" d="M316 748q34 0 56.5 -22t22.5 -57t-22 -57.5t-57 -22.5t-57.5 22.5t-22.5 58.5q0 34 22.5 56t57.5 22z" />
<glyph unicode="&#x2da;" horiz-adv-x="498" d="M316 776q46 0 76 -28.5t30 -72.5t-30 -72.5t-76 -28.5q-47 0 -76.5 28.5t-29.5 73.5q0 43 30 71.5t76 28.5zM316 734q-26 0 -41.5 -16t-15.5 -43q0 -28 15 -43.5t42 -15.5q26 0 41.5 16t15.5 43t-15.5 43t-41.5 16z" />
<glyph unicode="&#x2db;" horiz-adv-x="498" d="M286 -180l2 -34q-41 -15 -91 -15q-124 0 -124 84q0 46 38 79.5t126 65.5h56q-55 -32 -79 -64.5t-24 -73.5q0 -49 55 -49q17 0 41 7z" />
<glyph unicode="&#x2dc;" horiz-adv-x="498" d="M467 740h35q-28 -144 -120 -144q-22 0 -39.5 5t-98.5 34q-26 9 -40 9q-27 0 -40 -47h-37q14 69 43 106t68 37q32 0 105 -26q59 -22 80 -22q17 0 27 11t17 37z" />
<glyph unicode="&#x2dd;" horiz-adv-x="498" d="M151 571l-12 28q36 28 70 68t51 74h122q17 0 17 -8q0 -13 -34 -43.5t-77 -55.5q-66 -36 -137 -63zM345 571l-12 28q37 28 70.5 67.5t50.5 74.5h122q17 0 17 -8q0 -13 -34 -43.5t-77 -55.5q-49 -28 -137 -63z" />
<glyph unicode="&#x384;" horiz-adv-x="500" d="M240 569l-14 28q66 63 94 144h123q17 0 17 -10q0 -20 -52 -65q-60 -51 -168 -97z" />
<glyph unicode="&#x385;" horiz-adv-x="500" d="M167 733q29 0 46.5 -17.5t17.5 -46.5q0 -28 -18 -46.5t-46 -18.5q-29 0 -47 18t-18 47q0 28 18.5 46t46.5 18zM253 580l-17 23q38 66 47 149h88q21 0 21 -14t-17 -43t-38 -51q-34 -34 -84 -64zM465 733q29 0 46.5 -17.5t17.5 -46.5q0 -28 -18 -46.5t-46 -18.5 q-29 0 -47 18t-18 47q0 28 18.5 46t46.5 18z" />
<glyph unicode="&#x386;" horiz-adv-x="678" d="M-43 0l6 36l55 4q36 55 96 178l137 278q63 127 94 196h109q8 -53 13 -78q16 -88 22 -114l49 -250q31 -146 47 -211l57 -3l-6 -36h-294l5 36l71 3q-5 40 -23 144l-8 43h-208l-19 -40q-54 -118 -65 -148l73 -2l-5 -36h-206zM379 269l-50 269l-130 -269h180zM15 438l-21 29 q35 44 63.5 105t41.5 120h109q22 0 22 -17q0 -18 -23 -56t-52 -70q-55 -60 -140 -111z" />
<glyph unicode="&#x387;" horiz-adv-x="287" d="M149 373q36 0 60 -24t24 -61t-24 -61t-61 -24q-38 0 -61.5 24t-23.5 62q0 36 24.5 60t61.5 24z" />
<glyph unicode="&#x388;" horiz-adv-x="819" d="M36 438l-21 29q35 44 63.5 105t41.5 120h109q22 0 22 -17q0 -18 -23 -56t-52 -70q-55 -60 -140 -111zM195 0l6 35l77 3q14 64 37 204l30 192q22 130 30 220l-76 3l6 35h527l-29 -180h-112l16 138h-173q-9 -40 -33 -186l-14 -89h205l-8 -49h-205l-11 -75 q-27 -183 -29 -209h192l29 139h112l-29 -181h-548z" />
<glyph unicode="&#x389;" horiz-adv-x="987" d="M36 438l-21 29q35 44 63.5 105t41.5 120h109q22 0 22 -17q0 -18 -23 -56t-52 -70q-55 -60 -140 -111zM195 0l6 36l77 3q12 48 37 204l30 189q22 134 30 221l-76 3l6 36h308l-6 -36l-73 -3q-14 -70 -33 -188l-14 -90h255l9 57q19 112 31 221l-71 3l6 36h307l-5 -36l-78 -3 q-14 -64 -34 -187l-33 -216q-24 -153 -30 -211l76 -3l-5 -36h-308l6 36l71 3q15 64 37 204l14 88h-255l-13 -81q-23 -153 -29 -211l71 -3l-6 -36h-308z" />
<glyph unicode="&#x38a;" horiz-adv-x="592" d="M36 438l-21 29q35 44 63.5 105t41.5 120h109q22 0 22 -17q0 -18 -23 -56t-52 -70q-55 -60 -140 -111zM201 0l5 36l78 3q16 76 37 204l30 189q24 155 30 221l-76 3l5 36h314l-6 -36l-78 -3q-15 -69 -33 -187l-34 -216q-14 -94 -21 -142q-2 -10 -4.5 -31t-4.5 -38l77 -3 l-6 -36h-313z" />
<glyph unicode="&#x38c;" horiz-adv-x="905" d="M36 438l-21 29q35 44 63.5 105t41.5 120h109q22 0 22 -17q0 -18 -23 -56t-52 -70q-55 -60 -140 -111zM577 704q137 0 213 -79t76 -221q0 -85 -28 -164.5t-78 -137.5q-98 -114 -259 -114q-138 0 -213.5 79t-75.5 224q0 79 26.5 156.5t73.5 135.5q97 121 265 121zM585 665 q-95 0 -152 -119q-29 -60 -47.5 -145t-18.5 -161q0 -103 32 -158t92 -55q103 0 160 125q60 130 60 300q0 109 -30.5 161t-95.5 52z" />
<glyph unicode="&#x38e;" horiz-adv-x="844" d="M36 438l-21 29q78 98 105 225h109q22 0 22 -17t-23 -56t-52 -70q-55 -60 -140 -111zM341 0l6 34l81 3q36 156 46 283l-90 233l-26 66q-14 30 -16 34l-52 3l5 36h296l-5 -36l-80 -3q12 -40 45 -132l53 -149l77 116q89 138 106 166l-69 2l6 36h199l-5 -36l-54 -3 q-40 -49 -122 -169l-108 -159q-7 -16 -23 -116.5t-23 -171.5l81 -3l-6 -34h-322z" />
<glyph unicode="&#x38f;" horiz-adv-x="950" d="M36 438l-21 29q35 44 63.5 105t41.5 120h109q22 0 22 -17q0 -18 -23 -56t-52 -70q-55 -60 -140 -111zM150 0l12 79q56 -15 174 -15h60l8 48q-79 33 -110 63q-69 69 -69 181q0 154 102 251q100 97 270 97q150 0 233.5 -72.5t83.5 -203.5q0 -144 -87 -226 q-33 -32 -66.5 -48.5t-116.5 -41.5l-7 -48h60q118 0 178 15l-12 -79h-308l23 143q79 29 123 101q58 95 58 228q0 91 -41 142t-114 51q-102 0 -165 -101q-59 -100 -59 -233q0 -147 100 -188l-23 -143h-307z" />
<glyph unicode="&#x390;" horiz-adv-x="332" d="M204 0h-155q14 63 43 243l6 40q21 137 25 190l-59 3l5 35l217 6q-16 -81 -41 -225l-5 -36q-25 -159 -36 -256zM84 733q28 0 46 -17.5t18 -46.5q0 -28 -18 -46.5t-46 -18.5q-29 0 -47 18t-18 47q0 28 18.5 46t46.5 18zM170 580l-17 23q38 66 47 149h88q21 0 21 -14 t-17 -43t-38 -51q-34 -34 -84 -64zM382 733q28 0 46 -17.5t18 -46.5q0 -28 -18 -46.5t-46 -18.5q-29 0 -47 18t-18 47q0 28 18.5 46t46.5 18z" />
<glyph unicode="&#x391;" horiz-adv-x="678" d="M-43 0l6 36l55 4q36 55 96 178l137 278q63 127 94 196h109q8 -53 13 -78q16 -88 22 -114l49 -250q31 -146 47 -211l57 -3l-6 -36h-294l5 36l71 3q-5 40 -23 144l-8 43h-208l-19 -40q-54 -118 -65 -148l73 -2l-5 -36h-206zM379 269l-50 269l-130 -269h180z" />
<glyph unicode="&#x392;" horiz-adv-x="662" d="M-8 0l6 35l77 3q12 51 39 220l31 190q23 158 27 206l-75 3l5 35h289q131 0 180 -32q59 -40 59 -125q0 -47 -18.5 -85t-50.5 -58q-43 -27 -133 -39q85 -9 123 -38q53 -41 53 -116q0 -51 -23 -94t-64 -69q-59 -36 -181 -36h-344zM281 373h32q52 0 77.5 8t44.5 30 q17 21 29 59t12 74q0 70 -38 93q-22 13 -78 13h-31q-17 -89 -31 -175zM234 42h30q56 0 87.5 10.5t53.5 36.5q42 50 42 132q0 59 -29 84.5t-98 25.5h-45l-18 -114q-17 -116 -23 -175z" />
<glyph unicode="&#x393;" horiz-adv-x="599" d="M-8 0l6 36l77 3q13 54 33 180l40 254q22 143 24 181l-76 3l6 35h546l-28 -180h-112l16 138h-192q-13 -60 -32 -176l-41 -255q-21 -140 -24 -180l91 -3l-6 -36h-328z" />
<glyph unicode="&#x394;" horiz-adv-x="668" d="M608 0h-628l6 40q37 56 104 177l155 279q74 133 105 196h141q8 -62 32 -189l55 -289q29 -148 36 -175zM83 70h359q-3 15 -8.5 46.5t-12.5 66.5l-74 386l-205 -384q-39 -74 -59 -115z" />
<glyph unicode="&#x395;" horiz-adv-x="615" d="M-8 0l6 35l77 3q18 87 37 204l30 192q24 156 30 220l-76 3l6 35h527l-29 -180h-112l16 138h-173q-11 -47 -33 -186l-14 -89h205l-8 -49h-205l-12 -75q-14 -100 -22 -150q-1 -7 -3.5 -28t-3.5 -31h193l29 139h112l-29 -181h-548z" />
<glyph unicode="&#x396;" horiz-adv-x="644" d="M5 0l9 55q39 48 62 78q6 7 33.5 42.5t45.5 58.5l181 234q29 38 40 54q25 34 49 64q30 40 45 64h-229l-28 -138h-112l29 180h522l-9 -55q-72 -92 -107 -137q-3 -4 -21.5 -27.5t-27.5 -36.5l-143 -185l-42 -57l-48 -65q-16 -20 -46 -60l-19 -27h249l29 147h113l-30 -189 h-545z" />
<glyph unicode="&#x397;" horiz-adv-x="784" d="M-8 0l6 36l77 3q15 66 37 204l30 189q24 158 30 221l-76 3l6 36h307l-5 -36l-73 -3q-17 -86 -33 -188l-14 -90h255l9 57q23 140 30 221l-70 3l5 36h308l-5 -36l-79 -3q-7 -32 -33 -187l-34 -216q-26 -177 -29 -211l76 -3l-5 -36h-308l5 36l72 3q14 62 37 204l14 88h-255 l-13 -81q-25 -163 -29 -211l70 -3l-5 -36h-308z" />
<glyph unicode="&#x398;" horiz-adv-x="775" d="M275 311l14 83h26q36 -14 95 -14q54 0 95 14h26l-13 -83h-26q-39 14 -98 14q-53 0 -92 -14h-27zM441 704q144 0 218 -80q77 -82 77 -221q0 -84 -28.5 -163.5t-78.5 -137.5q-101 -114 -265 -114q-141 0 -218 79.5t-77 225.5q0 78 27 154.5t74 135.5q100 121 271 121z M448 665q-98 0 -158 -119q-29 -59 -47.5 -143t-18.5 -159q0 -106 33.5 -161.5t97.5 -55.5q108 0 165 125q61 128 61 297q0 110 -32.5 163t-100.5 53z" />
<glyph unicode="&#x399;" horiz-adv-x="388" d="M-3 0l6 36l77 3q16 76 37 204l30 189q24 156 30 221l-76 3l6 36h313l-6 -36l-78 -3q-11 -53 -33 -187l-34 -216q-25 -170 -29 -211l76 -3l-6 -36h-313z" />
<glyph unicode="&#x39a;" horiz-adv-x="674" d="M277 330l-13 -80q-26 -174 -29 -211l59 -3l-5 -36h-297l6 36l77 3q19 87 37 204l30 189q24 156 30 221l-76 3l6 36h306l-6 -36l-71 -3q-17 -87 -33 -187l-13 -86l194 185q27 23 48 46q22 21 42 41l-69 4l5 36h221l-5 -36l-61 -4q-7 -7 -39 -33q-34 -29 -84 -75l-135 -124 l150 -290q44 -83 52 -91l54 -3l-6 -36h-286l6 36l54 2z" />
<glyph unicode="&#x39b;" horiz-adv-x="671" d="M-49 0l6 35l52 5q26 45 96 177l143 279q77 150 98 196h117q7 -58 31 -189l54 -290q28 -143 36 -174l56 -3l-6 -36h-294l5 36l71 3q-6 55 -22 143l-60 365l-177 -362q-32 -70 -48 -104q-1 -2 -8 -18.5t-11 -25.5l72 -1l-6 -36h-205z" />
<glyph unicode="&#x39c;" horiz-adv-x="920" d="M-10 0l6 35l73 3q18 93 36 193l48 285q17 96 19 137l-77 3l5 36h257q4 -33 10 -62l22 -105l64 -308l164 311q72 136 84 164h256l-5 -36l-78 -3q-11 -51 -34 -187l-34 -218q-24 -156 -29 -210l76 -3l-5 -35h-312l6 35l77 3q18 85 37 204l30 190q9 53 16.5 99t10.5 62 l-295 -557h-77l-120 551l-57 -356q-21 -145 -24 -193l74 -3l-5 -35h-219z" />
<glyph unicode="&#x39d;" horiz-adv-x="740" d="M-10 0l6 36l77 3q13 63 33 181l43 268q23 163 23 165l-77 3l5 36h243q31 -82 67 -165l148 -351l43 280q19 127 24 197l-71 3l5 36h219l-5 -36l-77 -3q-11 -48 -37 -200l-72 -453h-124q-8 28 -58 151l-183 435l-52 -337q-26 -177 -27 -210l72 -3l-6 -36h-219z" />
<glyph unicode="&#x39e;" horiz-adv-x="615" d="M-4 0l29 181h112l-13 -111h308l22 111h113l-29 -181h-542zM167 310l13 84h26q46 -10 122 -10t125 10h26l-14 -84h-25q-52 11 -127 11q-76 0 -120 -11h-26zM92 512l28 180h513l-28 -180h-113l13 110h-279l-22 -110h-112z" />
<glyph unicode="&#x39f;" horiz-adv-x="762" d="M433 704q137 0 213 -79t76 -221q0 -85 -28 -164.5t-78 -137.5q-98 -114 -259 -114q-138 0 -213.5 79t-75.5 224q0 79 26.5 156.5t73.5 135.5q97 121 265 121zM441 665q-95 0 -152 -119q-29 -60 -47.5 -145t-18.5 -161q0 -103 32 -158t92 -55q103 0 160 125q60 130 60 300 q0 109 -30.5 161t-95.5 52z" />
<glyph unicode="&#x3a0;" horiz-adv-x="760" d="M-8 0l6 36l77 3q13 54 33 180l40 255q22 147 24 180l-76 3l6 35h695l-5 -35l-78 -3q-13 -57 -33 -180l-40 -255q-18 -121 -24 -180l76 -3l-5 -36h-308l6 36l70 3q12 50 34 180l39 249q21 132 24 180h-221q-13 -51 -33 -180l-40 -249q-19 -133 -23 -180l69 -3l-6 -36h-307 z" />
<glyph unicode="&#x3a1;" horiz-adv-x="640" d="M-8 0l6 36l77 3q16 77 37 204l30 189q25 161 30 222l-76 3l6 35h271q78 0 120.5 -7.5t73.5 -27.5q68 -43 68 -135q0 -123 -88 -181q-64 -42 -188 -42h-87l-8 -49q-25 -168 -29 -211l83 -3l-6 -36h-320zM278 342h27q52 0 79 9.5t48 35.5t34.5 69.5t13.5 86.5q0 72 -43 95 q-20 12 -74 12h-33q-13 -63 -33 -187z" />
<glyph unicode="&#x3a3;" horiz-adv-x="603" d="M-24 0l7 42l287 270l-176 351l4 29h525l-28 -180h-112l16 138h-229l141 -281l-320 -299h332l22 111h113l-29 -181h-553z" />
<glyph unicode="&#x3a4;" horiz-adv-x="640" d="M104 0l5 36l97 3q15 71 37 205l29 185q22 138 30 221h-105l-28 -138h-112l29 180h607l-29 -180h-112l16 138h-107q-12 -54 -33 -188l-33 -212q-23 -157 -30 -211l96 -3l-6 -36h-351z" />
<glyph unicode="&#x3a5;" horiz-adv-x="596" d="M92 0l6 34l81 3q38 161 47 283l-90 233q-30 74 -43 100l-52 3l6 36h296l-6 -36l-79 -3q10 -38 44 -132l53 -149l77 116q90 137 106 166l-68 2l5 36h200l-6 -36l-54 -3q-46 -57 -121 -169l-109 -159q-7 -18 -23 -119t-22 -169l80 -3l-5 -34h-323z" />
<glyph unicode="&#x3a6;" horiz-adv-x="952" d="M272 -72l6 36l76 3q9 36 19 96q-91 10 -154 39q-149 71 -149 230q0 137 103.5 217t290.5 86q8 57 11 90l-76 3l5 36h306l-6 -36l-76 -3q-9 -36 -19 -96q147 -16 225 -85.5t78 -184.5q0 -90 -45.5 -156.5t-131.5 -102.5q-92 -38 -217 -43q-9 -67 -10 -90l75 -3l-5 -36 h-306zM381 106l77 485q-112 -14 -172.5 -87.5t-60.5 -195.5q0 -170 156 -202zM601 586l-77 -486q111 13 172 87.5t61 196.5q0 170 -156 202z" />
<glyph unicode="&#x3a7;" horiz-adv-x="661" d="M-40 0l6 36l44 3q15 13 100 105l165 185l-56 130q-65 153 -85 194l-58 3l5 36h291l-5 -36l-64 -3q10 -43 61 -160l26 -59l94 109q72 87 88 111l-58 2l5 36h198l-5 -36l-57 -3q-41 -41 -119 -128l-124 -140l69 -158q68 -157 84 -188l58 -3l-5 -36h-295l5 36l63 3 q-13 50 -60 161l-34 79l-124 -149q-42 -51 -73 -91l61 -3l-6 -36h-195z" />
<glyph unicode="&#x3a8;" horiz-adv-x="992" d="M303 0l6 36l76 3q14 51 29 151q-154 -1 -222 47t-68 156q0 32 11 103q19 134 20 157l-60 3l6 36l207 5q-3 -51 -19 -150l-14 -88q-9 -60 -9 -89q0 -69 37.5 -102t117.5 -34l38 239q18 117 24 180l-76 3l6 36h306l-6 -36l-77 -3q-13 -55 -33 -180l-38 -239 q111 2 154.5 45.5t60.5 166.5l16 101q16 104 29 150l206 -5l-6 -36l-61 -3q-14 -70 -37 -218q-13 -100 -49 -151t-109.5 -73t-210.5 -21q-13 -85 -19 -151l76 -3l-6 -36h-306z" />
<glyph unicode="&#x3a9;" horiz-adv-x="806" d="M6 0l13 79q55 -15 173 -15h60l8 48q-49 21 -70 33t-39 30q-70 69 -70 181q0 154 102 251q100 97 271 97q150 0 233.5 -72.5t83.5 -203.5q0 -144 -87 -226q-34 -32 -67.5 -48.5t-115.5 -41.5l-8 -48h61q117 0 178 15l-13 -79h-308l23 143q80 29 124 101q58 97 58 229 q0 90 -41.5 141t-114.5 51q-103 0 -164 -101q-60 -99 -60 -233q0 -147 101 -188l-23 -143h-308z" />
<glyph unicode="&#x3aa;" horiz-adv-x="388" d="M-3 0l6 36l77 3q16 76 37 204l30 189q24 156 30 221l-76 3l6 36h313l-6 -36l-78 -3q-11 -53 -33 -187l-34 -216q-25 -170 -29 -211l76 -3l-6 -36h-313zM176 909q34 0 55.5 -21.5t21.5 -55.5t-21.5 -56t-55.5 -22q-35 0 -56.5 22t-21.5 57q0 32 22 54t56 22zM396 909 q34 0 55.5 -21.5t21.5 -55.5t-21.5 -56t-55.5 -22q-35 0 -56.5 22t-21.5 57q0 32 22 54t56 22z" />
<glyph unicode="&#x3ab;" horiz-adv-x="596" d="M92 0l6 34l81 3q38 161 47 283l-90 233q-30 74 -43 100l-52 3l6 36h296l-6 -36l-79 -3q10 -38 44 -132l53 -149l77 116q90 137 106 166l-68 2l5 36h200l-6 -36l-54 -3q-46 -57 -121 -169l-109 -159q-7 -18 -23 -119t-22 -169l80 -3l-5 -34h-323zM294 909q34 0 55.5 -21.5 t21.5 -55.5t-21.5 -56t-55.5 -22q-35 0 -56.5 22t-21.5 57q0 32 22 54t56 22zM513 909q34 0 55.5 -21.5t21.5 -55.5t-21.5 -56t-55.5 -22q-35 0 -56.5 22t-21.5 57q0 32 22 54t56 22z" />
<glyph unicode="&#x3ac;" horiz-adv-x="667" d="M594 77l-47 -89q-46 7 -73 30.5t-41 69.5q-75 -100 -172 -100t-155.5 62t-58.5 166q0 62 20 122t54 101q71 84 194 84q87 0 129.5 -34.5t53.5 -115.5q40 109 52 151l113 -27q-64 -163 -164 -322q14 -41 36 -63.5t59 -34.5zM418 227q0 142 -17 200t-60 58q-64 0 -102 -109 q-39 -107 -39 -227q0 -58 16.5 -90t46.5 -32q75 0 155 200zM317 569l-14 28q66 63 94 144h123q17 0 17 -10q0 -20 -52 -65q-60 -51 -168 -97z" />
<glyph unicode="&#x3ad;" horiz-adv-x="531" d="M351 280l-5 -36h-41q-60 0 -88 -28q-34 -32 -34 -91q0 -43 29 -66t83 -23q41 0 73.5 14.5t69.5 50.5l35 -51q-81 -62 -209 -62q-113 0 -173.5 36.5t-60.5 105.5q0 90 115 131q-37 19 -53 45t-16 65q0 153 231 153q119 0 215 -36l-23 -130h-112l10 115q-26 12 -69 12 q-46 0 -70 -25q-35 -40 -35 -107q0 -41 19.5 -57t70.5 -16h38zM275 569l-14 28q66 63 94 144h123q17 0 17 -10q0 -20 -52 -65q-60 -51 -168 -97z" />
<glyph unicode="&#x3ae;" horiz-adv-x="647" d="M204 0h-156q32 176 50 284l5 33q16 110 20 156l-60 3l6 35l207 6l-11 -79q50 46 92 65.5t91 19.5q62 0 95 -30.5t33 -87.5q0 -19 -7 -73q-1 -12 -6 -57l-77 -490h-152q51 283 70 403l15 94q12 82 12 109q0 59 -49 59q-26 0 -60.5 -21.5t-62.5 -54.5l-11 -68 q-34 -222 -44 -306zM330 569l-14 28q66 63 94 144h123q17 0 17 -10q0 -20 -52 -65q-60 -51 -168 -97z" />
<glyph unicode="&#x3af;" horiz-adv-x="332" d="M204 0h-156q14 63 43 243l6 40q18 115 26 190l-60 3l6 35l216 6q-30 -162 -40 -225l-6 -36q-27 -172 -35 -256zM156 569l-14 28q66 63 94 144h123q17 0 17 -10q0 -20 -52 -65q-60 -51 -168 -97z" />
<glyph unicode="&#x3b0;" horiz-adv-x="584" d="M114 473l-60 3l6 35l216 6q-65 -356 -65 -411q0 -74 62 -74q88 0 122 137q24 96 24 180q0 71 -13 117l-57 2l4 36l187 14q9 -57 9 -118q0 -150 -55 -262q-73 -150 -252 -150q-172 0 -172 141q0 39 16 140q21 135 28 204zM209 733q29 0 46.5 -17.5t17.5 -46.5 q0 -28 -18 -46.5t-46 -18.5q-29 0 -47 18t-18 47q0 28 18.5 46t46.5 18zM295 580l-17 23q38 66 47 149h88q21 0 21 -14t-17 -43t-38 -51q-34 -34 -84 -64zM507 733q29 0 46.5 -17.5t17.5 -46.5q0 -28 -18 -46.5t-46 -18.5q-29 0 -47 18t-18 47q0 28 18.5 46t46.5 18z" />
<glyph unicode="&#x3b1;" horiz-adv-x="667" d="M594 77l-47 -89q-46 7 -73 30.5t-41 69.5q-75 -100 -172 -100t-155.5 62t-58.5 166q0 62 20 122t54 101q71 84 194 84q87 0 129.5 -34.5t53.5 -115.5q40 109 52 151l113 -27q-64 -163 -164 -322q14 -41 36 -63.5t59 -34.5zM418 227q0 142 -17 200t-60 58q-64 0 -102 -109 q-39 -107 -39 -227q0 -58 16.5 -90t46.5 -32q75 0 155 200z" />
<glyph unicode="&#x3b2;" horiz-adv-x="647" d="M207 31l-10 -65q-21 -140 -24 -181h-156q13 52 34 181l84 535q13 80 24.5 114.5t35.5 60.5q59 68 181 68q110 0 171 -46t61 -128q0 -88 -71 -136q-34 -24 -109 -40q87 -13 125 -53t38 -117q0 -116 -72 -182q-59 -53 -164 -53q-51 0 -83 9t-65 33zM280 492l-67 -418 q8 -6 11 -9q46 -35 91 -35q63 0 97 78q26 62 26 139q0 123 -95 123h-13l6 36h8q49 0 77 47q38 64 38 160q0 95 -68 95q-30 0 -50.5 -22t-35.5 -70q-12 -37 -25 -124z" />
<glyph unicode="&#x3b3;" horiz-adv-x="543" d="M72 466l-51 2l4 36l182 15q78 -255 73 -420q35 54 78.5 165.5t64.5 201.5l-68 2l4 36l208 15q-23 -150 -261 -468l-42 -266h-151q10 42 29 153l2 15q9 55 9 114q0 106 -34 239q-23 96 -47 160z" />
<glyph unicode="&#x3b4;" horiz-adv-x="619" d="M595 697l-52 -89q-52 46 -92 65t-82 19q-38 0 -60.5 -21t-22.5 -56q0 -30 20 -48q17 -16 83 -52q85 -48 119 -81q62 -59 62 -158q0 -124 -69 -204q-71 -84 -207 -84q-121 0 -185.5 56.5t-64.5 162.5q0 116 74 178q42 36 122 59q-44 29 -62 59t-18 74q0 79 52 123.5 t143 44.5q119 0 240 -48zM284 424q-41 -32 -64.5 -102.5t-23.5 -162.5q0 -133 85 -133q66 0 102 91q34 89 34 162q0 65 -54 104q-29 20 -79 41z" />
<glyph unicode="&#x3b5;" horiz-adv-x="531" d="M351 280l-5 -36h-41q-60 0 -88 -28q-34 -32 -34 -91q0 -43 29 -66t83 -23q41 0 73.5 14.5t69.5 50.5l35 -51q-81 -62 -209 -62q-113 0 -173.5 36.5t-60.5 105.5q0 90 115 131q-37 19 -53 45t-16 65q0 153 231 153q119 0 215 -36l-23 -130h-112l10 115q-26 12 -69 12 q-46 0 -70 -25q-35 -40 -35 -107q0 -41 19.5 -57t70.5 -16h38z" />
<glyph unicode="&#x3b6;" horiz-adv-x="456" d="M25 -204l33 98q79 -50 159 -50q122 0 122 84q0 29 -22 41q-11 6 -78 25q-117 33 -156 71t-39 119q0 80 38 150.5t120 145.5q89 83 214 151q-59 -4 -109 -4q-66 0 -147 9l22 95q86 -14 158 -14t176 14l-22 -92q-135 -88 -216 -208.5t-81 -232.5q0 -44 24 -67 q12 -10 22.5 -15.5t60.5 -24.5q59 -22 82 -48t23 -72q0 -42 -19 -81.5t-51 -65.5q-60 -48 -167 -48q-82 0 -147 20z" />
<glyph unicode="&#x3b7;" horiz-adv-x="647" d="M204 0h-156q32 176 50 284l5 33q16 110 20 156l-60 3l6 35l207 6l-11 -79q50 46 92 65.5t91 19.5q62 0 95 -30.5t33 -87.5q0 -19 -7 -73q-1 -12 -6 -57l-77 -490h-152q51 283 70 403l15 94q12 82 12 109q0 59 -49 59q-26 0 -60.5 -21.5t-62.5 -54.5l-11 -68 q-34 -222 -44 -306z" />
<glyph unicode="&#x3b8;" horiz-adv-x="605" d="M360 744q123 0 179 -88q48 -79 48 -203q0 -94 -25.5 -186.5t-68.5 -157.5q-43 -64 -93.5 -92.5t-119.5 -28.5q-122 0 -179 88q-48 79 -48 206q0 91 25.5 183.5t69.5 158.5q41 62 92 91t120 29zM221 410h211q12 97 12 143q0 80 -18 116.5t-57 36.5q-50 0 -84.5 -69 t-63.5 -227zM426 363h-213q-17 -124 -17 -184q0 -80 18 -116.5t57 -36.5q54 0 89.5 77.5t65.5 259.5z" />
<glyph unicode="&#x3b9;" horiz-adv-x="332" d="M204 0h-156q14 63 43 243l6 40q18 115 26 190l-60 3l6 35l216 6q-30 -162 -40 -225l-6 -36q-27 -172 -35 -256z" />
<glyph unicode="&#x3ba;" horiz-adv-x="618" d="M63 476l6 36l216 5l-4 -25l-9 -42q-2 -14 -8 -46t-10.5 -56.5t-4.5 -28.5l-4 -29l240 183l-55 3l5 36h191l-6 -36l-44 -3q-73 -47 -146 -99l-43 -33l91 -195q41 -89 54 -106l54 -4l-6 -36h-197q-4 20 -36 93l-75 165l-37 -28l-2 -18q-22 -140 -29 -212h-156q14 63 43 243 l6 40q18 115 26 190z" />
<glyph unicode="&#x3bb;" horiz-adv-x="569" d="M-22 0l2 14q49 105 279 486q-21 132 -64 193l-56 2l6 36l187 6q40 -79 78 -295l42 -240q20 -119 57 -162l44 -4l-6 -36h-173q-39 48 -70 228l-34 207q-103 -228 -147 -396l47 -3l-5 -36h-187z" />
<glyph unicode="&#x3bc;" horiz-adv-x="646" d="M59 476l6 35l216 6q-37 -205 -45 -258.5t-8 -97.5q0 -107 65 -107q49 0 96 85l53 334l-65 3l6 35l216 6q-59 -323 -75 -478l60 -3l-6 -36l-207 -5l9 71q-26 -45 -46.5 -61.5t-52.5 -16.5q-52 0 -80 49l-40 -252h-155q37 189 71 395t42 293z" />
<glyph unicode="&#x3bd;" horiz-adv-x="585" d="M7 468l4 36l192 14q27 -102 46 -209l41 -228q54 72 90.5 180.5t38.5 204.5l-64 2l4 36l196 14q2 -126 -60.5 -240t-225.5 -278h-113q-2 33 -21 135l-23 128q-25 144 -47 203z" />
<glyph unicode="&#x3be;" horiz-adv-x="485" d="M37 -202l32 98q79 -52 164 -52q106 0 106 78q0 37 -39 50q-23 8 -112 28q-58 12 -103 47q-51 39 -51 113q0 49 23.5 88.5t64.5 61.5q44 23 135 36q-73 21 -106.5 55.5t-33.5 88.5q0 80 80 120q41 21 132 36q-53 -3 -78 -3q-58 0 -97 4l20 84q84 -12 176 -12q75 0 176 12 l-22 -93h-46q-104 0 -160.5 -38t-56.5 -109q0 -97 158 -97q7 0 45 2l-11 -67q-31 6 -62 6q-89 0 -136.5 -38.5t-47.5 -109.5q0 -38 19 -58.5t70 -37.5q64 -21 94 -40q40 -28 40 -81q0 -38 -15.5 -77t-40.5 -64q-51 -54 -153 -54q-90 0 -164 23z" />
<glyph unicode="&#x3bf;" horiz-adv-x="629" d="M345 523q113 0 173.5 -58.5t60.5 -167.5q0 -133 -82 -224q-78 -85 -213 -85q-126 0 -181 65q-54 62 -54 164q0 62 22 120.5t62 101.5q77 84 212 84zM345 485q-79 0 -121 -150q-22 -81 -22 -172q0 -137 82 -137q34 0 62.5 29.5t46.5 82.5q33 99 33 204q0 143 -81 143z" />
<glyph unicode="&#x3c0;" horiz-adv-x="714" d="M165 428h-70l-77 -64l-22 22l77 126h486q100 0 206 10l-58 -94h-105l-45 -285q-5 -31 -5 -53q0 -46 41 -46q29 0 69 25l19 -31q-62 -48 -142 -48q-65 0 -95.5 26t-30.5 81q0 37 14 130l32 201h-153l-39 -248q-20 -137 -24 -180h-151q13 56 34 180z" />
<glyph unicode="&#x3c1;" horiz-adv-x="612" d="M143 -215h-150q8 111 31 276t41 242q26 115 90 167.5t177 52.5q115 0 174.5 -58.5t59.5 -172.5q0 -68 -21 -132t-57 -105q-58 -67 -158 -67q-106 0 -155 66q-26 -179 -32 -269zM208 256l-20 -122q10 -36 38 -60.5t60 -24.5q33 0 56.5 26t42.5 83q30 88 30 190 q0 137 -75 137q-50 0 -81.5 -55t-50.5 -174z" />
<glyph unicode="&#x3c2;" horiz-adv-x="502" d="M46 -204l33 98q78 -49 158 -49q109 0 109 73q0 27 -17.5 41.5t-77.5 37.5q-105 40 -140 66q-65 47 -65 143q0 131 64 222q68 95 206 95q96 0 185 -34l-25 -145h-113l13 130q-17 8 -38 8q-70 0 -112 -108q-30 -77 -30 -154q0 -53 32 -77q18 -12 85 -39q61 -25 85.5 -54 t24.5 -79q0 -85 -63 -141q-62 -55 -163 -55q-83 0 -151 21z" />
<glyph unicode="&#x3c3;" horiz-adv-x="610" d="M596 454l-100 9q66 -68 66 -179q0 -123 -74 -210q-70 -86 -202 -86q-124 0 -181 63q-58 64 -58 169q0 61 20.5 120t55.5 100q72 84 189 84q17 0 67 -4q85 -8 136 -8h90zM336 485q-63 0 -104 -111q-36 -104 -36 -219q0 -60 20.5 -94.5t55.5 -34.5q65 0 105 111 q36 103 36 209q0 139 -77 139z" />
<glyph unicode="&#x3c4;" horiz-adv-x="484" d="M187 428h-92l-77 -64l-22 22l77 126h257q101 0 205 10l-58 -94h-147l-45 -285q-4 -34 -4 -53q0 -46 40 -46q29 0 69 25l18 -32q-62 -47 -141 -47q-65 0 -95 26t-30 81q0 50 14 130z" />
<glyph unicode="&#x3c5;" horiz-adv-x="584" d="M114 473l-60 3l6 35l216 6q-65 -356 -65 -411q0 -74 62 -74q88 0 122 137q24 96 24 180q0 71 -13 117l-57 2l4 36l187 14q9 -57 9 -118q0 -150 -55 -262q-73 -150 -252 -150q-172 0 -172 141q0 39 16 140q21 135 28 204z" />
<glyph unicode="&#x3c6;" horiz-adv-x="840" d="M311 -34l4 24q-129 10 -197.5 71t-68.5 166q0 119 79.5 195.5t221.5 93.5l3 -43q-71 -29 -106 -83q-51 -77 -51 -185q0 -141 125 -171l39 241q14 87 22.5 119.5t25.5 57.5q46 68 163 68q225 0 225 -209q0 -188 -153 -270q-77 -42 -201 -51l-4 -28q-20 -133 -24 -177h-137 q12 48 34 181zM489 289l-40 -255q63 9 102 38.5t63 86.5q35 88 35 201q0 118 -66 118q-50 0 -70 -65q-9 -31 -24 -124z" />
<glyph unicode="&#x3c7;" horiz-adv-x="530" d="M195 136l-30 101q-65 216 -82 236l-47 3l6 35l171 6q35 -69 75 -203l20 -67q67 122 96 226l-54 3l6 35l210 6l-4 -23q-56 -87 -239 -298l63 -207q41 -141 87 -164l35 -4l-6 -36h-162q-28 15 -48 53.5t-46 127.5l-36 120q-93 -169 -119 -262l51 -3l-6 -36h-216l4 23 q66 89 271 328z" />
<glyph unicode="&#x3c8;" horiz-adv-x="835" d="M322 -6h-5q-133 0 -188.5 37.5t-55.5 127.5q0 44 17 153q17 113 21 161l-59 3l6 36l206 5q-22 -110 -41.5 -234t-19.5 -154q0 -50 27 -71t90 -21h9l39 247q5 40 31 228h145q-27 -140 -43 -238l-37 -237h28q55 0 82 14.5t49 54.5q19 36 32.5 104.5t13.5 133.5 q0 78 -11 122l-54 2l4 36l184 15q8 -64 8 -121q0 -162 -64 -278q-38 -65 -96.5 -95.5t-147.5 -30.5h-35l-5 -32q-19 -132 -23 -177h-145q13 51 33 177z" />
<glyph unicode="&#x3c9;" horiz-adv-x="825" d="M126 473l-56 3l5 35l208 7q-42 -108 -59 -170q-37 -134 -37 -233q0 -87 63 -87q55 0 81 65q13 31 25 104l29 187h119l-30 -185q-9 -56 -9 -93q0 -78 62 -78q37 0 61 28t42 90q28 105 28 205q0 74 -11 122l-54 2l4 36l183 7q9 -63 9 -121q0 -169 -63 -286 q-65 -122 -192 -122q-55 0 -86 21t-51 71q-35 -54 -68 -73.5t-90 -19.5q-92 0 -141 44.5t-49 126.5q0 128 77 314z" />
<glyph unicode="&#x3ca;" horiz-adv-x="332" d="M203 0h-155q12 56 43 243l6 40q19 119 26 190l-60 3l5 35l217 6q-20 -104 -40 -225l-6 -36q-23 -147 -36 -256zM113 746q34 0 55.5 -21.5t21.5 -55.5t-21.5 -56t-55.5 -22q-35 0 -56.5 21.5t-21.5 56.5q0 33 22 55t56 22zM332 746q34 0 55.5 -21.5t21.5 -55.5t-21.5 -56 t-55.5 -22t-56 21.5t-22 56.5q0 33 22 55t56 22z" />
<glyph unicode="&#x3cb;" horiz-adv-x="584" d="M114 473l-60 3l6 35l216 6q-65 -356 -65 -411q0 -74 62 -74q88 0 122 137q24 96 24 180q0 71 -13 117l-57 2l4 36l187 14q9 -57 9 -118q0 -150 -55 -262q-73 -150 -252 -150q-172 0 -172 141q0 39 16 140q21 135 28 204zM240 746q34 0 55.5 -21.5t21.5 -55.5t-21.5 -56 t-55.5 -22t-56 21.5t-22 56.5q0 33 22 55t56 22zM459 746q34 0 55.5 -21.5t21.5 -55.5t-21.5 -56t-55.5 -22q-35 0 -56.5 21.5t-21.5 56.5q0 33 22 55t56 22z" />
<glyph unicode="&#x3cc;" horiz-adv-x="629" d="M345 523q113 0 173.5 -58.5t60.5 -167.5q0 -133 -82 -224q-78 -85 -213 -85q-126 0 -181 65q-54 62 -54 164q0 62 22 120.5t62 101.5q77 84 212 84zM345 485q-79 0 -121 -150q-22 -81 -22 -172q0 -137 82 -137q34 0 62.5 29.5t46.5 82.5q33 99 33 204q0 143 -81 143z M305 569l-14 28q66 63 94 144h123q17 0 17 -10q0 -20 -52 -65q-60 -51 -168 -97z" />
<glyph unicode="&#x3cd;" horiz-adv-x="584" d="M114 473l-60 3l6 35l216 6q-65 -356 -65 -411q0 -74 62 -74q88 0 122 137q24 96 24 180q0 71 -13 117l-57 2l4 36l187 14q9 -57 9 -118q0 -150 -55 -262q-73 -150 -252 -150q-172 0 -172 141q0 39 16 140q21 135 28 204zM296 569l-14 28q66 63 94 144h123q17 0 17 -10 q0 -20 -52 -65q-60 -51 -168 -97z" />
<glyph unicode="&#x3ce;" horiz-adv-x="825" d="M126 473l-56 3l5 35l208 7q-42 -108 -59 -170q-37 -134 -37 -233q0 -87 63 -87q55 0 81 65q13 31 25 104l29 187h119l-30 -185q-9 -56 -9 -93q0 -78 62 -78q37 0 61 28t42 90q28 105 28 205q0 74 -11 122l-54 2l4 36l183 7q9 -63 9 -121q0 -169 -63 -286 q-65 -122 -192 -122q-55 0 -86 21t-51 71q-35 -54 -68 -73.5t-90 -19.5q-92 0 -141 44.5t-49 126.5q0 128 77 314zM400 569l-14 28q66 63 94 144h123q17 0 17 -10q0 -20 -52 -65q-60 -51 -168 -97z" />
<glyph unicode="&#x401;" horiz-adv-x="615" d="M-8 0l6 35l77 3q18 87 37 204l30 192q24 156 30 220l-76 3l6 35h527l-29 -180h-112l16 138h-173q-11 -47 -33 -186l-14 -89h205l-8 -49h-205l-12 -75q-14 -100 -22 -150q-1 -7 -3.5 -28t-3.5 -31h193l29 139h112l-29 -181h-548zM291 909q34 0 55.5 -21.5t21.5 -55.5 t-21.5 -56t-55.5 -22q-35 0 -56.5 22t-21.5 57q0 32 22 54t56 22zM510 909q34 0 55.5 -21.5t21.5 -55.5t-21.5 -56t-55.5 -22q-35 0 -56.5 22t-21.5 57q0 32 22 54t56 22z" />
<glyph unicode="&#x402;" horiz-adv-x="863" d="M101 0l5 36l96 3q13 54 33 181l40 252q20 131 24 178h-105l-28 -138h-112l29 180h625l-28 -180h-113l16 138h-124q-9 -38 -33 -178l-15 -98q99 37 188 37q179 0 179 -141q0 -76 -34 -255q-19 -91 -46.5 -135t-81.5 -67q-50 -22 -183 -28l7 40q63 10 90.5 37.5t46.5 100.5 q16 61 33 164t17 140q0 79 -80 79q-62 0 -145 -29l-16 -97q-20 -137 -24 -181l83 -3l-5 -36h-339z" />
<glyph unicode="&#x403;" horiz-adv-x="599" d="M-8 0l6 36l77 3q13 54 33 180l40 254q22 143 24 181l-76 3l6 35h546l-28 -180h-112l16 138h-192q-13 -60 -32 -176l-41 -255q-21 -140 -24 -180l91 -3l-6 -36h-328zM324 735l-17 28q39 27 78.5 67t60.5 75h128q16 0 16 -7q0 -8 -19.5 -27t-49.5 -40q-68 -48 -197 -96z " />
<glyph unicode="&#x404;" horiz-adv-x="667" d="M518 326h-285q-7 -55 -7 -100q0 -101 33.5 -147.5t107.5 -46.5q53 0 97.5 19t94.5 64l37 -58q-94 -69 -238 -69t-217.5 73.5t-73.5 216.5q0 89 30.5 177.5t80.5 145.5q89 102 242 102q132 0 250 -52l-26 -140h-113l14 116q-42 32 -110 32q-144 0 -194 -284h285z" />
<glyph unicode="&#x405;" horiz-adv-x="578" d="M33 33l20 157h112l-10 -129q41 -30 101 -30q61 0 99.5 33.5t38.5 86.5q0 37 -17 60.5t-60 44.5q-129 64 -167 99q-60 53 -60 138q0 97 72 156q65 55 183 55q115 0 206 -46l-18 -147h-114l10 126q-35 24 -86 24q-54 0 -92 -33.5t-38 -82.5q0 -40 31 -71q23 -22 98 -60 q94 -47 129 -82q48 -46 48 -126q0 -93 -65 -153q-69 -65 -201 -65q-124 0 -220 45z" />
<glyph unicode="&#x406;" horiz-adv-x="388" d="M-3 0l6 36l77 3q16 76 37 204l30 189q24 156 30 221l-76 3l6 36h313l-6 -36l-78 -3q-11 -53 -33 -187l-34 -216q-25 -170 -29 -211l76 -3l-6 -36h-313z" />
<glyph unicode="&#x407;" horiz-adv-x="388" d="M-3 0l6 36l77 3q16 76 37 204l30 189q24 156 30 221l-76 3l6 36h313l-6 -36l-78 -3q-11 -53 -33 -187l-34 -216q-25 -170 -29 -211l76 -3l-6 -36h-313zM176 909q34 0 55.5 -21.5t21.5 -55.5t-21.5 -56t-55.5 -22q-35 0 -56.5 22t-21.5 57q0 32 22 54t56 22zM395 909 q34 0 55.5 -21.5t21.5 -55.5t-21.5 -56t-55.5 -22q-35 0 -56.5 22t-21.5 57q0 32 22 54t56 22z" />
<glyph unicode="&#x408;" horiz-adv-x="382" d="M100 692h319l-5 -36l-79 -3q-6 -28 -33 -185l-45 -286q-12 -78 -20 -108t-24 -56q-34 -55 -102.5 -84.5t-161.5 -29.5q-31 0 -58 5l8 38q13 -2 25 -2q38 0 73 16.5t55 43.5q32 42 55 180l39 249q25 149 30 219l-81 3z" />
<glyph unicode="&#x409;" horiz-adv-x="948" d="M-43 0l3 18q43 16 91.5 83t83.5 159q27 66 51.5 179t33.5 214l-76 4l6 35h576l-5 -35l-77 -4q-12 -52 -33 -179l-10 -62h43q127 0 185 -27q82 -39 82 -158q0 -130 -91 -189q-60 -38 -182 -38h-335l6 35l77 3q9 36 33 180l40 252q19 126 23 178h-198l-18 -108 q-37 -236 -71.5 -345.5t-98.5 -198.5zM545 42h33q59 0 88 10.5t49 38.5q42 60 42 157q0 69 -26 95.5t-94 26.5h-45l-24 -153q-18 -127 -23 -175z" />
<glyph unicode="&#x40a;" horiz-adv-x="1046" d="M-8 0l6 35l77 3q17 76 37 205l30 191q24 153 30 219l-76 3l6 36h307l-5 -36l-73 -3q-7 -30 -33 -185l-14 -91h254l15 97q22 149 24 179l-76 3l5 36h314l-6 -36l-77 -3q-12 -49 -33 -179l-11 -71h47q127 0 185 -27q82 -39 82 -156q0 -126 -90 -183q-61 -37 -182 -37h-338 l5 35l77 3q10 45 34 181l18 114h-254l-13 -85q-25 -164 -29 -210l70 -3l-5 -35h-308zM638 42h38q58 0 87 10t49 38q41 57 41 151q0 68 -26 94t-95 26h-48l-22 -144q-20 -129 -24 -175z" />
<glyph unicode="&#x40b;" horiz-adv-x="876" d="M101 0l5 36l96 3q13 54 33 181l40 252q20 131 24 178h-105l-28 -138h-112l29 180h625l-28 -180h-113l16 138h-124q-9 -38 -33 -178l-15 -98q98 37 189 37q190 0 190 -136q0 -30 -14 -122q-12 -86 -12 -114l64 -3l-6 -36h-299l6 36l74 3q13 54 24 124t11 98q0 85 -90 85 q-66 0 -146 -29l-16 -97q-20 -137 -24 -181l83 -3l-5 -36h-339z" />
<glyph unicode="&#x40c;" horiz-adv-x="663" d="M-8 0l6 35l77 3q14 60 37 204l30 192q24 149 30 219l-76 3l6 36h307l-6 -36l-72 -3q-6 -30 -33 -186l-14 -93h50q36 0 55.5 7t42.5 28q25 23 43 48.5t45 77.5l63 116l-72 5l6 36h227l-6 -36l-65 -4q-11 -15 -82 -124l-39 -60q-27 -43 -47.5 -65t-48.5 -39 q50 -15 73.5 -51t39.5 -124l31 -150l52 -3l-5 -36h-191l-17 101q-14 80 -24 122t-27.5 68.5t-38.5 33.5t-59 7h-13l-13 -84q-22 -147 -29 -210l71 -3l-6 -35h-308zM413 735l-17 28q39 27 78.5 67t60.5 75h128q16 0 16 -7q0 -8 -19.5 -27t-49.5 -40q-68 -48 -197 -96z" />
<glyph unicode="&#x40e;" horiz-adv-x="643" d="M76 0l23 98q32 -6 56 -6q50 0 81 21q25 16 42 38l8 9l-132 390q-21 67 -38 103l-52 3l6 36h296l-5 -36l-79 -3q9 -40 38 -139l63 -200l103 174q74 129 91 166l-60 2l6 36h194l-5 -36l-55 -3q-32 -43 -110 -169l-219 -360q-46 -76 -82.5 -102.5t-94.5 -26.5q-28 0 -75 5z M296 914h43q1 -47 22.5 -62t85.5 -15q63 0 90 16t40 61h43q-12 -80 -33 -111q-39 -58 -146 -58q-80 0 -115 25t-35 82q0 28 5 62z" />
<glyph unicode="&#x40f;" horiz-adv-x="754" d="M-8 0l6 35l77 3q14 60 33 180l40 255q21 133 24 180l-76 3l6 36h304l-5 -36l-68 -3q-11 -46 -34 -180l-39 -249q-21 -137 -24 -180h216q14 62 33 180l40 249q20 137 23 180l-67 3l6 36h305l-6 -36l-77 -3q-13 -54 -33 -180l-41 -255q-21 -143 -23 -180l76 -3l-6 -35h-285 l-37 -181h-103l20 181h-285z" />
<glyph unicode="&#x410;" horiz-adv-x="678" d="M-43 0l6 36l55 4q36 55 96 178l137 278q63 127 94 196h109q8 -53 13 -78q16 -88 22 -114l49 -250q31 -146 47 -211l57 -3l-6 -36h-294l5 36l71 3q-5 40 -23 144l-8 43h-208l-19 -40q-54 -118 -65 -148l73 -2l-5 -36h-206zM379 269l-50 269l-130 -269h180z" />
<glyph unicode="&#x411;" horiz-adv-x="653" d="M-8 0l6 35l77 3q9 36 33 180l40 255q21 132 24 181l-76 3l6 35h526l-29 -180h-112l16 138h-171q-10 -37 -32 -176l-10 -62h43q126 0 184 -27q82 -38 82 -158q0 -130 -91 -189q-60 -38 -181 -38h-335zM234 42h33q59 0 88 10.5t49 38.5q42 60 42 157q0 69 -26 95.5 t-94 26.5h-45l-24 -153q-17 -114 -23 -175z" />
<glyph unicode="&#x412;" horiz-adv-x="662" d="M-8 0l6 35l77 3q12 51 39 220l31 190q23 158 27 206l-75 3l5 35h289q131 0 180 -32q59 -40 59 -125q0 -47 -18.5 -85t-50.5 -58q-43 -27 -133 -39q85 -9 123 -38q53 -41 53 -116q0 -51 -23 -94t-64 -69q-59 -36 -181 -36h-344zM281 373h32q52 0 77.5 8t44.5 30 q17 21 29 59t12 74q0 70 -38 93q-22 13 -78 13h-31q-17 -89 -31 -175zM234 42h30q56 0 87.5 10.5t53.5 36.5q42 50 42 132q0 59 -29 84.5t-98 25.5h-45l-18 -114q-17 -116 -23 -175z" />
<glyph unicode="&#x413;" horiz-adv-x="599" d="M-8 0l6 36l77 3q13 54 33 180l40 254q22 143 24 181l-76 3l6 35h546l-28 -180h-112l16 138h-192q-13 -60 -32 -176l-41 -255q-21 -140 -24 -180l91 -3l-6 -36h-328z" />
<glyph unicode="&#x414;" horiz-adv-x="695" d="M504 0h-425l-37 -181h-111l34 216l50 3q46 35 76.5 92.5t67.5 177.5l67 219q18 60 33 121l-75 9l6 35h543l-6 -35l-77 -3q-10 -41 -33 -181l-41 -255q-21 -139 -23 -180l76 -3l-35 -216h-110zM105 44h288q13 60 33 180l39 244q19 133 23 180h-156q-9 -25 -43 -130 l-65 -210q-39 -128 -60 -175t-59 -89z" />
<glyph unicode="&#x415;" horiz-adv-x="615" d="M-8 0l6 35l77 3q18 87 37 204l30 192q24 156 30 220l-76 3l6 35h527l-29 -180h-112l16 138h-173q-11 -47 -33 -186l-14 -89h205l-8 -49h-205l-12 -75q-14 -100 -22 -150q-1 -7 -3.5 -28t-3.5 -31h193l29 139h112l-29 -181h-548z" />
<glyph unicode="&#x416;" horiz-adv-x="987" d="M-37 0l6 36l51 3l71 151q46 105 82 139t107 42q-23 18 -37 41.5t-38 84.5l-12 31q-37 92 -51 124l-63 5l6 35h221l-5 -35l-71 -6l37 -123q26 -86 55 -119q18 -20 37 -27.5t51 -7.5h33l16 99q19 134 23 180l-75 3l6 36h301l-6 -36l-76 -3q-12 -47 -33 -180l-16 -99h40 q42 0 65.5 7.5t44.5 27.5q40 40 85 127l60 115l-69 6l6 35h227l-5 -35l-65 -5q-53 -80 -98 -151l-18 -29q-32 -51 -51.5 -72t-49.5 -38q50 -14 73.5 -48.5t39.5 -121.5l32 -153l50 -3l-5 -36h-190l-18 101q-18 102 -35 148.5t-42.5 64.5t-74.5 18h-9l-17 -113 q-21 -137 -24 -180l75 -3l-6 -36h-301l6 36l76 3q11 46 33 180l18 113h-31q-35 0 -56 -6.5t-45 -33.5t-46 -68.5t-59 -122.5l-47 -101h-189z" />
<glyph unicode="&#x417;" horiz-adv-x="608" d="M19 51l45 66q77 -84 187 -84q86 0 120 67q27 52 27 120q0 43 -20.5 68t-64.5 36q-42 11 -107 11h-31l7 44h30q125 0 176 39q27 21 44.5 61.5t17.5 82.5q0 48 -27 74.5t-75 26.5q-50 0 -101 -29l-30 -123h-113l22 142q115 51 231 51q115 0 177.5 -44t62.5 -125 q0 -117 -128 -154q-39 -11 -119 -20q86 -13 122 -33q77 -42 77 -138q0 -52 -20.5 -95t-55.5 -68q-59 -39 -185 -39q-171 0 -269 63z" />
<glyph unicode="&#x418;" horiz-adv-x="784" d="M-8 0l6 36l77 3q13 54 33 180l40 254q21 133 24 180l-76 3l6 36h304l-6 -36l-71 -3q-11 -43 -33 -180l-45 -281l324 404q1 8 2.5 18.5t1.5 13.5q2 24 2 25l-69 3l5 36h304l-5 -36l-78 -3q-12 -49 -33 -180l-40 -254q-18 -121 -24 -180l76 -3l-5 -36h-304l5 36l71 3 q9 37 34 180l44 283l-324 -404l-3 -30q0 -3 -0.5 -5.5t-1 -9t-1.5 -14.5l70 -3l-6 -36h-304z" />
<glyph unicode="&#x419;" horiz-adv-x="784" d="M-8 0l6 36l77 3q13 54 33 180l40 254q21 133 24 180l-76 3l6 36h304l-6 -36l-71 -3q-11 -43 -33 -180l-45 -281l324 404q1 8 2.5 18.5t1.5 13.5q2 24 2 25l-69 3l5 36h304l-5 -36l-78 -3q-12 -49 -33 -180l-40 -254q-18 -121 -24 -180l76 -3l-5 -36h-304l5 36l71 3 q9 37 34 180l44 283l-324 -404l-3 -30q0 -3 -0.5 -5.5t-1 -9t-1.5 -14.5l70 -3l-6 -36h-304zM326 914h43q0 -46 21.5 -61.5t86.5 -15.5q63 0 90 16t40 61h43q-10 -77 -32 -111q-40 -58 -147 -58q-80 0 -115 25t-35 83q0 27 5 61z" />
<glyph unicode="&#x41a;" horiz-adv-x="663" d="M-8 0l6 35l77 3q14 60 37 204l30 192q24 149 30 219l-76 3l6 36h307l-6 -36l-72 -3q-6 -30 -33 -186l-14 -93h50q36 0 55.5 7t42.5 28q25 23 43 48.5t45 77.5l63 116l-72 5l6 36h227l-6 -36l-65 -4q-11 -15 -82 -124l-39 -60q-27 -43 -47.5 -65t-48.5 -39 q50 -15 73.5 -51t39.5 -124l31 -150l52 -3l-5 -36h-191l-17 101q-14 80 -24 122t-27.5 68.5t-38.5 33.5t-59 7h-13l-13 -84q-22 -147 -29 -210l71 -3l-6 -35h-308z" />
<glyph unicode="&#x41b;" horiz-adv-x="687" d="M-43 0l3 19q43 16 91.5 82.5t83.5 158.5q27 65 51.5 178.5t33.5 214.5l-76 4l6 35h575l-6 -35l-77 -4q-10 -40 -33 -180l-41 -254q-19 -128 -23 -180l76 -3l-6 -36h-313l5 36l77 3q12 51 33 180l40 249q19 132 24 180h-197l-18 -108q-38 -236 -72 -345t-98 -199z" />
<glyph unicode="&#x41c;" horiz-adv-x="920" d="M-10 0l6 35l73 3q18 93 36 193l48 285q17 96 19 137l-77 3l5 36h257q4 -33 10 -62l22 -105l64 -308l164 311q72 136 84 164h256l-5 -36l-78 -3q-11 -51 -34 -187l-34 -218q-24 -156 -29 -210l76 -3l-5 -35h-312l6 35l77 3q18 85 37 204l30 190q9 53 16.5 99t10.5 62 l-295 -557h-77l-120 551l-57 -356q-21 -145 -24 -193l74 -3l-5 -35h-219z" />
<glyph unicode="&#x41d;" horiz-adv-x="784" d="M-8 0l6 36l77 3q15 66 37 204l30 189q24 158 30 221l-76 3l6 36h307l-5 -36l-73 -3q-17 -86 -33 -188l-14 -90h255l9 57q23 140 30 221l-70 3l5 36h308l-5 -36l-79 -3q-7 -32 -33 -187l-34 -216q-26 -177 -29 -211l76 -3l-5 -36h-308l5 36l72 3q14 62 37 204l14 88h-255 l-13 -81q-25 -163 -29 -211l70 -3l-5 -36h-308z" />
<glyph unicode="&#x41e;" horiz-adv-x="762" d="M433 704q137 0 213 -79t76 -221q0 -85 -28 -164.5t-78 -137.5q-98 -114 -259 -114q-138 0 -213.5 79t-75.5 224q0 79 26.5 156.5t73.5 135.5q97 121 265 121zM441 665q-95 0 -152 -119q-29 -60 -47.5 -145t-18.5 -161q0 -103 32 -158t92 -55q103 0 160 125q60 130 60 300 q0 109 -30.5 161t-95.5 52z" />
<glyph unicode="&#x41f;" horiz-adv-x="760" d="M-8 0l6 36l77 3q13 54 33 180l40 255q22 147 24 180l-76 3l6 35h695l-5 -35l-78 -3q-13 -57 -33 -180l-40 -255q-18 -121 -24 -180l76 -3l-5 -36h-308l5 36l71 3q12 50 34 180l39 249q21 132 24 180h-221q-13 -51 -33 -180l-40 -249q-19 -133 -23 -180l69 -3l-5 -36h-308 z" />
<glyph unicode="&#x420;" horiz-adv-x="640" d="M-8 0l6 36l77 3q16 77 37 204l30 189q25 161 30 222l-76 3l6 35h271q78 0 120.5 -7.5t73.5 -27.5q68 -43 68 -135q0 -123 -88 -181q-64 -42 -188 -42h-87l-8 -49q-25 -168 -29 -211l83 -3l-6 -36h-320zM278 342h27q52 0 79 9.5t48 35.5t34.5 69.5t13.5 86.5q0 72 -43 95 q-20 12 -74 12h-33q-13 -63 -33 -187z" />
<glyph unicode="&#x421;" horiz-adv-x="673" d="M488 189h115l-25 -155q-93 -46 -209 -46q-162 0 -238 88q-65 76 -65 199q0 89 31 172t86 143q105 115 276 115q111 0 210 -45l-24 -153h-115l12 135q-29 18 -72 18q-110 0 -181 -132q-64 -120 -64 -275q0 -107 40 -164t115 -57q41 0 75 15z" />
<glyph unicode="&#x422;" horiz-adv-x="640" d="M104 0l5 36l97 3q15 71 37 205l29 185q22 138 30 221h-105l-28 -138h-112l29 180h607l-29 -180h-112l16 138h-107q-12 -54 -33 -188l-33 -212q-23 -157 -30 -211l96 -3l-6 -36h-351z" />
<glyph unicode="&#x423;" horiz-adv-x="643" d="M76 0l23 98q32 -6 56 -6q50 0 81 21q25 16 42 38l8 9l-132 390q-21 67 -38 103l-52 3l6 36h296l-5 -36l-79 -3q9 -40 38 -139l63 -200l103 174q74 129 91 166l-60 2l6 36h194l-5 -36l-55 -3q-32 -43 -110 -169l-219 -360q-46 -76 -82.5 -102.5t-94.5 -26.5q-28 0 -75 5z " />
<glyph unicode="&#x424;" horiz-adv-x="952" d="M272 -72l6 36l76 3q9 36 19 96q-91 10 -154 39q-149 71 -149 230q0 137 103.5 217t290.5 86q8 57 11 90l-76 3l5 36h306l-6 -36l-76 -3q-9 -36 -19 -96q147 -16 225 -85.5t78 -184.5q0 -90 -45.5 -156.5t-131.5 -102.5q-92 -38 -217 -43q-9 -67 -10 -90l75 -3l-5 -36 h-306zM381 106l77 485q-112 -14 -172.5 -87.5t-60.5 -195.5q0 -170 156 -202zM601 586l-77 -486q111 13 172 87.5t61 196.5q0 170 -156 202z" />
<glyph unicode="&#x425;" horiz-adv-x="661" d="M-40 0l6 36l44 3q15 13 100 105l165 185l-56 130q-65 153 -85 194l-58 3l5 36h291l-5 -36l-64 -3q10 -43 61 -160l26 -59l94 109q72 87 88 111l-58 2l5 36h198l-5 -36l-57 -3q-41 -41 -119 -128l-124 -140l69 -158q68 -157 84 -188l58 -3l-5 -36h-295l5 36l63 3 q-13 50 -60 161l-34 79l-124 -149q-42 -51 -73 -91l61 -3l-6 -36h-195z" />
<glyph unicode="&#x426;" horiz-adv-x="754" d="M-8 0l6 35l77 3q14 60 33 180l40 255q21 133 24 180l-76 3l6 36h305l-6 -36l-68 -3q-11 -46 -34 -180l-39 -249q-21 -137 -24 -180h216q14 62 33 180l40 249q20 137 23 180l-67 3l6 36h305l-6 -36l-77 -3q-13 -54 -33 -180l-41 -255q-21 -143 -23 -180l76 -3l-35 -216 h-110l20 181h-571z" />
<glyph unicode="&#x427;" horiz-adv-x="728" d="M330 0l6 36l88 3q11 45 31 166l2 7q-54 -9 -104 -9q-122 0 -181.5 48t-59.5 146q0 36 12 113q16 108 17 143l-69 3l6 36h307l-6 -36l-77 -3q-42 -183 -42 -274q0 -71 34 -101.5t114 -30.5q17 0 44 4l11 1l35 221q19 131 24 180l-70 3l6 36h307l-5 -36l-78 -3 q-12 -48 -33 -180l-40 -254q-21 -140 -24 -180l76 -3l-5 -36h-326z" />
<glyph unicode="&#x428;" horiz-adv-x="1100" d="M-8 0l6 35l77 3q14 60 33 180l40 255q21 133 24 180l-76 3l6 36h304l-5 -36l-68 -3q-11 -46 -34 -180l-39 -249q-21 -137 -24 -180h200q14 57 34 180l39 249q18 114 24 180l-67 3l6 36h295l-6 -36l-67 -3q-12 -50 -34 -180l-39 -249q-20 -136 -24 -180h200q13 57 34 180 l39 249q18 126 24 180l-67 3l5 36h305l-5 -36l-78 -3q-13 -54 -33 -180l-40 -255q-20 -131 -24 -180l76 -3l-5 -35h-1036z" />
<glyph unicode="&#x429;" horiz-adv-x="1100" d="M-8 0l6 35l77 3q14 60 33 180l40 255q21 133 24 180l-76 3l6 36h304l-5 -36l-68 -3q-11 -46 -34 -180l-39 -249q-21 -137 -24 -180h200q14 57 34 180l39 249q18 114 24 180l-67 3l6 36h295l-6 -36l-67 -3q-12 -50 -34 -180l-39 -249q-20 -136 -24 -180h200q13 57 34 180 l39 249q18 126 24 180l-67 3l5 36h305l-5 -36l-78 -3q-13 -54 -33 -180l-40 -255q-20 -131 -24 -180l76 -3l-34 -216h-111l20 181h-916z" />
<glyph unicode="&#x42a;" horiz-adv-x="770" d="M123 0l6 35l77 3q11 47 34 180l39 252q17 109 24 180h-122l-28 -138h-112l29 180h477l-6 -35l-77 -3q-9 -37 -33 -180l-10 -62h44q126 0 184 -27q82 -38 82 -158q0 -130 -91 -189q-60 -38 -182 -38h-335zM365 42h34q59 0 87.5 10.5t48.5 38.5q42 60 42 157q0 69 -26 95.5 t-94 26.5h-44l-24 -153q-19 -124 -24 -175z" />
<glyph unicode="&#x42b;" horiz-adv-x="1003" d="M-8 0l6 35l77 3q9 36 33 180l41 256q21 150 23 179l-76 3l6 36h313l-5 -36l-77 -3q-13 -57 -33 -179l-10 -62h43q126 0 184 -27q82 -38 82 -158q0 -130 -91 -189q-60 -38 -181 -38h-335zM234 42h33q59 0 87.5 10.5t48.5 38.5q42 60 42 157q0 69 -26 95.5t-93 26.5h-45 l-24 -153q-17 -114 -23 -175zM618 0l6 36l77 3q19 92 37 204l30 191q22 132 30 219l-76 3l6 36h313l-6 -36l-78 -3q-10 -46 -33 -185l-34 -220q-24 -159 -29 -209l76 -3l-6 -36h-313z" />
<glyph unicode="&#x42c;" horiz-adv-x="637" d="M-8 0l6 35l77 3q9 36 33 180l41 256q21 150 23 179l-76 3l6 36h313l-5 -36l-77 -3q-13 -57 -33 -179l-10 -62h43q127 0 184 -27q82 -39 82 -158q0 -130 -91 -189q-60 -38 -181 -38h-335zM234 42h33q59 0 87.5 10.5t48.5 38.5q42 60 42 157q0 69 -26 95.5t-93 26.5h-45 l-24 -153q-17 -114 -23 -175z" />
<glyph unicode="&#x42d;" horiz-adv-x="656" d="M172 326l8 49h275q6 61 6 94q0 190 -119 190q-61 0 -101 -33l-24 -115h-112l18 140q108 52 222 52q135 0 204.5 -74t69.5 -218q0 -92 -27 -175.5t-75 -140.5q-90 -107 -259 -107q-151 0 -238 62l45 65q38 -44 79 -63.5t94 -19.5q110 0 160 120q32 75 50 174h-276z" />
<glyph unicode="&#x42e;" horiz-adv-x="1135" d="M-8 0l6 36l77 3q14 57 37 204l30 191q22 131 30 219l-76 3l6 36h307l-5 -36l-73 -3q-8 -38 -33 -185l-14 -93h175q23 124 91 207q97 122 262 122q139 0 211 -80q74 -82 74 -220q0 -85 -27.5 -164.5t-77.5 -137.5q-96 -114 -256 -114q-153 0 -226 98q-59 77 -59 200 q0 22 2 45h-176l-13 -83q-25 -161 -29 -209l70 -3l-5 -36h-308zM820 665q-93 0 -149 -119q-29 -61 -47 -145.5t-18 -161.5q0 -103 30.5 -157.5t89.5 -54.5q101 0 157 125q59 133 59 301q0 109 -30 160.5t-92 51.5z" />
<glyph unicode="&#x42f;" horiz-adv-x="680" d="M428 317h-41q-38 0 -58.5 -9.5t-38.5 -34.5q-38 -53 -88 -172l-41 -101h-200l6 36l52 3l68 151q40 87 67 114.5t82 39.5q-129 21 -129 147q0 119 87 169q56 32 173 32h351l-6 -35l-77 -3q-12 -51 -33 -180l-41 -255q-19 -133 -23 -180l76 -3l-6 -36h-313l5 36l79 3 q12 45 33 180zM434 359l46 291h-46q-57 0 -83.5 -8t-46.5 -31q-44 -51 -44 -147q0 -56 26.5 -80.5t87.5 -24.5h60z" />
<glyph unicode="&#x430;" horiz-adv-x="635" d="M596 64l17 -35q-66 -41 -138 -41q-49 0 -72 17.5t-27 57.5q-31 -40 -66 -57.5t-86 -17.5q-85 0 -130.5 55t-45.5 158q0 140 68 231.5t171 91.5q93 0 143 -80l11 68h143q-24 -129 -38 -213l-27 -172q-5 -29 -5 -43q0 -36 29 -36q18 0 53 16zM376 129l41 259q-36 64 -86 64 q-61 0 -98 -95q-30 -74 -30 -164q0 -65 20.5 -99.5t58.5 -34.5q54 0 94 70z" />
<glyph unicode="&#x431;" horiz-adv-x="609" d="M592 740l-6 -83q-73 4 -113 4q-85 0 -125.5 -15.5t-64.5 -56.5q-29 -52 -44 -133q59 67 139 67q91 0 139.5 -54.5t48.5 -156.5q0 -132 -66 -224q-75 -100 -213 -100q-111 0 -171.5 55t-60.5 156q0 68 20.5 171t45.5 164q59 146 240 183q84 18 231 23zM229 378l-19 -121 q-10 -63 -10 -110q0 -121 76 -121q65 0 104 112q33 92 33 199q0 58 -20 91.5t-55 33.5q-28 0 -58.5 -23t-50.5 -61z" />
<glyph unicode="&#x432;" horiz-adv-x="633" d="M468 299q104 -24 104 -124q0 -87 -74 -137t-202 -50q-139 0 -201 72q-49 58 -49 150q0 67 25 130t69 105q83 78 221 78q103 0 160 -31.5t57 -88.5q0 -38 -23 -61t-79 -40q-4 0 -8 -3zM214 304q93 0 150 22q67 24 67 92q0 67 -66 67q-53 0 -92 -47t-59 -134zM206 262 q-7 -60 -7 -89q0 -147 97 -147q72 0 104 72q23 49 23 101q0 71 -101 71q-25 0 -116 -8z" />
<glyph unicode="&#x433;" horiz-adv-x="523" d="M427 91l24 -62q-124 -41 -232 -41q-197 0 -197 120q0 63 53 99q32 23 127 53q54 17 76.5 28t36.5 28q24 27 24 73q0 38 -20.5 60t-55.5 22q-60 0 -140 -49l-22 57q98 44 205 44q186 0 186 -124q0 -57 -41 -92q-29 -24 -139 -60q-60 -20 -78.5 -28.5t-31.5 -21.5 q-27 -29 -27 -72q0 -40 22.5 -63.5t61.5 -23.5q66 0 168 53z" />
<glyph unicode="&#x434;" horiz-adv-x="615" d="M181 655l5 85q138 -4 220 -26q92 -25 134.5 -84t42.5 -162q0 -87 -18 -186.5t-44 -159.5q-59 -134 -237 -134q-116 0 -175.5 58.5t-59.5 171.5q0 65 21 129.5t56 105.5q61 71 166 71q101 0 147 -64q4 27 4 63q0 80 -35 111t-125 31q-42 0 -102 -10zM409 272l17 107 q-9 39 -33 62t-56 23q-34 0 -59.5 -26t-45.5 -82q-32 -91 -32 -192q0 -138 74 -138q59 0 92 71q22 51 43 175z" />
<glyph unicode="&#x435;" horiz-adv-x="587" d="M537 252h-331q-6 -43 -6 -72q0 -146 126 -146q66 0 133 43l23 -37q-86 -52 -193 -52q-116 0 -178.5 57.5t-62.5 163.5q0 123 69 213q76 101 217 101q110 0 165 -53q44 -45 44 -143q0 -35 -6 -75zM213 291h176q9 54 9 95q0 54 -13.5 77t-44.5 23q-44 0 -77 -51t-50 -144z " />
<glyph unicode="&#x436;" horiz-adv-x="1144" d="M13 23l25 145h105l-13 -130q18 -11 31 -11q38 0 62 62q41 103 41 247q0 140 -73 140q-48 0 -100 -43l-22 37q67 54 150 54q92 0 141 -56.5t49 -163.5v-19h98l7 47q19 129 24 180h151q-20 -95 -33 -180l-7 -47h93q21 117 83.5 178t160.5 61q74 0 146 -35l-25 -145h-105 l12 130q-14 10 -28 10q-38 0 -63 -62q-43 -103 -43 -246q0 -141 75 -141q45 0 99 43l22 -36q-64 -54 -149 -54q-93 0 -142.5 56t-49.5 161q0 9 2 41h-95l-10 -66q-20 -131 -24 -180h-151q13 56 33 180l11 66h-96q-18 -127 -80.5 -192.5t-165.5 -65.5q-74 0 -146 35z" />
<glyph unicode="&#x437;" horiz-adv-x="532" d="M183 244l6 36h38q59 0 83 19q38 33 38 106q0 79 -85 79q-33 0 -59 -11l-26 -115h-112l18 130q86 36 190 36q221 0 221 -138q0 -48 -24.5 -77t-80.5 -48q39 -23 56.5 -50t17.5 -67q0 -96 -87 -133q-54 -23 -153 -23q-150 0 -226 59l48 54q32 -35 64.5 -49.5t77.5 -14.5 q59 0 92 34t33 95q0 41 -21 59.5t-68 18.5h-41z" />
<glyph unicode="&#x438;" horiz-adv-x="646" d="M390 139l53 334l-65 3l6 35l216 6q-9 -49 -21 -118.5t-16 -90.5l-19 -118q-15 -118 -19 -151l60 -3l-6 -36l-207 -5l10 77q-54 -48 -93 -66t-91 -18q-61 0 -93.5 30t-32.5 86q0 29 15 132l9 57q8 43 10 70q8 53 9 70q3 15 5 40l-60 3l6 35l216 6q-21 -110 -39 -216 l-16 -101q-7 -49 -7 -78q0 -61 46 -61q59 0 124 78z" />
<glyph unicode="&#x439;" horiz-adv-x="646" d="M390 139l53 334l-65 3l6 35l216 6q-9 -49 -21 -118.5t-16 -90.5l-19 -118q-15 -118 -19 -151l60 -3l-6 -36l-207 -5l10 77q-54 -48 -93 -66t-91 -18q-61 0 -93.5 30t-32.5 86q0 29 15 132l9 57q8 43 10 70q8 53 9 70q3 15 5 40l-60 3l6 35l216 6q-21 -110 -39 -216 l-16 -101q-7 -49 -7 -78q0 -61 46 -61q59 0 124 78zM226 740h42v-12q0 -36 24.5 -50.5t83.5 -14.5q63 0 90.5 16t40.5 61h42q-11 -80 -32 -111q-38 -58 -147 -58q-80 0 -115 25t-35 81q0 31 6 63z" />
<glyph unicode="&#x43a;" horiz-adv-x="584" d="M59 476l6 36l220 5q-15 -71 -33 -183l-9 -54h27q50 0 75.5 20t65.5 90l48 86l-53 3l5 33h194l-5 -33l-52 -3q-28 -38 -64 -90l-30 -44q-35 -50 -70 -71q45 -12 63 -38.5t36 -108.5l19 -89l42 -2l-6 -33h-173l-14 75q-20 105 -38 136t-61 31h-15l-9 -60q-19 -114 -24 -182 h-156q12 42 42.5 237t32.5 236z" />
<glyph unicode="&#x43b;" horiz-adv-x="585" d="M97 477l6 35h494l-6 -35l-64 -3q-15 -61 -39.5 -216t-29.5 -219l63 -3l-5 -36h-211q5 62 27 199l11 66q25 159 28 208h-146q-15 -178 -48.5 -290t-96.5 -195l-108 24v17q88 67 130 166.5t59 277.5z" />
<glyph unicode="&#x43c;" horiz-adv-x="801" d="M61 476l6 36h241q8 -44 32 -142l49 -203l114 204l47 85q20 38 29 56h233l-6 -36l-64 -3q-16 -75 -39 -220.5t-29 -214.5l63 -3l-6 -35h-201q2 35 24 180l39 242l-223 -396h-94l-95 404q-20 -183 -42.5 -283.5t-57.5 -158.5l-98 26v11q116 127 144 448z" />
<glyph unicode="&#x43d;" horiz-adv-x="665" d="M65 476l5 36l221 5q-16 -71 -31 -162l-11 -70h176l11 65q17 120 20 162h156q-13 -54 -43 -242t-32 -231l64 -3l-6 -36h-210q4 54 24 183l10 63h-176l-11 -66q-19 -132 -23 -180h-156q14 56 44 244t31 229z" />
<glyph unicode="&#x43e;" horiz-adv-x="629" d="M345 523q113 0 173.5 -58.5t60.5 -167.5q0 -133 -82 -224q-78 -85 -213 -85q-126 0 -181 65q-54 62 -54 164q0 62 22 120.5t62 101.5q77 84 212 84zM345 485q-79 0 -121 -150q-22 -81 -22 -172q0 -137 82 -137q34 0 62.5 29.5t46.5 82.5q33 99 33 204q0 143 -81 143z" />
<glyph unicode="&#x43f;" horiz-adv-x="648" d="M259 374l-11 -68q-34 -222 -44 -306h-156q32 176 50 284l5 33q16 110 20 156l-60 3l6 35l207 6l-11 -79q49 46 91 65.5t91 19.5q62 0 95.5 -30.5t33.5 -86.5q0 -37 -16 -131l-9 -56q-15 -100 -23 -180l63 -3l-6 -36h-209q2 11 3 22t2 17q3 32 12 91q10 71 11 79l12 73 q12 81 12 110q0 58 -47 58q-26 0 -60.5 -21.5t-61.5 -54.5z" />
<glyph unicode="&#x440;" horiz-adv-x="646" d="M276 517l-7 -58q64 64 148 64q88 0 135 -55.5t47 -160.5q0 -138 -67 -231q-65 -88 -177 -88q-105 0 -146 77l-4 -29q-29 -190 -36 -251h-155q20 102 50 285l35 223q20 137 23 180l-59 3l6 35zM259 387l-39 -249q12 -41 37 -65t57 -24q64 0 102 107q30 85 30 179 q0 129 -71 129q-50 0 -116 -77z" />
<glyph unicode="&#x441;" horiz-adv-x="526" d="M516 489l-25 -145h-112l12 130q-20 10 -40 10q-71 0 -113 -107q-16 -39 -27 -97.5t-11 -104.5q0 -140 109 -140q61 0 130 43l21 -36q-78 -54 -179 -54q-113 0 -173.5 56t-60.5 162q0 133 74 223q78 94 224 94q90 0 171 -34z" />
<glyph unicode="&#x442;" horiz-adv-x="593" d="M104 0l6 36l75 3q13 57 38 213t30 218h-93l-26 -126h-108l27 168h569l-27 -168h-108l14 126h-94q-53 -273 -67 -431l74 -3l-6 -36h-304z" />
<glyph unicode="&#x443;" horiz-adv-x="553" d="M44 512h258l-6 -36l-55 -3q4 -31 24 -128l40 -186l85 152l60 111q17 33 25 53l-75 1l6 36h192l-6 -36l-47 -3q-13 -17 -85 -141l-207 -364q-60 -106 -113 -147.5t-127 -41.5q-36 0 -57 8l28 81q33 -12 62 -12q87 0 145 103l9 16l-75 345q-27 113 -39 153l-47 3z" />
<glyph unicode="&#x444;" horiz-adv-x="880" d="M331 -35l15 93q-50 -70 -131 -70q-82 0 -125 55t-43 159q0 124 58 220q61 102 174 102q84 0 130 -65l9 53q20 135 23 180l-60 3l6 36l198 6q-16 -81 -39 -216l-10 -63q57 65 129 65q81 0 125.5 -56.5t44.5 -158.5q0 -119 -54 -217q-57 -103 -168 -103q-99 0 -140 70 l-15 -92q-20 -143 -23 -181h-137q9 40 33 180zM358 132l41 262q-34 71 -80 71q-57 0 -95 -107q-31 -84 -31 -183q0 -60 16.5 -93t47.5 -33q51 0 101 83zM524 384l-39 -251q12 -37 37 -60.5t53 -23.5q51 0 86 109q28 91 28 181q0 57 -18 91t-49 34q-47 0 -98 -80z" />
<glyph unicode="&#x445;" horiz-adv-x="545" d="M-49 0l6 36l48 3q31 28 108 109l94 100l-49 106q-10 23 -30 67q-2 4 -27 52l-53 3l5 36h269l-6 -36l-52 -3q5 -22 37 -93l20 -45l52 58q56 61 67 80l-52 3l5 36h184l-5 -36l-50 -3q-24 -19 -89 -85l-91 -96l54 -119q55 -122 66 -134l49 -3l-6 -36h-272l5 36l58 3 q-14 42 -38 96l-31 68l-70 -82q-40 -46 -67 -82l46 -3l-6 -36h-179z" />
<glyph unicode="&#x446;" horiz-adv-x="646" d="M60 476l6 35l216 6q-21 -110 -39 -216l-16 -101q-7 -49 -7 -78q0 -61 46 -61q59 0 124 78l53 334l-65 3l6 35l216 6q-9 -49 -21 -118.5t-16 -90.5l-19 -118q-15 -118 -19 -151l60 -3l-34 -217h-105l20 181h-93l9 72q-54 -48 -93 -66t-91 -18q-61 0 -93.5 30t-32.5 86 q0 29 15 132l9 57q8 43 10 70q8 53 9 70q3 15 5 40z" />
<glyph unicode="&#x447;" horiz-adv-x="612" d="M44 476l6 36l210 5q-38 -176 -38 -242q0 -88 106 -88q15 0 30 3l17 103q20 135 23 180l-50 3l6 36l207 5q-13 -47 -43.5 -242.5t-32.5 -235.5l64 -3l-6 -36h-292l5 36l74 3q15 73 18 95l4 18q-43 -4 -68 -4q-205 0 -205 143q0 19 15 140q2 17 4 42z" />
<glyph unicode="&#x448;" horiz-adv-x="946" d="M58 476l6 35l220 5q-63 -325 -63 -395q0 -60 47 -60q48 0 112 67l17 113q27 173 39 270h155q-62 -329 -62 -391q0 -59 47 -59q46 0 111 64l25 156q18 110 26 192l-64 3l5 35l221 5q-62 -337 -75 -477l59 -3l-5 -36l-207 -5l8 68q-81 -75 -172 -75q-106 0 -123 87 q-52 -49 -93 -68t-91 -19q-127 0 -127 119q0 38 15 130l7 44q25 155 26 192z" />
<glyph unicode="&#x449;" horiz-adv-x="946" d="M58 476l6 35l220 5q-63 -325 -63 -395q0 -60 47 -60q48 0 112 67l17 113q27 173 39 270h155q-62 -329 -62 -391q0 -59 47 -59q46 0 111 64l25 156q18 110 26 192l-64 3l5 35l221 5q-62 -337 -75 -477l60 -3l-34 -217h-105l20 181h-93l7 63q-81 -75 -172 -75 q-106 0 -123 87q-52 -49 -93 -68t-91 -19q-127 0 -127 119q0 38 15 130l7 44q25 155 26 192z" />
<glyph unicode="&#x44a;" horiz-adv-x="710" d="M20 344l26 168h368q-22 -71 -47 -196q60 45 137 45q83 0 127 -40t44 -116q0 -112 -75 -170q-58 -45 -173 -45q-119 0 -174.5 40.5t-55.5 128.5q0 100 56 315h-98l-26 -130h-109zM357 259q-13 -70 -13 -113q0 -64 16.5 -92t54.5 -28q47 0 78.5 54t31.5 136 q0 50 -16.5 73.5t-53.5 23.5q-50 0 -98 -54z" />
<glyph unicode="&#x44b;" horiz-adv-x="900" d="M58 476l6 36l229 5q-29 -96 -48 -201q63 45 137 45q83 0 127 -40t44 -116q0 -112 -75 -170q-58 -45 -173 -45q-119 0 -174.5 40.5t-55.5 128.5q0 100 56 314zM235 258q-13 -68 -13 -112q0 -64 16.5 -92t54.5 -28q47 0 78.5 54t31.5 136q0 50 -16.5 73.5t-53.5 23.5 q-50 0 -98 -55zM767 0h-155q12 51 33 183l18 110q21 144 24 180l-64 3l6 36h219q-16 -74 -33 -183l-24 -146q-17 -112 -24 -183z" />
<glyph unicode="&#x44c;" horiz-adv-x="587" d="M58 476l6 36l229 5q-29 -96 -48 -201q63 45 137 45q83 0 127 -40t44 -116q0 -112 -75 -170q-58 -45 -173 -45q-119 0 -174.5 40.5t-55.5 128.5q0 100 56 314zM235 258q-13 -68 -13 -112q0 -64 16.5 -92t54.5 -28q47 0 78.5 54t31.5 136q0 50 -16.5 73.5t-53.5 23.5 q-50 0 -98 -55z" />
<glyph unicode="&#x44d;" horiz-adv-x="545" d="M131 246l6 39h208q4 43 4 65q0 134 -88 134q-34 0 -56 -11l-27 -119h-113l19 134q83 35 185 35q112 0 166 -51q63 -61 63 -175q0 -134 -62 -217q-68 -92 -218 -92q-144 0 -220 60l48 53q58 -68 141 -68q46 0 75 24t51 81q17 45 27 108h-209z" />
<glyph unicode="&#x44e;" horiz-adv-x="923" d="M65 476l5 36l221 5q-13 -52 -31 -162l-11 -70h125q24 115 95.5 176.5t181.5 61.5q108 0 165.5 -58.5t57.5 -167.5q0 -132 -79 -224q-73 -85 -205 -85q-119 0 -172 65q-51 63 -51 161q0 18 2 32h-126l-11 -66q-19 -132 -23 -180h-156q14 60 43 242.5t32 230.5zM650 485 q-72 0 -109 -150q-21 -84 -21 -172q0 -137 71 -137q31 0 57.5 29.5t42.5 82.5q30 99 30 204q0 143 -71 143z" />
<glyph unicode="&#x44f;" horiz-adv-x="606" d="M358 231h-36q-24 0 -38 -6.5t-27 -24.5q-30 -40 -67 -125l-33 -75h-185l6 36l42 2l51 107q30 59 48.5 78.5t55.5 29.5q-91 20 -91 113q0 42 18.5 74.5t51.5 48.5q47 23 153 23h310l-6 -35l-64 -3q-14 -62 -41 -233t-27 -202l63 -3l-6 -36h-210q3 37 25 184zM364 268l4 25 q19 121 24 181h-40h-4q-52 3 -80 -20q-36 -34 -36 -106q0 -43 19 -61.5t63 -18.5h50z" />
<glyph unicode="&#x451;" horiz-adv-x="587" d="M537 252h-331q-6 -43 -6 -72q0 -146 126 -146q66 0 133 43l23 -37q-86 -52 -193 -52q-116 0 -178.5 57.5t-62.5 163.5q0 123 69 213q76 101 217 101q110 0 165 -53q44 -45 44 -143q0 -35 -6 -75zM213 291h176q9 54 9 95q0 54 -13.5 77t-44.5 23q-44 0 -77 -51t-50 -144z M250 746q34 0 55.5 -21.5t21.5 -55.5t-21.5 -56t-55.5 -22t-56 21.5t-22 56.5q0 33 22 55t56 22zM469 746q34 0 55.5 -21.5t21.5 -55.5t-21.5 -56t-55.5 -22q-35 0 -56.5 21.5t-21.5 56.5q0 33 22 55t56 22z" />
<glyph unicode="&#x452;" horiz-adv-x="644" d="M145 580h-70l7 40h67q5 37 8 72l-60 3l7 36l216 6q-10 -53 -21 -117h145l-6 -40h-147l-22 -138q48 44 88.5 62.5t90.5 18.5q62 0 95 -30.5t33 -86.5q0 -33 -16 -131l-21 -133q-16 -109 -37 -174.5t-59 -107t-91 -57.5t-138 -18l7 40q56 7 84.5 33t47 85.5t39.5 191.5 l27 168q9 56 9 90q0 57 -47 57q-26 0 -60.5 -21.5t-62.5 -54.5l-10 -68q-36 -233 -44 -306h-156q23 120 50 284z" />
<glyph unicode="&#x453;" horiz-adv-x="523" d="M427 91l24 -62q-124 -41 -232 -41q-197 0 -197 120q0 63 53 99q32 23 127 53q54 17 76.5 28t36.5 28q24 27 24 73q0 38 -20.5 60t-55.5 22q-60 0 -140 -49l-22 57q98 44 205 44q186 0 186 -124q0 -57 -41 -92q-29 -24 -139 -60q-60 -20 -78.5 -28.5t-31.5 -21.5 q-27 -29 -27 -72q0 -40 22.5 -63.5t61.5 -23.5q66 0 168 53zM269 571l-17 28q39 27 78.5 67t60.5 75h128q16 0 16 -7q0 -8 -19.5 -27t-49.5 -40q-68 -48 -197 -96z" />
<glyph unicode="&#x454;" horiz-adv-x="545" d="M411 246h-209q-6 -43 -6 -77q0 -71 25 -103.5t79 -32.5q77 0 151 68l30 -53q-77 -60 -202 -60q-235 0 -235 214q0 125 64 218q38 54 90 78.5t130 24.5q114 0 207 -35l-23 -134h-113l11 119q-25 11 -61 11q-43 0 -69 -25.5t-49 -87.5q-12 -35 -23 -86h209z" />
<glyph unicode="&#x455;" horiz-adv-x="492" d="M24 19l21 134h104l-5 -103q29 -21 74 -21q43 0 70.5 23t27.5 59q0 31 -22 47q-13 8 -77 34q-83 33 -116.5 68.5t-33.5 91.5q0 74 57 123q55 48 158 48q100 0 169 -32l-20 -133h-102l8 110q-23 15 -64 15t-67 -22.5t-26 -56.5q0 -31 25 -47q15 -10 89 -41q78 -34 103 -58 q34 -32 34 -94q0 -84 -60 -130t-169 -46q-91 0 -178 31z" />
<glyph unicode="&#x456;" horiz-adv-x="332" d="M204 0h-156q20 94 44.5 249.5t30.5 223.5l-60 3l6 35l216 6q-56 -287 -81 -517zM233 749q34 0 56.5 -22t22.5 -56q0 -36 -22 -58.5t-58 -22.5q-34 0 -56.5 22t-22.5 57t22.5 57.5t57.5 22.5z" />
<glyph unicode="&#x457;" horiz-adv-x="331" d="M204 0h-156q14 68 43 243l6 40q18 118 26 190l-60 3l5 35l217 6q-6 -38 -8 -44q-16 -79 -32 -181l-6 -36q-26 -164 -35 -256zM108 746q34 0 55.5 -21.5t21.5 -55.5t-21.5 -56t-55.5 -22t-56 21.5t-22 56.5q0 33 22 55t56 22zM327 746q34 0 55.5 -21.5t21.5 -55.5 t-21.5 -56t-55.5 -22q-35 0 -56.5 21.5t-21.5 56.5q0 33 22 55t56 22z" />
<glyph unicode="&#x458;" horiz-adv-x="331" d="M63 511l220 6q-34 -189 -48 -276l-37 -230q-18 -124 -62 -169q-57 -60 -183 -60q-26 0 -61 3l8 38q75 0 106.5 43.5t51.5 176.5l39 250q18 113 24 180l-64 3zM230 749q35 0 57 -22.5t22 -57.5t-22.5 -57t-56.5 -22q-35 0 -57.5 22.5t-22.5 58.5q0 34 22.5 56t57.5 22z " />
<glyph unicode="&#x459;" horiz-adv-x="838" d="M97 477l6 35h440q-28 -93 -47 -196q63 45 137 45q83 0 127 -40t44 -116q0 -112 -75 -170q-58 -45 -173 -45q-120 0 -175.5 40.5t-55.5 128.5q0 97 56 314h-156q-15 -178 -48.5 -290t-96.5 -195l-108 24v17q88 67 130 166.5t59 277.5zM485 259q-12 -76 -12 -113 q0 -64 16.5 -92t54.5 -28q48 0 79.5 54t31.5 136q0 50 -16.5 73.5t-53.5 23.5q-51 0 -100 -54z" />
<glyph unicode="&#x45a;" horiz-adv-x="923" d="M65 476l5 36l221 5q-13 -52 -31 -162l-11 -70h175q16 87 42 188l-73 3l6 36l229 5q-22 -74 -48 -201q61 45 138 45q83 0 127 -40t44 -115q0 -113 -75 -171q-58 -45 -173 -45q-120 0 -175.5 40.5t-55.5 128.5q0 35 8 87h-175l-11 -66q-19 -132 -23 -180h-156q14 56 44 244 t31 229zM570 258q-13 -69 -13 -112q0 -64 16.5 -92t54.5 -28q48 0 79.5 54t31.5 137q0 50 -16.5 73t-53.5 23q-51 0 -99 -55z" />
<glyph unicode="&#x45b;" horiz-adv-x="648" d="M145 580h-69l6 40h67l9 72l-61 3l7 36l216 6q-6 -29 -21 -117h145l-6 -40h-147l-22 -138q50 45 89.5 63t88.5 18q62 0 95.5 -30.5t33.5 -86.5q0 -37 -16 -131l-9 -56q-16 -113 -23 -180l63 -3l-6 -36h-210q16 117 25 179l5 36q23 147 23 177q0 58 -47 58 q-26 0 -60.5 -21.5t-61.5 -54.5l-11 -68q-35 -230 -44 -306h-156q21 99 50 284z" />
<glyph unicode="&#x45c;" horiz-adv-x="584" d="M59 476l6 36l220 5q-15 -71 -33 -183l-9 -54h27q50 0 75.5 20t65.5 90l48 86l-53 3l5 33h194l-5 -33l-52 -3q-28 -38 -64 -90l-30 -44q-35 -50 -70 -71q45 -12 63 -38.5t36 -108.5l19 -89l42 -2l-6 -33h-173l-14 75q-20 105 -38 136t-61 31h-15l-9 -60q-19 -114 -24 -182 h-156q12 42 42.5 237t32.5 236zM306 571l-17 28q39 27 78.5 67t60.5 75h128q16 0 16 -7q0 -8 -19.5 -27t-49.5 -40q-68 -48 -197 -96z" />
<glyph unicode="&#x45e;" horiz-adv-x="553" d="M44 512h258l-6 -36l-55 -3q4 -31 24 -128l40 -186l85 152l60 111q17 33 25 53l-75 1l6 36h192l-6 -36l-47 -3q-13 -17 -85 -141l-207 -364q-60 -106 -113 -147.5t-127 -41.5q-36 0 -57 8l28 81q33 -12 62 -12q87 0 145 103l9 16l-75 345q-27 113 -39 153l-47 3zM206 740 h43q1 -44 17 -57q23 -20 91 -20q63 0 90 16t40 61h42q-9 -78 -32 -111q-38 -58 -147 -58q-79 0 -114 25t-35 82q0 28 5 62z" />
<glyph unicode="&#x45f;" horiz-adv-x="651" d="M-11 0l6 35l64 3q15 62 40.5 223t28.5 212l-64 3l6 36h269l-6 -36l-50 -3q-15 -68 -39 -218.5t-29 -215.5h153q14 61 38.5 215t29.5 219l-48 3l5 36h269l-6 -36l-64 -3q-13 -52 -39 -216t-30 -219l64 -3l-6 -35h-239l-37 -181h-97l20 181h-239z" />
<glyph unicode="&#x490;" horiz-adv-x="598" d="M-8 0l6 36l77 3q13 54 33 180l40 255q22 144 24 180l-76 3l6 35h428l47 175h112l-48 -217h-309q-14 -62 -32 -175l-41 -256q-21 -142 -24 -180l91 -3l-6 -36h-328z" />
<glyph unicode="&#x491;" horiz-adv-x="523" d="M123 422l-22 58q89 41 183 43l74 157h147l-121 -163q108 -23 108 -117q0 -57 -41 -92q-31 -26 -139 -60q-60 -20 -78.5 -28.5t-31.5 -21.5q-27 -30 -27 -73q0 -40 22.5 -63.5t61.5 -23.5q66 0 168 53l24 -62q-124 -41 -232 -41q-197 0 -197 120q0 63 53 99q35 25 127 54 q53 17 76 28t37 27q24 29 24 74q0 38 -20.5 60t-55.5 22q-59 0 -140 -50z" />
<glyph unicode="&#x4c0;" horiz-adv-x="388" d="M-3 0l6 36l77 3q16 76 37 204l30 189q24 156 30 221l-76 3l6 36h313l-6 -36l-78 -3q-11 -53 -33 -187l-34 -216q-25 -170 -29 -211l76 -3l-6 -36h-313z" />
<glyph unicode="&#x1e84;" horiz-adv-x="956" d="M67 692h289l-6 -36l-75 -3q1 -38 14 -187l28 -292l123 273q85 193 101 245h98q5 -109 17 -218l30 -299l116 266q43 98 87 212l-70 3l5 36h207l-5 -36l-58 -3q-15 -27 -30 -59q-11 -25 -35 -73l-24 -51l-126 -272q-66 -146 -85 -198h-110q-3 66 -19 199l-30 268l-125 -273 q-58 -126 -83 -194h-110q-2 48 -19 199l-29 268q-9 84 -24 186l-58 3zM491 909q34 0 55.5 -21.5t21.5 -55.5t-21.5 -56t-55.5 -22q-35 0 -56.5 22t-21.5 57q0 32 22 54t56 22zM710 909q34 0 55.5 -21.5t21.5 -55.5t-21.5 -56t-55.5 -22q-35 0 -56.5 22t-21.5 57q0 32 22 54 t56 22z" />
<glyph unicode="&#x2007;" horiz-adv-x="288" />
<glyph unicode="&#x2011;" horiz-adv-x="384" d="M40 232l17 106h296l-17 -106h-296z" />
<glyph unicode="&#x2012;" d="M45 233l17 105h477l-17 -105h-477z" />
<glyph unicode="&#x2013;" d="M45 233l17 105h477l-17 -105h-477z" />
<glyph unicode="&#x2014;" horiz-adv-x="998" d="M-40 232l17 106h1072l-16 -106h-1073z" />
<glyph unicode="&#x2015;" horiz-adv-x="998" d="M-40 232l17 106h1072l-16 -106h-1073z" />
<glyph unicode="&#x2017;" horiz-adv-x="498" d="M-126 -224l8 48h600l-8 -48h-600zM-110 -123l8 48h600l-8 -48h-600z" />
<glyph unicode="&#x2018;" horiz-adv-x="285" d="M268 751l35 -31q-72 -83 -94 -147q57 -19 57 -80q0 -37 -24.5 -61t-61.5 -24q-38 0 -61.5 23t-23.5 60q0 86 173 260z" />
<glyph unicode="&#x2019;" horiz-adv-x="285" d="M118 398l-35 31q70 78 95 147q-27 8 -42 29.5t-15 50.5q0 37 24.5 61t61.5 24q38 0 61.5 -23t23.5 -60q0 -45 -41 -106.5t-133 -153.5z" />
<glyph unicode="&#x201a;" horiz-adv-x="285" d="M26 -186l-35 31q69 77 95 147q-57 19 -57 81q0 37 24.5 61t61.5 24q38 0 61.5 -23t23.5 -60q0 -86 -174 -261z" />
<glyph unicode="&#x201c;" horiz-adv-x="513" d="M268 751l35 -31q-72 -83 -94 -147q57 -19 57 -80q0 -37 -24.5 -61t-61.5 -24q-38 0 -61.5 23t-23.5 60q0 86 173 260zM496 751l35 -31q-71 -81 -95 -147q57 -19 57 -80q0 -37 -24 -61t-61 -24t-61 23t-24 59q0 46 40.5 107t132.5 154z" />
<glyph unicode="&#x201d;" horiz-adv-x="513" d="M119 398l-35 31q70 78 95 147q-27 8 -42 29.5t-15 50.5q0 37 24.5 61t61.5 24q38 0 61.5 -23t23.5 -60q0 -45 -41 -106.5t-133 -153.5zM347 398l-35 31q70 80 95 147q-58 17 -58 80q0 37 24.5 61t61.5 24t61 -23t24 -59q0 -46 -40.5 -106.5t-132.5 -154.5z" />
<glyph unicode="&#x201e;" horiz-adv-x="513" d="M26 -186l-35 31q69 77 95 147q-57 19 -57 81q0 37 24.5 61t61.5 24q38 0 61.5 -23t23.5 -60q0 -86 -174 -261zM254 -186l-35 31q70 82 95 147q-58 19 -58 81q0 37 24.5 61t61.5 24q38 0 61.5 -23t23.5 -60q0 -85 -173 -261z" />
<glyph unicode="&#x2020;" d="M293 -125h-133l109 547l-204 -14l15 95l201 -14l11 203h129l-54 -203l205 14l-15 -95l-200 14z" />
<glyph unicode="&#x2021;" d="M291 -125h-128l66 287l-205 -14l15 95l200 -13l-3 96l34 96l-205 -14l15 95l201 -14l11 203h129l-54 -203l206 14l-16 -95l-200 14l3 -96l-33 -96l204 13l-15 -95l-200 14z" />
<glyph unicode="&#x2022;" horiz-adv-x="498" d="M266 522q74 0 123.5 -50t49.5 -123q0 -74 -49.5 -124t-123.5 -50q-75 0 -124.5 50t-49.5 126q0 72 50.5 121.5t123.5 49.5z" />
<glyph unicode="&#x2026;" horiz-adv-x="862" d="M116 158q36 0 60 -24t24 -61t-24 -61t-61 -24t-61 24t-24 62q0 36 24.5 60t61.5 24zM403 158q36 0 60 -24t24 -61t-24 -61t-61 -24t-61 24t-24 62q0 36 24.5 60t61.5 24zM690 158q36 0 60 -24t24 -61t-24 -61t-61 -24q-38 0 -61.5 24t-23.5 62q0 36 24.5 60t61.5 24z" />
<glyph unicode="&#x2030;" horiz-adv-x="1204" d="M262 703q76 0 109 -31.5t33 -105.5q0 -115 -49 -190q-40 -65 -144 -65q-77 0 -109.5 32t-32.5 108q0 108 48 186q40 66 145 66zM260 662q-39 0 -60 -80q-25 -96 -25 -168q0 -62 38 -62q39 0 60 78q25 102 25 173q0 59 -38 59zM235 -20l331 732h76l-333 -732h-74zM660 381 q77 0 109.5 -31.5t32.5 -105.5q0 -112 -48 -190q-40 -65 -144 -65q-77 0 -109.5 32t-32.5 107q0 111 48 187q40 66 144 66zM658 340q-38 0 -60 -80q-24 -92 -24 -171q0 -59 37 -59q39 0 60 78q25 98 25 173q0 59 -38 59zM1024 381q77 0 109.5 -31.5t32.5 -105.5 q0 -112 -48 -190q-40 -65 -144 -65q-77 0 -109.5 32t-32.5 107q0 111 48 187q40 66 144 66zM1022 340q-38 0 -60 -80q-24 -92 -24 -172q0 -58 37 -58q39 0 60 78q25 98 25 173q0 59 -38 59z" />
<glyph unicode="&#x2039;" horiz-adv-x="329" d="M189 254l67 -199h-47l-172 199l223 200h49z" />
<glyph unicode="&#x203a;" horiz-adv-x="329" d="M140 255l-66 199h47l171 -199l-222 -200h-49z" />
<glyph unicode="&#x203e;" horiz-adv-x="498" d="M42 785l8 49h583l-8 -49h-583z" />
<glyph unicode="&#x2044;" horiz-adv-x="60" d="M-85 -20h-74l332 732h75z" />
<glyph unicode="&#x2070;" horiz-adv-x="398" d="M269 698q70 0 99.5 -29.5t29.5 -98.5q0 -118 -49 -198q-40 -66 -141 -66q-71 0 -100.5 29.5t-29.5 101.5q0 114 48 193q41 68 143 68zM262 657q-34 0 -53 -80q-26 -104 -26 -174q0 -56 31 -56q34 0 53 78q26 102 26 182q0 50 -31 50z" />
<glyph unicode="&#x2074;" horiz-adv-x="398" d="M234 415h-173l9 59l194 218h116q-12 -50 -24 -129l-14 -85h61l-13 -63h-58l-7 -64l47 -2l-6 -37h-206l6 37l56 2zM246 478l27 149l-127 -149h100z" />
<glyph unicode="&#x2075;" horiz-adv-x="398" d="M66 333l15 91h84l-5 -67q17 -10 34 -10q29 0 50.5 29.5t21.5 69.5q0 25 -14 41t-36 16q-38 0 -73 -30h-45l45 219h252l-15 -75h-201l-18 -86q45 26 97 26q56 0 88 -27.5t32 -75.5q0 -70 -42 -110q-39 -38 -123 -38q-86 0 -147 27z" />
<glyph unicode="&#x2076;" horiz-adv-x="398" d="M381 708v-39q-126 -10 -170 -115q27 14 56 14q55 0 86 -29.5t31 -81.5q0 -71 -42.5 -111t-118.5 -40q-144 0 -144 125q0 76 36.5 139.5t100.5 97.5q70 39 165 40zM244 524q-25 0 -43.5 -36t-18.5 -85q0 -56 34 -56q25 0 43 36.5t18 85.5q0 55 -33 55z" />
<glyph unicode="&#x2077;" horiz-adv-x="398" d="M202 312h-115q24 76 71 138.5t155 162.5h-199l20 79h278l-9 -54q-162 -172 -201 -326z" />
<glyph unicode="&#x2078;" horiz-adv-x="398" d="M163 497q-45 32 -45 81q0 55 41 87.5t110 32.5q58 0 90 -21.5t32 -60.5q0 -57 -72 -92q33 -21 46.5 -41.5t13.5 -50.5q0 -59 -44 -92.5t-121 -33.5q-67 0 -105 25.5t-38 69.5q0 34 21.5 56.5t70.5 39.5zM279 543l4 3q37 26 37 63q0 22 -15.5 35t-42.5 13 q-24 0 -39.5 -12.5t-15.5 -32.5q0 -19 14 -32t58 -37zM196 473l-4 -3q-46 -27 -46 -65q0 -26 20 -42t51 -16q29 0 49 14.5t20 35.5q0 18 -17.5 33t-72.5 43z" />
<glyph unicode="&#x2079;" horiz-adv-x="398" d="M95 296v39q126 9 170 115q-28 -14 -56 -14q-55 0 -86 29.5t-31 81.5q0 71 42.5 111t118.5 40q144 0 144 -125q0 -76 -36.5 -139.5t-100.5 -97.5q-70 -39 -165 -40zM260 657q-25 0 -43 -36.5t-18 -84.5q0 -56 33 -56q25 0 43.5 36t18.5 85q0 56 -34 56z" />
<glyph unicode="&#x2080;" horiz-adv-x="398" d="M220 386q70 0 99.5 -29.5t29.5 -98.5q0 -118 -49 -198q-40 -66 -142 -66q-71 0 -100 29.5t-29 101.5q0 114 48 193q41 68 143 68zM213 345q-34 0 -53 -80q-26 -104 -26 -174q0 -56 31 -56q34 0 53 78q26 102 26 182q0 50 -31 50z" />
<glyph unicode="&#x2081;" horiz-adv-x="398" d="M57 0l6 37l59 2q6 30 18 100l28 169q-33 -17 -89 -34l-12 40q86 28 134 66h85q-17 -82 -28 -157l-8 -49q-16 -107 -18 -135l52 -2l-6 -37h-221z" />
<glyph unicode="&#x2082;" horiz-adv-x="398" d="M16 0l10 60q211 143 211 236q0 22 -11 35t-30 13q-17 0 -36 -11l-17 -67h-85l15 94q61 26 141 26q134 0 134 -88q0 -53 -43.5 -97.5t-175.5 -125.5h177l-14 -75h-276z" />
<glyph unicode="&#x2083;" horiz-adv-x="398" d="M14 20l15 92h84l-5 -67q15 -10 36 -10q31 0 52 26t21 65q0 49 -72 49q-14 0 -28 -1h-9l7 44q13 -1 27 -1q58 0 80 25q21 24 21 60q0 43 -42 43q-20 0 -36 -10l-16 -66h-85l14 92q60 25 132 25q140 0 140 -89q0 -38 -19 -62t-61 -37q56 -24 56 -81q0 -59 -43.5 -91 t-123.5 -32q-68 0 -145 26z" />
<glyph unicode="&#x2084;" horiz-adv-x="398" d="M184 103h-173l9 59l194 218h116q-12 -50 -24 -129l-14 -85h61l-13 -63h-58l-7 -64l47 -2l-6 -37h-206l6 37l56 2zM196 166l27 149l-127 -149h100z" />
<glyph unicode="&#x2085;" horiz-adv-x="398" d="M17 21l15 91h84l-5 -67q17 -10 34 -10q28 0 50 30t22 68q0 25 -14 41.5t-36 16.5q-38 0 -73 -30h-45l45 219h252l-15 -75h-201l-18 -86q45 26 97 26q56 0 88 -27.5t32 -74.5q0 -32 -11.5 -62.5t-30.5 -48.5q-39 -38 -123 -38t-147 27z" />
<glyph unicode="&#x2086;" horiz-adv-x="398" d="M331 396v-39q-126 -10 -170 -115q27 14 56 14q55 0 86 -29.5t31 -81.5q0 -71 -42.5 -111t-118.5 -40q-144 0 -144 125q0 76 36.5 139.5t100.5 97.5q70 39 165 40zM194 212q-25 0 -43.5 -36t-18.5 -85q0 -56 34 -56q25 0 43 36.5t18 85.5q0 55 -33 55z" />
<glyph unicode="&#x2087;" horiz-adv-x="398" d="M152 0h-115q23 75 70.5 138t155.5 163h-199l20 79h278l-9 -54q-162 -172 -201 -326z" />
<glyph unicode="&#x2088;" horiz-adv-x="398" d="M113 185q-45 32 -45 81q0 55 41 87.5t110 32.5q58 0 90 -21.5t32 -60.5q0 -57 -72 -92q33 -21 46.5 -41.5t13.5 -50.5q0 -59 -44 -92.5t-121 -33.5q-67 0 -105 25.5t-38 69.5q0 34 21.5 56.5t70.5 39.5zM229 231l4 3q37 26 37 63q0 22 -15.5 35t-42.5 13 q-24 0 -39.5 -12.5t-15.5 -32.5q0 -19 14 -32t58 -37zM146 161l-4 -3q-46 -26 -46 -65q0 -26 20 -42t51 -16q29 0 49 14.5t20 35.5q0 18 -17.5 33t-72.5 43z" />
<glyph unicode="&#x2089;" horiz-adv-x="398" d="M46 -16v39q126 9 170 115q-28 -14 -56 -14q-55 0 -86 29.5t-31 81.5q0 71 42.5 111t118.5 40q144 0 144 -125q0 -76 -36.5 -139.5t-100.5 -97.5q-70 -39 -165 -40zM211 345q-25 0 -43 -36.5t-18 -85.5q0 -55 33 -55q25 0 43.5 36t18.5 85q0 56 -34 56z" />
<glyph unicode="&#x20ac;" d="M636 660l-37 -69q-58 71 -140 71q-73 0 -126.5 -57.5t-92.5 -179.5h273l-23 -43h-261l-1 -10l-5 -24q-2 -8 -5 -33h237l-22 -43h-218v-28q0 -107 44 -166q36 -49 109 -49q80 0 152 43l20 -36q-84 -48 -181 -48q-175 0 -252 121q-42 66 -45 163h-82l23 43h61q0 9 2 25 q1 14 6 34l1 8h-76l23 43h63q33 101 90 165q101 114 266 114q105 0 197 -44z" />
<glyph unicode="&#x2116;" horiz-adv-x="1140" d="M-15 0l6 36l76 3q12 47 34 181l68 433l-80 3l6 36h241q6 -18 22 -54q36 -73 62 -130l150 -321l46 286q19 129 23 180l-75 3l5 36h222l-5 -36l-77 -3q-14 -65 -33 -182l-75 -471h-123q-10 31 -65 151l-197 419l-55 -349q-20 -131 -24 -182l76 -3l-6 -36h-222zM951 526 q77 0 120.5 -41t43.5 -113q0 -87 -52.5 -140.5t-137.5 -53.5q-78 0 -121.5 41t-43.5 115q0 86 53 139t138 53zM956 488q-40 0 -61 -62q-8 -26 -15 -72.5t-7 -70.5q0 -67 46 -67t63 71q20 82 20 136q0 65 -46 65zM718 63l10 59h347l-10 -59h-347z" />
<glyph unicode="&#x2122;" horiz-adv-x="936" d="M88 312l6 37l58 2l6 29l10 56l20 129q4 29 12 86h-47l-15 -72h-84l18 113h381l-18 -113h-84l8 72h-47q-4 -16 -16 -85l-21 -130q-3 -27 -11 -85l57 -2l-6 -37h-227zM404 312l6 37l46 2q8 32 16 88l35 214l-49 2l6 37h167l60 -232l134 232h169l-6 -37l-49 -2l-35 -217 q-9 -64 -11 -85l46 -2l-6 -37h-203l6 37l46 2q9 41 16 86l23 146l-148 -252h-59l-69 253l-23 -149l-4 -28l-4 -27q-1 -10 -2 -18t-1 -11l45 -2l-6 -37h-146z" />
<glyph unicode="&#x2126;" horiz-adv-x="731" d="M-4 0l9 57h195q-76 58 -111 123t-35 151q0 79 30.5 152.5t83.5 125.5q99 95 257 95q137 0 215 -72.5t78 -201.5q0 -148 -99 -259q-50 -57 -150 -114h195l-9 -57h-286l7 42q65 53 107 124q80 133 80 307q0 86 -36.5 138t-96.5 52q-109 0 -173 -141q-50 -112 -50 -242 q0 -150 81 -238l-6 -42h-286z" />
<glyph unicode="&#x2153;" horiz-adv-x="857" d="M106 312l6 37l59 2q11 56 18 100l28 169q-33 -17 -89 -34l-12 40q86 28 134 66h85q-18 -90 -28 -157l-8 -49q-17 -111 -18 -135l52 -2l-6 -37h-221zM300 -20h-75l332 732h75zM471 20l14 92h85l-5 -67q15 -10 36 -10q31 0 52 26t21 65q0 49 -73 49q-13 0 -27 -1h-9l6 44 q14 -1 28 -1q58 0 80 25q21 25 21 60q0 43 -42 43q-20 0 -36 -10l-17 -66h-84l14 92q62 25 132 25q140 0 140 -89q0 -38 -19 -62t-61 -37q56 -24 56 -80q0 -60 -43.5 -92t-123.5 -32q-67 0 -145 26z" />
<glyph unicode="&#x2154;" horiz-adv-x="857" d="M66 312l10 60q211 142 211 236q0 22 -11 35t-30 13q-15 0 -36 -11l-17 -67h-85l15 94q62 26 141 26q134 0 134 -88q0 -53 -44.5 -98.5t-174.5 -124.5h177l-14 -75h-276zM314 -20h-75l332 732h75zM473 20l14 92h85l-5 -67q15 -10 35 -10q32 0 53 26t21 65q0 49 -73 49 q-14 0 -27 -1h-9l6 44q14 -1 27 -1q58 0 80 25q21 25 21 60q0 43 -42 43q-19 0 -35 -10l-17 -66h-85l15 92q60 25 132 25q139 0 139 -89q0 -74 -79 -99q56 -24 56 -80q0 -60 -43.5 -92t-123.5 -32q-68 0 -145 26z" />
<glyph unicode="&#x2155;" horiz-adv-x="857" d="M105 312l6 37l59 2q11 56 18 100l28 169q-33 -17 -89 -34l-12 40q86 28 134 66h85q-18 -90 -28 -157l-8 -49q-17 -111 -18 -135l52 -2l-6 -37h-221zM299 -20h-74l331 732h75zM473 21l15 91h85l-6 -67q19 -10 34 -10q29 0 51 29.5t22 69.5q0 25 -14 41t-36 16 q-38 0 -73 -30h-46l45 219h252l-15 -75h-201l-17 -86q44 26 97 26q56 0 88 -27.5t32 -74.5q0 -32 -11.5 -62.5t-30.5 -48.5q-39 -38 -123 -38t-148 27z" />
<glyph unicode="&#x2159;" horiz-adv-x="857" d="M97 312l6 37l59 2q11 56 18 100l28 169q-33 -17 -89 -34l-12 40q86 28 134 66h85q-18 -90 -28 -157l-8 -49q-17 -111 -18 -135l52 -2l-6 -37h-221zM304 -20h-75l332 732h75zM780 396v-39q-126 -10 -170 -115q27 14 56 14q55 0 86 -29.5t31 -81.5q0 -71 -42.5 -111 t-118.5 -40q-144 0 -144 125q0 76 36.5 139.5t100.5 97.5q70 39 165 40zM643 212q-25 0 -43.5 -36t-18.5 -85q0 -56 34 -56q25 0 43 36.5t18 85.5q0 55 -33 55z" />
<glyph unicode="&#x215b;" horiz-adv-x="857" d="M106 312l6 37l59 2q11 56 18 100l28 169q-33 -17 -89 -34l-12 40q86 28 134 66h85q-18 -90 -28 -157l-8 -49q-17 -111 -18 -135l52 -2l-6 -37h-221zM306 -20h-75l332 732h75zM570 185q-45 34 -45 81q0 55 41 87.5t110 32.5q58 0 90 -21.5t32 -60.5q0 -57 -72 -92 q33 -21 46.5 -41.5t13.5 -50.5q0 -59 -44 -92.5t-121 -33.5q-67 0 -105 25.5t-38 69.5q0 34 21.5 56.5t70.5 39.5zM686 231l4 3q37 26 37 63q0 22 -15.5 35t-42.5 13q-24 0 -39.5 -12.5t-15.5 -32.5q0 -19 14 -32t58 -37zM603 161l-4 -3q-46 -26 -46 -65q0 -26 20 -42 t51 -16q29 0 49 14.5t20 35.5q0 18 -17.5 33t-72.5 43z" />
<glyph unicode="&#x215c;" horiz-adv-x="857" d="M63 332l15 92h84l-4 -67q13 -10 35 -10q31 0 52 26t21 65q0 49 -73 49q-13 0 -27 -1h-9l7 44q14 -1 27 -1q58 0 80 25q21 24 21 60q0 43 -42 43q-20 0 -36 -10l-16 -66h-85l14 92q62 25 132 25q140 0 140 -89q0 -38 -18.5 -61.5t-61.5 -37.5q56 -24 56 -80 q0 -60 -43.5 -92t-123.5 -32q-68 0 -145 26zM322 -20h-74l332 732h75zM572 185q-46 33 -46 81q0 55 41 87.5t110 32.5q58 0 90 -21.5t32 -60.5q0 -30 -16.5 -51.5t-54.5 -40.5q33 -21 46.5 -41.5t13.5 -50.5q0 -59 -44 -92.5t-121 -33.5q-67 0 -105 25.5t-38 69.5 q0 34 21.5 56.5t70.5 39.5zM688 231l3 3q37 26 37 63q0 22 -15.5 35t-42.5 13q-24 0 -39.5 -12.5t-15.5 -32.5q0 -19 14 -32.5t59 -36.5zM605 161l-5 -3q-45 -27 -45 -65q0 -26 20 -42t51 -16q29 0 49 14.5t20 35.5q0 18 -17.5 32.5t-72.5 43.5z" />
<glyph unicode="&#x215d;" horiz-adv-x="857" d="M66 333l15 91h84l-5 -67q17 -10 34 -10q29 0 50.5 29.5t21.5 69.5q0 25 -14 41t-36 16q-38 0 -73 -30h-45l45 219h252l-15 -75h-201l-18 -86q45 26 97 26q56 0 88 -27.5t32 -75.5q0 -70 -42 -110q-39 -38 -123 -38q-86 0 -147 27zM322 -20h-75l332 732h75zM572 185 q-46 33 -46 81q0 55 41 87.5t110 32.5q58 0 90 -21.5t32 -60.5q0 -30 -17 -51t-55 -41q34 -21 47 -41.5t13 -50.5q0 -59 -44 -92.5t-121 -33.5q-67 0 -105 25.5t-38 69.5q0 34 21.5 56.5t71.5 39.5zM687 231l4 3q37 26 37 63q0 22 -15.5 35t-42.5 13q-24 0 -39.5 -12.5 t-15.5 -32.5q0 -19 14 -32t58 -37zM604 161l-4 -3q-46 -26 -46 -65q0 -26 20 -42t51 -16q29 0 49 14.5t20 35.5q0 18 -17.5 33t-72.5 43z" />
<glyph unicode="&#x215e;" horiz-adv-x="857" d="M203 312h-115q24 76 71 138.5t155 162.5h-199l20 79h278l-9 -54q-162 -172 -201 -326zM268 -20h-74l331 732h76zM543 185q-46 32 -46 81q0 55 41 87.5t110 32.5q58 0 90 -21.5t32 -60.5q0 -57 -72 -92q33 -21 46.5 -41.5t13.5 -50.5q0 -59 -44 -92.5t-121 -33.5 q-67 0 -105 25.5t-38 69.5q0 34 22 56.5t71 39.5zM658 231l4 3q37 26 37 63q0 22 -15.5 35t-42.5 13q-24 0 -39.5 -12.5t-15.5 -32.5q0 -19 14 -32t58 -37zM575 161l-4 -3q-46 -26 -46 -65q0 -26 20 -42t51 -16q29 0 49 14.5t20 35.5q0 18 -17 32.5t-73 43.5z" />
<glyph unicode="&#x2202;" d="M167 700l15 39q152 -19 236 -113q54 -60 84.5 -141t30.5 -166q0 -157 -73 -244t-205 -87q-103 0 -159.5 55t-56.5 154q0 121 73 202q63 70 159 70q79 0 122 -46q-17 111 -76 183.5t-150 93.5zM309 420q-55 0 -87 -91q-30 -80 -30 -176q0 -127 65 -127q59 0 94 98 q29 82 29 167q0 129 -71 129z" />
<glyph unicode="&#x2206;" d="M550 0h-606q19 31 28 49q18 33 52 97l218 411q60 114 69 135h90q3 -24 37 -183l85 -394q12 -51 15 -65q4 -16 12 -50zM376 56l-94 463l-242 -463h336z" />
<glyph unicode="&#x220f;" horiz-adv-x="688" d="M-77 -155l6 36l81 3q20 92 33 180l81 509q1 6 16 109q1 7 3.5 31t4.5 40l-81 3l6 35h712l-5 -35l-81 -3q-15 -76 -34 -180l-80 -509q-4 -23 -5 -37q-4 -25 -10 -72q-8 -52 -9 -71l80 -3l-5 -36h-317l5 36l77 3q23 113 33 180l79 504q12 63 16 109q5 33 9 71h-230 q-8 -30 -9 -42q-2 -10 -5.5 -28t-4.5 -25q-2 -11 -5.5 -31.5t-5.5 -29.5l-4 -24l-80 -504q-1 -6 -2.5 -18.5t-2.5 -18.5q-9 -63 -10 -72q-7 -52 -8 -71l74 -3l-5 -36h-317z" />
<glyph unicode="&#x2211;" horiz-adv-x="575" d="M-46 -173l9 55l312 419l-174 449l9 53h530l-31 -193h-112l16 141h-267l149 -398l-323 -430h317l24 117h112l-34 -213h-537z" />
<glyph unicode="&#x2212;" d="M35 203l17 105h487l-17 -105h-487z" />
<glyph unicode="&#x221a;" d="M142 0l-40 307l-64 3l6 36h195l25 -231l208 435q81 173 127 278h265l-7 -43h-219l-371 -785h-125z" />
<glyph unicode="&#x221e;" horiz-adv-x="809" d="M393 183q-52 -55 -91 -74.5t-97 -19.5q-76 0 -117.5 38t-41.5 109q0 77 44 132q53 66 153 66q111 0 176 -95q47 52 89.5 73.5t97.5 21.5q77 0 118.5 -37.5t41.5 -107.5q0 -91 -54 -145.5t-143 -54.5q-115 0 -176 94zM354 261l-12 14q-52 58 -99 58q-35 0 -59 -24.5 t-24 -60.5q0 -26 16.5 -42t43.5 -16q25 0 50 12t66 44zM457 261l14 -15q53 -56 98 -56q35 0 59 24.5t24 59.5q0 27 -16.5 43t-43.5 16q-47 0 -118 -58z" />
<glyph unicode="&#x222b;" horiz-adv-x="372" d="M-52 -140l19 34q28 -14 47 -14q25 0 38 20.5t21 71.5l100 634q11 66 19 92.5t24 47.5q42 53 127 53q55 0 109 -27l-18 -34q-28 14 -47 14q-25 0 -38.5 -20.5t-21.5 -71.5l-101 -638q-10 -62 -18 -88.5t-24 -47.5q-42 -53 -127 -53q-56 0 -109 27z" />
<glyph unicode="&#x2248;" d="M107 264l-71 46q49 76 88.5 109t80.5 33q26 0 49 -9t81 -43q56 -33 78 -33q21 0 41 17.5t49 59.5l68 -44q-45 -77 -82.5 -109.5t-80.5 -32.5q-33 0 -58 10t-96 52q-38 23 -58 23t-38 -16t-51 -63zM75 66l-71 46q49 75 88.5 108t80.5 33q27 0 50 -9t80 -43q56 -32 79 -32 q21 0 40.5 17t48.5 60l68 -45q-45 -77 -82.5 -109t-80.5 -32q-32 0 -60.5 11.5t-92.5 50.5q-38 22 -58 22t-39 -16t-51 -62z" />
<glyph unicode="&#x2260;" d="M20 106l17 106h160l63 87h-209l17 106h269l95 134l80 -52l-58 -82h101l-17 -106h-160l-63 -87h209l-17 -106h-269l-95 -134l-80 52l58 82h-101z" />
<glyph unicode="&#x2261;" d="M66 394l16 105h488l-17 -105h-487zM35 200l17 105h487l-17 -105h-487zM4 7l17 105h487l-17 -105h-487z" />
<glyph unicode="&#x2264;" d="M222 341l310 -82l-17 -106l-465 143l16 100l510 143l-18 -115zM3 0l17 106h487l-17 -106h-487z" />
<glyph unicode="&#x2265;" d="M381 349l-310 82l18 108l464 -143l-15 -100l-511 -143l18 114zM3 0l17 106h487l-17 -106h-487z" />
<glyph unicode="&#x22c5;" horiz-adv-x="287" d="M149 373q36 0 60 -24t24 -61t-24 -61t-61 -24q-38 0 -61.5 24t-23.5 62q0 36 24.5 60t61.5 24z" />
<glyph unicode="&#x25ca;" d="M301 -16l-296 362l296 362l297 -362zM301 145l160 201l-160 201l-159 -201z" />
<glyph unicode="&#xe000;" horiz-adv-x="510" d="M0 510h510v-510h-510v510z" />
<glyph unicode="&#xea3f;" horiz-adv-x="481" d="M247 399l-39 29q59 79 74 145q-70 15 -70 81q0 39 24 63t62 24t61.5 -24t23.5 -64q0 -95 -136 -254z" />
<glyph unicode="&#xea4e;" horiz-adv-x="0" d="M96 785l7 43h581l-7 -43h-581z" />
<glyph unicode="&#xea4f;" d="M495 759l17 -28q-39 -28 -78.5 -67.5t-60.5 -74.5h-127q-16 0 -16 7q0 13 37.5 43.5t84.5 56.5q57 30 143 63z" />
<glyph unicode="&#xea67;" horiz-adv-x="481" d="M246 399l-39 29q59 79 74 145q-70 15 -70 81q0 39 24 63t62 24t61.5 -24t23.5 -64q0 -95 -136 -254z" />
<glyph unicode="&#xf6be;" horiz-adv-x="331" d="M63 511l220 6q-34 -189 -48 -276l-37 -230q-18 -124 -62 -169q-57 -60 -183 -60q-26 0 -61 3l8 38q75 0 106.5 43.5t51.5 176.5l39 250q18 113 24 180l-64 3z" />
<glyph unicode="&#xf6c3;" horiz-adv-x="498" d="M71 -229l-17 29q110 86 118 163h114q19 0 19 -11q0 -23 -28.5 -55.5t-74.5 -60.5q-32 -20 -131 -65z" />
<glyph unicode="&#xf6c9;" horiz-adv-x="498" d="M241 735l-17 28q39 27 78.5 67t60.5 75h128q16 0 16 -7q0 -8 -19.5 -27t-49.5 -40q-68 -48 -197 -96z" />
<glyph unicode="&#xf6ca;" horiz-adv-x="498" d="M184 896l19 29q40 -15 76.5 -41t56.5 -54q69 64 163 95l16 -29q-29 -22 -63 -64.5t-50 -76.5h-147q-7 34 -28.5 77t-42.5 64z" />
<glyph unicode="&#xf6cb;" horiz-adv-x="498" d="M232 909q34 0 55.5 -21.5t21.5 -55.5t-21.5 -56t-55.5 -22q-35 0 -56.5 22t-21.5 57q0 32 22 54t56 22zM451 909q34 0 55.5 -21.5t21.5 -55.5t-21.5 -56t-55.5 -22q-35 0 -56.5 22t-21.5 57q0 32 22 54t56 22z" />
<glyph unicode="&#xf6ce;" horiz-adv-x="498" d="M444 763l-18 -28q-92 38 -149 80q-28 21 -48 45t-20 35q0 10 18 10h118q11 -35 39 -75.5t60 -66.5z" />
<glyph unicode="&#xf6cf;" horiz-adv-x="498" d="M176 735l-12 28q36 28 70 68t51 74h122q17 0 17 -8q0 -13 -34 -43.5t-77 -55.5q-66 -36 -137 -63zM370 735l-12 28q37 28 70.5 67.5t50.5 74.5h122q17 0 17 -8q0 -13 -34 -43.5t-77 -55.5q-49 -28 -137 -63z" />
<glyph unicode="&#xf6d0;" horiz-adv-x="498" d="M159 796l10 61h353l-10 -61h-353z" />
<glyph unicode="&#xf6f4;" horiz-adv-x="498" d="M452 777h36q-7 -85 -50.5 -126.5t-125.5 -41.5q-146 0 -146 114q0 23 5 54h36q-1 -3 -1 -8q0 -39 24.5 -54t88.5 -15q65 0 92.5 16t40.5 61z" />
<glyph unicode="&#xf6f5;" horiz-adv-x="498" d="M161 751l19 29q40 -15 76.5 -41t56.5 -54q69 64 163 95l16 -29q-29 -22 -63 -64.5t-50 -76.5h-147q-7 35 -28 77t-43 64z" />
<glyph unicode="&#xf6f6;" horiz-adv-x="498" d="M474 620l-19 -29q-40 14 -76.5 40.5t-56.5 54.5q-69 -64 -163 -95l-16 29q28 21 62.5 64t50.5 77h147q7 -34 28.5 -77t42.5 -64z" />
<glyph unicode="&#xf6f7;" horiz-adv-x="498" d="M317 758q35 0 57 -22t22 -57t-22 -57.5t-57 -22.5t-57.5 22.5t-22.5 58.5q0 34 22.5 56t57.5 22z" />
<glyph unicode="&#xf6f8;" horiz-adv-x="498" d="M154 591l-12 28q81 63 121 142h122q17 0 17 -8q0 -13 -34 -43.5t-77 -55.5q-58 -32 -137 -63zM348 591l-12 28q37 29 70.5 68t50.5 74h122q17 0 17 -8q0 -13 -34 -43.5t-77 -55.5q-62 -34 -137 -63z" />
<glyph unicode="&#xf6f9;" horiz-adv-x="510" d="M-9 0l6 36l65 3q12 56 23 120l4 23l-78 -45l8 51l78 45l16 103q12 80 13 89q6 48 8 68l2 9l-65 3l6 36h286l-5 -36l-70 -3q-8 -37 -25 -140l-6 -37l141 81l-8 -51l-141 -81l-12 -75q-4 -26 -6 -40q-4 -44 -11 -79q-5 -33 -5 -41h123l23 114h114l-24 -153h-460z" />
<glyph unicode="&#xf6fa;" horiz-adv-x="834" d="M759 0h-404q-147 0 -208 32q-94 49 -94 187q0 80 27 147.5t76 107.5q45 38 101 52.5t153 14.5h417l-23 -146h-114l13 107h-116q-6 -23 -26 -141l-10 -65h166l-8 -46h-165l-8 -51q-3 -19 -23 -160h133l22 108h115zM435 502h-17q-101 0 -152 -71q-29 -39 -47 -105t-18 -134 q0 -82 31.5 -117.5t104.5 -35.5h24q10 38 25 140l26 164q6 38 10 66q1 4 10 69q1 13 3 24z" />
<glyph unicode="&#xf6fb;" horiz-adv-x="499" d="M286 -180l2 -34q-41 -15 -91 -15q-124 0 -124 84q0 46 38 79.5t126 65.5h56q-55 -32 -79 -64.5t-24 -73.5q0 -49 55 -49q17 0 41 7z" />
<glyph unicode="&#xf6fc;" horiz-adv-x="498" d="M318 792q46 0 76 -28.5t30 -72.5t-30 -72.5t-76 -28.5q-47 0 -76.5 28.5t-29.5 73.5q0 43 30 71.5t76 28.5zM318 750q-26 0 -41.5 -16t-15.5 -43q0 -28 15 -43.5t42 -15.5q26 0 41.5 16t15.5 43t-15.5 43t-41.5 16z" />
<glyph unicode="&#xf6fd;" horiz-adv-x="511" d="M31 27l15 126h115l-8 -101q32 -23 71 -23q40 0 68 25.5t28 63.5q0 28 -13 45.5t-45 33.5q-104 50 -137 76q-51 42 -51 111q0 77 57.5 122.5t155.5 45.5q100 0 182 -40l-14 -118h-115l6 99q-21 18 -59 18t-64 -24t-26 -60q0 -31 20.5 -52t80.5 -49q89 -44 118.5 -76.5 t29.5 -87.5q0 -75 -54 -123q-58 -51 -172 -51q-106 0 -189 39zM169 751l18 29q91 -34 134 -95q69 64 163 95l16 -29q-29 -21 -63.5 -64t-50.5 -77h-146q-7 34 -28.5 77t-42.5 64z" />
<glyph unicode="&#xf6fe;" horiz-adv-x="498" d="M469 750h35q-28 -144 -120 -144q-22 0 -39.5 5t-98.5 34q-25 9 -40 9q-27 0 -40 -47h-37q14 68 43 105.5t68 37.5q32 0 105 -26q59 -22 80 -22q17 0 27 11t17 37z" />
<glyph unicode="&#xf6ff;" horiz-adv-x="551" d="M-2 0l8 48q14 16 114 139l145 181q19 22 32 42l39 49q23 29 32 43h-163l-22 -107h-115l24 146h450l-8 -48q-10 -13 -11 -14l-35 -42l-80 -100l-114 -143q-26 -33 -34 -44q-13 -18 -39 -50q-13 -17 -26.5 -34.5t-20.5 -26.5h184l23 114h115l-24 -153h-474zM200 751l19 29 q40 -15 76.5 -41t56.5 -54q69 64 163 95l16 -29q-29 -22 -62.5 -64t-50.5 -77h-147q-7 35 -28 77.5t-43 63.5z" />
<glyph unicode="&#xf730;" horiz-adv-x="621" d="M347 552q115 0 174.5 -56t59.5 -166q0 -71 -21 -137t-58 -110q-77 -95 -223 -95q-234 0 -234 223q0 69 21.5 136t57.5 111q78 94 223 94zM349 511q-82 0 -120 -129q-35 -118 -35 -223q0 -130 83 -130q81 0 121 131q34 113 34 223q0 128 -83 128z" />
<glyph unicode="&#xf731;" horiz-adv-x="475" d="M41 0l5 36l97 3q11 42 33 180l13 77q11 67 23 157q-57 -39 -137 -68l-15 40q126 48 202 116h117q-16 -73 -39 -215l-16 -101q-19 -124 -25 -186l86 -3l-5 -36h-339z" />
<glyph unicode="&#xf732;" horiz-adv-x="552" d="M6 0l14 86q120 74 209 147q79 65 111 110.5t32 92.5q0 32 -21 52t-55 20q-38 0 -88 -25l-32 -123h-113l23 144q134 49 242 49q93 0 145 -34t52 -95q0 -55 -37 -98.5t-134 -102.5q-93 -57 -223 -116h336l-21 -107h-440z" />
<glyph unicode="&#xf733;" horiz-adv-x="549" d="M145 183l7 46q10 -1 22 -1q103 0 142 52q19 24 31 65t12 79q0 87 -73 87q-37 0 -75 -22l-30 -124h-113l23 148q102 39 203 39q104 0 158 -40.5t54 -118.5q0 -156 -195 -180q70 -7 108 -47.5t38 -108.5q0 -98 -74 -161q-72 -60 -208 -60q-119 0 -200 35l34 57 q50 -45 123 -45q74 0 122.5 54.5t48.5 139.5q0 55 -31.5 80.5t-98.5 25.5h-28z" />
<glyph unicode="&#xf734;" horiz-adv-x="583" d="M424 46l-5 -29q-2 -19 -6 -49t-5 -40l-9 -79h-160q31 136 35 175l3 22h-277l13 85l355 410h139q-18 -80 -41 -225l-28 -177h101l-21 -93h-94zM294 139l55 300l-256 -300h201z" />
<glyph unicode="&#xf735;" horiz-adv-x="545" d="M55 162l79 379h372l-25 -115h-317l-42 -205q84 71 177 71q82 0 127 -47t45 -133q0 -127 -80.5 -201t-219.5 -74q-108 0 -180 40l34 60q53 -53 118 -53q91 0 141 90q33 60 33 136q0 107 -87 107q-56 0 -124 -55h-51z" />
<glyph unicode="&#xf736;" horiz-adv-x="578" d="M533 722v-39q-117 -12 -189 -77t-110 -193q48 42 112 42q85 0 134 -52.5t49 -142.5q0 -124 -71 -201q-68 -71 -186 -71q-109 0 -165.5 56t-56.5 165q0 115 49.5 226.5t129.5 178.5q122 100 304 108zM318 408q-54 0 -86 -71q-40 -91 -40 -200q0 -56 15 -82t48 -26 q57 0 89 80q35 90 35 192q0 107 -61 107z" />
<glyph unicode="&#xf737;" horiz-adv-x="474" d="M152 -151h-166q36 126 133.5 262.5t278.5 315.5h-343l28 114h422l-12 -72q-133 -160 -221.5 -321.5t-119.5 -298.5z" />
<glyph unicode="&#xf738;" horiz-adv-x="578" d="M210 332q-49 37 -69.5 73.5t-20.5 85.5q0 93 67.5 153t172.5 60q85 0 135.5 -38t50.5 -102q0 -54 -35 -93.5t-117 -79.5q55 -39 76 -60q49 -49 49 -124q0 -98 -71.5 -158.5t-189.5 -60.5q-102 0 -162.5 45.5t-60.5 122.5q0 62 39.5 102t135.5 74zM362 414l7 4 q36 26 57.5 66t21.5 83q0 45 -24.5 70.5t-67.5 25.5q-50 0 -83.5 -32t-33.5 -79q0 -31 17 -54t64 -55q2 -1 19.5 -13t22.5 -16zM242 311l-5 -2q-45 -26 -71.5 -68.5t-26.5 -91.5q0 -55 32 -87t87 -32q58 0 97 34.5t39 84.5q0 32 -17 56t-66 60q-48 33 -69 46z" />
<glyph unicode="&#xf739;" horiz-adv-x="578" d="M50 -182v40q116 11 189 76.5t110 192.5q-48 -41 -112 -41q-85 0 -134 52t-49 142q0 124 71 201q68 71 185 71q110 0 166.5 -56.5t56.5 -165.5q0 -114 -49.5 -225.5t-130.5 -178.5q-117 -98 -303 -108zM328 511q-59 0 -88 -80q-36 -94 -36 -192q0 -106 61 -106q55 0 86 71 q40 92 40 194q0 59 -15 86t-48 27z" />
<glyph unicode="&#xf760;" horiz-adv-x="498" d="M421 619l-18 -28q-92 38 -149 80q-28 21 -48 45t-20 35q0 10 18 10h118q11 -35 39 -75.5t60 -66.5z" />
<glyph unicode="&#xf761;" horiz-adv-x="537" d="M285 159h-160l-7 -14q-37 -82 -47 -107l57 -2l-6 -36h-173l6 36l47 2q35 59 74 135l110 215q43 83 75 153h92q10 -61 29 -150l42 -193q26 -116 38 -160l50 -2l-6 -36h-264l6 36l55 2q-6 41 -16 106zM277 200l-34 197l-97 -197h131z" />
<glyph unicode="&#xf762;" horiz-adv-x="583" d="M-3 36l65 3q14 63 28 155l23 142q18 130 23 166l-65 3l6 36h257q112 0 154 -25q52 -32 52 -100q0 -61 -34 -94.5t-107 -45.5q121 -21 121 -119q0 -40 -19.5 -74.5t-53.5 -53.5q-52 -29 -154 -29h-302zM252 295h21q59 0 81 20q39 36 39 107q0 45 -18.5 62.5t-65.5 17.5 h-21q-8 -39 -25 -140zM215 39h20q74 0 105 35q31 39 31 97q0 46 -21.5 65t-72.5 19h-31l-9 -56l-6 -38q-4 -42 -11 -80q-4 -32 -5 -42z" />
<glyph unicode="&#xf763;" horiz-adv-x="580" d="M393 153h118l-20 -129q-78 -36 -182 -36q-127 0 -192.5 58t-65.5 169q0 69 25.5 134.5t69.5 112.5q87 90 229 90q97 0 185 -38l-20 -128h-117l10 111q-24 14 -48 14q-74 0 -129 -93t-55 -217q0 -80 31 -126t86 -46q22 0 48 11z" />
<glyph unicode="&#xf764;" horiz-adv-x="645" d="M-9 0l6 36l65 3q2 9 5.5 26.5t5.5 25.5q15 91 17 101l23 146q14 97 21 154l2 10l-65 3l6 36h217q147 0 208 -32q94 -49 94 -187q0 -89 -33.5 -161.5t-92.5 -111.5q-43 -28 -93 -38.5t-137 -10.5h-249zM215 39h17q100 0 151 71q29 40 47 105.5t18 132.5q0 82 -31.5 118 t-103.5 36h-25q-9 -36 -25 -141l-26 -163q-5 -36 -22 -159z" />
<glyph unicode="&#xf765;" horiz-adv-x="537" d="M-9 0l6 36l65 3q15 61 28 154l23 145q16 108 21 154l2 10l-65 3l6 36h452l-23 -146h-114l12 107h-116q-7 -32 -25 -139l-10 -67h165l-7 -46h-166l-8 -51q-21 -148 -22 -160h132l23 108h114l-23 -147h-470z" />
<glyph unicode="&#xf766;" horiz-adv-x="517" d="M-9 0l6 36l65 3q16 68 28 154l23 143q8 53 13 89q1 9 2.5 23t3 24.5t2.5 19.5l2 10l-65 3l6 36h452l-23 -146h-114l13 107h-117q-4 -15 -9 -47q-6 -34 -9 -52q-3 -13 -7 -41l-10 -65h165l-7 -46h-166l-8 -51q-1 -7 -3.5 -23.5t-3.5 -25.5q-4 -31 -9 -60q-5 -38 -6 -52 l73 -3l-6 -36h-291z" />
<glyph unicode="&#xf767;" horiz-adv-x="639" d="M342 253h273l-5 -36l-61 -2l-12 -78q-9 -55 -14 -106q-109 -43 -213 -43q-127 0 -193 58.5t-66 170.5q0 149 96 245q89 90 237 90q107 0 212 -43l-19 -119h-118l10 102q-32 19 -71 19q-85 0 -142 -92.5t-57 -232.5q0 -78 34 -118q33 -39 84 -39q31 0 67 18l26 168l-74 2z " />
<glyph unicode="&#xf768;" horiz-adv-x="674" d="M-9 0l6 36l65 3q17 78 28 154l23 142q9 65 13 89q5 33 8 69l2 9l-65 3l6 36h277l-6 -36l-60 -3q-9 -40 -25 -140l-11 -66h182l7 39q16 109 22 167l-58 3l6 36h276l-5 -36l-66 -3q-12 -57 -25 -140l-26 -163l-6 -41q-9 -58 -11 -78q-3 -15 -6 -41l66 -3l-6 -36h-277l6 36 l59 3q13 59 28 154l10 62h-182l-9 -56l-6 -41q-1 -10 -3.5 -27t-3.5 -25q-3 -17 -4 -26q-5 -33 -5 -41l59 -3l-6 -36h-277z" />
<glyph unicode="&#xf769;" horiz-adv-x="346" d="M-9 0l6 36l65 3q17 79 28 154l23 143q1 13 13 88q2 12 8 69l2 9l-65 3l6 36h283l-6 -36l-66 -3q-5 -20 -25 -140l-26 -163q-3 -18 -6 -39q-1 -10 -5 -36.5t-6 -43.5q-4 -33 -5 -41l65 -3l-6 -36h-283z" />
<glyph unicode="&#xf76a;" horiz-adv-x="356" d="M84 541h286l-6 -36l-66 -3q-6 -21 -25 -139l-35 -219q-10 -62 -16.5 -85t-19.5 -43q-57 -89 -223 -89q-30 0 -59 5l6 38q11 -2 25 -2q67 0 100 44q25 31 43 144l29 182q7 45 15 106q5 40 8 58l-67 3z" />
<glyph unicode="&#xf76b;" horiz-adv-x="583" d="M246 268l-11 -69q0 -4 -2.5 -19t-7 -46t-9.5 -63q-1 -8 -3 -32l51 -3l-5 -36h-268l6 36l65 3q13 54 28 154l23 143q17 118 21 157l2 9l-65 3l6 36h275l-6 -36l-60 -3l-6 -30l-14 -78l-5 -32l-12 -73l221 213l-51 3l6 36h183l-6 -36l-51 -3q-33 -25 -97 -83l-97 -87 l158 -294l48 -2l-5 -36h-183l-16 36l2 2z" />
<glyph unicode="&#xf76c;" horiz-adv-x="510" d="M-9 0l6 36l65 3q18 88 28 153l23 144q10 67 13 88q5 34 8 69l2 9l-65 3l6 36h286l-5 -36l-70 -3q-7 -29 -25 -140l-26 -163q-4 -26 -6 -40q-3 -30 -11 -79q-5 -33 -5 -41h123l23 114h114l-24 -153h-460z" />
<glyph unicode="&#xf76d;" horiz-adv-x="764" d="M-9 0l6 35l62 3q22 109 28 146l36 217q12 73 14 101l-66 3l6 36h232q6 -42 23 -128l39 -205l112 223q47 93 54 110h241l-6 -36l-66 -3q-8 -38 -25 -140l-26 -164q-1 -6 -2.5 -19t-2.5 -19q-7 -42 -12 -79q-4 -34 -5 -43l65 -3l-6 -35h-281l5 35l65 3q16 73 28 154l30 186 q7 47 17 89l-220 -439h-68l-84 431l-44 -277q-17 -111 -18 -144l62 -3l-6 -35h-187z" />
<glyph unicode="&#xf76e;" horiz-adv-x="616" d="M-9 0l6 36l65 3q7 32 25 136l33 204q7 48 16 123l-65 3l6 36h212q15 -43 54 -131l108 -252l31 195q15 100 18 149l-66 3l5 36h193l-5 -36l-65 -3q-10 -34 -28 -150l-56 -352h-113q-3 13 -48 122l-137 312l-37 -237l-10 -72q-2 -14 -4.5 -35t-3.5 -27l-1 -24l66 -3l-6 -36 h-193z" />
<glyph unicode="&#xf76f;" horiz-adv-x="649" d="M355 552q118 0 181.5 -61t63.5 -175q0 -138 -80 -232q-81 -96 -221 -96q-149 0 -210 96q-36 58 -36 143q0 133 81 230q80 95 221 95zM357 511q-65 0 -108 -88q-48 -98 -48 -222q0 -172 95 -172q65 0 108 89q48 99 48 224q0 82 -24.5 125.5t-70.5 43.5z" />
<glyph unicode="&#xf770;" horiz-adv-x="552" d="M-9 0l6 36l65 3q15 68 28 154l23 143l7 51l8 56l6 49l2 10l-65 3l6 36h239q121 0 166 -27q59 -34 59 -110q0 -99 -75 -141q-54 -32 -161 -32h-63l-5 -31q-4 -26 -5 -39q-4 -26 -12 -80q-4 -21 -5 -42l71 -3l-6 -36h-289zM247 271h16q65 0 94 33q35 41 35 112 q0 47 -19.5 66.5t-65.5 19.5h-21q-13 -66 -25 -140z" />
<glyph unicode="&#xf771;" horiz-adv-x="649" d="M459 -101l-1 -42q-28 -6 -57 -6q-85 0 -133.5 36.5t-68.5 113.5q-68 20 -107 79.5t-39 144.5q0 137 81 232q80 95 221 95q121 0 183 -63q62 -65 62 -173q0 -82 -31.5 -154t-87.5 -116q-53 -43 -130 -55q23 -94 84 -94q13 0 24 2zM357 511q-65 0 -108 -88 q-48 -98 -48 -222q0 -172 95 -172q65 0 108 89q48 99 48 224q0 82 -24.5 125.5t-70.5 43.5z" />
<glyph unicode="&#xf772;" d="M-9 0l6 36l65 3q14 61 28 154l23 144q19 121 22 165l-64 3l6 36h264q109 0 155 -29.5t46 -97.5q0 -124 -133 -147q35 -11 47.5 -32t21.5 -83l17 -113l43 -3l-6 -36h-174l-9 78q-10 96 -25 134q-13 32 -58 32h-25l-7 -47q-20 -139 -21 -158l61 -3l-6 -36h-277zM246 284h31 q61 0 86 34q30 39 30 104q0 45 -19 62.5t-67 17.5h-24q-10 -48 -25 -140z" />
</font>
</defs>
</svg>
