<?xml version="1.0" standalone="no"?>
<!DOCTYPE svg PUBLIC "-//W3C//DTD SVG 1.1//EN" "http://www.w3.org/Graphics/SVG/1.1/DTD/svg11.dtd" >
<svg xmlns="http://www.w3.org/2000/svg">
<metadata></metadata>
<defs>
<font id="siemens_sansitalic" horiz-adv-x="500" >
<font-face units-per-em="1000" ascent="800" descent="-200" />
<missing-glyph horiz-adv-x="250" />
<glyph unicode="fi" horiz-adv-x="579" d="M75 0l71 446h-80l10 61h79l6 38q16 101 44 140q38 56 115 56q36 0 77 -14l-16 -61q-27 14 -54 14q-37 0 -57.5 -30t-31.5 -101l-7 -42h116l-9 -61h-116l-71 -446h-76zM374 0l81 507h76l-81 -507h-76zM521 741q24 0 39 -15t15 -39t-15 -39t-39 -15t-39 15t-15 40 q0 23 15.5 38t38.5 15z" />
<glyph unicode="fl" horiz-adv-x="579" d="M75 0l71 446h-80l10 61h79l6 38q16 101 44 140q38 56 115 56q36 0 77 -14l-16 -61q-27 14 -54 14q-37 0 -57.5 -30t-31.5 -101l-7 -42h116l-9 -61h-116l-71 -446h-76zM374 0l116 731h76l-116 -731h-76z" />
<glyph unicode=" "  horiz-adv-x="250" />
<glyph unicode="&#x09;" horiz-adv-x="250" />
<glyph unicode="&#xa0;" horiz-adv-x="250" />
<glyph unicode="!" horiz-adv-x="310" d="M196 183h-64l72 509h81zM142 100q23 0 39 -16t16 -39t-16 -39t-39 -16q-24 0 -39.5 15.5t-15.5 40.5q0 23 16 38.5t39 15.5z" />
<glyph unicode="&#x22;" horiz-adv-x="324" d="M87 490l38 241h76l-38 -241h-76zM236 490l39 241h76l-39 -241h-76z" />
<glyph unicode="#" horiz-adv-x="576" d="M126 0l33 207h-91v61h101l25 157h-91v61h100l33 206h61l-33 -206h122l33 206h60l-32 -206h90v-61h-100l-25 -157h91v-61h-100l-33 -207h-61l33 207h-122l-33 -207h-61zM230 268h121l25 157h-121z" />
<glyph unicode="$" horiz-adv-x="576" d="M48 21l21 71q79 -33 153 -36l44 274q-76 41 -97 59q-52 44 -52 113q0 108 89 163q45 28 124 36l12 73h51l-12 -73q67 -3 146 -30l-26 -70q-63 31 -130 34l-39 -246q68 -34 97 -57q56 -50 56 -128q0 -109 -79 -166q-51 -39 -143 -47l-12 -76h-51l12 76q-77 3 -164 30z M284 411l36 223q-123 -20 -123 -119q0 -35 20.5 -59t66.5 -45zM314 311l-41 -253q62 7 97 45t35 98q0 38 -19.5 61.5t-71.5 48.5z" />
<glyph unicode="%" horiz-adv-x="754" d="M228 698q118 0 118 -130q0 -92 -33 -170q-40 -92 -136 -92q-61 0 -89.5 32.5t-28.5 101.5q0 88 33 166q39 92 136 92zM224 650q-47 0 -73 -61q-29 -67 -29 -148q0 -87 59 -87q23 0 42.5 16.5t30.5 44.5q29 67 29 154q0 81 -59 81zM192 -20l342 732h59l-342 -732h-59z M607 386q118 0 118 -130q0 -92 -33 -170q-40 -92 -136 -92q-61 0 -89.5 32.5t-28.5 101.5q0 88 33 166q39 92 136 92zM603 338q-47 0 -73 -61q-29 -67 -29 -148q0 -87 59 -87q23 0 42.5 16.5t30.5 44.5q29 67 29 154q0 81 -59 81z" />
<glyph unicode="&#x26;" horiz-adv-x="671" d="M497 0l-45 65q-93 -75 -207 -75q-89 0 -139.5 45.5t-50.5 125.5q0 89 62 143q39 34 125 72q-61 95 -61 154q0 74 54.5 123t137.5 49q75 0 118.5 -35.5t43.5 -96.5q0 -84 -78 -142q-37 -28 -120 -66l128 -190q34 38 60.5 91t33.5 100h73q-22 -133 -126 -249l78 -114h-87z M308 408l10 4q137 64 137 151q0 34 -22.5 53.5t-60.5 19.5q-48 0 -79.5 -31t-31.5 -78t47 -119zM414 119l-144 212q-69 -31 -99.5 -69t-30.5 -93q0 -53 31 -83t87 -30q84 0 156 63z" />
<glyph unicode="'" horiz-adv-x="180" d="M89 490l38 241h76l-38 -241h-76z" />
<glyph unicode="(" horiz-adv-x="360" d="M260 -115l-41 -41q-66 69 -103.5 167t-37.5 203q0 149 76 293.5t206 242.5l33 -45q-107 -93 -171 -230t-64 -275q0 -89 27.5 -173.5t74.5 -141.5z" />
<glyph unicode=")" horiz-adv-x="360" d="M114 710l41 40q67 -70 104 -167t37 -202q0 -149 -76 -294t-206 -243l-33 46q106 91 170.5 229t64.5 276q0 89 -27.5 173t-74.5 142z" />
<glyph unicode="*" horiz-adv-x="576" d="M524 534l-147 -12l75 -121l-70 -36l-56 134l-94 -110l-55 55l109 92l-137 57l35 70l129 -79l11 151l77 -12l-36 -147l147 35z" />
<glyph unicode="+" horiz-adv-x="576" d="M249 222h-213l10 61h213l35 224h67l-36 -224h214l-10 -61h-213l-35 -222h-67z" />
<glyph unicode="," horiz-adv-x="288" d="M97 100h92l-119 -222h-75z" />
<glyph unicode="-" horiz-adv-x="311" d="M42 249l10 61h226l-10 -61h-226z" />
<glyph unicode="." horiz-adv-x="288" d="M111 104q25 0 41 -16t16 -41q0 -24 -16 -40.5t-41 -16.5t-41 16.5t-16 41.5q0 23 16.5 39.5t40.5 16.5z" />
<glyph unicode="/" horiz-adv-x="266" d="M-11 -20l250 732h68l-250 -732h-68z" />
<glyph unicode="0" horiz-adv-x="576" d="M347 702q199 0 199 -234q0 -79 -16.5 -165.5t-44.5 -150.5q-71 -162 -227 -162q-101 0 -150 59.5t-49 181.5q0 77 17.5 164.5t46.5 151.5q70 155 224 155zM347 641q-50 0 -90 -32.5t-62 -90.5q-23 -58 -39.5 -146.5t-16.5 -153.5q0 -167 120 -167q50 0 91 34.5t64 97.5 q23 62 37.5 145.5t14.5 151.5q0 79 -30.5 120t-88.5 41z" />
<glyph unicode="1" horiz-adv-x="576" d="M240 0l95 599l-152 -89l-29 65l203 117h70l-109 -692h-78z" />
<glyph unicode="2" horiz-adv-x="576" d="M29 0l11 65q236 193 326 296t90 180q0 46 -34 73t-91 27q-77 0 -170 -53l-9 67q97 47 188 47q92 0 144 -42t52 -116q0 -59 -36 -122t-117 -145q-93 -95 -248 -216h331l-11 -61h-426z" />
<glyph unicode="3" horiz-adv-x="576" d="M30 23l27 63q79 -35 156 -35q80 0 133 48t53 120q0 58 -48.5 88t-140.5 30q-17 0 -44 -3l11 62q17 -2 45 -2q98 0 160 43.5t62 112.5q0 43 -32 67t-90 24q-70 0 -163 -34l-6 63q84 32 174 32q95 0 145 -39.5t50 -113.5q0 -70 -47.5 -118.5t-132.5 -64.5q67 -7 102 -45 t35 -104q0 -100 -73.5 -163.5t-188.5 -63.5q-105 0 -187 33z" />
<glyph unicode="4" horiz-adv-x="576" d="M305 0l32 199h-303l12 71l355 422h90l-68 -432h104l-11 -61h-103l-32 -199h-76zM347 260l57 342l-283 -342h226z" />
<glyph unicode="5" horiz-adv-x="576" d="M45 38l36 60q72 -47 142 -47q81 0 138.5 61.5t57.5 148.5q0 59 -36.5 90.5t-104.5 31.5q-70 0 -168 -42l66 351h365l-11 -61h-286l-38 -201q49 14 96 14q93 0 145 -48.5t52 -136.5q0 -115 -79.5 -192t-196.5 -77q-95 0 -178 48z" />
<glyph unicode="6" horiz-adv-x="576" d="M535 697l-13 -61q-22 5 -50 5q-105 0 -180 -70t-113 -203q66 69 157 69q85 0 133 -49.5t48 -137.5q0 -116 -67.5 -188t-176.5 -72q-98 0 -152.5 55.5t-54.5 155.5q0 102 38.5 208t100.5 176q105 117 264 117q30 0 66 -5zM322 376q-73 0 -124.5 -56.5t-51.5 -136.5 q0 -62 33.5 -97t91.5 -35q73 0 119.5 54.5t46.5 140.5q0 62 -30 96t-85 34z" />
<glyph unicode="7" horiz-adv-x="576" d="M170 0h-92l397 631h-349l10 61h434l-12 -69z" />
<glyph unicode="8" horiz-adv-x="576" d="M233 359q-62 34 -89 71.5t-27 87.5q0 85 61.5 134.5t167.5 49.5q91 0 144 -40.5t53 -109.5q0 -113 -159 -184q70 -38 96.5 -74.5t26.5 -94.5q0 -92 -70 -150.5t-181 -58.5q-94 0 -152.5 48.5t-58.5 127.5q0 74 46 121t142 72zM324 394q25 11 42 22q97 62 97 134 q0 43 -31.5 67t-86.5 24q-68 0 -108 -31.5t-40 -83.5q0 -39 28.5 -69t98.5 -63zM299 332q-91 -25 -132.5 -64.5t-41.5 -100.5q0 -54 34.5 -85t95.5 -31q73 0 122.5 42t49.5 103q0 42 -28.5 72.5t-99.5 63.5z" />
<glyph unicode="9" horiz-adv-x="576" d="M72 -5l13 61q22 -5 50 -5q105 0 179.5 70t112.5 203q-65 -69 -156 -69q-85 0 -133 49.5t-48 137.5q0 115 68 187.5t176 72.5q98 0 152.5 -55.5t54.5 -155.5q0 -102 -38.5 -208t-100.5 -176q-105 -117 -265 -117q-29 0 -65 5zM336 641q-73 0 -119.5 -55t-46.5 -140 q0 -62 30 -96t85 -34q73 0 124.5 56.5t51.5 136.5q0 61 -33.5 96.5t-91.5 35.5z" />
<glyph unicode=":" horiz-adv-x="288" d="M133 104q25 0 41 -16.5t16 -40.5t-16 -40.5t-41 -16.5t-41 16.5t-16 41.5q0 24 16.5 40t40.5 16zM193 480q25 0 41 -16t16 -41q0 -24 -16 -40.5t-41 -16.5t-41 16.5t-16 41.5q0 23 16.5 39.5t40.5 16.5z" />
<glyph unicode=";" horiz-adv-x="288" d="M193 480q25 0 41 -16t16 -41q0 -24 -16 -40.5t-41 -16.5t-41 16.5t-16 41.5q0 23 16.5 39.5t40.5 16.5zM97 100h92l-119 -222h-75z" />
<glyph unicode="&#x3c;" horiz-adv-x="576" d="M117 251l382 -199l-10 -63l-455 239l8 51l531 239l-11 -69z" />
<glyph unicode="=" horiz-adv-x="576" d="M48 294l9 61h493l-9 -61h-493zM25 151l10 61h493l-10 -61h-493z" />
<glyph unicode="&#x3e;" horiz-adv-x="576" d="M459 257l-382 198l10 63l455 -239l-8 -51l-531 -239l11 69z" />
<glyph unicode="?" horiz-adv-x="410" d="M207 180h-66l10 66q10 59 18.5 82t25.5 42t68 60q55 44 73 69.5t18 60.5q0 38 -22 60.5t-60 22.5q-56 0 -144 -47l-11 64q84 44 162 44q74 0 117 -39t43 -106q0 -49 -24 -85.5t-90 -87.5q-65 -50 -82.5 -71.5t-23.5 -57.5zM154 100q23 0 39 -15.5t16 -38.5 q0 -25 -15.5 -40.5t-39.5 -15.5q-23 0 -39 16t-16 39t16 39t39 16z" />
<glyph unicode="@" horiz-adv-x="830" d="M539 77l13 -50q-88 -37 -170 -37q-129 0 -215 87.5t-86 218.5q0 164 121.5 285t287.5 121q132 0 213 -71.5t81 -187.5q0 -115 -62 -198q-32 -42 -76.5 -68t-86.5 -26q-67 0 -69 63v5q-61 -68 -132 -68q-55 0 -88 34.5t-33 92.5q0 46 23 94t64 86q76 71 176 71 q62 0 128 -22l-69 -220q-12 -37 -12 -52q0 -30 25 -30q27 0 60.5 27.5t56.5 68.5q36 64 36 145q0 87 -67 144.5t-169 57.5q-139 0 -244 -105t-105 -244q0 -113 70.5 -184t183.5 -71q67 0 145 33zM498 304l53 167q-24 10 -48 10q-69 0 -127.5 -65t-58.5 -142q0 -33 15.5 -51 t44.5 -18q50 0 95 48q15 16 26 51z" />
<glyph unicode="A" horiz-adv-x="623" d="M434 242h-248l-121 -242h-85l348 692h100l131 -692h-81zM421 308l-31 182q-14 84 -20 130q-23 -51 -26 -58q-10 -22 -35 -72l-90 -182h202z" />
<glyph unicode="B" horiz-adv-x="555" d="M55 0l110 692h94q126 0 181 -24q77 -36 77 -138q0 -77 -40.5 -121t-124.5 -58q74 -9 107.5 -41.5t33.5 -96.5q0 -59 -25.5 -106.5t-71.5 -73.5q-36 -20 -73.5 -26.5t-123.5 -6.5h-144zM195 382h34q112 0 153 30q50 37 50 111q0 73 -61 93q-32 11 -103 11h-34zM145 65h34 q118 0 157 20q34 16 53 51.5t19 80.5q0 58 -40.5 80.5t-147.5 22.5h-34z" />
<glyph unicode="C" horiz-adv-x="567" d="M483 89l21 -66q-76 -33 -162 -33q-130 0 -201.5 77.5t-71.5 219.5q0 169 101 291q103 124 258 124q84 0 158 -30l-21 -66q-67 30 -133 30q-130 0 -211 -121q-67 -97 -67 -231q0 -114 56 -172q51 -56 139 -56q61 0 134 33z" />
<glyph unicode="D" horiz-adv-x="656" d="M55 0l110 692h141q138 0 198 -33q113 -60 113 -228q0 -108 -37 -203.5t-101 -150.5q-49 -43 -110 -60t-163 -17h-151zM145 66h67q151 0 225 78q44 49 69.5 123t25.5 157q0 151 -98 187q-39 15 -145 15h-55z" />
<glyph unicode="E" horiz-adv-x="529" d="M54 0l110 692h356l-11 -66h-276l-38 -242h263l-11 -66h-263l-40 -252h291l-10 -66h-371z" />
<glyph unicode="F" horiz-adv-x="511" d="M54 0l110 692h358l-11 -66h-278l-38 -242h264l-10 -66h-265l-50 -318h-80z" />
<glyph unicode="G" horiz-adv-x="673" d="M599 357l-53 -335q-102 -32 -201 -32q-142 0 -214 88q-62 75 -62 192q0 165 91 289q104 143 279 143q101 0 200 -42l-24 -65q-89 41 -171 41q-133 0 -213 -114q-77 -111 -77 -247q0 -103 52.5 -161t147.5 -58q62 0 121 20l34 215h-132l11 66h211z" />
<glyph unicode="H" horiz-adv-x="673" d="M56 0l110 692h79l-48 -305h321l48 305h80l-110 -692h-79l50 321h-320l-51 -321h-80z" />
<glyph unicode="I" horiz-adv-x="260" d="M50 0l110 692h79l-109 -692h-80z" />
<glyph unicode="J" horiz-adv-x="362" d="M265 692h80l-77 -484q-12 -75 -25 -111.5t-37 -59.5q-46 -47 -133 -47q-65 0 -113 23l18 67q41 -24 88 -24q65 0 91 45q19 31 40 160z" />
<glyph unicode="K" horiz-adv-x="580" d="M57 0l110 692h79l-51 -328l331 328h93l-334 -334l235 -358h-94l-233 354l-56 -354h-80z" />
<glyph unicode="L" horiz-adv-x="474" d="M54 0l110 692h79l-99 -626h291l-10 -66h-371z" />
<glyph unicode="M" horiz-adv-x="852" d="M59 0l110 692h108l99 -485q6 -32 15 -75t11 -55q5 11 61 123l252 492h108l-110 -692h-78l90 569q-41 -89 -82 -169l-208 -400h-94l-86 395q-11 52 -31 174l-90 -569h-75z" />
<glyph unicode="N" horiz-adv-x="690" d="M56 0l110 692h89l189 -441q21 -49 52 -134q6 45 7 52l5 38q2 12 6 38l70 447h79l-110 -692h-90l-190 445q-27 63 -50 127q-1 -5 -8 -53l-4 -32l-5 -33l-72 -454h-78z" />
<glyph unicode="O" horiz-adv-x="720" d="M419 702q146 0 211 -103q49 -81 49 -187q0 -158 -90 -284q-98 -138 -259 -138q-143 0 -208 100q-51 79 -51 194q0 152 90 280q97 138 258 138zM418 636q-120 0 -193 -115q-31 -47 -50 -116.5t-19 -134.5q0 -101 46.5 -157.5t129.5 -56.5q120 0 194 115q31 49 49.5 117.5 t18.5 136.5q0 98 -47 154.5t-129 56.5z" />
<glyph unicode="P" horiz-adv-x="509" d="M54 0l110 692h120q115 0 167 -32q69 -42 69 -141q0 -59 -24 -108.5t-68 -78.5q-61 -40 -187 -40h-61l-46 -292h-80zM191 358h30q118 0 162 38q52 44 52 121q0 60 -35.5 84.5t-123.5 24.5h-43z" />
<glyph unicode="Q" horiz-adv-x="720" d="M537 -122l-38 -49q-37 22 -91 68t-96 93q-98 8 -150 52q-43 38 -67 100.5t-24 138.5q0 157 90 283q98 138 258 138q135 0 201 -89q59 -80 59 -201q0 -157 -92 -284q-80 -110 -186 -128q54 -64 136 -122zM418 636q-120 0 -193 -115q-31 -48 -50 -116.5t-19 -133.5 q0 -102 45.5 -158.5t127.5 -56.5q120 0 195 115q70 105 70 256q0 97 -47 153t-129 56z" />
<glyph unicode="R" horiz-adv-x="538" d="M55 0l110 692h127q118 0 173 -39t55 -123q0 -95 -64 -148q-22 -18 -44 -27.5t-63 -18.5q38 -16 53.5 -40t32.5 -97l47 -199h-84l-40 178q-18 79 -46.5 104t-100.5 25h-27l-49 -307h-80zM194 373h35q103 0 151 34q55 39 55 119q0 55 -35 77.5t-120 22.5h-46z" />
<glyph unicode="S" horiz-adv-x="520" d="M31 23l21 71q86 -38 160 -38q68 0 112.5 41.5t44.5 105.5q0 40 -22.5 65t-94.5 62q-89 46 -118 78q-35 38 -35 95q0 88 64.5 143.5t167.5 55.5q80 0 165 -33l-26 -69q-71 36 -138 36q-64 0 -106 -35t-42 -89q0 -37 23.5 -62t87.5 -56q90 -43 121 -78q38 -43 38 -106 q0 -97 -69.5 -158.5t-178.5 -61.5q-85 0 -175 33z" />
<glyph unicode="T" horiz-adv-x="515" d="M176 0l99 626h-196l10 66h475l-10 -66h-199l-99 -626h-80z" />
<glyph unicode="U" horiz-adv-x="665" d="M160 692h80l-67 -420q-9 -59 -9 -93q0 -123 137 -123q106 0 156 71q28 41 50 178l61 387h76l-63 -397q-17 -106 -31 -149t-44 -77q-70 -79 -206 -79q-101 0 -158.5 46t-57.5 126q0 51 16 155z" />
<glyph unicode="V" horiz-adv-x="594" d="M205 0l-124 692h84l81 -474q14 -84 21 -144q20 42 29 63q21 45 44 91l228 464h84l-344 -692h-103z" />
<glyph unicode="W" horiz-adv-x="859" d="M155 0l-41 692h82l23 -467q3 -93 3 -143q18 57 51 143l175 467h100l31 -464q5 -77 5 -141q12 39 49 138l172 467h79l-261 -692h-103l-30 462q-5 83 -5 144q-18 -55 -52 -144l-176 -462h-102z" />
<glyph unicode="X" horiz-adv-x="615" d="M-11 0l291 360l-158 332h89l129 -271l223 271h94l-282 -343l166 -349h-89l-135 284l-232 -284h-96z" />
<glyph unicode="Y" horiz-adv-x="560" d="M200 0l49 312l-174 380h89l99 -220l17 -36q13 -31 21 -49q25 34 59 80l173 225h91l-295 -380l-49 -312h-80z" />
<glyph unicode="Z" horiz-adv-x="549" d="M0 0l10 66l446 560h-345l10 66h441l-11 -66l-444 -560h356l-11 -66h-452z" />
<glyph unicode="[" horiz-adv-x="360" d="M49 -155l144 908h163l-10 -61h-87l-124 -786h87l-10 -61h-163z" />
<glyph unicode="\" horiz-adv-x="266" d="M185 -20l-140 732h66l140 -732h-66z" />
<glyph unicode="]" horiz-adv-x="360" d="M326 753l-144 -908h-163l10 61h87l124 786h-87l10 61h163z" />
<glyph unicode="^" horiz-adv-x="576" d="M347 618l-241 -364h-66l293 438h49l154 -438h-63z" />
<glyph unicode="_" d="M-83 -215l10 61h518l-10 -61h-518z" />
<glyph unicode="`" d="M298 731l95 -146h-70l-118 146h93z" />
<glyph unicode="a" horiz-adv-x="561" d="M439 507h74q0 -1 -16 -87q-1 -9 -19 -117l-23 -141q-11 -69 -21 -162h-72l9 71q-37 -44 -72 -62.5t-81 -18.5q-78 0 -123 55t-45 152q0 131 68 227q66 93 167 93q96 0 141 -80zM377 147l34 214q-30 95 -116 95q-78 0 -127 -94q-38 -73 -38 -169q0 -65 28 -103.5t75 -38.5 q77 0 144 96z" />
<glyph unicode="b" horiz-adv-x="561" d="M120 0h-72q21 111 30 162l90 569h76l-46 -288q64 74 147 74q75 0 121 -56t46 -148q0 -137 -69.5 -230t-171.5 -93q-47 0 -79.5 21.5t-56.5 68.5zM185 361l-34 -214q32 -96 112 -96q85 0 134 102q35 75 35 161q0 68 -26.5 105t-75.5 37q-84 0 -145 -95z" />
<glyph unicode="c" horiz-adv-x="449" d="M368 90l26 -58q-71 -42 -151 -42q-94 0 -144.5 55t-50.5 158q0 126 68 217q72 97 189 97q71 0 135 -33l-26 -59q-55 31 -106 31q-89 0 -142 -95q-38 -67 -38 -155q0 -75 31.5 -115t90.5 -40q54 0 118 39z" />
<glyph unicode="d" horiz-adv-x="561" d="M472 731h76l-90 -569q-11 -64 -22 -162h-72l9 71q-38 -44 -73 -62.5t-82 -18.5q-79 0 -124.5 55t-45.5 152q0 131 69 227q67 93 168 93q94 0 141 -76zM379 147l34 214q-31 95 -118 95q-79 0 -128 -94q-39 -73 -39 -170q0 -64 28.5 -102.5t76.5 -38.5q79 0 146 96z" />
<glyph unicode="e" horiz-adv-x="526" d="M472 239h-339q-2 -34 -2 -41q0 -71 33.5 -109t95.5 -38q69 0 143 49l20 -62q-80 -48 -166 -48q-98 0 -152.5 55t-54.5 154q0 138 76 233q65 85 178 85q177 0 177 -187q0 -37 -9 -91zM144 300h257q3 27 3 39q0 56 -27 86.5t-77 30.5q-59 0 -101 -41.5t-55 -114.5z" />
<glyph unicode="f" horiz-adv-x="334" d="M65 0l71 446h-80l10 61h79l6 38q16 101 44 140q38 56 115 56q36 0 77 -14l-16 -61q-27 14 -54 14q-37 0 -57.5 -30t-31.5 -101l-7 -42h116l-9 -61h-116l-71 -446h-76z" />
<glyph unicode="g" horiz-adv-x="563" d="M441 507h75q-21 -110 -36 -200l-42 -268q-13 -82 -25.5 -120t-37.5 -69q-61 -75 -178 -75q-98 0 -188 59l38 56q69 -54 144 -54q89 0 134 76q23 42 38 135l6 38q-32 -41 -65 -58.5t-79 -17.5q-81 0 -127 54.5t-46 149.5q0 119 63 208q67 96 166 96q48 0 87 -23t59 -64z M382 163l30 195q-33 98 -119 98q-72 0 -120 -86q-41 -74 -41 -160q0 -67 29.5 -103.5t82.5 -36.5q37 0 69 21.5t69 71.5z" />
<glyph unicode="h" horiz-adv-x="581" d="M52 0l116 731h76l-47 -295q88 81 176 81q62 0 99 -35t37 -94q0 -38 -9 -93l-47 -295h-76l48 305q7 38 7 70q0 39 -21 60t-60 21q-41 0 -86 -26t-80 -69l-57 -361h-76z" />
<glyph unicode="i" horiz-adv-x="262" d="M53 0l80 507h76l-80 -507h-76zM200 741q24 0 39 -15t15 -39q0 -23 -15 -38.5t-39 -15.5t-39 15t-15 40q0 23 15.5 38t38.5 15z" />
<glyph unicode="j" horiz-adv-x="262" d="M131 507h76l-83 -526q-18 -113 -40 -147q-38 -59 -119 -59q-34 0 -66 12l14 59q24 -10 45 -10q67 0 82 99zM197 741q24 0 39 -15t15 -39t-15 -39t-39 -15t-39 15t-15 40q0 23 15.5 38t38.5 15z" />
<glyph unicode="k" horiz-adv-x="488" d="M55 0l116 731h76l-69 -437l231 213h97l-255 -232l180 -275h-91l-168 259l-41 -259h-76z" />
<glyph unicode="l" horiz-adv-x="262" d="M53 0l116 731h76l-116 -731h-76z" />
<glyph unicode="m" horiz-adv-x="870" d="M56 0l53 337q3 19 7 52q3 28 7 43q6 41 9 75h75l-9 -73q87 83 168 83q102 0 122 -94q91 94 179 94q58 0 92.5 -34.5t34.5 -90.5q0 -37 -9 -88l-48 -304h-76l49 308q8 51 8 72q0 35 -20.5 55.5t-57.5 20.5q-67 0 -147 -89l-58 -367h-76l49 311q6 37 6 68q0 77 -72 77 q-71 0 -152 -89l-58 -367h-76z" />
<glyph unicode="n" horiz-adv-x="581" d="M52 0l54 343q19 123 22 164h75l-9 -74q91 84 179 84q62 0 99 -35t37 -94q0 -26 -9 -93l-47 -295h-76l48 305q7 42 7 69q0 39 -20.5 60.5t-58.5 21.5q-41 0 -86 -25.5t-82 -69.5l-57 -361h-76z" />
<glyph unicode="o" horiz-adv-x="565" d="M314 517q91 0 146 -58t55 -155q0 -133 -75.5 -223.5t-187.5 -90.5q-93 0 -147.5 58.5t-54.5 158.5q0 117 66 207q75 103 198 103zM312 456q-90 0 -143 -95q-39 -71 -39 -158q0 -71 33 -111.5t91 -40.5q76 0 128.5 74t52.5 181q0 70 -33 110t-90 40z" />
<glyph unicode="p" horiz-adv-x="561" d="M17 -215l82 517q16 106 19 131q3 24 9 74h72l-9 -73q69 83 154 83q75 0 121 -56t46 -148q0 -137 -69.5 -230t-171.5 -93q-86 0 -132 81l-45 -286h-76zM184 361l-34 -214q31 -96 112 -96q85 0 134 102q35 77 35 161q0 67 -26.5 104.5t-74.5 37.5q-85 0 -146 -95z" />
<glyph unicode="q" horiz-adv-x="561" d="M442 507h72q-19 -93 -31 -174l-87 -548h-76l44 278q-61 -73 -146 -73q-77 0 -122.5 55.5t-45.5 151.5q0 131 68 227q66 93 167 93q96 0 143 -83zM377 147l34 214q-31 95 -116 95q-78 0 -127 -94q-38 -73 -38 -169q0 -65 28 -103.5t75 -38.5q77 0 144 96z" />
<glyph unicode="r" horiz-adv-x="351" d="M50 0l46 289q18 118 31 218h74l-9 -75q57 85 134 85q22 0 43 -6l-11 -67q-18 5 -36 5q-84 0 -142 -105l-54 -344h-76z" />
<glyph unicode="s" horiz-adv-x="421" d="M17 25l32 61q62 -35 114 -35q47 0 79 28t32 68q0 30 -16.5 46t-71.5 39q-61 26 -87 57t-26 77q0 68 49.5 109.5t131.5 41.5q73 0 141 -38l-32 -60q-50 37 -109 37q-47 0 -75 -23.5t-28 -62.5q0 -26 15 -41t64 -37q67 -29 94.5 -60.5t27.5 -78.5q0 -71 -53.5 -117 t-136.5 -46q-76 0 -145 35z" />
<glyph unicode="t" horiz-adv-x="334" d="M136 446h-80l10 61h79l17 109l79 16l-20 -125h116l-9 -61h-116l-44 -277q-7 -42 -7 -62q0 -56 50 -56q31 0 70 18l-2 -62q-40 -17 -84 -17q-111 0 -111 102q0 28 7 73z" />
<glyph unicode="u" horiz-adv-x="575" d="M523 507l-54 -342q-18 -118 -22 -165h-70l9 74q-53 -47 -93.5 -65.5t-88.5 -18.5q-62 0 -97.5 35t-35.5 97q0 28 7 68l50 317h76l-48 -306q-9 -54 -9 -79q0 -34 20.5 -52.5t57.5 -18.5q38 0 82 24.5t82 66.5l58 365h76z" />
<glyph unicode="v" horiz-adv-x="492" d="M158 0l-96 507h76l58 -301q6 -29 16 -85q1 -6 9 -48q41 86 58 119l157 315h74l-255 -507h-97z" />
<glyph unicode="w" horiz-adv-x="790" d="M134 0l-54 507h73l30 -304l12 -132l50 120l137 316h98l40 -310q10 -78 16 -126q16 42 51 124l132 312h71l-218 -507h-96l-43 322q-1 4 -4 27t-4 34q-3 19 -7 55q-4 -9 -11.5 -27t-10.5 -25q-8 -21 -26 -61l-141 -325h-95z" />
<glyph unicode="x" horiz-adv-x="491" d="M-20 0l225 262l-127 245h83l97 -191l164 191h88l-219 -252l132 -255h-83l-102 198l-169 -198h-89z" />
<glyph unicode="y" horiz-adv-x="489" d="M168 -3l-112 510h79l63 -299q18 -86 23 -116l50 101l165 314h74l-287 -550q-56 -108 -97 -145t-103 -37q-42 0 -80 14l22 61q29 -14 52 -14q42 0 75 35t76 126z" />
<glyph unicode="z" horiz-adv-x="444" d="M-2 0l9 57l332 389h-258l10 61h353l-10 -61l-330 -385h269l-10 -61h-365z" />
<glyph unicode="{" horiz-adv-x="360" d="M266 595l-29 -180q-8 -58 -29.5 -83t-70.5 -33q36 -7 51.5 -26t15.5 -55q0 -18 -7 -55l-25 -159q-5 -30 -5 -58q0 -23 12 -33t38 -10h35l-9 -58h-25q-56 0 -85 13q-42 22 -42 79q0 26 8 86l21 129q6 43 6 54q0 32 -17 47t-55 17l9 58q50 3 73 29t30 89l24 149 q15 94 45.5 126t106.5 32h45l-9 -58h-32q-45 0 -60 -25q-11 -18 -20 -75z" />
<glyph unicode="|" horiz-adv-x="288" d="M102 -215v907h80v-907h-80z" />
<glyph unicode="}" horiz-adv-x="360" d="M108 3l29 180q8 57 29.5 82.5t70.5 33.5q-36 7 -51.5 26t-15.5 54q0 19 6 56l26 159q5 45 5 59q0 22 -12 32t-38 10h-35l9 58h25q58 0 85 -13q42 -22 42 -79q0 -26 -8 -86l-21 -129q-6 -40 -6 -55q0 -59 72 -63l-9 -58q-50 -3 -72.5 -28.5t-30.5 -89.5l-24 -149 q-15 -94 -45.5 -126t-106.5 -32h-45l9 58h32q41 0 55.5 18t24.5 82z" />
<glyph unicode="~" horiz-adv-x="576" d="M76 189l-39 37q46 57 79 79t71 22q41 0 112 -45q57 -37 84 -37q40 0 83 40l34 34l38 -39q-82 -101 -149 -101q-44 0 -111 44q-35 23 -53 30.5t-38 7.5q-25 0 -46.5 -14t-64.5 -58z" />
<glyph unicode="&#xa1;" horiz-adv-x="310" d="M154 324h65l-65 -464h-82zM208 517q23 0 39 -16t16 -40q0 -23 -16 -38.5t-39 -15.5t-39 15.5t-16 39.5q0 23 16 39t39 16z" />
<glyph unicode="&#xa2;" horiz-adv-x="576" d="M287 101l11 73q-80 9 -124 63.5t-44 143.5q0 79 28 149.5t77 111.5q60 53 146 57l12 75h51l-12 -78q63 -7 116 -36l-29 -56q-49 26 -97 32l-64 -404q53 4 112 36l26 -56q-70 -36 -147 -38l-12 -73h-50zM308 236l63 402q-60 -11 -97 -53q-29 -33 -46.5 -89t-17.5 -116 q0 -124 98 -144z" />
<glyph unicode="&#xa3;" horiz-adv-x="576" d="M18 0l10 61h71q19 19 31 60.5t26 135.5l11 71h-87l9 59h88l12 79q12 75 26.5 112.5t42.5 64.5q59 59 168 59q80 0 158 -35l-27 -60q-71 34 -128 34q-84 0 -125 -62q-22 -36 -38 -132l-9 -60h165l-9 -59h-166l-14 -91q-16 -97 -23.5 -126t-22.5 -50h293l-10 -61h-452z" />
<glyph unicode="&#xa4;" horiz-adv-x="576" d="M89 95l-39 40l59 60q-49 66 -49 154q0 90 48 156l-59 60l40 39l59 -59q64 52 156 52q91 0 155 -52l59 59l39 -39l-59 -60q49 -68 49 -155t-48 -155l59 -60l-40 -40l-59 59q-64 -52 -155 -52q-92 0 -156 52zM304 543q-82 0 -133.5 -53t-51.5 -138q0 -89 53 -143 q50 -53 132 -53t133 53.5t51 139.5q0 87 -50.5 140.5t-133.5 53.5z" />
<glyph unicode="&#xa5;" horiz-adv-x="576" d="M210 0l31 192h-152l8 53h152l9 57l-2 8h-148l8 53h118l-151 329h85l139 -309l239 309h86l-255 -329h119l-9 -53h-148l-5 -7l-9 -58h152l-8 -53h-153l-30 -192h-76z" />
<glyph unicode="&#xa6;" horiz-adv-x="288" d="M131 420l43 272h79l-43 -272h-79zM64 0l43 272h80l-43 -272h-80z" />
<glyph unicode="&#xa7;" horiz-adv-x="576" d="M51 -117l28 61q62 -37 131 -37q65 0 103.5 30.5t38.5 81.5q0 35 -21.5 57t-91.5 56q-71 35 -96 62.5t-25 68.5q0 84 110 153q-58 42 -58 112q0 79 56 126.5t149 47.5q79 0 153 -34l-30 -61q-60 33 -123 33q-54 0 -89 -30t-35 -77q0 -33 22 -52q14 -13 27 -20.5t68 -33.5 q65 -31 89 -58.5t24 -70.5q0 -86 -100 -157q52 -36 52 -107q0 -83 -62 -136.5t-158 -53.5q-93 0 -162 39zM268 390q-69 -50 -69 -108q0 -32 27.5 -54.5t113.5 -59.5q60 59 60 111q0 33 -31 59q-15 12 -71 38q-16 8 -30 14z" />
<glyph unicode="&#xa8;" d="M222 710q23 0 37.5 -14.5t14.5 -37.5t-14.5 -37.5t-37.5 -14.5t-37.5 15t-14.5 39q0 22 14.5 36t37.5 14zM406 710q23 0 37.5 -14.5t14.5 -37.5t-14.5 -37.5t-37.5 -14.5t-37.5 15t-14.5 39q0 22 14.5 36t37.5 14z" />
<glyph unicode="&#xa9;" horiz-adv-x="800" d="M530 234l17 -45q-57 -28 -114 -28q-82 0 -131 49.5t-49 132.5q0 86 48.5 137t130.5 51q54 0 112 -29l-20 -44q-53 27 -92 27q-53 0 -85 -38.5t-32 -101.5q0 -62 33.5 -100t88.5 -38q40 0 93 27zM415 702q150 0 248 -101t98 -255t-98 -255t-248 -101q-152 0 -249.5 101 t-97.5 260q0 70 26 136.5t72 113.5q99 101 249 101zM414 672q-131 0 -219 -92t-88 -230q0 -145 86.5 -237.5t221.5 -92.5q133 0 220 92.5t87 233.5t-87.5 233.5t-220.5 92.5z" />
<glyph unicode="&#xaa;" horiz-adv-x="360" d="M302 692h56q-15 -78 -21 -114l-12 -75q-8 -48 -12 -92h-54l5 35q-37 -40 -83 -40q-47 0 -75 31.5t-28 85.5q0 74 40.5 124t99.5 50q48 0 78 -41zM268 496l18 111q-17 46 -63 46q-37 0 -62 -37.5t-25 -92.5q0 -34 15 -53.5t41 -19.5q41 0 76 46z" />
<glyph unicode="&#xab;" horiz-adv-x="480" d="M318 243l83 -167l-54 -35l-119 209l185 208l49 -38zM121 243l84 -167l-54 -35l-119 209l185 208l49 -38z" />
<glyph unicode="&#xac;" horiz-adv-x="576" d="M455 98v221h-405v61h473v-282h-68z" />
<glyph unicode="&#xad;" horiz-adv-x="311" d="M42 249l10 61h226l-10 -61h-226z" />
<glyph unicode="&#xae;" horiz-adv-x="600" d="M246 359v272h82q103 0 103 -73q0 -48 -52 -64q16 -10 30 -41l42 -94h-56l-32 72q-14 30 -25 39.5t-34 9.5h-5v-121h-53zM299 513h8q70 0 70 42q0 43 -64 43h-14v-85zM329 754q109 0 180.5 -73t71.5 -186q0 -112 -71.5 -185.5t-180.5 -73.5q-111 0 -182 73.5t-71 188.5 q0 110 72 183t181 73zM329 724q-92 0 -153 -64.5t-61 -161.5q0 -102 60 -167t154 -65q92 0 152.5 65t60.5 164t-60.5 164t-152.5 65z" />
<glyph unicode="&#xaf;" d="M167 626l9 58h284l-9 -58h-284z" />
<glyph unicode="&#xb0;" horiz-adv-x="332" d="M214 702q64 0 104 -40t40 -103q0 -64 -40 -104t-104 -40q-65 0 -104.5 40t-39.5 106q0 62 40.5 101.5t103.5 39.5zM214 662q-46 0 -74 -28t-28 -74q0 -48 27.5 -76.5t74.5 -28.5q46 0 74 28t28 75t-28 75.5t-74 28.5z" />
<glyph unicode="&#xb1;" horiz-adv-x="576" d="M49 300l9 61h214l23 146h66l-23 -146h213l-9 -61h-214l-22 -144h-67l23 144h-213zM1 0l10 61h493l-10 -61h-493z" />
<glyph unicode="&#xb2;" horiz-adv-x="360" d="M59 312l7 46q124 97 175 152.5t51 95.5q0 21 -16 33.5t-43 12.5q-39 0 -97 -33l-12 48q58 31 114 31q54 0 86 -23t32 -62q0 -41 -27.5 -82t-94.5 -99q-45 -41 -91 -74h177l-7 -46h-254z" />
<glyph unicode="&#xb3;" horiz-adv-x="360" d="M59 325l20 48q45 -21 90 -21q38 0 65.5 23t27.5 55q0 28 -25 44t-70 16q-2 0 -32 -2l8 48q15 -2 33 -2q47 0 79 21t32 53q0 20 -15.5 32t-42.5 12q-41 0 -96 -22l-5 48q51 20 108 20q53 0 84 -22.5t31 -60.5q0 -73 -88 -101q63 -19 63 -82q0 -54 -43.5 -90t-108.5 -36 q-54 0 -115 19z" />
<glyph unicode="&#xb4;" d="M359 731h103l-165 -146h-79z" />
<glyph unicode="&#xb5;" horiz-adv-x="576" d="M14 -215l114 722h76l-44 -283q-9 -55 -9 -78q0 -45 24 -70t66 -25q70 0 151 91l57 365h76l-56 -353q-10 -67 -20 -154h-70l8 77q-78 -87 -162 -87q-34 0 -54.5 9.5t-40.5 35.5l-40 -250h-76z" />
<glyph unicode="&#xb6;" horiz-adv-x="660" d="M194 -118l67 423q-79 0 -124.5 45t-45.5 123q0 104 80 170q35 29 72 39t108 10h241l-128 -810h-76l118 744h-118l-118 -744h-76z" />
<glyph unicode="&#xb7;" horiz-adv-x="288" d="M148 336q25 0 41 -16t16 -41q0 -24 -16 -40.5t-41 -16.5t-41 16.5t-16 41.5q0 23 16.5 39.5t40.5 16.5z" />
<glyph unicode="&#xb8;" d="M220 -34h90l-154 -147h-74z" />
<glyph unicode="&#xb9;" horiz-adv-x="360" d="M177 312l50 316l-82 -44l-16 44l115 64h53l-60 -380h-60z" />
<glyph unicode="&#xba;" horiz-adv-x="360" d="M244 698q52 0 83.5 -31.5t31.5 -84.5q0 -78 -40.5 -127t-105.5 -49q-55 0 -86.5 32.5t-31.5 88.5q0 74 42 122.5t107 48.5zM240 652q-34 0 -59.5 -36.5t-25.5 -85.5q0 -37 15.5 -57.5t42.5 -20.5q35 0 60.5 36.5t25.5 86.5q0 35 -16 56t-43 21z" />
<glyph unicode="&#xbb;" horiz-adv-x="480" d="M162 255l-84 168l55 35l119 -209l-185 -208l-49 38zM359 255l-84 168l54 35l119 -209l-185 -208l-48 38z" />
<glyph unicode="&#xbc;" horiz-adv-x="800" d="M160 312l50 316l-82 -44l-16 44l115 64h53l-60 -380h-60zM174 -20l381 732h60l-381 -732h-60zM583 0l15 97h-169l7 46l186 237h82l-38 -237h58l-7 -46h-58l-15 -97h-61zM606 143l28 177l-135 -177h107z" />
<glyph unicode="&#xbd;" horiz-adv-x="800" d="M177 312l50 316l-82 -44l-16 44l115 64h53l-60 -380h-60zM158 -20l380 732h60l-381 -732h-59zM413 0l7 46q124 97 175 152.5t51 95.5q0 21 -16 33.5t-43 12.5q-39 0 -97 -33l-12 48q58 31 114 31q54 0 86 -23t32 -62q0 -41 -27.5 -81.5t-94.5 -99.5q-43 -39 -91 -74h177 l-7 -46h-254z" />
<glyph unicode="&#xbe;" horiz-adv-x="800" d="M59 325l20 48q45 -21 90 -21q38 0 65.5 23t27.5 55q0 28 -25 44t-70 16q-2 0 -32 -2l8 48q15 -2 33 -2q47 0 79 21t32 53q0 20 -15.5 32t-42.5 12q-41 0 -96 -22l-5 48q51 20 108 20q53 0 84 -22.5t31 -60.5q0 -73 -88 -101q63 -19 63 -82q0 -54 -43.5 -90t-108.5 -36 q-54 0 -115 19zM204 -20l381 732h59l-380 -732h-60zM589 0l16 97h-170l8 46l185 237h82l-38 -237h59l-8 -46h-58l-15 -97h-61zM612 143l28 177l-135 -177h107z" />
<glyph unicode="&#xbf;" horiz-adv-x="410" d="M203 327h68l-6 -39q-13 -78 -28 -104q-12 -19 -25 -31.5t-73 -62.5q-41 -35 -57 -59t-16 -52q0 -32 21.5 -51t57.5 -19q56 0 144 48l11 -67q-81 -42 -161 -42q-73 0 -115.5 35t-42.5 94q0 45 24 81.5t86 86.5q62 49 80 71.5t24 58.5zM257 517q24 0 39.5 -15.5t15.5 -40.5 q0 -23 -16 -38.5t-39 -15.5t-39 15.5t-16 39.5q0 23 15.5 39t39.5 16z" />
<glyph unicode="&#xc0;" horiz-adv-x="623" d="M434 242h-248l-121 -242h-85l348 692h100l131 -692h-81zM421 308l-31 182q-14 84 -20 130q-23 -51 -26 -58q-10 -22 -35 -72l-90 -182h202zM358 901l95 -146h-70l-118 146h93z" />
<glyph unicode="&#xc1;" horiz-adv-x="623" d="M434 242h-248l-121 -242h-85l348 692h100l131 -692h-81zM421 308l-31 182q-14 84 -20 130q-23 -51 -26 -58q-10 -22 -35 -72l-90 -182h202zM465 901h103l-165 -146h-79z" />
<glyph unicode="&#xc2;" horiz-adv-x="623" d="M434 242h-248l-121 -242h-85l348 692h100l131 -692h-81zM421 308l-31 182q-14 84 -20 130q-23 -51 -26 -58q-10 -22 -35 -72l-90 -182h202zM395 852l-85 -97h-76l120 146h91l74 -146h-70z" />
<glyph unicode="&#xc3;" horiz-adv-x="623" d="M434 242h-248l-121 -242h-85l348 692h100l131 -692h-81zM421 308l-31 182q-14 84 -20 130q-23 -51 -26 -58q-10 -22 -35 -72l-90 -182h202zM275 774h-53q12 49 38 75.5t62 26.5q34 0 88 -21q39 -15 55 -15q40 0 51 42h51q-24 -103 -100 -103q-31 0 -84 20q-42 16 -61 16 q-29 0 -47 -41z" />
<glyph unicode="&#xc4;" horiz-adv-x="623" d="M434 242h-248l-121 -242h-85l348 692h100l131 -692h-81zM421 308l-31 182q-14 84 -20 130q-23 -51 -26 -58q-10 -22 -35 -72l-90 -182h202zM307 880q23 0 37.5 -14.5t14.5 -37.5t-14.5 -37.5t-37.5 -14.5t-37.5 15t-14.5 39q0 22 14.5 36t37.5 14zM491 880 q23 0 37.5 -14.5t14.5 -37.5t-14.5 -37.5t-37.5 -14.5t-37.5 15t-14.5 39q0 22 14.5 36t37.5 14z" />
<glyph unicode="&#xc5;" horiz-adv-x="623" d="M-20 0l353 701q-38 30 -38 79q0 42 29 71t71 29t71 -29t29 -71q0 -32 -17.5 -57.5t-47.5 -36.5l129 -686h-81l-44 242h-248l-121 -242h-85zM421 308l-31 182q-14 84 -20 130q-12 -28 -19 -43q-3 -6 -16 -33q-8 -18 -26 -54l-90 -182h202zM395 840q-25 0 -41.5 -17 t-16.5 -42q0 -27 16 -44t42 -17q25 0 41 17t16 43t-16 43t-41 17z" />
<glyph unicode="&#xc6;" horiz-adv-x="903" d="M454 196h-270l-151 -196h-99l543 692h412l-10 -66h-277l-38 -242h263l-11 -66h-263l-39 -252h291l-11 -66h-371zM465 262l57 364h-5l-282 -364h230z" />
<glyph unicode="&#xc7;" horiz-adv-x="567" d="M483 89l21 -66q-76 -33 -162 -33q-130 0 -201.5 77.5t-71.5 219.5q0 169 101 291q103 124 258 124q84 0 158 -30l-21 -66q-67 30 -133 30q-130 0 -211 -121q-67 -97 -67 -231q0 -114 56 -172q51 -56 139 -56q61 0 134 33zM283 -34h90l-154 -147h-74z" />
<glyph unicode="&#xc8;" horiz-adv-x="529" d="M54 0l110 692h356l-11 -66h-276l-38 -242h263l-11 -66h-263l-40 -252h291l-10 -66h-371zM341 901l95 -146h-70l-118 146h93z" />
<glyph unicode="&#xc9;" horiz-adv-x="529" d="M54 0l110 692h356l-11 -66h-276l-38 -242h263l-11 -66h-263l-40 -252h291l-10 -66h-371zM428 901h103l-165 -146h-79z" />
<glyph unicode="&#xca;" horiz-adv-x="529" d="M54 0l110 692h356l-11 -66h-276l-38 -242h263l-11 -66h-263l-40 -252h291l-10 -66h-371zM364 852l-85 -97h-76l120 146h91l74 -146h-70z" />
<glyph unicode="&#xcb;" horiz-adv-x="529" d="M54 0l110 692h356l-11 -66h-276l-38 -242h263l-11 -66h-263l-40 -252h291l-10 -66h-371zM274 880q23 0 37.5 -14.5t14.5 -37.5t-14.5 -37.5t-37.5 -14.5t-37.5 15t-14.5 39q0 22 14.5 36t37.5 14zM458 880q23 0 37.5 -14.5t14.5 -37.5t-14.5 -37.5t-37.5 -14.5t-37.5 15 t-14.5 39q0 22 14.5 36t37.5 14z" />
<glyph unicode="&#xcc;" horiz-adv-x="260" d="M50 0l110 692h79l-109 -692h-80zM187 901l95 -146h-70l-118 146h93z" />
<glyph unicode="&#xcd;" horiz-adv-x="260" d="M50 0l110 692h79l-109 -692h-80zM297 901h103l-165 -146h-79z" />
<glyph unicode="&#xce;" horiz-adv-x="260" d="M50 0l110 692h79l-109 -692h-80zM224 852l-85 -97h-76l120 146h91l74 -146h-70z" />
<glyph unicode="&#xcf;" horiz-adv-x="260" d="M50 0l110 692h79l-109 -692h-80zM132 880q23 0 37.5 -14.5t14.5 -37.5t-14.5 -37.5t-37.5 -14.5t-37.5 15t-14.5 39q0 22 14.5 36t37.5 14zM316 880q23 0 37.5 -14.5t14.5 -37.5t-14.5 -37.5t-37.5 -14.5t-37.5 15t-14.5 39q0 22 14.5 36t37.5 14z" />
<glyph unicode="&#xd0;" horiz-adv-x="656" d="M107 325h-83l8 53h83l50 314h141q138 0 198 -33q113 -60 113 -228q0 -108 -37 -203.5t-101 -150.5q-49 -43 -110 -60t-163 -17h-151zM186 325l-41 -259h67q151 0 225 78q44 49 69.5 123t25.5 157q0 151 -98 187q-39 15 -145 15h-55l-39 -248h143l-9 -53h-143z" />
<glyph unicode="&#xd1;" horiz-adv-x="690" d="M56 0l110 692h89l189 -441q21 -49 52 -134q6 45 7 52l5 38q2 12 6 38l70 447h79l-110 -692h-90l-190 445q-27 63 -50 127q-1 -5 -8 -53l-4 -32l-5 -33l-72 -454h-78zM319 774h-53q12 49 38 75.5t62 26.5q34 0 88 -21q39 -15 55 -15q40 0 51 42h51q-24 -103 -100 -103 q-31 0 -84 20q-42 16 -61 16q-29 0 -47 -41z" />
<glyph unicode="&#xd2;" horiz-adv-x="720" d="M419 702q146 0 211 -103q49 -81 49 -187q0 -158 -90 -284q-98 -138 -259 -138q-143 0 -208 100q-51 79 -51 194q0 152 90 280q97 138 258 138zM418 636q-120 0 -193 -115q-31 -47 -50 -116.5t-19 -134.5q0 -101 46.5 -157.5t129.5 -56.5q120 0 194 115q31 49 49.5 117.5 t18.5 136.5q0 98 -47 154.5t-129 56.5zM437 901l95 -146h-70l-118 146h93z" />
<glyph unicode="&#xd3;" horiz-adv-x="720" d="M419 702q146 0 211 -103q49 -81 49 -187q0 -158 -90 -284q-98 -138 -259 -138q-143 0 -208 100q-51 79 -51 194q0 152 90 280q97 138 258 138zM418 636q-120 0 -193 -115q-31 -47 -50 -116.5t-19 -134.5q0 -101 46.5 -157.5t129.5 -56.5q120 0 194 115q31 49 49.5 117.5 t18.5 136.5q0 98 -47 154.5t-129 56.5zM514 901h103l-165 -146h-79z" />
<glyph unicode="&#xd4;" horiz-adv-x="720" d="M419 702q146 0 211 -103q49 -81 49 -187q0 -158 -90 -284q-98 -138 -259 -138q-143 0 -208 100q-51 79 -51 194q0 152 90 280q97 138 258 138zM418 636q-120 0 -193 -115q-31 -47 -50 -116.5t-19 -134.5q0 -101 46.5 -157.5t129.5 -56.5q120 0 194 115q31 49 49.5 117.5 t18.5 136.5q0 98 -47 154.5t-129 56.5zM454 852l-85 -97h-76l120 146h91l74 -146h-70z" />
<glyph unicode="&#xd5;" horiz-adv-x="720" d="M419 702q146 0 211 -103q49 -81 49 -187q0 -158 -90 -284q-98 -138 -259 -138q-143 0 -208 100q-51 79 -51 194q0 152 90 280q97 138 258 138zM418 636q-120 0 -193 -115q-31 -47 -50 -116.5t-19 -134.5q0 -101 46.5 -157.5t129.5 -56.5q120 0 194 115q31 49 49.5 117.5 t18.5 136.5q0 98 -47 154.5t-129 56.5zM334 774h-53q12 49 38 75.5t62 26.5q34 0 88 -21q39 -15 55 -15q40 0 51 42h51q-24 -103 -100 -103q-32 0 -84 20q-42 16 -61 16q-29 0 -47 -41z" />
<glyph unicode="&#xd6;" horiz-adv-x="720" d="M419 702q146 0 211 -103q49 -81 49 -187q0 -158 -90 -284q-98 -138 -259 -138q-143 0 -208 100q-51 79 -51 194q0 152 90 280q97 138 258 138zM418 636q-120 0 -193 -115q-31 -47 -50 -116.5t-19 -134.5q0 -101 46.5 -157.5t129.5 -56.5q120 0 194 115q31 49 49.5 117.5 t18.5 136.5q0 98 -47 154.5t-129 56.5zM362 880q23 0 37.5 -14.5t14.5 -37.5t-14.5 -37.5t-37.5 -14.5t-37.5 15t-14.5 39q0 22 14.5 36t37.5 14zM546 880q23 0 37.5 -14.5t14.5 -37.5t-14.5 -37.5t-37.5 -14.5t-37.5 15t-14.5 39q0 22 14.5 36t37.5 14z" />
<glyph unicode="&#xd7;" horiz-adv-x="576" d="M245 253l-172 172l44 43l171 -172l173 172l43 -43l-172 -172l171 -172l-43 -43l-172 172l-172 -172l-43 43z" />
<glyph unicode="&#xd8;" horiz-adv-x="720" d="M68 -13l-35 32l81 85q-43 80 -43 178q0 156 90 282q99 138 259 138q123 0 188 -74l71 75l34 -33l-77 -82q43 -82 43 -176q0 -156 -90 -284q-98 -138 -258 -138q-121 0 -190 75zM172 166l382 404q-47 66 -136 66q-119 0 -193 -115q-31 -48 -50 -117.5t-19 -136.5 q0 -52 16 -101zM577 526l-381 -404q47 -66 136 -66q120 0 194 115q31 48 49.5 117t18.5 135q0 58 -17 103z" />
<glyph unicode="&#xd9;" horiz-adv-x="665" d="M160 692h80l-67 -420q-9 -59 -9 -93q0 -123 137 -123q106 0 156 71q28 41 50 178l61 387h76l-63 -397q-17 -106 -31 -149t-44 -77q-70 -79 -206 -79q-101 0 -158.5 46t-57.5 126q0 51 16 155zM403 901l95 -146h-70l-118 146h93z" />
<glyph unicode="&#xda;" horiz-adv-x="665" d="M160 692h80l-67 -420q-9 -59 -9 -93q0 -123 137 -123q106 0 156 71q28 41 50 178l61 387h76l-63 -397q-17 -106 -31 -149t-44 -77q-70 -79 -206 -79q-101 0 -158.5 46t-57.5 126q0 51 16 155zM486 901h103l-165 -146h-79z" />
<glyph unicode="&#xdb;" horiz-adv-x="665" d="M160 692h80l-67 -420q-9 -59 -9 -93q0 -123 137 -123q106 0 156 71q28 41 50 178l61 387h76l-63 -397q-17 -106 -31 -149t-44 -77q-70 -79 -206 -79q-101 0 -158.5 46t-57.5 126q0 51 16 155zM433 852l-85 -97h-76l120 146h91l74 -146h-70z" />
<glyph unicode="&#xdc;" horiz-adv-x="665" d="M160 692h80l-67 -420q-9 -59 -9 -93q0 -123 137 -123q106 0 156 71q28 41 50 178l61 387h76l-63 -397q-17 -106 -31 -149t-44 -77q-70 -79 -206 -79q-101 0 -158.5 46t-57.5 126q0 51 16 155zM334 880q23 0 37.5 -14.5t14.5 -37.5t-14.5 -37.5t-37.5 -14.5t-37.5 15 t-14.5 39q0 22 14.5 36t37.5 14zM518 880q23 0 37.5 -14.5t14.5 -37.5t-14.5 -37.5t-37.5 -14.5t-37.5 15t-14.5 39q0 22 14.5 36t37.5 14z" />
<glyph unicode="&#xdd;" horiz-adv-x="560" d="M200 0l49 312l-174 380h89l99 -220l17 -36q13 -31 21 -49q25 34 59 80l173 225h91l-295 -380l-49 -312h-80zM434 901h103l-165 -146h-79z" />
<glyph unicode="&#xde;" horiz-adv-x="509" d="M56 0l110 692h79l-22 -139h41q115 0 167 -32q69 -42 69 -141q0 -59 -24 -108.5t-68 -78.5q-61 -40 -187 -40h-61l-24 -153h-80zM171 219h30q118 0 162 38q52 44 52 121q0 60 -35.5 84.5t-123.5 24.5h-43z" />
<glyph unicode="&#xdf;" horiz-adv-x="560" d="M49 0l78 494q12 74 23 111t29 63q50 73 162 73q83 0 130.5 -44t47.5 -121q0 -84 -52 -133q-33 -33 -105 -52q139 -16 139 -156q0 -106 -66.5 -175.5t-168.5 -69.5q-49 0 -86 14l21 61q31 -14 63 -14q68 0 112.5 53.5t44.5 136.5q0 56 -35 87t-97 31h-19l9 61q56 1 90 24 q32 21 51 57.5t19 77.5q0 47 -26 74t-71 27q-77 0 -109 -66q-17 -35 -29 -115l-79 -499h-76z" />
<glyph unicode="&#xe0;" horiz-adv-x="561" d="M439 507h74q0 -1 -16 -87q-1 -9 -19 -117l-23 -141q-11 -69 -21 -162h-72l9 71q-37 -44 -72 -62.5t-81 -18.5q-78 0 -123 55t-45 152q0 131 68 227q66 93 167 93q96 0 141 -80zM377 147l34 214q-30 95 -116 95q-78 0 -127 -94q-38 -73 -38 -169q0 -65 28 -103.5t75 -38.5 q77 0 144 96zM293 731l95 -146h-70l-118 146h93z" />
<glyph unicode="&#xe1;" horiz-adv-x="561" d="M439 507h74q0 -1 -16 -87q-1 -9 -19 -117l-23 -141q-11 -69 -21 -162h-72l9 71q-37 -44 -72 -62.5t-81 -18.5q-78 0 -123 55t-45 152q0 131 68 227q66 93 167 93q96 0 141 -80zM377 147l34 214q-30 95 -116 95q-78 0 -127 -94q-38 -73 -38 -169q0 -65 28 -103.5t75 -38.5 q77 0 144 96zM390 731h103l-165 -146h-79z" />
<glyph unicode="&#xe2;" horiz-adv-x="561" d="M439 507h74q0 -1 -16 -87q-1 -9 -19 -117l-23 -141q-11 -69 -21 -162h-72l9 71q-37 -44 -72 -62.5t-81 -18.5q-78 0 -123 55t-45 152q0 131 68 227q66 93 167 93q96 0 141 -80zM377 147l34 214q-30 95 -116 95q-78 0 -127 -94q-38 -73 -38 -169q0 -65 28 -103.5t75 -38.5 q77 0 144 96zM343 682l-85 -97h-76l120 146h91l74 -146h-70z" />
<glyph unicode="&#xe3;" horiz-adv-x="561" d="M439 507h74q0 -1 -16 -87q-1 -9 -19 -117l-23 -141q-11 -69 -21 -162h-72l9 71q-37 -44 -72 -62.5t-81 -18.5q-78 0 -123 55t-45 152q0 131 68 227q66 93 167 93q96 0 141 -80zM377 147l34 214q-30 95 -116 95q-78 0 -127 -94q-38 -73 -38 -169q0 -65 28 -103.5t75 -38.5 q77 0 144 96zM225 604h-53q12 49 38 75.5t62 26.5q34 0 88 -21q38 -15 55 -15q40 0 51 42h51q-24 -103 -100 -103q-32 0 -84 20q-42 16 -61 16q-29 0 -47 -41z" />
<glyph unicode="&#xe4;" horiz-adv-x="561" d="M439 507h74q0 -1 -16 -87q-1 -9 -19 -117l-23 -141q-11 -69 -21 -162h-72l9 71q-37 -44 -72 -62.5t-81 -18.5q-78 0 -123 55t-45 152q0 131 68 227q66 93 167 93q96 0 141 -80zM377 147l34 214q-30 95 -116 95q-78 0 -127 -94q-38 -73 -38 -169q0 -65 28 -103.5t75 -38.5 q77 0 144 96zM253 710q23 0 37.5 -14.5t14.5 -37.5t-14.5 -37.5t-37.5 -14.5t-37.5 15t-14.5 39q0 22 14.5 36t37.5 14zM437 710q23 0 37.5 -14.5t14.5 -37.5t-14.5 -37.5t-37.5 -14.5t-37.5 15t-14.5 39q0 22 14.5 36t37.5 14z" />
<glyph unicode="&#xe5;" horiz-adv-x="561" d="M439 507h74q0 -1 -16 -87q-1 -9 -19 -117l-23 -141q-11 -69 -21 -162h-72l9 71q-37 -44 -72 -62.5t-81 -18.5q-78 0 -123 55t-45 152q0 131 68 227q66 93 167 93q96 0 141 -80zM377 147l34 214q-30 95 -116 95q-78 0 -127 -94q-38 -73 -38 -169q0 -65 28 -103.5t75 -38.5 q77 0 144 96zM351 765q42 0 71 -29t29 -71t-29 -71t-71 -29q-43 0 -71.5 29t-28.5 72q0 41 29 70t71 29zM351 725q-25 0 -41.5 -17t-16.5 -42q0 -27 16 -44t42 -17q25 0 41 17t16 43t-16 43t-41 17z" />
<glyph unicode="&#xe6;" horiz-adv-x="865" d="M742 100l20 -62q-81 -48 -166 -48q-139 0 -190 120q-74 -120 -187 -120q-79 0 -124 55t-45 152q0 131 68 227q66 93 167 93q92 0 139 -79l14 75h70l-16 -81q61 85 156 85q84 0 127.5 -48t43.5 -141q0 -40 -9 -95h-339q-2 -32 -2 -39q0 -69 33.5 -106t96.5 -37 q67 0 143 49zM386 204l25 157q-30 95 -116 95q-78 0 -127 -94q-38 -73 -38 -169q0 -66 28 -104t76 -38q35 0 69 20.5t56 54.5q20 28 27 78zM483 294h256q3 28 3 42q0 58 -26.5 89t-76.5 31q-59 0 -99 -41.5t-57 -120.5z" />
<glyph unicode="&#xe7;" horiz-adv-x="449" d="M368 90l26 -58q-71 -42 -151 -42q-94 0 -144.5 55t-50.5 158q0 126 68 217q72 97 189 97q71 0 135 -33l-26 -59q-55 31 -106 31q-89 0 -142 -95q-38 -67 -38 -155q0 -75 31.5 -115t90.5 -40q54 0 118 39zM194 -34h90l-154 -147h-74z" />
<glyph unicode="&#xe8;" horiz-adv-x="526" d="M472 239h-339q-2 -34 -2 -41q0 -71 33.5 -109t95.5 -38q69 0 143 49l20 -62q-80 -48 -166 -48q-98 0 -152.5 55t-54.5 154q0 138 76 233q65 85 178 85q177 0 177 -187q0 -37 -9 -91zM144 300h257q3 27 3 39q0 56 -27 86.5t-77 30.5q-59 0 -101 -41.5t-55 -114.5zM311 731 l95 -146h-70l-118 146h93z" />
<glyph unicode="&#xe9;" horiz-adv-x="526" d="M472 239h-339q-2 -34 -2 -41q0 -71 33.5 -109t95.5 -38q69 0 143 49l20 -62q-80 -48 -166 -48q-98 0 -152.5 55t-54.5 154q0 138 76 233q65 85 178 85q177 0 177 -187q0 -37 -9 -91zM144 300h257q3 27 3 39q0 56 -27 86.5t-77 30.5q-59 0 -101 -41.5t-55 -114.5zM389 731 h103l-165 -146h-79z" />
<glyph unicode="&#xea;" horiz-adv-x="526" d="M472 239h-339q-2 -34 -2 -41q0 -71 33.5 -109t95.5 -38q69 0 143 49l20 -62q-80 -48 -166 -48q-98 0 -152.5 55t-54.5 154q0 138 76 233q65 85 178 85q177 0 177 -187q0 -37 -9 -91zM144 300h257q3 27 3 39q0 56 -27 86.5t-77 30.5q-59 0 -101 -41.5t-55 -114.5zM334 682 l-85 -97h-76l120 146h91l74 -146h-70z" />
<glyph unicode="&#xeb;" horiz-adv-x="526" d="M472 239h-339q-2 -34 -2 -41q0 -71 33.5 -109t95.5 -38q69 0 143 49l20 -62q-80 -48 -166 -48q-98 0 -152.5 55t-54.5 154q0 138 76 233q65 85 178 85q177 0 177 -187q0 -37 -9 -91zM144 300h257q3 27 3 39q0 56 -27 86.5t-77 30.5q-59 0 -101 -41.5t-55 -114.5zM230 710 q23 0 37.5 -14.5t14.5 -37.5t-14.5 -37.5t-37.5 -14.5t-37.5 15t-14.5 39q0 22 14.5 36t37.5 14zM414 710q23 0 37.5 -14.5t14.5 -37.5t-14.5 -37.5t-37.5 -14.5t-37.5 15t-14.5 39q0 22 14.5 36t37.5 14z" />
<glyph unicode="&#xec;" horiz-adv-x="262" d="M53 0l80 507h76l-80 -507h-76zM160 731l95 -146h-70l-118 146h93z" />
<glyph unicode="&#xed;" horiz-adv-x="262" d="M53 0l80 507h76l-80 -507h-76zM253 731h103l-165 -146h-79z" />
<glyph unicode="&#xee;" horiz-adv-x="262" d="M53 0l80 507h76l-80 -507h-76zM202 682l-85 -97h-76l120 146h91l74 -146h-70z" />
<glyph unicode="&#xef;" horiz-adv-x="262" d="M53 0l80 507h76l-80 -507h-76zM103 710q23 0 37.5 -14.5t14.5 -37.5t-14.5 -37.5t-37.5 -14.5t-37.5 15t-14.5 39q0 22 14.5 36t37.5 14zM287 710q23 0 37.5 -14.5t14.5 -37.5t-14.5 -37.5t-37.5 -14.5t-37.5 15t-14.5 39q0 22 14.5 36t37.5 14z" />
<glyph unicode="&#xf0;" horiz-adv-x="538" d="M183 680l37 59q68 -28 129 -85l141 64l12 -45l-120 -54q106 -137 106 -304q0 -146 -70 -235.5t-184 -89.5q-87 0 -137 53t-50 145q0 126 69 211.5t171 85.5q55 0 101 -29q-28 78 -77 130l-143 -64l-12 44l119 53q-45 39 -92 61zM297 424q-74 0 -122 -68t-48 -171 q0 -62 30 -98t82 -36q89 0 137 101q32 69 32 137q0 65 -29 100t-82 35z" />
<glyph unicode="&#xf1;" horiz-adv-x="581" d="M52 0l54 343q19 123 22 164h75l-9 -74q91 84 179 84q62 0 99 -35t37 -94q0 -26 -9 -93l-47 -295h-76l48 305q7 42 7 69q0 39 -20.5 60.5t-58.5 21.5q-41 0 -86 -25.5t-82 -69.5l-57 -361h-76zM235 604h-53q12 49 38 75.5t62 26.5q34 0 88 -21q38 -15 55 -15q40 0 51 42 h51q-24 -103 -100 -103q-31 0 -84 20q-42 16 -61 16q-29 0 -47 -41z" />
<glyph unicode="&#xf2;" horiz-adv-x="565" d="M314 517q91 0 146 -58t55 -155q0 -133 -75.5 -223.5t-187.5 -90.5q-93 0 -147.5 58.5t-54.5 158.5q0 117 66 207q75 103 198 103zM312 456q-90 0 -143 -95q-39 -71 -39 -158q0 -71 33 -111.5t91 -40.5q76 0 128.5 74t52.5 181q0 70 -33 110t-90 40zM330 731l95 -146h-70 l-118 146h93z" />
<glyph unicode="&#xf3;" horiz-adv-x="565" d="M314 517q91 0 146 -58t55 -155q0 -133 -75.5 -223.5t-187.5 -90.5q-93 0 -147.5 58.5t-54.5 158.5q0 117 66 207q75 103 198 103zM312 456q-90 0 -143 -95q-39 -71 -39 -158q0 -71 33 -111.5t91 -40.5q76 0 128.5 74t52.5 181q0 70 -33 110t-90 40zM425 731h103 l-165 -146h-79z" />
<glyph unicode="&#xf4;" horiz-adv-x="565" d="M314 517q91 0 146 -58t55 -155q0 -133 -75.5 -223.5t-187.5 -90.5q-93 0 -147.5 58.5t-54.5 158.5q0 117 66 207q75 103 198 103zM312 456q-90 0 -143 -95q-39 -71 -39 -158q0 -71 33 -111.5t91 -40.5q76 0 128.5 74t52.5 181q0 70 -33 110t-90 40zM353 682l-85 -97h-76 l120 146h91l74 -146h-70z" />
<glyph unicode="&#xf5;" horiz-adv-x="565" d="M314 517q91 0 146 -58t55 -155q0 -133 -75.5 -223.5t-187.5 -90.5q-93 0 -147.5 58.5t-54.5 158.5q0 117 66 207q75 103 198 103zM312 456q-90 0 -143 -95q-39 -71 -39 -158q0 -71 33 -111.5t91 -40.5q76 0 128.5 74t52.5 181q0 70 -33 110t-90 40zM227 604h-53 q12 49 38 75.5t62 26.5q34 0 88 -21q37 -15 55 -15q40 0 51 42h51q-24 -103 -100 -103q-32 0 -84 20q-42 16 -61 16q-29 0 -47 -41z" />
<glyph unicode="&#xf6;" horiz-adv-x="565" d="M314 517q91 0 146 -58t55 -155q0 -133 -75.5 -223.5t-187.5 -90.5q-93 0 -147.5 58.5t-54.5 158.5q0 117 66 207q75 103 198 103zM312 456q-90 0 -143 -95q-39 -71 -39 -158q0 -71 33 -111.5t91 -40.5q76 0 128.5 74t52.5 181q0 70 -33 110t-90 40zM255 710 q23 0 37.5 -14.5t14.5 -37.5t-14.5 -37.5t-37.5 -14.5t-37.5 15t-14.5 39q0 22 14.5 36t37.5 14zM439 710q23 0 37.5 -14.5t14.5 -37.5t-14.5 -37.5t-37.5 -14.5t-37.5 15t-14.5 39q0 22 14.5 36t37.5 14z" />
<glyph unicode="&#xf7;" horiz-adv-x="576" d="M36 222l10 61h493l-10 -61h-493zM313 470q23 0 39 -16t16 -39t-16 -39t-39 -16q-24 0 -39.5 15.5t-15.5 40.5q0 23 16 38.5t39 15.5zM262 147q23 0 39 -16t16 -39t-16 -39t-39 -16q-24 0 -39.5 15.5t-15.5 40.5q0 23 16 38.5t39 15.5z" />
<glyph unicode="&#xf8;" horiz-adv-x="565" d="M101 52l-70 -68l-27 29l74 72q-28 53 -28 119q0 122 67 210q77 103 200 103q89 0 147 -62l71 69l26 -29l-74 -72q28 -52 28 -119q0 -121 -66 -211q-79 -103 -201 -103q-93 0 -147 62zM138 142l273 263q-34 51 -96 51q-78 0 -131.5 -74.5t-53.5 -183.5q0 -28 8 -56z M427 366l-273 -263q34 -52 96 -52q78 0 131.5 74.5t53.5 183.5q0 28 -8 57z" />
<glyph unicode="&#xf9;" horiz-adv-x="575" d="M523 507l-54 -342q-18 -118 -22 -165h-70l9 74q-53 -47 -93.5 -65.5t-88.5 -18.5q-62 0 -97.5 35t-35.5 97q0 28 7 68l50 317h76l-48 -306q-9 -54 -9 -79q0 -34 20.5 -52.5t57.5 -18.5q38 0 82 24.5t82 66.5l58 365h76zM318 731l95 -146h-70l-118 146h93z" />
<glyph unicode="&#xfa;" horiz-adv-x="575" d="M523 507l-54 -342q-18 -118 -22 -165h-70l9 74q-53 -47 -93.5 -65.5t-88.5 -18.5q-62 0 -97.5 35t-35.5 97q0 28 7 68l50 317h76l-48 -306q-9 -54 -9 -79q0 -34 20.5 -52.5t57.5 -18.5q38 0 82 24.5t82 66.5l58 365h76zM418 731h103l-165 -146h-79z" />
<glyph unicode="&#xfb;" horiz-adv-x="575" d="M523 507l-54 -342q-18 -118 -22 -165h-70l9 74q-53 -47 -93.5 -65.5t-88.5 -18.5q-62 0 -97.5 35t-35.5 97q0 28 7 68l50 317h76l-48 -306q-9 -54 -9 -79q0 -34 20.5 -52.5t57.5 -18.5q38 0 82 24.5t82 66.5l58 365h76zM352 682l-85 -97h-76l120 146h91l74 -146h-70z" />
<glyph unicode="&#xfc;" horiz-adv-x="575" d="M523 507l-54 -342q-18 -118 -22 -165h-70l9 74q-53 -47 -93.5 -65.5t-88.5 -18.5q-62 0 -97.5 35t-35.5 97q0 28 7 68l50 317h76l-48 -306q-9 -54 -9 -79q0 -34 20.5 -52.5t57.5 -18.5q38 0 82 24.5t82 66.5l58 365h76zM260 710q23 0 37.5 -14.5t14.5 -37.5t-14.5 -37.5 t-37.5 -14.5t-37.5 15t-14.5 39q0 22 14.5 36t37.5 14zM444 710q23 0 37.5 -14.5t14.5 -37.5t-14.5 -37.5t-37.5 -14.5t-37.5 15t-14.5 39q0 22 14.5 36t37.5 14z" />
<glyph unicode="&#xfd;" horiz-adv-x="489" d="M168 -3l-112 510h79l63 -299q18 -86 23 -116l50 101l165 314h74l-287 -550q-56 -108 -97 -145t-103 -37q-42 0 -80 14l22 61q29 -14 52 -14q42 0 75 35t76 126zM373 731h103l-165 -146h-79z" />
<glyph unicode="&#xfe;" horiz-adv-x="561" d="M17 -215l150 946h76l-46 -288q64 74 147 74q75 0 121 -56t46 -148q0 -134 -67 -228q-68 -95 -175 -95q-89 0 -131 79l-45 -284h-76zM184 361l-34 -214q14 -46 43.5 -71t68.5 -25q85 0 134 102q35 75 35 161q0 68 -26.5 105t-75.5 37q-82 0 -145 -95z" />
<glyph unicode="&#xff;" horiz-adv-x="489" d="M168 -3l-112 510h79l63 -299q18 -86 23 -116l50 101l165 314h74l-287 -550q-56 -108 -97 -145t-103 -37q-42 0 -80 14l22 61q29 -14 52 -14q42 0 75 35t76 126zM206 710q23 0 37.5 -14.5t14.5 -37.5t-14.5 -37.5t-37.5 -14.5t-37.5 15t-14.5 39q0 22 14.5 36t37.5 14z M390 710q23 0 37.5 -14.5t14.5 -37.5t-14.5 -37.5t-37.5 -14.5t-37.5 15t-14.5 39q0 22 14.5 36t37.5 14z" />
<glyph unicode="&#x100;" horiz-adv-x="623" d="M434 242h-248l-121 -242h-85l348 692h100l131 -692h-81zM421 308l-31 182q-14 84 -20 130q-23 -51 -26 -58q-10 -22 -35 -72l-90 -182h202zM247 793l10 61h284l-10 -61h-284z" />
<glyph unicode="&#x101;" horiz-adv-x="561" d="M439 507h74q0 -1 -16 -87q-1 -9 -19 -117l-23 -141q-11 -69 -21 -162h-72l9 71q-37 -44 -72 -62.5t-81 -18.5q-78 0 -123 55t-45 152q0 131 68 227q66 93 167 93q96 0 141 -80zM377 147l34 214q-30 95 -116 95q-78 0 -127 -94q-38 -73 -38 -169q0 -65 28 -103.5t75 -38.5 q77 0 144 96zM198 626l9 58h284l-9 -58h-284z" />
<glyph unicode="&#x102;" horiz-adv-x="623" d="M434 242h-248l-121 -242h-85l348 692h100l131 -692h-81zM421 308l-31 182q-14 84 -20 130q-23 -51 -26 -58q-10 -22 -35 -72l-90 -182h202zM264 911h66v-16q0 -37 16.5 -57.5t46.5 -20.5q69 0 92 94h67q-13 -65 -41 -96q-48 -52 -119 -52q-58 0 -94 33t-36 87q0 13 2 28z " />
<glyph unicode="&#x103;" horiz-adv-x="561" d="M439 507h74q0 -1 -16 -87q-1 -9 -19 -117l-23 -141q-11 -69 -21 -162h-72l9 71q-37 -44 -72 -62.5t-81 -18.5q-78 0 -123 55t-45 152q0 131 68 227q66 93 167 93q96 0 141 -80zM377 147l34 214q-30 95 -116 95q-78 0 -127 -94q-38 -73 -38 -169q0 -65 28 -103.5t75 -38.5 q77 0 144 96zM204 731h66v-15q0 -79 63 -79q69 0 92 94h68q-12 -62 -39 -93q-46 -55 -121 -55q-60 0 -95.5 34t-35.5 91q0 13 2 23z" />
<glyph unicode="&#x104;" horiz-adv-x="623" d="M428 692l131 -692q-56 -34 -77 -50q-48 -39 -48 -78q0 -17 11.5 -27t30.5 -10q16 0 51 8v-48q-43 -13 -66 -13q-44 0 -70.5 22t-26.5 58q0 85 147 138h-33l-44 242h-248l-121 -242h-85l348 692h100zM421 308l-31 182q-14 84 -20 130q-12 -28 -19 -43q-3 -6 -16 -33 q-8 -18 -26 -54l-90 -182h202z" />
<glyph unicode="&#x105;" horiz-adv-x="561" d="M478 303l-23 -141q-9 -55 -22 -162q-55 -33 -74 -48q-51 -39 -51 -80q0 -17 11.5 -27t30.5 -10q16 0 51 8v-48q-42 -13 -66 -13q-44 0 -70.5 22t-26.5 58q0 85 147 138h-24l10 71q-38 -44 -72.5 -62.5t-80.5 -18.5q-78 0 -123 55t-45 152q0 131 68 227q66 93 167 93 q96 0 141 -80l13 70h74l-10 -57q-14 -73 -25 -147zM377 147l34 214q-32 95 -116 95q-78 0 -127 -94q-38 -73 -38 -169q0 -65 28 -103.5t75 -38.5q77 0 144 96z" />
<glyph unicode="&#x106;" horiz-adv-x="567" d="M483 89l21 -66q-76 -33 -162 -33q-130 0 -201.5 77.5t-71.5 219.5q0 169 101 291q103 124 258 124q84 0 158 -30l-21 -66q-67 30 -133 30q-130 0 -211 -121q-67 -97 -67 -231q0 -114 56 -172q51 -56 139 -56q61 0 134 33zM492 901h103l-165 -146h-79z" />
<glyph unicode="&#x107;" horiz-adv-x="449" d="M368 90l26 -58q-71 -42 -151 -42q-94 0 -144.5 55t-50.5 158q0 126 68 217q72 97 189 97q71 0 135 -33l-26 -59q-55 31 -106 31q-89 0 -142 -95q-38 -67 -38 -155q0 -75 31.5 -115t90.5 -40q54 0 118 39zM393 731h103l-165 -146h-79z" />
<glyph unicode="&#x108;" horiz-adv-x="567" d="M483 89l21 -66q-76 -33 -162 -33q-130 0 -201.5 77.5t-71.5 219.5q0 169 101 291q103 124 258 124q84 0 158 -30l-21 -66q-67 30 -133 30q-130 0 -211 -121q-67 -97 -67 -231q0 -114 56 -172q51 -56 139 -56q61 0 134 33zM448 852l-85 -97h-76l120 146h91l74 -146h-70z " />
<glyph unicode="&#x109;" horiz-adv-x="449" d="M368 90l26 -58q-71 -42 -151 -42q-94 0 -144.5 55t-50.5 158q0 126 68 217q72 97 189 97q71 0 135 -33l-26 -59q-55 31 -106 31q-89 0 -142 -95q-38 -67 -38 -155q0 -75 31.5 -115t90.5 -40q54 0 118 39zM330 682l-85 -97h-76l120 146h91l74 -146h-70z" />
<glyph unicode="&#x10a;" horiz-adv-x="567" d="M483 89l21 -66q-76 -33 -162 -33q-130 0 -201.5 77.5t-71.5 219.5q0 169 101 291q103 124 258 124q84 0 158 -30l-21 -66q-67 30 -133 30q-130 0 -211 -121q-67 -97 -67 -231q0 -114 56 -172q51 -56 139 -56q61 0 134 33zM438 880q23 0 37.5 -14.5t14.5 -37.5 t-14.5 -37.5t-37.5 -14.5t-37.5 15t-14.5 39q0 22 14.5 36t37.5 14z" />
<glyph unicode="&#x10b;" horiz-adv-x="449" d="M368 90l26 -58q-71 -42 -151 -42q-94 0 -144.5 55t-50.5 158q0 126 68 217q72 97 189 97q71 0 135 -33l-26 -59q-55 31 -106 31q-89 0 -142 -95q-38 -67 -38 -155q0 -75 31.5 -115t90.5 -40q54 0 118 39zM323 710q23 0 37.5 -14.5t14.5 -37.5t-14.5 -37.5t-37.5 -14.5 t-37.5 15t-14.5 39q0 22 14.5 36t37.5 14z" />
<glyph unicode="&#x10c;" horiz-adv-x="567" d="M483 89l21 -66q-76 -33 -162 -33q-130 0 -201.5 77.5t-71.5 219.5q0 169 101 291q103 124 258 124q84 0 158 -30l-21 -66q-67 30 -133 30q-130 0 -211 -121q-67 -97 -67 -231q0 -114 56 -172q51 -56 139 -56q61 0 134 33zM432 810l85 97h76l-120 -146h-91l-74 146h70z " />
<glyph unicode="&#x10d;" horiz-adv-x="449" d="M368 90l26 -58q-71 -42 -151 -42q-94 0 -144.5 55t-50.5 158q0 126 68 217q72 97 189 97q71 0 135 -33l-26 -59q-55 31 -106 31q-89 0 -142 -95q-38 -67 -38 -155q0 -75 31.5 -115t90.5 -40q54 0 118 39zM316 634l85 97h75l-120 -146h-91l-74 146h70z" />
<glyph unicode="&#x10e;" horiz-adv-x="656" d="M55 0l110 692h141q138 0 198 -33q113 -60 113 -228q0 -108 -37 -203.5t-101 -150.5q-49 -43 -110 -60t-163 -17h-151zM145 66h67q151 0 225 78q44 49 69.5 123t25.5 157q0 151 -98 187q-39 15 -145 15h-55zM381 810l85 97h76l-120 -146h-91l-74 146h70z" />
<glyph unicode="&#x10f;" horiz-adv-x="650" d="M472 731h76l-90 -569q-11 -64 -22 -162h-72l9 71q-38 -44 -73 -62.5t-82 -18.5q-79 0 -124.5 55t-45.5 152q0 131 69 227q67 93 168 93q94 0 141 -76zM379 147l34 214q-31 95 -118 95q-79 0 -128 -94q-39 -73 -39 -170q0 -64 28.5 -102.5t76.5 -38.5q79 0 146 96z M673 731h88l-121 -224h-70z" />
<glyph unicode="&#x110;" horiz-adv-x="656" d="M107 325h-83l8 53h83l50 314h141q138 0 198 -33q113 -60 113 -228q0 -108 -37 -203.5t-101 -150.5q-49 -43 -110 -60t-163 -17h-151zM186 325l-41 -259h67q151 0 225 78q44 49 69.5 123t25.5 157q0 151 -98 187q-39 15 -145 15h-55l-39 -248h143l-9 -53h-143z" />
<glyph unicode="&#x111;" horiz-adv-x="561" d="M450 596h-151l9 58h151l13 77h76l-13 -77h57l-9 -58h-57l-68 -434q-12 -70 -22 -162h-72l9 71q-38 -44 -73 -62.5t-82 -18.5q-79 0 -124.5 55t-45.5 152q0 131 69 227q67 93 168 93q94 0 141 -76zM379 147l34 214q-31 95 -118 95q-79 0 -128 -94q-39 -73 -39 -170 q0 -64 28.5 -102.5t76.5 -38.5q79 0 146 96z" />
<glyph unicode="&#x112;" horiz-adv-x="529" d="M54 0l110 692h356l-11 -66h-276l-38 -242h263l-11 -66h-263l-40 -252h291l-10 -66h-371zM210 793l10 61h284l-10 -61h-284z" />
<glyph unicode="&#x113;" horiz-adv-x="526" d="M472 239h-339q-2 -34 -2 -41q0 -71 33.5 -109t95.5 -38q69 0 143 49l20 -62q-80 -48 -166 -48q-98 0 -152.5 55t-54.5 154q0 138 76 233q65 85 178 85q177 0 177 -187q0 -37 -9 -91zM144 300h257q3 27 3 39q0 56 -27 86.5t-77 30.5q-59 0 -101 -41.5t-55 -114.5zM175 626 l9 58h284l-9 -58h-284z" />
<glyph unicode="&#x114;" horiz-adv-x="529" d="M54 0l110 692h356l-11 -66h-276l-38 -242h263l-11 -66h-263l-40 -252h291l-10 -66h-371zM220 911h66v-16q0 -37 16.5 -57.5t46.5 -20.5q69 0 92 94h67q-13 -65 -41 -96q-48 -52 -119 -52q-58 0 -94 33t-36 87q0 13 2 28z" />
<glyph unicode="&#x116;" horiz-adv-x="529" d="M54 0l110 692h356l-11 -66h-276l-38 -242h263l-11 -66h-263l-40 -252h291l-10 -66h-371zM358 880q23 0 37.5 -14.5t14.5 -37.5t-14.5 -37.5t-37.5 -14.5t-37.5 15t-14.5 39q0 22 14.5 36t37.5 14z" />
<glyph unicode="&#x117;" horiz-adv-x="526" d="M472 239h-339q-2 -34 -2 -41q0 -71 33.5 -109t95.5 -38q69 0 143 49l20 -62q-80 -48 -166 -48q-98 0 -152.5 55t-54.5 154q0 138 76 233q65 85 178 85q177 0 177 -187q0 -37 -9 -91zM144 300h257q3 27 3 39q0 56 -27 86.5t-77 30.5q-59 0 -101 -41.5t-55 -114.5zM327 710 q23 0 37.5 -14.5t14.5 -37.5t-14.5 -37.5t-37.5 -14.5t-37.5 15t-14.5 39q0 22 14.5 36t37.5 14z" />
<glyph unicode="&#x118;" horiz-adv-x="529" d="M54 0l109 692h356l-10 -66h-276l-39 -242h263l-10 -66h-263l-40 -252h291l-11 -66q-54 -32 -74 -48q-51 -41 -51 -80q0 -17 11.5 -27t30.5 -10q16 0 51 8v-48q-42 -13 -66 -13q-44 0 -70.5 22t-26.5 58q0 85 147 138h-322z" />
<glyph unicode="&#x119;" horiz-adv-x="526" d="M403 100l20 -62q-55 -33 -110 -43q-43 -25 -66 -43q-51 -41 -51 -80q0 -16 12 -26.5t31 -10.5q15 0 50 8v-48q-42 -13 -66 -13q-44 0 -70.5 22t-26.5 58q0 77 121 128q-96 5 -146.5 58.5t-50.5 150.5q0 138 76 233q65 85 178 85q177 0 177 -187q0 -36 -9 -91h-339 q-2 -34 -2 -41q0 -71 33.5 -109t95.5 -38q69 0 143 49zM145 300h256q3 27 3 39q0 56 -27 86.5t-77 30.5q-59 0 -100.5 -41.5t-54.5 -114.5z" />
<glyph unicode="&#x11a;" horiz-adv-x="529" d="M54 0l110 692h356l-11 -66h-276l-38 -242h263l-11 -66h-263l-40 -252h291l-10 -66h-371zM358 810l85 97h76l-120 -146h-91l-74 146h70z" />
<glyph unicode="&#x11b;" horiz-adv-x="526" d="M472 239h-339q-2 -34 -2 -41q0 -71 33.5 -109t95.5 -38q69 0 143 49l20 -62q-80 -48 -166 -48q-98 0 -152.5 55t-54.5 154q0 138 76 233q65 85 178 85q177 0 177 -187q0 -37 -9 -91zM144 300h257q3 27 3 39q0 56 -27 86.5t-77 30.5q-59 0 -101 -41.5t-55 -114.5zM321 634 l85 97h75l-120 -146h-91l-74 146h70z" />
<glyph unicode="&#x11c;" horiz-adv-x="673" d="M599 357l-53 -335q-102 -32 -201 -32q-142 0 -214 88q-62 75 -62 192q0 165 91 289q104 143 279 143q101 0 200 -42l-24 -65q-89 41 -171 41q-133 0 -213 -114q-77 -111 -77 -247q0 -103 52.5 -161t147.5 -58q62 0 121 20l34 215h-132l11 66h211zM464 852l-85 -97h-76 l120 146h91l74 -146h-70z" />
<glyph unicode="&#x11d;" horiz-adv-x="563" d="M441 507h75q-21 -110 -36 -200l-42 -268q-13 -82 -25.5 -120t-37.5 -69q-61 -75 -178 -75q-98 0 -188 59l38 56q69 -54 144 -54q89 0 134 76q23 42 38 135l6 38q-32 -41 -65 -58.5t-79 -17.5q-81 0 -127 54.5t-46 149.5q0 119 63 208q67 96 166 96q48 0 87 -23t59 -64z M382 163l30 195q-33 98 -119 98q-72 0 -120 -86q-41 -74 -41 -160q0 -67 29.5 -103.5t82.5 -36.5q37 0 69 21.5t69 71.5zM353 682l-85 -97h-76l120 146h91l74 -146h-70z" />
<glyph unicode="&#x11e;" horiz-adv-x="673" d="M599 357l-53 -335q-102 -32 -201 -32q-142 0 -214 88q-62 75 -62 192q0 165 91 289q104 143 279 143q101 0 200 -42l-24 -65q-89 41 -171 41q-133 0 -213 -114q-77 -111 -77 -247q0 -103 52.5 -161t147.5 -58q62 0 121 20l34 215h-132l11 66h211zM317 911h66v-16 q0 -37 16.5 -57.5t46.5 -20.5q69 0 92 94h67q-13 -65 -41 -96q-48 -52 -119 -52q-59 0 -94.5 33t-35.5 87q0 13 2 28z" />
<glyph unicode="&#x11f;" horiz-adv-x="563" d="M441 507h75q-21 -110 -36 -200l-42 -268q-13 -82 -25.5 -120t-37.5 -69q-61 -75 -178 -75q-98 0 -188 59l38 56q69 -54 144 -54q89 0 134 76q23 42 38 135l6 38q-32 -41 -65 -58.5t-79 -17.5q-81 0 -127 54.5t-46 149.5q0 119 63 208q67 96 166 96q48 0 87 -23t59 -64z M382 163l30 195q-33 98 -119 98q-72 0 -120 -86q-41 -74 -41 -160q0 -67 29.5 -103.5t82.5 -36.5q37 0 69 21.5t69 71.5zM213 731h66v-15q0 -79 63 -79q69 0 92 94h68q-12 -62 -39 -93q-46 -55 -121 -55q-60 0 -95.5 34t-35.5 91q0 13 2 23z" />
<glyph unicode="&#x120;" horiz-adv-x="673" d="M599 357l-53 -335q-102 -32 -201 -32q-142 0 -214 88q-62 75 -62 192q0 165 91 289q104 143 279 143q101 0 200 -42l-24 -65q-89 41 -171 41q-133 0 -213 -114q-77 -111 -77 -247q0 -103 52.5 -161t147.5 -58q62 0 121 20l34 215h-132l11 66h211zM444 880 q23 0 37.5 -14.5t14.5 -37.5t-14.5 -37.5t-37.5 -14.5t-37.5 15t-14.5 39q0 22 14.5 36t37.5 14z" />
<glyph unicode="&#x121;" horiz-adv-x="563" d="M441 507h75q-21 -110 -36 -200l-42 -268q-13 -82 -25.5 -120t-37.5 -69q-61 -75 -178 -75q-98 0 -188 59l38 56q69 -54 144 -54q89 0 134 76q23 42 38 135l6 38q-32 -41 -65 -58.5t-79 -17.5q-81 0 -127 54.5t-46 149.5q0 119 63 208q67 96 166 96q48 0 87 -23t59 -64z M382 163l30 195q-33 98 -119 98q-72 0 -120 -86q-41 -74 -41 -160q0 -67 29.5 -103.5t82.5 -36.5q37 0 69 21.5t69 71.5zM346 710q23 0 37.5 -14.5t14.5 -37.5t-14.5 -37.5t-37.5 -14.5t-37.5 15t-14.5 39q0 22 14.5 36t37.5 14z" />
<glyph unicode="&#x122;" horiz-adv-x="673" d="M599 357l-53 -335q-102 -32 -201 -32q-142 0 -214 88q-62 75 -62 192q0 165 91 289q104 143 279 143q101 0 200 -42l-24 -65q-89 41 -171 41q-133 0 -213 -114q-77 -111 -77 -247q0 -103 52.5 -161t147.5 -58q62 0 121 20l34 215h-132l11 66h211zM320 -34h90l-154 -147 h-74z" />
<glyph unicode="&#x123;" horiz-adv-x="563" d="M441 507h75q-21 -110 -36 -200l-42 -268q-13 -82 -25.5 -120t-37.5 -69q-61 -75 -178 -75q-98 0 -188 59l38 56q69 -54 144 -54q89 0 134 76q23 42 38 135l6 38q-32 -41 -65 -58.5t-79 -17.5q-81 0 -127 54.5t-46 149.5q0 119 63 208q67 96 166 96q48 0 87 -23t59 -64z M382 163l30 195q-33 98 -119 98q-72 0 -120 -86q-41 -74 -41 -160q0 -67 29.5 -103.5t82.5 -36.5q37 0 69 21.5t69 71.5zM350 584h-90l154 147h74z" />
<glyph unicode="&#x124;" horiz-adv-x="673" d="M56 0l110 692h79l-48 -305h321l48 305h80l-110 -692h-79l50 321h-320l-51 -321h-80zM437 852l-85 -97h-76l120 146h91l74 -146h-70z" />
<glyph unicode="&#x125;" horiz-adv-x="581" d="M52 0l116 731h76l-47 -295q88 81 176 81q62 0 99 -35t37 -94q0 -38 -9 -93l-47 -295h-76l48 305q7 38 7 70q0 39 -21 60t-60 21q-41 0 -86 -26t-80 -69l-57 -361h-76zM230 852l-85 -97h-76l120 146h91l74 -146h-70z" />
<glyph unicode="&#x126;" horiz-adv-x="673" d="M56 0l80 504h-68l10 61h67l21 127h79l-20 -127h321l20 127h80l-20 -127h67l-9 -61h-68l-80 -504h-79l51 321h-321l-51 -321h-80zM197 387h321l18 117h-320z" />
<glyph unicode="&#x127;" horiz-adv-x="581" d="M52 0l95 602h-67l9 58h68l11 71h76l-11 -71h140l-9 -58h-141l-26 -166q88 81 176 81q62 0 99 -35t37 -94q0 -38 -9 -93l-47 -295h-76l48 305q7 41 7 69q0 40 -21 61t-60 21q-41 0 -86 -26t-80 -69l-57 -361h-76z" />
<glyph unicode="&#x12a;" horiz-adv-x="260" d="M50 0l110 692h79l-109 -692h-80zM76 793l10 61h284l-10 -61h-284z" />
<glyph unicode="&#x12b;" horiz-adv-x="262" d="M53 0l80 507h76l-80 -507h-76zM48 626l9 58h284l-9 -58h-284z" />
<glyph unicode="&#x12d;" horiz-adv-x="262" d="M53 0l80 507h76l-80 -507h-76zM62 731h66v-15q0 -79 63 -79q69 0 92 94h68q-12 -62 -39 -93q-46 -55 -121 -55q-60 0 -95.5 34t-35.5 91q0 13 2 23z" />
<glyph unicode="&#x12e;" horiz-adv-x="260" d="M50 0l109 692h80l-110 -692q-53 -31 -74 -48q-51 -40 -51 -80q0 -17 12 -27t31 -10q15 0 50 8v-48q-43 -13 -66 -13q-44 0 -70.5 22t-26.5 58q0 85 147 138h-31z" />
<glyph unicode="&#x12f;" horiz-adv-x="262" d="M52 0l81 507h76l-81 -507q-58 -35 -74 -48q-51 -40 -51 -80q0 -16 12 -26.5t31 -10.5q15 0 50 8v-48q-43 -13 -66 -13q-44 0 -70.5 22t-26.5 58q0 85 147 138h-28zM199 741q24 0 39 -15t15 -39t-15 -39t-39 -15t-39 15t-15 40q0 23 15.5 38t38.5 15z" />
<glyph unicode="&#x130;" horiz-adv-x="260" d="M50 0l110 692h79l-109 -692h-80zM224 880q23 0 37.5 -14.5t14.5 -37.5t-14.5 -37.5t-37.5 -14.5t-37.5 15t-14.5 39q0 22 14.5 36t37.5 14z" />
<glyph unicode="&#x131;" horiz-adv-x="262" d="M53 0l80 507h76l-80 -507h-76z" />
<glyph unicode="&#x134;" horiz-adv-x="362" d="M265 692h80l-77 -484q-12 -75 -25 -111.5t-37 -59.5q-46 -47 -133 -47q-65 0 -113 23l18 67q41 -24 88 -24q65 0 91 45q19 31 40 160zM322 852l-85 -97h-76l120 146h91l74 -146h-70z" />
<glyph unicode="&#x135;" horiz-adv-x="262" d="M131 507h76l-83 -526q-18 -113 -40 -147q-38 -59 -119 -59q-34 0 -66 12l14 59q24 -10 45 -10q67 0 82 99zM193 682l-85 -97h-76l120 146h91l74 -146h-70z" />
<glyph unicode="&#x136;" horiz-adv-x="580" d="M57 0l110 692h79l-51 -328l331 328h93l-334 -334l235 -358h-94l-233 354l-56 -354h-80zM258 -34h90l-154 -147h-74z" />
<glyph unicode="&#x137;" horiz-adv-x="488" d="M55 0l116 731h76l-69 -437l231 213h97l-255 -232l180 -275h-91l-168 259l-41 -259h-76zM207 -34h90l-154 -147h-74z" />
<glyph unicode="&#x139;" horiz-adv-x="474" d="M54 0l110 692h79l-99 -626h291l-10 -66h-371zM327 901h103l-165 -146h-79z" />
<glyph unicode="&#x13a;" horiz-adv-x="262" d="M53 0l116 731h76l-116 -731h-76zM300 901h103l-165 -146h-79z" />
<glyph unicode="&#x13b;" horiz-adv-x="474" d="M54 0l110 692h79l-99 -626h291l-10 -66h-371zM222 -34h90l-154 -147h-74z" />
<glyph unicode="&#x13c;" horiz-adv-x="262" d="M53 0l115 731h76l-115 -731h-76zM55 -34h90l-154 -147h-74z" />
<glyph unicode="&#x13d;" horiz-adv-x="474" d="M54 0l110 692h79l-99 -626h291l-10 -66h-371zM379 731h88l-121 -224h-70z" />
<glyph unicode="&#x13e;" horiz-adv-x="320" d="M53 0l116 731h76l-116 -731h-76zM367 731h88l-121 -224h-70z" />
<glyph unicode="&#x141;" horiz-adv-x="487" d="M60 0l48 307l-89 -55l10 65l90 55l50 320h80l-42 -265l120 74l-11 -65l-119 -74l-47 -296h291l-11 -66h-370z" />
<glyph unicode="&#x142;" horiz-adv-x="272" d="M58 0l53 332l-91 -65l10 65l91 66l53 333h76l-44 -277l91 66l-10 -66l-91 -65l-62 -389h-76z" />
<glyph unicode="&#x143;" horiz-adv-x="690" d="M56 0l110 692h89l189 -441q21 -49 52 -134q6 45 7 52l5 38q2 12 6 38l70 447h79l-110 -692h-90l-190 445q-27 63 -50 127q-1 -5 -8 -53l-4 -32l-5 -33l-72 -454h-78zM515 901h103l-165 -146h-79z" />
<glyph unicode="&#x144;" horiz-adv-x="581" d="M52 0l54 343q19 123 22 164h75l-9 -74q91 84 179 84q62 0 99 -35t37 -94q0 -26 -9 -93l-47 -295h-76l48 305q7 42 7 69q0 39 -20.5 60.5t-58.5 21.5q-41 0 -86 -25.5t-82 -69.5l-57 -361h-76zM420 731h103l-165 -146h-79z" />
<glyph unicode="&#x145;" horiz-adv-x="690" d="M56 0l110 692h89l189 -441q21 -49 52 -134q6 45 7 52l5 38q2 12 6 38l70 447h79l-110 -692h-90l-190 445q-27 63 -50 127q-1 -5 -8 -53l-4 -32l-5 -33l-72 -454h-78zM306 -34h90l-154 -147h-74z" />
<glyph unicode="&#x146;" horiz-adv-x="581" d="M52 0l54 343q19 123 22 164h75l-9 -74q91 84 179 84q62 0 99 -35t37 -94q0 -26 -9 -93l-47 -295h-76l48 305q7 42 7 69q0 39 -20.5 60.5t-58.5 21.5q-41 0 -86 -25.5t-82 -69.5l-57 -361h-76zM234 -34h90l-154 -147h-74z" />
<glyph unicode="&#x147;" horiz-adv-x="690" d="M56 0l110 692h89l189 -441q21 -49 52 -134q6 45 7 52l5 38q2 12 6 38l70 447h79l-110 -692h-90l-190 445q-27 63 -50 127q-1 -5 -8 -53l-4 -32l-5 -33l-72 -454h-78zM432 810l85 97h76l-120 -146h-91l-74 146h70z" />
<glyph unicode="&#x148;" horiz-adv-x="581" d="M52 0l54 343q19 123 22 164h75l-9 -74q91 84 179 84q62 0 99 -35t37 -94q0 -26 -9 -93l-47 -295h-76l48 305q7 42 7 69q0 39 -20.5 60.5t-58.5 21.5q-41 0 -86 -25.5t-82 -69.5l-57 -361h-76zM355 634l85 97h75l-120 -146h-91l-74 146h70z" />
<glyph unicode="&#x14c;" horiz-adv-x="720" d="M419 702q146 0 211 -103q49 -81 49 -187q0 -158 -90 -284q-98 -138 -259 -138q-143 0 -208 100q-51 79 -51 194q0 152 90 280q97 138 258 138zM418 636q-120 0 -193 -115q-31 -47 -50 -116.5t-19 -134.5q0 -101 46.5 -157.5t129.5 -56.5q120 0 194 115q31 49 49.5 117.5 t18.5 136.5q0 98 -47 154.5t-129 56.5zM306 793l10 61h284l-10 -61h-284z" />
<glyph unicode="&#x14d;" horiz-adv-x="565" d="M314 517q91 0 146 -58t55 -155q0 -133 -75.5 -223.5t-187.5 -90.5q-93 0 -147.5 58.5t-54.5 158.5q0 117 66 207q75 103 198 103zM312 456q-90 0 -143 -95q-39 -71 -39 -158q0 -71 33 -111.5t91 -40.5q76 0 128.5 74t52.5 181q0 70 -33 110t-90 40zM191 626l9 58h284 l-9 -58h-284z" />
<glyph unicode="&#x150;" horiz-adv-x="720" d="M419 702q146 0 211 -103q49 -81 49 -187q0 -158 -90 -284q-98 -138 -259 -138q-143 0 -208 100q-51 79 -51 194q0 152 90 280q97 138 258 138zM418 636q-120 0 -193 -115q-31 -47 -50 -116.5t-19 -134.5q0 -101 46.5 -157.5t129.5 -56.5q120 0 194 115q31 49 49.5 117.5 t18.5 136.5q0 98 -47 154.5t-129 56.5zM444 901h92l-145 -146h-69zM596 901h92l-145 -146h-69z" />
<glyph unicode="&#x151;" horiz-adv-x="565" d="M314 517q91 0 146 -58t55 -155q0 -133 -75.5 -223.5t-187.5 -90.5q-93 0 -147.5 58.5t-54.5 158.5q0 117 66 207q75 103 198 103zM312 456q-90 0 -143 -95q-39 -71 -39 -158q0 -71 33 -111.5t91 -40.5q76 0 128.5 74t52.5 181q0 70 -33 110t-90 40zM337 731h92l-145 -146 h-69zM489 731h92l-145 -146h-69z" />
<glyph unicode="&#x152;" horiz-adv-x="930" d="M820 0h-439q-102 0 -146 15q-76 25 -118.5 94t-42.5 169q0 86 28 167t77 137q74 84 180 104q31 6 126 6h430l-10 -66h-277l-38 -242h263l-11 -66h-263l-40 -252h291zM548 626h-59q-69 0 -103 -5t-65 -21q-71 -35 -116.5 -126.5t-45.5 -198.5q0 -137 87 -183 q51 -26 154 -26h60z" />
<glyph unicode="&#x153;" horiz-adv-x="890" d="M767 100l19 -60q-81 -50 -166 -50q-130 0 -180 100q-80 -100 -192 -100q-89 0 -143.5 58t-54.5 154q0 135 76.5 225t191.5 90q120 0 175 -98q67 98 177 98q85 0 129.5 -48.5t44.5 -142.5q0 -42 -9 -93h-335q-1 -16 -1 -39q0 -70 32 -106.5t93 -36.5q69 0 143 49zM315 456 q-77 0 -131 -74t-54 -180q0 -71 32 -111t89 -40q77 0 130.5 74.5t53.5 180.5q0 70 -32 110t-88 40zM512 294h252q3 28 3 43q0 58 -26.5 88.5t-75.5 30.5q-58 0 -98.5 -43.5t-54.5 -118.5z" />
<glyph unicode="&#x154;" horiz-adv-x="538" d="M55 0l110 692h127q118 0 173 -39t55 -123q0 -95 -64 -148q-22 -18 -44 -27.5t-63 -18.5q38 -16 53.5 -40t32.5 -97l47 -199h-84l-40 178q-18 79 -46.5 104t-100.5 25h-27l-49 -307h-80zM194 373h35q103 0 151 34q55 39 55 119q0 55 -35 77.5t-120 22.5h-46zM423 901h103 l-165 -146h-79z" />
<glyph unicode="&#x155;" horiz-adv-x="351" d="M50 0l46 289q18 118 31 218h74l-9 -75q57 85 134 85q22 0 43 -6l-11 -67q-18 5 -36 5q-84 0 -142 -105l-54 -344h-76zM334 731h103l-165 -146h-79z" />
<glyph unicode="&#x156;" horiz-adv-x="538" d="M55 0l110 692h127q118 0 173 -39t55 -123q0 -95 -64 -148q-22 -18 -44 -27.5t-63 -18.5q38 -16 53.5 -40t32.5 -97l47 -199h-84l-40 178q-18 79 -46.5 104t-100.5 25h-27l-49 -307h-80zM194 373h35q103 0 151 34q55 39 55 119q0 55 -35 77.5t-120 22.5h-46zM241 -34h90 l-154 -147h-74z" />
<glyph unicode="&#x157;" horiz-adv-x="351" d="M50 0l46 289q13 82 31 218h75l-10 -75q57 85 135 85q21 0 42 -6l-11 -67q-18 5 -36 5q-82 0 -141 -105l-55 -344h-76zM61 -34h90l-154 -147h-74z" />
<glyph unicode="&#x158;" horiz-adv-x="538" d="M55 0l110 692h127q118 0 173 -39t55 -123q0 -95 -64 -148q-22 -18 -44 -27.5t-63 -18.5q38 -16 53.5 -40t32.5 -97l47 -199h-84l-40 178q-18 79 -46.5 104t-100.5 25h-27l-49 -307h-80zM194 373h35q103 0 151 34q55 39 55 119q0 55 -35 77.5t-120 22.5h-46zM349 810 l85 97h76l-120 -146h-91l-74 146h70z" />
<glyph unicode="&#x159;" horiz-adv-x="351" d="M50 0l46 289q18 118 31 218h74l-9 -75q57 85 134 85q22 0 43 -6l-11 -67q-18 5 -36 5q-84 0 -142 -105l-54 -344h-76zM257 634l85 97h75l-120 -146h-91l-74 146h70z" />
<glyph unicode="&#x15a;" horiz-adv-x="520" d="M31 23l21 71q86 -38 160 -38q68 0 112.5 41.5t44.5 105.5q0 40 -22.5 65t-94.5 62q-89 46 -118 78q-35 38 -35 95q0 88 64.5 143.5t167.5 55.5q80 0 165 -33l-26 -69q-71 36 -138 36q-64 0 -106 -35t-42 -89q0 -37 23.5 -62t87.5 -56q90 -43 121 -78q38 -43 38 -106 q0 -97 -69.5 -158.5t-178.5 -61.5q-85 0 -175 33zM414 901h103l-165 -146h-79z" />
<glyph unicode="&#x15b;" horiz-adv-x="421" d="M17 25l32 61q62 -35 114 -35q47 0 79 28t32 68q0 30 -16.5 46t-71.5 39q-61 26 -87 57t-26 77q0 68 49.5 109.5t131.5 41.5q73 0 141 -38l-32 -60q-50 37 -109 37q-47 0 -75 -23.5t-28 -62.5q0 -26 15 -41t64 -37q67 -29 94.5 -60.5t27.5 -78.5q0 -71 -53.5 -117 t-136.5 -46q-76 0 -145 35zM333 731h103l-165 -146h-79z" />
<glyph unicode="&#x15c;" horiz-adv-x="520" d="M31 23l21 71q86 -38 160 -38q68 0 112.5 41.5t44.5 105.5q0 40 -22.5 65t-94.5 62q-89 46 -118 78q-35 38 -35 95q0 88 64.5 143.5t167.5 55.5q80 0 165 -33l-26 -69q-71 36 -138 36q-64 0 -106 -35t-42 -89q0 -37 23.5 -62t87.5 -56q90 -43 121 -78q38 -43 38 -106 q0 -97 -69.5 -158.5t-178.5 -61.5q-85 0 -175 33zM361 852l-85 -97h-76l120 146h91l74 -146h-70z" />
<glyph unicode="&#x15d;" horiz-adv-x="421" d="M17 25l32 61q62 -35 114 -35q47 0 79 28t32 68q0 30 -16.5 46t-71.5 39q-61 26 -87 57t-26 77q0 68 49.5 109.5t131.5 41.5q73 0 141 -38l-32 -60q-50 37 -109 37q-47 0 -75 -23.5t-28 -62.5q0 -26 15 -41t64 -37q67 -29 94.5 -60.5t27.5 -78.5q0 -71 -53.5 -117 t-136.5 -46q-76 0 -145 35zM281 682l-85 -97h-76l120 146h91l74 -146h-70z" />
<glyph unicode="&#x15e;" horiz-adv-x="520" d="M31 23l21 71q86 -38 160 -38q68 0 112.5 41.5t44.5 105.5q0 40 -22.5 65t-94.5 62q-89 46 -118 78q-35 38 -35 95q0 88 64.5 143.5t167.5 55.5q80 0 165 -33l-26 -69q-71 36 -138 36q-64 0 -106 -35t-42 -89q0 -37 23.5 -62t87.5 -56q90 -43 121 -78q38 -43 38 -106 q0 -97 -69.5 -158.5t-178.5 -61.5q-85 0 -175 33zM189 -34h90l-154 -147h-74z" />
<glyph unicode="&#x15f;" horiz-adv-x="421" d="M17 25l32 61q62 -35 114 -35q47 0 79 28t32 68q0 30 -16.5 46t-71.5 39q-61 26 -87 57t-26 77q0 68 49.5 109.5t131.5 41.5q73 0 141 -38l-32 -60q-50 37 -109 37q-47 0 -75 -23.5t-28 -62.5q0 -26 15 -41t64 -37q67 -29 94.5 -60.5t27.5 -78.5q0 -71 -53.5 -117 t-136.5 -46q-76 0 -145 35zM157 -34h90l-154 -147h-74z" />
<glyph unicode="&#x160;" horiz-adv-x="520" d="M31 23l21 71q86 -38 160 -38q68 0 112.5 41.5t44.5 105.5q0 40 -22.5 65t-94.5 62q-89 46 -118 78q-35 38 -35 95q0 88 64.5 143.5t167.5 55.5q80 0 165 -33l-26 -69q-71 36 -138 36q-64 0 -106 -35t-42 -89q0 -37 23.5 -62t87.5 -56q90 -43 121 -78q38 -43 38 -106 q0 -97 -69.5 -158.5t-178.5 -61.5q-85 0 -175 33zM348 810l85 97h76l-120 -146h-91l-74 146h70z" />
<glyph unicode="&#x161;" horiz-adv-x="421" d="M17 25l32 61q62 -35 114 -35q47 0 79 28t32 68q0 30 -16.5 46t-71.5 39q-61 26 -87 57t-26 77q0 68 49.5 109.5t131.5 41.5q73 0 141 -38l-32 -60q-50 37 -109 37q-47 0 -75 -23.5t-28 -62.5q0 -26 15 -41t64 -37q67 -29 94.5 -60.5t27.5 -78.5q0 -71 -53.5 -117 t-136.5 -46q-76 0 -145 35zM269 634l85 97h75l-120 -146h-91l-74 146h70z" />
<glyph unicode="&#x163;" horiz-adv-x="334" d="M135 446h-79l9 61h80l16 101l79 16l-19 -117h116l-9 -61h-117l-44 -277q-6 -40 -6 -62q0 -56 50 -56q31 0 70 18l-2 -62q-40 -17 -85 -17q-110 0 -110 102q0 31 7 73zM157 -34h90l-154 -147h-74z" />
<glyph unicode="&#x164;" horiz-adv-x="515" d="M176 0l99 626h-196l10 66h475l-10 -66h-199l-99 -626h-80zM345 810l85 97h76l-120 -146h-91l-74 146h70z" />
<glyph unicode="&#x165;" horiz-adv-x="365" d="M136 446h-80l10 61h79l16 101l79 16l-19 -117h116l-9 -61h-116l-44 -277q-7 -42 -7 -62q0 -56 50 -56q31 0 70 18l-2 -62q-40 -17 -84 -17q-111 0 -111 102q0 28 7 73zM430 775h88l-122 -224h-69z" />
<glyph unicode="&#x16a;" horiz-adv-x="665" d="M160 692h80l-67 -420q-9 -59 -9 -93q0 -123 137 -123q106 0 156 71q28 41 50 178l61 387h76l-63 -397q-17 -106 -31 -149t-44 -77q-70 -79 -206 -79q-101 0 -158.5 46t-57.5 126q0 51 16 155zM270 793l10 61h284l-10 -61h-284z" />
<glyph unicode="&#x16b;" horiz-adv-x="575" d="M523 507l-54 -342q-18 -118 -22 -165h-70l9 74q-53 -47 -93.5 -65.5t-88.5 -18.5q-62 0 -97.5 35t-35.5 97q0 28 7 68l50 317h76l-48 -306q-9 -54 -9 -79q0 -34 20.5 -52.5t57.5 -18.5q38 0 82 24.5t82 66.5l58 365h76zM199 626l9 58h284l-9 -58h-284z" />
<glyph unicode="&#x16d;" horiz-adv-x="575" d="M523 507l-54 -342q-18 -118 -22 -165h-70l9 74q-53 -47 -93.5 -65.5t-88.5 -18.5q-62 0 -97.5 35t-35.5 97q0 28 7 68l50 317h76l-48 -306q-9 -54 -9 -79q0 -34 20.5 -52.5t57.5 -18.5q38 0 82 24.5t82 66.5l58 365h76zM213 731h66v-15q0 -79 63 -79q69 0 92 94h68 q-12 -62 -39 -93q-46 -55 -121 -55q-60 0 -95.5 34t-35.5 91q0 13 2 23z" />
<glyph unicode="&#x16e;" horiz-adv-x="665" d="M160 692h80l-67 -420q-9 -59 -9 -93q0 -123 137 -123q106 0 156 71q28 41 50 178l61 387h76l-63 -397q-17 -106 -31 -149t-44 -77q-70 -79 -206 -79q-101 0 -158.5 46t-57.5 126q0 51 16 155zM412 880q42 0 71 -29t29 -71t-29 -71t-71 -29q-43 0 -71.5 29t-28.5 72 q0 41 29 70t71 29zM412 840q-25 0 -41.5 -17t-16.5 -42q0 -27 16 -44t42 -17q25 0 41 17t16 43t-16 43t-41 17z" />
<glyph unicode="&#x16f;" horiz-adv-x="575" d="M523 507l-54 -342q-18 -118 -22 -165h-70l9 74q-53 -47 -93.5 -65.5t-88.5 -18.5q-62 0 -97.5 35t-35.5 97q0 28 7 68l50 317h76l-48 -306q-9 -54 -9 -79q0 -34 20.5 -52.5t57.5 -18.5q38 0 82 24.5t82 66.5l58 365h76zM344 765q42 0 71 -29t29 -71t-29 -71t-71 -29 q-43 0 -71.5 29t-28.5 72q0 41 29 70t71 29zM344 725q-25 0 -41.5 -17t-16.5 -42q0 -27 16 -44t42 -17q25 0 41 17t16 43t-16 43t-41 17z" />
<glyph unicode="&#x170;" horiz-adv-x="665" d="M160 692h80l-67 -420q-9 -59 -9 -93q0 -123 137 -123q106 0 156 71q28 41 50 178l61 387h76l-63 -397q-17 -106 -31 -149t-44 -77q-70 -79 -206 -79q-101 0 -158.5 46t-57.5 126q0 51 16 155zM406 901h92l-145 -146h-69zM558 901h92l-145 -146h-69z" />
<glyph unicode="&#x171;" horiz-adv-x="575" d="M523 507l-54 -342q-18 -118 -22 -165h-70l9 74q-53 -47 -93.5 -65.5t-88.5 -18.5q-62 0 -97.5 35t-35.5 97q0 28 7 68l50 317h76l-48 -306q-9 -54 -9 -79q0 -34 20.5 -52.5t57.5 -18.5q38 0 82 24.5t82 66.5l58 365h76zM328 731h92l-145 -146h-69zM480 731h92l-145 -146 h-69z" />
<glyph unicode="&#x172;" horiz-adv-x="665" d="M644 692l-63 -397q-16 -104 -30.5 -147t-44.5 -79q-54 -60 -143 -74q-49 -30 -65 -43q-51 -41 -51 -80q0 -17 12 -27t31 -10q15 0 50 8v-48q-42 -13 -66 -13q-44 0 -70.5 22t-26.5 58q0 77 121 128q-101 1 -157.5 46.5t-56.5 125.5q0 56 16 155l60 375h79l-66 -420 q-9 -52 -9 -93q0 -123 137 -123q107 0 155 71q29 40 51 178l61 387h76z" />
<glyph unicode="&#x173;" horiz-adv-x="575" d="M376 0l10 74q-54 -47 -94 -65.5t-88 -18.5q-62 0 -97.5 35t-35.5 97q0 26 6 68l51 317h76l-49 -306q-8 -48 -8 -79q0 -34 20.5 -52.5t57.5 -18.5q81 0 164 91l58 365h76l-54 -342q-13 -75 -23 -165q-55 -33 -74 -48q-51 -39 -51 -80q0 -16 12 -26.5t31 -10.5q15 0 50 8 v-48q-43 -13 -67 -13q-44 0 -70 21.5t-26 57.5q0 86 147 139h-22z" />
<glyph unicode="&#x174;" horiz-adv-x="859" d="M155 0l-41 692h82l23 -467q3 -93 3 -143q18 57 51 143l175 467h100l31 -464q5 -77 5 -141q12 39 49 138l172 467h79l-261 -692h-103l-30 462q-5 83 -5 144q-18 -55 -52 -144l-176 -462h-102zM526 852l-85 -97h-76l120 146h91l74 -146h-70z" />
<glyph unicode="&#x176;" horiz-adv-x="560" d="M200 0l49 312l-174 380h89l99 -220l17 -36q13 -31 21 -49q25 34 59 80l173 225h91l-295 -380l-49 -312h-80zM376 852l-85 -97h-76l120 146h91l74 -146h-70z" />
<glyph unicode="&#x177;" horiz-adv-x="489" d="M168 -3l-112 510h79l63 -299q18 -86 23 -116l50 101l165 314h74l-287 -550q-56 -108 -97 -145t-103 -37q-42 0 -80 14l22 61q29 -14 52 -14q42 0 75 35t76 126zM315 682l-85 -97h-76l120 146h91l74 -146h-70z" />
<glyph unicode="&#x178;" horiz-adv-x="560" d="M200 0l49 312l-174 380h89l99 -220l17 -36q13 -31 21 -49q25 34 59 80l173 225h91l-295 -380l-49 -312h-80zM272 880q23 0 37.5 -14.5t14.5 -37.5t-14.5 -37.5t-37.5 -14.5t-37.5 15t-14.5 39q0 22 14.5 36t37.5 14zM456 880q23 0 37.5 -14.5t14.5 -37.5t-14.5 -37.5 t-37.5 -14.5t-37.5 15t-14.5 39q0 22 14.5 36t37.5 14z" />
<glyph unicode="&#x179;" horiz-adv-x="549" d="M0 0l10 66l446 560h-345l10 66h441l-11 -66l-444 -560h356l-11 -66h-452zM428 901h103l-165 -146h-79z" />
<glyph unicode="&#x17a;" horiz-adv-x="444" d="M-2 0l9 57l332 389h-258l10 61h353l-10 -61l-330 -385h269l-10 -61h-365zM354 731h103l-165 -146h-79z" />
<glyph unicode="&#x17b;" horiz-adv-x="549" d="M0 0l10 66l446 560h-345l10 66h441l-11 -66l-444 -560h356l-11 -66h-452zM368 880q23 0 37.5 -14.5t14.5 -37.5t-14.5 -37.5t-37.5 -14.5t-37.5 15t-14.5 39q0 22 14.5 36t37.5 14z" />
<glyph unicode="&#x17c;" horiz-adv-x="444" d="M-2 0l9 57l332 389h-258l10 61h353l-10 -61l-330 -385h269l-10 -61h-365zM286 710q23 0 37.5 -14.5t14.5 -37.5t-14.5 -37.5t-37.5 -14.5t-37.5 15t-14.5 39q0 22 14.5 36t37.5 14z" />
<glyph unicode="&#x17d;" horiz-adv-x="549" d="M0 0l10 66l446 560h-345l10 66h441l-11 -66l-444 -560h356l-11 -66h-452zM355 810l85 97h76l-120 -146h-91l-74 146h70z" />
<glyph unicode="&#x17e;" horiz-adv-x="444" d="M-2 0l9 57l332 389h-258l10 61h353l-10 -61l-330 -385h269l-10 -61h-365zM280 634l85 97h75l-120 -146h-91l-74 146h70z" />
<glyph unicode="&#x192;" horiz-adv-x="576" d="M264 328h-93v59h103l18 112q19 119 52.5 161t109.5 42q39 0 85 -10l-10 -63q-33 12 -63 12q-44 0 -66 -34t-37 -125l-15 -95h132v-59h-141l-40 -252q-19 -120 -42 -154q-35 -51 -115 -51q-38 0 -86 12l10 61q32 -12 56 -12q64 0 88 74q9 32 23 122z" />
<glyph unicode="&#x1cd;" horiz-adv-x="623" d="M434 242h-248l-121 -242h-85l348 692h100l131 -692h-81zM421 308l-31 182q-14 84 -20 130q-23 -51 -26 -58q-10 -22 -35 -72l-90 -182h202zM395 810l85 97h76l-120 -146h-91l-74 146h70z" />
<glyph unicode="&#x1ce;" horiz-adv-x="561" d="M439 507h74q0 -1 -16 -87q-1 -9 -19 -117l-23 -141q-11 -69 -21 -162h-72l9 71q-37 -44 -72 -62.5t-81 -18.5q-78 0 -123 55t-45 152q0 131 68 227q66 93 167 93q96 0 141 -80zM377 147l34 214q-30 95 -116 95q-78 0 -127 -94q-38 -73 -38 -169q0 -65 28 -103.5t75 -38.5 q77 0 144 96zM329 634l85 97h75l-120 -146h-91l-74 146h70z" />
<glyph unicode="&#x1d3;" horiz-adv-x="665" d="M160 692h80l-67 -420q-9 -59 -9 -93q0 -123 137 -123q106 0 156 71q28 41 50 178l61 387h76l-63 -397q-17 -106 -31 -149t-44 -77q-70 -79 -206 -79q-101 0 -158.5 46t-57.5 126q0 51 16 155zM415 810l85 97h76l-120 -146h-91l-74 146h70z" />
<glyph unicode="&#x1e6;" horiz-adv-x="673" d="M599 357l-53 -335q-102 -32 -201 -32q-142 0 -214 88q-62 75 -62 192q0 165 91 289q104 143 279 143q101 0 200 -42l-24 -65q-89 41 -171 41q-133 0 -213 -114q-77 -111 -77 -247q0 -103 52.5 -161t147.5 -58q62 0 121 20l34 215h-132l11 66h211zM445 810l85 97h76 l-120 -146h-91l-74 146h70z" />
<glyph unicode="&#x1e7;" horiz-adv-x="563" d="M441 507h75q-21 -110 -36 -200l-42 -268q-13 -82 -25.5 -120t-37.5 -69q-61 -75 -178 -75q-98 0 -188 59l38 56q69 -54 144 -54q89 0 134 76q23 42 38 135l6 38q-32 -41 -65 -58.5t-79 -17.5q-81 0 -127 54.5t-46 149.5q0 119 63 208q67 96 166 96q48 0 87 -23t59 -64z M382 163l30 195q-33 98 -119 98q-72 0 -120 -86q-41 -74 -41 -160q0 -67 29.5 -103.5t82.5 -36.5q37 0 69 21.5t69 71.5zM340 634l85 97h75l-120 -146h-91l-74 146h70z" />
<glyph unicode="&#x1f4;" horiz-adv-x="673" d="M599 357l-53 -335q-102 -32 -201 -32q-142 0 -214 88q-62 75 -62 192q0 165 91 289q104 143 279 143q101 0 200 -42l-24 -65q-89 41 -171 41q-133 0 -213 -114q-77 -111 -77 -247q0 -103 52.5 -161t147.5 -58q62 0 121 20l34 215h-132l11 66h211zM521 901h103l-165 -146 h-79z" />
<glyph unicode="&#x219;" horiz-adv-x="421" d="M17 25l32 61q62 -35 114 -35q47 0 79 28t32 68q0 30 -16.5 46t-71.5 39q-61 26 -87 57t-26 77q0 68 49.5 109.5t131.5 41.5q73 0 141 -38l-32 -60q-52 37 -109 37q-47 0 -75 -23.5t-28 -62.5q0 -26 15 -41t64 -37q67 -29 94.5 -60.5t27.5 -78.5q0 -71 -53.5 -117 t-136.5 -46q-76 0 -145 35zM147 -34h90l-154 -147h-74z" />
<glyph unicode="&#x21a;" horiz-adv-x="515" d="M175 0l100 626h-196l10 66h475l-11 -66h-199l-99 -626h-80zM181 -34h90l-154 -147h-74z" />
<glyph unicode="&#x2bc;" horiz-adv-x="168" d="M150 731h88l-121 -224h-70z" />
<glyph unicode="&#x2c6;" d="M321 682l-85 -97h-76l120 146h91l74 -146h-70z" />
<glyph unicode="&#x2c7;" d="M308 634l85 97h75l-120 -146h-91l-74 146h70z" />
<glyph unicode="&#x2c9;" d="M167 626l9 58h284l-9 -58h-284z" />
<glyph unicode="&#x2d8;" d="M181 731h66v-15q0 -79 63 -79q69 0 92 94h68q-12 -62 -39 -93q-46 -55 -121 -55q-60 0 -95.5 34t-35.5 91q0 13 2 23z" />
<glyph unicode="&#x2d9;" d="M314 710q23 0 37.5 -14.5t14.5 -37.5t-14.5 -37.5t-37.5 -14.5t-37.5 15t-14.5 39q0 22 14.5 36t37.5 14z" />
<glyph unicode="&#x2da;" d="M315 765q42 0 71 -29t29 -71t-29 -71t-71 -29q-43 0 -71.5 29t-28.5 72q0 41 29 70t71 29zM315 725q-25 0 -41.5 -17t-16.5 -42q0 -27 16 -44t42 -17q25 0 41 17t16 43t-16 43t-41 17z" />
<glyph unicode="&#x2db;" d="M215 -157v-48q-38 -13 -67 -13q-43 0 -69.5 22t-26.5 57q0 86 147 139h48q-54 -32 -74 -48q-51 -41 -51 -80q0 -17 12 -27t31 -10q15 0 50 8z" />
<glyph unicode="&#x2dc;" d="M194 604h-53q12 49 38 75.5t62 26.5q34 0 88 -21q38 -15 55 -15q40 0 51 42h51q-24 -103 -100 -103q-32 0 -84 20q-42 16 -61 16q-29 0 -47 -41z" />
<glyph unicode="&#x2dd;" d="M304 731h92l-145 -146h-69zM456 731h92l-145 -146h-69z" />
<glyph unicode="&#x384;" d="M345 741h90l-114 -164h-53z" />
<glyph unicode="&#x385;" d="M209 704q20 0 32.5 -13t12.5 -33t-13 -33t-33 -13t-33 13t-13 34q0 20 13 32.5t34 12.5zM421 704q20 0 32.5 -13t12.5 -33t-13 -33t-33 -13t-33 13t-13 34q0 20 13 32.5t34 12.5zM274 578l12 165h82l-39 -165h-55z" />
<glyph unicode="&#x386;" horiz-adv-x="629" d="M438 242h-248l-121 -242h-85l348 692h100l131 -692h-81zM425 308l-31 182q-14 84 -20 130q-22 -51 -26 -58q-10 -22 -35 -72l-90 -182h202zM137 731h90l-120 -204h-53z" />
<glyph unicode="&#x387;" horiz-adv-x="288" d="M148 336q25 0 41 -16t16 -41q0 -24 -16 -40.5t-41 -16.5t-41 16.5t-16 41.5q0 23 16.5 39.5t40.5 16.5z" />
<glyph unicode="&#x388;" horiz-adv-x="657" d="M134 731h90l-120 -204h-53zM180 0l110 692h356l-10 -66h-277l-38 -242h263l-11 -66h-263l-39 -252h291l-11 -66h-371z" />
<glyph unicode="&#x389;" horiz-adv-x="801" d="M134 731h90l-120 -204h-53zM181 0l110 692h80l-49 -305h321l48 305h80l-109 -692h-80l51 321h-321l-51 -321h-80z" />
<glyph unicode="&#x38a;" horiz-adv-x="408" d="M134 731h90l-120 -204h-53zM185 0l110 692h80l-110 -692h-80z" />
<glyph unicode="&#x38c;" horiz-adv-x="814" d="M134 731h90l-120 -204h-53zM514 702q141 0 207 -103q49 -81 49 -187q0 -158 -90 -284q-98 -138 -258 -138q-144 0 -209 100q-51 80 -51 191q0 154 90 283q97 138 262 138zM511 636q-122 0 -195 -115q-31 -49 -50 -118t-19 -137q0 -98 47 -154t129 -56q120 0 194 115 q31 49 49.5 117.5t18.5 136.5q0 97 -47 154t-127 57z" />
<glyph unicode="&#x38e;" horiz-adv-x="725" d="M131 731h90l-120 -204h-53zM363 0l50 312l-175 380h90l99 -220l16 -36q4 -8 21 -49q30 41 60 80l172 225h92l-296 -380l-49 -312h-80z" />
<glyph unicode="&#x38f;" horiz-adv-x="854" d="M134 731h90l-120 -204h-53zM117 0l11 66h201l7 43q-45 20 -67.5 35t-40.5 37q-57 68 -57 176q0 146 95 246q96 98 253 98q138 0 217 -73t79 -200q0 -134 -88 -228q-32 -35 -66 -54.5t-101 -42.5l-6 -37h201l-11 -66h-270l24 152q106 25 161 84q71 76 71 195 q0 96 -55.5 150t-153.5 54q-120 0 -192.5 -77.5t-72.5 -207.5q0 -80 37.5 -127.5t118.5 -70.5l-24 -152h-271z" />
<glyph unicode="&#x390;" horiz-adv-x="310" d="M140 507h76l-57 -357q-4 -36 -4 -49q0 -47 48 -47q15 0 45 6l-2 -63q-29 -7 -57 -7q-110 0 -110 95q0 42 13 118zM96 704q20 0 32.5 -13t12.5 -33t-13 -33t-33 -13t-33 13t-13 34q0 20 13 32.5t34 12.5zM308 704q20 0 32.5 -13t12.5 -33t-13 -33t-33 -13t-33 13t-13 34 q0 20 13 32.5t34 12.5zM161 578l12 165h82l-39 -165h-55z" />
<glyph unicode="&#x391;" horiz-adv-x="629" d="M438 242h-248l-121 -242h-85l348 692h100l131 -692h-81zM425 308l-31 182q-14 84 -20 130q-22 -51 -26 -58q-10 -22 -35 -72l-90 -182h202z" />
<glyph unicode="&#x392;" horiz-adv-x="556" d="M55 0l110 692h94q126 0 181 -24q77 -36 77 -138q0 -77 -40.5 -121t-124.5 -58q74 -9 107.5 -41.5t33.5 -96.5q0 -59 -25.5 -106.5t-71.5 -73.5q-36 -20 -73.5 -26.5t-123.5 -6.5h-144zM195 382h34q112 0 153 30q50 37 50 111q0 73 -61 93q-32 11 -103 11h-34zM145 65h34 q118 0 157 20q34 16 53 51.5t19 80.5q0 58 -40.5 80.5t-147.5 22.5h-34z" />
<glyph unicode="&#x393;" horiz-adv-x="487" d="M58 0l110 692h368l-11 -66h-288l-99 -626h-80z" />
<glyph unicode="&#x394;" horiz-adv-x="642" d="M-9 0l10 62l341 630h100l140 -630l-10 -62h-581zM90 66h407l-89 415q-8 32 -26 140l-12 -23l-22 -45q-13 -28 -35 -69z" />
<glyph unicode="&#x395;" horiz-adv-x="535" d="M58 0l110 692h356l-11 -66h-276l-38 -242h263l-11 -66h-263l-40 -252h291l-10 -66h-371z" />
<glyph unicode="&#x396;" horiz-adv-x="551" d="M1 0l10 66l446 560h-345l10 66h441l-11 -66l-444 -560h356l-11 -66h-452z" />
<glyph unicode="&#x397;" horiz-adv-x="679" d="M59 0l110 692h79l-48 -305h321l48 305h80l-110 -692h-79l50 321h-320l-51 -321h-80z" />
<glyph unicode="&#x398;" horiz-adv-x="726" d="M240 318l11 66h266l-11 -66h-266zM426 702q141 0 207 -103q49 -81 49 -187q0 -158 -90 -284q-98 -138 -258 -138q-144 0 -209 100q-51 80 -51 192q0 155 90 282q97 138 262 138zM423 636q-122 0 -195 -115q-31 -49 -50 -118t-19 -137q0 -98 47 -154t129 -56 q120 0 194 115q31 49 49.5 117.5t18.5 136.5q0 97 -47 154t-127 57z" />
<glyph unicode="&#x399;" horiz-adv-x="286" d="M63 0l110 692h79l-109 -692h-80z" />
<glyph unicode="&#x39a;" horiz-adv-x="586" d="M61 0l110 692h79l-51 -328l331 328h93l-334 -334l235 -358h-94l-233 354l-56 -354h-80z" />
<glyph unicode="&#x39b;" horiz-adv-x="605" d="M-16 0l337 692h100l119 -692h-82l-78 490q-11 72 -17 130q-31 -71 -59 -130l-235 -490h-85z" />
<glyph unicode="&#x39c;" horiz-adv-x="858" d="M62 0l110 692h108l99 -485q6 -32 15 -75t11 -55q5 11 61 123l252 492h108l-110 -692h-78l90 569q-41 -89 -82 -169l-208 -400h-94l-86 395q-11 52 -31 174l-90 -569h-75z" />
<glyph unicode="&#x39d;" horiz-adv-x="696" d="M60 0l110 692h89l189 -441q21 -49 52 -134q6 45 7 52l5 38q2 12 6 38l70 447h79l-110 -692h-90l-190 445q-27 63 -50 127q-1 -5 -8 -53l-4 -32l-5 -33l-72 -454h-78z" />
<glyph unicode="&#x39e;" horiz-adv-x="596" d="M35 0l10 66h447l-10 -66h-447zM142 318l10 66h334l-10 -66h-334zM149 626l10 66h418l-11 -66h-417z" />
<glyph unicode="&#x39f;" horiz-adv-x="726" d="M426 702q141 0 207 -103q49 -81 49 -187q0 -158 -90 -284q-98 -138 -258 -138q-144 0 -209 100q-51 80 -51 191q0 154 90 283q97 138 262 138zM423 636q-122 0 -195 -115q-31 -49 -50 -118t-19 -137q0 -98 47 -154t129 -56q120 0 194 115q31 49 49.5 117.5t18.5 136.5 q0 97 -47 154t-127 57z" />
<glyph unicode="&#x3a0;" horiz-adv-x="673" d="M69 0l99 626h-56l10 66h568l-10 -66h-57l-99 -626h-80l100 626h-296l-99 -626h-80z" />
<glyph unicode="&#x3a1;" horiz-adv-x="515" d="M57 0l110 692h120q115 0 167 -32q69 -42 69 -140q0 -60 -24 -109.5t-68 -78.5q-61 -40 -187 -40h-61l-46 -292h-80zM194 358h30q118 0 162 38q52 44 52 121q0 60 -35.5 84.5t-123.5 24.5h-43z" />
<glyph unicode="&#x3a3;" horiz-adv-x="538" d="M13 0l11 72l281 293l-180 267l9 60h418l-10 -66h-328l172 -249l-6 -36l-270 -275h362l-10 -66h-449z" />
<glyph unicode="&#x3a4;" horiz-adv-x="521" d="M179 0l99 626h-196l10 66h475l-10 -66h-199l-99 -626h-80z" />
<glyph unicode="&#x3a5;" horiz-adv-x="566" d="M203 0l49 312l-174 380h89l99 -220l17 -36q13 -31 21 -49q25 34 59 80l173 225h91l-295 -380l-49 -312h-80z" />
<glyph unicode="&#x3a6;" horiz-adv-x="817" d="M326 -30l14 88q-125 15 -194 84t-69 180q0 80 38 149.5t104 109.5q87 51 213 57l13 84h75l-14 -88q126 -15 194.5 -84t68.5 -180q0 -80 -38 -149.5t-104 -109.5q-87 -51 -213 -57l-13 -84h-75zM349 119l73 456q-103 -9 -167 -54q-44 -32 -70 -86t-26 -116 q0 -172 190 -200zM496 573l-72 -456q101 7 167 54q44 32 70 86t26 116q0 171 -191 200z" />
<glyph unicode="&#x3a7;" horiz-adv-x="621" d="M-8 0l291 360l-158 332h89l129 -271l223 271h94l-282 -343l166 -349h-89l-135 284l-232 -284h-96z" />
<glyph unicode="&#x3a8;" horiz-adv-x="803" d="M322 0l30 191h-33q-220 0 -220 182q0 53 20 174l23 145h79l-32 -204q-11 -70 -11 -113q0 -65 34 -91.5t118 -26.5h32l69 435h80l-69 -435h42q101 0 140.5 39t58.5 157l38 239h80l-36 -225q-18 -114 -34 -149q-28 -66 -90 -96.5t-166 -30.5h-43l-31 -191h-79z" />
<glyph unicode="&#x3a9;" horiz-adv-x="766" d="M29 0l10 66h201l7 43q-44 20 -66.5 35t-40.5 37q-57 68 -57 176q0 146 95 246q96 98 253 98q138 0 217 -73t79 -200q0 -134 -88 -228q-32 -35 -66 -54.5t-102 -42.5l-5 -37h201l-11 -66h-270l24 152q106 25 161 84q71 76 71 195q0 96 -55.5 150t-153.5 54 q-120 0 -192.5 -77.5t-72.5 -207.5q0 -80 37.5 -127.5t118.5 -70.5l-24 -152h-271z" />
<glyph unicode="&#x3aa;" horiz-adv-x="286" d="M63 0l110 692h79l-109 -692h-80zM143 880q23 0 37.5 -14.5t14.5 -37.5t-14.5 -37.5t-37.5 -14.5t-37.5 15t-14.5 39q0 22 14.5 36t37.5 14zM327 880q23 0 37.5 -14.5t14.5 -37.5t-14.5 -37.5t-37.5 -14.5t-37.5 15t-14.5 39q0 22 14.5 36t37.5 14z" />
<glyph unicode="&#x3ab;" horiz-adv-x="566" d="M203 0l49 312l-174 380h89l99 -220l17 -36q13 -31 21 -49q25 34 59 80l173 225h91l-295 -380l-49 -312h-80zM275 880q23 0 37.5 -14.5t14.5 -37.5t-14.5 -37.5t-37.5 -14.5t-37.5 15t-14.5 39q0 22 14.5 36t37.5 14zM459 880q23 0 37.5 -14.5t14.5 -37.5t-14.5 -37.5 t-37.5 -14.5t-37.5 15t-14.5 39q0 22 14.5 36t37.5 14z" />
<glyph unicode="&#x3ac;" horiz-adv-x="583" d="M489 4l-80 -14q-6 45 -6 118q-40 -64 -83 -91t-104 -27q-81 0 -123.5 50t-42.5 147q0 145 67 238q67 92 171 92q118 0 156 -114q11 42 32 108l72 -10q-72 -219 -72 -380q0 -61 13 -117zM402 190l14 91q-17 175 -125 175q-82 0 -126 -99q-35 -80 -35 -172q0 -134 99 -134 q102 0 173 139zM386 741h90l-114 -164h-53z" />
<glyph unicode="&#x3ad;" horiz-adv-x="483" d="M383 233h-250q-2 -22 -2 -41q0 -141 126 -141q72 0 145 47l27 -61q-80 -47 -168 -47q-101 0 -155.5 55.5t-54.5 158.5q0 131 67 223q67 90 189 90q84 0 162 -43l-35 -59q-65 41 -128 41q-65 0 -104.5 -39.5t-58.5 -122.5h249zM370 741h90l-114 -164h-53z" />
<glyph unicode="&#x3ae;" horiz-adv-x="581" d="M55 0l54 343q19 123 22 164h75l-9 -74q90 84 176 84q60 0 96.5 -34.5t36.5 -91.5q0 -31 -9 -96l-81 -510h-76l82 520q6 36 6 71q0 38 -20 59t-55 21q-86 0 -165 -95l-57 -361h-76zM386 741h90l-114 -164h-53z" />
<glyph unicode="&#x3af;" horiz-adv-x="310" d="M139 507h76l-56 -357q-5 -26 -5 -49q0 -47 48 -47q14 0 46 6l-2 -63q-31 -7 -58 -7q-110 0 -110 95q0 32 13 118zM245 741h90l-114 -164h-53z" />
<glyph unicode="&#x3b0;" horiz-adv-x="572" d="M131 507h76l-41 -259q-10 -63 -10 -112q0 -44 24 -64.5t76 -20.5q71 0 100 38.5t48 158.5l41 259h76l-44 -279q-19 -119 -47 -163q-25 -40 -68 -57.5t-114 -17.5q-86 0 -127.5 33t-41.5 101q0 48 14 144zM239 704q20 0 32.5 -13t12.5 -33t-13 -33t-33 -13t-33 13t-13 34 q0 20 13 32.5t34 12.5zM451 704q20 0 32.5 -13t12.5 -33t-13 -33t-33 -13t-33 13t-13 34q0 20 13 32.5t34 12.5zM304 578l12 165h82l-39 -165h-55z" />
<glyph unicode="&#x3b1;" horiz-adv-x="583" d="M489 4l-80 -14q-6 45 -6 118q-40 -64 -83 -91t-104 -27q-81 0 -123.5 50t-42.5 147q0 145 67 238q67 92 171 92q118 0 156 -114q11 42 32 108l72 -10q-72 -219 -72 -380q0 -61 13 -117zM402 190l14 91q-17 175 -125 175q-82 0 -126 -99q-35 -80 -35 -172q0 -134 99 -134 q102 0 173 139z" />
<glyph unicode="&#x3b2;" horiz-adv-x="590" d="M18 -215l115 726q11 71 23 106t33 61q51 63 159 63q92 0 145.5 -43.5t53.5 -117.5q0 -70 -41.5 -117t-114.5 -61q73 -20 105.5 -61.5t32.5 -114.5q0 -54 -20 -103.5t-54 -80.5q-55 -52 -148 -52q-52 0 -91 15t-79 50l-43 -270h-76zM207 499l-60 -376q70 -70 153 -70 q84 0 122 66q27 51 27 119q0 61 -37.5 96t-101.5 35h-18l10 61q73 1 116 40q49 44 49 111q0 45 -32 72t-87 27q-77 0 -109 -60q-17 -32 -32 -121z" />
<glyph unicode="&#x3b3;" horiz-adv-x="498" d="M137 -215l21 135q12 72 12 129q0 91 -41 225q-41 130 -74 212l67 31q101 -257 109 -365q45 115 225 365l57 -36q-157 -229 -208.5 -331.5t-70.5 -229.5l-21 -135h-76z" />
<glyph unicode="&#x3b4;" horiz-adv-x="559" d="M529 711l-28 -63q-72 32 -159 32q-100 0 -100 -66q0 -25 18 -41.5t94 -60.5q73 -42 105 -79q49 -58 49 -157q0 -128 -71 -207t-186 -79q-95 0 -150.5 58t-55.5 156q0 107 55 183t154 105q-49 32 -67.5 58t-18.5 64q0 61 46.5 94t131.5 33q88 0 183 -30zM304 462 q-49 -13 -80 -37q-46 -35 -72.5 -95t-26.5 -130q0 -69 35 -109t96 -40q74 0 123 65t49 164q0 86 -45 129q-21 19 -79 53z" />
<glyph unicode="&#x3b5;" horiz-adv-x="483" d="M383 233h-250q-2 -22 -2 -41q0 -141 126 -141q72 0 145 47l27 -61q-80 -47 -168 -47q-101 0 -155.5 55.5t-54.5 158.5q0 131 67 223q67 90 189 90q84 0 162 -43l-35 -59q-65 41 -128 41q-65 0 -104.5 -39.5t-58.5 -122.5h249z" />
<glyph unicode="&#x3b6;" horiz-adv-x="391" d="M134 677l14 61q56 -7 150 -7h163l-12 -76q-21 -21 -41 -40.5t-28.5 -28l-9.5 -9.5q-52 -53 -105 -120t-82 -116q-65 -114 -65 -207q0 -31 14.5 -46.5t52.5 -24.5q75 -18 101 -33q44 -26 44 -91q0 -71 -70 -169l-59 29q55 86 55 131q0 31 -14 44t-59 23q-60 15 -82 25 q-63 27 -63 106q0 241 357 542h-91q-96 0 -170 7z" />
<glyph unicode="&#x3b7;" horiz-adv-x="581" d="M55 0l54 343q19 123 22 164h75l-9 -74q90 84 176 84q60 0 96.5 -34.5t36.5 -91.5q0 -31 -9 -96l-81 -510h-76l82 520q6 36 6 71q0 38 -20 59t-55 21q-86 0 -165 -95l-57 -361h-76z" />
<glyph unicode="&#x3b8;" horiz-adv-x="573" d="M348 741q86 0 136 -70t50 -191q0 -87 -20 -179.5t-53 -161.5q-75 -149 -200 -149q-91 0 -139 69t-48 199q0 84 21 174t56 160q76 149 197 149zM441 353h-279q-9 -62 -9 -112q0 -92 28.5 -141t80.5 -49q127 0 179 302zM173 414h277q5 42 5 81q0 87 -28.5 136t-79.5 49 q-58 0 -104 -70.5t-70 -195.5z" />
<glyph unicode="&#x3b9;" horiz-adv-x="310" d="M139 507h76l-56 -357q-5 -26 -5 -49q0 -47 48 -47q14 0 46 6l-2 -63q-31 -7 -58 -7q-110 0 -110 95q0 32 13 118z" />
<glyph unicode="&#x3ba;" horiz-adv-x="514" d="M58 0l80 507h76l-33 -213l249 213h99l-276 -235l201 -272h-91l-188 259l-41 -259h-76z" />
<glyph unicode="&#x3bb;" horiz-adv-x="498" d="M-9 15l261 490l-9 35q-18 79 -38 105t-68 31l14 67q72 -5 107 -41.5t54 -127.5l82 -371q18 -77 31.5 -109t37.5 -54l-53 -55q-34 26 -50 63.5t-39 143.5l-24 111q-14 67 -21 110q-21 -45 -57 -113l-164 -314z" />
<glyph unicode="&#x3bc;" horiz-adv-x="584" d="M24 -215l114 722h76l-40 -252q-11 -77 -11 -110q0 -45 23 -69.5t64 -24.5q82 0 147 96l57 360h76l-55 -342q-21 -137 -22 -165h-75l10 78q-36 -49 -68 -68.5t-75 -19.5q-70 0 -104 55l-41 -260h-76z" />
<glyph unicode="&#x3bd;" horiz-adv-x="498" d="M161 0l-96 507h74l58 -301q6 -29 16 -85q1 -6 9 -48q41 86 58 119l157 315h76l-255 -507h-97z" />
<glyph unicode="&#x3be;" horiz-adv-x="447" d="M140 673l14 63q132 -5 159 -5h188l-10 -61h-29q-236 0 -236 -137q0 -53 33.5 -80.5t97.5 -27.5h58l-10 -61h-58q-57 0 -91.5 -9t-62.5 -32q-60 -49 -60 -141q0 -70 41 -97q19 -14 69 -26q43 -10 60.5 -18t31.5 -22q30 -29 30 -78q0 -74 -70 -171l-58 29q54 89 54 131 q0 34 -23 48q-14 9 -62 20q-70 15 -103 45q-50 47 -50 133q0 105 67 169q44 40 116 53q-90 34 -90 129q0 53 32 87t104 56h-33q-34 0 -109 3z" />
<glyph unicode="&#x3bf;" horiz-adv-x="571" d="M320 517q89 0 143.5 -59t54.5 -154q0 -123 -66 -211q-76 -103 -198 -103q-91 0 -146 58.5t-55 154.5q0 121 66 211q76 103 201 103zM317 456q-78 0 -131 -73.5t-53 -181.5q0 -70 33 -110t90 -40q77 0 129.5 74t52.5 181q0 69 -32.5 109.5t-88.5 40.5z" />
<glyph unicode="&#x3c0;" horiz-adv-x="575" d="M66 0l71 446h-77l10 61h517l-10 -61h-76l-71 -446h-76l71 446h-212l-71 -446h-76z" />
<glyph unicode="&#x3c1;" horiz-adv-x="587" d="M145 72l-46 -287h-76l74 464q10 69 24 109t37 73q60 86 173 86q94 0 148 -56.5t54 -153.5q0 -127 -56 -215q-61 -102 -181 -102q-99 0 -151 82zM174 255l-18 -109q39 -95 133 -95q88 0 131 98q33 78 33 166q0 66 -32.5 103.5t-89.5 37.5q-125 0 -157 -201z" />
<glyph unicode="&#x3c2;" horiz-adv-x="479" d="M276 -230l-58 29q55 93 55 135q0 21 -14 34t-65 39q-66 33 -93 60q-50 49 -50 139q0 123 66 216q68 95 195 95q87 0 165 -39l-38 -61q-58 39 -122 39q-101 0 -152 -104q-34 -70 -34 -149q0 -48 20.5 -76t74.5 -56q68 -35 90 -57q31 -31 31 -74q0 -68 -71 -170z" />
<glyph unicode="&#x3c3;" horiz-adv-x="583" d="M560 445l-107 4q54 -60 54 -159q0 -114 -58 -200q-69 -100 -194 -100q-94 0 -148 57t-54 158q0 133 71 222.5t175 89.5q36 0 89 -6q52 -4 63 -4h119zM305 456q-88 0 -134 -94q-38 -74 -38 -163q0 -71 31.5 -109.5t89.5 -38.5q91 0 138 93q35 73 35 162q0 70 -33 110 t-89 40z" />
<glyph unicode="&#x3c4;" horiz-adv-x="432" d="M188 446h-153l10 61h409l-10 -61h-180l-47 -296q-4 -24 -4 -50q0 -24 14 -35t45 -11q22 0 61 9l-2 -63q-39 -10 -71 -10q-123 0 -123 101q0 34 14 124z" />
<glyph unicode="&#x3c5;" horiz-adv-x="572" d="M131 507h76l-41 -259q-10 -63 -10 -112q0 -44 24 -64.5t76 -20.5q71 0 100 38.5t48 158.5l41 259h76l-44 -279q-19 -119 -47 -163q-25 -40 -68 -57.5t-114 -17.5q-86 0 -127.5 33t-41.5 101q0 48 14 144z" />
<glyph unicode="&#x3c6;" horiz-adv-x="708" d="M243 -215l33 211q-108 17 -164 76t-56 156q0 134 90 215q49 43 129 66l18 -52q-82 -28 -120.5 -83.5t-38.5 -146.5q0 -149 151 -175l74 463q24 2 39 2q119 0 186.5 -62t67.5 -171q0 -126 -82.5 -205t-222.5 -86l-33 -208h-71zM421 462l-65 -413q99 8 158.5 72.5 t59.5 163.5q0 77 -41.5 125t-111.5 52z" />
<glyph unicode="&#x3c7;" horiz-adv-x="461" d="M179 184l-32 108q-22 73 -42 104.5t-58 51.5l30 68q55 -24 83.5 -65t56.5 -135l21 -70l171 270l59 -33l-205 -322l54 -182q34 -114 71 -154l-55 -51q-27 27 -44 62t-40 114l-45 150l-216 -327l-58 34z" />
<glyph unicode="&#x3c8;" horiz-adv-x="710" d="M241 -215l33 205q-95 7 -137 29q-81 42 -81 157q0 125 77 337l71 -11q-70 -209 -70 -319q0 -70 34.5 -100t114.5 -32l73 456h72l-73 -456q89 1 122 19q54 30 77.5 112t23.5 242q0 31 -1 78l77 11q2 -54 2 -96q0 -133 -14.5 -212.5t-48.5 -127.5q-49 -70 -153 -82 q-35 -4 -94 -5l-33 -205h-72z" />
<glyph unicode="&#x3c9;" horiz-adv-x="697" d="M519 496l56 22q67 -111 67 -229q0 -125 -39 -200q-53 -99 -153 -99q-94 0 -126 88q-28 -47 -58.5 -67.5t-71.5 -20.5q-68 0 -106 49t-38 137q0 135 67 241q33 50 87 101l50 -22q-124 -156 -124 -336q0 -109 72 -109q52 0 77 54q12 25 24 98l27 174h76l-27 -174 q-8 -43 -8 -74q0 -36 20 -57t54 -21q63 0 91 77q10 28 18 80t8 95q0 88 -43 193z" />
<glyph unicode="&#x3ca;" horiz-adv-x="310" d="M140 507h76l-57 -357q-5 -36 -5 -49q0 -47 48 -47q16 0 46 6l-2 -63q-29 -7 -58 -7q-110 0 -110 95q0 33 14 118zM109 710q23 0 37.5 -14.5t14.5 -37.5t-14.5 -37.5t-37.5 -14.5t-37.5 15t-14.5 39q0 22 14.5 36t37.5 14zM293 710q23 0 37.5 -14.5t14.5 -37.5 t-14.5 -37.5t-37.5 -14.5t-37.5 15t-14.5 39q0 22 14.5 36t37.5 14z" />
<glyph unicode="&#x3cb;" horiz-adv-x="572" d="M131 507h76l-41 -259q-10 -63 -10 -112q0 -44 24 -64.5t76 -20.5q71 0 100 38.5t48 158.5l41 259h76l-44 -279q-19 -119 -47 -163q-25 -40 -68 -57.5t-114 -17.5q-86 0 -127.5 33t-41.5 101q0 48 14 144zM252 710q23 0 37.5 -14.5t14.5 -37.5t-14.5 -37.5t-37.5 -14.5 t-37.5 15t-14.5 39q0 22 14.5 36t37.5 14zM436 710q23 0 37.5 -14.5t14.5 -37.5t-14.5 -37.5t-37.5 -14.5t-37.5 15t-14.5 39q0 22 14.5 36t37.5 14z" />
<glyph unicode="&#x3cc;" horiz-adv-x="571" d="M320 517q89 0 143.5 -59t54.5 -154q0 -123 -66 -211q-76 -103 -198 -103q-91 0 -146 58.5t-55 154.5q0 121 66 211q76 103 201 103zM317 456q-78 0 -131 -73.5t-53 -181.5q0 -70 33 -110t90 -40q77 0 129.5 74t52.5 181q0 69 -32.5 109.5t-88.5 40.5zM380 741h90 l-114 -164h-53z" />
<glyph unicode="&#x3cd;" horiz-adv-x="572" d="M131 507h76l-41 -259q-10 -63 -10 -112q0 -44 24 -64.5t76 -20.5q71 0 100 38.5t48 158.5l41 259h76l-44 -279q-19 -119 -47 -163q-25 -40 -68 -57.5t-114 -17.5q-86 0 -127.5 33t-41.5 101q0 48 14 144zM381 741h90l-114 -164h-53z" />
<glyph unicode="&#x3ce;" horiz-adv-x="697" d="M519 496l56 22q67 -111 67 -229q0 -125 -39 -200q-53 -99 -153 -99q-94 0 -126 88q-28 -47 -58.5 -67.5t-71.5 -20.5q-68 0 -106 49t-38 137q0 135 67 241q33 50 87 101l50 -22q-124 -156 -124 -336q0 -109 72 -109q52 0 77 54q12 25 24 98l27 174h76l-27 -174 q-8 -43 -8 -74q0 -36 20 -57t54 -21q63 0 91 77q10 28 18 80t8 95q0 88 -43 193zM444 741h90l-114 -164h-53z" />
<glyph unicode="&#x401;" horiz-adv-x="541" d="M61 0l110 692h356l-11 -66h-276l-38 -242h263l-11 -66h-263l-40 -252h291l-10 -66h-371zM272 880q23 0 37.5 -14.5t14.5 -37.5t-14.5 -37.5t-37.5 -14.5t-37.5 15t-14.5 39q0 22 14.5 36t37.5 14zM456 880q23 0 37.5 -14.5t14.5 -37.5t-14.5 -37.5t-37.5 -14.5t-37.5 15 t-14.5 39q0 22 14.5 36t37.5 14z" />
<glyph unicode="&#x402;" horiz-adv-x="736" d="M150 0l100 626h-177l10 66h512l-10 -66h-256l-42 -268q59 52 107.5 74t102.5 22q68 0 105 -34t37 -97q0 -41 -15 -135l-7 -50q-32 -207 -89 -272q-66 -75 -192 -81l10 64q92 10 128 63.5t61 214.5l13 80q11 70 11 103q0 78 -80 78q-88 0 -205 -109l-44 -279h-80z" />
<glyph unicode="&#x403;" horiz-adv-x="493" d="M61 0l110 692h368l-11 -66h-288l-99 -626h-80zM433 901h103l-165 -146h-79z" />
<glyph unicode="&#x404;" horiz-adv-x="575" d="M470 321h-308q-5 -40 -5 -75q0 -190 159 -190q75 0 164 48l24 -62q-91 -52 -201 -52q-113 0 -172 64.5t-59 189.5q0 99 26.5 192t73.5 157q80 109 223 109q88 0 175 -41l-28 -62q-69 37 -145 37q-68 0 -111.5 -31t-76.5 -104q-24 -53 -36 -114h308z" />
<glyph unicode="&#x405;" horiz-adv-x="532" d="M37 23l21 71q86 -38 161 -38q68 0 112 41.5t44 105.5q0 40 -23 65t-94 62q-89 46 -118 78q-35 38 -35 95q0 88 64.5 143.5t167.5 55.5q80 0 165 -33l-26 -69q-71 36 -138 36q-64 0 -106 -35t-42 -89q0 -37 23.5 -62t87.5 -56q90 -43 121 -78q38 -43 38 -106 q0 -97 -69.5 -158.5t-178.5 -61.5q-85 0 -175 33z" />
<glyph unicode="&#x406;" horiz-adv-x="272" d="M56 0l110 692h79l-109 -692h-80z" />
<glyph unicode="&#x407;" horiz-adv-x="272" d="M56 0l110 692h79l-109 -692h-80zM132 880q23 0 37.5 -14.5t14.5 -37.5t-14.5 -37.5t-37.5 -14.5t-37.5 15t-14.5 39q0 22 14.5 36t37.5 14zM316 880q23 0 37.5 -14.5t14.5 -37.5t-14.5 -37.5t-37.5 -14.5t-37.5 15t-14.5 39q0 22 14.5 36t37.5 14z" />
<glyph unicode="&#x408;" horiz-adv-x="374" d="M270 692h80l-77 -484q-12 -75 -25 -111.5t-37 -59.5q-46 -47 -133 -47q-65 0 -113 23l18 67q41 -24 88 -24q66 0 91 45q19 31 40 160z" />
<glyph unicode="&#x409;" horiz-adv-x="910" d="M408 0l99 626h-237l-62 -392q-13 -94 -35 -142t-63 -68.5t-117 -23.5l11 67q67 7 87.5 34.5t39.5 136.5l72 454h394l-41 -260h34q82 0 116.5 -5.5t63.5 -23.5q73 -46 73 -151q0 -152 -101 -217q-32 -20 -68.5 -27.5t-103.5 -7.5h-162zM498 65h52q104 0 146 31 q29 21 45.5 61t16.5 89q0 87 -62 110q-31 11 -108 11h-42z" />
<glyph unicode="&#x40a;" horiz-adv-x="945" d="M67 0l110 692h79l-44 -280h282l44 280h80l-44 -280h58q82 0 116 -5.5t63 -22.5q74 -44 74 -147q0 -144 -99 -203q-32 -20 -68 -27t-103 -7h-186l55 346h-282l-55 -346h-80zM519 66h76q102 0 145 28q60 41 60 137q0 83 -62 104q-31 11 -109 11h-65z" />
<glyph unicode="&#x40b;" horiz-adv-x="742" d="M151 0l100 626h-177l10 66h512l-10 -66h-256l-42 -268q61 52 110.5 74t104.5 22q71 0 109.5 -34.5t38.5 -98.5q0 -44 -14 -133l-29 -188h-80l32 207q11 61 11 99q0 82 -86 82q-90 0 -210 -109l-44 -279h-80z" />
<glyph unicode="&#x40c;" horiz-adv-x="603" d="M62 0l110 692h79l-49 -314h70q56 0 87 38q15 18 23.5 34t44.5 94q40 86 76.5 118t95.5 32q2 0 44 -2l-14 -65q-14 1 -30 1q-38 0 -57.5 -22.5t-63.5 -117.5q-33 -71 -58 -97t-79 -46q45 -15 74 -47t56 -97l79 -201h-90l-74 190q-36 94 -72 119q-21 14 -65 14h-56 l-51 -323h-80zM481 901h103l-165 -146h-79z" />
<glyph unicode="&#x40e;" horiz-adv-x="576" d="M246 141l-150 551h85l82 -327q15 -56 34 -141q67 126 73 138l181 330h85l-296 -527q-39 -70 -53 -91t-34 -40q-48 -44 -122 -44q-31 0 -58 7l20 65q22 -6 40 -6q53 0 86 44q9 12 27 41zM238 887h66v-16q0 -37 16.5 -57.5t46.5 -20.5q69 0 92 94h67q-13 -65 -41 -96 q-48 -52 -119 -52q-58 0 -94 33t-36 87q0 13 2 28z" />
<glyph unicode="&#x40f;" horiz-adv-x="656" d="M62 0l110 692h79l-99 -626h293l99 626h80l-110 -692h-183l-39 -168h-65l13 168h-178z" />
<glyph unicode="&#x410;" horiz-adv-x="635" d="M441 242h-248l-121 -242h-85l348 692h100l131 -692h-81zM428 308l-31 182q-14 84 -20 130q-23 -51 -26 -58q-10 -22 -35 -72l-90 -182h202z" />
<glyph unicode="&#x411;" horiz-adv-x="562" d="M61 0l110 692h355l-10 -66h-276l-31 -194h34q82 0 116.5 -5.5t63.5 -23.5q73 -46 73 -151q0 -73 -26.5 -130t-74.5 -87q-32 -20 -68 -27.5t-104 -7.5h-162zM151 65h52q104 0 146 31q29 21 45.5 61t16.5 89q0 87 -62 110q-31 11 -108 11h-42z" />
<glyph unicode="&#x412;" horiz-adv-x="562" d="M58 0l110 692h94q126 0 181 -24q77 -36 77 -138q0 -77 -40.5 -121t-124.5 -58q74 -9 107.5 -41.5t33.5 -96.5q0 -59 -25.5 -106.5t-71.5 -73.5q-36 -20 -73.5 -26.5t-123.5 -6.5h-144zM198 382h34q112 0 153 30q50 37 50 111q0 73 -61 93q-32 11 -103 11h-34zM148 65h34 q118 0 157 20q34 16 53 51.5t19 80.5q0 58 -40.5 80.5t-147.5 22.5h-34z" />
<glyph unicode="&#x413;" horiz-adv-x="493" d="M61 0l110 692h368l-11 -66h-288l-99 -626h-80z" />
<glyph unicode="&#x414;" horiz-adv-x="633" d="M470 0h-437l-39 -168h-67l37 234h65q43 52 87 195.5t75 335.5l15 95h384l-99 -626h68l-37 -234h-66zM411 66l89 560h-225l-7 -45q-65 -372 -155 -515h298z" />
<glyph unicode="&#x415;" horiz-adv-x="541" d="M61 0l110 692h356l-11 -66h-276l-38 -242h263l-11 -66h-263l-40 -252h291l-10 -66h-371z" />
<glyph unicode="&#x416;" horiz-adv-x="840" d="M341 0l51 323h-20q-50 0 -84.5 -27t-84.5 -106l-120 -190h-96l142 221q46 66 80.5 93.5t87.5 38.5q-41 18 -56.5 49t-31.5 123q-10 61 -26.5 82t-51.5 21q-18 0 -32 -1l7 65q21 2 39 2q67 0 97 -43q17 -24 36 -107q18 -80 24.5 -102.5t17.5 -37.5q18 -26 70 -26h11 l50 314h78l-50 -314h23q57 0 88 38q14 18 22.5 34t44.5 94q40 86 76.5 118t96.5 32q2 0 44 -2l-14 -65q-14 1 -30 1q-38 0 -58 -22.5t-64 -117.5q-33 -71 -58 -97t-78 -46q43 -15 71.5 -47.5t53.5 -96.5l76 -201h-90l-71 190q-36 94 -69 119q-21 14 -63 14h-10l-51 -323h-78 z" />
<glyph unicode="&#x417;" horiz-adv-x="550" d="M14 26l27 64q94 -36 175 -36t128.5 41.5t47.5 113.5q0 64 -45 95t-140 31q-21 0 -56 -3l11 66q29 -2 60 -2q100 0 158.5 38.5t58.5 103.5q0 48 -32.5 74t-92.5 26q-73 0 -170 -39l-17 61q101 42 190 42q97 0 150.5 -42t53.5 -117q0 -67 -43 -113t-120 -62q49 -17 71 -36 q48 -42 48 -122q0 -96 -66 -159q-64 -61 -186 -61q-107 0 -211 36z" />
<glyph unicode="&#x418;" horiz-adv-x="685" d="M62 0l110 692h79l-81 -516l394 463l8 53h80l-110 -692h-79l82 520l-394 -463l-9 -57h-80z" />
<glyph unicode="&#x419;" horiz-adv-x="685" d="M62 0l110 692h79l-81 -516l394 463l8 53h80l-110 -692h-79l82 520l-394 -463l-9 -57h-80zM293 887h66v-16q0 -37 16.5 -57.5t46.5 -20.5q69 0 92 94h67q-13 -65 -41 -96q-48 -52 -119 -52q-59 0 -94.5 33t-35.5 87q0 13 2 28z" />
<glyph unicode="&#x41a;" horiz-adv-x="603" d="M62 0l110 692h79l-49 -314h70q56 0 87 38q15 18 23.5 34t44.5 94q40 86 76.5 118t95.5 32q2 0 44 -2l-14 -65q-14 1 -30 1q-38 0 -57.5 -22.5t-63.5 -117.5q-33 -71 -58 -97t-79 -46q45 -15 74 -47t56 -97l79 -201h-90l-74 190q-36 94 -72 119q-21 14 -65 14h-56 l-51 -323h-80z" />
<glyph unicode="&#x41b;" horiz-adv-x="626" d="M189 692h404l-109 -692h-80l99 626h-247l-62 -392q-13 -94 -35 -142t-63 -68.5t-117 -23.5l11 67q67 7 87.5 34.5t39.5 136.5z" />
<glyph unicode="&#x41c;" horiz-adv-x="864" d="M65 0l110 692h108l99 -485q6 -32 15 -75t11 -55q5 11 61 123l252 492h108l-110 -692h-78l90 569q-41 -89 -82 -169l-208 -400h-94l-86 395q-11 52 -31 174l-90 -569h-75z" />
<glyph unicode="&#x41d;" horiz-adv-x="685" d="M62 0l110 692h79l-48 -305h321l48 305h80l-110 -692h-79l50 321h-320l-51 -321h-80z" />
<glyph unicode="&#x41e;" horiz-adv-x="732" d="M429 702q141 0 207 -103q49 -81 49 -187q0 -158 -90 -284q-98 -138 -258 -138q-144 0 -209 100q-51 80 -51 191q0 154 90 283q97 138 262 138zM426 636q-122 0 -195 -115q-31 -49 -50 -118t-19 -137q0 -98 47 -154t129 -56q120 0 194 115q31 49 49.5 117.5t18.5 136.5 q0 97 -47 154t-127 57z" />
<glyph unicode="&#x41f;" horiz-adv-x="679" d="M62 0l110 692h474l-109 -692h-80l99 626h-315l-99 -626h-80z" />
<glyph unicode="&#x420;" horiz-adv-x="521" d="M60 0l110 692h120q115 0 167 -32q69 -42 69 -140q0 -60 -24 -109.5t-68 -78.5q-61 -40 -187 -40h-61l-46 -292h-80zM197 358h30q118 0 162 38q52 44 52 121q0 60 -35.5 84.5t-123.5 24.5h-43z" />
<glyph unicode="&#x421;" horiz-adv-x="579" d="M489 89l21 -66q-76 -33 -162 -33q-130 0 -201.5 77.5t-71.5 218.5q0 170 101 292q103 124 258 124q84 0 158 -30l-21 -66q-67 30 -133 30q-130 0 -211 -121q-67 -97 -67 -231q0 -114 56 -172q51 -56 139 -56q61 0 134 33z" />
<glyph unicode="&#x422;" horiz-adv-x="527" d="M182 0l99 626h-196l10 66h475l-10 -66h-199l-99 -626h-80z" />
<glyph unicode="&#x423;" horiz-adv-x="576" d="M246 141l-150 551h85l82 -327q15 -56 34 -141q67 126 73 138l181 330h85l-296 -527q-39 -70 -53 -91t-34 -40q-48 -44 -122 -44q-31 0 -58 7l20 65q22 -6 40 -6q53 0 86 44q9 12 27 41z" />
<glyph unicode="&#x424;" horiz-adv-x="823" d="M329 -30l14 88q-125 15 -194 84t-69 180q0 80 38 149.5t104 109.5q87 51 213 57l13 84h75l-14 -88q126 -15 194.5 -84t68.5 -180q0 -80 -38 -149.5t-104 -109.5q-87 -51 -213 -57l-13 -84h-75zM352 119l73 456q-103 -9 -167 -54q-44 -32 -70 -86t-26 -116 q0 -172 190 -200zM499 573l-72 -456q101 7 167 54q44 32 70 86t26 116q0 171 -191 200z" />
<glyph unicode="&#x425;" horiz-adv-x="627" d="M-5 0l291 360l-158 332h89l129 -271l223 271h94l-282 -343l166 -349h-89l-135 284l-232 -284h-96z" />
<glyph unicode="&#x426;" horiz-adv-x="666" d="M63 0l110 692h79l-99 -626h293l99 626h80l-99 -626h68l-37 -234h-67l14 168h-441z" />
<glyph unicode="&#x427;" horiz-adv-x="633" d="M411 0l40 255q-94 -85 -195 -85q-72 0 -113 37.5t-41 103.5q0 50 14 137l39 244h80l-44 -274q-9 -56 -9 -98q0 -84 97 -84q90 0 185 95l57 361h79l-109 -692h-80z" />
<glyph unicode="&#x428;" horiz-adv-x="960" d="M66 0l110 692h79l-99 -626h254l99 626h80l-99 -626h254l99 626h80l-110 -692h-747z" />
<glyph unicode="&#x429;" horiz-adv-x="970" d="M67 0l110 692h79l-99 -626h254l99 626h80l-99 -626h254l99 626h80l-99 -626h68l-37 -234h-67l14 168h-736z" />
<glyph unicode="&#x42a;" horiz-adv-x="549" d="M65 0l99 626h-112l10 66h192l-41 -260h34q83 0 117 -5.5t62 -23.5q73 -46 73 -151q0 -153 -101 -217q-32 -20 -68 -27.5t-103 -7.5h-162zM155 65h52q105 0 145 31q29 21 45.5 61t16.5 89q0 87 -61 110q-31 11 -108 11h-42z" />
<glyph unicode="&#x42b;" horiz-adv-x="792" d="M64 0l110 692h79l-41 -260h34q82 0 116.5 -5.5t63.5 -23.5q73 -46 73 -151q0 -73 -26.5 -130t-74.5 -87q-32 -20 -68 -27.5t-104 -7.5h-162zM154 65h52q104 0 146 31q29 21 45.5 61t16.5 89q0 87 -62 110q-31 11 -108 11h-42zM568 0l110 692h80l-110 -692h-80z" />
<glyph unicode="&#x42c;" horiz-adv-x="546" d="M61 0l110 692h79l-41 -260h34q82 0 116.5 -5.5t63.5 -23.5q73 -46 73 -151q0 -73 -26.5 -130t-74.5 -87q-32 -20 -68 -27.5t-104 -7.5h-162zM151 65h52q104 0 146 31q29 21 45.5 61t16.5 89q0 87 -62 110q-31 11 -108 11h-42z" />
<glyph unicode="&#x42d;" horiz-adv-x="575" d="M126 321l10 66h308q3 39 3 55q0 99 -37 146.5t-114 47.5q-71 0 -156 -39l-24 62q90 43 181 43q235 0 235 -275q0 -200 -82 -321q-77 -116 -231 -116q-110 0 -203 49l32 64q88 -47 173 -47q176 0 215 265h-310z" />
<glyph unicode="&#x42e;" horiz-adv-x="974" d="M67 0l110 692h79l-48 -305h160q34 149 118 232t200 83q135 0 195 -104q46 -77 46 -186q0 -157 -85 -284q-93 -138 -244 -138q-132 0 -194 101q-47 78 -47 193q0 22 2 37h-161l-51 -321h-80zM684 636q-111 0 -178 -115q-29 -49 -46.5 -117.5t-17.5 -134.5 q0 -101 41.5 -157t116.5 -56q112 0 179 115q63 107 63 253q0 100 -42 156t-116 56z" />
<glyph unicode="&#x42f;" horiz-adv-x="580" d="M407 307h-49q-75 0 -107 -23t-80 -111l-94 -173h-91l116 210q40 72 60 92.5t62 33.5q-118 30 -118 151q0 56 27.5 103.5t75.5 72.5q55 29 160 29h179l-110 -692h-80zM418 373l40 253h-88q-77 0 -112 -19q-31 -16 -49 -49t-18 -74q0 -78 72 -101q30 -10 91 -10h64z" />
<glyph unicode="&#x430;" horiz-adv-x="573" d="M445 507h74q0 -1 -16 -87q-1 -9 -19 -117l-23 -141q-11 -69 -21 -162h-72l9 71q-37 -44 -72 -62.5t-81 -18.5q-78 0 -123 55t-45 152q0 131 68 227q66 93 167 93q96 0 141 -80zM383 147l34 214q-30 95 -116 95q-78 0 -127 -94q-38 -73 -38 -169q0 -65 28 -103.5t75 -38.5 q77 0 144 96z" />
<glyph unicode="&#x431;" horiz-adv-x="557" d="M529 738l-2 -63q-36 -7 -174 -18q-83 -6 -121.5 -53.5t-60.5 -174.5q44 49 79.5 68.5t82.5 19.5q77 0 123 -57t46 -153q0 -139 -69 -228t-177 -89q-89 0 -141 55t-52 150q0 92 26 217t58 190q40 78 113 101q41 14 148 22q62 5 121 13zM159 342l-9 -55q-7 -44 -7 -95 q0 -65 31.5 -103t85.5 -38q72 0 116 72q46 82 46 187q0 70 -26.5 108t-76.5 38q-82 0 -160 -114z" />
<glyph unicode="&#x432;" horiz-adv-x="545" d="M58 0l80 507h187q165 0 165 -122q0 -46 -23 -74.5t-74 -47.5q77 -32 77 -107q0 -77 -57 -120q-46 -36 -135 -36h-220zM143 59h117q72 0 100 24q30 25 30 74q0 75 -99 75h-120zM180 291h119q53 0 82 23t29 66q0 36 -22 52t-72 16h-111z" />
<glyph unicode="&#x433;" horiz-adv-x="428" d="M57 0l80 507h303l-10 -61h-226l-71 -446h-76z" />
<glyph unicode="&#x434;" horiz-adv-x="540" d="M387 0h-355l-33 -148h-62l33 209h45q99 124 145 403l7 43h315l-70 -446h56l-33 -209h-62zM336 61l61 385h-168l-4 -21q-26 -134 -54 -211.5t-77 -152.5h242z" />
<glyph unicode="&#x435;" horiz-adv-x="538" d="M478 239h-339q-3 -27 -3 -45q0 -68 34.5 -105.5t95.5 -37.5q69 0 143 49l20 -62q-80 -48 -166 -48q-98 0 -152.5 55t-54.5 154q0 138 76 233q65 85 178 85q177 0 177 -187q0 -37 -9 -91zM150 300h257q2 18 2 38q0 57 -27 87.5t-77 30.5q-58 0 -99.5 -41.5t-55.5 -114.5z " />
<glyph unicode="&#x436;" horiz-adv-x="754" d="M300 0l37 238h-36q-34 0 -55 -16t-53 -64l-103 -158h-85l96 144q41 61 70.5 86t71.5 35q-34 15 -47.5 35.5t-24.5 72.5q-12 53 -19.5 64.5t-31.5 11.5q-8 0 -27 -3l5 61q27 3 39 3q45 0 62.5 -20t35.5 -91q20 -79 33 -94t61 -15h17l34 217h74l-34 -217h40q36 0 54 14 t38 57q46 98 69.5 123t70.5 25q14 0 44 -2l-14 -61q-24 2 -26 2q-21 0 -30 -10t-35 -65q-26 -57 -44 -76.5t-63 -39.5q28 -10 47.5 -35t40.5 -78l57 -144h-83l-59 158q-17 46 -35 63t-49 17h-31l-38 -238h-74z" />
<glyph unicode="&#x437;" horiz-adv-x="470" d="M8 29l30 62q68 -40 144 -40q61 0 97.5 29t36.5 78q0 43 -34 61.5t-113 18.5q-9 0 -47 -2l10 62q21 -2 54 -2q79 0 120.5 24t41.5 69q0 67 -99 67q-66 0 -152 -37l-16 61q83 37 176 37q81 0 125 -32.5t44 -91.5q0 -90 -98 -124q68 -24 68 -105q0 -78 -55 -127 q-52 -47 -155 -47q-91 0 -178 39z" />
<glyph unicode="&#x438;" horiz-adv-x="582" d="M58 0l80 507h76l-56 -352l282 294l9 58h76l-81 -507h-76l57 354l-282 -294l-9 -60h-76z" />
<glyph unicode="&#x439;" horiz-adv-x="582" d="M58 0l80 507h76l-56 -352l282 294l9 58h76l-81 -507h-76l57 354l-282 -294l-9 -60h-76zM220 715h66v-15q0 -79 63 -79q69 0 92 94h68q-12 -62 -39 -93q-46 -55 -121 -55q-60 0 -95.5 34t-35.5 91q0 13 2 23z" />
<glyph unicode="&#x43a;" horiz-adv-x="533" d="M58 0l80 507h74l-34 -217h56q36 0 54.5 14t38.5 57q45 98 68.5 123t70.5 25q13 0 41 -2l-14 -61q-16 2 -19 2q-20 0 -28.5 -10t-34.5 -65q-26 -57 -44.5 -76.5t-63.5 -39.5q28 -10 48 -35.5t41 -78.5l56 -143h-82l-61 153q-17 44 -35 60.5t-49 16.5h-53l-36 -230h-74z " />
<glyph unicode="&#x43b;" horiz-adv-x="535" d="M147 507h330l-80 -507h-76l70 446h-181l-39 -246q-17 -118 -55 -158.5t-133 -41.5l10 63q55 3 73 29t35 126z" />
<glyph unicode="&#x43c;" horiz-adv-x="731" d="M60 0l80 507h94l93 -376q3 -10 12 -50q16 30 27 50l208 376h97l-80 -507h-74l63 399q-31 -64 -63 -122l-156 -277h-68l-73 281q-18 75 -24 119l-64 -400h-72z" />
<glyph unicode="&#x43d;" horiz-adv-x="585" d="M58 0l80 507h76l-34 -217h237l35 217h76l-81 -507h-76l37 229h-238l-36 -229h-76z" />
<glyph unicode="&#x43e;" horiz-adv-x="577" d="M323 517q89 0 143.5 -59t54.5 -154q0 -123 -66 -211q-76 -103 -198 -103q-91 0 -146 58.5t-55 154.5q0 121 66 211q76 103 201 103zM320 456q-78 0 -131 -73.5t-53 -181.5q0 -70 33 -110t90 -40q77 0 129.5 74t52.5 181q0 69 -32.5 109.5t-88.5 40.5z" />
<glyph unicode="&#x43f;" horiz-adv-x="575" d="M58 0l80 507h380l-80 -507h-76l70 446h-227l-71 -446h-76z" />
<glyph unicode="&#x440;" horiz-adv-x="573" d="M23 -215l82 517q16 106 19 131q3 24 9 74h72l-9 -73q69 83 154 83q75 0 121 -56t46 -148q0 -137 -69.5 -230t-171.5 -93q-86 0 -132 81l-45 -286h-76zM190 361l-34 -214q31 -96 112 -96q85 0 134 102q35 77 35 161q0 67 -26.5 104.5t-74.5 37.5q-85 0 -146 -95z" />
<glyph unicode="&#x441;" horiz-adv-x="473" d="M381 90l26 -58q-71 -42 -151 -42q-94 0 -144.5 55t-50.5 158q0 126 68 217q72 97 189 97q70 0 135 -33l-26 -59q-55 31 -106 31q-89 0 -142 -95q-38 -67 -38 -155q0 -75 31.5 -115t90.5 -40q54 0 118 39z" />
<glyph unicode="&#x442;" horiz-adv-x="409" d="M126 0l71 446h-149l10 61h373l-9 -61h-149l-71 -446h-76z" />
<glyph unicode="&#x443;" horiz-adv-x="501" d="M175 -3l-112 510h79l63 -299q18 -86 23 -116l50 101l165 314h74l-287 -550q-56 -108 -97 -145t-103 -37q-42 0 -80 14l22 61q29 -14 52 -14q42 0 75 35t76 126z" />
<glyph unicode="&#x444;" horiz-adv-x="812" d="M297 -215l45 281q-34 -43 -62 -59.5t-66 -16.5q-71 0 -113 58t-42 156q0 131 61 222t149 91q87 0 133 -71l45 285h69l-46 -285q57 71 130 71q68 0 111 -60t43 -156q0 -128 -57 -220q-57 -91 -154 -91q-45 0 -75.5 17.5t-57.5 58.5l-44 -281h-69zM355 146l34 217 q-35 93 -108 93q-70 0 -111 -98q-31 -73 -31 -162q0 -68 24 -106.5t67 -38.5q33 0 60.5 21t64.5 74zM457 363l-34 -217q24 -51 49.5 -73t61.5 -22q76 0 114 101q26 71 26 153q0 70 -24 110.5t-66 40.5q-68 0 -127 -93z" />
<glyph unicode="&#x445;" horiz-adv-x="503" d="M-13 0l225 262l-127 245h83l97 -191l164 191h88l-219 -252l132 -255h-83l-102 198l-169 -198h-89z" />
<glyph unicode="&#x446;" horiz-adv-x="569" d="M58 0l80 507h76l-70 -446h221l71 446h76l-71 -446h57l-33 -209h-63l14 148h-358z" />
<glyph unicode="&#x447;" horiz-adv-x="564" d="M351 0l32 206q-44 -37 -79 -51.5t-81 -14.5q-63 0 -97 27.5t-34 79.5q0 36 10 101l26 159h76l-30 -188q-6 -31 -6 -61q0 -57 72 -57q68 0 154 70l37 236h76l-80 -507h-76z" />
<glyph unicode="&#x448;" horiz-adv-x="830" d="M62 0l80 507h76l-70 -446h199l71 446h76l-71 -446h200l70 446h76l-80 -507h-627z" />
<glyph unicode="&#x449;" horiz-adv-x="830" d="M62 0l80 507h76l-70 -446h199l71 446h76l-71 -446h200l70 446h76l-70 -446h56l-33 -209h-63l14 148h-611z" />
<glyph unicode="&#x44a;" horiz-adv-x="560" d="M105 0l71 446h-141l10 61h216l-27 -173h66q69 0 95.5 -4.5t49.5 -19.5q55 -34 55 -113q0 -106 -62 -158q-28 -24 -59.5 -31.5t-103.5 -7.5h-170zM190 61h72q78 0 107 17q51 33 51 115q0 58 -46 73q-21 8 -90 8h-60z" />
<glyph unicode="&#x44b;" horiz-adv-x="724" d="M57 0l80 507h76l-27 -173h66q68 0 95 -4.5t50 -18.5q54 -35 54 -113q0 -107 -61 -159q-28 -24 -59.5 -31.5t-103.5 -7.5h-170zM143 61h71q78 0 107 17q50 31 50 116q0 57 -45 72q-21 8 -90 8h-60zM507 0l80 507h76l-80 -507h-76z" />
<glyph unicode="&#x44c;" horiz-adv-x="513" d="M57 0l80 507h76l-27 -173h66q69 0 95.5 -4.5t49.5 -19.5q55 -34 55 -113q0 -107 -62 -158q-28 -24 -59.5 -31.5t-103.5 -7.5h-170zM143 61h71q78 0 107 17q51 33 51 115q0 58 -46 73q-21 8 -90 8h-60z" />
<glyph unicode="&#x44d;" horiz-adv-x="489" d="M97 233l10 61h249v12q0 150 -124 150q-60 0 -129 -39l-29 54q81 46 165 46q96 0 145.5 -56t49.5 -164q0 -143 -70.5 -225t-192.5 -82q-95 0 -166 44l30 61q66 -44 135 -44q145 0 179 182h-252z" />
<glyph unicode="&#x44e;" horiz-adv-x="813" d="M61 0l80 507h76l-34 -217h136q24 104 90.5 165.5t155.5 61.5q87 0 139.5 -58t52.5 -155q0 -134 -73 -224t-181 -90q-88 0 -140.5 58.5t-52.5 156.5q0 9 1 24h-138l-36 -229h-76zM562 456q-85 0 -135 -95q-37 -71 -37 -158q0 -71 30.5 -111.5t84.5 -40.5q72 0 122 74 t50 181q0 70 -31 110t-84 40z" />
<glyph unicode="&#x44f;" horiz-adv-x="542" d="M360 205h-70q-56 0 -80.5 -15t-60.5 -72l-74 -118h-88l96 151q27 41 41 56t34 24q-78 33 -78 120q0 90 80 131q49 25 145 25h179l-80 -507h-76zM369 266l29 180h-101q-60 0 -87 -12q-50 -24 -50 -89q0 -42 29.5 -60.5t96.5 -18.5h83z" />
<glyph unicode="&#x451;" horiz-adv-x="538" d="M478 239h-339q-3 -27 -3 -45q0 -68 34.5 -105.5t95.5 -37.5q69 0 143 49l20 -62q-80 -48 -166 -48q-98 0 -152.5 55t-54.5 154q0 138 76 233q65 85 178 85q177 0 177 -187q0 -37 -9 -91zM150 300h257q2 18 2 38q0 57 -27 87.5t-77 30.5q-58 0 -99.5 -41.5t-55.5 -114.5z M249 710q23 0 37.5 -14.5t14.5 -37.5t-14.5 -37.5t-37.5 -14.5t-37.5 15t-14.5 39q0 22 14.5 36t37.5 14zM433 710q23 0 37.5 -14.5t14.5 -37.5t-14.5 -37.5t-37.5 -14.5t-37.5 15t-14.5 39q0 22 14.5 36t37.5 14z" />
<glyph unicode="&#x452;" horiz-adv-x="593" d="M58 0l95 599h-67l9 61h68l11 71h76l-11 -71h140l-9 -61h-141l-26 -163q88 81 176 81q62 0 98.5 -35.5t36.5 -96.5q0 -37 -10 -100l-23 -143q-17 -113 -37 -176t-50 -99q-66 -76 -190 -82l10 64q92 10 128 63.5t61 214.5l26 160q8 50 8 88q0 39 -21 60t-59 21 q-40 0 -85 -25.5t-81 -69.5l-57 -361h-76z" />
<glyph unicode="&#x453;" horiz-adv-x="428" d="M57 0l80 507h303l-10 -61h-226l-71 -446h-76zM366 731h103l-165 -146h-79z" />
<glyph unicode="&#x454;" horiz-adv-x="489" d="M386 233h-250q-2 -22 -2 -41q0 -141 126 -141q72 0 145 47l27 -61q-80 -47 -168 -47q-101 0 -155.5 55.5t-54.5 158.5q0 131 67 223q67 90 189 90q84 0 162 -43l-35 -59q-65 41 -128 41q-65 0 -104.5 -39.5t-58.5 -122.5h249z" />
<glyph unicode="&#x455;" horiz-adv-x="433" d="M23 25l32 61q62 -35 114 -35q47 0 79 28t32 68q0 30 -16.5 46t-71.5 39q-61 26 -87 57t-26 77q0 68 49.5 109.5t131.5 41.5q73 0 141 -38l-32 -60q-50 37 -109 37q-47 0 -75 -23.5t-28 -62.5q0 -26 15 -41t64 -37q67 -29 94.5 -60.5t27.5 -78.5q0 -71 -53.5 -117 t-136.5 -46q-76 0 -145 35z" />
<glyph unicode="&#x456;" horiz-adv-x="262" d="M53 0l80 507h76l-80 -507h-76zM201 741q23 0 38 -15.5t15 -38.5q0 -24 -15 -39t-39 -15t-39 15t-15 39t15 39t40 15z" />
<glyph unicode="&#x457;" horiz-adv-x="262" d="M53 0l80 507h76l-80 -507h-76zM97 710q23 0 37.5 -14.5t14.5 -37.5t-14.5 -37.5t-37.5 -14.5t-37.5 15t-14.5 39q0 22 14.5 36t37.5 14zM281 710q23 0 37.5 -14.5t14.5 -37.5t-14.5 -37.5t-37.5 -14.5t-37.5 15t-14.5 39q0 22 14.5 36t37.5 14z" />
<glyph unicode="&#x458;" horiz-adv-x="262" d="M131 507h76l-83 -526q-18 -113 -40 -147q-38 -59 -119 -59q-34 0 -66 12l14 59q24 -10 45 -10q67 0 82 99zM198 741q23 0 38 -15.5t15 -38.5q0 -24 -15 -39t-39 -15q-23 0 -38.5 15.5t-15.5 38.5q0 24 15 39t40 15z" />
<glyph unicode="&#x459;" horiz-adv-x="786" d="M326 0l70 446h-181l-39 -246q-17 -118 -55 -158.5t-133 -41.5l10 64q55 2 73 28t35 127l46 288h330l-27 -173h65q68 0 95 -4.5t51 -19.5q54 -34 54 -113q0 -105 -61 -158q-28 -24 -60 -31.5t-104 -7.5h-169zM411 61h72q77 0 106 17q51 32 51 115q0 58 -46 73q-20 8 -89 8 h-60z" />
<glyph unicode="&#x45a;" horiz-adv-x="825" d="M62 0l80 507h76l-31 -197h223l32 197h76l-29 -182h70q70 0 96 -4t49 -19q55 -36 55 -112q0 -102 -61 -152q-28 -23 -60 -30.5t-103 -7.5h-174l40 249h-224l-39 -249h-76zM447 61h76q77 0 106 16q50 31 50 109q0 58 -46 71q-22 7 -90 7h-64z" />
<glyph unicode="&#x45b;" horiz-adv-x="593" d="M58 0l95 599h-67l9 61h68l11 71h76l-11 -71h140l-9 -61h-141l-26 -163q88 81 176 81q62 0 99 -34.5t37 -92.5q0 -38 -9 -95l-47 -295h-76l48 305q6 30 6 70q0 39 -21 60t-59 21q-40 0 -85 -25.5t-81 -69.5l-57 -361h-76z" />
<glyph unicode="&#x45c;" horiz-adv-x="533" d="M58 0l80 507h74l-34 -217h56q36 0 54.5 14t38.5 57q45 98 68.5 123t70.5 25q13 0 41 -2l-14 -61q-16 2 -19 2q-20 0 -28.5 -10t-34.5 -65q-26 -57 -44.5 -76.5t-63.5 -39.5q28 -10 48 -35.5t41 -78.5l56 -143h-82l-61 153q-17 44 -35 60.5t-49 16.5h-53l-36 -230h-74z M411 731h103l-165 -146h-79z" />
<glyph unicode="&#x45e;" horiz-adv-x="501" d="M175 -3l-112 510h79l63 -299q18 -86 23 -116l50 101l165 314h74l-287 -550q-56 -108 -97 -145t-103 -37q-42 0 -80 14l22 61q29 -14 52 -14q42 0 75 35t76 126zM165 715h66v-15q0 -79 63 -79q69 0 92 94h68q-12 -62 -39 -93q-46 -55 -121 -55q-60 0 -95.5 34t-35.5 91 q0 13 2 23z" />
<glyph unicode="&#x45f;" horiz-adv-x="569" d="M58 0l80 507h76l-70 -446h222l70 446h76l-80 -507h-147l-33 -148h-61l14 148h-147z" />
<glyph unicode="&#x490;" horiz-adv-x="493" d="M61 0l110 692h294l31 113h60l-28 -179h-288l-99 -626h-80z" />
<glyph unicode="&#x491;" horiz-adv-x="422" d="M57 0l80 507h234l25 102h60l-26 -163h-226l-71 -446h-76z" />
<glyph unicode="&#x4c0;" horiz-adv-x="272" d="M56 0l110 692h79l-109 -692h-80z" />
<glyph unicode="&#x1e84;" horiz-adv-x="859" d="M155 0l-41 692h82l23 -467q3 -93 3 -143q18 57 51 143l175 467h100l31 -464q5 -77 5 -141q12 39 49 138l172 467h79l-261 -692h-103l-30 462q-5 83 -5 144q-18 -55 -52 -144l-176 -462h-102zM421 880q23 0 37.5 -14.5t14.5 -37.5t-14.5 -37.5t-37.5 -14.5t-37.5 15 t-14.5 39q0 22 14.5 36t37.5 14zM605 880q23 0 37.5 -14.5t14.5 -37.5t-14.5 -37.5t-37.5 -14.5t-37.5 15t-14.5 39q0 22 14.5 36t37.5 14z" />
<glyph unicode="&#x2007;" horiz-adv-x="288" />
<glyph unicode="&#x2011;" horiz-adv-x="311" d="M42 249l10 61h226l-10 -61h-226z" />
<glyph unicode="&#x2012;" horiz-adv-x="576" d="M40 249l10 61h494l-10 -61h-494z" />
<glyph unicode="&#x2013;" horiz-adv-x="576" d="M40 249l10 61h494l-10 -61h-494z" />
<glyph unicode="&#x2014;" horiz-adv-x="1000" d="M-6 249l10 61h1011l-10 -61h-1011z" />
<glyph unicode="&#x2015;" horiz-adv-x="1000" d="M-6 249l10 61h1011l-10 -61h-1011z" />
<glyph unicode="&#x2017;" d="M-68 -119l8 53h518l-8 -53h-518zM-84 -220l8 53h518l-8 -53h-518z" />
<glyph unicode="&#x2018;" horiz-adv-x="168" d="M133 507h-88l121 224h70z" />
<glyph unicode="&#x2019;" horiz-adv-x="168" d="M150 731h88l-121 -224h-70z" />
<glyph unicode="&#x201a;" horiz-adv-x="168" d="M42 100h88l-121 -224h-70z" />
<glyph unicode="&#x201c;" horiz-adv-x="324" d="M136 507h-88l121 224h70zM292 507h-88l121 224h70z" />
<glyph unicode="&#x201d;" horiz-adv-x="324" d="M152 731h88l-121 -224h-70zM308 731h88l-121 -224h-70z" />
<glyph unicode="&#x201e;" horiz-adv-x="324" d="M43 100h88l-121 -224h-70zM199 100h88l-121 -224h-70z" />
<glyph unicode="&#x2020;" horiz-adv-x="576" d="M280 446h-178l10 61h177l29 185h76l-29 -185h180l-10 -61h-179l-90 -568h-76z" />
<glyph unicode="&#x2021;" horiz-adv-x="576" d="M280 446h-178l10 61h177l30 185h76l-30 -185h180l-10 -61h-179l-38 -237h180l-10 -61h-179l-43 -270h-76l43 270h-178l10 61h177z" />
<glyph unicode="&#x2022;" d="M266 496q60 0 102 -42.5t42 -101.5t-42 -101.5t-102 -42.5t-102 42.5t-42 103.5q0 58 42.5 100t101.5 42z" />
<glyph unicode="&#x2026;" horiz-adv-x="864" d="M111 104q25 0 41 -16t16 -41q0 -24 -16 -40.5t-41 -16.5t-41 16.5t-16 41.5q0 23 16.5 39.5t40.5 16.5zM399 104q25 0 41 -16t16 -41q0 -24 -16 -40.5t-41 -16.5t-41 16.5t-16 41.5q0 23 16.5 39.5t40.5 16.5zM687 104q25 0 41 -16t16 -41q0 -24 -16 -40.5t-41 -16.5 t-41 16.5t-16 41.5q0 23 16.5 39.5t40.5 16.5z" />
<glyph unicode="&#x2030;" horiz-adv-x="1087" d="M221 698q118 0 118 -130q0 -92 -33 -170q-40 -92 -136 -92q-61 0 -89.5 32.5t-28.5 101.5q0 88 33 166q39 92 136 92zM217 650q-47 0 -73 -61q-29 -67 -29 -148q0 -87 59 -87q23 0 42.5 16.5t30.5 44.5q29 67 29 154q0 81 -59 81zM185 -20l342 732h59l-342 -732h-59z M600 386q118 0 118 -130q0 -92 -33 -170q-40 -92 -136 -92q-61 0 -89.5 32.5t-28.5 101.5q0 88 33 166q39 92 136 92zM596 338q-47 0 -73 -61q-29 -67 -29 -148q0 -87 59 -87q23 0 42.5 16.5t30.5 44.5q29 67 29 154q0 81 -59 81zM945 386q118 0 118 -131q0 -93 -32 -169 q-38 -92 -133 -92q-122 0 -122 134q0 88 33 166q38 92 136 92zM941 338q-48 0 -73 -61q-29 -67 -29 -150q0 -85 59 -85q23 0 42.5 16.5t30.5 44.5q29 67 29 153q0 82 -59 82z" />
<glyph unicode="&#x2039;" horiz-adv-x="282" d="M121 243l84 -167l-54 -35l-119 209l185 208l49 -38z" />
<glyph unicode="&#x203a;" horiz-adv-x="282" d="M159 255l-84 168l55 35l119 -209l-185 -208l-49 38z" />
<glyph unicode="&#x203e;" d="M74 779l10 61h518l-10 -61h-518z" />
<glyph unicode="&#x2044;" horiz-adv-x="80" d="M-166 -20l381 732h59l-381 -732h-59z" />
<glyph unicode="&#x2070;" horiz-adv-x="360" d="M244 698q118 0 118 -130q0 -92 -33 -170q-40 -92 -136 -92q-61 0 -89.5 32.5t-28.5 101.5q0 86 33 166q39 92 136 92zM240 650q-47 0 -73 -61q-12 -27 -20.5 -71.5t-8.5 -75.5q0 -88 59 -88q23 0 42.5 16.5t30.5 44.5q29 68 29 154q0 81 -59 81z" />
<glyph unicode="&#x2074;" horiz-adv-x="360" d="M212 312l15 97h-169l7 46l186 237h82l-38 -237h58l-7 -46h-58l-15 -97h-61zM235 455l28 177l-135 -177h107z" />
<glyph unicode="&#x2075;" horiz-adv-x="360" d="M66 333l27 45q37 -26 79 -26q41 0 71 29.5t30 70.5q0 59 -73 59q-40 0 -97 -15l39 196h217l-7 -46h-160l-19 -94q23 4 48 4q56 0 86 -26t30 -75q0 -65 -45.5 -107t-116.5 -42q-66 0 -109 27z" />
<glyph unicode="&#x2076;" horiz-adv-x="360" d="M356 696l-8 -46q-11 1 -23 1q-59 0 -98 -29t-64 -91q35 25 78 25q50 0 78.5 -27.5t28.5 -75.5q0 -65 -42 -106t-108 -41q-57 0 -87.5 30.5t-30.5 86.5q0 58 22 116t58 96q58 63 158 63q6 0 38 -2zM227 510q-35 0 -59.5 -27t-24.5 -65q0 -32 15 -49t43 -17q34 0 58.5 28 t24.5 66q0 30 -15 47t-42 17z" />
<glyph unicode="&#x2077;" horiz-adv-x="360" d="M83 312l220 334h-193l7 46h260l-7 -46l-217 -334h-70z" />
<glyph unicode="&#x2078;" horiz-adv-x="360" d="M166 507q-57 36 -57 86q0 48 37 76.5t99 28.5q54 0 84.5 -22t30.5 -62q0 -63 -86 -102q68 -34 68 -90q0 -53 -41 -84.5t-108 -31.5q-56 0 -89.5 26t-33.5 71q0 76 96 104zM235 531l3 2q27 14 43 34.5t16 39.5t-15.5 31t-41.5 12q-30 0 -49 -14.5t-19 -37.5q0 -37 63 -67z M208 485q-75 -24 -75 -77q0 -23 18.5 -38.5t46.5 -15.5q34 0 57.5 19t23.5 47q0 20 -16 35t-55 30z" />
<glyph unicode="&#x2079;" horiz-adv-x="360" d="M83 308l7 46q11 -1 24 -1q59 0 98 29t64 91q-35 -25 -78 -25q-50 0 -78.5 27.5t-28.5 75.5q0 65 42 106t108 41q57 0 87.5 -30.5t30.5 -86.5q0 -58 -22 -116t-58 -96q-60 -63 -158 -63q-8 0 -38 2zM238 652q-34 0 -58.5 -28t-24.5 -66q0 -30 15 -47t41 -17q35 0 60 27 t25 65q0 32 -15 49t-43 17z" />
<glyph unicode="&#x2080;" horiz-adv-x="360" d="M195 386q118 0 118 -130q0 -92 -33 -170q-40 -92 -136 -92q-61 0 -89.5 32.5t-28.5 101.5q0 88 33 166q39 92 136 92zM191 338q-47 0 -73 -61q-29 -67 -29 -148q0 -87 59 -87q23 0 42.5 16.5t30.5 44.5q29 67 29 154q0 81 -59 81z" />
<glyph unicode="&#x2081;" horiz-adv-x="360" d="M127 0l50 316l-82 -44l-16 44l115 64h53l-60 -380h-60z" />
<glyph unicode="&#x2082;" horiz-adv-x="360" d="M10 0l7 46q124 97 175 152.5t51 95.5q0 21 -16 33.5t-43 12.5q-39 0 -97 -33l-12 48q57 31 114 31q54 0 86 -23t32 -62q0 -41 -27.5 -81.5t-94.5 -99.5q-50 -45 -91 -74h177l-7 -46h-254z" />
<glyph unicode="&#x2083;" horiz-adv-x="360" d="M10 13l20 48q45 -21 90 -21q38 0 65.5 23t27.5 55q0 28 -25 44t-70 16q-2 0 -32 -2l8 48q15 -2 33 -2q47 0 79 21t32 53q0 20 -15.5 32t-42.5 12q-41 0 -96 -22l-5 48q51 20 108 20q53 0 84 -22.5t31 -60.5q0 -73 -88 -101q63 -20 63 -82q0 -54 -43.5 -90t-108.5 -36 q-54 0 -115 19z" />
<glyph unicode="&#x2084;" horiz-adv-x="360" d="M163 0l15 97h-169l7 46l186 237h82l-38 -237h58l-7 -46h-58l-15 -97h-61zM186 143l28 177l-135 -177h107z" />
<glyph unicode="&#x2085;" horiz-adv-x="360" d="M17 21l27 45q37 -26 79 -26q41 0 71 29.5t30 70.5q0 59 -73 59q-40 0 -97 -15l39 196h217l-7 -46h-160l-19 -94q23 4 48 4q56 0 86 -26t30 -75q0 -65 -45.5 -107t-116.5 -42q-66 0 -109 27z" />
<glyph unicode="&#x2086;" horiz-adv-x="360" d="M307 384l-8 -46q-11 1 -23 1q-59 0 -98 -29t-64 -91q35 25 78 25q50 0 78.5 -27.5t28.5 -75.5q0 -65 -42 -106t-108 -41q-57 0 -87.5 30.5t-30.5 86.5q0 58 22 116t58 96q59 63 158 63q6 0 38 -2zM178 198q-34 0 -59 -27t-25 -65q0 -66 59 -66q34 0 58 28t24 66 q0 30 -15 47t-42 17z" />
<glyph unicode="&#x2087;" horiz-adv-x="360" d="M33 0l220 334h-193l7 46h260l-7 -46l-217 -334h-70z" />
<glyph unicode="&#x2088;" horiz-adv-x="360" d="M116 195q-57 36 -57 86q0 48 37 76.5t99 28.5q54 0 84.5 -22t30.5 -62q0 -63 -86 -102q68 -34 68 -90q0 -53 -41 -84.5t-108 -31.5q-56 0 -89.5 26t-33.5 71q0 76 96 104zM185 219l3 2q27 14 43 34.5t16 39.5t-15.5 31t-41.5 12q-30 0 -49 -14.5t-19 -37.5q0 -37 63 -67z M158 173q-75 -24 -75 -77q0 -23 18.5 -38.5t46.5 -15.5q34 0 57.5 19t23.5 47q0 20 -16 35t-55 30z" />
<glyph unicode="&#x2089;" horiz-adv-x="360" d="M33 -4l7 46q11 -1 24 -1q59 0 98 29t64 91q-35 -25 -78 -25q-50 0 -78.5 27.5t-28.5 75.5q0 65 42 106t108 41q57 0 87.5 -30.5t30.5 -86.5q0 -58 -22 -116t-58 -96q-60 -63 -158 -63q-8 0 -38 2zM187 340q-34 0 -58 -28t-24 -66q0 -30 15 -47t41 -17q35 0 60 27t25 65 q0 66 -59 66z" />
<glyph unicode="&#x20ac;" horiz-adv-x="576" d="M523 94l17 -66q-95 -38 -176 -38q-115 0 -181 72t-67 199h-99l27 53h75q3 27 11 69h-94l28 53h80q43 127 127 196.5t192 69.5q85 0 166 -40l-32 -61q-67 40 -134 40q-155 0 -235 -205h284l-28 -53h-273q-9 -36 -12 -69h250l-28 -53h-225q0 -103 43 -156.5t124 -53.5 q75 0 160 43z" />
<glyph unicode="&#x2116;" horiz-adv-x="1120" d="M70 0l110 692h87l189 -441q21 -49 52 -134q6 45 7 52l5 38q2 12 6 38l70 447h79l-110 -692h-88l-190 445q-27 63 -50 127q-1 -5 -8 -53l-4 -32l-5 -33l-72 -454h-78zM927 526q79 0 120 -38.5t41 -111.5q0 -98 -62 -154q-48 -44 -129 -44q-161 0 -161 153q0 45 17.5 87 t47.5 67q48 41 126 41zM928 472q-50 0 -82.5 -41t-32.5 -105q0 -94 83 -94q50 0 82.5 41.5t32.5 107.5q0 43 -22 67t-61 24zM705 55l9 58h320l-9 -58h-320z" />
<glyph unicode="&#x2122;" horiz-adv-x="780" d="M326 312l60 380h79l68 -316l165 316h79l-60 -380h-59l27 166l10 64l11 57l5 31q-31 -77 -70 -150l-90 -168h-57l-36 151q-22 97 -28 165q-6 -46 -21 -150l-27 -166h-56zM118 312l53 334h-109l7 46h281l-7 -46h-111l-53 -334h-61z" />
<glyph unicode="&#x2126;" horiz-adv-x="691" d="M0 0l9 59h166q-122 98 -122 256q0 163 103 275t252 112q104 0 171 -56q97 -81 97 -221q0 -110 -58 -205.5t-164 -160.5h165l-9 -59h-265l9 59q90 50 140 110q97 112 97 255q0 95 -50.5 153.5t-133.5 58.5q-110 0 -189.5 -96.5t-79.5 -229.5q0 -156 136 -251l-9 -59h-265z " />
<glyph unicode="&#x2153;" horiz-adv-x="800" d="M177 312l50 316l-82 -44l-16 44l115 64h53l-60 -380h-60zM161 -20l381 732h59l-380 -732h-60zM427 13l20 48q44 -21 90 -21q38 0 65.5 23t27.5 55q0 28 -25 44t-70 16q-3 0 -33 -2l8 48q16 -2 33 -2q48 0 80 21t32 53q0 20 -15.5 32t-42.5 12q-41 0 -97 -22l-5 48 q57 20 109 20q53 0 84 -22.5t31 -60.5q0 -73 -88 -101q63 -19 63 -82q0 -54 -43.5 -90t-108.5 -36q-55 0 -115 19z" />
<glyph unicode="&#x2154;" horiz-adv-x="800" d="M59 312l7 46q124 97 175 152.5t51 95.5q0 21 -16 33.5t-43 12.5q-39 0 -97 -33l-12 48q58 31 114 31q54 0 86 -23t32 -62q0 -41 -27.5 -82t-94.5 -99q-45 -41 -91 -74h177l-7 -46h-254zM194 -20l381 732h59l-380 -732h-60zM449 13l21 48q44 -21 89 -21q38 0 65.5 23 t27.5 55q0 29 -24.5 44.5t-69.5 15.5q-3 0 -33 -2l8 48q16 -2 33 -2q47 0 79 21t32 53q0 20 -15.5 32t-42.5 12q-41 0 -96 -22l-5 48q53 20 108 20q53 0 84 -22.5t31 -60.5q0 -74 -87 -101q62 -20 62 -82q0 -54 -43 -90t-108 -36q-53 0 -116 19z" />
<glyph unicode="&#x2155;" horiz-adv-x="800" d="M163 312l50 316l-82 -44l-16 44l115 64h53l-60 -380h-60zM150 -20l381 732h60l-381 -732h-60zM423 21l26 45q38 -26 80 -26q41 0 71 29.5t30 70.5q0 59 -73 59q-40 0 -97 -15l39 196h217l-7 -46h-161l-18 -94q23 4 48 4q56 0 86 -26t30 -75q0 -65 -45.5 -107t-116.5 -42 q-67 0 -109 27z" />
<glyph unicode="&#x2159;" horiz-adv-x="800" d="M170 312l50 316l-82 -44l-16 44l115 64h53l-60 -380h-60zM161 -20l381 732h59l-381 -732h-59zM723 384l-7 -46q-11 1 -24 1q-114 0 -162 -120q36 25 78 25q50 0 78.5 -27.5t28.5 -75.5q0 -65 -42 -106t-108 -41q-57 0 -87.5 30.5t-30.5 86.5q0 58 22 116t58 96 q60 63 159 63q7 0 37 -2zM594 198q-34 0 -59 -27t-25 -65q0 -66 59 -66q34 0 58 28t24 66q0 30 -15 47t-42 17z" />
<glyph unicode="&#x215b;" horiz-adv-x="800" d="M173 312l50 316l-82 -44l-16 44l115 64h53l-60 -380h-60zM150 -20l381 732h60l-381 -732h-60zM519 195q-57 35 -57 86q0 48 37 76.5t99 28.5q54 0 84.5 -22t30.5 -62q0 -64 -86 -102q37 -18 52.5 -38.5t15.5 -51.5q0 -53 -41 -84.5t-108 -31.5q-56 0 -89.5 26t-33.5 71 q0 76 96 104zM588 219l3 2q59 33 59 74q0 19 -15.5 31t-41.5 12q-30 0 -49 -14.5t-19 -37.5q0 -36 63 -67zM560 173q-35 -11 -54.5 -31.5t-19.5 -45.5q0 -23 18.5 -38.5t46.5 -15.5q34 0 57.5 19t23.5 47q0 20 -16 34.5t-56 30.5z" />
<glyph unicode="&#x215c;" horiz-adv-x="800" d="M59 325l20 48q45 -21 90 -21q38 0 65.5 23t27.5 55q0 28 -25 44t-70 16q-2 0 -32 -2l8 48q15 -2 33 -2q47 0 79 21t32 53q0 20 -15.5 32t-42.5 12q-41 0 -96 -22l-5 48q51 20 108 20q53 0 84 -22.5t31 -60.5q0 -73 -88 -101q63 -19 63 -82q0 -54 -43.5 -90t-108.5 -36 q-54 0 -115 19zM191 -20l381 732h59l-381 -732h-59zM556 195q-57 35 -57 86q0 48 37 76.5t99 28.5q54 0 84.5 -22t30.5 -62q0 -64 -86 -102q37 -18 52.5 -38.5t15.5 -51.5q0 -53 -41 -84.5t-108 -31.5q-56 0 -89.5 26t-33.5 71q0 76 96 104zM625 219l3 2q27 14 43 34.5 t16 39.5t-15.5 31t-41.5 12q-30 0 -49 -14.5t-19 -37.5q0 -37 63 -67zM598 173q-35 -10 -55 -30.5t-20 -46.5q0 -23 18.5 -38.5t46.5 -15.5q34 0 57.5 19t23.5 47q0 20 -16 34.5t-55 30.5z" />
<glyph unicode="&#x215d;" horiz-adv-x="800" d="M66 333l27 45q37 -26 79 -26q41 0 71 29.5t30 70.5q0 59 -73 59q-40 0 -97 -15l39 196h217l-7 -46h-160l-19 -94q23 4 48 4q56 0 86 -26t30 -75q0 -65 -45.5 -107t-116.5 -42q-66 0 -109 27zM194 -20l381 732h60l-381 -732h-60zM556 195q-57 36 -57 86q0 48 37 76.5 t99 28.5q54 0 84.5 -22t30.5 -62q0 -63 -86 -102q68 -33 68 -90q0 -53 -41 -84.5t-108 -31.5q-56 0 -89.5 26t-33.5 71q0 76 96 104zM625 219l4 2q26 14 42 34.5t16 39.5t-15.5 31t-41.5 12q-30 0 -49 -14.5t-19 -37.5q0 -36 63 -67zM598 173q-75 -24 -75 -77 q0 -23 18.5 -38.5t46.5 -15.5q34 0 57.5 19t23.5 47q0 20 -16 35t-55 30z" />
<glyph unicode="&#x215e;" horiz-adv-x="800" d="M89 312l220 334h-193l7 46h260l-7 -46l-217 -334h-70zM157 -20l381 732h59l-380 -732h-60zM533 195q-58 35 -58 86q0 48 37 76.5t99 28.5q54 0 84.5 -22t30.5 -62q0 -64 -86 -102q37 -18 52.5 -38.5t15.5 -51.5q0 -53 -41 -84.5t-108 -31.5q-56 0 -89.5 26t-33.5 71 q0 76 97 104zM601 219l4 2q26 14 42 34.5t16 39.5t-15.5 31t-41.5 12q-30 0 -49 -14.5t-19 -37.5q0 -37 63 -67zM574 173q-75 -24 -75 -77q0 -23 18.5 -38.5t46.5 -15.5q34 0 57.5 19t23.5 47q0 20 -16 35t-55 30z" />
<glyph unicode="&#x2202;" horiz-adv-x="576" d="M199 679l34 59q97 -41 166 -123q108 -135 108 -301q0 -146 -69.5 -235t-183.5 -89q-88 0 -138 53.5t-50 146.5q0 125 69.5 210t170.5 85q54 0 97 -25q-50 145 -204 219zM316 424q-75 0 -122.5 -66t-47.5 -170q0 -65 30 -101t84 -36q82 0 128 87q39 70 39 152q0 64 -29 99 t-82 35z" />
<glyph unicode="&#x2206;" horiz-adv-x="576" d="M-37 0l10 63l337 629h96l136 -629l-10 -63h-569zM57 63h406l-116 552z" />
<glyph unicode="&#x220f;" horiz-adv-x="660" d="M19 -155l150 946h492l-150 -946h-80l139 880h-331l-140 -880h-80z" />
<glyph unicode="&#x2211;" horiz-adv-x="576" d="M-1 -155l12 77l290 409l-163 391l11 69h481l-11 -66h-396l166 -396l-294 -418h404l-11 -66h-489z" />
<glyph unicode="&#x2212;" horiz-adv-x="576" d="M36 222l10 61h493l-10 -61h-493z" />
<glyph unicode="&#x221a;" horiz-adv-x="576" d="M198 0l-43 311h-83l10 61h134l35 -268l341 747h259l-10 -61h-202l-366 -790h-75z" />
<glyph unicode="&#x221e;" horiz-adv-x="761" d="M373 207q-87 -112 -182 -112q-63 0 -100 36t-37 97q0 79 49 131t124 52q102 0 160 -112q90 113 184 113q63 0 99 -35t36 -97q0 -81 -48.5 -133t-124.5 -52q-101 0 -160 112zM347 253l-4 9q-19 44 -49.5 69.5t-64.5 25.5q-45 0 -78.5 -36.5t-33.5 -85.5q0 -38 22.5 -62 t57.5 -24q33 0 72.5 26t71.5 69zM413 253l4 -9q43 -95 113 -95q45 0 79 37t34 86q0 38 -22.5 62t-57.5 24q-33 0 -71.5 -25.5t-71.5 -70.5z" />
<glyph unicode="&#x222b;" horiz-adv-x="360" d="M-30 -152l28 67q29 -11 44 -11q33 0 49 33q6 13 15 66l96 605q13 83 18.5 104t20.5 41q33 48 104 48q33 0 73 -13l-28 -68q-28 12 -44 12q-33 0 -49 -33q-6 -11 -15 -67l-96 -605q-18 -115 -39 -144q-35 -48 -103 -48q-36 0 -74 13z" />
<glyph unicode="&#x2248;" horiz-adv-x="576" d="M87 259l-39 37q47 57 79.5 79t70.5 22q41 0 112 -45q57 -37 84 -37q40 0 83 40l34 34l38 -39q-82 -101 -149 -101q-43 0 -111 44q-35 23 -52.5 30.5t-37.5 7.5q-26 0 -48 -14t-64 -58zM65 119l-39 37q46 57 79 79t71 22q41 0 112 -45q57 -37 84 -37q40 0 83 40l34 34 l38 -39q-82 -101 -149 -101q-44 0 -111 44q-35 23 -53 30.5t-38 7.5q-25 0 -46.5 -14t-64.5 -58z" />
<glyph unicode="&#x2260;" horiz-adv-x="576" d="M385 355h165l-9 -61h-193l-52 -82h232l-10 -61h-259l-88 -141l-49 31l68 110h-165l10 61h192l52 82h-231l9 61h259l88 142l50 -31z" />
<glyph unicode="&#x2261;" horiz-adv-x="576" d="M59 366l10 61h493l-9 -61h-494zM37 222l9 61h493l-9 -61h-493zM14 79l10 61h493l-10 -61h-493z" />
<glyph unicode="&#x2264;" horiz-adv-x="576" d="M1 0l10 61h493l-10 -61h-493zM138 311l383 -139l-10 -63l-464 179l8 51l521 179l-11 -69z" />
<glyph unicode="&#x2265;" horiz-adv-x="576" d="M1 0l10 61h493l-10 -61h-493zM457 316l-384 139l10 63l465 -179l-8 -51l-522 -179l11 69z" />
<glyph unicode="&#x22c5;" horiz-adv-x="288" d="M148 336q25 0 41 -16t16 -41q0 -24 -16 -40.5t-41 -16.5t-41 16.5t-16 41.5q0 23 16.5 39.5t40.5 16.5z" />
<glyph unicode="&#x25ca;" horiz-adv-x="576" d="M303 -33l-278 379l278 378l278 -378zM303 83l194 263l-194 263l-194 -263z" />
<glyph unicode="&#xe000;" horiz-adv-x="505" d="M0 505h505v-505h-505v505z" />
<glyph unicode="&#xea3f;" d="M316 731h88l-121 -224h-70z" />
<glyph unicode="&#xea4e;" horiz-adv-x="0" d="M176 790l10 61h492l-10 -61h-492z" />
<glyph unicode="&#xea4f;" d="M306 584h-90l154 147h74z" />
<glyph unicode="&#xea67;" d="M316 731h88l-121 -224h-70z" />
<glyph unicode="&#xf6be;" horiz-adv-x="262" d="M131 507h76l-83 -526q-18 -113 -40 -147q-38 -59 -119 -59q-34 0 -66 12l14 59q24 -10 45 -10q67 0 82 99z" />
<glyph unicode="&#xf6c3;" d="M220 -34h90l-154 -147h-74z" />
<glyph unicode="&#xf6c9;" d="M404 901h103l-165 -146h-79z" />
<glyph unicode="&#xf6ca;" d="M337 810l85 97h76l-120 -146h-91l-74 146h70z" />
<glyph unicode="&#xf6cb;" d="M252 880q23 0 37.5 -14.5t14.5 -37.5t-14.5 -37.5t-37.5 -14.5t-37.5 15t-14.5 39q0 22 14.5 36t37.5 14zM436 880q23 0 37.5 -14.5t14.5 -37.5t-14.5 -37.5t-37.5 -14.5t-37.5 15t-14.5 39q0 22 14.5 36t37.5 14z" />
<glyph unicode="&#xf6ce;" d="M327 901l95 -146h-70l-118 146h93z" />
<glyph unicode="&#xf6cf;" d="M334 901h92l-145 -146h-69zM486 901h92l-145 -146h-69z" />
<glyph unicode="&#xf6d0;" d="M196 793l10 61h284l-10 -61h-284z" />
<glyph unicode="&#xf6f4;" d="M184 751h66v-17q0 -77 62 -77q70 0 93 94h68q-12 -62 -39 -93q-48 -55 -121 -55q-60 0 -95.5 33.5t-35.5 90.5q0 14 2 24z" />
<glyph unicode="&#xf6f5;" d="M311 654l85 97h75l-120 -146h-91l-74 146h70z" />
<glyph unicode="&#xf6f6;" d="M324 702l-85 -97h-76l120 146h91l74 -146h-70z" />
<glyph unicode="&#xf6f7;" d="M316 720q24 0 38 -14.5t14 -38.5q0 -23 -14 -37t-37 -14q-24 0 -38.5 15t-14.5 39q0 22 14.5 36t37.5 14z" />
<glyph unicode="&#xf6f8;" d="M308 751h92l-145 -146h-69zM460 751h92l-145 -146h-69z" />
<glyph unicode="&#xf6f9;" horiz-adv-x="415" d="M106 281l40 255h76l-31 -201l125 82l-9 -61l-126 -82l-34 -216h233l-10 -58h-309l35 220l-81 -53l10 61z" />
<glyph unicode="&#xf6fa;" horiz-adv-x="763" d="M662 0h-357q-71 0 -106.5 7.5t-66.5 29.5q-79 59 -79 180q0 86 35 159.5t94 114.5q40 28 79.5 36.5t124.5 8.5h350l-9 -58h-221l-28 -177h210l-9 -58h-210l-29 -185h232zM430 478h-42q-78 0 -116.5 -13t-70.5 -50t-50.5 -89.5t-18.5 -105.5q0 -95 53 -132q42 -30 137 -30 h42z" />
<glyph unicode="&#xf6fb;" d="M215 -157v-48q-38 -13 -67 -13q-43 0 -69.5 22t-26.5 57q0 86 147 139h48q-54 -32 -74 -48q-51 -41 -51 -80q0 -17 12 -27t31 -10q15 0 50 8z" />
<glyph unicode="&#xf6fc;" d="M318 781q42 0 71 -29t29 -71t-29 -71t-71 -29q-43 0 -71.5 29t-28.5 72q0 41 29 70t71 29zM318 741q-25 0 -41.5 -17t-16.5 -42q0 -27 16 -44t42 -17q25 0 41 17t16 43t-16 43t-41 17z" />
<glyph unicode="&#xf6fd;" horiz-adv-x="442" d="M25 19l19 64q76 -35 133 -35q50 0 84 31.5t34 77.5q0 30 -24 51q-14 13 -69 40q-72 35 -98.5 65t-26.5 75q0 71 53 114.5t138 43.5q68 0 139 -29l-23 -62q-63 33 -118 33q-45 0 -76.5 -26.5t-31.5 -64.5q0 -27 19 -46.5t68 -41.5q75 -35 98 -60q32 -34 32 -83 q0 -78 -56.5 -127t-146.5 -49q-72 0 -147 29zM282 654l85 97h76l-120 -146h-92l-74 146h71z" />
<glyph unicode="&#xf6fe;" d="M196 614h-53q12 49 38 75.5t62 26.5q34 0 88 -21q37 -15 55 -15q40 0 51 42h51q-24 -103 -100 -103q-32 0 -84 20q-42 16 -61 16q-29 0 -47 -41z" />
<glyph unicode="&#xf6ff;" horiz-adv-x="457" d="M0 0l9 58l348 420h-272l9 58h365l-9 -58l-347 -420h280l-9 -58h-374zM296 654l85 97h76l-120 -146h-92l-74 146h71z" />
<glyph unicode="&#xf730;" horiz-adv-x="592" d="M332 546q97 0 154 -60t57 -164q0 -143 -79 -237.5t-199 -94.5q-98 0 -154.5 60.5t-56.5 164.5q0 142 79.5 236.5t198.5 94.5zM330 480q-98 0 -151 -94q-43 -74 -43 -176q0 -74 34 -114t98 -40q98 0 151 94q43 76 43 180q0 71 -35 110.5t-97 39.5z" />
<glyph unicode="&#xf731;" horiz-adv-x="410" d="M159 0l70 443l-135 -80l-32 63l189 110h70l-84 -536h-78z" />
<glyph unicode="&#xf732;" horiz-adv-x="520" d="M10 0l10 66q98 58 227 152q78 58 107.5 96t29.5 81q0 41 -29 64t-82 23q-74 0 -167 -51l-22 58q106 57 203 57q85 0 132.5 -39t47.5 -108q0 -59 -34 -105.5t-119 -105.5q-55 -38 -192 -122h291l-10 -66h-393z" />
<glyph unicode="&#xf733;" horiz-adv-x="520" d="M-20 -138l28 64q73 -28 140 -28q83 0 137.5 47t54.5 120q0 55 -50.5 84t-145.5 29q-21 0 -36 -2l11 66q14 -2 37 -2q102 0 165 41.5t63 109.5q0 43 -33 67t-91 24q-69 0 -150 -37l-16 62q89 39 173 39q92 0 146 -40.5t54 -108.5q0 -40 -19.5 -78t-53.5 -64 q-42 -32 -112 -45q140 -15 140 -147q0 -100 -75.5 -164.5t-191.5 -64.5q-90 0 -175 28z" />
<glyph unicode="&#xf734;" horiz-adv-x="560" d="M315 43h-308l12 71l355 422h95l-68 -432h104l-11 -61h-103l-32 -199h-76zM325 104l58 349l-289 -349h231z" />
<glyph unicode="&#xf735;" horiz-adv-x="550" d="M-2 -121l40 65q70 -46 143 -46q84 0 143 59.5t59 144.5q0 55 -32.5 86.5t-89.5 31.5q-83 0 -184 -37l66 353h369l-11 -66h-290l-40 -202q55 16 104 16q89 0 139 -48.5t50 -135.5q0 -114 -80.5 -190t-201.5 -76q-93 0 -184 45z" />
<glyph unicode="&#xf736;" horiz-adv-x="576" d="M531 697l-13 -61q-23 5 -50 5q-105 0 -180 -70t-113 -203q66 69 158 69q84 0 132 -49.5t48 -137.5q0 -116 -67.5 -188t-175.5 -72q-99 0 -153.5 55.5t-54.5 155.5q0 102 38.5 208t100.5 176q105 117 264 117q30 0 66 -5zM318 376q-74 0 -125 -56t-51 -137q0 -62 33.5 -97 t92.5 -35q73 0 119 54t46 140q0 62 -30 96.5t-85 34.5z" />
<glyph unicode="&#xf737;" horiz-adv-x="472" d="M75 -156h-92l397 631h-349l10 61h434l-12 -69z" />
<glyph unicode="&#xf738;" horiz-adv-x="576" d="M234 359q-62 34 -89 71.5t-27 87.5q0 85 61.5 134.5t167.5 49.5q91 0 144 -40.5t53 -109.5q0 -113 -159 -184q70 -38 96.5 -74.5t26.5 -94.5q0 -92 -70 -150.5t-182 -58.5q-94 0 -152 48.5t-58 127.5q0 74 46 121t142 72zM325 394q25 11 42 22q97 62 97 134 q0 43 -31.5 67t-86.5 24q-68 0 -108 -31.5t-40 -83.5q0 -39 28.5 -69t98.5 -63zM300 332q-91 -25 -132.5 -64.5t-41.5 -100.5q0 -54 34.5 -85t95.5 -31q73 0 122.5 42t49.5 103q0 42 -28.5 72.5t-99.5 63.5z" />
<glyph unicode="&#xf739;" horiz-adv-x="576" d="M48 -161l13 61q23 -5 50 -5q105 0 180 70t112 203q-65 -69 -156 -69q-85 0 -133 49.5t-48 137.5q0 115 68 187.5t176 72.5q98 0 152.5 -55.5t54.5 -155.5q0 -102 -38.5 -208t-100.5 -176q-105 -117 -265 -117q-29 0 -65 5zM312 485q-73 0 -119.5 -55t-46.5 -140 q0 -61 30.5 -95.5t84.5 -34.5q73 0 124.5 56.5t51.5 136.5q0 61 -33.5 96.5t-91.5 35.5z" />
<glyph unicode="&#xf760;" d="M301 751l95 -146h-70l-118 146h93z" />
<glyph unicode="&#xf761;" horiz-adv-x="510" d="M345 166h-205l-84 -166h-81l279 536h90l111 -536h-79zM335 224l-29 152l-6 33q-5 33 -9 61q-8 -21 -43 -89l-79 -157h166z" />
<glyph unicode="&#xf762;" horiz-adv-x="488" d="M51 0l85 536h87q106 0 148 -18q65 -27 65 -110q0 -107 -111 -136q51 -9 72 -32.5t21 -70.5q0 -100 -77 -144q-28 -16 -58 -20.5t-100 -4.5h-132zM174 299h27q86 0 117 23q37 27 37 79q0 44 -25 61t-91 17h-36zM136 57h26q92 0 122 15q25 12 40 38t15 58q0 44 -28.5 60 t-108.5 16h-36z" />
<glyph unicode="&#xf763;" horiz-adv-x="480" d="M399 79l19 -59q-62 -30 -138 -30q-108 0 -166.5 61t-58.5 173q0 131 80 225q84 97 211 97q66 0 134 -26l-21 -60q-55 28 -110 28q-92 0 -153 -76t-61 -190q0 -81 41.5 -127.5t113.5 -46.5q56 0 109 31z" />
<glyph unicode="&#xf764;" horiz-adv-x="559" d="M51 0l85 536h119q124 0 177 -32q80 -49 80 -174q0 -81 -30.5 -155t-80.5 -116q-40 -32 -89.5 -45.5t-133.5 -13.5h-127zM137 58h47q117 0 173 59q34 36 54 91t20 115q0 98 -53 133q-36 22 -137 22h-38z" />
<glyph unicode="&#xf765;" horiz-adv-x="460" d="M51 0l85 536h297l-9 -58h-221l-28 -177h210l-10 -58h-210l-28 -185h233l-10 -58h-309z" />
<glyph unicode="&#xf766;" horiz-adv-x="445" d="M51 0l85 536h299l-9 -58h-223l-28 -177h212l-10 -58h-212l-38 -243h-76z" />
<glyph unicode="&#xf767;" horiz-adv-x="570" d="M489 280l-41 -262q-92 -28 -168 -28q-107 0 -167 58t-60 162q0 127 72 225q84 111 228 111q85 0 167 -36l-22 -59q-77 37 -142 37q-102 0 -163 -87q-60 -85 -60 -184q0 -79 41 -124t114 -45q46 0 91 17l26 157h-105l8 58h181z" />
<glyph unicode="&#xf768;" horiz-adv-x="578" d="M51 0l85 536h76l-37 -233h244l37 233h76l-85 -536h-76l39 245h-244l-39 -245h-76z" />
<glyph unicode="&#xf769;" horiz-adv-x="258" d="M51 0l85 536h76l-85 -536h-76z" />
<glyph unicode="&#xf76a;" horiz-adv-x="314" d="M199 536h76l-60 -376q-9 -58 -19.5 -86.5t-30.5 -47.5q-39 -36 -112 -36q-58 0 -96 19l17 62q41 -23 75 -23q47 0 67 33q15 25 29 120z" />
<glyph unicode="&#xf76b;" horiz-adv-x="493" d="M51 0l85 536h76l-38 -239l247 239h94l-260 -250l184 -286h-91l-177 276l-44 -276h-76z" />
<glyph unicode="&#xf76c;" horiz-adv-x="405" d="M51 0l85 536h76l-75 -478h233l-10 -58h-309z" />
<glyph unicode="&#xf76d;" horiz-adv-x="728" d="M51 0l85 536h116l70 -399q6 -32 12 -77q23 55 36 79l197 397h115l-85 -536h-76l43 271q15 91 38 199q-33 -83 -86 -183l-144 -287h-95l-49 261q-12 62 -33 209q-7 -55 -24 -165l-48 -305h-72z" />
<glyph unicode="&#xf76e;" horiz-adv-x="602" d="M51 0l85 536h97l141 -331q25 -61 43 -118q14 112 18 137l49 312h72l-85 -536h-98l-141 332q-30 72 -42 117q-5 -55 -16 -128l-51 -321h-72z" />
<glyph unicode="&#xf76f;" horiz-adv-x="602" d="M338 546q101 0 158 -60.5t57 -168.5q0 -124 -72 -221q-78 -106 -210 -106q-119 0 -174 79q-42 64 -42 156q0 120 70 215q79 106 213 106zM337 488q-93 0 -150 -87q-24 -35 -38.5 -87.5t-14.5 -100.5q0 -77 37 -121t101 -44q85 0 143.5 80t58.5 197q0 75 -37 119t-100 44z " />
<glyph unicode="&#xf770;" horiz-adv-x="449" d="M51 0l85 536h110q96 0 136 -23q56 -34 56 -114q0 -100 -77 -146q-50 -30 -151 -30h-47l-36 -223h-76zM172 281h23q76 0 107 17q25 13 40.5 40t15.5 59q0 45 -25.5 63t-88.5 18h-41z" />
<glyph unicode="&#xf771;" horiz-adv-x="602" d="M445 -88l-37 -48q-69 41 -156 127q-77 5 -123 43q-34 28 -54 79t-20 110q0 123 70 217q79 106 213 106q101 0 158 -60.5t57 -168.5q0 -123 -71 -221q-58 -77 -142 -98q41 -45 105 -86zM337 488q-93 0 -150 -87q-24 -35 -38.5 -87.5t-14.5 -100.5q0 -77 37 -121t101 -44 q85 0 143.5 80t58.5 197q0 75 -37 119t-100 44z" />
<glyph unicode="&#xf772;" horiz-adv-x="477" d="M51 0l85 536h119q97 0 138 -27q51 -33 51 -101q0 -118 -126 -149q25 -11 36 -30t24 -71l40 -158h-81l-33 137q-13 58 -36 77.5t-77 19.5h-27l-37 -234h-76zM174 292h32q61 0 96 14q62 26 62 96q0 42 -27 59t-92 17h-42z" />
<glyph unicode="&#xf773;" horiz-adv-x="442" d="M25 19l19 64q76 -35 133 -35q50 0 84 31.5t34 77.5q0 30 -24 51q-14 13 -69 40q-72 35 -98.5 65t-26.5 75q0 71 53 114.5t138 43.5q68 0 139 -29l-23 -62q-63 33 -118 33q-45 0 -76.5 -26.5t-31.5 -64.5q0 -27 19 -46.5t68 -41.5q75 -35 98 -60q32 -34 32 -83 q0 -78 -56.5 -127t-146.5 -49q-72 0 -147 29z" />
<glyph unicode="&#xf774;" horiz-adv-x="420" d="M132 0l76 478h-157l9 58h390l-9 -58h-157l-76 -478h-76z" />
<glyph unicode="&#xf775;" horiz-adv-x="569" d="M130 536h76l-52 -327q-7 -49 -7 -72q0 -89 103 -89q79 0 117 53q13 18 20.5 44t17.5 90l48 301h76l-49 -309q-14 -84 -25.5 -117.5t-36.5 -58.5q-60 -61 -171 -61q-84 0 -130 36.5t-46 102.5q0 37 12 115z" />
<glyph unicode="&#xf776;" horiz-adv-x="470" d="M149 0l-97 536h79l62 -364q12 -76 14 -90q20 45 46 98l174 356h80l-266 -536h-92z" />
<glyph unicode="&#xf777;" horiz-adv-x="710" d="M118 0l-38 536h75l23 -360q2 -32 5 -110q18 62 34 103l133 367h97l24 -371q4 -84 4 -99q15 51 33 99l140 371h72l-208 -536h-100l-21 352l-3 37q-1 19 -2 69q-17 -50 -25 -72q-8 -20 -11 -31l-128 -355h-104z" />
<glyph unicode="&#xf778;" horiz-adv-x="516" d="M-15 0l234 279l-130 257h84l102 -200l171 200h90l-227 -265l138 -271h-85l-108 214l-178 -214h-91z" />
<glyph unicode="&#xf779;" horiz-adv-x="458" d="M151 0l38 240l-145 296h85l81 -169q24 -51 27 -58q9 11 15 20l8 10l19 24l138 173h86l-238 -296l-38 -240h-76z" />
<glyph unicode="&#xf77a;" horiz-adv-x="457" d="M0 0l9 58l348 420h-272l9 58h365l-9 -58l-347 -420h280l-9 -58h-374z" />
<glyph unicode="&#xf7a8;" d="M224 720q24 0 38 -14.5t14 -38.5q0 -23 -14 -37t-37 -14q-24 0 -38.5 15t-14.5 39q0 22 14.5 36t37.5 14zM408 720q24 0 38 -14.5t14 -38.5q0 -23 -14 -37t-37 -14q-24 0 -38.5 15t-14.5 39q0 22 14.5 36t37.5 14z" />
<glyph unicode="&#xf7af;" d="M168 636l9 58h284l-9 -58h-284z" />
<glyph unicode="&#xf7b4;" d="M362 751h103l-165 -146h-79z" />
<glyph unicode="&#xf7b8;" d="M220 -34h90l-154 -147h-74z" />
<glyph unicode="&#xf7e0;" horiz-adv-x="510" d="M345 166h-205l-84 -166h-81l279 536h90l111 -536h-79zM335 224l-29 152l-6 33q-5 33 -9 61q-8 -21 -43 -89l-79 -157h166zM261 751l96 -146h-70l-118 146h92z" />
<glyph unicode="&#xf7e1;" horiz-adv-x="510" d="M345 166h-205l-84 -166h-81l279 536h90l111 -536h-79zM335 224l-29 152l-6 33q-5 33 -9 61q-8 -21 -43 -89l-79 -157h166zM391 751h102l-165 -146h-79z" />
<glyph unicode="&#xf7e2;" horiz-adv-x="510" d="M345 166h-205l-84 -166h-81l279 536h90l111 -536h-79zM335 224l-29 152l-6 33q-5 33 -9 61q-8 -21 -43 -89l-79 -157h166zM328 702l-85 -97h-75l120 146h91l74 -146h-70z" />
<glyph unicode="&#xf7e3;" horiz-adv-x="510" d="M345 166h-205l-84 -166h-81l279 536h90l111 -536h-79zM335 224l-29 152l-6 33q-5 33 -9 61q-8 -21 -43 -89l-79 -157h166zM187 614h-53q12 49 38.5 75.5t62.5 26.5q33 0 87 -21q39 -15 56 -15q39 0 50 42h52q-26 -103 -101 -103q-31 0 -83 20q-43 16 -62 16 q-29 0 -47 -41z" />
<glyph unicode="&#xf7e4;" horiz-adv-x="510" d="M345 166h-205l-84 -166h-81l279 536h90l111 -536h-79zM335 224l-29 152l-6 33q-5 33 -9 61q-8 -21 -43 -89l-79 -157h166zM228 720q24 0 38 -14.5t14 -38.5q0 -23 -14 -37t-37 -14q-24 0 -38.5 15t-14.5 39q0 22 14.5 36t37.5 14zM412 720q24 0 38 -14.5t14 -38.5 q0 -23 -14 -37t-37 -14q-24 0 -38.5 15t-14.5 39q0 22 14.5 36t37.5 14z" />
<glyph unicode="&#xf7e5;" horiz-adv-x="510" d="M345 166h-205l-84 -166h-81l279 536h90l111 -536h-79zM335 224l-29 152l-6 33q-5 33 -9 61q-8 -21 -43 -89l-79 -157h166zM316 781q42 0 71 -29t29 -71t-29 -71t-71 -29q-43 0 -71.5 29t-28.5 72q0 41 29 70t71 29zM316 741q-25 0 -41.5 -17t-16.5 -42q0 -27 16 -44 t42 -17q25 0 41 17t16 43t-16 43t-41 17z" />
<glyph unicode="&#xf7e6;" horiz-adv-x="725" d="M340 150h-209l-116 -150h-94l425 536h352l-9 -58h-221l-28 -177h211l-10 -58h-211l-29 -185h233l-9 -58h-309zM349 208l44 278l-217 -278h173z" />
<glyph unicode="&#xf7e7;" horiz-adv-x="480" d="M399 79l19 -59q-62 -30 -138 -30q-108 0 -166.5 61t-58.5 173q0 131 80 225q84 97 211 97q66 0 134 -26l-21 -60q-55 28 -110 28q-92 0 -153 -76t-61 -190q0 -81 41.5 -127.5t113.5 -46.5q56 0 109 31zM209 -34h90l-154 -147h-74z" />
<glyph unicode="&#xf7e8;" horiz-adv-x="460" d="M51 0l85 536h297l-9 -58h-221l-28 -177h210l-10 -58h-210l-28 -185h233l-10 -58h-309zM267 751l95 -146h-69l-119 146h93z" />
<glyph unicode="&#xf7e9;" horiz-adv-x="460" d="M51 0l85 536h297l-9 -58h-221l-28 -177h210l-10 -58h-210l-28 -185h233l-10 -58h-309zM376 751h102l-165 -146h-78z" />
<glyph unicode="&#xf7ea;" horiz-adv-x="460" d="M51 0l85 536h297l-9 -58h-221l-28 -177h210l-10 -58h-210l-28 -185h233l-10 -58h-309zM310 702l-85 -97h-75l120 146h91l74 -146h-70z" />
<glyph unicode="&#xf7eb;" horiz-adv-x="460" d="M51 0l85 536h297l-9 -58h-221l-28 -177h210l-10 -58h-210l-28 -185h233l-10 -58h-309zM214 720q24 0 38 -14.5t14 -38.5q0 -23 -14 -37t-37 -14q-24 0 -38.5 15t-14.5 39q0 22 14.5 36t37.5 14zM398 720q24 0 38 -14.5t14 -38.5q0 -23 -14 -37t-37 -14q-24 0 -38.5 15 t-14.5 39q0 22 14.5 36t37.5 14z" />
<glyph unicode="&#xf7ec;" horiz-adv-x="258" d="M51 0l85 536h76l-85 -536h-76zM146 751l95 -146h-69l-119 146h93z" />
<glyph unicode="&#xf7ed;" horiz-adv-x="258" d="M51 0l85 536h76l-85 -536h-76zM268 751h102l-164 -146h-79z" />
<glyph unicode="&#xf7ee;" horiz-adv-x="258" d="M51 0l85 536h76l-85 -536h-76zM199 702l-85 -97h-76l120 146h91l74 -146h-70z" />
<glyph unicode="&#xf7ef;" horiz-adv-x="258" d="M51 0l85 536h76l-85 -536h-76zM96 720q24 0 38 -14.5t14 -38.5q0 -23 -14 -37t-37 -14q-24 0 -38.5 15t-14.5 39q0 22 14.5 36t37.5 14zM280 720q24 0 38 -14.5t14 -38.5q0 -23 -14 -37t-37 -14q-24 0 -38.5 15t-14.5 39q0 22 14.5 36t37.5 14z" />
<glyph unicode="&#xf7f0;" horiz-adv-x="573" d="M104 243h-87l9 58h87l38 235h119q124 0 177 -32q80 -49 80 -174q0 -81 -30.5 -155t-80.5 -116q-40 -32 -90 -45.5t-133 -13.5h-127zM181 243l-30 -185h48q117 0 173 59q34 36 54 91t20 115q0 98 -53 133q-36 22 -137 22h-38l-28 -177h127l-9 -58h-127z" />
<glyph unicode="&#xf7f1;" horiz-adv-x="602" d="M51 0l85 536h97l141 -331q25 -61 43 -118q14 112 18 137l49 312h72l-85 -536h-98l-141 332q-30 72 -42 117q-5 -55 -16 -128l-51 -321h-72zM247 614h-53q12 49 38 75.5t62 26.5q34 0 88 -21q37 -15 55 -15q40 0 51 42h51q-24 -103 -100 -103q-31 0 -84 20q-42 16 -61 16 q-29 0 -47 -41z" />
<glyph unicode="&#xf7f2;" horiz-adv-x="602" d="M338 546q101 0 158 -60.5t57 -168.5q0 -124 -72 -221q-78 -106 -210 -106q-119 0 -174 79q-42 64 -42 156q0 120 70 215q79 106 213 106zM337 488q-93 0 -150 -87q-24 -35 -38.5 -87.5t-14.5 -100.5q0 -77 37 -121t101 -44q85 0 143.5 80t58.5 197q0 75 -37 119t-100 44z M352 751l95 -146h-69l-119 146h93z" />
<glyph unicode="&#xf7f3;" horiz-adv-x="602" d="M338 546q101 0 158 -60.5t57 -168.5q0 -124 -72 -221q-78 -106 -210 -106q-119 0 -174 79q-42 64 -42 156q0 120 70 215q79 106 213 106zM337 488q-93 0 -150 -87q-24 -35 -38.5 -87.5t-14.5 -100.5q0 -77 37 -121t101 -44q85 0 143.5 80t58.5 197q0 75 -37 119t-100 44z M437 751h102l-164 -146h-79z" />
<glyph unicode="&#xf7f4;" horiz-adv-x="602" d="M338 546q101 0 158 -60.5t57 -168.5q0 -124 -72 -221q-78 -106 -210 -106q-119 0 -174 79q-42 64 -42 156q0 120 70 215q79 106 213 106zM337 488q-93 0 -150 -87q-24 -35 -38.5 -87.5t-14.5 -100.5q0 -77 37 -121t101 -44q85 0 143.5 80t58.5 197q0 75 -37 119t-100 44z M375 702l-85 -97h-76l121 146h91l74 -146h-70z" />
<glyph unicode="&#xf7f5;" horiz-adv-x="602" d="M338 546q101 0 158 -60.5t57 -168.5q0 -124 -72 -221q-78 -106 -210 -106q-119 0 -174 79q-42 64 -42 156q0 120 70 215q79 106 213 106zM337 488q-93 0 -150 -87q-24 -35 -38.5 -87.5t-14.5 -100.5q0 -77 37 -121t101 -44q85 0 143.5 80t58.5 197q0 75 -37 119t-100 44z M247 614h-52q11 49 37.5 75.5t62.5 26.5q33 0 87 -21q39 -15 56 -15q39 0 50 42h52q-26 -103 -101 -103q-31 0 -83 20q-43 16 -62 16q-29 0 -47 -41z" />
<glyph unicode="&#xf7f6;" horiz-adv-x="602" d="M338 546q101 0 158 -60.5t57 -168.5q0 -124 -72 -221q-78 -106 -210 -106q-119 0 -174 79q-42 64 -42 156q0 120 70 215q79 106 213 106zM337 488q-93 0 -150 -87q-24 -35 -38.5 -87.5t-14.5 -100.5q0 -77 37 -121t101 -44q85 0 143.5 80t58.5 197q0 75 -37 119t-100 44z M275 720q24 0 38 -14.5t14 -38.5q0 -23 -14.5 -37t-36.5 -14q-24 0 -38.5 15t-14.5 39q0 22 14.5 36t37.5 14zM459 720q24 0 38 -14.5t14 -38.5q0 -23 -14.5 -37t-36.5 -14q-24 0 -38.5 15t-14.5 39q0 22 14.5 36t37.5 14z" />
<glyph unicode="&#xf7f8;" horiz-adv-x="602" d="M58 -14l-36 32l65 66q-33 60 -33 138q0 124 70 218q80 106 212 106q96 0 153 -53l55 56l35 -33l-60 -62q33 -58 33 -136q0 -126 -71 -222q-80 -106 -210 -106q-99 0 -155 55zM143 141l295 300q-38 47 -102 47q-86 0 -144.5 -80t-58.5 -198q0 -33 10 -69zM462 397 l-295 -301q37 -48 103 -48q91 0 150 87q53 81 53 187q0 39 -9 69z" />
<glyph unicode="&#xf7f9;" horiz-adv-x="569" d="M130 536h76l-52 -327q-7 -49 -7 -72q0 -89 103 -89q79 0 117 53q13 18 20.5 44t17.5 90l48 301h76l-49 -309q-14 -84 -25.5 -117.5t-36.5 -58.5q-60 -61 -171 -61q-84 0 -130 36.5t-46 102.5q0 37 12 115zM308 751l95 -146h-69l-119 146h93z" />
<glyph unicode="&#xf7fa;" horiz-adv-x="569" d="M130 536h76l-52 -327q-7 -49 -7 -72q0 -89 103 -89q79 0 117 53q13 18 20.5 44t17.5 90l48 301h76l-49 -309q-14 -84 -25.5 -117.5t-36.5 -58.5q-60 -61 -171 -61q-84 0 -130 36.5t-46 102.5q0 37 12 115zM424 751h102l-165 -146h-79z" />
<glyph unicode="&#xf7fb;" horiz-adv-x="569" d="M130 536h76l-52 -327q-7 -49 -7 -72q0 -89 103 -89q79 0 117 53q13 18 20.5 44t17.5 90l48 301h76l-49 -309q-14 -84 -25.5 -117.5t-36.5 -58.5q-60 -61 -171 -61q-84 0 -130 36.5t-46 102.5q0 37 12 115zM351 702l-85 -97h-75l120 146h91l74 -146h-70z" />
<glyph unicode="&#xf7fc;" horiz-adv-x="569" d="M130 536h76l-52 -327q-7 -49 -7 -72q0 -89 103 -89q79 0 117 53q13 18 20.5 44t17.5 90l48 301h76l-49 -309q-14 -84 -25.5 -117.5t-36.5 -58.5q-60 -61 -171 -61q-84 0 -130 36.5t-46 102.5q0 37 12 115zM258 720q24 0 38 -14.5t14 -38.5q0 -23 -14 -37t-37 -14 q-24 0 -38.5 15t-14.5 39q0 22 14.5 36t37.5 14zM442 720q24 0 38 -14.5t14 -38.5q0 -23 -14 -37t-37 -14q-24 0 -38.5 15t-14.5 39q0 22 14.5 36t37.5 14z" />
<glyph unicode="&#xf7fd;" horiz-adv-x="458" d="M151 0l38 240l-145 296h85l81 -169q24 -51 27 -58q9 11 15 20l8 10l19 24l138 173h86l-238 -296l-38 -240h-76zM371 751h102l-165 -146h-78z" />
<glyph unicode="&#xf7fe;" horiz-adv-x="455" d="M51 0l85 536h76l-15 -96h38q97 0 135 -24q56 -33 56 -116q0 -104 -78 -152q-49 -31 -151 -31h-51l-19 -117h-76zM155 175h27q76 0 107 17q26 13 41.5 42t15.5 64q0 46 -25.5 65t-87.5 19h-45z" />
<glyph unicode="&#xf7ff;" horiz-adv-x="458" d="M151 0l38 240l-145 296h85l81 -169q24 -51 27 -58q9 11 15 20l8 10l19 24l138 173h86l-238 -296l-38 -240h-76zM192 720q24 0 38 -14.5t14 -38.5q0 -23 -14 -37t-37 -14q-24 0 -38.5 15t-14.5 39q0 22 14.5 36t37.5 14zM376 720q24 0 38 -14.5t14 -38.5q0 -23 -14 -37 t-37 -14q-24 0 -38.5 15t-14.5 39q0 22 14.5 36t37.5 14z" />
<glyph horiz-adv-x="800" d="M177 312l50 316l-82 -44l-16 44l115 64h53l-60 -380h-60zM188 -20l381 732h59l-381 -732h-59zM567 0l50 316l-81 -44l-16 44l114 64h54l-60 -380h-61z" />
<glyph horiz-adv-x="800" d="M59 312l7 46q124 97 175 152.5t51 95.5q0 21 -16 33.5t-43 12.5q-39 0 -97 -33l-12 48q58 31 114 31q54 0 86 -23t32 -62q0 -41 -27.5 -82t-94.5 -99q-45 -41 -91 -74h177l-7 -46h-254zM194 -20l381 732h59l-380 -732h-60zM456 21l27 45q37 -26 79 -26q41 0 71 29.5 t30 70.5q0 59 -73 59q-40 0 -96 -15l38 196h218l-8 -46h-160l-19 -94q23 4 48 4q56 0 86 -26t30 -75q0 -65 -45.5 -107t-116.5 -42q-65 0 -109 27z" />
<glyph horiz-adv-x="800" d="M59 325l20 48q45 -21 90 -21q38 0 65.5 23t27.5 55q0 28 -25 44t-70 16q-2 0 -32 -2l8 48q15 -2 33 -2q47 0 79 21t32 53q0 20 -15.5 32t-42.5 12q-41 0 -96 -22l-5 48q51 20 108 20q53 0 84 -22.5t31 -60.5q0 -73 -88 -101q63 -19 63 -82q0 -54 -43.5 -90t-108.5 -36 q-54 0 -115 19zM191 -20l381 732h59l-381 -732h-59zM456 21l27 45q38 -26 79 -26t71 29.5t30 70.5q0 59 -73 59q-40 0 -96 -15l39 196h217l-8 -46h-160l-19 -94q24 4 48 4q56 0 86 -26t30 -75q0 -65 -45.5 -107t-116.5 -42q-65 0 -109 27z" />
<glyph horiz-adv-x="800" d="M212 312l15 97h-169l7 46l186 237h82l-38 -237h58l-7 -46h-58l-15 -97h-61zM235 455l28 177l-135 -177h107zM194 -20l381 732h59l-381 -732h-59zM456 21l27 45q37 -26 79 -26q41 0 71 29.5t30 70.5q0 59 -73 59q-40 0 -97 -15l39 196h218l-8 -46h-160l-19 -94q23 4 48 4 q56 0 86 -26t30 -75q0 -65 -45.5 -107t-116.5 -42q-65 0 -109 27z" />
<glyph horiz-adv-x="800" d="M66 333l27 45q37 -26 79 -26q41 0 71 29.5t30 70.5q0 59 -73 59q-40 0 -97 -15l39 196h217l-7 -46h-160l-19 -94q23 4 48 4q56 0 86 -26t30 -75q0 -65 -45.5 -107t-116.5 -42q-66 0 -109 27zM196 -20l381 732h60l-381 -732h-60zM741 384l-8 -46q-11 1 -23 1 q-59 0 -98 -29t-64 -91q35 25 78 25q50 0 78.5 -27.5t28.5 -75.5q0 -65 -42 -106t-108 -41q-57 0 -87.5 30.5t-30.5 86.5q0 58 22 116t58 96q60 63 158 63q6 0 38 -2zM612 198q-34 0 -59 -27t-25 -65q0 -66 59 -66q34 0 58 28t24 66q0 30 -15 47t-42 17z" />
<glyph d="M344 880q23 0 37.5 -14.5t14.5 -37.5t-14.5 -37.5t-37.5 -14.5t-37.5 15t-14.5 39q0 22 14.5 36t37.5 14z" />
<glyph d="M352 880q42 0 71 -29t29 -71t-29 -71t-71 -29q-43 0 -71.5 29t-28.5 72q0 41 29 70t71 29zM352 840q-25 0 -41.5 -17t-16.5 -42q0 -27 16 -44t42 -17q25 0 41 17t16 43t-16 43t-41 17z" />
<glyph d="M350 852l-85 -97h-76l120 146h91l74 -146h-70z" />
<glyph d="M212 911h66v-16q0 -37 16.5 -57.5t46.5 -20.5q69 0 92 94h67q-13 -65 -41 -96q-48 -52 -119 -52q-58 0 -94 33t-36 87q0 13 2 28z" />
<glyph d="M224 774h-53q12 49 38 75.5t62 26.5q34 0 88 -21q39 -15 55 -15q40 0 51 42h51q-24 -103 -100 -103q-31 0 -84 20q-42 16 -61 16q-29 0 -47 -41z" />
<glyph d="M249 -34h90l-154 -147h-74z" />
<glyph d="M217 -157v-48q-38 -13 -67 -13q-43 0 -69.5 22t-26.5 57q0 86 147 139h48q-58 -35 -74 -48q-51 -41 -51 -80q0 -17 12 -27t31 -10q15 0 50 8z" />
<glyph d="M249 -34h90l-154 -147h-74z" />
<glyph horiz-adv-x="868" d="M25 19l19 64q76 -35 133 -35q50 0 84 31.5t34 77.5q0 30 -24 51q-14 13 -69 40q-72 35 -98.5 65t-26.5 75q0 71 53 114.5t138 43.5q68 0 139 -29l-23 -62q-63 33 -118 33q-45 0 -76.5 -26.5t-31.5 -64.5q0 -27 19 -46.5t68 -41.5q75 -35 98 -60q32 -34 32 -83 q0 -78 -56.5 -127t-146.5 -49q-72 0 -147 29zM451 19l19 64q76 -35 133 -35q50 0 84 31.5t34 77.5q0 30 -24 51q-14 13 -69 40q-72 35 -98.5 65t-26.5 75q0 71 53 114.5t138 43.5q68 0 139 -29l-23 -62q-63 33 -118 33q-45 0 -76.5 -26.5t-31.5 -64.5q0 -27 19 -46.5 t68 -41.5q75 -35 98 -60q32 -34 32 -83q0 -78 -56.5 -127t-146.5 -49q-72 0 -147 29z" />
<glyph horiz-adv-x="258" d="M51 0l85 536h76l-85 -536h-76z" />
<glyph horiz-adv-x="314" d="M199 536h76l-60 -376q-9 -58 -19.5 -86.5t-30.5 -47.5q-39 -36 -112 -36q-58 0 -96 19l17 62q41 -23 75 -23q47 0 67 33q15 25 29 120z" />
<glyph horiz-adv-x="678" d="M51 0l85 536h299l-9 -58h-223l-28 -177h212l-10 -58h-212l-38 -243h-76zM471 0l85 536h76l-85 -536h-76z" />
<glyph horiz-adv-x="829" d="M51 0l85 536h299l-9 -58h-223l-28 -177h212l-10 -58h-212l-38 -243h-76zM475 0l85 536h76l-75 -478h233l-10 -58h-309z" />
<glyph horiz-adv-x="510" d="M345 166h-205l-84 -166h-81l279 536h90l111 -536h-79zM335 224l-29 152l-6 33q-5 33 -9 61q-8 -21 -43 -89l-79 -157h166zM316 654l85 97h75l-120 -146h-91l-74 146h70z" />
<glyph horiz-adv-x="510" d="M345 166h-205l-84 -166h-81l279 536h90l111 -536h-79zM335 224l-29 152l-6 33q-5 33 -9 61q-8 -21 -43 -89l-79 -157h166zM179 751h66v-17q0 -77 62 -77q70 0 93 94h68q-12 -62 -39 -93q-48 -55 -121 -55q-60 0 -95.5 33.5t-35.5 90.5q0 14 2 24z" />
<glyph horiz-adv-x="510" d="M345 166h-205l-84 -166h-81l278 536h91l110 -536q-54 -32 -74 -48q-51 -41 -51 -80q0 -17 12 -27t31 -10q15 0 50 8v-48q-38 -13 -67 -13q-43 0 -69.5 22t-26.5 57q0 86 147 139h-30zM334 224l-28 152q-8 47 -15 94q-8 -19 -43 -89l-79 -157h165z" />
<glyph horiz-adv-x="480" d="M399 79l19 -59q-62 -30 -138 -30q-108 0 -166.5 61t-58.5 173q0 131 80 225q84 97 211 97q66 0 134 -26l-21 -60q-55 28 -110 28q-92 0 -153 -76t-61 -190q0 -81 41.5 -127.5t113.5 -46.5q56 0 109 31zM433 751h102l-165 -146h-79z" />
<glyph horiz-adv-x="480" d="M399 79l19 -59q-62 -30 -138 -30q-108 0 -166.5 61t-58.5 173q0 131 80 225q84 97 211 97q66 0 134 -26l-21 -60q-55 28 -110 28q-92 0 -153 -76t-61 -190q0 -81 41.5 -127.5t113.5 -46.5q56 0 109 31zM358 654l85 97h75l-120 -146h-91l-74 146h70z" />
<glyph horiz-adv-x="480" d="M399 79l19 -59q-62 -30 -138 -30q-108 0 -166.5 61t-58.5 173q0 131 80 225q84 97 211 97q66 0 134 -26l-21 -60q-55 28 -110 28q-92 0 -153 -76t-61 -190q0 -81 41.5 -127.5t113.5 -46.5q56 0 109 31zM359 720q24 0 38 -14.5t14 -38.5q0 -23 -14.5 -37t-36.5 -14 q-24 0 -38.5 15t-14.5 39q0 22 14.5 36t37.5 14z" />
<glyph horiz-adv-x="559" d="M51 0l85 536h119q124 0 177 -32q80 -49 80 -174q0 -81 -30.5 -155t-80.5 -116q-40 -32 -89.5 -45.5t-133.5 -13.5h-127zM137 58h47q117 0 173 59q34 36 54 91t20 115q0 98 -53 133q-36 22 -137 22h-38zM608 731h88l-122 -224h-69z" />
<glyph horiz-adv-x="573" d="M104 243h-87l9 58h87l38 235h119q124 0 177 -32q80 -49 80 -174q0 -81 -30.5 -155t-80.5 -116q-40 -32 -90 -45.5t-133 -13.5h-127zM181 243l-30 -185h48q117 0 173 59q34 36 54 91t20 115q0 98 -53 133q-36 22 -137 22h-38l-28 -177h127l-9 -58h-127z" />
<glyph horiz-adv-x="460" d="M51 0l85 536h297l-9 -58h-221l-28 -177h210l-10 -58h-210l-28 -185h233l-10 -58h-309zM298 654l85 97h75l-120 -146h-91l-74 146h70z" />
<glyph horiz-adv-x="460" d="M51 0l85 536h297l-9 -58h-221l-28 -177h210l-10 -58h-210l-28 -185h233l-10 -58h-309zM306 720q24 0 38 -14.5t14 -38.5q0 -23 -14 -37t-37 -14q-24 0 -38.5 15t-14.5 39q0 22 14.5 36t37.5 14z" />
<glyph horiz-adv-x="460" d="M51 0l85 536h297l-9 -58h-221l-28 -177h210l-9 -58h-210l-29 -185h233l-10 -58q-54 -32 -74 -48q-51 -41 -51 -80q0 -17 12 -27t31 -10q15 0 50 8v-48q-38 -13 -67 -13q-43 0 -69.5 22t-26.5 57q0 86 147 139h-261z" />
<glyph horiz-adv-x="570" d="M489 280l-41 -262q-92 -28 -168 -28q-107 0 -167 58t-60 162q0 127 72 225q84 111 228 111q85 0 167 -36l-22 -59q-77 37 -142 37q-102 0 -163 -87q-60 -85 -60 -184q0 -79 41 -124t114 -45q46 0 91 17l26 157h-105l8 58h181zM363 654l85 97h75l-120 -146h-91l-74 146h70 z" />
<glyph horiz-adv-x="570" d="M489 280l-41 -262q-92 -28 -168 -28q-107 0 -167 58t-60 162q0 127 72 225q84 111 228 111q85 0 167 -36l-22 -59q-77 37 -142 37q-102 0 -163 -87q-60 -85 -60 -184q0 -79 41 -124t114 -45q46 0 91 17l26 157h-105l8 58h181zM233 751h66v-17q0 -77 62 -77q70 0 93 94h68 q-12 -62 -39 -93q-48 -55 -121 -55q-60 0 -95.5 33.5t-35.5 90.5q0 14 2 24z" />
<glyph horiz-adv-x="570" d="M489 280l-41 -262q-92 -28 -168 -28q-107 0 -167 58t-60 162q0 127 72 225q84 111 228 111q85 0 167 -36l-22 -59q-77 37 -142 37q-102 0 -163 -87q-60 -85 -60 -184q0 -79 41 -124t114 -45q46 0 91 17l26 157h-105l8 58h181zM368 720q24 0 38 -14.5t14 -38.5 q0 -23 -14 -37t-37 -14q-24 0 -38.5 15t-14.5 39q0 22 14.5 36t37.5 14z" />
<glyph horiz-adv-x="405" d="M51 0l85 536h76l-75 -478h233l-10 -58h-309zM297 751h102l-165 -146h-79z" />
<glyph horiz-adv-x="405" d="M51 0l85 536h76l-75 -478h233l-10 -58h-309zM374 731h88l-121 -224h-69z" />
<glyph horiz-adv-x="602" d="M51 0l85 536h97l141 -331q25 -61 43 -118q14 112 18 137l49 312h72l-85 -536h-98l-141 332q-30 72 -42 117q-5 -55 -16 -128l-51 -321h-72zM437 751h102l-165 -146h-79z" />
<glyph horiz-adv-x="602" d="M51 0l85 536h97l141 -331q25 -61 43 -118q14 112 18 137l49 312h72l-85 -536h-98l-141 332q-30 72 -42 117q-5 -55 -16 -128l-51 -321h-72zM379 654l85 97h75l-120 -146h-91l-74 146h70z" />
<glyph horiz-adv-x="602" d="M338 546q101 0 158 -60.5t57 -168.5q0 -124 -72 -221q-78 -106 -210 -106q-119 0 -174 79q-42 64 -42 156q0 120 70 215q79 106 213 106zM337 488q-93 0 -150 -87q-24 -35 -38.5 -87.5t-14.5 -100.5q0 -77 37 -121t101 -44q85 0 143.5 80t58.5 197q0 75 -37 119t-100 44z M359 751h92l-145 -146h-69zM511 751h92l-145 -146h-69z" />
<glyph horiz-adv-x="477" d="M51 0l85 536h119q97 0 138 -27q51 -33 51 -101q0 -118 -126 -149q25 -11 36 -30t24 -71l40 -158h-81l-33 137q-13 58 -36 77.5t-77 19.5h-27l-37 -234h-76zM174 292h32q61 0 96 14q62 26 62 96q0 42 -27 59t-92 17h-42zM373 751h102l-165 -146h-79z" />
<glyph horiz-adv-x="442" d="M25 19l19 64q76 -35 133 -35q50 0 84 31.5t34 77.5q0 30 -24 51q-14 13 -69 40q-72 35 -98.5 65t-26.5 75q0 71 53 114.5t138 43.5q68 0 139 -29l-23 -62q-63 33 -118 33q-45 0 -76.5 -26.5t-31.5 -64.5q0 -27 19 -46.5t68 -41.5q75 -35 98 -60q32 -34 32 -83 q0 -78 -56.5 -127t-146.5 -49q-72 0 -147 29zM367 751h102l-164 -146h-79z" />
<glyph horiz-adv-x="442" d="M25 19l19 64q76 -35 133 -35q50 0 84 31.5t34 77.5q0 30 -24 51q-14 13 -69 40q-72 35 -98.5 65t-26.5 75q0 71 53 114.5t138 43.5q68 0 139 -29l-23 -62q-63 33 -118 33q-45 0 -76.5 -26.5t-31.5 -64.5q0 -27 19 -46.5t68 -41.5q75 -35 98 -60q32 -34 32 -83 q0 -78 -56.5 -127t-146.5 -49q-72 0 -147 29zM312 702l-85 -97h-76l120 146h92l73 -146h-70z" />
<glyph horiz-adv-x="442" d="M25 19l19 64q74 -35 132 -35q50 0 84 31.5t34 77.5q0 30 -24 51q-14 13 -69 40q-72 35 -98.5 65t-26.5 75q0 71 53 114.5t139 43.5q68 0 139 -29l-24 -62q-62 33 -118 33q-44 0 -76 -27t-32 -64q0 -27 19 -46.5t68 -41.5q75 -35 98 -60q32 -34 32 -83q0 -78 -56.5 -127 t-146.5 -49q-72 0 -146 29zM157 -34h90l-154 -147h-74z" />
<glyph horiz-adv-x="479" d="M132 0l76 478h-157l9 58h390l-9 -58h-157l-76 -478h-76zM588 731h88l-121 -224h-70z" />
<glyph horiz-adv-x="569" d="M130 536h76l-52 -327q-7 -49 -7 -72q0 -89 103 -89q79 0 117 53q13 18 20.5 44t17.5 90l48 301h76l-49 -309q-14 -84 -25.5 -117.5t-36.5 -58.5q-60 -61 -171 -61q-84 0 -130 36.5t-46 102.5q0 37 12 115zM342 781q42 0 71 -29t29 -71t-29 -71t-71 -29q-43 0 -71.5 29 t-28.5 72q0 41 29 70t71 29zM342 741q-25 0 -41.5 -17t-16.5 -42q0 -27 16 -44t42 -17q25 0 41 17t16 43t-16 43t-41 17z" />
<glyph horiz-adv-x="569" d="M130 536h76l-52 -327q-7 -49 -7 -72q0 -89 103 -89q79 0 117 53q13 18 20.5 44t17.5 90l48 301h76l-49 -309q-14 -84 -25.5 -117.5t-36.5 -58.5q-60 -61 -171 -61q-84 0 -130 36.5t-46 102.5q0 37 12 115zM342 751h92l-145 -146h-69zM494 751h92l-146 -146h-69z" />
<glyph horiz-adv-x="457" d="M0 0l9 58l348 420h-272l9 58h365l-9 -58l-347 -420h280l-9 -58h-374zM358 751h102l-165 -146h-79z" />
<glyph horiz-adv-x="457" d="M0 0l9 58l348 420h-272l9 58h365l-9 -58l-347 -420h280l-9 -58h-374zM294 720q24 0 38 -14.5t14 -38.5q0 -23 -14 -37t-37 -14q-24 0 -38.5 15t-14.5 39q0 22 14.5 36t37.5 14z" />
<glyph horiz-adv-x="578" d="M51 0l63 397h-80l9 56h80l13 83h76l-13 -83h244l13 83h76l-13 -83h80l-9 -56h-80l-63 -397h-76l39 245h-244l-39 -245h-76zM419 303l15 94h-244l-15 -94h244z" />
<glyph horiz-adv-x="420" d="M132 0l75 478h-157l10 58h390l-10 -58h-157l-75 -478h-76zM129 -34h90l-154 -147h-74z" />
<glyph horiz-adv-x="510" d="M345 166h-205l-84 -166h-81l279 536h90l111 -536h-79zM335 224l-29 152l-6 33q-5 33 -9 61q-8 -21 -43 -89l-79 -157h166zM163 636l9 58h285l-10 -58h-284z" />
<glyph horiz-adv-x="458" d="M151 0l38 240l-145 296h85l81 -169q24 -51 27 -58q9 11 15 20l8 10l19 24l138 173h86l-238 -296l-38 -240h-76zM302 702l-85 -97h-76l121 146h91l74 -146h-70z" />
<glyph horiz-adv-x="480" d="M399 79l19 -59q-62 -30 -138 -30q-108 0 -166.5 61t-58.5 173q0 131 80 225q84 97 211 97q66 0 134 -26l-21 -60q-55 28 -110 28q-92 0 -153 -76t-61 -190q0 -81 41.5 -127.5t113.5 -46.5q56 0 109 31zM367 702l-85 -97h-76l121 146h91l74 -146h-70z" />
<glyph horiz-adv-x="460" d="M51 0l85 536h297l-9 -58h-221l-28 -177h210l-10 -58h-210l-28 -185h233l-10 -58h-309zM149 636l9 58h284l-9 -58h-284z" />
<glyph horiz-adv-x="570" d="M489 280l-41 -262q-92 -28 -168 -28q-107 0 -167 58t-60 162q0 127 72 225q84 111 228 111q85 0 167 -36l-22 -59q-77 37 -142 37q-102 0 -163 -87q-60 -85 -60 -184q0 -79 41 -124t114 -45q46 0 91 17l26 157h-105l8 58h181zM376 702l-86 -97h-75l120 146h91l74 -146 h-70z" />
<glyph horiz-adv-x="258" d="M51 0l85 536h76l-85 -536h-76zM60 751h66v-17q0 -77 62 -77q70 0 93 94h68q-12 -62 -39 -93q-48 -55 -121 -55q-60 0 -95.5 33.5t-35.5 90.5q0 14 2 24z" />
<glyph horiz-adv-x="258" d="M51 0l84 536h76l-84 -536h-76zM47 636l9 58h284l-9 -58h-284z" />
<glyph horiz-adv-x="314" d="M199 536h76l-60 -376q-9 -58 -19.5 -86.5t-30.5 -47.5q-39 -36 -112 -36q-58 0 -96 19l17 62q41 -23 75 -23q47 0 67 33q15 25 29 120zM254 702l-85 -97h-75l120 146h91l74 -146h-70z" />
<glyph horiz-adv-x="493" d="M51 0l85 536h76l-38 -239l247 239h94l-260 -250l184 -286h-91l-177 276l-44 -276h-76zM196 -34h90l-154 -147h-74z" />
<glyph horiz-adv-x="405" d="M51 0l85 536h76l-76 -478h233l-9 -58h-309zM172 -34h90l-154 -147h-74z" />
<glyph horiz-adv-x="602" d="M51 0l85 536h97l141 -331q25 -61 43 -118q14 112 18 137l49 312h72l-85 -536h-98l-141 332q-30 72 -42 117q-5 -55 -16 -128l-51 -321h-72zM237 -34h90l-154 -147h-74z" />
<glyph horiz-adv-x="602" d="M338 546q101 0 158 -60.5t57 -168.5q0 -124 -72 -221q-78 -106 -210 -106q-119 0 -174 79q-42 64 -42 156q0 120 70 215q79 106 213 106zM337 488q-93 0 -150 -87q-24 -35 -38.5 -87.5t-14.5 -100.5q0 -77 37 -121t101 -44q85 0 143.5 80t58.5 197q0 75 -37 119t-100 44z M213 636l9 58h285l-10 -58h-284z" />
<glyph horiz-adv-x="477" d="M51 0l85 536h119q97 0 138 -27q50 -33 50 -101q0 -118 -126 -149q25 -11 36.5 -30t24.5 -71l40 -158h-81l-33 137q-14 59 -36.5 78t-76.5 19h-27l-37 -234h-76zM174 292h32q61 0 96 14q61 27 61 96q0 42 -26.5 59t-91.5 17h-42zM183 -34h90l-154 -147h-74z" />
<glyph horiz-adv-x="569" d="M130 536h76l-52 -327q-7 -49 -7 -72q0 -89 103 -89q79 0 117 53q13 18 20.5 44t17.5 90l48 301h76l-49 -309q-14 -84 -25.5 -117.5t-36.5 -58.5q-60 -61 -171 -61q-84 0 -130 36.5t-46 102.5q0 37 12 115zM212 751h66v-17q0 -77 62 -77q70 0 93 94h68q-12 -62 -39 -93 q-48 -55 -121 -55q-60 0 -95.5 33.5t-35.5 90.5q0 14 2 24z" />
<glyph horiz-adv-x="569" d="M130 536h76l-52 -327q-7 -49 -7 -72q0 -89 103 -89q79 0 117 53q13 18 20.5 44t17.5 90l48 301h76l-49 -309q-14 -84 -25.5 -117.5t-36.5 -58.5q-60 -61 -171 -61q-84 0 -130 36.5t-46 102.5q0 37 12 115zM193 636l9 58h284l-9 -58h-284z" />
<glyph horiz-adv-x="569" d="M129 536h76l-51 -327q-7 -42 -7 -72q0 -89 103 -89q78 0 116 53q14 19 21 44.5t17 89.5l48 301h76l-49 -309q-15 -107 -40 -149.5t-89 -70.5q-73 -38 -106.5 -70.5t-33.5 -64.5q0 -17 12 -27t31 -10q15 0 50 8v-48q-38 -13 -67 -13q-43 0 -69.5 22t-26.5 57q0 78 121 129 h-17q-82 0 -127.5 36.5t-45.5 102.5q0 33 12 115z" />
<glyph horiz-adv-x="477" d="M51 0l85 536h119q97 0 138 -27q51 -33 51 -101q0 -118 -126 -149q25 -11 36 -30t24 -71l40 -158h-81l-33 137q-13 58 -36 77.5t-77 19.5h-27l-37 -234h-76zM174 292h32q61 0 96 14q62 26 62 96q0 42 -27 59t-92 17h-42zM288 654l85 97h75l-120 -146h-91l-74 146h70z" />
<glyph horiz-adv-x="442" d="M25 19l19 64q76 -35 133 -35q50 0 84 31.5t34 77.5q0 30 -24 51q-14 13 -69 40q-72 35 -98.5 65t-26.5 75q0 71 53 114.5t138 43.5q68 0 139 -29l-23 -62q-63 33 -118 33q-45 0 -76.5 -26.5t-31.5 -64.5q0 -27 19 -46.5t68 -41.5q75 -35 98 -60q32 -34 32 -83 q0 -78 -56.5 -127t-146.5 -49q-72 0 -147 29zM164 -34h90l-154 -147h-74z" />
<glyph horiz-adv-x="570" d="M489 280l-41 -262q-92 -28 -168 -28q-107 0 -167 58t-60 162q0 127 72 225q84 111 228 111q85 0 167 -36l-22 -59q-77 37 -142 37q-102 0 -163 -87q-60 -85 -60 -184q0 -79 41 -124t114 -45q46 0 91 17l26 157h-105l8 58h181zM384 594h-91l155 147h73z" />
<glyph horiz-adv-x="360" d="M129 0l73 458l-123 -66l-29 58l174 92h68l-86 -542h-77z" />
<glyph horiz-adv-x="422" d="M-29 0l9 55q187 144 260.5 223t73.5 136q0 35 -24 54.5t-66 19.5q-63 0 -148 -44l-10 62q89 40 171 40q73 0 115 -33t42 -92q0 -47 -28.5 -95t-93.5 -111q-84 -80 -188 -157h257l-9 -58h-361z" />
<glyph horiz-adv-x="440" d="M-18 19l26 58q72 -29 137 -29q67 0 106 32.5t39 88.5q0 88 -146 88q-23 0 -50 -3l9 57q18 -2 43 -2q79 0 127.5 30.5t48.5 80.5q0 68 -100 68q-57 0 -137 -27l-8 59q82 26 156 26q82 0 125.5 -31.5t43.5 -90.5q0 -101 -129 -140q97 -23 97 -116q0 -84 -58.5 -131 t-163.5 -47q-92 0 -166 29z" />
<glyph horiz-adv-x="449" d="M226 0l24 152h-253l10 60l294 324h86l-52 -326h87l-9 -58h-87l-24 -152h-76zM260 210l41 240l-216 -240h175z" />
<glyph horiz-adv-x="462" d="M13 31l35 56q67 -39 127 -39q68 0 109 41t41 108q0 92 -112 92q-60 0 -148 -32l54 279h316l-9 -58h-240l-28 -139q43 8 74 8q84 0 128.5 -38t44.5 -109q0 -104 -74 -164q-58 -46 -154 -46q-88 0 -164 41z" />
<glyph horiz-adv-x="477" d="M438 540l-13 -57q-25 6 -54 6q-76 0 -135 -49t-88 -137q53 38 120 38q76 0 117.5 -39t41.5 -110q0 -91 -57 -146.5t-151 -55.5q-87 0 -134.5 44t-47.5 125q0 80 31.5 162t82.5 136q88 90 214 90q39 0 73 -7zM250 283q-57 0 -95 -39t-38 -97q0 -46 27 -72.5t74 -26.5 q56 0 92.5 39t36.5 99q0 46 -25.5 71.5t-71.5 25.5z" />
<glyph horiz-adv-x="393" d="M94 0h-94l323 474h-276l9 62h364l-9 -58z" />
<glyph horiz-adv-x="475" d="M169 279q-48 26 -70 54.5t-22 67.5q0 68 52.5 106.5t143.5 38.5q80 0 127 -32.5t47 -87.5q0 -88 -126 -141q56 -28 77.5 -56.5t21.5 -74.5q0 -74 -59 -119t-156 -45q-84 0 -134 38.5t-50 102.5q0 110 148 148zM259 310l10 4q98 44 98 106q0 31 -25 49.5t-69 18.5 q-53 0 -84.5 -22t-31.5 -59q0 -28 23.5 -50.5t78.5 -46.5zM236 252q-70 -18 -102.5 -46t-32.5 -72q0 -39 28.5 -62.5t75.5 -23.5q56 0 95.5 30.5t39.5 73.5q0 31 -23.5 53.5t-80.5 46.5z" />
<glyph horiz-adv-x="477" d="M44 -3l13 57q25 -6 54 -6q76 0 135 49t88 137q-53 -38 -120 -38q-76 0 -117.5 39t-41.5 110q0 91 57 146.5t151 55.5q87 0 134.5 -44t47.5 -125q0 -80 -31.5 -162t-82.5 -136q-88 -90 -215 -90q-38 0 -72 7zM264 489q-56 0 -92.5 -39t-36.5 -99q0 -47 25.5 -72t71.5 -25 q57 0 95 39t38 97q0 46 -27 72.5t-74 26.5z" />
<glyph horiz-adv-x="502" d="M287 546q176 0 176 -187q0 -139 -49 -242q-58 -127 -194 -127q-89 0 -132 47.5t-43 146.5q0 59 14 126t37 115q57 121 191 121zM286 488q-80 0 -119 -92q-17 -42 -29.5 -105.5t-12.5 -112.5q0 -130 97 -130q38 0 70.5 26t50.5 72q40 100 40 216q0 126 -97 126z" />
<glyph horiz-adv-x="460" d="M-7 0l9 58h61q15 14 24 45t20 101l7 46h-73l8 53h73l9 56q10 60 22 89.5t36 52.5q49 45 140 45q74 0 144 -31l-26 -55q-60 28 -110 28q-68 0 -99 -46q-19 -27 -30 -97l-6 -42h138l-8 -53h-139l-10 -61q-16 -106 -32 -131h242l-9 -58h-391z" />
<glyph horiz-adv-x="460" d="M148 -98l14 89q-63 3 -127 28l19 64q76 -35 133 -35q50 0 84 31.5t34 77.5q0 30 -24 51q-14 13 -69 40q-72 35 -98.5 65t-26.5 75q0 64 44.5 107t118.5 50l14 89h50l-14 -89q60 -3 117 -28l-23 -62q-63 33 -118 33q-45 0 -76.5 -26.5t-31.5 -64.5q0 -27 19 -46.5 t68 -41.5q75 -35 98 -60q32 -34 32 -83q0 -71 -47 -118.5t-126 -55.5l-14 -90h-50z" />
<glyph horiz-adv-x="460" d="M205 39l15 98q-131 28 -131 166q0 98 53 162t142 74l15 95h50l-15 -94q56 -4 95 -21l-21 -55q-37 22 -89 22q-68 0 -109 -49.5t-41 -131.5q0 -117 112 -117q45 0 92 26l21 -53q-56 -29 -125 -28l-14 -94h-50z" />
<glyph horiz-adv-x="400" d="M149 250h-78v53h87l11 70q16 100 44.5 136.5t92.5 36.5q40 0 85 -13l-15 -55q-31 10 -54 10q-34 0 -51.5 -25.5t-27.5 -90.5l-10 -69h110v-53h-119l-28 -177q-15 -99 -36 -129q-30 -43 -102 -43q-38 0 -79 10l14 56q33 -8 50 -8q47 0 65 53q6 17 18 90z" />
<glyph horiz-adv-x="520" d="M0 199l27 48h61q1 14 7 46h-80l26 48h67q32 97 103.5 151t166.5 54q76 0 146 -35l-30 -55q-53 32 -115 32q-65 0 -115.5 -39.5t-71.5 -107.5h238l-27 -48h-228q-7 -23 -7 -46h209l-26 -48h-186q3 -73 38 -112t98 -39q66 0 139 35l19 -58q-80 -35 -158 -35q-98 0 -156 56 t-59 153h-86z" />
<glyph d="M173 0l23 147h-127l8 48h127l5 35l-2 7h-124l8 48h97l-122 251h85l81 -169l17 -35q3 -6 5.5 -12.5t4.5 -10.5l15 20q8 10 27 34l138 173h86l-202 -251h98l-8 -48h-124l-4 -7l-5 -35h126l-7 -48h-127l-23 -147h-76z" />
<glyph horiz-adv-x="679" d="M196 546q109 0 109 -113q0 -72 -29 -127q-34 -67 -118 -67q-56 0 -82.5 28t-26.5 87q0 69 29 125q34 67 118 67zM194 505q-43 0 -65 -54q-19 -45 -19 -101q0 -70 48 -70q45 0 64 63q16 46 16 96q0 66 -44 66zM155 -15l322 566h57l-321 -566h-58zM526 297q109 0 109 -113 q0 -72 -29 -127q-34 -67 -118 -67q-56 0 -82.5 28t-26.5 87q0 69 29 125q34 67 118 67zM524 256q-42 0 -65 -54q-19 -47 -19 -102q0 -69 48 -69q45 0 64 63q16 52 16 96q0 66 -44 66z" />
<glyph horiz-adv-x="973" d="M196 546q109 0 109 -113q0 -72 -29 -127q-34 -67 -118 -67q-56 0 -82.5 28t-26.5 87q0 69 29 125q34 67 118 67zM194 505q-43 0 -65 -54q-19 -45 -19 -101q0 -70 48 -70q45 0 64 63q16 46 16 96q0 66 -44 66zM155 -15l322 566h57l-321 -566h-58zM526 297q109 0 109 -113 q0 -72 -29 -127q-34 -67 -118 -67q-56 0 -82.5 28t-26.5 87q0 69 29 125q34 67 118 67zM524 256q-42 0 -65 -54q-19 -47 -19 -102q0 -69 48 -69q45 0 64 63q16 52 16 96q0 66 -44 66zM820 297q109 0 109 -113q0 -72 -29 -127q-34 -67 -118 -67q-56 0 -82.5 28t-26.5 87 q0 69 29 125q34 67 118 67zM818 256q-42 0 -65 -54q-19 -48 -19 -102q0 -69 48 -69q45 0 64 63q16 52 16 96q0 66 -44 66z" />
<glyph d="M220 -34h90l-154 -147h-74z" />
</font>
</defs>
</svg>
