<?xml version="1.0" standalone="no"?>
<!DOCTYPE svg PUBLIC "-//W3C//DTD SVG 1.1//EN" "http://www.w3.org/Graphics/SVG/1.1/DTD/svg11.dtd" >
<svg xmlns="http://www.w3.org/2000/svg">
<metadata></metadata>
<defs>
<font id="siemens_sansblack" horiz-adv-x="632" >
<font-face units-per-em="1000" ascent="800" descent="-200" />
<missing-glyph horiz-adv-x="250" />
<glyph unicode="fi" horiz-adv-x="691" d="M105 0v402h-81v110h81v33q0 104 42 151.5t135 47.5q53 0 113 -17l-12 -114q-35 13 -60 13q-67 0 -67 -106v-8h114v-110h-114v-402h-151zM463 0v512h151v-512h-151zM539 754q38 0 63 -25t25 -63t-25 -63t-63 -25q-39 0 -63.5 25t-24.5 64q0 37 25 62t63 25z" />
<glyph unicode="fl" horiz-adv-x="694" d="M105 0v402h-81v110h81v33q0 104 42 151.5t135 47.5q53 0 113 -17l-12 -114q-35 13 -60 13q-67 0 -67 -106v-8h114v-110h-114v-402h-151zM464 0v731h151v-731h-151z" />
<glyph unicode=" "  horiz-adv-x="250" />
<glyph unicode="&#x09;" horiz-adv-x="250" />
<glyph unicode="&#xa0;" horiz-adv-x="250" />
<glyph unicode="!" horiz-adv-x="363" d="M259 229h-133l-9 463h151zM193 173q40 0 66 -26.5t26 -66.5t-26 -66t-66 -26q-41 0 -67 26.5t-26 67.5q0 39 26.5 65t66.5 26z" />
<glyph unicode="&#x22;" horiz-adv-x="451" d="M51 448l-5 283h151l-5 -283h-141zM259 448l-5 283h151l-5 -283h-141z" />
<glyph unicode="#" d="M87 0l28 182h-88v110h105l15 102h-86v110h103l29 188h122l-29 -188h104l29 188h122l-29 -188h93v-110h-110l-15 -102h91v-110h-108l-28 -182h-122l28 182h-104l-28 -182h-122zM254 292h104l15 102h-104z" />
<glyph unicode="$" d="M38 32l24 130q96 -53 210 -53v180q-96 29 -137 51q-93 51 -93 158q0 66 31 113.5t88 70.5q42 17 119 21v86h68v-86q94 -4 199 -36l-29 -125q-77 32 -170 39v-166q115 -29 161 -56q79 -48 79 -157q0 -98 -60.5 -150t-187.5 -62v-89h-68v87q-135 1 -234 44zM280 432v147 q-81 -8 -81 -71q0 -31 17.5 -47t63.5 -29zM340 271v-160q47 4 69 23t22 57q0 33 -18.5 49.5t-72.5 30.5z" />
<glyph unicode="%" horiz-adv-x="908" d="M208 698q83 0 126.5 -50.5t43.5 -145.5t-44 -145.5t-127 -50.5t-126.5 50.5t-43.5 147.5q0 94 44 144t127 50zM208 615q-61 0 -61 -112q0 -114 61 -114q60 0 60 113t-60 113zM268 -16l275 724h96l-275 -724h-96zM700 386q83 0 126.5 -50.5t43.5 -145.5t-44 -145.5 t-127 -50.5t-126.5 50.5t-43.5 147.5q0 94 44 144t127 50zM700 303q-61 0 -61 -112q0 -114 61 -114q60 0 60 113t-60 113z" />
<glyph unicode="&#x26;" horiz-adv-x="720" d="M547 0l-51 52q-44 -35 -89.5 -49.5t-108.5 -14.5q-117 0 -186.5 58t-69.5 156q0 67 32.5 110.5t104.5 72.5q-43 46 -58.5 77t-15.5 71q0 79 59 125t161 46q108 0 166 -45.5t58 -128.5q0 -126 -152 -177l112 -116q43 57 45 153h136q-2 -148 -88 -250l136 -140h-191z M323 428l9 4q39 18 55.5 37.5t16.5 48.5q0 32 -20 51.5t-54 19.5q-32 0 -52 -18.5t-20 -48.5q0 -49 65 -94zM407 144l-145 153q-64 -34 -64 -95q0 -44 30.5 -71.5t78.5 -27.5q52 0 100 41z" />
<glyph unicode="'" horiz-adv-x="243" d="M51 448l-5 283h151l-5 -283h-141z" />
<glyph unicode="(" horiz-adv-x="448" d="M414 -69l-85 -91q-58 44 -89 74t-60 71q-101 141 -101 318q0 176 101 317q29 41 60 71t89 74l85 -91q-99 -81 -143 -168.5t-44 -202.5q0 -116 44 -203.5t143 -168.5z" />
<glyph unicode=")" horiz-adv-x="448" d="M34 674l85 91q56 -42 87 -72t62 -73q101 -143 101 -317q0 -175 -101 -318q-31 -43 -62 -73t-87 -72l-85 91q99 82 143 169.5t44 202.5t-44 202t-143 169z" />
<glyph unicode="*" d="M111 518l34 112l133 -62l-21 144h118l-20 -144l133 62l34 -112l-142 -23l98 -106l-98 -68l-64 130l-64 -130l-97 68l97 106z" />
<glyph unicode="+" d="M252 198h-192v116h192v198h128v-198h192v-116h-192v-198h-128v198z" />
<glyph unicode="," horiz-adv-x="316" d="M107 168h166l-112 -290h-141z" />
<glyph unicode="-" horiz-adv-x="397" d="M46 225v116h305v-116h-305z" />
<glyph unicode="." horiz-adv-x="316" d="M159 173q40 0 66 -26.5t26 -66.5t-26 -66t-66 -26q-41 0 -67 26.5t-26 67.5q0 39 26.5 65t66.5 26z" />
<glyph unicode="/" horiz-adv-x="410" d="M25 -27l213 728h142l-213 -728h-142z" />
<glyph unicode="0" d="M316 704q163 0 228 -127q42 -80 42 -231q0 -176 -59 -259q-70 -99 -211 -99q-162 0 -228 127q-42 81 -42 235q0 354 270 354zM316 582q-58 0 -86 -57t-28 -176q0 -124 27.5 -181.5t86.5 -57.5t86.5 57.5t27.5 178.5t-27.5 178.5t-86.5 57.5z" />
<glyph unicode="1" d="M276 0v530l-134 -84l-70 116l221 130h134v-692h-151z" />
<glyph unicode="2" d="M52 0v117q146 123 220 194q73 70 99 108t26 76q0 39 -32 63t-83 24q-73 0 -185 -47l-39 121q122 48 242 48q121 0 187 -52.5t66 -149.5q0 -82 -56 -157t-227 -223h289v-122h-507z" />
<glyph unicode="3" d="M41 27l34 121q84 -39 181 -39q67 0 103 24.5t36 71.5q0 56 -53 79q-37 17 -114 17q-30 0 -78 -2v114q20 -1 46 -1q101 0 146.5 21t45.5 67q0 40 -31 61t-89 21q-72 0 -172 -37l-33 120q111 39 228 39q124 0 188.5 -49t64.5 -142q0 -135 -143 -157q150 -22 150 -158 q0 -102 -75 -159q-69 -52 -204 -52q-128 0 -231 40z" />
<glyph unicode="4" d="M350 0v157h-332v122l300 413h183v-423h93v-112h-93v-157h-151zM354 269v277l-192 -277h192z" />
<glyph unicode="5" d="M46 28l39 122q90 -40 174 -40q80 0 116 39q30 32 30 79q0 109 -166 109q-58 0 -154 -18l14 373h438v-122h-291l-4 -120q28 3 58 3q129 0 195 -57t66 -169q0 -115 -70 -177q-69 -62 -209 -62q-133 0 -236 40z" />
<glyph unicode="6" d="M536 692l-15 -128q-61 18 -110 18q-83 0 -132.5 -48t-56.5 -135q65 61 152 61q99 0 154.5 -58.5t55.5 -164.5q0 -118 -69.5 -183.5t-193.5 -65.5q-131 0 -198.5 74.5t-67.5 220.5q0 108 30.5 197t85.5 141q86 83 238 83q59 0 127 -12zM326 341q-52 0 -83.5 -31.5 t-31.5 -83.5q0 -56 29.5 -88t81.5 -32q50 0 78.5 33t28.5 90q0 53 -27 82.5t-76 29.5z" />
<glyph unicode="7" d="M260 0h-168l304 570h-337v122h505v-115z" />
<glyph unicode="8" d="M173 363q-59 29 -85.5 64.5t-26.5 86.5q0 88 68.5 139t186.5 51q117 0 185.5 -51t68.5 -139q0 -52 -25.5 -86.5t-86.5 -64.5q67 -27 97 -66t30 -101q0 -98 -71 -153t-198 -55q-128 0 -199 55t-71 153q0 62 30 101t97 66zM316 416l8 2q41 10 67 36t26 58q0 36 -27 56 t-74 20t-74.5 -20t-27.5 -54q0 -71 102 -98zM310 305q-108 -30 -108 -111q0 -41 31 -65.5t83 -24.5q51 0 82 24.5t31 65.5q0 81 -119 111z" />
<glyph unicode="9" d="M96 0l15 128q61 -18 110 -18q83 0 132.5 48t56.5 135q-65 -61 -152 -61q-99 0 -154.5 58.5t-55.5 164.5q0 118 69.5 183.5t193.5 65.5q131 0 198.5 -74.5t67.5 -220.5q0 -108 -30.5 -197t-85.5 -141q-86 -83 -238 -83q-59 0 -127 12zM310 586q-50 0 -78.5 -33t-28.5 -90 q0 -53 27 -82.5t76 -29.5q52 0 83.5 31.5t31.5 83.5q0 56 -29.5 88t-81.5 32z" />
<glyph unicode=":" horiz-adv-x="316" d="M168 173q40 0 66 -26.5t26 -66.5t-26 -66t-66 -26q-41 0 -67 26.5t-26 67.5q0 39 26.5 65t66.5 26zM168 524q40 0 66 -26.5t26 -66.5t-26 -66t-66 -26q-41 0 -67 26.5t-26 67.5q0 39 26.5 65t66.5 26z" />
<glyph unicode=";" horiz-adv-x="316" d="M91 168h166l-112 -290h-141zM168 524q40 0 66 -26.5t26 -66.5t-26 -66t-66 -26q-41 0 -67 26.5t-26 67.5q0 39 26.5 65t66.5 26z" />
<glyph unicode="&#x3c;" d="M254 256l315 -134v-134l-512 218v100l512 218v-134z" />
<glyph unicode="=" d="M60 300v116h512v-116h-512zM60 96v116h512v-116h-512z" />
<glyph unicode="&#x3e;" d="M378 256l-315 134v134l512 -218v-100l-512 -218v134z" />
<glyph unicode="?" horiz-adv-x="487" d="M292 230h-144v43q0 64 12 86t70 63q54 38 70 56t16 43q0 31 -22.5 49.5t-60.5 18.5q-60 0 -151 -50l-43 109q111 56 217 56q104 0 162.5 -46.5t58.5 -129.5q0 -51 -25 -87.5t-89 -78.5q-49 -32 -60 -50t-11 -62v-20zM221 173q40 0 66 -26.5t26 -66.5t-26 -66t-66 -26 q-41 0 -67 26.5t-26 67.5q0 39 26.5 65t66.5 26z" />
<glyph unicode="@" horiz-adv-x="830" d="M616 104l9 -96q-83 -20 -183 -20q-197 0 -307 94.5t-110 263.5q0 162 111 260t295 98q170 0 272.5 -85t102.5 -225q0 -104 -58.5 -171.5t-147.5 -67.5q-82 0 -96 68q-43 -68 -132 -68q-74 0 -115.5 40.5t-41.5 112.5q0 99 68.5 161.5t176.5 62.5q91 0 156 -25l-31 -190 q-4 -25 -4 -43q0 -31 28 -31q38 0 65.5 46.5t27.5 110.5q0 103 -69 155q-78 59 -200 59q-136 0 -220 -75t-84 -196q0 -124 83 -193.5t229 -69.5q91 0 175 24zM473 357l15 88q-17 4 -29 4q-49 0 -86.5 -44t-37.5 -103q0 -28 15 -43.5t41 -15.5q38 0 59 32q13 21 23 82z" />
<glyph unicode="A" horiz-adv-x="712" d="M481 165h-261l-59 -165h-155l264 692h163l273 -692h-165zM440 282l-54 150q-19 54 -36 108q-11 -41 -35 -108l-54 -150h179z" />
<glyph unicode="B" horiz-adv-x="633" d="M82 0v692h249q74 0 112 -8.5t67 -30.5q31 -23 48.5 -62.5t17.5 -83.5q0 -117 -104 -153q115 -36 115 -158q0 -103 -71 -155q-55 -41 -168 -41h-266zM234 402h72q64 0 89 18q27 22 27 68q0 47 -30 72q-27 20 -94 20h-64v-178zM234 112h74q58 0 83 13q38 21 38 78 q0 53 -39 79q-27 17 -80 17h-76v-187z" />
<glyph unicode="C" horiz-adv-x="631" d="M572 163l45 -124q-61 -30 -107 -40.5t-113 -10.5q-169 0 -260 92q-91 94 -91 260q0 170 91.5 267t251.5 97q107 0 219 -49l-52 -118q-81 45 -158 45q-90 0 -140.5 -62.5t-50.5 -172.5q0 -112 53 -174.5t147 -62.5q43 0 78.5 11.5t86.5 41.5z" />
<glyph unicode="D" horiz-adv-x="712" d="M82 0v692h192q113 0 180 -18.5t116 -63.5q96 -88 96 -264q0 -211 -132 -294q-47 -29 -107.5 -40.5t-163.5 -11.5h-181zM238 122h30q107 0 158 35q38 25 58.5 75t20.5 116q0 56 -17 104t-47 74q-29 26 -65 35t-108 9h-30v-448z" />
<glyph unicode="E" horiz-adv-x="586" d="M82 0v692h438v-122h-282v-158h268v-122h-268v-168h297v-122h-453z" />
<glyph unicode="F" horiz-adv-x="568" d="M82 0v692h440v-122h-284v-158h270v-122h-270v-290h-156z" />
<glyph unicode="G" horiz-adv-x="734" d="M652 387v-353q-80 -28 -130 -37t-117 -9q-175 0 -265 91q-94 94 -94 259q0 201 129 298q87 68 235 68q129 0 242 -47l-53 -122q-94 47 -179 47q-103 0 -158 -61.5t-55 -176.5q0 -107 55 -170.5t149 -63.5q48 0 90 16v139h-119v122h270z" />
<glyph unicode="H" horiz-adv-x="729" d="M82 0v692h156v-278h253v278h156v-692h-156v292h-253v-292h-156z" />
<glyph unicode="I" horiz-adv-x="320" d="M82 0v692h156v-692h-156z" />
<glyph unicode="J" horiz-adv-x="423" d="M191 692h156v-408q0 -112 -8 -155.5t-36 -76.5q-52 -64 -170 -64q-75 0 -131 21l13 128q50 -23 88 -23q51 0 73 34q15 21 15 102v442z" />
<glyph unicode="K" horiz-adv-x="682" d="M82 0v692h156v-322l256 322h176l-261 -320l271 -372h-186l-256 361v-361h-156z" />
<glyph unicode="L" horiz-adv-x="531" d="M82 0v692h156v-570h297v-122h-453z" />
<glyph unicode="M" horiz-adv-x="945" d="M82 0v692h231l120 -374q24 -78 40 -140q25 95 40 140l121 374h229v-692h-150v560q-14 -58 -38 -132l-139 -428h-133l-135 417l-14 42l-12 39l-8 30q-1 8 -8 32v-560h-144z" />
<glyph unicode="N" horiz-adv-x="752" d="M82 0v692h172l184 -311q49 -85 85 -163q-3 40 -3 132v342h150v-692h-169l-173 290q-52 89 -99 185q3 -58 3 -165v-310h-150z" />
<glyph unicode="O" horiz-adv-x="759" d="M380 704q167 0 254 -109q79 -98 79 -249q0 -176 -104 -277q-84 -81 -230 -81q-167 0 -254 109q-79 98 -79 253q0 174 104 273q86 81 230 81zM379 582q-79 0 -125.5 -63t-46.5 -170q0 -111 46 -175t126 -64t126.5 63.5t46.5 172.5t-46.5 172.5t-126.5 63.5z" />
<glyph unicode="P" horiz-adv-x="586" d="M82 0v692h195q91 0 137.5 -9.5t80.5 -35.5q75 -56 75 -168q0 -109 -73 -168q-61 -47 -194 -47h-65v-264h-156zM234 381h45q66 0 93 14q42 20 42 79q0 57 -40 83q-31 18 -95 18h-45v-194z" />
<glyph unicode="Q" horiz-adv-x="759" d="M681 -73l-78 -111q-133 64 -247 173q-109 7 -177 56q-64 47 -98.5 125t-34.5 176q0 176 104 277q84 81 230 81q167 0 254 -109q79 -98 79 -249t-80 -251q-31 -39 -92 -73q38 -40 140 -95zM379 582q-79 0 -125.5 -63t-46.5 -170q0 -111 46 -175t126 -64t126.5 63.5 t46.5 172.5t-46.5 172.5t-126.5 63.5z" />
<glyph unicode="R" horiz-adv-x="636" d="M82 0v692h250q121 0 174 -39q68 -51 68 -147q0 -67 -33.5 -112.5t-95.5 -62.5q29 -12 44.5 -34t53.5 -103l87 -194h-166l-56 132q-38 91 -63.5 119t-70.5 28h-36v-279h-156zM234 396h54q130 0 130 92q0 46 -30 68q-29 19 -100 19h-54v-179z" />
<glyph unicode="S" horiz-adv-x="578" d="M46 27l22 133q119 -50 202 -50q47 0 74 22t27 60q0 30 -21.5 47t-105.5 51q-99 40 -136 67q-61 46 -61 131q0 110 79 170q61 46 163 46q101 0 221 -38l-32 -126q-68 25 -104 33.5t-75 8.5q-43 0 -67 -19.5t-24 -53.5q0 -28 20.5 -44t96.5 -47t101.5 -43.5t47.5 -29.5 q60 -47 60 -140q0 -106 -65.5 -161.5t-190.5 -55.5q-122 0 -232 39z" />
<glyph unicode="T" horiz-adv-x="571" d="M206 0v570h-200v122h559v-122h-203v-570h-156z" />
<glyph unicode="U" horiz-adv-x="721" d="M76 692h156v-402q0 -105 24 -137q32 -43 105 -43q41 0 72.5 16t45.5 42q15 32 15 122v402h151v-383q0 -110 -8.5 -156t-36.5 -81q-69 -84 -239 -84q-190 0 -253 103q-19 32 -25.5 75.5t-6.5 142.5v383z" />
<glyph unicode="V" horiz-adv-x="672" d="M258 0l-262 692h162l115 -311q44 -115 66 -195q30 96 64 189l119 317h154l-262 -692h-156z" />
<glyph unicode="W" horiz-adv-x="979" d="M194 0l-168 692h153l71 -308q15 -65 35 -166q17 70 42 156l93 318h150l84 -298q23 -80 44 -168q20 97 37 168l71 298h147l-175 -692h-151l-86 301q-23 76 -50 186q-25 -96 -52 -182l-93 -305h-152z" />
<glyph unicode="X" horiz-adv-x="734" d="M16 0l256 355l-243 337h181l161 -226l163 226h178l-251 -341l254 -351h-188l-164 231l-163 -231h-184z" />
<glyph unicode="Y" horiz-adv-x="661" d="M254 0v284l-264 408h181l114 -183q28 -46 51 -90q22 42 52 91l113 182h170l-261 -408v-284h-156z" />
<glyph unicode="Z" horiz-adv-x="596" d="M26 0v110l337 460h-325v122h520v-110l-337 -460h349v-122h-544z" />
<glyph unicode="[" horiz-adv-x="448" d="M118 -141v888h248v-117h-106v-653h106v-118h-248z" />
<glyph unicode="\" horiz-adv-x="410" d="M244 -27l-213 728h142l213 -728h-142z" />
<glyph unicode="]" horiz-adv-x="448" d="M329 747v-888h-247v118h105v653h-105v117h247z" />
<glyph unicode="^" d="M315 536l-124 -184h-167l236 340h112l236 -340h-167z" />
<glyph unicode="_" horiz-adv-x="500" d="M-50 -215v110h600v-110h-600z" />
<glyph unicode="`" horiz-adv-x="500" d="M239 731l120 -146h-140l-160 146h180z" />
<glyph unicode="a" horiz-adv-x="589" d="M369 0l-5 57q-38 -38 -74.5 -53.5t-88.5 -15.5q-79 0 -124 42t-45 116q0 98 76 142q50 28 158 28q42 0 91 -4v6q0 47 -29.5 73.5t-82.5 26.5q-61 0 -143 -41l-29 106q89 41 195 41q129 0 191 -65q29 -30 39 -67.5t10 -116.5v-142q3 -111 6 -133h-145zM357 148v80 q-25 2 -49 2q-120 0 -120 -80q0 -31 18.5 -49.5t48.5 -18.5q57 0 102 66z" />
<glyph unicode="b" horiz-adv-x="626" d="M216 0h-146q5 59 5 176v555h151v-279q60 72 149 72q98 0 154 -72t56 -199q0 -129 -61 -201q-54 -64 -146 -64q-102 0 -157 82zM226 335v-153q46 -82 110 -82q41 0 67 44t26 115q0 70 -27 111.5t-72 41.5q-55 0 -104 -77z" />
<glyph unicode="c" horiz-adv-x="499" d="M437 136l46 -107q-74 -41 -176 -41q-125 0 -195.5 71t-70.5 198q0 130 74 204q62 63 178 63q93 0 177 -37l-40 -108q-59 35 -114 35q-58 0 -88.5 -41.5t-30.5 -119.5q0 -74 33.5 -113.5t97.5 -39.5q56 0 109 36z" />
<glyph unicode="d" horiz-adv-x="626" d="M400 731h151v-555q0 -117 5 -176h-146l-5 70q-55 -82 -157 -82q-97 0 -152 70.5t-55 194.5q0 127 56 199t154 72q90 0 149 -72v279zM400 182v153q-49 77 -104 77q-45 0 -72 -41.5t-27 -111.5q0 -71 26 -115t67 -44q64 0 110 82z" />
<glyph unicode="e" horiz-adv-x="600" d="M561 206h-362q9 -110 134 -110q80 0 163 50l51 -107q-98 -51 -216 -51q-143 0 -216.5 67.5t-73.5 198.5q0 124 71 198q66 72 193 72q184 0 234 -136q22 -62 22 -182zM199 305h210q-2 54 -29 83.5t-73 29.5q-47 0 -76 -30t-32 -83z" />
<glyph unicode="f" horiz-adv-x="397" d="M105 0v402h-81v110h81v23q0 109 43 159t136 50q51 0 111 -17l-12 -114q-36 13 -60 13q-35 0 -51 -25t-16 -81v-8h114v-110h-114v-402h-151z" />
<glyph unicode="g" horiz-adv-x="633" d="M414 512h144q-6 -152 -6 -201v-249q0 -92 -9.5 -133.5t-37.5 -75.5q-65 -80 -236 -80q-111 0 -203 38l40 109q73 -37 148 -37q102 0 132 62q15 31 15 107v32q-59 -70 -148 -70q-98 0 -155 68t-57 186q0 117 57 186.5t154 69.5q102 0 158 -77zM401 211v111 q-14 41 -44 65.5t-66 24.5q-44 0 -69 -39t-25 -107q0 -65 25.5 -102.5t70.5 -37.5q32 0 60.5 22.5t47.5 62.5z" />
<glyph unicode="h" horiz-adv-x="640" d="M79 0v731h152v-279q71 72 166 72q104 0 145 -73q23 -41 23 -134v-317h-151v305q0 49 -9 71q-17 36 -61 36q-60 0 -113 -80v-332h-152z" />
<glyph unicode="i" horiz-adv-x="305" d="M77 0v512h151v-512h-151zM153 754q38 0 63 -25t25 -63t-25 -63t-63 -25q-39 0 -63.5 25t-24.5 64q0 37 25 62t63 25z" />
<glyph unicode="j" horiz-adv-x="322" d="M93 512h151v-509q0 -70 -8 -108t-29 -65q-43 -57 -141 -57q-49 0 -106 15l12 112q37 -11 57 -11q36 0 50 27.5t14 97.5v498zM169 754q38 0 63 -25t25 -63t-25 -63t-63 -25q-39 0 -63.5 25t-24.5 64q0 37 25 62t63 25z" />
<glyph unicode="k" horiz-adv-x="583" d="M79 0v731h151v-434l159 215h169l-176 -222l200 -290h-179l-173 261v-261h-151z" />
<glyph unicode="l" horiz-adv-x="309" d="M79 0v731h151v-731h-151z" />
<glyph unicode="m" horiz-adv-x="932" d="M80 0v322q0 50 -5 190h139l5 -72q38 45 77 64.5t90 19.5q106 0 143 -87q43 49 79.5 68t88.5 19q98 0 138 -73q22 -41 22 -134v-317h-151v305q0 48 -8 71q-14 36 -54 36q-53 0 -100 -80v-332h-151v320q0 92 -59 92q-55 0 -103 -80v-332h-151z" />
<glyph unicode="n" horiz-adv-x="640" d="M80 0v322q0 75 -5 190h139l5 -71q46 47 84.5 65t93.5 18q103 0 144 -73q24 -40 24 -134v-317h-151v305q0 49 -9 71q-17 36 -61 36q-60 0 -113 -80v-332h-151z" />
<glyph unicode="o" horiz-adv-x="609" d="M305 524q135 0 203 -81q60 -72 60 -187q0 -136 -80 -208q-63 -60 -184 -60q-135 0 -203 81q-60 72 -60 190q0 133 80 205q63 60 184 60zM305 414q-52 0 -80 -40.5t-28 -115.5q0 -78 27.5 -119t79.5 -41t80 40.5t28 117.5q0 76 -27.5 117t-79.5 41z" />
<glyph unicode="p" horiz-adv-x="626" d="M75 -215v523q0 140 -5 204h146l5 -65q37 42 71.5 59.5t82.5 17.5q98 0 154 -72.5t56 -198.5q0 -129 -61 -201q-55 -64 -146 -64q-99 0 -152 74v-277h-151zM226 335v-153q46 -82 110 -82q41 0 67 44t26 115q0 70 -27 111.5t-72 41.5q-55 0 -104 -77z" />
<glyph unicode="q" horiz-adv-x="626" d="M410 512h146q-5 -64 -5 -204v-523h-151v277q-54 -74 -152 -74q-97 0 -152 70.5t-55 194.5q0 126 56 198.5t154 72.5q48 0 82.5 -17.5t71.5 -59.5zM400 182v153q-49 77 -104 77q-45 0 -72 -41.5t-27 -111.5q0 -71 26 -115t67 -44q64 0 110 82z" />
<glyph unicode="r" horiz-adv-x="408" d="M80 0v340q0 87 -5 172h143l5 -98q37 105 129 105q24 0 51 -8l-7 -130q-26 6 -50 6q-91 0 -116 -110v-277h-150z" />
<glyph unicode="s" horiz-adv-x="484" d="M41 32l38 112q71 -48 146 -48q72 0 72 51q0 23 -20 35q-12 7 -83 31q-82 28 -110 52q-39 34 -39 96q0 77 54 120t152 43q82 0 184 -36l-37 -112q-79 41 -142 41q-31 0 -48.5 -12.5t-17.5 -33.5q0 -16 12.5 -25.5t51.5 -23.5q104 -34 140 -61q49 -37 49 -100 q0 -70 -49 -119q-56 -54 -167 -54q-107 0 -186 44z" />
<glyph unicode="t" horiz-adv-x="397" d="M106 402h-82v110h82v110l151 28v-138h113v-110h-113v-206q0 -49 15.5 -69t51.5 -20q18 0 54 10l13 -111q-63 -18 -124 -18q-94 0 -133 57q-28 40 -28 151v206z" />
<glyph unicode="u" horiz-adv-x="635" d="M555 512v-322q0 -61 5 -190h-139l-5 71q-45 -47 -83.5 -65t-91.5 -18q-102 0 -143 73q-23 42 -23 134v317h151v-305q0 -49 9 -71q16 -36 59 -36q58 0 110 80v332h151z" />
<glyph unicode="v" horiz-adv-x="579" d="M210 0l-202 512h156l89 -236q28 -72 43 -122q17 58 43 126l87 232h145l-200 -512h-161z" />
<glyph unicode="w" horiz-adv-x="863" d="M173 0l-153 512h148l54 -191q18 -64 37 -157q21 93 41 161l57 187h149l60 -189q23 -75 43 -159q22 95 40 157l56 191h138l-157 -512h-148l-59 185q-25 78 -51 177q-19 -80 -48 -176l-57 -186h-150z" />
<glyph unicode="x" horiz-adv-x="599" d="M11 0l207 260l-194 252h173l106 -154l116 154h169l-200 -248l203 -264h-172l-116 164l-124 -164h-168z" />
<glyph unicode="y" horiz-adv-x="577" d="M214 19l-210 493h160l91 -224q23 -54 44 -117q23 70 44 124l82 217h149l-206 -499q-37 -88 -55 -123t-41 -61q-51 -57 -142 -57q-65 0 -126 23l26 114q40 -17 69 -17q37 0 60.5 26t54.5 101z" />
<glyph unicode="z" horiz-adv-x="480" d="M26 0v95l230 307h-217v110h405v-99l-227 -303h235v-110h-426z" />
<glyph unicode="{" horiz-adv-x="448" d="M59 256v94q50 2 67 15q12 9 15.5 23.5t3.5 55.5v119q0 113 36 148q21 21 51 28.5t90 7.5h75v-105h-53q-34 0 -44.5 -15t-10.5 -64v-140q0 -45 -7.5 -65.5t-27.5 -33.5q-19 -11 -72 -21q60 -11 80 -26q16 -14 21.5 -33t5.5 -61v-140q0 -49 10.5 -64t44.5 -15h53v-105h-75 q-60 0 -90 7.5t-51 28.5q-36 35 -36 148v119q0 44 -5 59.5t-21 24.5q-13 7 -60 10z" />
<glyph unicode="|" horiz-adv-x="316" d="M86 -215v907h144v-907h-144z" />
<glyph unicode="}" horiz-adv-x="448" d="M389 350v-94q-50 -2 -67 -15q-12 -9 -15.5 -23.5t-3.5 -55.5v-119q0 -113 -36 -148q-21 -21 -51 -28.5t-90 -7.5h-75v105h53q34 0 44.5 15t10.5 64v140q0 45 7.5 65.5t27.5 33.5q19 11 72 21q-60 11 -80 26q-16 14 -21.5 33t-5.5 61v140q0 49 -10.5 64t-44.5 15h-53v105 h75q60 0 90 -7.5t51 -28.5q36 -35 36 -148v-119q0 -44 5 -59.5t21 -24.5q13 -7 60 -10z" />
<glyph unicode="~" d="M122 164l-83 46q42 76 80.5 110.5t81.5 34.5q28 0 51 -8t92 -42q64 -30 88 -30q23 0 40.5 15.5t40.5 55.5l79 -43q-22 -49 -50 -86q-43 -60 -106 -60q-31 0 -63.5 11.5t-104.5 46.5q-42 22 -65 22q-22 0 -39 -15.5t-42 -57.5z" />
<glyph unicode="&#xa1;" horiz-adv-x="363" d="M126 283h133l9 -463h-151zM192 524q41 0 67 -26.5t26 -67.5q0 -39 -26.5 -65t-66.5 -26t-66 26t-26 66t26 66.5t66 26.5z" />
<glyph unicode="&#xa2;" d="M324 75v88q-258 13 -258 260q0 164 112 234q48 29 146 34v93h70v-93q73 -6 131 -26l-29 -114q-51 22 -102 28v-303q51 2 109 34l22 -115q-57 -25 -131 -30v-90h-70zM324 278v301q-42 -7 -63 -29q-39 -41 -39 -124q0 -69 24.5 -104.5t77.5 -43.5z" />
<glyph unicode="&#xa3;" d="M44 0v119h86q16 37 16 141v44h-92v107h92v34q0 83 10.5 122.5t40.5 69.5q64 64 191 64q90 0 202 -42l-39 -120q-90 39 -147 39q-56 0 -80.5 -32.5t-24.5 -108.5v-26h159v-107h-159v-44q0 -92 -13 -141h294v-119h-536z" />
<glyph unicode="&#xa4;" d="M86 52l-76 76l69 70q-39 66 -39 151t39 151l-69 70l76 76l67 -67q71 49 163 49q94 0 164 -49l66 67l77 -76l-70 -70q40 -66 40 -151t-40 -151l70 -70l-77 -76l-66 67q-71 -49 -164 -49q-95 0 -163 49zM317 514q-70 0 -110 -44q-45 -46 -45 -119q0 -77 45 -123 q41 -44 110 -44q70 0 112 45t42 120t-42 120t-112 45z" />
<glyph unicode="&#xa5;" d="M240 0v179h-185v74h185v41l-14 22h-173v74h129l-182 302h177l142 -258l141 258h172l-182 -302h127v-74h-171l-14 -22v-41h183v-74h-183v-179h-152z" />
<glyph unicode="&#xa6;" horiz-adv-x="316" d="M86 406v286h144v-286h-144zM86 0v286h144v-286h-144z" />
<glyph unicode="&#xa7;" d="M84 -99l38 118q97 -41 171 -41q75 0 75 47q0 24 -23 38q-18 11 -98 41t-111 57q-44 38 -44 101q0 44 19.5 76.5t63.5 63.5q-39 30 -54 58t-15 70q0 82 56 128t156 46q106 0 202 -45l-38 -118q-88 41 -152 41q-63 0 -63 -46q0 -24 23 -39q17 -11 97 -41q82 -31 113 -57 q43 -37 43 -100q0 -45 -19.5 -77.5t-64.5 -63.5q40 -30 55 -58t15 -70q0 -88 -67 -136q-56 -38 -156 -38q-116 0 -222 45zM267 360q-38 -35 -38 -67q0 -26 38 -47q16 -9 80 -36q7 -4 21 -10q38 34 38 67q0 27 -38 47q-19 11 -80 36q-7 4 -21 10z" />
<glyph unicode="&#xa8;" horiz-adv-x="500" d="M139 750q36 0 59 -23t23 -59t-23 -59t-59 -23t-59 23t-23 60q0 35 23.5 58t58.5 23zM361 750q36 0 59 -23t23 -59t-23 -59t-59 -23t-59 23t-23 60q0 35 23.5 58t58.5 23z" />
<glyph unicode="&#xa9;" horiz-adv-x="800" d="M533 259l20 -80q-59 -27 -130 -27q-94 0 -147.5 50.5t-53.5 139.5q0 88 52 139t143 51q68 0 127 -22l-21 -77q-39 16 -83 16q-49 0 -76.5 -28t-27.5 -78t29 -78t81 -28q39 0 87 22zM400 702q154 0 255 -101t101 -255t-100.5 -255t-254.5 -101q-157 0 -257 101t-100 260 q0 150 102 250.5t254 100.5zM400 658q-131 0 -217.5 -87.5t-86.5 -220.5q0 -139 85.5 -227.5t219.5 -88.5q131 0 217 88.5t86 223.5q0 136 -86 224t-218 88z" />
<glyph unicode="&#xaa;" horiz-adv-x="412" d="M252 405l-4 30q-44 -36 -97 -36q-47 0 -73.5 23.5t-26.5 64.5q0 31 17.5 54.5t49.5 34.5q33 10 87 10q18 0 33 -1v5q0 43 -61 43q-40 0 -93 -16l-6 63q68 18 121 18q84 0 114 -37q13 -16 16 -32.5t3 -64.5v-73q0 -32 4 -86h-84zM238 486v49q-11 1 -21 1q-69 0 -69 -44 q0 -28 35 -28q33 0 55 22z" />
<glyph unicode="&#xab;" horiz-adv-x="619" d="M446 259l132 -166l-98 -76l-198 242l198 241l98 -75zM193 259l132 -166l-98 -76l-198 242l198 241l98 -75z" />
<glyph unicode="&#xac;" d="M419 57v209h-369v116h497v-325h-128z" />
<glyph unicode="&#xad;" horiz-adv-x="397" d="M46 225v116h305v-116h-305z" />
<glyph unicode="&#xae;" horiz-adv-x="600" d="M201 359v269h80q75 0 100 -12q37 -18 37 -65q0 -57 -63 -73q19 -6 27.5 -15t19.5 -34l27 -70h-74l-15 43q-11 31 -22 40.5t-35 9.5h-11v-93h-71zM272 500h11q37 0 47 8q13 10 13 34q0 20 -11.5 27.5t-40.5 7.5h-19v-77zM300 754q112 0 185.5 -73t73.5 -186 q0 -112 -73 -185.5t-185 -73.5q-114 0 -187 74t-73 189q0 109 74 182t185 73zM300 714q-91 0 -151 -61.5t-60 -154.5q0 -98 59 -160t153 -62q91 0 150.5 62t59.5 157t-59.5 157t-151.5 62z" />
<glyph unicode="&#xaf;" horiz-adv-x="500" d="M68 614v88h365v-88h-365z" />
<glyph unicode="&#xb0;" horiz-adv-x="426" d="M211 702q76 0 122.5 -44.5t46.5 -118.5q0 -73 -46.5 -118t-120.5 -45q-76 0 -121.5 45t-45.5 120q0 71 46 116t119 45zM213 634q-42 0 -67 -25.5t-25 -68.5q0 -45 24.5 -70.5t67.5 -25.5t67.5 25.5t24.5 69.5t-24.5 69.5t-67.5 25.5z" />
<glyph unicode="&#xb1;" d="M60 285v114h192v125h128v-125h192v-114h-192v-125h-128v125h-192zM60 0v114h512v-114h-512z" />
<glyph unicode="&#xb2;" horiz-adv-x="412" d="M61 312v82q47 28 111 80q73 59 73 99q0 42 -59 42q-38 0 -112 -30l-18 83q69 30 145 30q74 0 113.5 -29.5t39.5 -85.5q0 -34 -14 -60.5t-48 -58.5q-41 -37 -86 -70h151v-82h-296z" />
<glyph unicode="&#xb3;" horiz-adv-x="412" d="M50 328l17 83q62 -24 119 -24q62 0 62 41q0 43 -81 43q-18 0 -38 -1v69q17 -1 38 -1q79 0 79 41q0 38 -69 38q-42 0 -96 -17l-14 80q71 18 135 18q155 0 155 -105q0 -34 -17.5 -54t-56.5 -31q44 -11 62 -31t18 -57q0 -114 -166 -114q-78 0 -147 22z" />
<glyph unicode="&#xb4;" horiz-adv-x="500" d="M273 731h180l-161 -146h-139z" />
<glyph unicode="&#xb5;" d="M75 -215v727h151v-302q0 -61 11 -82q17 -32 56 -32q65 0 108 100v316h151v-330q0 -80 5 -182h-143l-4 71q-22 -46 -46 -64.5t-59 -18.5q-26 0 -43.5 8.5t-39.5 32.5v-244h-147z" />
<glyph unicode="&#xb6;" horiz-adv-x="726" d="M230 -118v399q-100 7 -151.5 59t-51.5 144q0 130 103 182q53 26 176 26h314v-810h-141v688h-108v-688h-141z" />
<glyph unicode="&#xb7;" horiz-adv-x="316" d="M158 381q40 0 66 -26.5t26 -66.5t-26 -66t-66 -26q-41 0 -67 26.5t-26 67.5q0 39 26.5 65t66.5 26z" />
<glyph unicode="&#xb8;" horiz-adv-x="500" d="M213 -32h166l-145 -153h-138z" />
<glyph unicode="&#xb9;" horiz-adv-x="412" d="M170 312v281l-82 -48l-39 73l135 74h91v-380h-105z" />
<glyph unicode="&#xba;" horiz-adv-x="412" d="M206 698q72 0 112 -39t40 -110t-40 -110.5t-112 -39.5t-112 39.5t-40 111.5q0 69 40.5 108.5t111.5 39.5zM206 625q-55 0 -55 -78q0 -75 55 -75t55 78q0 75 -55 75z" />
<glyph unicode="&#xbb;" horiz-adv-x="619" d="M173 258l-132 166l98 76l198 -242l-198 -241l-98 74zM426 258l-132 166l98 76l198 -242l-198 -241l-98 74z" />
<glyph unicode="&#xbc;" horiz-adv-x="908" d="M166 312v281l-82 -48l-39 73l135 74h91v-380h-105zM241 -16l275 724h96l-274 -724h-97zM693 0v78h-199v76l158 226h141v-229h53v-73h-53v-78h-100zM698 151v170l-117 -170h117z" />
<glyph unicode="&#xbd;" horiz-adv-x="908" d="M163 312v281l-82 -48l-39 73l135 74h91v-380h-105zM228 -16l275 724h96l-275 -724h-96zM536 0v82q47 28 111 80q73 59 73 99q0 42 -59 42q-38 0 -112 -30l-18 83q69 30 145 30q74 0 113.5 -29.5t39.5 -85.5q0 -34 -14 -60.5t-48 -58.5q-41 -37 -86 -70h151v-82h-296z" />
<glyph unicode="&#xbe;" horiz-adv-x="908" d="M50 328l17 83q62 -24 119 -24q62 0 62 41q0 43 -81 43q-18 0 -38 -1v69q17 -1 38 -1q79 0 79 41q0 38 -69 38q-42 0 -96 -17l-14 80q71 18 135 18q155 0 155 -105q0 -34 -17.5 -54t-56.5 -31q44 -11 62 -31t18 -57q0 -114 -166 -114q-78 0 -147 22zM268 -16l275 724h97 l-275 -724h-97zM693 0v78h-199v76l158 226h141v-229h53v-73h-53v-78h-100zM698 151v170l-117 -170h117z" />
<glyph unicode="&#xbf;" horiz-adv-x="487" d="M194 282h144v-43q0 -64 -12 -86t-70 -63q-54 -38 -70 -56t-16 -43q0 -31 22.5 -49.5t60.5 -18.5q60 0 151 50l43 -109q-111 -56 -217 -56q-104 0 -162.5 46.5t-58.5 129.5q0 51 25 87.5t89 78.5q49 32 60 50t11 62v20zM265 524q41 0 67 -26.5t26 -67.5q0 -39 -26.5 -65 t-66.5 -26t-66 26t-26 66t26 66.5t66 26.5z" />
<glyph unicode="&#xc0;" horiz-adv-x="712" d="M481 165h-261l-59 -165h-155l264 692h163l273 -692h-165zM440 282l-54 150q-19 54 -36 108q-11 -41 -35 -108l-54 -150h179zM345 905l120 -146h-140l-160 146h180z" />
<glyph unicode="&#xc1;" horiz-adv-x="712" d="M481 165h-261l-59 -165h-155l264 692h163l273 -692h-165zM440 282l-54 150q-19 54 -36 108q-11 -41 -35 -108l-54 -150h179zM379 905h180l-161 -146h-139z" />
<glyph unicode="&#xc2;" horiz-adv-x="712" d="M481 165h-261l-59 -165h-155l264 692h163l273 -692h-165zM440 282l-54 150q-19 54 -36 108q-11 -41 -35 -108l-54 -150h179zM356 845l-68 -86h-140l119 146h178l119 -146h-140z" />
<glyph unicode="&#xc3;" horiz-adv-x="712" d="M481 165h-261l-59 -165h-155l264 692h163l273 -692h-165zM440 282l-54 150q-19 54 -36 108q-11 -41 -35 -108l-54 -150h179zM239 763h-83q4 63 32.5 100.5t73.5 37.5q31 0 100 -22q56 -19 75 -19q18 0 26 8.5t11 31.5h82q-8 -139 -110 -139q-21 0 -37.5 4t-95.5 29 q-27 8 -39 8q-28 0 -35 -39z" />
<glyph unicode="&#xc4;" horiz-adv-x="712" d="M481 165h-261l-59 -165h-155l264 692h163l273 -692h-165zM440 282l-54 150q-19 54 -36 108q-11 -41 -35 -108l-54 -150h179zM245 920q37 0 61.5 -24t24.5 -62t-24.5 -62t-61.5 -24q-38 0 -62 24.5t-24 62.5q0 37 24.5 61t61.5 24zM467 920q37 0 61.5 -24t24.5 -62 t-24.5 -62t-61.5 -24q-38 0 -62 24.5t-24 62.5q0 37 24.5 61t61.5 24z" />
<glyph unicode="&#xc5;" horiz-adv-x="712" d="M6 0l265 693q-45 37 -45 99q0 56 36.5 92t93.5 36t93.5 -36t36.5 -92q0 -67 -52 -104l272 -688h-165l-60 165h-261l-59 -165h-155zM440 282l-54 150q-19 54 -36 108q-14 -51 -35 -108l-54 -150h179zM356 850q-25 0 -39 -15.5t-14 -42.5q0 -58 53 -58q25 0 39 15.5 t14 42.5t-14 42.5t-39 15.5z" />
<glyph unicode="&#xc6;" horiz-adv-x="947" d="M443 164h-226l-86 -164h-175l392 692h534v-122h-283v-158h269v-122h-269v-168h297v-122h-453v164zM443 281v303h-7l-158 -303h165z" />
<glyph unicode="&#xc7;" horiz-adv-x="631" d="M572 163l45 -124q-61 -30 -107 -40.5t-113 -10.5q-169 0 -260 92q-91 94 -91 260q0 170 91.5 267t251.5 97q107 0 219 -49l-52 -118q-81 45 -158 45q-90 0 -140.5 -62.5t-50.5 -172.5q0 -112 53 -174.5t147 -62.5q43 0 78.5 11.5t86.5 41.5zM292 -32h166l-145 -153h-138z " />
<glyph unicode="&#xc8;" horiz-adv-x="586" d="M82 0v692h438v-122h-282v-158h268v-122h-268v-168h297v-122h-453zM282 905l120 -146h-140l-160 146h180z" />
<glyph unicode="&#xc9;" horiz-adv-x="586" d="M82 0v692h438v-122h-282v-158h268v-122h-268v-168h297v-122h-453zM324 905h180l-161 -146h-139z" />
<glyph unicode="&#xca;" horiz-adv-x="586" d="M82 0v692h438v-122h-282v-158h268v-122h-268v-168h297v-122h-453zM301 845l-68 -86h-140l119 146h178l119 -146h-140z" />
<glyph unicode="&#xcb;" horiz-adv-x="586" d="M82 0v692h438v-122h-282v-158h268v-122h-268v-168h297v-122h-453zM188 920q38 0 62 -24t24 -62t-24 -62t-62 -24t-62 24.5t-24 62.5q0 37 24.5 61t61.5 24zM410 920q38 0 62 -24t24 -62t-24 -62t-62 -24t-62 24.5t-24 62.5q0 37 24.5 61t61.5 24z" />
<glyph unicode="&#xcc;" horiz-adv-x="320" d="M82 0v692h156v-692h-156zM149 905l120 -146h-140l-160 146h180z" />
<glyph unicode="&#xcd;" horiz-adv-x="320" d="M82 0v692h156v-692h-156zM183 905h180l-161 -146h-139z" />
<glyph unicode="&#xce;" horiz-adv-x="320" d="M82 0v692h156v-692h-156zM160 845l-68 -86h-140l119 146h178l119 -146h-140z" />
<glyph unicode="&#xcf;" horiz-adv-x="320" d="M82 0v692h156v-692h-156zM49 920q37 0 61.5 -24t24.5 -62t-24.5 -62t-61.5 -24q-38 0 -62 24.5t-24 62.5q0 37 24.5 61t61.5 24zM271 920q37 0 61.5 -24t24.5 -62t-24.5 -62t-61.5 -24q-38 0 -62 24.5t-24 62.5q0 37 24.5 61t61.5 24z" />
<glyph unicode="&#xd0;" horiz-adv-x="712" d="M82 309h-85v88h85v295h191q114 0 181 -18.5t116 -63.5q96 -88 96 -265q0 -210 -132 -293q-47 -29 -107.5 -40.5t-163.5 -11.5h-181v309zM238 309v-187h30q106 0 158 34q79 54 79 191q0 57 -17 105t-47 74q-29 26 -65 35t-108 9h-30v-173h130v-88h-130z" />
<glyph unicode="&#xd1;" horiz-adv-x="752" d="M82 0v692h172l184 -311q49 -85 85 -163q-3 40 -3 132v342h150v-692h-169l-173 290q-52 89 -99 185q3 -58 3 -165v-310h-150zM272 763h-83q4 63 32.5 100.5t73.5 37.5q31 0 100 -22q56 -19 75 -19q18 0 26 8.5t11 31.5h82q-8 -139 -110 -139q-21 0 -37.5 4t-95.5 29 q-27 8 -39 8q-27 0 -35 -39z" />
<glyph unicode="&#xd2;" horiz-adv-x="759" d="M380 704q167 0 254 -109q79 -98 79 -249q0 -176 -104 -277q-84 -81 -230 -81q-167 0 -254 109q-79 98 -79 253q0 174 104 273q86 81 230 81zM379 582q-79 0 -125.5 -63t-46.5 -170q0 -111 46 -175t126 -64t126.5 63.5t46.5 172.5t-46.5 172.5t-126.5 63.5zM369 905 l120 -146h-140l-160 146h180z" />
<glyph unicode="&#xd3;" horiz-adv-x="759" d="M380 704q167 0 254 -109q79 -98 79 -249q0 -176 -104 -277q-84 -81 -230 -81q-167 0 -254 109q-79 98 -79 253q0 174 104 273q86 81 230 81zM379 582q-79 0 -125.5 -63t-46.5 -170q0 -111 46 -175t126 -64t126.5 63.5t46.5 172.5t-46.5 172.5t-126.5 63.5zM403 905h180 l-161 -146h-139z" />
<glyph unicode="&#xd4;" horiz-adv-x="759" d="M380 704q167 0 254 -109q79 -98 79 -249q0 -176 -104 -277q-84 -81 -230 -81q-167 0 -254 109q-79 98 -79 253q0 174 104 273q86 81 230 81zM379 582q-79 0 -125.5 -63t-46.5 -170q0 -111 46 -175t126 -64t126.5 63.5t46.5 172.5t-46.5 172.5t-126.5 63.5zM379 845 l-68 -86h-140l119 146h178l119 -146h-140z" />
<glyph unicode="&#xd5;" horiz-adv-x="759" d="M380 704q167 0 254 -109q79 -98 79 -249q0 -176 -104 -277q-84 -81 -230 -81q-167 0 -254 109q-79 98 -79 253q0 174 104 273q86 81 230 81zM379 582q-79 0 -125.5 -63t-46.5 -170q0 -111 46 -175t126 -64t126.5 63.5t46.5 172.5t-46.5 172.5t-126.5 63.5zM262 763h-83 q4 63 32.5 100.5t73.5 37.5q31 0 100 -22q56 -19 75 -19q18 0 26 8.5t11 31.5h82q-8 -139 -110 -139q-21 0 -37.5 4t-95.5 29q-27 8 -39 8q-27 0 -35 -39z" />
<glyph unicode="&#xd6;" horiz-adv-x="759" d="M380 704q167 0 254 -109q79 -98 79 -249q0 -176 -104 -277q-84 -81 -230 -81q-167 0 -254 109q-79 98 -79 253q0 174 104 273q86 81 230 81zM379 582q-79 0 -125.5 -63t-46.5 -170q0 -111 46 -175t126 -64t126.5 63.5t46.5 172.5t-46.5 172.5t-126.5 63.5zM269 920 q37 0 61.5 -24t24.5 -62t-24.5 -62t-61.5 -24q-38 0 -62 24.5t-24 62.5q0 37 24.5 61t61.5 24zM491 920q37 0 61.5 -24t24.5 -62t-24.5 -62t-61.5 -24q-38 0 -62 24.5t-24 62.5q0 37 24.5 61t61.5 24z" />
<glyph unicode="&#xd7;" d="M229 252l-151 151l91 91l151 -152l147 147l82 -82l-147 -147l151 -151l-90 -91l-152 152l-147 -147l-82 82z" />
<glyph unicode="&#xd8;" horiz-adv-x="759" d="M44 31l71 79q-69 99 -69 236q0 176 104 277q84 81 232 81q124 0 205 -63l67 75l61 -55l-71 -79q69 -101 69 -236q0 -176 -104 -277q-85 -81 -232 -81q-124 0 -205 63l-67 -75zM224 233l268 301q-47 48 -113 48q-79 0 -125.5 -63.5t-46.5 -172.5q0 -59 17 -113zM535 459 l-268 -301q47 -48 112 -48q80 0 126.5 63.5t46.5 172.5q0 56 -17 113z" />
<glyph unicode="&#xd9;" horiz-adv-x="721" d="M76 692h156v-402q0 -105 24 -137q32 -43 105 -43q41 0 72.5 16t45.5 42q15 32 15 122v402h151v-383q0 -110 -8.5 -156t-36.5 -81q-69 -84 -239 -84q-190 0 -253 103q-19 32 -25.5 75.5t-6.5 142.5v383zM350 905l120 -146h-140l-160 146h180z" />
<glyph unicode="&#xda;" horiz-adv-x="721" d="M76 692h156v-402q0 -105 24 -137q32 -43 105 -43q41 0 72.5 16t45.5 42q15 32 15 122v402h151v-383q0 -110 -8.5 -156t-36.5 -81q-69 -84 -239 -84q-190 0 -253 103q-19 32 -25.5 75.5t-6.5 142.5v383zM404 905h180l-161 -146h-139z" />
<glyph unicode="&#xdb;" horiz-adv-x="721" d="M76 692h156v-402q0 -105 24 -137q32 -43 105 -43q41 0 72.5 16t45.5 42q15 32 15 122v402h151v-383q0 -110 -8.5 -156t-36.5 -81q-69 -84 -239 -84q-190 0 -253 103q-19 32 -25.5 75.5t-6.5 142.5v383zM360 845l-68 -86h-140l119 146h178l119 -146h-140z" />
<glyph unicode="&#xdc;" horiz-adv-x="721" d="M76 692h156v-402q0 -105 24 -137q32 -43 105 -43q41 0 72.5 16t45.5 42q15 32 15 122v402h151v-383q0 -110 -8.5 -156t-36.5 -81q-69 -84 -239 -84q-190 0 -253 103q-19 32 -25.5 75.5t-6.5 142.5v383zM250 920q38 0 62 -24t24 -62t-24 -62t-62 -24t-62 24.5t-24 62.5 q0 37 24.5 61t61.5 24zM472 920q38 0 62 -24t24 -62t-24 -62t-62 -24t-62 24.5t-24 62.5q0 37 24.5 61t61.5 24z" />
<glyph unicode="&#xdd;" horiz-adv-x="661" d="M254 0v284l-264 408h181l114 -183q28 -46 51 -90q22 42 52 91l113 182h170l-261 -408v-284h-156zM367 905h180l-161 -146h-139z" />
<glyph unicode="&#xde;" horiz-adv-x="586" d="M82 0v692h156v-134h39q91 0 137.5 -9.5t80.5 -35.5q75 -56 75 -167q0 -110 -73 -169q-60 -47 -194 -47h-65v-130h-156zM238 251h41q63 0 90 13q40 21 40 76q0 56 -39 79q-30 17 -91 17h-41v-185z" />
<glyph unicode="&#xdf;" horiz-adv-x="630" d="M76 0v468q0 80 8.5 124t29.5 73q57 79 196 79q122 0 181 -55q60 -54 60 -146q0 -99 -83 -146q63 -28 92 -73.5t29 -116.5q0 -102 -60.5 -160.5t-165.5 -58.5q-37 0 -88 8l14 114q21 -4 37 -4q50 0 78.5 28.5t28.5 78.5q0 54 -31 86.5t-83 32.5q-11 0 -18 -1v110 q49 0 71.5 23.5t22.5 75.5q0 94 -81 94q-64 0 -80 -63q-7 -31 -7 -94v-477h-151z" />
<glyph unicode="&#xe0;" horiz-adv-x="589" d="M369 0l-5 57q-38 -38 -74.5 -53.5t-88.5 -15.5q-79 0 -124 42t-45 116q0 98 76 142q50 28 158 28q42 0 91 -4v6q0 47 -29.5 73.5t-82.5 26.5q-61 0 -143 -41l-29 106q89 41 195 41q129 0 191 -65q29 -30 39 -67.5t10 -116.5v-142q3 -111 6 -133h-145zM357 148v80 q-25 2 -49 2q-120 0 -120 -80q0 -31 18.5 -49.5t48.5 -18.5q57 0 102 66zM283 731l120 -146h-140l-160 146h180z" />
<glyph unicode="&#xe1;" horiz-adv-x="589" d="M369 0l-5 57q-38 -38 -74.5 -53.5t-88.5 -15.5q-79 0 -124 42t-45 116q0 98 76 142q50 28 158 28q42 0 91 -4v6q0 47 -29.5 73.5t-82.5 26.5q-61 0 -143 -41l-29 106q89 41 195 41q129 0 191 -65q29 -30 39 -67.5t10 -116.5v-142q3 -111 6 -133h-145zM357 148v80 q-25 2 -49 2q-120 0 -120 -80q0 -31 18.5 -49.5t48.5 -18.5q57 0 102 66zM318 731h180l-161 -146h-139z" />
<glyph unicode="&#xe2;" horiz-adv-x="589" d="M369 0l-5 57q-38 -38 -74.5 -53.5t-88.5 -15.5q-79 0 -124 42t-45 116q0 98 76 142q50 28 158 28q42 0 91 -4v6q0 47 -29.5 73.5t-82.5 26.5q-61 0 -143 -41l-29 106q89 41 195 41q129 0 191 -65q29 -30 39 -67.5t10 -116.5v-142q3 -111 6 -133h-145zM357 148v80 q-25 2 -49 2q-120 0 -120 -80q0 -31 18.5 -49.5t48.5 -18.5q57 0 102 66zM286 671l-68 -86h-140l119 146h178l119 -146h-140z" />
<glyph unicode="&#xe3;" horiz-adv-x="589" d="M369 0l-5 57q-38 -38 -74.5 -53.5t-88.5 -15.5q-79 0 -124 42t-45 116q0 98 76 142q50 28 158 28q42 0 91 -4v6q0 47 -29.5 73.5t-82.5 26.5q-61 0 -143 -41l-29 106q89 41 195 41q129 0 191 -65q29 -30 39 -67.5t10 -116.5v-142q3 -111 6 -133h-145zM357 148v80 q-25 2 -49 2q-120 0 -120 -80q0 -31 18.5 -49.5t48.5 -18.5q57 0 102 66zM167 587h-83q4 63 32.5 100.5t73.5 37.5q31 0 100 -22q56 -19 75 -19q18 0 26 8.5t11 31.5h82q-8 -139 -110 -139q-21 0 -37.5 4t-95.5 29q-27 8 -39 8q-28 0 -35 -39z" />
<glyph unicode="&#xe4;" horiz-adv-x="589" d="M369 0l-5 57q-38 -38 -74.5 -53.5t-88.5 -15.5q-79 0 -124 42t-45 116q0 98 76 142q50 28 158 28q42 0 91 -4v6q0 47 -29.5 73.5t-82.5 26.5q-61 0 -143 -41l-29 106q89 41 195 41q129 0 191 -65q29 -30 39 -67.5t10 -116.5v-142q3 -111 6 -133h-145zM357 148v80 q-25 2 -49 2q-120 0 -120 -80q0 -31 18.5 -49.5t48.5 -18.5q57 0 102 66zM178 750q36 0 59 -23t23 -59t-23 -59t-59 -23t-59 23t-23 60q0 35 23.5 58t58.5 23zM400 750q36 0 59 -23t23 -59t-23 -59t-59 -23t-59 23t-23 60q0 35 23.5 58t58.5 23z" />
<glyph unicode="&#xe5;" horiz-adv-x="589" d="M369 0l-5 57q-38 -38 -74.5 -53.5t-88.5 -15.5q-79 0 -124 42t-45 116q0 98 76 142q50 28 158 28q42 0 91 -4v6q0 47 -29.5 73.5t-82.5 26.5q-61 0 -143 -41l-29 106q89 41 195 41q129 0 191 -65q29 -30 39 -67.5t10 -116.5v-142q3 -111 6 -133h-145zM357 148v80 q-25 2 -49 2q-120 0 -120 -80q0 -31 18.5 -49.5t48.5 -18.5q57 0 102 66zM294 791q50 0 82.5 -32t32.5 -81t-32.5 -81t-82.5 -32t-82.5 32t-32.5 83q0 47 33 79t82 32zM294 726q-20 0 -32 -13t-12 -35q0 -48 44 -48t44 48t-44 48z" />
<glyph unicode="&#xe6;" horiz-adv-x="900" d="M796 146l52 -107q-96 -51 -222 -51q-84 0 -131 19.5t-80 68.5q-35 -49 -80 -68.5t-119 -19.5q-92 0 -136 40q-48 43 -48 118q0 98 76 142q50 28 158 28q34 0 91 -4v6q0 46 -30.5 73t-82.5 27q-64 0 -142 -41l-29 106q91 41 195 41q120 0 184 -57q67 57 164 57 q85 0 143 -35.5t81 -100.5q21 -62 21 -182h-353q9 -110 130 -110q78 0 158 50zM357 178v50q-25 2 -49 2q-120 0 -120 -80q0 -30 18.5 -49t47.5 -19q43 0 73 27.5t30 68.5zM508 305h201q-2 54 -27.5 83.5t-70.5 29.5t-72.5 -30t-30.5 -83z" />
<glyph unicode="&#xe7;" horiz-adv-x="499" d="M437 136l46 -107q-74 -41 -176 -41q-125 0 -195.5 71t-70.5 198q0 130 74 204q62 63 178 63q93 0 177 -37l-40 -108q-59 35 -114 35q-58 0 -88.5 -41.5t-30.5 -119.5q0 -74 33.5 -113.5t97.5 -39.5q56 0 109 36zM213 -32h166l-145 -153h-138z" />
<glyph unicode="&#xe8;" horiz-adv-x="600" d="M561 206h-362q9 -110 134 -110q80 0 163 50l51 -107q-98 -51 -216 -51q-143 0 -216.5 67.5t-73.5 198.5q0 124 71 198q66 72 193 72q184 0 234 -136q22 -62 22 -182zM199 305h210q-2 54 -29 83.5t-73 29.5q-47 0 -76 -30t-32 -83zM289 731l120 -146h-140l-160 146h180z " />
<glyph unicode="&#xe9;" horiz-adv-x="600" d="M561 206h-362q9 -110 134 -110q80 0 163 50l51 -107q-98 -51 -216 -51q-143 0 -216.5 67.5t-73.5 198.5q0 124 71 198q66 72 193 72q184 0 234 -136q22 -62 22 -182zM199 305h210q-2 54 -29 83.5t-73 29.5q-47 0 -76 -30t-32 -83zM323 731h180l-161 -146h-139z" />
<glyph unicode="&#xea;" horiz-adv-x="600" d="M561 206h-362q9 -110 134 -110q80 0 163 50l51 -107q-98 -51 -216 -51q-143 0 -216.5 67.5t-73.5 198.5q0 124 71 198q66 72 193 72q184 0 234 -136q22 -62 22 -182zM199 305h210q-2 54 -29 83.5t-73 29.5q-47 0 -76 -30t-32 -83zM304 671l-68 -86h-140l119 146h178 l119 -146h-140z" />
<glyph unicode="&#xeb;" horiz-adv-x="600" d="M561 206h-362q9 -110 134 -110q80 0 163 50l51 -107q-98 -51 -216 -51q-143 0 -216.5 67.5t-73.5 198.5q0 124 71 198q66 72 193 72q184 0 234 -136q22 -62 22 -182zM199 305h210q-2 54 -29 83.5t-73 29.5q-47 0 -76 -30t-32 -83zM195 750q36 0 59 -23t23 -59t-23 -59 t-59 -23t-59 23t-23 60q0 35 23.5 58t58.5 23zM417 750q36 0 59 -23t23 -59t-23 -59t-59 -23t-59 23t-23 60q0 35 23.5 58t58.5 23z" />
<glyph unicode="&#xec;" horiz-adv-x="305" d="M77 0v512h151v-512h-151zM142 731l120 -146h-140l-160 146h180z" />
<glyph unicode="&#xed;" horiz-adv-x="305" d="M77 0v512h151v-512h-151zM176 731h180l-161 -146h-139z" />
<glyph unicode="&#xee;" horiz-adv-x="305" d="M77 0v512h151v-512h-151zM152 671l-68 -86h-140l119 146h178l119 -146h-140z" />
<glyph unicode="&#xef;" horiz-adv-x="305" d="M77 0v512h151v-512h-151zM41 750q36 0 59 -23t23 -59t-23 -59t-59 -23t-59 23t-23 60q0 35 23.5 58t58.5 23zM263 750q36 0 59 -23t23 -59t-23 -59t-59 -23t-59 23t-23 60q0 35 23.5 58t58.5 23z" />
<glyph unicode="&#xf0;" horiz-adv-x="591" d="M77 629l27 113q137 -12 237 -83l126 58l27 -58l-97 -44q153 -158 153 -367q0 -127 -66.5 -193.5t-192.5 -66.5q-117 0 -183.5 65.5t-66.5 180.5q0 107 57 170t155 63q44 0 88 -16q-33 59 -83 101l-146 -66l-24 59l106 48q-50 24 -117 36zM291 357q-45 0 -69.5 -32.5 t-24.5 -93.5q0 -62 25.5 -97.5t70.5 -35.5t73 36.5t28 94.5q0 60 -27.5 94t-75.5 34z" />
<glyph unicode="&#xf1;" horiz-adv-x="640" d="M80 0v322q0 75 -5 190h139l5 -71q46 47 84.5 65t93.5 18q103 0 144 -73q24 -40 24 -134v-317h-151v305q0 49 -9 71q-17 36 -61 36q-60 0 -113 -80v-332h-151zM216 587h-83q4 63 32.5 100.5t73.5 37.5q31 0 100 -22q56 -19 75 -19q18 0 26 8.5t11 31.5h82 q-8 -139 -110 -139q-21 0 -37.5 4t-95.5 29q-27 8 -39 8q-27 0 -35 -39z" />
<glyph unicode="&#xf2;" horiz-adv-x="609" d="M305 524q135 0 203 -81q60 -72 60 -187q0 -136 -80 -208q-63 -60 -184 -60q-135 0 -203 81q-60 72 -60 190q0 133 80 205q63 60 184 60zM305 414q-52 0 -80 -40.5t-28 -115.5q0 -78 27.5 -119t79.5 -41t80 40.5t28 117.5q0 76 -27.5 117t-79.5 41zM294 731l120 -146h-140 l-160 146h180z" />
<glyph unicode="&#xf3;" horiz-adv-x="609" d="M305 524q135 0 203 -81q60 -72 60 -187q0 -136 -80 -208q-63 -60 -184 -60q-135 0 -203 81q-60 72 -60 190q0 133 80 205q63 60 184 60zM305 414q-52 0 -80 -40.5t-28 -115.5q0 -78 27.5 -119t79.5 -41t80 40.5t28 117.5q0 76 -27.5 117t-79.5 41zM328 731h180l-161 -146 h-139z" />
<glyph unicode="&#xf4;" horiz-adv-x="609" d="M305 524q135 0 203 -81q60 -72 60 -187q0 -136 -80 -208q-63 -60 -184 -60q-135 0 -203 81q-60 72 -60 190q0 133 80 205q63 60 184 60zM305 414q-52 0 -80 -40.5t-28 -115.5q0 -78 27.5 -119t79.5 -41t80 40.5t28 117.5q0 76 -27.5 117t-79.5 41zM304 671l-68 -86h-140 l119 146h178l119 -146h-140z" />
<glyph unicode="&#xf5;" horiz-adv-x="609" d="M305 524q135 0 203 -81q60 -72 60 -187q0 -136 -80 -208q-63 -60 -184 -60q-135 0 -203 81q-60 72 -60 190q0 133 80 205q63 60 184 60zM305 414q-52 0 -80 -40.5t-28 -115.5q0 -78 27.5 -119t79.5 -41t80 40.5t28 117.5q0 76 -27.5 117t-79.5 41zM187 587h-83 q4 63 32.5 100.5t73.5 37.5q31 0 100 -22q56 -19 75 -19q18 0 26 8.5t11 31.5h82q-8 -139 -110 -139q-21 0 -37.5 4t-95.5 29q-27 8 -39 8q-28 0 -35 -39z" />
<glyph unicode="&#xf6;" horiz-adv-x="609" d="M305 524q135 0 203 -81q60 -72 60 -187q0 -136 -80 -208q-63 -60 -184 -60q-135 0 -203 81q-60 72 -60 190q0 133 80 205q63 60 184 60zM305 414q-52 0 -80 -40.5t-28 -115.5q0 -78 27.5 -119t79.5 -41t80 40.5t28 117.5q0 76 -27.5 117t-79.5 41zM194 750q36 0 59 -23 t23 -59t-23 -59t-59 -23t-59 23t-23 60q0 35 23.5 58t58.5 23zM416 750q36 0 59 -23t23 -59t-23 -59t-59 -23t-59 23t-23 60q0 35 23.5 58t58.5 23z" />
<glyph unicode="&#xf7;" d="M60 198v116h512v-116h-512zM316 524q36 0 59.5 -23.5t23.5 -59.5t-23.5 -59.5t-59.5 -23.5q-37 0 -60 23.5t-23 60.5q0 35 24 58.5t59 23.5zM316 153q35 0 58.5 -23.5t23.5 -59.5q0 -35 -23.5 -58.5t-58.5 -23.5q-37 0 -60 23.5t-23 60.5q0 35 23.5 58t59.5 23z" />
<glyph unicode="&#xf8;" horiz-adv-x="609" d="M17 29l65 65q-41 68 -41 161q0 128 68.5 198.5t192.5 70.5q105 0 168 -45l61 60l55 -56l-62 -61q44 -70 44 -168q0 -134 -80 -206q-63 -60 -184 -60q-105 0 -169 47l-63 -62zM195 205l183 182q-28 29 -74 29q-55 0 -84 -41.5t-29 -118.5q0 -26 4 -51zM413 312l-185 -184 q28 -32 77 -32q55 0 84 41.5t29 118.5q0 27 -5 56z" />
<glyph unicode="&#xf9;" horiz-adv-x="635" d="M555 512v-322q0 -61 5 -190h-139l-5 71q-45 -47 -83.5 -65t-91.5 -18q-102 0 -143 73q-23 42 -23 134v317h151v-305q0 -49 9 -71q16 -36 59 -36q58 0 110 80v332h151zM307 731l120 -146h-140l-160 146h180z" />
<glyph unicode="&#xfa;" horiz-adv-x="635" d="M555 512v-322q0 -61 5 -190h-139l-5 71q-45 -47 -83.5 -65t-91.5 -18q-102 0 -143 73q-23 42 -23 134v317h151v-305q0 -49 9 -71q16 -36 59 -36q58 0 110 80v332h151zM351 731h180l-161 -146h-139z" />
<glyph unicode="&#xfb;" horiz-adv-x="635" d="M555 512v-322q0 -61 5 -190h-139l-5 71q-45 -47 -83.5 -65t-91.5 -18q-102 0 -143 73q-23 42 -23 134v317h151v-305q0 -49 9 -71q16 -36 59 -36q58 0 110 80v332h151zM317 671l-68 -86h-140l119 146h178l119 -146h-140z" />
<glyph unicode="&#xfc;" horiz-adv-x="635" d="M555 512v-322q0 -61 5 -190h-139l-5 71q-45 -47 -83.5 -65t-91.5 -18q-102 0 -143 73q-23 42 -23 134v317h151v-305q0 -49 9 -71q16 -36 59 -36q58 0 110 80v332h151zM207 750q36 0 59 -23t23 -59t-23 -59t-59 -23t-59 23t-23 60q0 35 23.5 58t58.5 23zM429 750 q36 0 59 -23t23 -59t-23 -59t-59 -23t-59 23t-23 60q0 35 23.5 58t58.5 23z" />
<glyph unicode="&#xfd;" horiz-adv-x="577" d="M214 19l-210 493h160l91 -224q23 -54 44 -117q23 70 44 124l82 217h149l-206 -499q-37 -88 -55 -123t-41 -61q-51 -57 -142 -57q-65 0 -126 23l26 114q40 -17 69 -17q37 0 60.5 26t54.5 101zM326 731h180l-161 -146h-139z" />
<glyph unicode="&#xfe;" horiz-adv-x="626" d="M75 -215v946h151v-278q64 71 149 71q98 0 154 -72.5t56 -198.5q0 -129 -61 -201q-54 -64 -146 -64q-99 0 -152 76v-279h-151zM226 335v-153q47 -84 110 -84q41 0 67 44.5t26 115.5t-27 113.5t-72 42.5q-54 0 -104 -79z" />
<glyph unicode="&#xff;" horiz-adv-x="577" d="M214 19l-210 493h160l91 -224q23 -54 44 -117q23 70 44 124l82 217h149l-206 -499q-37 -88 -55 -123t-41 -61q-51 -57 -142 -57q-65 0 -126 23l26 114q40 -17 69 -17q37 0 60.5 26t54.5 101zM178 750q36 0 59 -23t23 -59t-23 -59t-59 -23t-59 23t-23 60q0 35 23.5 58 t58.5 23zM400 750q36 0 59 -23t23 -59t-23 -59t-59 -23t-59 23t-23 60q0 35 23.5 58t58.5 23z" />
<glyph unicode="&#x100;" horiz-adv-x="712" d="M481 165h-261l-59 -165h-155l264 692h163l273 -692h-165zM440 282l-54 150q-19 54 -36 108q-11 -41 -35 -108l-54 -150h179zM174 764v88h365v-88h-365z" />
<glyph unicode="&#x101;" horiz-adv-x="589" d="M369 0l-5 57q-38 -38 -74.5 -53.5t-88.5 -15.5q-79 0 -124 42t-45 116q0 98 76 142q50 28 158 28q42 0 91 -4v6q0 47 -29.5 73.5t-82.5 26.5q-61 0 -143 -41l-29 106q89 41 195 41q129 0 191 -65q29 -30 39 -67.5t10 -116.5v-142q3 -111 6 -133h-145zM357 148v80 q-25 2 -49 2q-120 0 -120 -80q0 -31 18.5 -49.5t48.5 -18.5q57 0 102 66zM102 614v88h365v-88h-365z" />
<glyph unicode="&#x102;" horiz-adv-x="712" d="M481 165h-261l-59 -165h-155l264 692h163l273 -692h-165zM440 282l-54 150q-19 54 -36 108q-11 -41 -35 -108l-54 -150h179zM177 913h82q3 -38 23.5 -52t74.5 -14q53 0 73.5 14t23.5 52h82q0 -72 -25 -105q-41 -56 -154 -56t-155 56q-25 33 -25 105z" />
<glyph unicode="&#x103;" horiz-adv-x="589" d="M369 0l-5 57q-38 -38 -74.5 -53.5t-88.5 -15.5q-79 0 -124 42t-45 116q0 98 76 142q50 28 158 28q42 0 91 -4v6q0 47 -29.5 73.5t-82.5 26.5q-61 0 -143 -41l-29 106q89 41 195 41q129 0 191 -65q29 -30 39 -67.5t10 -116.5v-142q3 -111 6 -133h-145zM357 148v80 q-25 2 -49 2q-120 0 -120 -80q0 -31 18.5 -49.5t48.5 -18.5q57 0 102 66zM105 731h82q3 -38 23.5 -52t74.5 -14q53 0 73.5 14t23.5 52h82q0 -72 -25 -105q-41 -56 -154 -56t-155 56q-25 33 -25 105z" />
<glyph unicode="&#x104;" horiz-adv-x="712" d="M6 0l264 692h163l273 -692q-61 -35 -82.5 -56t-21.5 -47q0 -49 68 -49q17 0 36 4l5 -67q-45 -6 -81 -6q-68 0 -107 26t-39 71q0 72 127 124h-70l-60 165h-261l-59 -165h-155zM440 282l-54 150q-19 54 -36 108q-13 -48 -35 -108l-54 -150h179z" />
<glyph unicode="&#x105;" horiz-adv-x="589" d="M508 275v-142q3 -111 6 -133q-64 -37 -84 -57t-20 -46q0 -23 17.5 -36t49.5 -13q17 0 37 4l5 -67q-45 -6 -81 -6q-68 0 -107 26t-39 71q0 72 126 124h-49l-5 57q-38 -38 -74.5 -53.5t-88.5 -15.5q-79 0 -124 42t-45 116q0 98 76 142q50 28 158 28q38 0 91 -4v6 q0 47 -29.5 73.5t-82.5 26.5q-61 0 -143 -41l-29 106q89 41 195 41q129 0 191 -65q29 -30 39 -67.5t10 -116.5zM357 148v80q-48 2 -49 2q-120 0 -120 -80q0 -31 18.5 -49.5t48.5 -18.5q57 0 102 66z" />
<glyph unicode="&#x106;" horiz-adv-x="631" d="M572 163l45 -124q-61 -30 -107 -40.5t-113 -10.5q-169 0 -260 92q-91 94 -91 260q0 170 91.5 267t251.5 97q107 0 219 -49l-52 -118q-81 45 -158 45q-90 0 -140.5 -62.5t-50.5 -172.5q0 -112 53 -174.5t147 -62.5q43 0 78.5 11.5t86.5 41.5zM406 905h180l-161 -146h-139z " />
<glyph unicode="&#x107;" horiz-adv-x="499" d="M437 136l46 -107q-74 -41 -176 -41q-125 0 -195.5 71t-70.5 198q0 130 74 204q62 63 178 63q93 0 177 -37l-40 -108q-59 35 -114 35q-58 0 -88.5 -41.5t-30.5 -119.5q0 -74 33.5 -113.5t97.5 -39.5q56 0 109 36zM320 731h180l-161 -146h-139z" />
<glyph unicode="&#x108;" horiz-adv-x="631" d="M572 163l45 -124q-61 -30 -107 -40.5t-113 -10.5q-169 0 -260 92q-91 94 -91 260q0 170 91.5 267t251.5 97q107 0 219 -49l-52 -118q-81 45 -158 45q-90 0 -140.5 -62.5t-50.5 -172.5q0 -112 53 -174.5t147 -62.5q43 0 78.5 11.5t86.5 41.5zM383 845l-68 -86h-140 l119 146h178l119 -146h-140z" />
<glyph unicode="&#x109;" horiz-adv-x="499" d="M437 136l46 -107q-74 -41 -176 -41q-125 0 -195.5 71t-70.5 198q0 130 74 204q62 63 178 63q93 0 177 -37l-40 -108q-59 35 -114 35q-58 0 -88.5 -41.5t-30.5 -119.5q0 -74 33.5 -113.5t97.5 -39.5q56 0 109 36zM290 671l-68 -86h-140l119 146h178l119 -146h-140z" />
<glyph unicode="&#x10a;" horiz-adv-x="631" d="M572 163l45 -124q-61 -30 -107 -40.5t-113 -10.5q-169 0 -260 92q-91 94 -91 260q0 170 91.5 267t251.5 97q107 0 219 -49l-52 -118q-81 45 -158 45q-90 0 -140.5 -62.5t-50.5 -172.5q0 -112 53 -174.5t147 -62.5q43 0 78.5 11.5t86.5 41.5zM389 920q37 0 61.5 -24 t24.5 -62t-24.5 -62t-61.5 -24q-38 0 -62 24.5t-24 62.5q0 37 24.5 61t61.5 24z" />
<glyph unicode="&#x10b;" horiz-adv-x="499" d="M437 136l46 -107q-74 -41 -176 -41q-125 0 -195.5 71t-70.5 198q0 130 74 204q62 63 178 63q93 0 177 -37l-40 -108q-59 35 -114 35q-58 0 -88.5 -41.5t-30.5 -119.5q0 -74 33.5 -113.5t97.5 -39.5q56 0 109 36zM293 750q37 0 61.5 -24t24.5 -62t-24.5 -62t-61.5 -24 q-38 0 -62 24.5t-24 62.5q0 37 24.5 61t61.5 24z" />
<glyph unicode="&#x10c;" horiz-adv-x="631" d="M572 163l45 -124q-61 -30 -107 -40.5t-113 -10.5q-169 0 -260 92q-91 94 -91 260q0 170 91.5 267t251.5 97q107 0 219 -49l-52 -118q-81 45 -158 45q-90 0 -140.5 -62.5t-50.5 -172.5q0 -112 53 -174.5t147 -62.5q43 0 78.5 11.5t86.5 41.5zM383 827l68 86h140l-119 -146 h-178l-119 146h140z" />
<glyph unicode="&#x10d;" horiz-adv-x="499" d="M437 136l46 -107q-74 -41 -176 -41q-125 0 -195.5 71t-70.5 198q0 130 74 204q62 63 178 63q93 0 177 -37l-40 -108q-59 35 -114 35q-58 0 -88.5 -41.5t-30.5 -119.5q0 -74 33.5 -113.5t97.5 -39.5q56 0 109 36zM283 645l68 86h140l-119 -146h-178l-119 146h140z" />
<glyph unicode="&#x10e;" horiz-adv-x="712" d="M82 0v692h192q113 0 180 -18.5t116 -63.5q96 -88 96 -264q0 -211 -132 -294q-47 -29 -107.5 -40.5t-163.5 -11.5h-181zM238 122h30q107 0 158 35q38 25 58.5 75t20.5 116q0 56 -17 104t-47 74q-29 26 -65 35t-108 9h-30v-448zM336 827l68 86h140l-119 -146h-178l-119 146 h140z" />
<glyph unicode="&#x10f;" horiz-adv-x="783" d="M400 731h151v-555q0 -117 5 -176h-146l-5 70q-55 -82 -157 -82q-97 0 -152 70.5t-55 194.5q0 127 56 199t154 72q90 0 149 -72v279zM400 182v153q-49 77 -104 77q-45 0 -72 -41.5t-27 -111.5q0 -71 26 -115t67 -44q64 0 110 82zM692 731h146l-112 -283h-121z" />
<glyph unicode="&#x110;" horiz-adv-x="712" d="M82 309h-85v88h85v295h191q114 0 181 -18.5t116 -63.5q96 -88 96 -265q0 -210 -132 -293q-47 -29 -107.5 -40.5t-163.5 -11.5h-181v309zM238 309v-187h30q106 0 158 34q79 54 79 191q0 57 -17 105t-47 74q-29 26 -65 35t-108 9h-30v-173h130v-88h-130z" />
<glyph unicode="&#x111;" horiz-adv-x="626" d="M551 663h85v-80h-85v-407q0 -117 5 -176h-146l-5 70q-55 -82 -157 -82q-97 0 -152 70.5t-55 194.5q0 127 56 199t154 72q90 0 149 -72v131h-145v80h145v68h151v-68zM400 182v153q-49 77 -104 77q-46 0 -72.5 -41t-26.5 -112t26 -115t67 -44q64 0 110 82z" />
<glyph unicode="&#x112;" horiz-adv-x="586" d="M82 0v692h438v-122h-282v-158h268v-122h-268v-168h297v-122h-453zM111 764v88h365v-88h-365z" />
<glyph unicode="&#x113;" horiz-adv-x="600" d="M561 206h-362q9 -110 134 -110q80 0 163 50l51 -107q-98 -51 -216 -51q-143 0 -216.5 67.5t-73.5 198.5q0 124 71 198q66 72 193 72q184 0 234 -136q22 -62 22 -182zM199 305h210q-2 54 -29 83.5t-73 29.5q-47 0 -76 -30t-32 -83zM118 614v88h365v-88h-365z" />
<glyph unicode="&#x114;" horiz-adv-x="586" d="M82 0v692h438v-122h-282v-158h268v-122h-268v-168h297v-122h-453zM127 913h82q3 -38 23.5 -52t74.5 -14q53 0 73.5 14t23.5 52h82q0 -72 -25 -105q-41 -56 -154 -56t-155 56q-25 33 -25 105z" />
<glyph unicode="&#x116;" horiz-adv-x="586" d="M82 0v692h438v-122h-282v-158h268v-122h-268v-168h297v-122h-453zM309 920q37 0 61.5 -24t24.5 -62t-24.5 -62t-61.5 -24q-38 0 -62 24.5t-24 62.5q0 37 24.5 61t61.5 24z" />
<glyph unicode="&#x117;" horiz-adv-x="600" d="M561 206h-362q9 -110 134 -110q80 0 163 50l51 -107q-98 -51 -216 -51q-143 0 -216.5 67.5t-73.5 198.5q0 124 71 198q66 72 193 72q184 0 234 -136q22 -62 22 -182zM199 305h210q-2 54 -29 83.5t-73 29.5q-47 0 -76 -30t-32 -83zM310 750q38 0 62 -24t24 -62t-24 -62 t-62 -24t-62 24.5t-24 62.5q0 37 24.5 61t61.5 24z" />
<glyph unicode="&#x118;" horiz-adv-x="586" d="M82 0v692h438v-122h-282v-158h268v-122h-268v-168h297v-122q-62 -35 -83 -56t-21 -47q0 -49 68 -49q16 0 36 4l5 -67q-45 -6 -81 -6q-68 0 -107 26t-39 71q0 72 127 124h-358z" />
<glyph unicode="&#x119;" horiz-adv-x="600" d="M496 146l51 -107q-72 -40 -157 -48q-50 -29 -69 -49.5t-19 -44.5q0 -23 17.5 -36t49.5 -13q17 0 37 4l5 -67q-45 -6 -81 -6q-68 0 -107 26t-39 71q0 65 103 114q-90 9 -141 42q-105 66 -105 222q0 124 71 198q66 72 193 72q184 0 234 -136q22 -62 22 -182h-362 q9 -110 134 -110q80 0 163 50zM199 305h210q-2 54 -29 83.5t-73 29.5q-47 0 -76 -30t-32 -83z" />
<glyph unicode="&#x11a;" horiz-adv-x="586" d="M82 0v692h438v-122h-282v-158h268v-122h-268v-168h297v-122h-453zM301 827l68 86h140l-119 -146h-178l-119 146h140z" />
<glyph unicode="&#x11b;" horiz-adv-x="600" d="M561 206h-362q9 -110 134 -110q80 0 163 50l51 -107q-98 -51 -216 -51q-143 0 -216.5 67.5t-73.5 198.5q0 124 71 198q66 72 193 72q184 0 234 -136q22 -62 22 -182zM199 305h210q-2 54 -29 83.5t-73 29.5q-47 0 -76 -30t-32 -83zM306 645l68 86h140l-119 -146h-178 l-119 146h140z" />
<glyph unicode="&#x11c;" horiz-adv-x="734" d="M652 387v-353q-80 -28 -130 -37t-117 -9q-175 0 -265 91q-94 94 -94 259q0 201 129 298q87 68 235 68q129 0 242 -47l-53 -122q-94 47 -179 47q-103 0 -158 -61.5t-55 -176.5q0 -107 55 -170.5t149 -63.5q48 0 90 16v139h-119v122h270zM397 845l-68 -86h-140l119 146h178 l119 -146h-140z" />
<glyph unicode="&#x11d;" horiz-adv-x="633" d="M414 512h144q-6 -152 -6 -201v-249q0 -92 -9.5 -133.5t-37.5 -75.5q-65 -80 -236 -80q-111 0 -203 38l40 109q73 -37 148 -37q102 0 132 62q15 31 15 107v32q-59 -70 -148 -70q-98 0 -155 68t-57 186q0 117 57 186.5t154 69.5q102 0 158 -77zM401 211v111 q-14 41 -44 65.5t-66 24.5q-44 0 -69 -39t-25 -107q0 -65 25.5 -102.5t70.5 -37.5q32 0 60.5 22.5t47.5 62.5zM316 671l-68 -86h-140l119 146h178l119 -146h-140z" />
<glyph unicode="&#x11e;" horiz-adv-x="734" d="M652 387v-353q-80 -28 -130 -37t-117 -9q-175 0 -265 91q-94 94 -94 259q0 201 129 298q87 68 235 68q129 0 242 -47l-53 -122q-94 47 -179 47q-103 0 -158 -61.5t-55 -176.5q0 -107 55 -170.5t149 -63.5q48 0 90 16v139h-119v122h270zM218 913h82q3 -38 23.5 -52 t74.5 -14q53 0 73.5 14t23.5 52h82q0 -72 -25 -105q-41 -56 -154 -56t-155 56q-25 33 -25 105z" />
<glyph unicode="&#x11f;" horiz-adv-x="633" d="M414 512h144q-6 -152 -6 -201v-249q0 -92 -9.5 -133.5t-37.5 -75.5q-65 -80 -236 -80q-111 0 -203 38l40 109q73 -37 148 -37q102 0 132 62q15 31 15 107v32q-59 -70 -148 -70q-98 0 -155 68t-57 186q0 117 57 186.5t154 69.5q102 0 158 -77zM401 211v111 q-14 41 -44 65.5t-66 24.5q-44 0 -69 -39t-25 -107q0 -65 25.5 -102.5t70.5 -37.5q32 0 60.5 22.5t47.5 62.5zM137 731h82q3 -38 23.5 -52t74.5 -14q53 0 73.5 14t23.5 52h82q0 -72 -25 -105q-41 -56 -154 -56t-155 56q-25 33 -25 105z" />
<glyph unicode="&#x120;" horiz-adv-x="734" d="M652 387v-353q-80 -28 -130 -37t-117 -9q-175 0 -265 91q-94 94 -94 259q0 201 129 298q87 68 235 68q129 0 242 -47l-53 -122q-94 47 -179 47q-103 0 -158 -61.5t-55 -176.5q0 -107 55 -170.5t149 -63.5q48 0 90 16v139h-119v122h270zM407 920q37 0 61.5 -24t24.5 -62 t-24.5 -62t-61.5 -24q-38 0 -62 24.5t-24 62.5q0 37 24.5 61t61.5 24z" />
<glyph unicode="&#x121;" horiz-adv-x="633" d="M414 512h144q-6 -152 -6 -201v-249q0 -92 -9.5 -133.5t-37.5 -75.5q-65 -80 -236 -80q-111 0 -203 38l40 109q73 -37 148 -37q102 0 132 62q15 31 15 107v32q-59 -70 -148 -70q-98 0 -155 68t-57 186q0 117 57 186.5t154 69.5q102 0 158 -77zM401 211v111 q-14 41 -44 65.5t-66 24.5q-44 0 -69 -39t-25 -107q0 -65 25.5 -102.5t70.5 -37.5q32 0 60.5 22.5t47.5 62.5zM317 750q37 0 61.5 -24t24.5 -62t-24.5 -62t-61.5 -24q-38 0 -62 24.5t-24 62.5q0 37 24.5 61t61.5 24z" />
<glyph unicode="&#x122;" horiz-adv-x="734" d="M652 387v-353q-80 -28 -130 -37t-117 -9q-175 0 -265 91q-94 94 -94 259q0 201 129 298q87 68 235 68q129 0 242 -47l-53 -122q-94 47 -179 47q-103 0 -158 -61.5t-55 -176.5q0 -107 55 -170.5t149 -63.5q48 0 90 16v139h-119v122h270zM344 -32h166l-145 -153h-138z" />
<glyph unicode="&#x123;" horiz-adv-x="633" d="M414 512h144q-6 -152 -6 -201v-249q0 -92 -9.5 -133.5t-37.5 -75.5q-65 -80 -236 -80q-111 0 -203 38l40 109q73 -37 148 -37q102 0 132 62q15 31 15 107v32q-59 -70 -148 -70q-98 0 -155 68t-57 186q0 117 57 186.5t154 69.5q102 0 158 -77zM401 211v111 q-14 41 -44 65.5t-66 24.5q-44 0 -69 -39t-25 -107q0 -65 25.5 -102.5t70.5 -37.5q32 0 60.5 22.5t47.5 62.5zM372 578h-165l145 153h138z" />
<glyph unicode="&#x124;" horiz-adv-x="729" d="M82 0v692h156v-278h253v278h156v-692h-156v292h-253v-292h-156zM364 845l-68 -86h-140l119 146h178l119 -146h-140z" />
<glyph unicode="&#x125;" horiz-adv-x="640" d="M79 0v731h152v-279q71 72 166 72q104 0 145 -73q23 -41 23 -134v-317h-151v305q0 49 -9 71q-17 36 -61 36q-60 0 -113 -80v-332h-152zM162 845l-68 -86h-140l119 146h178l119 -146h-139z" />
<glyph unicode="&#x126;" horiz-adv-x="729" d="M82 0v502h-60v80h60v110h156v-110h253v110h156v-110h60v-80h-60v-502h-156v292h-253v-292h-156zM238 414h253v88h-253v-88z" />
<glyph unicode="&#x127;" horiz-adv-x="640" d="M79 0v584h-72v88h72v59h152v-59h141v-88h-141v-132q69 72 166 72q104 0 145 -73q23 -41 23 -134v-317h-151v305q0 49 -9 71q-16 36 -61 36q-61 0 -113 -80v-332h-152z" />
<glyph unicode="&#x12a;" horiz-adv-x="320" d="M82 0v692h156v-692h-156zM-22 764v88h365v-88h-365z" />
<glyph unicode="&#x12b;" horiz-adv-x="305" d="M77 0v512h151v-512h-151zM-30 614v88h365v-88h-365z" />
<glyph unicode="&#x12d;" horiz-adv-x="305" d="M77 0v512h151v-512h-151zM-27 731h82q3 -38 23.5 -52t74.5 -14q53 0 73.5 14t23.5 52h82q0 -72 -25 -105q-41 -56 -154 -56t-155 56q-25 33 -25 105z" />
<glyph unicode="&#x12e;" horiz-adv-x="320" d="M82 0v692h156v-692q-62 -35 -83 -56t-21 -47q0 -49 68 -49q16 0 36 4l5 -67q-45 -6 -81 -6q-68 0 -107 26t-39 71q0 72 127 124h-61z" />
<glyph unicode="&#x12f;" horiz-adv-x="305" d="M77 0v512h151v-512q-61 -35 -82.5 -56t-21.5 -47q0 -23 17.5 -36t49.5 -13q17 0 37 4l5 -67q-45 -6 -81 -6q-68 0 -107 26t-39 71q0 37 30.5 66.5t96.5 57.5h-56zM153 754q38 0 63 -25t25 -63t-25 -63t-63 -25q-39 0 -63.5 25t-24.5 64q0 37 25 62t63 25z" />
<glyph unicode="&#x130;" horiz-adv-x="320" d="M82 0v692h156v-692h-156zM160 920q38 0 62 -24t24 -62t-24 -62t-62 -24t-62 24.5t-24 62.5q0 37 24.5 61t61.5 24z" />
<glyph unicode="&#x131;" horiz-adv-x="305" d="M77 0v512h151v-512h-151z" />
<glyph unicode="&#x134;" horiz-adv-x="423" d="M191 692h156v-408q0 -112 -8 -155.5t-36 -76.5q-52 -64 -170 -64q-75 0 -131 21l13 128q50 -23 88 -23q51 0 73 34q15 21 15 102v442zM258 845l-68 -86h-140l119 146h178l119 -146h-140z" />
<glyph unicode="&#x135;" horiz-adv-x="322" d="M93 512h151v-509q0 -70 -8 -108t-29 -65q-43 -57 -141 -57q-49 0 -106 15l12 112q37 -11 57 -11q36 0 50 27.5t14 97.5v498zM161 671l-68 -86h-140l119 146h178l119 -146h-140z" />
<glyph unicode="&#x136;" horiz-adv-x="682" d="M82 0v692h156v-322l256 322h176l-261 -320l271 -372h-186l-256 361v-361h-156zM297 -32h166l-145 -153h-138z" />
<glyph unicode="&#x137;" horiz-adv-x="583" d="M79 0v731h151v-434l159 215h169l-176 -222l200 -290h-179l-173 261v-261h-151zM243 -32h166l-145 -153h-138z" />
<glyph unicode="&#x139;" horiz-adv-x="531" d="M82 0v692h156v-570h297v-122h-453zM208 905h180l-161 -146h-139z" />
<glyph unicode="&#x13a;" horiz-adv-x="309" d="M79 0v731h151v-731h-151zM178 905h180l-161 -146h-139z" />
<glyph unicode="&#x13b;" horiz-adv-x="531" d="M82 0v692h156v-570h297v-122h-453zM242 -32h166l-145 -153h-138z" />
<glyph unicode="&#x13c;" horiz-adv-x="309" d="M79 0v731h151v-731h-151zM96 -32h166l-145 -153h-138z" />
<glyph unicode="&#x13d;" horiz-adv-x="531" d="M82 0v692h156v-570h297v-122h-453zM385 731h152l-112 -283h-127z" />
<glyph unicode="&#x13e;" horiz-adv-x="462" d="M79 0v731h151v-731h-151zM371 731h146l-112 -283h-121z" />
<glyph unicode="&#x141;" horiz-adv-x="545" d="M96 0v259l-85 -56v104l85 55v330h156v-227l120 78v-104l-120 -78v-239h297v-122h-453z" />
<glyph unicode="&#x142;" horiz-adv-x="334" d="M92 0v285l-83 -59v107l83 58v340h151v-233l82 58v-106l-82 -59v-391h-151z" />
<glyph unicode="&#x143;" horiz-adv-x="752" d="M82 0v692h172l184 -311q49 -85 85 -163q-3 40 -3 132v342h150v-692h-169l-173 290q-52 89 -99 185q3 -58 3 -165v-310h-150zM419 905h180l-161 -146h-139z" />
<glyph unicode="&#x144;" horiz-adv-x="640" d="M80 0v322q0 75 -5 190h139l5 -71q46 47 84.5 65t93.5 18q103 0 144 -73q24 -40 24 -134v-317h-151v305q0 49 -9 71q-17 36 -61 36q-60 0 -113 -80v-332h-151zM367 731h180l-161 -146h-139z" />
<glyph unicode="&#x145;" horiz-adv-x="752" d="M82 0v692h172l184 -311q49 -85 85 -163q-3 40 -3 132v342h150v-692h-169l-173 290q-52 89 -99 185q3 -58 3 -165v-310h-150zM326 -32h166l-145 -153h-138z" />
<glyph unicode="&#x146;" horiz-adv-x="640" d="M80 0v322q0 75 -5 190h139l5 -71q46 47 84.5 65t93.5 18q103 0 144 -73q24 -40 24 -134v-317h-151v305q0 49 -9 71q-17 36 -61 36q-60 0 -113 -80v-332h-151zM261 -32h166l-145 -153h-138z" />
<glyph unicode="&#x147;" horiz-adv-x="752" d="M82 0v692h172l184 -311q49 -85 85 -163q-3 40 -3 132v342h150v-692h-169l-173 290q-52 89 -99 185q3 -58 3 -165v-310h-150zM393 827l68 86h140l-119 -146h-178l-119 146h140z" />
<glyph unicode="&#x148;" horiz-adv-x="640" d="M80 0v322q0 75 -5 190h139l5 -71q46 47 84.5 65t93.5 18q103 0 144 -73q24 -40 24 -134v-317h-151v305q0 49 -9 71q-17 36 -61 36q-60 0 -113 -80v-332h-151zM340 645l68 86h140l-119 -146h-178l-119 146h140z" />
<glyph unicode="&#x14c;" horiz-adv-x="759" d="M380 704q167 0 254 -109q79 -98 79 -249q0 -176 -104 -277q-84 -81 -230 -81q-167 0 -254 109q-79 98 -79 253q0 174 104 273q86 81 230 81zM379 582q-79 0 -125.5 -63t-46.5 -170q0 -111 46 -175t126 -64t126.5 63.5t46.5 172.5t-46.5 172.5t-126.5 63.5zM197 764v88 h365v-88h-365z" />
<glyph unicode="&#x14d;" horiz-adv-x="609" d="M305 524q135 0 203 -81q60 -72 60 -187q0 -136 -80 -208q-63 -60 -184 -60q-135 0 -203 81q-60 72 -60 190q0 133 80 205q63 60 184 60zM305 414q-52 0 -80 -40.5t-28 -115.5q0 -78 27.5 -119t79.5 -41t80 40.5t28 117.5q0 76 -27.5 117t-79.5 41zM122 614v88h365v-88 h-365z" />
<glyph unicode="&#x150;" horiz-adv-x="759" d="M380 704q167 0 254 -109q79 -98 79 -249q0 -176 -104 -277q-84 -81 -230 -81q-167 0 -254 109q-79 98 -79 253q0 174 104 273q86 81 230 81zM379 582q-79 0 -125.5 -63t-46.5 -170q0 -111 46 -175t126 -64t126.5 63.5t46.5 172.5t-46.5 172.5t-126.5 63.5zM303 905h180 l-161 -146h-139zM537 905h180l-163 -146h-136z" />
<glyph unicode="&#x151;" horiz-adv-x="609" d="M305 524q135 0 203 -81q60 -72 60 -187q0 -136 -80 -208q-63 -60 -184 -60q-135 0 -203 81q-60 72 -60 190q0 133 80 205q63 60 184 60zM305 414q-52 0 -80 -40.5t-28 -115.5q0 -78 27.5 -119t79.5 -41t80 40.5t28 117.5q0 76 -27.5 117t-79.5 41zM228 731h180l-161 -146 h-139zM462 731h180l-163 -146h-136z" />
<glyph unicode="&#x152;" horiz-adv-x="988" d="M937 0h-481q-120 0 -177 15q-115 28 -174 112.5t-59 218.5q0 106 38 184.5t109 118.5q46 26 97.5 34.5t160.5 8.5h471v-122h-282v-158h268v-122h-268v-168h297v-122zM484 570h-28q-83 0 -122.5 -9t-67.5 -35q-59 -56 -59 -173q0 -132 77 -191q54 -40 172 -40h28v448z" />
<glyph unicode="&#x153;" horiz-adv-x="957" d="M853 146l51 -107q-95 -51 -217 -51q-77 0 -125 18t-87 61q-35 -43 -76 -61t-103 -18q-121 0 -188 70t-67 198q0 127 66 197.5t185 70.5q123 0 185 -77q67 77 187 77q89 0 149 -35t83 -101q22 -61 22 -182h-362q9 -110 134 -110q80 0 163 50zM298 414q-48 0 -74.5 -40.5 t-26.5 -115.5q0 -78 26 -119t75 -41t75.5 40.5t26.5 117.5t-26.5 117.5t-75.5 40.5zM556 305h210q-2 54 -29 83.5t-73 29.5q-47 0 -76 -30t-32 -83z" />
<glyph unicode="&#x154;" horiz-adv-x="636" d="M82 0v692h250q121 0 174 -39q68 -51 68 -147q0 -67 -33.5 -112.5t-95.5 -62.5q29 -12 44.5 -34t53.5 -103l87 -194h-166l-56 132q-38 91 -63.5 119t-70.5 28h-36v-279h-156zM234 396h54q130 0 130 92q0 46 -30 68q-29 19 -100 19h-54v-179zM341 905h180l-161 -146h-139z " />
<glyph unicode="&#x155;" horiz-adv-x="408" d="M80 0v340q0 87 -5 172h143l5 -98q37 105 129 105q24 0 51 -8l-7 -130q-26 6 -50 6q-91 0 -116 -110v-277h-150zM258 731h180l-161 -146h-139z" />
<glyph unicode="&#x156;" horiz-adv-x="636" d="M82 0v692h250q121 0 174 -39q68 -51 68 -147q0 -67 -33.5 -112.5t-95.5 -62.5q29 -12 44.5 -34t53.5 -103l87 -194h-166l-56 132q-38 91 -63.5 119t-70.5 28h-36v-279h-156zM234 396h54q130 0 130 92q0 46 -30 68q-29 19 -100 19h-54v-179zM285 -32h166l-145 -153h-138z " />
<glyph unicode="&#x157;" horiz-adv-x="408" d="M80 0v340q0 87 -5 172h143l5 -98q37 105 129 105q24 0 51 -8l-7 -130q-26 6 -50 6q-91 0 -116 -110v-277h-150zM78 -32h166l-145 -153h-138z" />
<glyph unicode="&#x158;" horiz-adv-x="636" d="M82 0v692h250q121 0 174 -39q68 -51 68 -147q0 -67 -33.5 -112.5t-95.5 -62.5q29 -12 44.5 -34t53.5 -103l87 -194h-166l-56 132q-38 91 -63.5 119t-70.5 28h-36v-279h-156zM234 396h54q130 0 130 92q0 46 -30 68q-29 19 -100 19h-54v-179zM318 827l68 86h140l-119 -146 h-178l-119 146h140z" />
<glyph unicode="&#x159;" horiz-adv-x="408" d="M80 0v340q0 87 -5 172h143l5 -98q37 105 129 105q24 0 51 -8l-7 -130q-26 6 -50 6q-91 0 -116 -110v-277h-150zM227 645l68 86h140l-119 -146h-178l-119 146h140z" />
<glyph unicode="&#x15a;" horiz-adv-x="578" d="M46 27l22 133q119 -50 202 -50q47 0 74 22t27 60q0 30 -21.5 47t-105.5 51q-99 40 -136 67q-61 46 -61 131q0 110 79 170q61 46 163 46q101 0 221 -38l-32 -126q-68 25 -104 33.5t-75 8.5q-43 0 -67 -19.5t-24 -53.5q0 -28 20.5 -44t96.5 -47t101.5 -43.5t47.5 -29.5 q60 -47 60 -140q0 -106 -65.5 -161.5t-190.5 -55.5q-122 0 -232 39zM336 905h180l-161 -146h-139z" />
<glyph unicode="&#x15b;" horiz-adv-x="484" d="M41 32l38 112q71 -48 146 -48q72 0 72 51q0 23 -20 35q-12 7 -83 31q-82 28 -110 52q-39 34 -39 96q0 77 54 120t152 43q82 0 184 -36l-37 -112q-79 41 -142 41q-31 0 -48.5 -12.5t-17.5 -33.5q0 -16 12.5 -25.5t51.5 -23.5q104 -34 140 -61q49 -37 49 -100 q0 -70 -49 -119q-56 -54 -167 -54q-107 0 -186 44zM270 731h180l-161 -146h-139z" />
<glyph unicode="&#x15c;" horiz-adv-x="578" d="M46 27l22 133q119 -50 202 -50q47 0 74 22t27 60q0 30 -21.5 47t-105.5 51q-99 40 -136 67q-61 46 -61 131q0 110 79 170q61 46 163 46q101 0 221 -38l-32 -126q-68 25 -104 33.5t-75 8.5q-43 0 -67 -19.5t-24 -53.5q0 -28 20.5 -44t96.5 -47t101.5 -43.5t47.5 -29.5 q60 -47 60 -140q0 -106 -65.5 -161.5t-190.5 -55.5q-122 0 -232 39zM302 845l-68 -86h-140l119 146h178l119 -146h-140z" />
<glyph unicode="&#x15d;" horiz-adv-x="484" d="M41 32l38 112q71 -48 146 -48q72 0 72 51q0 23 -20 35q-12 7 -83 31q-82 28 -110 52q-39 34 -39 96q0 77 54 120t152 43q82 0 184 -36l-37 -112q-79 41 -142 41q-31 0 -48.5 -12.5t-17.5 -33.5q0 -16 12.5 -25.5t51.5 -23.5q104 -34 140 -61q49 -37 49 -100 q0 -70 -49 -119q-56 -54 -167 -54q-107 0 -186 44zM255 671l-68 -86h-140l119 146h178l119 -146h-140z" />
<glyph unicode="&#x15e;" horiz-adv-x="578" d="M46 27l22 133q119 -50 202 -50q47 0 74 22t27 60q0 30 -21.5 47t-105.5 51q-99 40 -136 67q-61 46 -61 131q0 110 79 170q61 46 163 46q101 0 221 -38l-32 -126q-68 25 -104 33.5t-75 8.5q-43 0 -67 -19.5t-24 -53.5q0 -28 20.5 -44t96.5 -47t101.5 -43.5t47.5 -29.5 q60 -47 60 -140q0 -106 -65.5 -161.5t-190.5 -55.5q-122 0 -232 39zM218 -32h166l-145 -153h-138z" />
<glyph unicode="&#x15f;" horiz-adv-x="484" d="M41 32l38 112q71 -48 146 -48q72 0 72 51q0 23 -20 35q-12 7 -83 31q-82 28 -110 52q-39 34 -39 96q0 77 54 120t152 43q82 0 184 -36l-37 -112q-79 41 -142 41q-31 0 -48.5 -12.5t-17.5 -33.5q0 -16 12.5 -25.5t51.5 -23.5q104 -34 140 -61q49 -37 49 -100 q0 -70 -49 -119q-56 -54 -167 -54q-107 0 -186 44zM178 -32h166l-145 -153h-138z" />
<glyph unicode="&#x160;" horiz-adv-x="578" d="M46 27l22 133q119 -50 202 -50q47 0 74 22t27 60q0 30 -21.5 47t-105.5 51q-99 40 -136 67q-61 46 -61 131q0 110 79 170q61 46 163 46q101 0 221 -38l-32 -126q-68 25 -104 33.5t-75 8.5q-43 0 -67 -19.5t-24 -53.5q0 -28 20.5 -44t96.5 -47t101.5 -43.5t47.5 -29.5 q60 -47 60 -140q0 -106 -65.5 -161.5t-190.5 -55.5q-122 0 -232 39zM302 827l68 86h140l-119 -146h-178l-119 146h140z" />
<glyph unicode="&#x161;" horiz-adv-x="484" d="M41 32l38 112q71 -48 146 -48q72 0 72 51q0 23 -20 35q-12 7 -83 31q-82 28 -110 52q-39 34 -39 96q0 77 54 120t152 43q82 0 184 -36l-37 -112q-79 41 -142 41q-31 0 -48.5 -12.5t-17.5 -33.5q0 -16 12.5 -25.5t51.5 -23.5q104 -34 140 -61q49 -37 49 -100 q0 -70 -49 -119q-56 -54 -167 -54q-107 0 -186 44zM252 645l68 86h140l-119 -146h-178l-119 146h140z" />
<glyph unicode="&#x163;" horiz-adv-x="397" d="M106 402h-82v110h82v110l151 28v-138h113v-110h-113v-206q0 -49 15.5 -69t51.5 -20q18 0 54 10l13 -111q-63 -18 -124 -18q-94 0 -133 57q-28 40 -28 151v206zM167 -32h166l-145 -153h-138z" />
<glyph unicode="&#x164;" horiz-adv-x="571" d="M206 0v570h-200v122h559v-122h-203v-570h-156zM285 827l68 86h140l-119 -146h-178l-119 146h140z" />
<glyph unicode="&#x165;" horiz-adv-x="514" d="M106 402h-82v110h82v110l151 28v-138h113v-110h-113v-206q0 -49 15.5 -69t51.5 -20q18 0 54 10l13 -111q-63 -18 -124 -18q-94 0 -133 57q-28 40 -28 151v206zM446 850h146l-112 -283h-121z" />
<glyph unicode="&#x16a;" horiz-adv-x="721" d="M76 692h156v-402q0 -105 24 -137q32 -43 105 -43q41 0 72.5 16t45.5 42q15 32 15 122v402h151v-383q0 -110 -8.5 -156t-36.5 -81q-69 -84 -239 -84q-190 0 -253 103q-19 32 -25.5 75.5t-6.5 142.5v383zM178 764v88h365v-88h-365z" />
<glyph unicode="&#x16b;" horiz-adv-x="635" d="M555 512v-322q0 -61 5 -190h-139l-5 71q-45 -47 -83.5 -65t-91.5 -18q-102 0 -143 73q-23 42 -23 134v317h151v-305q0 -49 9 -71q16 -36 59 -36q58 0 110 80v332h151zM135 614v88h365v-88h-365z" />
<glyph unicode="&#x16d;" horiz-adv-x="635" d="M555 512v-322q0 -61 5 -190h-139l-5 71q-45 -47 -83.5 -65t-91.5 -18q-102 0 -143 73q-23 42 -23 134v317h151v-305q0 -49 9 -71q16 -36 59 -36q58 0 110 80v332h151zM138 731h82q3 -38 23.5 -52t74.5 -14q53 0 73.5 14t23.5 52h82q0 -72 -25 -105q-41 -56 -154 -56 t-155 56q-25 33 -25 105z" />
<glyph unicode="&#x16e;" horiz-adv-x="721" d="M76 692h156v-402q0 -105 24 -137q32 -43 105 -43q41 0 72.5 16t45.5 42q15 32 15 122v402h151v-383q0 -110 -8.5 -156t-36.5 -81q-69 -84 -239 -84q-190 0 -253 103q-19 32 -25.5 75.5t-6.5 142.5v383zM363 940q57 0 93.5 -35.5t36.5 -91.5t-36.5 -92t-93.5 -36t-93.5 36 t-36.5 93q0 54 37 90t93 36zM363 870q-25 0 -39 -15.5t-14 -42.5q0 -57 53 -57q25 0 39 15.5t14 41.5q0 27 -14 42.5t-39 15.5z" />
<glyph unicode="&#x16f;" horiz-adv-x="635" d="M555 512v-322q0 -61 5 -190h-139l-5 71q-45 -47 -83.5 -65t-91.5 -18q-102 0 -143 73q-23 42 -23 134v317h151v-305q0 -49 9 -71q16 -36 59 -36q58 0 110 80v332h151zM318 791q50 0 82.5 -32t32.5 -81t-32.5 -81t-82.5 -32t-82.5 32t-32.5 83q0 47 33 79t82 32zM318 726 q-20 0 -32 -13t-12 -35q0 -48 44 -48t44 48t-44 48z" />
<glyph unicode="&#x170;" horiz-adv-x="721" d="M76 692h156v-402q0 -105 24 -137q32 -43 105 -43q41 0 72.5 16t45.5 42q15 32 15 122v402h151v-383q0 -110 -8.5 -156t-36.5 -81q-69 -84 -239 -84q-190 0 -253 103q-19 32 -25.5 75.5t-6.5 142.5v383zM284 905h180l-161 -146h-139zM518 905h180l-163 -146h-136z" />
<glyph unicode="&#x171;" horiz-adv-x="635" d="M555 512v-322q0 -61 5 -190h-139l-5 71q-45 -47 -83.5 -65t-91.5 -18q-102 0 -143 73q-23 42 -23 134v317h151v-305q0 -49 9 -71q16 -36 59 -36q58 0 110 80v332h151zM241 731h180l-161 -146h-139zM475 731h180l-163 -146h-136z" />
<glyph unicode="&#x172;" horiz-adv-x="721" d="M645 692v-383q0 -110 -8.5 -156t-36.5 -81q-45 -56 -141 -76q-97 -51 -97 -99q0 -49 68 -49q16 0 36 4l5 -67q-45 -6 -81 -6q-68 0 -107 26t-39 71q0 33 23.5 59.5t76.5 52.5q-78 4 -125.5 19.5t-81.5 47.5q-37 36 -49 85t-12 169v383h156v-402q0 -105 24 -137 q32 -43 105 -43q41 0 72.5 16t45.5 42q15 32 15 122v402h151z" />
<glyph unicode="&#x173;" horiz-adv-x="635" d="M421 0l-5 71q-45 -47 -83.5 -65t-91.5 -18q-102 0 -143 73q-23 42 -23 134v317h151v-305q0 -49 9 -71q16 -36 59 -36q58 0 110 80v332h151v-322q0 -61 5 -190q-62 -35 -83 -56t-21 -47q0 -49 68 -49q16 0 36 4l5 -67q-45 -6 -81 -6q-68 0 -107 26t-39 71q0 72 127 124 h-44z" />
<glyph unicode="&#x174;" horiz-adv-x="979" d="M194 0l-168 692h153l71 -308q15 -65 35 -166q17 70 42 156l93 318h150l84 -298q23 -80 44 -168q20 97 37 168l71 298h147l-175 -692h-151l-86 301q-23 76 -50 186q-25 -96 -52 -182l-93 -305h-152zM489 845l-68 -86h-140l119 146h178l119 -146h-140z" />
<glyph unicode="&#x176;" horiz-adv-x="661" d="M254 0v284l-264 408h181l114 -183q28 -46 51 -90q22 42 52 91l113 182h170l-261 -408v-284h-156zM331 845l-68 -86h-140l119 146h178l119 -146h-140z" />
<glyph unicode="&#x177;" horiz-adv-x="577" d="M214 19l-210 493h160l91 -224q23 -54 44 -117q23 70 44 124l82 217h149l-206 -499q-37 -88 -55 -123t-41 -61q-51 -57 -142 -57q-65 0 -126 23l26 114q40 -17 69 -17q37 0 60.5 26t54.5 101zM289 671l-68 -86h-140l119 146h178l119 -146h-140z" />
<glyph unicode="&#x178;" horiz-adv-x="661" d="M254 0v284l-264 408h181l114 -183q28 -46 51 -90q22 42 52 91l113 182h170l-261 -408v-284h-156zM220 920q38 0 62 -24t24 -62t-24 -62t-62 -24t-62 24.5t-24 62.5q0 37 24.5 61t61.5 24zM442 920q38 0 62 -24t24 -62t-24 -62t-62 -24t-62 24.5t-24 62.5q0 37 24.5 61 t61.5 24z" />
<glyph unicode="&#x179;" horiz-adv-x="596" d="M26 0v110l337 460h-325v122h520v-110l-337 -460h349v-122h-544zM345 905h180l-161 -146h-139z" />
<glyph unicode="&#x17a;" horiz-adv-x="480" d="M26 0v95l230 307h-217v110h405v-99l-227 -303h235v-110h-426zM280 731h180l-161 -146h-139z" />
<glyph unicode="&#x17b;" horiz-adv-x="596" d="M26 0v110l337 460h-325v122h520v-110l-337 -460h349v-122h-544zM318 920q38 0 62 -24t24 -62t-24 -62t-62 -24t-62 24.5t-24 62.5q0 37 24.5 61t61.5 24z" />
<glyph unicode="&#x17c;" horiz-adv-x="480" d="M26 0v95l230 307h-217v110h405v-99l-227 -303h235v-110h-426zM260 750q38 0 62 -24t24 -62t-24 -62t-62 -24t-62 24.5t-24 62.5q0 37 24.5 61t61.5 24z" />
<glyph unicode="&#x17d;" horiz-adv-x="596" d="M26 0v110l337 460h-325v122h520v-110l-337 -460h349v-122h-544zM315 827l68 86h140l-119 -146h-178l-119 146h140z" />
<glyph unicode="&#x17e;" horiz-adv-x="480" d="M26 0v95l230 307h-217v110h405v-99l-227 -303h235v-110h-426zM250 645l68 86h140l-119 -146h-178l-119 146h140z" />
<glyph unicode="&#x192;" d="M208 300h-87v107h107l13 64q14 76 26.5 111.5t33.5 60.5q50 59 147 59q61 0 139 -27l-32 -109q-47 17 -78 17q-37 0 -54 -27t-33 -112l-7 -37h127v-107h-148l-31 -165q-19 -96 -33.5 -136.5t-39.5 -66.5q-49 -52 -141 -52q-72 0 -138 26l29 113q47 -20 81 -20q36 0 55 33 t37 127z" />
<glyph unicode="&#x1cd;" horiz-adv-x="712" d="M481 165h-261l-59 -165h-155l264 692h163l273 -692h-165zM440 282l-54 150q-19 54 -36 108q-11 -41 -35 -108l-54 -150h179zM356 827l68 86h140l-119 -146h-178l-119 146h140z" />
<glyph unicode="&#x1ce;" horiz-adv-x="589" d="M369 0l-5 57q-38 -38 -74.5 -53.5t-88.5 -15.5q-79 0 -124 42t-45 116q0 98 76 142q50 28 158 28q42 0 91 -4v6q0 47 -29.5 73.5t-82.5 26.5q-61 0 -143 -41l-29 106q89 41 195 41q129 0 191 -65q29 -30 39 -67.5t10 -116.5v-142q3 -111 6 -133h-145zM357 148v80 q-25 2 -49 2q-120 0 -120 -80q0 -31 18.5 -49.5t48.5 -18.5q57 0 102 66zM284 645l68 86h140l-119 -146h-178l-119 146h140z" />
<glyph unicode="&#x1d3;" horiz-adv-x="721" d="M76 692h156v-402q0 -105 24 -137q32 -43 105 -43q41 0 72.5 16t45.5 42q15 32 15 122v402h151v-383q0 -110 -8.5 -156t-36.5 -81q-69 -84 -239 -84q-190 0 -253 103q-19 32 -25.5 75.5t-6.5 142.5v383zM360 827l68 86h140l-119 -146h-178l-119 146h140z" />
<glyph unicode="&#x1e6;" horiz-adv-x="734" d="M652 387v-353q-80 -28 -130 -37t-117 -9q-175 0 -265 91q-94 94 -94 259q0 201 129 298q87 68 235 68q129 0 242 -47l-53 -122q-94 47 -179 47q-103 0 -158 -61.5t-55 -176.5q0 -107 55 -170.5t149 -63.5q48 0 90 16v139h-119v122h270zM401 827l68 86h140l-119 -146h-178 l-119 146h140z" />
<glyph unicode="&#x1e7;" horiz-adv-x="633" d="M414 512h144q-6 -152 -6 -201v-249q0 -92 -9.5 -133.5t-37.5 -75.5q-65 -80 -236 -80q-111 0 -203 38l40 109q73 -37 148 -37q102 0 132 62q15 31 15 107v32q-59 -70 -148 -70q-98 0 -155 68t-57 186q0 117 57 186.5t154 69.5q102 0 158 -77zM401 211v111 q-14 41 -44 65.5t-66 24.5q-44 0 -69 -39t-25 -107q0 -65 25.5 -102.5t70.5 -37.5q32 0 60.5 22.5t47.5 62.5zM316 645l68 86h140l-119 -146h-178l-119 146h140z" />
<glyph unicode="&#x1f4;" horiz-adv-x="734" d="M652 387v-353q-80 -28 -130 -37t-117 -9q-175 0 -265 91q-94 94 -94 259q0 201 129 298q87 68 235 68q129 0 242 -47l-53 -122q-94 47 -179 47q-103 0 -158 -61.5t-55 -176.5q0 -107 55 -170.5t149 -63.5q48 0 90 16v139h-119v122h270zM414 905h180l-161 -146h-139z" />
<glyph unicode="&#x219;" horiz-adv-x="484" d="M41 32l38 112q71 -48 146 -48q72 0 72 51q0 23 -20 35q-12 7 -83 31q-82 28 -110 52q-39 34 -39 96q0 77 54 120t152 43q82 0 184 -36l-37 -112q-79 41 -142 41q-31 0 -48.5 -12.5t-17.5 -33.5q0 -16 12.5 -25.5t51.5 -23.5q104 -34 140 -61q49 -37 49 -100 q0 -70 -49 -119q-56 -54 -167 -54q-107 0 -186 44zM183 -32h166l-145 -153h-138z" />
<glyph unicode="&#x21a;" horiz-adv-x="571" d="M206 0v570h-200v122h559v-122h-203v-570h-156zM212 -32h166l-145 -153h-138z" />
<glyph unicode="&#x2bc;" horiz-adv-x="272" d="M104 731h166l-112 -283h-141z" />
<glyph unicode="&#x2c6;" horiz-adv-x="500" d="M250 671l-68 -86h-140l119 146h178l119 -146h-140z" />
<glyph unicode="&#x2c7;" horiz-adv-x="500" d="M250 645l68 86h140l-119 -146h-178l-119 146h140z" />
<glyph unicode="&#x2c9;" horiz-adv-x="500" d="M68 614v88h365v-88h-365z" />
<glyph unicode="&#x2d8;" horiz-adv-x="500" d="M70 731h82q3 -38 23.5 -52t74.5 -14q53 0 73.5 14t23.5 52h82q0 -72 -25 -105q-41 -56 -154 -56t-155 56q-25 33 -25 105z" />
<glyph unicode="&#x2d9;" horiz-adv-x="500" d="M250 750q38 0 62 -24t24 -62t-24 -62t-62 -24t-62 24.5t-24 62.5q0 37 24.5 61t61.5 24z" />
<glyph unicode="&#x2da;" horiz-adv-x="500" d="M250 791q50 0 82.5 -32t32.5 -81t-32.5 -81t-82.5 -32t-82.5 32t-32.5 83q0 47 33 79t82 32zM250 726q-20 0 -32 -13t-12 -35q0 -48 44 -48t44 48t-44 48z" />
<glyph unicode="&#x2db;" horiz-adv-x="500" d="M326 -148l5 -67q-45 -6 -82 -6q-67 0 -106 26t-39 71q0 72 126 124h96q-61 -34 -82.5 -55.5t-21.5 -47.5q0 -23 17.5 -36t49.5 -13q17 0 37 4z" />
<glyph unicode="&#x2dc;" horiz-adv-x="500" d="M133 587h-83q4 63 32.5 100.5t73.5 37.5q31 0 100 -22q56 -19 75 -19q18 0 26 8.5t11 31.5h82q-8 -139 -110 -139q-21 0 -37.5 4t-95.5 29q-27 8 -39 8q-28 0 -35 -39z" />
<glyph unicode="&#x2dd;" horiz-adv-x="500" d="M173 731h180l-161 -146h-139zM407 731h180l-163 -146h-136z" />
<glyph unicode="&#x384;" horiz-adv-x="500" d="M235 741h180l-103 -164h-129z" />
<glyph unicode="&#x385;" horiz-adv-x="500" d="M95 736q30 0 49 -19t19 -49t-19 -49t-49 -19q-31 0 -49.5 19t-18.5 50q0 29 19 48t49 19zM405 736q30 0 49 -19t19 -49t-19 -49t-49 -19q-31 0 -49.5 19t-18.5 50q0 29 19 48t49 19zM200 576l-18 174h136l-18 -174h-100z" />
<glyph unicode="&#x386;" horiz-adv-x="712" d="M481 165h-261l-59 -165h-155l264 692h162l274 -692h-165zM440 282l-54 150q-19 51 -36 108q-15 -53 -36 -108l-54 -150h180zM4 731h180l-103 -214h-129z" />
<glyph unicode="&#x387;" horiz-adv-x="316" d="M158 381q40 0 66 -26.5t26 -66.5t-26 -66t-66 -26q-41 0 -67 26.5t-26 67.5q0 39 26.5 65t66.5 26z" />
<glyph unicode="&#x388;" horiz-adv-x="775" d="M40 731h180l-103 -214h-129zM270 0v692h438v-122h-282v-158h268v-122h-268v-168h297v-122h-453z" />
<glyph unicode="&#x389;" horiz-adv-x="918" d="M40 731h180l-103 -214h-129zM270 0v692h156v-278h253v278h156v-692h-156v292h-253v-292h-156z" />
<glyph unicode="&#x38a;" horiz-adv-x="525" d="M40 731h180l-103 -214h-129zM278 0v692h156v-692h-156z" />
<glyph unicode="&#x38c;" horiz-adv-x="908" d="M40 731h180l-103 -214h-129zM528 704q167 0 254 -109q79 -98 79 -249q0 -176 -104 -277q-84 -81 -230 -81q-167 0 -254 109q-79 98 -79 253q0 174 104 273q86 81 230 81zM527 582q-79 0 -125.5 -63t-46.5 -170q0 -111 46 -175t126 -64t126.5 63.5t46.5 172.5t-46.5 172.5 t-126.5 63.5z" />
<glyph unicode="&#x38e;" horiz-adv-x="912" d="M40 731h180l-103 -214h-129zM504 0v284l-264 408h181l114 -183q28 -46 51 -90q22 42 52 91l113 182h170l-261 -408v-284h-156z" />
<glyph unicode="&#x38f;" horiz-adv-x="951" d="M40 731h180l-103 -214h-129zM201 0v114h192v22q-69 24 -111 63q-87 81 -87 201q0 148 113 235q90 69 242 69q174 0 269 -93q85 -85 85 -211q0 -138 -109 -220q-36 -26 -89 -44v-22h192v-114h-299v208q69 23 97 54q48 53 48 135q0 87 -51.5 136t-142.5 49 q-92 0 -143.5 -49t-51.5 -136q0 -97 64 -149q24 -22 81 -40v-208h-299z" />
<glyph unicode="&#x390;" horiz-adv-x="358" d="M85 512h151v-325q0 -49 14 -69t47 -20q17 0 46 7l13 -102q-58 -15 -113 -15q-100 0 -136 66q-22 40 -22 142v316zM6 736q30 0 49 -19t19 -49t-19 -49t-49 -19q-31 0 -49.5 19t-18.5 50q0 29 19 48t49 19zM316 736q30 0 49 -19t19 -49t-19 -49t-49 -19q-31 0 -49.5 19 t-18.5 50q0 29 19 48t49 19zM111 576l-18 174h136l-18 -174h-100z" />
<glyph unicode="&#x391;" horiz-adv-x="712" d="M481 165h-261l-59 -165h-155l264 692h163l273 -692h-165zM440 282l-54 150q-19 54 -36 108q-11 -41 -35 -108l-54 -150h179z" />
<glyph unicode="&#x392;" horiz-adv-x="633" d="M82 0v692h249q74 0 112 -8.5t67 -30.5q31 -23 48.5 -62.5t17.5 -83.5q0 -117 -104 -153q115 -36 115 -158q0 -103 -71 -155q-55 -41 -168 -41h-266zM234 402h72q64 0 89 18q27 22 27 68q0 47 -30 72q-27 20 -94 20h-64v-178zM234 112h74q58 0 83 13q38 21 38 78 q0 53 -39 79q-27 17 -80 17h-76v-187z" />
<glyph unicode="&#x393;" horiz-adv-x="527" d="M82 0v692h423v-122h-267v-570h-156z" />
<glyph unicode="&#x394;" horiz-adv-x="703" d="M20 0v110l232 582h179l252 -582v-110h-663zM177 117h340l-120 315q-30 73 -51 139q-18 -61 -49 -139z" />
<glyph unicode="&#x395;" horiz-adv-x="586" d="M82 0v692h438v-122h-282v-158h268v-122h-268v-168h297v-122h-453z" />
<glyph unicode="&#x396;" horiz-adv-x="596" d="M26 0v110l337 460h-325v122h520v-110l-337 -460h349v-122h-544z" />
<glyph unicode="&#x397;" horiz-adv-x="729" d="M82 0v692h156v-278h253v278h156v-692h-156v292h-253v-292h-156z" />
<glyph unicode="&#x398;" horiz-adv-x="759" d="M258 292v118h243v-118h-243zM380 704q167 0 254 -109q79 -98 79 -249q0 -176 -104 -277q-84 -81 -230 -81q-167 0 -254 109q-79 98 -79 253q0 174 104 273q86 81 230 81zM379 582q-79 0 -125.5 -63t-46.5 -170q0 -111 46 -175t126 -64t126.5 63.5t46.5 172.5t-46.5 172.5 t-126.5 63.5z" />
<glyph unicode="&#x399;" horiz-adv-x="336" d="M90 0v692h156v-692h-156z" />
<glyph unicode="&#x39a;" horiz-adv-x="682" d="M82 0v692h156v-322l256 322h176l-261 -320l271 -372h-186l-256 361v-361h-156z" />
<glyph unicode="&#x39b;" horiz-adv-x="694" d="M6 0l255 692h163l264 -692h-165l-148 432q-14 40 -34 108q-4 -16 -6.5 -25t-4 -14.5t-2.5 -8.5t-4.5 -13t-5.5 -16q-1 -4 -5 -14.5t-6 -16.5l-146 -432h-155z" />
<glyph unicode="&#x39c;" horiz-adv-x="945" d="M82 0v692h231l120 -374q24 -78 40 -140q25 95 40 140l121 374h229v-692h-150v560q-14 -58 -38 -132l-139 -428h-133l-135 417l-14 42l-12 39l-8 30q-1 8 -8 32v-560h-144z" />
<glyph unicode="&#x39d;" horiz-adv-x="752" d="M82 0v692h172l184 -311q49 -85 85 -163q-3 40 -3 132v342h150v-692h-169l-173 290q-52 89 -99 185q3 -58 3 -165v-310h-150z" />
<glyph unicode="&#x39e;" horiz-adv-x="573" d="M34 0v122h505v-122h-505zM89 292v122h395v-122h-395zM49 570v122h475v-122h-475z" />
<glyph unicode="&#x39f;" horiz-adv-x="759" d="M380 704q167 0 254 -109q79 -98 79 -249q0 -176 -104 -277q-84 -81 -230 -81q-167 0 -254 109q-79 98 -79 253q0 174 104 273q86 81 230 81zM379 582q-79 0 -125.5 -63t-46.5 -170q0 -111 46 -175t126 -64t126.5 63.5t46.5 172.5t-46.5 172.5t-126.5 63.5z" />
<glyph unicode="&#x3a0;" horiz-adv-x="729" d="M100 0v570h-68v122h665v-122h-68v-570h-156v570h-217v-570h-156z" />
<glyph unicode="&#x3a1;" horiz-adv-x="586" d="M82 0v692h195q91 0 137.5 -9.5t80.5 -35.5q75 -56 75 -168q0 -109 -73 -168q-61 -47 -194 -47h-65v-264h-156zM234 381h45q66 0 93 14q42 20 42 79q0 57 -40 83q-31 18 -95 18h-45v-194z" />
<glyph unicode="&#x3a3;" horiz-adv-x="564" d="M26 0v110l207 244l-195 228v110h496v-122h-307l160 -181v-73l-172 -194h335v-122h-524z" />
<glyph unicode="&#x3a4;" horiz-adv-x="571" d="M206 0v570h-200v122h559v-122h-203v-570h-156z" />
<glyph unicode="&#x3a5;" horiz-adv-x="661" d="M254 0v284l-264 408h181l114 -183q28 -46 51 -90q22 42 52 91l113 182h170l-261 -408v-284h-156z" />
<glyph unicode="&#x3a6;" horiz-adv-x="895" d="M377 -30v84q-156 12 -243.5 89t-87.5 203t87.5 203t243.5 89v84h142v-84q156 -12 243.5 -89t87.5 -203t-87.5 -203t-243.5 -89v-84h-142zM519 524v-356q170 28 170 178t-170 178zM377 168v356q-170 -28 -170 -178t170 -178z" />
<glyph unicode="&#x3a7;" horiz-adv-x="734" d="M16 0l256 355l-243 337h181l161 -226l163 226h178l-251 -341l254 -351h-188l-164 231l-163 -231h-184z" />
<glyph unicode="&#x3a8;" horiz-adv-x="949" d="M397 0v170h-32q-88 0 -142.5 15.5t-91.5 51.5t-49 85t-12 169v201h156v-220q0 -67 8 -99.5t28 -50.5q34 -30 111 -30h24v400h156v-400h24q76 0 110 30q20 18 28 50.5t8 99.5v220h156v-201q0 -120 -12 -169t-49 -85q-70 -67 -233 -67h-32v-170h-156z" />
<glyph unicode="&#x3a9;" horiz-adv-x="803" d="M52 0v114h193v22q-71 25 -111 63q-88 81 -88 201q0 139 96.5 221.5t258.5 82.5t258.5 -82.5t96.5 -221.5t-110 -220q-34 -26 -89 -44v-22h193v-114h-300v208q66 22 97 54q48 54 48 135q0 87 -51.5 136t-142.5 49t-142.5 -49t-51.5 -136q0 -97 64 -149q22 -19 81 -40v-208 h-300z" />
<glyph unicode="&#x3aa;" horiz-adv-x="336" d="M90 0v692h156v-692h-156zM57 920q37 0 61.5 -24t24.5 -62t-24.5 -62t-61.5 -24q-38 0 -62 24.5t-24 62.5q0 37 24.5 61t61.5 24zM279 920q37 0 61.5 -24t24.5 -62t-24.5 -62t-61.5 -24q-38 0 -62 24.5t-24 62.5q0 37 24.5 61t61.5 24z" />
<glyph unicode="&#x3ab;" horiz-adv-x="661" d="M254 0v284l-264 408h181l114 -183q28 -46 51 -90q22 42 52 91l113 182h170l-261 -408v-284h-156zM220 920q38 0 62 -24t24 -62t-24 -62t-62 -24t-62 24.5t-24 62.5q0 37 24.5 61t61.5 24zM442 920q38 0 62 -24t24 -62t-24 -62t-62 -24t-62 24.5t-24 62.5q0 37 24.5 61 t61.5 24z" />
<glyph unicode="&#x3ac;" horiz-adv-x="635" d="M588 16l-145 -31q-13 38 -29 120q-31 -63 -69 -90t-97 -27q-96 0 -149.5 70t-53.5 195t55.5 198t150.5 73q58 0 94.5 -24t62.5 -80q2 37 12 100l150 -16q-20 -118 -20 -245q0 -121 38 -243zM399 192v90q-22 71 -46.5 100.5t-59.5 29.5q-92 0 -92 -153q0 -159 88 -159 q71 0 110 92zM279 741h180l-103 -164h-129z" />
<glyph unicode="&#x3ad;" horiz-adv-x="531" d="M424 208h-223q21 -108 137 -108q65 0 127 36l45 -107q-80 -41 -192 -41q-136 0 -206.5 68t-70.5 198q0 129 68.5 199.5t193.5 70.5q101 0 195 -37l-40 -108q-69 35 -132 35q-99 0 -124 -104h222v-102zM301 741h180l-102 -164h-130z" />
<glyph unicode="&#x3ae;" horiz-adv-x="645" d="M80 0v322q0 75 -5 190h139l5 -71q46 47 84.5 65t93.5 18q103 0 144 -73q24 -40 24 -134v-532h-151v520q0 49 -9 71q-17 36 -61 36q-60 0 -113 -80v-332h-151zM317 741h180l-103 -164h-129z" />
<glyph unicode="&#x3af;" horiz-adv-x="358" d="M85 512h151v-325q0 -49 14 -69t47 -20q17 0 46 7l13 -102q-58 -15 -113 -15q-100 0 -136 66q-22 40 -22 142v316zM152 741h180l-103 -164h-129z" />
<glyph unicode="&#x3b0;" horiz-adv-x="623" d="M75 512h151v-292q0 -56 11 -79q19 -42 75 -42q54 0 74 42q11 22 11 79v292h151v-281q0 -107 -25 -154q-26 -47 -76 -68t-135 -21q-86 0 -136 21t-76 68q-25 47 -25 154v281zM157 736q30 0 49 -19t19 -49t-19 -49t-49 -19q-31 0 -49.5 19t-18.5 50q0 29 19 48t49 19z M467 736q30 0 49 -19t19 -49t-19 -49t-49 -19q-31 0 -49.5 19t-18.5 50q0 29 19 48t49 19zM262 576l-18 174h136l-18 -174h-100z" />
<glyph unicode="&#x3b1;" horiz-adv-x="635" d="M588 16l-145 -31q-13 38 -29 120q-31 -63 -69 -90t-97 -27q-96 0 -149.5 70t-53.5 195t55.5 198t150.5 73q58 0 94.5 -24t62.5 -80q2 37 12 100l150 -16q-20 -118 -20 -245q0 -121 38 -243zM399 192v90q-22 71 -46.5 100.5t-59.5 29.5q-92 0 -92 -153q0 -159 88 -159 q71 0 110 92z" />
<glyph unicode="&#x3b2;" horiz-adv-x="646" d="M80 -215v683q0 145 39 197q58 79 201 79q124 0 186 -55q61 -55 61 -145q0 -100 -89 -147q67 -29 97 -74t30 -117q0 -100 -59 -159t-159 -59q-50 0 -84.5 12t-71.5 42v-257h-151zM231 477v-326q31 -29 56.5 -40.5t59.5 -11.5q51 0 78.5 29.5t27.5 83.5q0 55 -32.5 87.5 t-86.5 32.5q-11 0 -19 -1v110q52 0 76 23.5t24 75.5q0 94 -90 94q-70 0 -86 -62q-8 -32 -8 -95z" />
<glyph unicode="&#x3b3;" horiz-adv-x="579" d="M213 -215v117q0 119 -36.5 224t-159.5 338l125 59q113 -205 151 -323q34 114 150 323l117 -59q-123 -233 -159.5 -338t-36.5 -224v-117h-151z" />
<glyph unicode="&#x3b4;" horiz-adv-x="609" d="M507 717l-26 -113q-96 33 -168 33q-64 0 -64 -44q0 -24 17 -37t92 -44q121 -52 165.5 -108.5t44.5 -157.5q0 -130 -80 -201q-64 -57 -183 -57q-128 0 -196 64t-68 185q0 158 137 230q-41 29 -59 59.5t-18 71.5q0 78 62 116q49 30 140 30q92 0 204 -27zM262 420 q-2 -2 -4 -3q-61 -42 -61 -168q0 -151 106 -151q53 0 81 37.5t28 108.5q0 78 -45 114q-29 23 -105 62z" />
<glyph unicode="&#x3b5;" horiz-adv-x="531" d="M424 208h-223q21 -108 137 -108q63 0 123 34l45 -107q-76 -39 -188 -39q-136 0 -206.5 68t-70.5 198q0 128 68.5 199t192.5 71q100 0 193 -43l-43 -104q-67 37 -127 37q-100 0 -123 -104h222v-102z" />
<glyph unicode="&#x3b6;" horiz-adv-x="443" d="M57 628l9 113q87 -10 206 -10h180v-114q-99 -91 -132 -128q-123 -136 -123 -269q0 -66 32 -95q15 -15 85 -40q57 -20 84.5 -38.5t44.5 -46.5q20 -37 20 -88q0 -60 -40 -146l-114 44q20 54 20 93q0 33 -18 48t-77 30q-67 16 -95 29t-49 36q-49 56 -49 153q0 114 62 204 t228 218h-109q-92 0 -165 7z" />
<glyph unicode="&#x3b7;" horiz-adv-x="645" d="M80 0v322q0 75 -5 190h139l5 -71q46 47 84.5 65t93.5 18q103 0 144 -73q24 -40 24 -134v-532h-151v520q0 49 -9 71q-17 36 -61 36q-60 0 -113 -80v-332h-151z" />
<glyph unicode="&#x3b8;" horiz-adv-x="605" d="M303 744q129 0 197 -115q61 -101 61 -264q0 -186 -79 -291q-66 -86 -180 -86q-132 0 -199 115q-59 102 -59 266q0 186 80 289q67 86 179 86zM410 332h-215q9 -237 108 -237q98 0 107 237zM197 430h211q-17 207 -105 207q-89 0 -106 -207z" />
<glyph unicode="&#x3b9;" horiz-adv-x="358" d="M85 512h151v-325q0 -49 14 -69t47 -20q17 0 46 7l13 -102q-58 -15 -113 -15q-100 0 -136 66q-22 40 -22 142v316z" />
<glyph unicode="&#x3ba;" horiz-adv-x="604" d="M80 0v512h151v-215l179 215h169l-196 -224l220 -288h-179l-193 261v-261h-151z" />
<glyph unicode="&#x3bb;" horiz-adv-x="568" d="M6 20l210 493l-3 6q-29 56 -53 73t-78 18l8 130q64 1 102 -6.5t70.5 -33.5t55 -67t49.5 -114l95 -241q34 -87 56.5 -130t54.5 -81l-119 -81q-68 68 -128 252l-5 16q-24 72 -33 105q-25 -74 -52 -142l-88 -231z" />
<glyph unicode="&#x3bc;" horiz-adv-x="642" d="M82 -215v727h151v-257q0 -74 11 -107q15 -48 72 -48q56 0 95 64v348h151v-322q0 -61 5 -190h-139l-5 61q-29 -41 -54 -57t-59 -16q-43 0 -77 31v-234h-151z" />
<glyph unicode="&#x3bd;" horiz-adv-x="579" d="M210 0l-202 512h156l89 -236q28 -72 43 -122q17 58 43 126l87 232h145l-200 -512h-161z" />
<glyph unicode="&#x3be;" horiz-adv-x="482" d="M52 627l8 114q102 -10 205 -10h193v-110h-53q-84 0 -117 -20q-44 -24 -44 -84q0 -93 119 -93h63v-100h-69q-82 0 -114 -28q-37 -34 -37 -97q0 -53 27 -78q11 -10 69 -28q85 -24 114 -60q36 -44 36 -122q0 -63 -28 -142l-124 44q18 57 18 91q0 39 -19 57q-13 12 -65 24 q-66 17 -93.5 29.5t-47.5 36.5q-43 52 -43 136q0 101 70 158q25 20 77 38q-59 22 -85 48t-26 64q0 85 129 126h-37q-53 0 -126 6z" />
<glyph unicode="&#x3bf;" horiz-adv-x="609" d="M305 524q135 0 203 -81q60 -72 60 -187q0 -136 -80 -208q-63 -60 -184 -60q-135 0 -203 81q-60 72 -60 190q0 133 80 205q63 60 184 60zM305 414q-52 0 -80 -40.5t-28 -115.5q0 -78 27.5 -119t79.5 -41t80 40.5t28 117.5q0 76 -27.5 117t-79.5 41z" />
<glyph unicode="&#x3c0;" horiz-adv-x="641" d="M94 0v402h-79v110h611v-110h-73v-402h-151v402h-157v-402h-151z" />
<glyph unicode="&#x3c1;" horiz-adv-x="626" d="M226 42v-257h-151v453q0 145 62.5 215.5t190.5 70.5q133 0 199 -81q58 -71 58 -187q0 -128 -55 -198t-156 -70q-94 0 -148 54zM226 257v-90q20 -37 42.5 -52t56.5 -15q104 0 104 157q0 76 -26.5 116.5t-75.5 40.5q-101 0 -101 -157z" />
<glyph unicode="&#x3c2;" horiz-adv-x="484" d="M372 -234l-113 44q30 66 30 111q0 20 -9.5 32t-38.5 26q-103 52 -135 83q-65 64 -65 176q0 73 24 137t65 99q59 50 158 50q89 0 170 -37l-39 -103q-54 30 -107 30q-62 0 -86 -47q-28 -53 -28 -136q0 -53 20 -82t79 -61q56 -30 73.5 -42.5t29.5 -31.5q21 -34 21 -84 q0 -55 -49 -164z" />
<glyph unicode="&#x3c3;" horiz-adv-x="608" d="M592 398l-92 5q54 -54 54 -154q0 -129 -77 -201q-64 -60 -180 -60q-132 0 -198 81q-58 71 -58 187q0 127 66.5 197.5t186.5 70.5q36 0 98 -7q50 -5 71 -5h129v-114zM298 414q-49 0 -75 -41t-26 -117t26 -117t75 -41q48 0 74 40.5t26 115.5q0 160 -100 160z" />
<glyph unicode="&#x3c4;" horiz-adv-x="506" d="M161 402h-151v110h477v-110h-175v-215q0 -49 14 -69t49 -20q23 0 58 8l13 -102q-64 -16 -128 -16q-92 0 -130 57q-27 41 -27 151v206z" />
<glyph unicode="&#x3c5;" horiz-adv-x="623" d="M75 512h151v-292q0 -56 11 -79q19 -42 75 -42q54 0 74 42q11 22 11 79v292h151v-281q0 -107 -25 -154q-26 -47 -76 -68t-135 -21q-86 0 -136 21t-76 68q-25 47 -25 154v281z" />
<glyph unicode="&#x3c6;" horiz-adv-x="822" d="M342 -215v209q-92 5 -171 47q-130 70 -130 220q0 192 222 253l34 -105q-55 -22 -78 -56.5t-23 -93.5q0 -71 37.5 -112t108.5 -48v419q36 5 76 5q172 0 267.5 -70t95.5 -196q0 -171 -159 -234q-54 -21 -142 -29v-209h-138zM480 413v-314q67 2 106.5 44.5t39.5 112.5 q0 69 -39.5 111.5t-106.5 45.5z" />
<glyph unicode="&#x3c7;" horiz-adv-x="532" d="M175 181l-38 78q-40 76 -64.5 99t-74.5 28l11 133q94 -4 141.5 -34.5t87.5 -112.5q14 -26 27 -54l14 -25l117 230l130 -54l-169 -318l40 -72q39 -77 70.5 -119t80.5 -82l-88 -107q-62 41 -104.5 96t-76.5 139l-20 46l-150 -281l-130 54z" />
<glyph unicode="&#x3c8;" horiz-adv-x="859" d="M354 -215v215q-83 0 -128 7t-79 26q-93 50 -93 224q0 124 29 263l151 -21q-22 -117 -22 -216q0 -98 30 -134.5t112 -38.5v402h151v-402q82 2 112 38.5t30 134.5q0 99 -22 216l151 21q29 -139 29 -263q0 -174 -93 -224q-34 -19 -79 -26t-128 -7v-215h-151z" />
<glyph unicode="&#x3c9;" horiz-adv-x="793" d="M512 496l122 26q64 -65 91 -131.5t27 -155.5q0 -116 -56.5 -181.5t-156.5 -65.5q-51 0 -85 21.5t-57 69.5q-25 -48 -58.5 -69.5t-84.5 -21.5q-100 0 -156.5 65.5t-56.5 181.5q0 89 27 155.5t91 131.5l122 -26q-46 -67 -65 -128.5t-19 -137.5q0 -132 73 -132q36 0 48.5 29 t12.5 112v141h131v-141q0 -83 12.5 -112t48.5 -29q73 0 73 132q0 76 -19 137.5t-65 128.5z" />
<glyph unicode="&#x3ca;" horiz-adv-x="358" d="M85 512h151v-325q0 -49 14 -69t47 -20q17 0 46 7l13 -102q-58 -15 -113 -15q-100 0 -136 66q-22 40 -22 142v316zM68 750q36 0 59 -23t23 -59t-23 -59t-59 -23t-59 23t-23 60q0 35 23.5 58t58.5 23zM290 750q36 0 59 -23t23 -59t-23 -59t-59 -23t-59 23t-23 60 q0 35 23.5 58t58.5 23z" />
<glyph unicode="&#x3cb;" horiz-adv-x="623" d="M75 512h151v-292q0 -56 11 -79q19 -42 75 -42q54 0 74 42q11 22 11 79v292h151v-281q0 -107 -25 -154q-26 -47 -76 -68t-135 -21q-86 0 -136 21t-76 68q-25 47 -25 154v281zM201 750q36 0 59 -23t23 -59t-23 -59t-59 -23t-59 23t-23 60q0 35 23.5 58t58.5 23zM423 750 q36 0 59 -23t23 -59t-23 -59t-59 -23t-59 23t-23 60q0 35 23.5 58t58.5 23z" />
<glyph unicode="&#x3cc;" horiz-adv-x="609" d="M305 524q135 0 203 -81q60 -72 60 -187q0 -136 -80 -208q-63 -60 -184 -60q-135 0 -203 81q-60 72 -60 190q0 133 80 205q63 60 184 60zM305 414q-52 0 -80 -40.5t-28 -115.5q0 -78 27.5 -119t79.5 -41t80 40.5t28 117.5q0 76 -27.5 117t-79.5 41zM289 741h180l-103 -164 h-129z" />
<glyph unicode="&#x3cd;" horiz-adv-x="623" d="M75 512h151v-292q0 -56 11 -79q19 -42 75 -42q54 0 74 42q11 22 11 79v292h151v-281q0 -107 -25 -154q-26 -47 -76 -68t-135 -21q-86 0 -136 21t-76 68q-25 47 -25 154v281zM296 741h180l-103 -164h-129z" />
<glyph unicode="&#x3ce;" horiz-adv-x="793" d="M512 496l122 26q64 -65 91 -131.5t27 -155.5q0 -116 -56.5 -181.5t-156.5 -65.5q-51 0 -85 21.5t-57 69.5q-25 -48 -58.5 -69.5t-84.5 -21.5q-100 0 -156.5 65.5t-56.5 181.5q0 89 27 155.5t91 131.5l122 -26q-46 -67 -65 -128.5t-19 -137.5q0 -132 73 -132q36 0 48.5 29 t12.5 112v141h131v-141q0 -83 12.5 -112t48.5 -29q73 0 73 132q0 76 -19 137.5t-65 128.5zM377 741h180l-103 -164h-129z" />
<glyph unicode="&#x401;" horiz-adv-x="586" d="M82 0v692h438v-122h-282v-158h268v-122h-268v-168h297v-122h-453zM190 920q38 0 62 -24t24 -62t-24 -62t-62 -24t-62 24.5t-24 62.5q0 37 24.5 61t61.5 24zM412 920q38 0 62 -24t24 -62t-24 -62t-62 -24t-62 24.5t-24 62.5q0 37 24.5 61t61.5 24z" />
<glyph unicode="&#x402;" horiz-adv-x="783" d="M167 0v570h-147v122h580v-122h-276v-178q79 72 186 72q121 0 170 -79q27 -45 27 -146v-119q0 -134 -17 -198t-61 -95q-35 -24 -76.5 -32.5t-129.5 -9.5v109q48 0 73 10t37 33q17 36 17 172v93q0 76 -16 105q-20 35 -69 35q-76 0 -141 -80v-262h-157z" />
<glyph unicode="&#x403;" horiz-adv-x="527" d="M82 0v692h423v-122h-267v-570h-156zM319 905h180l-161 -146h-139z" />
<glyph unicode="&#x404;" horiz-adv-x="615" d="M505 292h-295q7 -95 48 -138.5t121 -43.5q74 0 156 44l51 -113q-103 -53 -231 -53q-158 0 -233 90q-76 89 -76 267q0 201 103 295q71 64 198 64q116 0 226 -55l-49 -117q-84 50 -162 50q-70 0 -105 -39.5t-45 -128.5h293v-122z" />
<glyph unicode="&#x405;" horiz-adv-x="578" d="M46 27l22 133q119 -50 202 -50q47 0 74 22t27 60q0 30 -21.5 47t-105.5 51q-99 40 -136 67q-61 46 -61 131q0 110 79 170q61 46 163 46q101 0 221 -38l-32 -126q-68 25 -104 33.5t-75 8.5q-43 0 -67 -19.5t-24 -53.5q0 -28 20.5 -44t96.5 -47t101.5 -43.5t47.5 -29.5 q60 -47 60 -140q0 -106 -65.5 -161.5t-190.5 -55.5q-122 0 -232 39z" />
<glyph unicode="&#x406;" horiz-adv-x="320" d="M82 0v692h156v-692h-156z" />
<glyph unicode="&#x407;" horiz-adv-x="320" d="M82 0v692h156v-692h-156zM49 920q37 0 61.5 -24t24.5 -62t-24.5 -62t-61.5 -24q-38 0 -62 24.5t-24 62.5q0 37 24.5 61t61.5 24zM271 920q37 0 61.5 -24t24.5 -62t-24.5 -62t-61.5 -24q-38 0 -62 24.5t-24 62.5q0 37 24.5 61t61.5 24z" />
<glyph unicode="&#x408;" horiz-adv-x="423" d="M191 692h156v-408q0 -112 -8 -155.5t-36 -76.5q-52 -64 -170 -64q-75 0 -131 21l13 128q50 -23 88 -23q51 0 73 34q15 21 15 102v442z" />
<glyph unicode="&#x409;" horiz-adv-x="997" d="M454 0v570h-204v-311q0 -109 -13 -149q-20 -60 -76 -85t-171 -25v122q29 3 44 5t29.5 10t20 16.5t10 29.5t5 43.5t0.5 64.5v401h511v-250h114q113 0 168 -45q71 -59 71 -176t-71 -176q-55 -45 -168 -45h-270zM610 112h84q59 0 83 24q28 30 28 85t-28 85q-24 24 -83 24 h-84v-218z" />
<glyph unicode="&#x40a;" horiz-adv-x="1036" d="M82 0v692h156v-266h249v266h156v-266h114q116 0 172 -43q73 -57 73 -170q0 -114 -73 -170q-56 -43 -172 -43h-270v304h-249v-304h-156zM643 112h84q63 0 90 24q27 27 27 77t-27 77q-27 24 -90 24h-84v-202z" />
<glyph unicode="&#x40b;" horiz-adv-x="783" d="M167 0v570h-147v122h580v-122h-276v-178q81 72 187 72q120 0 169 -73q27 -41 27 -134v-257h-156v229q0 61 -14 81q-23 32 -75 32q-76 0 -138 -80v-262h-157z" />
<glyph unicode="&#x40c;" horiz-adv-x="658" d="M82 0v692h153v-289h39q32 0 48 16.5t35 67.5q50 131 82 165q42 45 127 45q30 0 60 -5l-12 -118q-20 3 -26 3q-36 0 -56 -30q-12 -17 -36 -81q-20 -54 -33 -74t-40 -34q53 -19 71 -40t59 -111l93 -207h-166l-62 145q-36 88 -60 115q-27 32 -82 32h-41v-292h-153zM389 905 h180l-161 -146h-139z" />
<glyph unicode="&#x40e;" horiz-adv-x="639" d="M272 164l-262 528h172l89 -210q38 -86 72 -180q25 74 71 186l83 204h152l-220 -511q-46 -109 -98 -151t-140 -42q-47 0 -95 12l23 118q32 -7 59 -7q37 0 58.5 12t35.5 41zM160 913h82q3 -38 23.5 -52t73.5 -14q54 0 74.5 14t23.5 52h82q0 -78 -25 -114q-42 -61 -155 -61 q-112 0 -154 61q-25 36 -25 114z" />
<glyph unicode="&#x40f;" horiz-adv-x="692" d="M82 0v692h156v-570h216v570h156v-692h-193l-16 -168h-110l-16 168h-193z" />
<glyph unicode="&#x410;" horiz-adv-x="712" d="M481 165h-261l-59 -165h-155l264 692h163l273 -692h-165zM440 282l-54 150q-19 54 -36 108q-11 -41 -35 -108l-54 -150h179z" />
<glyph unicode="&#x411;" horiz-adv-x="625" d="M82 0v692h462v-122h-306v-138h114q113 0 168 -44q71 -57 71 -172t-71 -172q-55 -44 -168 -44h-270zM238 112h84q60 0 83 23q28 28 28 81t-28 81q-23 23 -83 23h-84v-208z" />
<glyph unicode="&#x412;" horiz-adv-x="633" d="M82 0v692h249q74 0 112 -8.5t67 -30.5q31 -23 48.5 -62.5t17.5 -83.5q0 -117 -104 -153q115 -36 115 -158q0 -103 -71 -155q-55 -41 -168 -41h-266zM234 402h72q64 0 89 18q27 22 27 68q0 47 -30 72q-27 20 -94 20h-64v-178zM234 112h74q58 0 83 13q38 21 38 78 q0 53 -39 79q-27 17 -80 17h-76v-187z" />
<glyph unicode="&#x413;" horiz-adv-x="527" d="M82 0v692h423v-122h-267v-570h-156z" />
<glyph unicode="&#x414;" horiz-adv-x="714" d="M574 0h-462l-15 -168h-111v290h66q34 66 50 153q22 135 22 324v93h500v-570h76v-290h-111zM468 119v451h-198v-51q0 -117 -19 -250q-12 -84 -37 -150h254z" />
<glyph unicode="&#x415;" horiz-adv-x="586" d="M82 0v692h438v-122h-282v-158h268v-122h-268v-168h297v-122h-453z" />
<glyph unicode="&#x416;" horiz-adv-x="927" d="M387 0v293h-8q-54 0 -82 -32q-22 -27 -60 -115l-61 -146h-164l93 208q41 90 59.5 111t70.5 39q-30 17 -43 39t-41 100q-17 44 -35 62t-46 18q-6 0 -26 -3l-12 118q29 5 60 5q93 0 136 -60q25 -35 70 -150q19 -51 35 -67.5t48 -16.5h6v289h153v-289h6q32 0 48 16.5 t35 67.5q45 115 70 150q43 60 136 60q31 0 60 -5l-12 -118q-20 3 -26 3q-36 0 -56 -30q-12 -17 -36 -81q-20 -54 -33 -73.5t-40 -34.5q52 -18 70.5 -39t59.5 -111l93 -208h-164l-61 146q-38 88 -60 115q-28 32 -82 32h-8v-293h-153z" />
<glyph unicode="&#x417;" horiz-adv-x="608" d="M16 27l34 121q93 -38 197 -38q151 0 151 94q0 57 -59 80q-40 17 -126 17q-34 0 -88 -2v114q23 -1 54 -1q124 0 173 25q41 24 41 63t-35.5 60.5t-99.5 21.5q-46 0 -82.5 -7.5t-98.5 -29.5l-33 120q113 39 233 39q133 0 202.5 -49t69.5 -142q0 -135 -143 -157 q150 -22 150 -161q0 -102 -79 -156q-74 -51 -214 -51q-136 0 -247 39z" />
<glyph unicode="&#x418;" horiz-adv-x="718" d="M82 0v692h150v-421l254 358v63h150v-692h-150v426l-254 -358v-68h-150z" />
<glyph unicode="&#x419;" horiz-adv-x="718" d="M82 0v692h150v-421l254 358v63h150v-692h-150v426l-254 -358v-68h-150zM179 913h82q3 -38 24 -52t74 -14q54 0 74.5 14t23.5 52h82q0 -76 -25 -114q-42 -61 -155 -61q-114 0 -154 61q-25 35 -26 114z" />
<glyph unicode="&#x41a;" horiz-adv-x="658" d="M82 0v692h153v-289h39q32 0 48 16.5t35 67.5q50 131 82 165q42 45 127 45q30 0 60 -5l-12 -118q-20 3 -26 3q-36 0 -56 -30q-12 -17 -36 -81q-20 -54 -33 -74t-40 -34q53 -19 71 -40t59 -111l93 -207h-166l-62 145q-36 88 -60 115q-27 32 -82 32h-41v-292h-153z" />
<glyph unicode="&#x41b;" horiz-adv-x="696" d="M99 692h515v-692h-156v570h-208v-311q0 -109 -13 -149q-20 -60 -76 -85t-171 -25v122q29 3 44 5t29.5 10t20 16.5t10 29.5t5 43.5t0.5 64.5v401z" />
<glyph unicode="&#x41c;" horiz-adv-x="945" d="M82 0v692h231l120 -374q24 -78 40 -140q25 95 40 140l121 374h229v-692h-150v560q-14 -58 -38 -132l-139 -428h-133l-135 417l-14 42l-12 39l-8 30q-1 8 -8 32v-560h-144z" />
<glyph unicode="&#x41d;" horiz-adv-x="729" d="M82 0v692h156v-278h253v278h156v-692h-156v292h-253v-292h-156z" />
<glyph unicode="&#x41e;" horiz-adv-x="759" d="M380 704q167 0 254 -109q79 -98 79 -249q0 -176 -104 -277q-84 -81 -230 -81q-167 0 -254 109q-79 98 -79 253q0 174 104 273q86 81 230 81zM379 582q-79 0 -125.5 -63t-46.5 -170q0 -111 46 -175t126 -64t126.5 63.5t46.5 172.5t-46.5 172.5t-126.5 63.5z" />
<glyph unicode="&#x41f;" horiz-adv-x="701" d="M82 0v692h537v-692h-156v570h-225v-570h-156z" />
<glyph unicode="&#x420;" horiz-adv-x="586" d="M82 0v692h195q91 0 137.5 -9.5t80.5 -35.5q75 -56 75 -168q0 -109 -73 -168q-61 -47 -194 -47h-65v-264h-156zM234 381h45q66 0 93 14q42 20 42 79q0 57 -40 83q-31 18 -95 18h-45v-194z" />
<glyph unicode="&#x421;" horiz-adv-x="609" d="M550 163l45 -124q-58 -30 -101.5 -40.5t-108.5 -10.5q-163 0 -251 92q-88 94 -88 260q0 170 88.5 267t243.5 97q102 0 208 -49l-52 -118q-75 45 -148 45q-84 0 -131.5 -62.5t-47.5 -172.5q0 -112 50 -174.5t139 -62.5q40 0 73 11.5t81 41.5z" />
<glyph unicode="&#x422;" horiz-adv-x="571" d="M206 0v570h-200v122h559v-122h-203v-570h-156z" />
<glyph unicode="&#x423;" horiz-adv-x="639" d="M272 164l-262 528h172l89 -210q38 -86 72 -180q25 74 71 186l83 204h152l-220 -511q-46 -109 -98 -151t-140 -42q-47 0 -95 12l23 118q32 -7 59 -7q37 0 58.5 12t35.5 41z" />
<glyph unicode="&#x424;" horiz-adv-x="895" d="M377 -30v84q-156 12 -243.5 89t-87.5 203t87.5 203t243.5 89v84h142v-84q156 -12 243.5 -89t87.5 -203t-87.5 -203t-243.5 -89v-84h-142zM519 524v-356q170 28 170 178t-170 178zM377 168v356q-170 -28 -170 -178t170 -178z" />
<glyph unicode="&#x425;" horiz-adv-x="734" d="M16 0l256 355l-243 337h181l161 -226l163 226h178l-251 -341l254 -351h-188l-164 231l-163 -231h-184z" />
<glyph unicode="&#x426;" horiz-adv-x="700" d="M82 0v692h156v-570h216v570h156v-571h76v-289h-111l-15 168h-478z" />
<glyph unicode="&#x427;" horiz-adv-x="684" d="M446 0v240q-76 -72 -184 -72q-118 0 -165 73q-27 40 -27 134v317h156v-295q0 -52 12 -71q22 -36 79 -36q70 0 129 80v322h156v-692h-156z" />
<glyph unicode="&#x428;" horiz-adv-x="1044" d="M82 0v692h156v-570h206v570h156v-570h206v570h156v-692h-880z" />
<glyph unicode="&#x429;" horiz-adv-x="1052" d="M82 0v692h156v-570h206v570h156v-570h206v570h156v-571h76v-289h-111l-15 168h-830z" />
<glyph unicode="&#x42a;" horiz-adv-x="698" d="M156 0v570h-168v122h324v-250h114q113 0 168 -45q71 -59 71 -176t-71 -176q-55 -45 -168 -45h-270zM312 112h84q59 0 83 24q28 30 28 85t-28 85q-24 24 -83 24h-84v-218z" />
<glyph unicode="&#x42b;" horiz-adv-x="925" d="M82 0v692h156v-250h114q113 0 168 -45q71 -59 71 -176t-71 -176q-55 -45 -168 -45h-270zM238 112h84q59 0 83 24q28 30 28 85t-28 85q-24 24 -83 24h-84v-218zM687 0v692h156v-692h-156z" />
<glyph unicode="&#x42c;" horiz-adv-x="625" d="M82 0v692h156v-250h114q113 0 168 -45q71 -59 71 -176t-71 -176q-55 -45 -168 -45h-270zM238 112h84q59 0 83 24q28 30 28 85t-28 85q-24 24 -83 24h-84v-218z" />
<glyph unicode="&#x42d;" horiz-adv-x="615" d="M405 292h-295v122h293q-10 89 -44 128.5t-101 39.5q-82 0 -167 -50l-49 117q110 55 226 55q146 0 221 -88q80 -96 80 -271q0 -202 -98 -290q-76 -67 -212 -67q-127 0 -230 53l51 113q82 -44 156 -44q80 0 121 43.5t48 138.5z" />
<glyph unicode="&#x42e;" horiz-adv-x="1077" d="M82 0v692h156v-278h154q10 81 50 150q85 140 268 140q161 0 245 -110q76 -97 76 -248q0 -175 -100 -277q-83 -81 -221 -81q-182 0 -268 140q-41 69 -51 164h-153v-292h-156zM709 582q-73 0 -116.5 -63t-43.5 -170q0 -111 43 -175t117 -64t117.5 63.5t43.5 172.5 t-43.5 172.5t-117.5 63.5z" />
<glyph unicode="&#x42f;" horiz-adv-x="664" d="M426 271h-51q-56 0 -81 -24t-66 -119l-56 -128h-166l87 189q37 78 52.5 99t45.5 33q-62 18 -95.5 64.5t-33.5 115.5q0 99 68 151q52 40 174 40h278v-692h-156v271zM430 386v191h-82q-74 0 -100 -21q-30 -24 -30 -73q0 -97 130 -97h82z" />
<glyph unicode="&#x430;" horiz-adv-x="587" d="M373 0l-5 57q-38 -38 -74.5 -53.5t-88.5 -15.5q-79 0 -124 42t-45 116q0 98 76 142q50 28 158 28q42 0 91 -4v6q0 47 -29.5 73.5t-82.5 26.5q-61 0 -143 -41l-29 106q89 41 195 41q129 0 191 -65q29 -30 39 -67.5t10 -116.5v-142q3 -111 6 -133h-145zM361 148v80 q-25 2 -49 2q-120 0 -120 -80q0 -31 18.5 -49.5t48.5 -18.5q57 0 102 66z" />
<glyph unicode="&#x431;" horiz-adv-x="601" d="M510 739l7 -109q-27 -5 -143 -13q-110 -7 -146.5 -40.5t-53.5 -142.5q61 90 166 90q101 0 160.5 -72t59.5 -195q0 -137 -78 -209q-63 -60 -180 -60q-134 0 -199 80q-59 72 -59 248q0 305 132 375q44 24 135 33q25 2 112 7q66 4 87 8zM201 333v-67q0 -89 23.5 -128.5 t77.5 -39.5q49 0 75.5 40.5t26.5 117.5q0 75 -25.5 116.5t-71.5 41.5q-71 0 -106 -81z" />
<glyph unicode="&#x432;" horiz-adv-x="595" d="M80 0v512h252q109 0 152 -28q56 -37 56 -111q0 -40 -18 -65.5t-60 -45.5q46 -18 66.5 -44.5t20.5 -69.5q0 -79 -60 -118q-47 -30 -144 -30h-265zM228 103h99q34 0 49 13t15 42t-15 42t-49 13h-99v-110zM228 305h99q63 0 63 52t-63 52h-99v-104z" />
<glyph unicode="&#x433;" horiz-adv-x="466" d="M80 0v512h362v-110h-211v-402h-151z" />
<glyph unicode="&#x434;" horiz-adv-x="602" d="M457 0h-342l-16 -148h-111v258h55q56 94 56 325v77h423v-402h61v-258h-115zM371 108v294h-130v-24q0 -154 -38 -270h168z" />
<glyph unicode="&#x435;" horiz-adv-x="600" d="M561 206h-362q9 -110 134 -110q80 0 163 50l51 -107q-98 -51 -216 -51q-143 0 -216.5 67.5t-73.5 198.5q0 124 71 198q66 72 193 72q184 0 234 -136q22 -62 22 -182zM199 305h210q-2 54 -29 83.5t-73 29.5q-47 0 -76 -30t-32 -83z" />
<glyph unicode="&#x436;" horiz-adv-x="806" d="M328 0v215h-11q-27 0 -46 -20.5t-47 -78.5l-54 -116h-157l84 167q31 59 43 74t40 26q-17 16 -38 66q-19 46 -30.5 60t-31.5 14q-10 0 -31 -4l-12 109q35 5 65 5q78 0 111 -46q13 -16 21 -32.5t33 -77.5q14 -34 22.5 -43t25.5 -9h13v203h149v-203h13q20 0 27.5 11t35.5 78 q30 71 60 95t90 24q30 0 65 -5l-12 -109q-23 4 -31 4q-20 0 -31.5 -14t-30.5 -60q-21 -50 -38 -66q28 -11 40 -26t43 -74l84 -167h-157l-54 116q-28 58 -47 78.5t-46 20.5h-11v-215h-149z" />
<glyph unicode="&#x437;" horiz-adv-x="515" d="M14 22l35 113q85 -37 167 -37q106 0 106 59q0 31 -31 44.5t-103 13.5q-26 0 -83 -1v99q35 -2 60 -2q85 0 119 11.5t34 40.5q0 53 -91 53q-63 0 -156 -37l-34 110q101 35 203 35q229 0 229 -149q0 -41 -19.5 -66.5t-64.5 -42.5q47 -17 68.5 -44.5t21.5 -72.5 q0 -161 -242 -161q-117 0 -219 34z" />
<glyph unicode="&#x438;" horiz-adv-x="630" d="M80 0v512h150v-274l170 225v49h150v-512h-150v277l-170 -225v-52h-150z" />
<glyph unicode="&#x439;" horiz-adv-x="630" d="M80 0v512h150v-274l170 225v49h150v-512h-150v277l-170 -225v-52h-150zM135 733h82q3 -36 24 -49t74 -13q54 0 74.5 13t23.5 49h82q0 -74 -25 -112q-42 -59 -155 -59t-154 59q-25 36 -26 112z" />
<glyph unicode="&#x43a;" horiz-adv-x="586" d="M80 0v512h149v-203h37q20 0 27.5 11.5t35.5 78.5q30 71 60 94.5t92 23.5q33 0 67 -5l-12 -109q-23 4 -31 4q-19 0 -31 -14.5t-31 -59.5q-21 -50 -38 -66q28 -11 40 -26t43 -74l84 -167h-161l-54 116q-29 61 -47.5 80t-50.5 19h-30v-215h-149z" />
<glyph unicode="&#x43b;" horiz-adv-x="601" d="M90 512h431v-512h-151v402h-134v-153q0 -109 -11 -143q-23 -85 -129 -101q-38 -5 -93 -5v110q60 5 73.5 28t13.5 117v257z" />
<glyph unicode="&#x43c;" horiz-adv-x="808" d="M80 0v512h211l89 -288q10 -29 24 -85q17 62 24 83l91 290h209v-512h-146v377q-19 -79 -27 -103l-89 -274h-129l-89 272q-10 28 -28 105v-377h-140z" />
<glyph unicode="&#x43d;" horiz-adv-x="636" d="M80 0v512h151v-196h174v196h151v-512h-151v206h-174v-206h-151z" />
<glyph unicode="&#x43e;" horiz-adv-x="609" d="M305 524q135 0 203 -81q60 -72 60 -187q0 -136 -80 -208q-63 -60 -184 -60q-135 0 -203 81q-60 72 -60 190q0 133 80 205q63 60 184 60zM305 414q-52 0 -80 -40.5t-28 -115.5q0 -78 27.5 -119t79.5 -41t80 40.5t28 117.5q0 76 -27.5 117t-79.5 41z" />
<glyph unicode="&#x43f;" horiz-adv-x="630" d="M80 0v512h470v-512h-151v402h-168v-402h-151z" />
<glyph unicode="&#x440;" horiz-adv-x="626" d="M75 -215v523q0 140 -5 204h146l5 -65q37 42 71.5 59.5t82.5 17.5q98 0 154 -72.5t56 -198.5q0 -129 -61 -201q-55 -64 -146 -64q-99 0 -152 74v-277h-151zM226 335v-153q46 -82 110 -82q41 0 67 44t26 115q0 70 -27 111.5t-72 41.5q-55 0 -104 -77z" />
<glyph unicode="&#x441;" horiz-adv-x="499" d="M437 136l46 -107q-74 -41 -176 -41q-125 0 -195.5 71t-70.5 198q0 130 74 204q62 63 178 63q93 0 177 -37l-40 -108q-59 35 -114 35q-58 0 -88.5 -41.5t-30.5 -119.5q0 -74 33.5 -113.5t97.5 -39.5q56 0 109 36z" />
<glyph unicode="&#x442;" horiz-adv-x="479" d="M163 0v402h-159v110h471v-110h-161v-402h-151z" />
<glyph unicode="&#x443;" horiz-adv-x="577" d="M214 19l-210 493h160l91 -224q23 -54 44 -117q23 70 44 124l82 217h149l-206 -499q-37 -88 -55 -123t-41 -61q-51 -57 -142 -57q-65 0 -126 23l26 114q40 -17 69 -17q37 0 60.5 26t54.5 101z" />
<glyph unicode="&#x444;" horiz-adv-x="873" d="M366 -215v277q-48 -74 -137 -74t-138.5 69t-49.5 194q0 127 52 200t144 73q82 0 129 -69v276h141v-276q56 69 133 69q89 0 140.5 -72.5t51.5 -198.5q0 -124 -50.5 -194.5t-139.5 -70.5q-86 0 -135 74v-277h-141zM366 182v153q-41 77 -87 77q-40 0 -63 -41.5t-23 -112.5 q0 -73 21.5 -115.5t58.5 -42.5q54 0 93 82zM507 335v-153q39 -82 93 -82q35 0 57.5 44t22.5 114q0 71 -23 112.5t-63 41.5q-46 0 -87 -77z" />
<glyph unicode="&#x445;" horiz-adv-x="599" d="M11 0l207 260l-194 252h173l106 -154l116 154h169l-200 -248l203 -264h-172l-116 164l-124 -164h-168z" />
<glyph unicode="&#x446;" horiz-adv-x="626" d="M80 0v512h151v-402h164v402h151v-402h61v-258h-115l-11 148h-401z" />
<glyph unicode="&#x447;" horiz-adv-x="624" d="M393 0v191q-69 -72 -163 -72q-104 0 -145 73q-23 41 -23 134v186h151v-174q0 -49 9 -71q17 -36 61 -36q57 0 110 80v201h151v-512h-151z" />
<glyph unicode="&#x448;" horiz-adv-x="919" d="M80 0v512h151v-402h153v402h151v-402h153v402h151v-512h-759z" />
<glyph unicode="&#x449;" horiz-adv-x="919" d="M80 0v512h151v-402h153v402h151v-402h153v402h151v-402h61v-258h-115l-11 148h-694z" />
<glyph unicode="&#x44a;" horiz-adv-x="592" d="M131 0v402h-139v110h287v-158h77q98 0 144 -35q59 -45 59 -142t-59 -142q-46 -35 -144 -35h-225zM279 103h50q41 0 59 17.5t18 56.5q0 40 -18.5 58t-58.5 18h-50v-150z" />
<glyph unicode="&#x44b;" horiz-adv-x="835" d="M604 0v512h151v-512h-151zM80 0v512h151v-158h77q98 0 144 -35q59 -45 59 -142t-59 -142q-46 -35 -144 -35h-228zM231 103h50q41 0 59 17.5t18 56.5q0 40 -18.5 58t-58.5 18h-50v-150z" />
<glyph unicode="&#x44c;" horiz-adv-x="543" d="M80 0v512h151v-158h77q98 0 144 -35q59 -45 59 -142t-59 -142q-46 -35 -144 -35h-228zM231 103h50q41 0 59 17.5t18 56.5q0 40 -18.5 58t-58.5 18h-50v-150z" />
<glyph unicode="&#x44d;" horiz-adv-x="531" d="M106 208v102h222q-10 54 -37 79t-76 25q-66 0 -137 -37l-43 104q93 43 193 43q124 0 192.5 -71t68.5 -199q0 -130 -70.5 -198t-206.5 -68q-115 0 -188 39l45 107q60 -34 123 -34q116 0 137 108h-223z" />
<glyph unicode="&#x44e;" horiz-adv-x="893" d="M80 0v512h151v-196h122q35 208 248 208q129 0 194 -81q57 -72 57 -187q0 -135 -76 -208q-61 -60 -175 -60q-108 0 -172 56t-77 162h-121v-206h-151zM601 414q-46 0 -71 -40.5t-25 -115.5q0 -78 24.5 -119t70.5 -41t71 40.5t25 117.5q0 76 -24.5 117t-70.5 41z" />
<glyph unicode="&#x44f;" horiz-adv-x="603" d="M372 0v179h-61q-28 0 -46.5 -18t-47.5 -72l-46 -89h-167l92 145q29 45 38.5 56.5t24.5 22.5q-54 22 -77 53t-23 82q0 83 58 123q44 30 147 30h259v-512h-151zM375 284v123h-76q-49 0 -69 -13.5t-20 -47.5t20 -48t69 -14h76z" />
<glyph unicode="&#x451;" horiz-adv-x="600" d="M561 206h-362q9 -110 134 -110q80 0 163 50l51 -107q-98 -51 -216 -51q-143 0 -216.5 67.5t-73.5 198.5q0 124 71 198q66 72 193 72q184 0 234 -136q22 -62 22 -182zM199 305h210q-2 54 -29 83.5t-73 29.5q-47 0 -76 -30t-32 -83zM201 750q36 0 59 -23t23 -59t-23 -59 t-59 -23t-59 23t-23 60q0 35 23.5 58t58.5 23zM423 750q36 0 59 -23t23 -59t-23 -59t-59 -23t-59 23t-23 60q0 35 23.5 58t58.5 23z" />
<glyph unicode="&#x452;" horiz-adv-x="640" d="M79 0v574h-72v88h72v69h152v-69h141v-88h-141v-122q71 72 166 72q104 0 145 -73q23 -41 23 -134v-144q0 -153 -11 -220.5t-41 -102.5q-51 -58 -164 -64l-61 -1v109q48 0 73 10t36 33q17 36 17 172v196q0 49 -9 71q-16 36 -61 36q-59 0 -113 -80v-332h-152z" />
<glyph unicode="&#x453;" horiz-adv-x="466" d="M80 0v512h362v-110h-211v-402h-151zM283 731h180l-161 -146h-139z" />
<glyph unicode="&#x454;" horiz-adv-x="531" d="M424 208h-223q21 -108 137 -108q63 0 123 34l45 -107q-76 -39 -188 -39q-136 0 -206.5 68t-70.5 198q0 128 68.5 199t192.5 71q100 0 193 -43l-43 -104q-67 37 -127 37q-100 0 -123 -104h222v-102z" />
<glyph unicode="&#x455;" horiz-adv-x="484" d="M41 32l38 112q71 -48 146 -48q72 0 72 51q0 23 -20 35q-12 7 -83 31q-82 28 -110 52q-39 34 -39 96q0 77 54 120t152 43q82 0 184 -36l-37 -112q-79 41 -142 41q-31 0 -48.5 -12.5t-17.5 -33.5q0 -16 12.5 -25.5t51.5 -23.5q104 -34 140 -61q49 -37 49 -100 q0 -70 -49 -119q-56 -54 -167 -54q-107 0 -186 44z" />
<glyph unicode="&#x456;" horiz-adv-x="305" d="M77 0v512h151v-512h-151zM153 754q38 0 63 -25t25 -63t-25 -63t-63 -25q-39 0 -63.5 25t-24.5 64q0 37 25 62t63 25z" />
<glyph unicode="&#x457;" horiz-adv-x="305" d="M77 0v512h151v-512h-151zM41 750q36 0 59 -23t23 -59t-23 -59t-59 -23t-59 23t-23 60q0 35 23.5 58t58.5 23zM263 750q36 0 59 -23t23 -59t-23 -59t-59 -23t-59 23t-23 60q0 35 23.5 58t58.5 23z" />
<glyph unicode="&#x458;" horiz-adv-x="322" d="M93 512h151v-509q0 -70 -8 -108t-29 -65q-43 -57 -141 -57q-49 0 -106 15l12 112q37 -11 57 -11q36 0 50 27.5t14 97.5v498zM169 754q38 0 63 -25t25 -63t-25 -63t-63 -25q-39 0 -63.5 25t-24.5 64q0 37 25 62t63 25z" />
<glyph unicode="&#x459;" horiz-adv-x="830" d="M370 0v402h-134v-153q0 -109 -11 -143q-23 -85 -129 -101q-38 -5 -93 -5v110q60 5 73.5 28t13.5 117v257h428v-158h77q98 0 144 -35q59 -45 59 -142t-59 -142q-46 -35 -144 -35h-225zM518 103h50q41 0 59 17.5t18 56.5q0 40 -18.5 58t-58.5 18h-50v-150z" />
<glyph unicode="&#x45a;" horiz-adv-x="865" d="M80 0v512h151v-174h171v174h151v-158h77q98 0 144 -35q59 -45 59 -142t-59 -142q-46 -35 -144 -35h-228v228h-171v-228h-151zM553 103h50q41 0 59 17.5t18 56.5q0 40 -18.5 58t-58.5 18h-50v-150z" />
<glyph unicode="&#x45b;" horiz-adv-x="640" d="M79 0v574h-72v88h72v69h152v-69h141v-88h-141v-122q69 72 166 72q104 0 145 -73q23 -41 23 -134v-317h-151v305q0 49 -9 71q-16 36 -61 36q-61 0 -113 -80v-332h-152z" />
<glyph unicode="&#x45c;" horiz-adv-x="586" d="M80 0v512h149v-203h37q20 0 27.5 11.5t35.5 78.5q30 71 60 94.5t92 23.5q33 0 67 -5l-12 -109q-23 4 -31 4q-19 0 -31 -14.5t-31 -59.5q-21 -50 -38 -66q28 -11 40 -26t43 -74l84 -167h-161l-54 116q-29 61 -47.5 80t-50.5 19h-30v-215h-149zM345 731h180l-161 -146h-139 z" />
<glyph unicode="&#x45e;" horiz-adv-x="577" d="M214 19l-210 493h160l91 -224q23 -54 44 -117q23 70 44 124l82 217h149l-206 -499q-37 -88 -55 -123t-41 -61q-51 -57 -142 -57q-65 0 -126 23l26 114q40 -17 69 -17q37 0 60.5 26t54.5 101zM115 733h82q3 -36 23.5 -49t73.5 -13q54 0 74.5 13t23.5 49h82q0 -76 -25 -112 q-42 -59 -155 -59q-112 0 -154 59q-25 36 -25 112z" />
<glyph unicode="&#x45f;" horiz-adv-x="626" d="M80 0v512h151v-402h164v402h151v-512h-164l-12 -148h-114l-12 148h-164z" />
<glyph unicode="&#x490;" horiz-adv-x="527" d="M82 0v692h303l16 121h104v-243h-267v-570h-156z" />
<glyph unicode="&#x491;" horiz-adv-x="466" d="M80 0v512h241l12 106h109v-216h-211v-402h-151z" />
<glyph unicode="&#x4c0;" horiz-adv-x="320" d="M82 0v692h156v-692h-156z" />
<glyph unicode="&#x1e84;" horiz-adv-x="979" d="M194 0l-168 692h153l71 -308q15 -65 35 -166q17 70 42 156l93 318h150l84 -298q23 -80 44 -168q20 97 37 168l71 298h147l-175 -692h-151l-86 301q-23 76 -50 186q-25 -96 -52 -182l-93 -305h-152zM378 920q38 0 62 -24t24 -62t-24 -62t-62 -24t-62 24.5t-24 62.5 q0 37 24.5 61t61.5 24zM600 920q38 0 62 -24t24 -62t-24 -62t-62 -24t-62 24.5t-24 62.5q0 37 24.5 61t61.5 24z" />
<glyph unicode="&#x2007;" horiz-adv-x="316" />
<glyph unicode="&#x2011;" horiz-adv-x="397" d="M46 225v116h305v-116h-305z" />
<glyph unicode="&#x2012;" d="M60 225v116h512v-116h-512z" />
<glyph unicode="&#x2013;" d="M60 225v116h512v-116h-512z" />
<glyph unicode="&#x2014;" horiz-adv-x="1000" d="M-50 225v116h1100v-116h-1100z" />
<glyph unicode="&#x2015;" horiz-adv-x="1000" d="M-50 225v116h1100v-116h-1100z" />
<glyph unicode="&#x2017;" horiz-adv-x="500" d="M-50 -224v58h600v-58h-600zM-50 -123v58h600v-58h-600z" />
<glyph unicode="&#x2018;" horiz-adv-x="272" d="M168 448h-166l111 283h142z" />
<glyph unicode="&#x2019;" horiz-adv-x="272" d="M104 731h166l-112 -283h-141z" />
<glyph unicode="&#x201a;" horiz-adv-x="272" d="M99 168h166l-112 -283h-141z" />
<glyph unicode="&#x201c;" horiz-adv-x="506" d="M172 448h-166l111 283h142zM407 448h-166l112 283h141z" />
<glyph unicode="&#x201d;" horiz-adv-x="506" d="M99 731h166l-112 -283h-141zM334 731h166l-111 -283h-142z" />
<glyph unicode="&#x201e;" horiz-adv-x="506" d="M90 168h166l-112 -283h-141zM325 168h166l-111 -283h-142z" />
<glyph unicode="&#x2020;" d="M242 390h-185v122h185v180h146v-180h187v-122h-187v-501h-146v501z" />
<glyph unicode="&#x2021;" d="M242 390h-185v122h185v180h146v-180h187v-122h-187v-150h187v-122h-187v-229h-146v229h-185v122h185v150z" />
<glyph unicode="&#x2022;" horiz-adv-x="500" d="M251 530q77 0 129.5 -52.5t52.5 -129.5t-52.5 -129.5t-129.5 -52.5q-78 0 -130 52.5t-52 131.5q0 76 52.5 128t129.5 52z" />
<glyph unicode="&#x2026;" horiz-adv-x="948" d="M158 173q40 0 66 -26.5t26 -66.5t-26 -66t-66 -26q-41 0 -67 26.5t-26 67.5q0 39 26.5 65t66.5 26zM474 173q40 0 66 -26.5t26 -66.5t-26 -66t-66 -26q-41 0 -67 26.5t-26 67.5q0 39 26.5 65t66.5 26zM790 173q40 0 66 -26.5t26 -66.5t-26 -66t-66 -26q-41 0 -67 26.5 t-26 67.5q0 39 26.5 65t66.5 26z" />
<glyph unicode="&#x2030;" horiz-adv-x="1305" d="M208 698q83 0 126.5 -50.5t43.5 -145.5t-44 -145.5t-127 -50.5t-126.5 50.5t-43.5 147.5q0 94 44 144t127 50zM208 615q-61 0 -61 -112q0 -114 61 -114q60 0 60 113t-60 113zM268 -16l275 724h96l-275 -724h-96zM700 386q83 0 126.5 -50.5t43.5 -145.5t-44 -145.5 t-127 -50.5t-126.5 50.5t-43.5 147.5q0 94 44 144t127 50zM700 303q-61 0 -61 -112q0 -114 61 -114q60 0 60 113t-60 113zM1097 386q83 0 126.5 -50.5t43.5 -145.5t-44 -145.5t-127 -50.5t-126.5 50.5t-43.5 147.5q0 94 44 144t127 50zM1097 303q-61 0 -61 -112 q0 -114 61 -114q60 0 60 113t-60 113z" />
<glyph unicode="&#x2039;" horiz-adv-x="366" d="M193 259l132 -166l-98 -76l-198 242l198 241l98 -75z" />
<glyph unicode="&#x203a;" horiz-adv-x="366" d="M173 258l-132 166l98 76l198 -242l-198 -241l-98 74z" />
<glyph unicode="&#x203e;" horiz-adv-x="500" d="M-50 806v110h600v-110h-600z" />
<glyph unicode="&#x2044;" horiz-adv-x="84" d="M-144 -16l275 724h96l-275 -724h-96z" />
<glyph unicode="&#x2070;" horiz-adv-x="412" d="M206 698q83 0 126.5 -50.5t43.5 -145.5t-44 -145.5t-127 -50.5t-126.5 50.5t-43.5 147.5q0 94 44 144t127 50zM206 615q-61 0 -61 -112q0 -114 61 -114q60 0 60 113t-60 113z" />
<glyph unicode="&#x2074;" horiz-adv-x="412" d="M224 312v78h-199v76l158 226h141v-229h53v-73h-53v-78h-100zM229 463v170l-117 -170h117z" />
<glyph unicode="&#x2075;" horiz-adv-x="412" d="M37 332l30 81q64 -24 114 -24q37 0 57.5 13t20.5 36q0 46 -93 46q-44 0 -103 -9l9 217h280v-84h-179l-2 -56q28 4 48 4q73 0 111.5 -30.5t38.5 -87.5q0 -132 -174 -132q-87 0 -158 26z" />
<glyph unicode="&#x2076;" horiz-adv-x="412" d="M350 689l-13 -79q-41 10 -74 10q-44 0 -68.5 -19t-37.5 -63q37 28 87 28q62 0 97.5 -32.5t35.5 -87.5q0 -65 -45 -102.5t-124 -37.5q-83 0 -126 43t-43 125q0 126 74 186q51 38 139 38q38 0 98 -9zM210 490q-61 0 -61 -52q0 -53 61 -53q60 0 60 53q0 52 -60 52z" />
<glyph unicode="&#x2077;" horiz-adv-x="412" d="M53 312l188 296h-198v84h320v-76l-184 -304h-126z" />
<glyph unicode="&#x2078;" horiz-adv-x="412" d="M115 507q-41 19 -56 36.5t-15 48.5q0 50 42.5 78t119.5 28q76 0 118.5 -28t42.5 -78q0 -31 -15 -48.5t-56 -36.5q80 -21 80 -87q0 -54 -44.5 -84t-125.5 -30q-82 0 -126.5 30t-44.5 85q0 65 80 86zM206 536l5 2q22 6 36.5 20t14.5 29q0 36 -57 36q-56 0 -56 -35 q0 -33 57 -52zM206 472q-66 -11 -66 -49q0 -19 18 -30.5t48 -11.5q29 0 47 11.5t18 30.5q0 38 -65 49z" />
<glyph unicode="&#x2079;" horiz-adv-x="412" d="M62 315l13 79q41 -10 74 -10q44 0 68.5 19t37.5 63q-37 -28 -87 -28q-62 0 -97.5 32.5t-35.5 87.5q0 65 45 102.5t124 37.5q83 0 126 -43t43 -125q0 -126 -74 -186q-51 -38 -139 -38q-38 0 -98 9zM202 619q-60 0 -60 -52q0 -53 61 -53q60 0 60 52q0 53 -61 53z" />
<glyph unicode="&#x2080;" horiz-adv-x="412" d="M206 386q83 0 126.5 -50.5t43.5 -145.5t-44 -145.5t-127 -50.5t-126.5 50.5t-43.5 147.5q0 94 44 144t127 50zM206 303q-61 0 -61 -112q0 -114 61 -114q60 0 60 113t-60 113z" />
<glyph unicode="&#x2081;" horiz-adv-x="412" d="M170 0v281l-82 -48l-39 73l135 74h91v-380h-105z" />
<glyph unicode="&#x2082;" horiz-adv-x="412" d="M61 0v82q47 28 111 80q73 59 73 99q0 42 -59 42q-38 0 -112 -30l-18 83q69 30 145 30q74 0 113.5 -29.5t39.5 -85.5q0 -34 -14 -60.5t-48 -58.5q-41 -37 -86 -70h151v-82h-296z" />
<glyph unicode="&#x2083;" horiz-adv-x="412" d="M50 16l17 83q62 -24 119 -24q62 0 62 41q0 43 -81 43q-18 0 -38 -1v69q17 -1 38 -1q79 0 79 41q0 38 -69 38q-42 0 -96 -17l-14 80q71 18 135 18q155 0 155 -105q0 -34 -17.5 -54t-56.5 -31q44 -11 62 -31t18 -57q0 -114 -166 -114q-78 0 -147 22z" />
<glyph unicode="&#x2084;" horiz-adv-x="412" d="M224 0v78h-199v76l158 226h141v-229h53v-73h-53v-78h-100zM229 151v170l-117 -170h117z" />
<glyph unicode="&#x2085;" horiz-adv-x="412" d="M37 20l30 81q64 -24 114 -24q37 0 57.5 13t20.5 36q0 46 -93 46q-44 0 -103 -9l9 217h280v-84h-179l-2 -56q28 4 48 4q73 0 111.5 -30.5t38.5 -87.5q0 -132 -174 -132q-87 0 -158 26z" />
<glyph unicode="&#x2086;" horiz-adv-x="412" d="M350 377l-13 -79q-41 10 -74 10q-44 0 -68.5 -19t-37.5 -63q37 28 87 28q62 0 97.5 -32.5t35.5 -87.5q0 -65 -45 -102.5t-124 -37.5q-83 0 -126 43t-43 125q0 126 74 186q51 38 139 38q38 0 98 -9zM210 178q-61 0 -61 -52q0 -53 61 -53q60 0 60 53q0 52 -60 52z" />
<glyph unicode="&#x2087;" horiz-adv-x="412" d="M53 0l188 296h-198v84h320v-76l-184 -304h-126z" />
<glyph unicode="&#x2088;" horiz-adv-x="412" d="M115 195q-41 19 -56 36.5t-15 48.5q0 50 42.5 78t119.5 28q76 0 118.5 -28t42.5 -78q0 -31 -15 -48.5t-56 -36.5q80 -21 80 -87q0 -54 -44.5 -84t-125.5 -30q-82 0 -126.5 30t-44.5 85q0 65 80 86zM206 224l5 2q22 6 36.5 20t14.5 29q0 36 -57 36q-56 0 -56 -35 q0 -33 57 -52zM206 160q-66 -11 -66 -49q0 -19 18 -30.5t48 -11.5q29 0 47 11.5t18 30.5q0 38 -65 49z" />
<glyph unicode="&#x2089;" horiz-adv-x="412" d="M62 3l13 79q41 -10 74 -10q44 0 68.5 19t37.5 63q-37 -28 -87 -28q-62 0 -97.5 32.5t-35.5 87.5q0 65 45 102.5t124 37.5q83 0 126 -43t43 -125q0 -126 -74 -186q-51 -38 -139 -38q-38 0 -98 9zM202 307q-60 0 -60 -52q0 -53 61 -53q60 0 60 52q0 53 -61 53z" />
<glyph unicode="&#x20ac;" d="M5 235l26 73h68q-1 10 -1 25q0 21 1 35h-94l26 72h77q26 127 106.5 195.5t202.5 68.5q121 0 211 -45l-41 -115q-77 42 -149 42q-146 0 -177 -146h289l-25 -72h-270l-1 -9v-14q0 -15 3 -37h247l-26 -73h-207q22 -68 64 -98.5t115 -30.5q74 0 146 39l32 -119 q-89 -38 -203 -38q-127 0 -209.5 64.5t-107.5 182.5h-103z" />
<glyph unicode="&#x2116;" horiz-adv-x="1182" d="M82 0v692h172l184 -311q49 -85 85 -163q-3 40 -3 132v342h150v-692h-169l-173 290q-52 89 -99 185q3 -58 3 -165v-310h-150zM947 534q90 0 142.5 -49t52.5 -133t-52.5 -133t-143.5 -49t-143 49t-52 135q0 83 53 131.5t143 48.5zM947 452q-34 0 -48.5 -23t-14.5 -76 q0 -54 14.5 -77.5t47.5 -23.5q34 0 48.5 23.5t14.5 76.5t-14.5 76.5t-47.5 23.5zM769 35v80h355v-80h-355z" />
<glyph unicode="&#x2122;" horiz-adv-x="912" d="M381 313v379h144l91 -259l90 259h144v-379h-101v191q0 38 5 105q-22 -82 -37 -121l-64 -175h-75l-64 175q-15 39 -37 121q5 -68 5 -105v-191h-101zM118 313v296h-112v83h332v-83h-112v-296h-108z" />
<glyph unicode="&#x2126;" horiz-adv-x="739" d="M36 0v114h133q-71 60 -100 120.5t-29 145.5q0 151 88 237.5t242 86.5q153 0 241 -86.5t88 -237.5q0 -85 -29 -145.5t-100 -120.5h133v-114h-290v110q130 100 130 258q0 98 -47 156t-126 58q-80 0 -127 -58t-47 -156q0 -158 130 -258v-110h-290z" />
<glyph unicode="&#x2153;" horiz-adv-x="908" d="M170 312v281l-82 -48l-39 73l135 74h91v-380h-105zM225 -16l275 724h96l-275 -724h-96zM509 16l17 83q62 -24 119 -24q62 0 62 41q0 43 -81 43q-18 0 -38 -1v69q17 -1 38 -1q79 0 79 41q0 38 -69 38q-42 0 -96 -17l-14 80q71 18 135 18q155 0 155 -105q0 -34 -17.5 -54 t-56.5 -31q44 -11 62 -31t18 -57q0 -114 -166 -114q-78 0 -147 22z" />
<glyph unicode="&#x2154;" horiz-adv-x="908" d="M61 312v82q47 28 111 80q73 59 73 99q0 42 -59 42q-38 0 -112 -30l-18 83q69 30 145 30q74 0 113.5 -29.5t39.5 -85.5q0 -34 -14 -60.5t-48 -58.5q-41 -37 -86 -70h151v-82h-296zM269 -16l274 724h97l-275 -724h-96zM539 16l17 83q62 -24 119 -24q62 0 62 41q0 43 -81 43 q-18 0 -38 -1v69q17 -1 38 -1q79 0 79 41q0 38 -69 38q-42 0 -96 -17l-14 80q71 18 135 18q155 0 155 -105q0 -34 -17.5 -54t-56.5 -31q44 -11 62 -31t18 -57q0 -114 -166 -114q-78 0 -147 22z" />
<glyph unicode="&#x2155;" horiz-adv-x="908" d="M166 312v281l-82 -48l-39 73l135 74h91v-380h-105zM228 -16l274 724h97l-275 -724h-96zM499 20l30 81q64 -24 114 -24q37 0 57.5 13t20.5 36q0 46 -93 46q-44 0 -103 -9l9 217h280v-84h-179l-2 -56q28 4 48 4q73 0 111.5 -30.5t38.5 -87.5q0 -132 -174 -132 q-86 0 -158 26z" />
<glyph unicode="&#x2159;" horiz-adv-x="908" d="M166 312v281l-82 -48l-39 73l135 74h91v-380h-105zM231 -16l275 724h96l-275 -724h-96zM815 377l-12 -79q-41 10 -75 10q-44 0 -68.5 -19t-37.5 -63q37 28 87 28q62 0 97.5 -32.5t35.5 -87.5q0 -65 -45 -102.5t-124 -37.5q-83 0 -126 43t-43 125q0 127 75 186 q50 38 138 38q38 0 98 -9zM675 178q-61 0 -61 -52q0 -53 61 -53q60 0 60 53q0 52 -60 52z" />
<glyph unicode="&#x215b;" horiz-adv-x="908" d="M166 312v281l-82 -48l-39 73l135 74h91v-380h-105zM221 -16l275 724h96l-275 -724h-96zM574 195q-41 19 -56 36.5t-15 48.5q0 50 42.5 78t119.5 28q76 0 118.5 -28t42.5 -78q0 -31 -15 -48.5t-56 -36.5q80 -21 80 -87q0 -54 -44.5 -84t-125.5 -30q-82 0 -126.5 30 t-44.5 85q0 65 80 86zM665 224l5 2q22 6 36.5 20t14.5 29q0 36 -57 36q-56 0 -56 -35q0 -33 57 -52zM665 160q-66 -11 -66 -49q0 -19 18 -30.5t48 -11.5q29 0 47 11.5t18 30.5q0 38 -65 49z" />
<glyph unicode="&#x215c;" horiz-adv-x="908" d="M40 328l17 83q62 -24 119 -24q62 0 62 41q0 43 -81 43q-18 0 -38 -1v69q17 -1 38 -1q79 0 79 41q0 38 -69 38q-42 0 -96 -17l-14 80q71 18 135 18q155 0 155 -105q0 -34 -17.5 -54t-56.5 -31q44 -11 62 -31t18 -57q0 -114 -166 -114q-78 0 -147 22zM258 -16l275 724h97 l-275 -724h-97zM602 195q-42 19 -57 36.5t-15 48.5q0 50 42.5 78t119.5 28q76 0 118.5 -28t42.5 -78q0 -31 -15 -48.5t-56 -36.5q43 -11 62 -31.5t19 -55.5q0 -54 -45 -84t-126 -30t-126 30t-45 85q0 65 81 86zM692 224l5 2q22 6 36.5 20t14.5 29q0 36 -57 36q-56 0 -56 -35 q0 -34 57 -52zM692 160q-66 -11 -66 -49q0 -19 18.5 -30.5t47.5 -11.5t47.5 11.5t18.5 30.5q0 38 -66 49z" />
<glyph unicode="&#x215d;" horiz-adv-x="908" d="M30 332l30 81q64 -24 114 -24q37 0 57.5 13t20.5 36q0 46 -93 46q-45 0 -103 -9l9 217h280v-84h-179l-2 -56q28 4 48 4q73 0 111.5 -30.5t38.5 -87.5q0 -132 -174 -132q-87 0 -158 26zM261 -16l275 724h96l-274 -724h-97zM604 195q-41 19 -56 36.5t-15 48.5q0 50 42.5 78 t119.5 28q76 0 118.5 -28t42.5 -78q0 -31 -15 -48.5t-56 -36.5q80 -21 80 -87q0 -54 -44.5 -84t-125.5 -30q-82 0 -126.5 30t-44.5 85q0 65 80 86zM695 224l5 2q22 6 36.5 20t14.5 29q0 36 -57 36q-56 0 -56 -35q0 -33 57 -52zM695 160q-66 -11 -66 -49q0 -19 18 -30.5 t48 -11.5q29 0 47 11.5t18 30.5q0 38 -65 49z" />
<glyph unicode="&#x215e;" horiz-adv-x="908" d="M70 312l188 296h-198v84h320v-76l-184 -304h-126zM228 -16l275 724h97l-275 -724h-97zM588 195q-41 19 -56 36.5t-15 48.5q0 50 42.5 78t119.5 28q76 0 118.5 -28t42.5 -78q0 -31 -15 -48.5t-56 -36.5q80 -21 80 -87q0 -54 -44.5 -84t-125.5 -30q-82 0 -126.5 30 t-44.5 85q0 65 80 86zM679 224l5 2q22 6 36.5 20t14.5 29q0 36 -57 36q-56 0 -56 -35q0 -33 57 -52zM679 160q-66 -11 -66 -49q0 -19 18 -30.5t48 -11.5q29 0 47 11.5t18 30.5q0 38 -65 49z" />
<glyph unicode="&#x2202;" d="M97 629l27 113q97 -11 168 -42.5t131 -91.5q68 -69 107.5 -165.5t39.5 -195.5q0 -126 -66.5 -192.5t-192.5 -66.5q-117 0 -183.5 65.5t-66.5 180.5q0 107 57.5 170t155.5 63q44 0 88 -16q-87 150 -265 178zM311 357q-45 0 -69.5 -32.5t-24.5 -93.5q0 -62 25.5 -97.5 t70.5 -35.5t73 36.5t28 94.5q0 60 -27.5 94t-75.5 34z" />
<glyph unicode="&#x2206;" d="M622 0h-612v90l228 602h156l228 -602v-90zM458 118l-142 397l-142 -397h284z" />
<glyph unicode="&#x220f;" horiz-adv-x="704" d="M66 -155v946h572v-946h-156v824h-260v-824h-156z" />
<glyph unicode="&#x2211;" d="M73 -155v122l203 362l-203 339v123h534v-123h-352l196 -339l-203 -362h365v-122h-540z" />
<glyph unicode="&#x2212;" d="M60 198v116h512v-116h-512z" />
<glyph unicode="&#x221a;" d="M245 0l-112 281h-94v110h189l85 -230l212 755h318v-110h-217l-235 -806h-146z" />
<glyph unicode="&#x221e;" horiz-adv-x="823" d="M411 177q-76 -89 -186 -89q-86 0 -133.5 45.5t-47.5 128.5t47.5 128.5t133.5 45.5q110 0 186 -89q41 47 85 68t102 21q86 0 133.5 -45.5t47.5 -128.5t-47.5 -128.5t-133.5 -45.5q-58 0 -102 21t-85 68zM350 262l-11 10q-59 53 -107 53q-30 0 -48.5 -17.5t-18.5 -45.5 t18.5 -45.5t48.5 -17.5q46 0 105 52zM473 262l13 -11q59 -52 105 -52q30 0 48.5 17.5t18.5 45.5t-18.5 45.5t-48.5 17.5q-48 0 -107 -53z" />
<glyph unicode="&#x222b;" horiz-adv-x="448" d="M28 -144l22 118q27 -13 51 -13q33 0 44 27q6 18 6 73v536q0 77 5.5 104t25.5 52q41 50 133 50q55 0 105 -19l-18 -121q-33 12 -53 12q-30 0 -41 -26q-6 -14 -6 -54v-534q0 -74 -5 -108t-20 -57q-39 -63 -132 -63q-64 0 -117 23z" />
<glyph unicode="&#x2248;" d="M122 62l-83 46q42 76 80.5 110.5t81.5 34.5q28 0 51 -8t92 -42q64 -30 88 -30q23 0 40.5 15.5t40.5 55.5l79 -43q-22 -49 -50 -86q-43 -60 -106 -60q-31 0 -63.5 11.5t-104.5 46.5q-42 22 -65 22q-22 0 -39 -15.5t-42 -57.5zM122 266l-83 46q42 76 80.5 110.5t81.5 34.5 q28 0 51 -8t92 -42q64 -30 88 -30q23 0 40.5 15.5t40.5 55.5l79 -43q-22 -49 -50 -86q-43 -60 -106 -60q-31 0 -63.5 11.5t-104.5 46.5q-42 22 -65 22q-22 0 -39 -15.5t-42 -57.5z" />
<glyph unicode="&#x2260;" d="M60 96v116h165l51 88h-216v116h283l82 141l99 -56l-50 -85h98v-116h-165l-51 -88h216v-116h-283l-82 -141l-99 56l50 85h-98z" />
<glyph unicode="&#x2261;" d="M60 396v116h512v-116h-512zM60 198v116h512v-116h-512zM60 0v116h512v-116h-512z" />
<glyph unicode="&#x2264;" d="M60 0v114h512v-114h-512zM262 349l310 -71v-120l-512 138v106l512 139v-120z" />
<glyph unicode="&#x2265;" d="M60 0v114h512v-114h-512zM370 349l-310 72v120l512 -139v-106l-512 -138v120z" />
<glyph unicode="&#x22c5;" horiz-adv-x="316" d="M158 381q40 0 66 -26.5t26 -66.5t-26 -66t-66 -26q-41 0 -67 26.5t-26 67.5q0 39 26.5 65t66.5 26z" />
<glyph unicode="&#x25ca;" d="M316 -14l-310 360l310 360l310 -360zM316 171l151 175l-151 175l-151 -175z" />
<glyph unicode="&#xe000;" horiz-adv-x="510" d="M0 510h510v-510h-510v510z" />
<glyph unicode="&#xea3f;" horiz-adv-x="500" d="M218 731h146l-112 -283h-121z" />
<glyph unicode="&#xea4e;" horiz-adv-x="0" d="M-44 806v110h660v-110h-660z" />
<glyph unicode="&#xea4f;" horiz-adv-x="500" d="M261 578h-165l145 153h138z" />
<glyph unicode="&#xea67;" horiz-adv-x="500" d="M218 731h152l-112 -283h-127z" />
<glyph unicode="&#xf6be;" horiz-adv-x="322" d="M93 512h151v-509q0 -70 -8 -108t-29 -65q-43 -57 -141 -57q-49 0 -106 15l12 112q37 -11 57 -11q36 0 50 27.5t14 97.5v498z" />
<glyph unicode="&#xf6c3;" horiz-adv-x="500" d="M201 -32h166l-145 -153h-138z" />
<glyph unicode="&#xf6c9;" horiz-adv-x="500" d="M273 905h180l-161 -146h-139z" />
<glyph unicode="&#xf6ca;" horiz-adv-x="500" d="M250 827l68 86h140l-119 -146h-178l-119 146h140z" />
<glyph unicode="&#xf6cb;" horiz-adv-x="500" d="M139 920q37 0 61.5 -24t24.5 -62t-24.5 -62t-61.5 -24q-38 0 -62 24.5t-24 62.5q0 37 24.5 61t61.5 24zM361 920q37 0 61.5 -24t24.5 -62t-24.5 -62t-61.5 -24q-38 0 -62 24.5t-24 62.5q0 37 24.5 61t61.5 24z" />
<glyph unicode="&#xf6ce;" horiz-adv-x="500" d="M239 905l120 -146h-140l-160 146h180z" />
<glyph unicode="&#xf6cf;" horiz-adv-x="500" d="M173 905h180l-161 -146h-139zM407 905h180l-163 -146h-136z" />
<glyph unicode="&#xf6d0;" horiz-adv-x="500" d="M68 764v88h365v-88h-365z" />
<glyph unicode="&#xf6f4;" horiz-adv-x="500" d="M70 751h82q3 -38 23.5 -52t74.5 -14q53 0 73.5 14t23.5 52h82q0 -72 -25 -105q-41 -56 -154 -56t-155 56q-25 33 -25 105z" />
<glyph unicode="&#xf6f5;" horiz-adv-x="500" d="M250 665l68 86h140l-119 -146h-178l-119 146h140z" />
<glyph unicode="&#xf6f6;" horiz-adv-x="500" d="M250 692l-68 -87h-140l119 146h178l119 -146h-140z" />
<glyph unicode="&#xf6f7;" horiz-adv-x="500" d="M250 760q36 0 59 -23t23 -59t-23 -59t-59 -23t-59 23t-23 60q0 35 23.5 58t58.5 23z" />
<glyph unicode="&#xf6f8;" horiz-adv-x="500" d="M173 751h180l-161 -146h-139zM407 751h180l-163 -146h-136z" />
<glyph unicode="&#xf6f9;" horiz-adv-x="491" d="M102 275v266h150v-179l122 70v-103l-122 -70v-142h237v-117h-387v172l-80 -46v103z" />
<glyph unicode="&#xf6fa;" horiz-adv-x="827" d="M778 0h-405q-85 0 -134 9t-87 31q-108 61 -108 231q0 139 78 207q39 34 94 48.5t149 14.5h400v-114h-229v-98h218v-114h-218v-101h242v-114zM387 431h-18q-53 0 -80 -6.5t-46 -24.5q-43 -40 -43 -126q0 -98 57 -138q36 -26 112 -26h18v321z" />
<glyph unicode="&#xf6fb;" horiz-adv-x="500" d="M326 -148l5 -67q-45 -6 -82 -6q-67 0 -106 26t-39 71q0 72 126 124h96q-61 -34 -82.5 -55.5t-21.5 -47.5q0 -23 17.5 -36t49.5 -13q17 0 37 4z" />
<glyph unicode="&#xf6fc;" horiz-adv-x="500" d="M250 807q50 0 82.5 -32t32.5 -81t-32.5 -81t-82.5 -32t-82.5 32t-32.5 83q0 47 33 79t82 32zM250 742q-20 0 -32 -13t-12 -35q0 -48 44 -48t44 48t-44 48z" />
<glyph unicode="&#xf6fd;" horiz-adv-x="499" d="M44 23l24 121q86 -46 162 -46q33 0 51.5 13.5t18.5 37.5q0 18 -18 31t-76 36q-78 31 -107 51q-51 36 -51 106q0 93 69 143q49 37 139 37q93 0 185 -34l-33 -116q-92 40 -147 40q-27 0 -42.5 -11.5t-15.5 -31.5q0 -23 34 -40q19 -10 115 -48q56 -23 80.5 -56.5t24.5 -87.5 q0 -88 -54.5 -134t-159.5 -46t-199 35zM263 665l68 86h140l-119 -146h-178l-119 146h140z" />
<glyph unicode="&#xf6fe;" horiz-adv-x="500" d="M133 597h-83q4 63 32.5 100.5t73.5 37.5q31 0 100 -22q56 -19 75 -19q18 0 26 8.5t11 31.5h82q-8 -139 -110 -139q-21 0 -37.5 4t-95.5 29q-27 8 -39 8q-28 0 -35 -39z" />
<glyph unicode="&#xf6ff;" horiz-adv-x="513" d="M24 0v97l264 332h-254v112h446v-98l-263 -331h272v-112h-465zM277 665l67 86h141l-119 -146h-178l-119 146h140z" />
<glyph unicode="&#xf730;" d="M316 553q129 0 200.5 -74t71.5 -208t-71.5 -208.5t-200.5 -74.5q-130 0 -201 75t-71 211q0 131 72 205t200 74zM316 431q-54 0 -85 -42.5t-31 -116.5q0 -76 30.5 -119t85.5 -43t85.5 42.5t30.5 118.5q0 75 -30.5 117.5t-85.5 42.5z" />
<glyph unicode="&#xf731;" horiz-adv-x="486" d="M206 0v379l-111 -66l-68 113l196 115h134v-541h-151z" />
<glyph unicode="&#xf732;" horiz-adv-x="554" d="M43 0v112q113 62 193 128q98 79 98 129q0 29 -23.5 45.5t-66.5 16.5q-67 0 -162 -37l-39 116q107 43 216 43q118 0 177 -50q54 -46 54 -122q0 -44 -20.5 -81t-67.5 -78q-32 -28 -56 -45t-87 -55h237v-122h-453z" />
<glyph unicode="&#xf733;" horiz-adv-x="554" d="M18 -136l33 122q72 -28 158 -28q67 0 103 24.5t36 71.5q0 56 -53 79q-35 17 -111 17q-35 0 -67 -2v114q14 -1 34 -1q99 0 144.5 21t45.5 67q0 40 -31 61t-88 21q-66 0 -153 -30l-33 120q103 32 208 32q124 0 188.5 -49t64.5 -142q0 -135 -143 -157q150 -22 150 -158 q0 -102 -75 -159q-71 -52 -207 -52q-116 0 -204 28z" />
<glyph unicode="&#xf734;" d="M354 -151v157h-332v122l300 413h183v-423h93v-112h-93v-157h-151zM358 118v277l-192 -277h192z" />
<glyph unicode="&#xf735;" horiz-adv-x="558" d="M21 -120l39 122q81 -44 162 -44q66 0 101 30t35 86q0 114 -153 114q-61 0 -145 -21l13 374h417v-122h-270l-4 -120q36 3 57 3q122 0 180 -57q61 -59 61 -168q0 -117 -70 -179q-71 -62 -206 -62q-119 0 -217 44z" />
<glyph unicode="&#xf736;" d="M536 692l-15 -128q-61 18 -110 18q-83 0 -132.5 -48t-56.5 -135q65 61 152 61q99 0 154.5 -58.5t55.5 -164.5q0 -118 -69.5 -183.5t-193.5 -65.5q-131 0 -198.5 74.5t-67.5 220.5q0 108 30.5 197t85.5 141q86 83 238 83q59 0 127 -12zM326 341q-52 0 -83.5 -31.5 t-31.5 -83.5q0 -56 29.5 -88t81.5 -32q50 0 78.5 33t28.5 90q0 53 -27 82.5t-76 29.5z" />
<glyph unicode="&#xf737;" horiz-adv-x="521" d="M192 -151h-168l304 570h-313v122h481v-115z" />
<glyph unicode="&#xf738;" d="M173 363q-59 29 -85.5 64.5t-26.5 86.5q0 88 68.5 139t186.5 51q117 0 185.5 -51t68.5 -139q0 -52 -25.5 -86.5t-86.5 -64.5q67 -27 97 -66t30 -101q0 -98 -71 -153t-198 -55q-128 0 -199 55t-71 153q0 62 30 101t97 66zM316 416l8 2q41 10 67 36t26 58q0 36 -27 56 t-74 20t-74.5 -20t-27.5 -54q0 -71 102 -98zM310 305q-108 -30 -108 -111q0 -41 31 -65.5t83 -24.5q51 0 82 24.5t31 65.5q0 81 -119 111z" />
<glyph unicode="&#xf739;" d="M96 -151l15 128q61 -18 110 -18q83 0 132.5 48t56.5 135q-65 -61 -152 -61q-99 0 -154.5 58.5t-55.5 164.5q0 118 69.5 183.5t193.5 65.5q131 0 198.5 -74.5t67.5 -220.5q0 -108 -30.5 -197t-85.5 -141q-86 -83 -238 -83q-59 0 -127 12zM310 435q-50 0 -78.5 -33 t-28.5 -90q0 -53 27 -82.5t76 -29.5q52 0 83.5 31.5t31.5 83.5q0 56 -29.5 88t-81.5 32z" />
<glyph unicode="&#xf760;" horiz-adv-x="500" d="M239 751l120 -146h-140l-160 146h180z" />
<glyph unicode="&#xf761;" horiz-adv-x="617" d="M410 112h-213l-43 -112h-150l220 541h160l229 -541h-160zM374 219l-70 202l-70 -202h140z" />
<glyph unicode="&#xf762;" horiz-adv-x="552" d="M80 0v541h204q114 0 157 -29q58 -39 58 -118q0 -44 -18 -71.5t-58 -44.5q45 -20 65 -48t20 -74q0 -83 -61 -125q-47 -31 -146 -31h-221zM221 320h49q46 0 65.5 14t19.5 46q0 38 -27 52q-15 9 -58 9h-49v-121zM221 100h49q51 0 71.5 14t20.5 49q0 34 -20.5 48t-71.5 14 h-49v-125z" />
<glyph unicode="&#xf763;" horiz-adv-x="539" d="M479 150l47 -112q-76 -50 -197 -50q-137 0 -211 72t-74 206q0 136 73.5 211.5t206.5 75.5q112 0 197 -48l-55 -106q-62 44 -125 44q-65 0 -103 -46t-38 -126q0 -79 39.5 -126t106.5 -47q70 0 133 52z" />
<glyph unicode="&#xf764;" horiz-adv-x="616" d="M80 0v541h171q94 0 149 -14.5t94 -48.5q78 -68 78 -207q0 -170 -108 -231q-38 -22 -87 -31t-134 -9h-163zM229 110h18q76 0 112 26q57 40 57 138q0 87 -41 126q-19 18 -45.5 24.5t-79.5 6.5h-21v-321z" />
<glyph unicode="&#xf765;" horiz-adv-x="521" d="M80 0v541h379v-114h-229v-98h218v-114h-218v-101h242v-114h-392z" />
<glyph unicode="&#xf766;" horiz-adv-x="505" d="M80 0v541h381v-114h-232v-107h221v-114h-221v-206h-149z" />
<glyph unicode="&#xf767;" d="M550 314v-287q-67 -23 -109 -31t-99 -8q-146 0 -222 70t-76 206q0 138 77 213.5t218 75.5q114 0 213 -51l-53 -108q-63 49 -144 49q-73 0 -114.5 -46.5t-41.5 -127.5q0 -76 41.5 -123.5t107.5 -47.5q28 0 58 13v96h-100v107h244z" />
<glyph unicode="&#xf768;" horiz-adv-x="642" d="M80 0v541h150v-207h182v207h150v-541h-150v220h-182v-220h-150z" />
<glyph unicode="&#xf769;" horiz-adv-x="310" d="M80 0v541h150v-541h-150z" />
<glyph unicode="&#xf76a;" horiz-adv-x="382" d="M154 541h150v-320q0 -87 -7 -122t-30 -61q-44 -50 -147 -50q-69 0 -120 18l14 119q37 -24 75 -24t51.5 20.5t13.5 79.5v340z" />
<glyph unicode="&#xf76b;" horiz-adv-x="611" d="M80 0v541h150v-240l186 240h184l-207 -248l212 -293h-189l-186 275v-275h-150z" />
<glyph unicode="&#xf76c;" horiz-adv-x="469" d="M80 0v541h150v-424h237v-117h-387z" />
<glyph unicode="&#xf76d;" horiz-adv-x="822" d="M80 0v541h212l51 -163q36 -119 66 -240q30 116 74 250l49 153h210v-541h-136v428q-17 -70 -41 -149l-88 -279h-143l-88 275q-18 60 -41 153v-428h-125z" />
<glyph unicode="&#xf76e;" horiz-adv-x="666" d="M80 0v541h167l145 -235q39 -61 64 -115v350h130v-541h-163l-143 231l-18 29q-25 40 -52 89v-349h-130z" />
<glyph unicode="&#xf76f;" horiz-adv-x="641" d="M321 553q141 0 212 -85q64 -76 64 -197q0 -144 -85 -220q-69 -63 -192 -63q-140 0 -212 85q-64 76 -64 201q0 139 85 216q69 63 192 63zM321 443q-56 0 -89 -46t-33 -125q0 -82 32.5 -128t88.5 -46q57 0 89.5 46t32.5 126t-32.5 126.5t-88.5 46.5z" />
<glyph unicode="&#xf770;" horiz-adv-x="538" d="M80 0v541h179q77 0 116.5 -7.5t68.5 -27.5q64 -44 64 -137q0 -95 -61 -142q-50 -37 -162 -37h-61v-190h-144zM221 295h49q46 0 64 12q28 17 28 60q0 41 -28 58q-18 11 -64 11h-49v-141z" />
<glyph unicode="&#xf771;" horiz-adv-x="641" d="M579 -35l-72 -107q-121 50 -210 131q-90 5 -144 43q-109 75 -109 239q0 143 85 219q69 63 192 63q140 0 212 -85q64 -76 64 -198q0 -172 -122 -246q34 -26 104 -59zM321 443q-56 0 -89 -46t-33 -125q0 -82 32.5 -128t88.5 -46q57 0 89.5 46t32.5 126t-32.5 126.5 t-88.5 46.5z" />
<glyph unicode="&#xf772;" horiz-adv-x="573" d="M80 0v541h226q105 0 150 -30q58 -40 58 -121q0 -115 -97 -133q25 -10 36 -24.5t35 -65.5l82 -167h-157l-47 103q-28 61 -47.5 79.5t-56.5 18.5h-38v-201h-144zM221 306h55q50 0 71 15t21 51t-20 50t-72 14h-55v-130z" />
<glyph unicode="&#xf773;" horiz-adv-x="499" d="M44 23l24 121q86 -46 162 -46q33 0 51.5 13.5t18.5 37.5q0 18 -18 31t-76 36q-78 31 -107 51q-51 36 -51 106q0 93 69 143q49 37 139 37q93 0 185 -34l-33 -116q-92 40 -147 40q-27 0 -42.5 -11.5t-15.5 -31.5q0 -23 34 -40q19 -10 115 -48q56 -23 80.5 -56.5t24.5 -87.5 q0 -88 -54.5 -134t-159.5 -46t-199 35z" />
<glyph unicode="&#xf774;" horiz-adv-x="485" d="M166 0v424h-162v117h477v-117h-165v-424h-150z" />
<glyph unicode="&#xf775;" horiz-adv-x="638" d="M76 541h150v-315q0 -74 19.5 -101t73.5 -27t73.5 27t19.5 101v315h150v-294q0 -92 -8.5 -131t-33.5 -67q-57 -61 -201 -61q-161 0 -213 76q-18 26 -24 63t-6 120v294z" />
<glyph unicode="&#xf776;" horiz-adv-x="564" d="M201 0l-207 541h157l84 -234q34 -95 50 -149q14 47 48 144l89 239h148l-207 -541h-162z" />
<glyph unicode="&#xf777;" horiz-adv-x="860" d="M166 0l-142 541h150l53 -228q17 -72 29 -160q14 78 38 165l64 223h157l75 -290q13 -47 21 -98q13 74 45 207l46 181h134l-151 -541h-158l-46 176q-33 132 -50 227q-19 -96 -57 -227l-51 -176h-157z" />
<glyph unicode="&#xf778;" horiz-adv-x="641" d="M14 0l225 283l-203 258h172l118 -160l123 160h169l-211 -266l218 -275h-178l-128 174l-134 -174h-171z" />
<glyph unicode="&#xf779;" horiz-adv-x="583" d="M217 0v216l-229 325h174l96 -144q17 -25 37 -57q16 28 40 63l94 138h166l-227 -325v-216h-151z" />
<glyph unicode="&#xf77a;" horiz-adv-x="513" d="M24 0v97l264 332h-254v112h446v-98l-263 -331h272v-112h-465z" />
<glyph unicode="&#xf7a8;" horiz-adv-x="500" d="M139 760q36 0 59 -23t23 -59t-23 -59t-59 -23t-59 23t-23 60q0 35 23.5 58t58.5 23zM361 760q36 0 59 -23t23 -59t-23 -59t-59 -23t-59 23t-23 60q0 35 23.5 58t58.5 23z" />
<glyph unicode="&#xf7af;" horiz-adv-x="500" d="M68 624v88h365v-88h-365z" />
<glyph unicode="&#xf7b4;" horiz-adv-x="500" d="M273 751h180l-161 -146h-139z" />
<glyph unicode="&#xf7b8;" horiz-adv-x="500" d="M213 -32h166l-145 -153h-138z" />
<glyph unicode="&#xf7e0;" horiz-adv-x="617" d="M410 112h-213l-43 -112h-150l220 541h160l229 -541h-160zM374 219l-70 202l-70 -202h140zM297 751l120 -146h-139l-161 146h180z" />
<glyph unicode="&#xf7e1;" horiz-adv-x="617" d="M410 112h-213l-43 -112h-150l220 541h160l229 -541h-160zM374 219l-70 202l-70 -202h140zM332 751h179l-160 -146h-139z" />
<glyph unicode="&#xf7e2;" horiz-adv-x="617" d="M410 112h-213l-43 -112h-150l220 541h160l229 -541h-160zM374 219l-70 202l-70 -202h140zM308 692l-67 -87h-141l119 146h178l119 -146h-139z" />
<glyph unicode="&#xf7e3;" horiz-adv-x="617" d="M410 112h-213l-43 -112h-150l220 541h160l229 -541h-160zM374 219l-70 202l-70 -202h140zM192 597h-84q4 63 33 100.5t74 37.5q30 0 99 -22q56 -19 75 -19q18 0 26.5 9t10.5 31h83q-9 -139 -111 -139q-20 0 -37 4t-96 29q-26 8 -39 8q-28 0 -34 -39z" />
<glyph unicode="&#xf7e4;" horiz-adv-x="617" d="M410 112h-213l-43 -112h-150l220 541h160l229 -541h-160zM374 219l-70 202l-70 -202h140zM197 760q36 0 59 -23t23 -59t-23 -59t-59 -23t-59 23t-23 60q0 35 23.5 58t58.5 23zM419 760q36 0 59 -23t23 -59t-23 -59t-59 -23t-59 23t-23 60q0 35 23.5 58t58.5 23z" />
<glyph unicode="&#xf7e5;" horiz-adv-x="617" d="M410 112h-213l-43 -112h-150l220 541h160l229 -541h-160zM374 219l-70 202l-70 -202h140zM308 807q50 0 82.5 -32t32.5 -81t-32.5 -81t-82.5 -32t-82.5 32t-32.5 83q0 47 33 79t82 32zM308 742q-20 0 -32 -13t-12 -35q0 -48 44 -48t44 48t-44 48z" />
<glyph unicode="&#xf7e6;" horiz-adv-x="807" d="M366 119h-187l-64 -119h-165l310 541h485v-114h-229v-98h218v-114h-218v-101h242v-114h-392v119zM366 229v239l-128 -239h128z" />
<glyph unicode="&#xf7e7;" horiz-adv-x="539" d="M479 150l47 -112q-76 -50 -197 -50q-137 0 -211 72t-74 206q0 136 73.5 211.5t206.5 75.5q112 0 197 -48l-55 -106q-62 44 -125 44q-65 0 -103 -46t-38 -126q0 -79 39.5 -126t106.5 -47q70 0 133 52zM233 -32h165l-144 -153h-138z" />
<glyph unicode="&#xf7e8;" horiz-adv-x="521" d="M80 0v541h379v-114h-229v-98h218v-114h-218v-101h242v-114h-392zM266 751l120 -146h-139l-161 146h180z" />
<glyph unicode="&#xf7e9;" horiz-adv-x="521" d="M80 0v541h379v-114h-229v-98h218v-114h-218v-101h242v-114h-392zM304 751h179l-160 -146h-139z" />
<glyph unicode="&#xf7ea;" horiz-adv-x="521" d="M80 0v541h379v-114h-229v-98h218v-114h-218v-101h242v-114h-392zM270 692l-68 -87h-140l119 146h178l119 -146h-140z" />
<glyph unicode="&#xf7eb;" horiz-adv-x="521" d="M81 0v541h379v-114h-229v-98h218v-114h-218v-101h242v-114h-392zM160 760q36 0 59 -23t23 -59t-23 -59t-59 -23t-59 23t-23 60q0 35 23.5 58t58.5 23zM382 760q36 0 59 -23t23 -59t-23 -59t-59 -23t-59 23t-23 60q0 35 23.5 58t58.5 23z" />
<glyph unicode="&#xf7ec;" horiz-adv-x="310" d="M80 0v541h150v-541h-150zM127 751l120 -146h-140l-160 146h180z" />
<glyph unicode="&#xf7ed;" horiz-adv-x="310" d="M80 0v541h150v-541h-150zM178 751h180l-161 -146h-139z" />
<glyph unicode="&#xf7ee;" horiz-adv-x="310" d="M80 0v541h150v-541h-150zM155 692l-68 -87h-140l119 146h178l119 -146h-140z" />
<glyph unicode="&#xf7ef;" horiz-adv-x="310" d="M80 0v541h150v-541h-150zM44 760q36 0 59 -23t23 -59t-23 -59t-59 -23t-59 23t-23 60q0 35 23.5 58t58.5 23zM266 760q36 0 59 -23t23 -59t-23 -59t-59 -23t-59 23t-23 60q0 35 23.5 58t58.5 23z" />
<glyph unicode="&#xf7f0;" horiz-adv-x="642" d="M106 229h-86v88h86v224h172q93 0 148 -14.5t94 -48.5q78 -68 78 -207q0 -170 -107 -231q-39 -22 -87.5 -31t-134.5 -9h-163v229zM255 229v-119h18q76 0 112 26q57 40 57 138q0 87 -41 126q-19 18 -45.5 24.5t-79.5 6.5h-21v-114h103v-88h-103z" />
<glyph unicode="&#xf7f1;" horiz-adv-x="666" d="M80 0v541h167l145 -235q39 -61 64 -115v350h130v-541h-163l-143 231l-18 29q-25 40 -52 89v-349h-130zM233 597h-83q3 63 32 100.5t74 37.5q30 0 99 -22q56 -19 76 -19q18 0 26 8.5t11 31.5h82q-8 -139 -110 -139q-21 0 -37.5 4t-95.5 29q-27 8 -40 8q-28 0 -34 -39z" />
<glyph unicode="&#xf7f2;" horiz-adv-x="641" d="M321 553q141 0 212 -85q64 -76 64 -197q0 -144 -85 -220q-69 -63 -192 -63q-140 0 -212 85q-64 76 -64 201q0 139 85 216q69 63 192 63zM321 443q-56 0 -89 -46t-33 -125q0 -82 32.5 -128t88.5 -46q57 0 89.5 46t32.5 126t-32.5 126.5t-88.5 46.5zM309 751l120 -146h-139 l-160 146h179z" />
<glyph unicode="&#xf7f3;" horiz-adv-x="641" d="M321 553q141 0 212 -85q64 -76 64 -197q0 -144 -85 -220q-69 -63 -192 -63q-140 0 -212 85q-64 76 -64 201q0 139 85 216q69 63 192 63zM321 443q-56 0 -89 -46t-33 -125q0 -82 32.5 -128t88.5 -46q57 0 89.5 46t32.5 126t-32.5 126.5t-88.5 46.5zM344 751h179l-160 -146 h-139z" />
<glyph unicode="&#xf7f4;" horiz-adv-x="641" d="M321 553q141 0 212 -85q64 -76 64 -197q0 -144 -85 -220q-69 -63 -192 -63q-140 0 -212 85q-64 76 -64 201q0 139 85 216q69 63 192 63zM321 443q-56 0 -89 -46t-33 -125q0 -82 32.5 -128t88.5 -46q57 0 89.5 46t32.5 126t-32.5 126.5t-88.5 46.5zM320 692l-67 -87h-141 l119 146h179l119 -146h-140z" />
<glyph unicode="&#xf7f5;" horiz-adv-x="641" d="M321 553q141 0 212 -85q64 -76 64 -197q0 -144 -85 -220q-69 -63 -192 -63q-140 0 -212 85q-64 76 -64 201q0 139 85 216q69 63 192 63zM321 443q-56 0 -89 -46t-33 -125q0 -82 32.5 -128t88.5 -46q57 0 89.5 46t32.5 126t-32.5 126.5t-88.5 46.5zM204 597h-84 q4 63 33 100.5t74 37.5q30 0 99 -22q56 -19 75 -19q18 0 26.5 9t11.5 31h82q-9 -139 -110 -139q-21 0 -37.5 4t-96.5 29q-26 8 -39 8q-28 0 -34 -39z" />
<glyph unicode="&#xf7f6;" horiz-adv-x="641" d="M321 553q141 0 212 -85q64 -76 64 -197q0 -144 -85 -220q-69 -63 -192 -63q-140 0 -212 85q-64 76 -64 201q0 139 85 216q69 63 192 63zM321 443q-56 0 -89 -46t-33 -125q0 -82 32.5 -128t88.5 -46q57 0 89.5 46t32.5 126t-32.5 126.5t-88.5 46.5zM210 760q36 0 59 -23 t23 -59t-23 -59t-59 -23t-59 23t-23 60q0 35 23.5 58t58.5 23zM432 760q36 0 59 -23t23 -59t-23 -59t-59 -23t-59 23t-23 60q0 35 23.5 58t58.5 23z" />
<glyph unicode="&#xf7f8;" horiz-adv-x="641" d="M100 -25l-67 60l58 61q-47 72 -47 176q0 141 85 218q69 63 190 63q106 0 169 -43l54 56l67 -60l-58 -61q46 -73 46 -176q0 -141 -85 -218q-67 -63 -189 -63q-105 0 -169 43zM205 214l191 200q-30 29 -76 29q-56 0 -88.5 -46.5t-32.5 -126.5q0 -32 6 -56zM437 327 l-191 -200q30 -29 75 -29q56 0 88.5 46.5t32.5 126.5q0 27 -5 56z" />
<glyph unicode="&#xf7f9;" horiz-adv-x="638" d="M76 541h150v-315q0 -74 19.5 -101t73.5 -27t73.5 27t19.5 101v315h150v-294q0 -92 -8.5 -131t-33.5 -67q-57 -61 -201 -61q-161 0 -213 76q-18 26 -24 63t-6 120v294zM308 751l120 -146h-140l-160 146h180z" />
<glyph unicode="&#xf7fa;" horiz-adv-x="638" d="M76 541h150v-315q0 -74 19.5 -101t73.5 -27t73.5 27t19.5 101v315h150v-294q0 -92 -8.5 -131t-33.5 -67q-57 -61 -201 -61q-161 0 -213 76q-18 26 -24 63t-6 120v294zM352 751h180l-160 -146h-140z" />
<glyph unicode="&#xf7fb;" horiz-adv-x="638" d="M76 541h150v-315q0 -74 19.5 -101t73.5 -27t73.5 27t19.5 101v315h150v-294q0 -92 -8.5 -131t-33.5 -67q-57 -61 -201 -61q-161 0 -213 76q-18 26 -24 63t-6 120v294zM319 692l-68 -87h-140l119 146h178l119 -146h-140z" />
<glyph unicode="&#xf7fc;" horiz-adv-x="638" d="M76 541h150v-315q0 -74 19.5 -101t73.5 -27t73.5 27t19.5 101v315h150v-294q0 -92 -8.5 -131t-33.5 -67q-57 -61 -201 -61q-161 0 -213 76q-18 26 -24 63t-6 120v294zM208 760q36 0 59 -23t23 -59t-23 -59t-59 -23t-59 23t-23 60q0 35 23.5 58t58.5 23zM430 760 q36 0 59 -23t23 -59t-23 -59t-59 -23t-59 23t-23 60q0 35 23.5 58t58.5 23z" />
<glyph unicode="&#xf7fd;" horiz-adv-x="583" d="M217 0v216l-229 325h174l96 -144q17 -25 37 -57q16 28 40 63l94 138h166l-227 -325v-216h-151zM328 751h180l-161 -146h-139z" />
<glyph unicode="&#xf7fe;" horiz-adv-x="544" d="M80 0v541h144v-86h41q77 0 116.5 -8t68.5 -29q64 -47 64 -144t-61 -143q-50 -37 -162 -37h-67v-94h-144zM221 199h55q46 0 64 12q28 17 28 61q0 45 -28 65q-18 13 -64 13h-55v-151z" />
<glyph unicode="&#xf7ff;" horiz-adv-x="583" d="M217 0v216l-229 325h174l96 -144q17 -25 37 -57q16 28 40 63l94 138h166l-227 -325v-216h-151zM180 760q36 0 59 -23t23 -59t-23 -59t-59 -23t-59 23t-23 60q0 35 23.5 58t58.5 23zM402 760q36 0 59 -23t23 -59t-23 -59t-59 -23t-59 23t-23 60q0 35 23.5 58t58.5 23z" />
<glyph horiz-adv-x="908" d="M170 312v281l-82 -48l-39 73l135 74h91v-380h-105zM248 -16l275 724h97l-275 -724h-97zM666 0v281l-82 -48l-39 73l135 74h91v-380h-105z" />
<glyph horiz-adv-x="908" d="M61 312v82q47 28 111 80q73 59 73 99q0 42 -59 42q-38 0 -112 -30l-18 83q69 30 145 30q74 0 113.5 -29.5t39.5 -85.5q0 -34 -14 -60.5t-48 -58.5q-41 -37 -86 -70h151v-82h-296zM271 -16l274 724h97l-275 -724h-96zM534 20l30 81q64 -24 114 -24q37 0 57.5 13t20.5 36 q0 46 -93 46q-45 0 -103 -9l9 217h280v-84h-179l-2 -56q28 4 48 4q73 0 111.5 -30.5t38.5 -87.5q0 -132 -174 -132q-86 0 -158 26z" />
<glyph horiz-adv-x="908" d="M50 328l17 83q62 -24 119 -24q62 0 62 41q0 43 -81 43q-18 0 -38 -1v69q17 -1 38 -1q79 0 79 41q0 38 -69 38q-42 0 -96 -17l-14 80q71 18 135 18q155 0 155 -105q0 -34 -17.5 -54t-56.5 -31q44 -11 62 -31t18 -57q0 -114 -166 -114q-78 0 -147 22zM268 -16l275 724h97 l-275 -724h-97zM533 20l30 81q64 -24 114 -24q37 0 57.5 13t20.5 36q0 46 -93 46q-44 0 -103 -9l9 217h280v-84h-179l-2 -56q28 4 48 4q73 0 111.5 -30.5t38.5 -87.5q0 -132 -174 -132q-86 0 -158 26z" />
<glyph horiz-adv-x="908" d="M224 312v78h-199v76l158 226h141v-229h53v-73h-53v-78h-100zM229 463v170l-117 -170h117zM268 -16l275 724h97l-275 -724h-97zM533 20l30 81q64 -24 114 -24q37 0 57.5 13t20.5 36q0 46 -93 46q-44 0 -103 -9l9 217h280v-84h-179l-2 -56q28 4 48 4q73 0 111.5 -30.5 t38.5 -87.5q0 -132 -174 -132q-86 0 -158 26z" />
<glyph horiz-adv-x="908" d="M37 332l30 81q64 -24 114 -24q37 0 57.5 13t20.5 36q0 46 -93 46q-44 0 -103 -9l9 217h280v-84h-179l-2 -56q28 4 48 4q73 0 111.5 -30.5t38.5 -87.5q0 -132 -174 -132q-87 0 -158 26zM273 -16l275 724h96l-274 -724h-97zM842 377l-13 -79q-41 10 -74 10q-44 0 -68 -19 t-38 -63q37 28 87 28q62 0 97.5 -32.5t35.5 -87.5q0 -65 -45 -102.5t-124 -37.5q-83 0 -126 43t-43 125q0 126 74 186q51 38 139 38q38 0 98 -9zM702 178q-61 0 -61 -52q0 -53 61 -53q60 0 60 53q0 52 -60 52z" />
<glyph horiz-adv-x="500" d="M250 920q38 0 62 -24t24 -62t-24 -62t-62 -24t-62 24.5t-24 62.5q0 37 24.5 61t61.5 24z" />
<glyph horiz-adv-x="500" d="M250 920q57 0 93.5 -35.5t36.5 -91.5t-36.5 -92t-93.5 -36t-93.5 36t-36.5 93q0 54 37 90t93 36zM250 850q-25 0 -39 -15.5t-14 -42.5q0 -57 53 -57q25 0 39 15.5t14 41.5q0 27 -14 42.5t-39 15.5z" />
<glyph horiz-adv-x="500" d="M250 845l-68 -86h-140l119 146h178l119 -146h-140z" />
<glyph horiz-adv-x="500" d="M70 913h82q3 -38 23.5 -52t74.5 -14q53 0 73.5 14t23.5 52h82q0 -72 -25 -105q-41 -56 -154 -56t-155 56q-25 33 -25 105z" />
<glyph horiz-adv-x="500" d="M133 763h-83q4 63 32.5 100.5t73.5 37.5q31 0 100 -22q56 -19 75 -19q18 0 26 8.5t11 31.5h82q-8 -139 -110 -139q-21 0 -37.5 4t-95.5 29q-27 8 -39 8q-28 0 -35 -39z" />
<glyph horiz-adv-x="500" d="M227 -32h166l-145 -153h-138z" />
<glyph horiz-adv-x="500" d="M328 -148l5 -67q-45 -6 -82 -6q-67 0 -106 26t-39 71q0 72 126 124h96q-61 -34 -82.5 -55.5t-21.5 -47.5q0 -23 17.5 -36t49.5 -13q17 0 37 4z" />
<glyph horiz-adv-x="500" d="M227 -32h166l-145 -153h-138z" />
<glyph horiz-adv-x="974" d="M44 23l24 121q86 -46 162 -46q33 0 51.5 13.5t18.5 37.5q0 18 -18 31t-76 36q-78 31 -107 51q-51 36 -51 106q0 93 69 143q49 37 139 37q93 0 185 -34l-33 -116q-92 40 -147 40q-27 0 -42.5 -11.5t-15.5 -31.5q0 -23 34 -40q19 -10 115 -48q56 -23 80.5 -56.5t24.5 -87.5 q0 -88 -54.5 -134t-159.5 -46t-199 35zM519 23l24 121q86 -46 162 -46q33 0 51.5 13.5t18.5 37.5q0 18 -18 31t-76 36q-78 31 -107 51q-51 36 -51 106q0 93 69 143q49 37 139 37q93 0 185 -34l-33 -116q-92 40 -147 40q-27 0 -42.5 -11.5t-15.5 -31.5q0 -23 34 -40 q19 -10 115 -48q56 -23 80.5 -56.5t24.5 -87.5q0 -88 -54.5 -134t-159.5 -46t-199 35z" />
<glyph horiz-adv-x="310" d="M80 0v541h150v-541h-150z" />
<glyph horiz-adv-x="382" d="M154 541h150v-320q0 -87 -7 -122t-30 -61q-44 -50 -147 -50q-69 0 -120 18l14 119q37 -24 75 -24t51.5 20.5t13.5 79.5v340z" />
<glyph horiz-adv-x="811" d="M80 0v541h381v-114h-232v-107h221v-114h-221v-206h-149zM581 0v541h150v-541h-150z" />
<glyph horiz-adv-x="975" d="M80 0v541h381v-114h-232v-107h221v-114h-221v-206h-149zM581 0v541h150v-424h242v-117h-392z" />
<glyph horiz-adv-x="617" d="M410 112h-213l-43 -112h-150l220 541h160l229 -541h-160zM374 219l-70 202l-70 -202h140zM309 665l67 86h140l-118 -146h-179l-119 146h140z" />
<glyph horiz-adv-x="617" d="M410 112h-213l-43 -112h-150l220 541h160l229 -541h-160zM374 219l-70 202l-70 -202h140zM129 751h82q3 -38 23.5 -52t73.5 -14q54 0 74.5 14t23.5 52h82q0 -72 -25 -105q-42 -56 -155 -56t-154 56q-25 33 -25 105z" />
<glyph horiz-adv-x="617" d="M410 112h-213l-43 -112h-150l220 541h160l229 -541q-61 -34 -82.5 -55.5t-21.5 -47.5q0 -23 17.5 -36t49.5 -13q17 0 37 4l5 -67q-45 -6 -82 -6q-67 0 -106 26t-39 71q0 72 126 124h-64zM374 219l-70 202l-70 -202h140z" />
<glyph horiz-adv-x="539" d="M479 150l47 -112q-76 -50 -197 -50q-137 0 -211 72t-74 206q0 136 73.5 211.5t206.5 75.5q112 0 197 -48l-55 -106q-62 44 -125 44q-65 0 -103 -46t-38 -126q0 -79 39.5 -126t106.5 -47q70 0 133 52zM353 751h180l-160 -146h-140z" />
<glyph horiz-adv-x="539" d="M479 150l47 -112q-76 -50 -197 -50q-137 0 -211 72t-74 206q0 136 73.5 211.5t206.5 75.5q112 0 197 -48l-55 -106q-62 44 -125 44q-65 0 -103 -46t-38 -126q0 -79 39.5 -126t106.5 -47q70 0 133 52zM327 665l67 86h141l-119 -146h-178l-119 146h140z" />
<glyph horiz-adv-x="539" d="M479 150l47 -112q-76 -50 -197 -50q-137 0 -211 72t-74 206q0 136 73.5 211.5t206.5 75.5q112 0 197 -48l-55 -106q-62 44 -125 44q-65 0 -103 -46t-38 -126q0 -79 39.5 -126t106.5 -47q70 0 133 52zM333 760q36 0 59 -23t23 -59t-23 -59t-59 -23t-59 23t-23 60 q0 35 23.5 58t58.5 23z" />
<glyph horiz-adv-x="692" d="M80 0v541h171q94 0 149 -14.5t94 -48.5q78 -68 78 -207q0 -170 -108 -231q-38 -22 -87 -31t-134 -9h-163zM229 110h18q76 0 112 26q57 40 57 138q0 87 -41 126q-19 18 -45.5 24.5t-79.5 6.5h-21v-321zM656 731h146l-112 -283h-121z" />
<glyph horiz-adv-x="642" d="M106 229h-86v88h86v224h172q93 0 148 -14.5t94 -48.5q78 -68 78 -207q0 -170 -107 -231q-39 -22 -87.5 -31t-134.5 -9h-163v229zM255 229v-119h18q76 0 112 26q57 40 57 138q0 87 -41 126q-19 18 -45.5 24.5t-79.5 6.5h-21v-114h103v-88h-103z" />
<glyph horiz-adv-x="521" d="M80 0v541h379v-114h-229v-98h218v-114h-218v-101h242v-114h-392zM270 665l68 86h140l-119 -146h-178l-119 146h140z" />
<glyph horiz-adv-x="521" d="M80 0v541h379v-114h-229v-98h218v-114h-218v-101h242v-114h-392zM285 760q36 0 59 -23t23 -59t-23 -59t-59 -23t-59 23t-23 60q0 35 23.5 58t58.5 23z" />
<glyph horiz-adv-x="521" d="M80 0v541h379v-114h-229v-98h218v-114h-218v-101h242v-114q-62 -35 -83 -56t-21 -47q0 -49 68 -49q16 0 36 4l5 -67q-45 -6 -81 -6q-68 0 -107 26t-39 71q0 72 127 124h-297z" />
<glyph d="M550 314v-287q-67 -23 -109 -31t-99 -8q-146 0 -222 70t-76 206q0 138 77 213.5t218 75.5q114 0 213 -51l-53 -108q-63 49 -144 49q-73 0 -114.5 -46.5t-41.5 -127.5q0 -76 41.5 -123.5t107.5 -47.5q28 0 58 13v96h-100v107h244zM340 665l66 86h141l-118 -146h-179 l-119 146h140z" />
<glyph d="M550 314v-287q-67 -23 -109 -31t-99 -8q-146 0 -222 70t-76 206q0 138 77 213.5t218 75.5q114 0 213 -51l-53 -108q-63 49 -144 49q-73 0 -114.5 -46.5t-41.5 -127.5q0 -76 41.5 -123.5t107.5 -47.5q28 0 58 13v96h-100v107h244zM146 751h82q3 -38 23.5 -52t74.5 -14 q53 0 74 14t24 52h82q-1 -72 -26 -105q-41 -56 -154 -56t-155 56q-25 35 -25 105z" />
<glyph d="M550 314v-287q-67 -23 -109 -31t-99 -8q-146 0 -222 70t-76 206q0 138 77 213.5t218 75.5q114 0 213 -51l-53 -108q-63 49 -144 49q-73 0 -114.5 -46.5t-41.5 -127.5q0 -76 41.5 -123.5t107.5 -47.5q28 0 58 13v96h-100v107h244zM333 760q36 0 59 -23t23 -59t-23 -59 t-59 -23t-59 23t-23 60q0 35 23.5 58t58.5 23z" />
<glyph horiz-adv-x="469" d="M80 0v541h150v-424h237v-117h-387zM214 751h180l-160 -146h-140z" />
<glyph horiz-adv-x="469" d="M80 0v541h150v-424h237v-117h-387zM361 731h146l-112 -283h-121z" />
<glyph horiz-adv-x="666" d="M80 0v541h167l145 -235q39 -61 64 -115v350h130v-541h-163l-143 231l-18 29q-25 40 -52 89v-349h-130zM373 751h180l-161 -146h-139z" />
<glyph horiz-adv-x="666" d="M80 0v541h167l145 -235q39 -61 64 -115v350h130v-541h-163l-143 231l-18 29q-25 40 -52 89v-349h-130zM350 665l67 86h141l-119 -146h-178l-119 146h140z" />
<glyph horiz-adv-x="641" d="M321 553q141 0 212 -85q64 -76 64 -197q0 -144 -85 -220q-69 -63 -192 -63q-140 0 -212 85q-64 76 -64 201q0 139 85 216q69 63 192 63zM321 443q-56 0 -89 -46t-33 -125q0 -82 32.5 -128t88.5 -46q57 0 89.5 46t32.5 126t-32.5 126.5t-88.5 46.5zM243 751h180l-160 -146 h-139zM478 751h180l-164 -146h-136z" />
<glyph horiz-adv-x="573" d="M80 0v541h226q105 0 150 -30q58 -40 58 -121q0 -115 -97 -133q25 -10 36 -24.5t35 -65.5l82 -167h-157l-47 103q-28 61 -47.5 79.5t-56.5 18.5h-38v-201h-144zM221 306h55q50 0 71 15t21 51t-20 50t-72 14h-55v-130zM310 751h180l-161 -146h-139z" />
<glyph horiz-adv-x="499" d="M44 23l24 121q86 -46 162 -46q33 0 51.5 13.5t18.5 37.5q0 18 -18 31t-76 36q-78 31 -107 51q-51 36 -51 106q0 93 69 143q49 37 139 37q93 0 185 -34l-33 -116q-92 40 -147 40q-27 0 -42.5 -11.5t-15.5 -31.5q0 -23 34 -40q19 -10 115 -48q56 -23 80.5 -56.5t24.5 -87.5 q0 -88 -54.5 -134t-159.5 -46t-199 35zM306 751h180l-160 -146h-140z" />
<glyph horiz-adv-x="499" d="M44 23l24 121q86 -46 162 -46q33 0 51.5 13.5t18.5 37.5q0 18 -18 31t-76 36q-78 31 -107 51q-51 36 -51 106q0 93 69 143q49 37 139 37q93 0 185 -34l-33 -116q-92 40 -147 40q-27 0 -42.5 -11.5t-15.5 -31.5q0 -23 34 -40q19 -10 115 -48q56 -23 80.5 -56.5t24.5 -87.5 q0 -88 -54.5 -134t-159.5 -46t-199 35zM266 692l-67 -87h-141l119 146h178l119 -146h-140z" />
<glyph horiz-adv-x="499" d="M44 23l24 121q86 -46 162 -46q33 0 51.5 13.5t18.5 37.5q0 18 -18 31t-76 36q-78 31 -107 51q-51 36 -51 106q0 93 69 143q49 37 139 37q93 0 185 -34l-33 -116q-92 40 -147 40q-27 0 -42.5 -11.5t-15.5 -31.5q0 -23 34 -40q19 -10 115 -48q56 -23 80.5 -56.5t24.5 -87.5 q0 -88 -54.5 -134t-159.5 -46t-199 35zM178 -32h165l-145 -153h-138z" />
<glyph horiz-adv-x="640" d="M166 0v424h-162v117h477v-117h-165v-424h-150zM604 731h146l-112 -283h-121z" />
<glyph horiz-adv-x="638" d="M76 541h150v-315q0 -74 19.5 -101t73.5 -27t73.5 27t19.5 101v315h150v-294q0 -92 -8.5 -131t-33.5 -67q-57 -61 -201 -61q-161 0 -213 76q-18 26 -24 63t-6 120v294zM319 807q50 0 82.5 -32t32.5 -81t-32.5 -81t-82.5 -32t-82.5 32t-32.5 83q0 47 33 79t82 32zM319 742 q-20 0 -32 -13t-12 -35q0 -48 44 -48t44 48t-44 48z" />
<glyph horiz-adv-x="638" d="M76 541h150v-315q0 -74 19.5 -101t73.5 -27t73.5 27t19.5 101v315h150v-294q0 -92 -8.5 -131t-33.5 -67q-57 -61 -201 -61q-161 0 -213 76q-18 26 -24 63t-6 120v294zM242 751h180l-161 -146h-139zM476 751h180l-163 -146h-136z" />
<glyph horiz-adv-x="513" d="M24 0v97l264 332h-254v112h446v-98l-263 -331h272v-112h-465zM297 751h179l-160 -146h-139z" />
<glyph horiz-adv-x="513" d="M24 0v97l264 332h-254v112h446v-98l-263 -331h272v-112h-465zM277 760q36 0 59 -23t23 -59t-23 -59t-59 -23t-59 23t-23 60q0 35 23.5 58t58.5 23z" />
<glyph horiz-adv-x="642" d="M80 0v388h-75v78h75v75h150v-75h182v75h150v-75h74v-78h-74v-388h-150v210h-182v-210h-150zM412 316v72h-182v-72h182z" />
<glyph horiz-adv-x="485" d="M166 0v424h-162v117h477v-117h-165v-424h-150zM166 -32h165l-145 -153h-137z" />
<glyph horiz-adv-x="617" d="M410 112h-213l-43 -112h-150l220 541h160l229 -541h-160zM374 219l-70 202l-70 -202h140zM126 624v88h365v-88h-365z" />
<glyph horiz-adv-x="583" d="M217 0v216l-229 325h174l96 -144q17 -25 37 -57q16 28 40 63l94 138h166l-227 -325v-216h-151zM291 692l-67 -87h-141l119 146h178l119 -146h-140z" />
<glyph horiz-adv-x="539" d="M479 150l47 -112q-76 -50 -197 -50q-137 0 -211 72t-74 206q0 136 73.5 211.5t206.5 75.5q112 0 197 -48l-55 -106q-62 44 -125 44q-65 0 -103 -46t-38 -126q0 -79 39.5 -126t106.5 -47q70 0 133 52zM320 692l-68 -87h-140l119 146h178l119 -146h-140z" />
<glyph horiz-adv-x="521" d="M80 0v541h379v-114h-229v-98h218v-114h-218v-101h242v-114h-392zM78 624v88h365v-88h-365z" />
<glyph d="M550 314v-287q-67 -23 -109 -31t-99 -8q-146 0 -222 70t-76 206q0 138 77 213.5t218 75.5q114 0 213 -51l-53 -108q-63 49 -144 49q-73 0 -114.5 -46.5t-41.5 -127.5q0 -76 41.5 -123.5t107.5 -47.5q28 0 58 13v96h-100v107h244zM332 692l-67 -87h-140l118 146h179 l119 -146h-140z" />
<glyph horiz-adv-x="310" d="M80 0v541h150v-541h-150zM-25 751h82q3 -38 23.5 -52t74.5 -14q53 0 73.5 14t23.5 52h82q0 -72 -25 -105q-41 -56 -154 -56t-155 56q-25 33 -25 105z" />
<glyph horiz-adv-x="310" d="M80 0v541h150v-541h-150zM-27 624v88h365v-88h-365z" />
<glyph horiz-adv-x="382" d="M154 541h150v-320q0 -87 -7 -122t-30 -61q-44 -50 -147 -50q-69 0 -120 18l14 119q37 -24 75 -24t51.5 20.5t13.5 79.5v340zM221 692l-67 -87h-141l119 146h178l119 -146h-140z" />
<glyph horiz-adv-x="611" d="M80 0v541h150v-240l186 240h184l-207 -248l212 -293h-189l-186 275v-275h-150zM241 -32h165l-145 -153h-138z" />
<glyph horiz-adv-x="469" d="M80 0v541h150v-424h237v-117h-387zM186 -32h166l-145 -153h-138z" />
<glyph horiz-adv-x="666" d="M80 0v541h167l145 -235q39 -61 64 -115v350h130v-541h-163l-143 231l-18 29q-25 40 -52 89v-349h-130zM251 -32h165l-145 -153h-137z" />
<glyph horiz-adv-x="641" d="M321 553q141 0 212 -85q64 -76 64 -197q0 -144 -85 -220q-69 -63 -192 -63q-140 0 -212 85q-64 76 -64 201q0 139 85 216q69 63 192 63zM321 443q-56 0 -89 -46t-33 -125q0 -82 32.5 -128t88.5 -46q57 0 89.5 46t32.5 126t-32.5 126.5t-88.5 46.5zM138 624v88h365v-88 h-365z" />
<glyph horiz-adv-x="573" d="M80 0v541h226q105 0 150 -30q58 -40 58 -121q0 -115 -97 -133q25 -10 36 -24.5t35 -65.5l82 -167h-157l-47 103q-28 61 -47.5 79.5t-56.5 18.5h-38v-201h-144zM221 306h55q50 0 71 15t21 51t-20 50t-72 14h-55v-130zM231 -32h166l-145 -153h-138z" />
<glyph horiz-adv-x="638" d="M76 541h150v-315q0 -74 19.5 -101t73.5 -27t73.5 27t19.5 101v315h150v-294q0 -92 -8.5 -131t-33.5 -67q-57 -61 -201 -61q-161 0 -213 76q-18 26 -24 63t-6 120v294zM139 751h82q3 -38 24 -52t74 -14q54 0 74.5 14t23.5 52h82q0 -70 -25 -105q-42 -56 -155 -56t-154 56 q-25 33 -26 105z" />
<glyph horiz-adv-x="638" d="M76 541h150v-315q0 -74 19.5 -101t73.5 -27t73.5 27t19.5 101v315h150v-294q0 -92 -8.5 -131t-33.5 -67q-57 -61 -201 -61q-161 0 -213 76q-18 26 -24 63t-6 120v294zM137 624v88h364v-88h-364z" />
<glyph horiz-adv-x="638" d="M76 541h150v-315q0 -74 19.5 -101t73.5 -27t73.5 27t19.5 101v315h150v-294q0 -89 -7.5 -126.5t-29.5 -65.5q-26 -31 -75 -49q-65 -34 -90.5 -58t-25.5 -52q0 -23 18 -35.5t50 -12.5q16 0 36 4l5 -67q-45 -6 -81 -6q-68 0 -107 26t-39 71q0 34 23.5 60t77.5 53 q-7 -1 -15 -1q-144 0 -196 75q-18 27 -24 64t-6 120v294z" />
<glyph horiz-adv-x="573" d="M80 0v541h226q105 0 150 -30q58 -40 58 -121q0 -115 -97 -133q25 -10 36 -24.5t35 -65.5l82 -167h-157l-47 103q-28 61 -47.5 79.5t-56.5 18.5h-38v-201h-144zM221 306h55q50 0 71 15t21 51t-20 50t-72 14h-55v-130zM280 665l68 86h140l-119 -146h-178l-119 146h140z" />
<glyph horiz-adv-x="499" d="M44 23l24 121q86 -46 162 -46q33 0 51.5 13.5t18.5 37.5q0 18 -18 31t-76 36q-78 31 -107 51q-51 36 -51 106q0 93 69 143q49 37 139 37q93 0 185 -34l-33 -116q-92 40 -147 40q-27 0 -42.5 -11.5t-15.5 -31.5q0 -23 34 -40q19 -10 115 -48q56 -23 80.5 -56.5t24.5 -87.5 q0 -88 -54.5 -134t-159.5 -46t-199 35zM183 -32h165l-145 -153h-137z" />
<glyph d="M550 314v-287q-67 -23 -109 -31t-99 -8q-146 0 -222 70t-76 206q0 138 77 213.5t218 75.5q114 0 213 -51l-53 -108q-63 49 -144 49q-73 0 -114.5 -46.5t-41.5 -127.5q0 -76 41.5 -123.5t107.5 -47.5q28 0 58 13v96h-100v107h244zM395 588h-166l145 153h138z" />
<glyph horiz-adv-x="416" d="M174 0v389l-104 -58l-65 118l189 98h130v-547h-150z" />
<glyph horiz-adv-x="486" d="M12 0v107q94 73 175 146q55 50 75 77.5t20 52.5q0 60 -71 60q-66 0 -157 -46l-41 106q113 50 219 50q100 0 152.5 -43t52.5 -125q0 -67 -39 -117.5t-170 -153.5h214v-114h-430z" />
<glyph horiz-adv-x="508" d="M12 24l37 109q80 -35 164 -35q90 0 90 65q0 35 -28.5 48t-105.5 13q-20 0 -61 -1v109q21 -1 47 -1q78 0 110 14t32 49q0 49 -81 49q-61 0 -150 -33l-34 104q110 39 210 39q210 0 210 -157q0 -45 -18.5 -72t-62.5 -45q87 -32 87 -120q0 -171 -239 -171q-114 0 -207 36z " />
<glyph horiz-adv-x="522" d="M286 0v117h-278v110l249 314h176v-320h78v-104h-78v-117h-147zM291 221v193l-147 -193h147z" />
<glyph horiz-adv-x="519" d="M22 25l42 113q88 -40 154 -40q49 0 75.5 20t26.5 57q0 33 -27 47.5t-89 14.5q-60 0 -145 -17l12 321h382v-114h-239l-2 -83q26 3 47 3q111 0 163.5 -40.5t52.5 -125.5q0 -95 -59 -145q-59 -48 -180 -48q-122 0 -214 37z" />
<glyph horiz-adv-x="549" d="M476 537l-16 -107q-51 13 -98 13q-117 0 -154 -116q54 34 116 34q91 0 138.5 -44.5t47.5 -129.5q0 -96 -59.5 -147.5t-170.5 -51.5q-118 0 -176 58.5t-58 177.5q0 158 77 243.5t219 85.5q60 0 134 -16zM280 259q-39 0 -61.5 -22t-22.5 -60q0 -40 22 -62t62 -22 q39 0 61 22t22 61t-22 61t-61 22z" />
<glyph horiz-adv-x="474" d="M198 0h-179l265 427h-276v114h447v-106z" />
<glyph horiz-adv-x="547" d="M130 284q-44 22 -63 48.5t-19 67.5q0 74 57.5 113.5t165.5 39.5q111 0 169.5 -39.5t58.5 -113.5q0 -41 -19 -67.5t-63 -48.5q50 -26 72 -57t22 -74q0 -79 -62 -122t-175 -43q-114 0 -176 43t-62 122q0 83 94 131zM289 322l5 2q27 10 43 29t16 41q0 55 -80 55 q-37 0 -58 -14.5t-21 -39.5q0 -24 25.5 -43t69.5 -30zM261 235q-35 -8 -55 -29.5t-20 -50.5q0 -28 23.5 -45t63.5 -17t64 17t24 45t-27 50t-73 30z" />
<glyph horiz-adv-x="549" d="M73 4l16 107q51 -13 98 -13q117 0 154 116q-54 -34 -116 -34q-91 0 -138.5 44.5t-47.5 129.5q0 96 59.5 147.5t170.5 51.5q118 0 176 -58.5t58 -177.5q0 -158 -77 -243.5t-219 -85.5q-60 0 -134 16zM269 448q-39 0 -61 -22t-22 -61t22 -61t62 -22q38 0 60.5 22t22.5 60 q0 40 -22 62t-62 22z" />
<glyph horiz-adv-x="568" d="M284 553q121 0 179.5 -69.5t58.5 -213.5q0 -143 -58.5 -212.5t-178.5 -69.5q-122 0 -180.5 70t-58.5 216q0 279 238 279zM284 443q-83 0 -83 -171q0 -174 83 -174t83 172q0 173 -83 173z" />
<glyph horiz-adv-x="538" d="M29 0v112h75q10 26 10 92v26h-77v102h77v13q0 67 9.5 101.5t35.5 59.5q48 45 155 45q101 0 199 -41l-40 -105q-79 36 -129 36q-43 0 -62 -24t-19 -79v-6h137v-102h-137v-26q0 -56 -6 -92h245v-112h-473z" />
<glyph horiz-adv-x="520" d="M232 -98v86q-96 4 -175 35l23 121q88 -46 163 -46q33 0 51.5 13.5t18.5 37.5q0 18 -18 31t-77 36q-83 34 -107 51q-51 36 -51 106q0 56 27 99t75 63q30 13 70 17v87h68v-87q82 -6 154 -33l-33 -116q-94 40 -148 40q-27 0 -42.5 -11.5t-15.5 -31.5q0 -23 34 -40 q19 -10 115 -48q57 -23 81.5 -56.5t24.5 -87.5q0 -78 -44 -124t-126 -54v-88h-68z" />
<glyph horiz-adv-x="480" d="M237 39v96q-179 24 -179 197q0 91 47 146.5t132 65.5v95h68v-93q64 -3 124 -30l-41 -98q-39 28 -81 28q-46 0 -72 -29.5t-26 -81.5q0 -49 25.5 -75t72.5 -26q46 0 81 27l41 -100q-56 -27 -124 -28v-94h-68z" />
<glyph horiz-adv-x="500" d="M147 227h-75v102h91l6 39q16 96 38 130q37 55 131 55q66 0 143 -28l-33 -99q-40 17 -71 17q-25 0 -36 -18t-20 -73l-4 -23h107v-102h-123l-18 -116q-13 -79 -23 -111t-30 -52q-39 -40 -121 -40q-81 0 -140 26l28 104q46 -18 74 -18q27 0 38 19.5t21 84.5z" />
<glyph horiz-adv-x="580" d="M6 181l26 64h56v14q0 11 1 30h-83l26 64h66q55 200 272 200q108 0 190 -39l-43 -106q-70 35 -130 35q-101 0 -134 -90h242l-26 -64h-224q-2 -14 -2 -27q0 -9 1 -17h208l-26 -64h-167q11 -43 43.5 -63t92.5 -20q67 0 132 34l33 -108q-72 -36 -186 -36q-118 0 -184.5 46 t-93.5 147h-90z" />
<glyph horiz-adv-x="580" d="M215 0v144h-156v64h156v15l-20 29h-136v64h93l-152 225h184l110 -177l109 177h178l-151 -225h90v-64h-133l-20 -29v-15h153v-64h-153v-144h-152z" />
<glyph horiz-adv-x="831" d="M187 553q77 0 118 -41.5t41 -117.5t-41 -117.5t-118 -41.5t-118 41.5t-41 119.5q0 74 41.5 115.5t117.5 41.5zM187 473q-24 0 -38 -21t-14 -57q0 -37 14 -58.5t38 -21.5t38 21t14 58t-14 58t-38 21zM237 -12l261 565h96l-261 -565h-96zM644 306q76 0 117.5 -41t41.5 -118 q0 -76 -41.5 -117.5t-117.5 -41.5q-77 0 -118 41.5t-41 119.5q0 74 41.5 115.5t117.5 41.5zM644 226q-24 0 -38 -21t-14 -57q0 -37 14 -58.5t38 -21.5t38 21t14 58t-14 58t-38 21z" />
<glyph horiz-adv-x="1190" d="M187 553q77 0 118 -41.5t41 -117.5t-41 -117.5t-118 -41.5t-118 41.5t-41 119.5q0 74 41.5 115.5t117.5 41.5zM187 473q-24 0 -38 -21t-14 -57q0 -37 14 -58.5t38 -21.5t38 21t14 58t-14 58t-38 21zM237 -12l261 565h96l-261 -565h-96zM644 306q76 0 117.5 -41t41.5 -118 q0 -76 -41.5 -117.5t-117.5 -41.5q-77 0 -118 41.5t-41 119.5q0 74 41.5 115.5t117.5 41.5zM644 226q-24 0 -38 -21t-14 -57q0 -37 14 -58.5t38 -21.5t38 21t14 58t-14 58t-38 21zM1003 306q77 0 118 -41t41 -118q0 -76 -41.5 -117.5t-117.5 -41.5q-77 0 -118 41.5 t-41 119.5q0 74 41.5 115.5t117.5 41.5zM1003 226q-24 0 -38 -21t-14 -57q0 -37 14 -58.5t38 -21.5t38 21t14 58t-14 58t-38 21z" />
<glyph horiz-adv-x="500" d="M201 -32h166l-145 -153h-138z" />
</font>
</defs>
</svg>
