<?xml version="1.0" standalone="no"?>
<!DOCTYPE svg PUBLIC "-//W3C//DTD SVG 1.1//EN" "http://www.w3.org/Graphics/SVG/1.1/DTD/svg11.dtd" >
<svg xmlns="http://www.w3.org/2000/svg">
<metadata></metadata>
<defs>
<font id="siemens_sansbold" horiz-adv-x="500" >
<font-face units-per-em="1000" ascent="800" descent="-200" />
<missing-glyph horiz-adv-x="250" />
<glyph unicode="fi" horiz-adv-x="640" d="M109 0v421h-81v89h81v40q0 102 38 147.5t123 45.5q44 0 94 -14l-10 -93q-29 14 -59 14q-37 0 -53 -27.5t-16 -89.5v-23h117v-89h-117v-421h-117zM442 0v510h117v-510h-117zM501 747q31 0 51.5 -20.5t20.5 -51.5q0 -32 -20 -52.5t-52 -20.5t-52.5 20.5t-20.5 52.5 q0 31 20.5 51.5t52.5 20.5z" />
<glyph unicode="fl" horiz-adv-x="642" d="M109 0v421h-81v89h81v40q0 102 38 147.5t123 45.5q44 0 94 -14l-10 -93q-29 14 -59 14q-37 0 -53 -27.5t-16 -89.5v-23h117v-89h-117v-421h-117zM442 0v731h117v-731h-117z" />
<glyph unicode=" "  horiz-adv-x="250" />
<glyph unicode="&#x09;" horiz-adv-x="250" />
<glyph unicode="&#xa0;" horiz-adv-x="250" />
<glyph unicode="!" horiz-adv-x="339" d="M235 209h-102l-9 483h120zM185 144q33 0 55 -22t22 -55q0 -34 -22 -56t-55 -22q-34 0 -56 22t-22 56q0 33 22.5 55t55.5 22z" />
<glyph unicode="&#x22;" horiz-adv-x="324" d="M25 473l-5 257h119l-5 -257h-109zM190 474l-5 257h118l-5 -257h-108z" />
<glyph unicode="#" horiz-adv-x="576" d="M94 0l26 193h-83v87h95l18 129h-82v87h94l27 196h96l-27 -196h100l27 196h95l-27 -196h86v-87h-98l-17 -129h84v-87h-97l-26 -193h-96l27 193h-100l-26 -193h-96zM228 280h100l18 129h-100z" />
<glyph unicode="$" horiz-adv-x="576" d="M54 27l16 107q88 -46 177 -49v219q-93 39 -116 54q-78 51 -78 147q0 62 27.5 108t78.5 68q28 13 92 20v81h64v-80q74 -5 165 -34l-22 -105q-70 35 -143 42v-201q4 -1 13 -4.5t28 -11t35 -13.5q123 -46 123 -181q0 -136 -121 -185q-24 -9 -82 -18v-84h-64v82 q-61 2 -100.5 9.5t-92.5 28.5zM251 426v176q-76 -16 -76 -85q0 -33 16.5 -53t59.5 -38zM311 282v-193q81 14 81 97q0 37 -17.5 57.5t-63.5 38.5z" />
<glyph unicode="%" horiz-adv-x="754" d="M177 698q149 0 149 -196t-149 -196t-149 198q0 194 149 194zM177 631q-61 0 -61 -128q0 -130 61 -130t61 129t-61 129zM201 -18l274 728h79l-274 -728h-79zM577 386q149 0 149 -196t-149 -196t-149 198q0 194 149 194zM577 319q-61 0 -61 -128q0 -130 61 -130t61 129 t-61 129z" />
<glyph unicode="&#x26;" horiz-adv-x="698" d="M542 0l-52 58q-84 -69 -201 -69q-109 0 -173.5 55t-64.5 147q0 67 34 112t110 78q-44 50 -61 84t-17 74q0 75 54.5 119.5t146.5 44.5q96 0 149.5 -43.5t53.5 -121.5q0 -64 -37 -106.5t-122 -74.5l135 -148q48 61 55 170h107q-9 -143 -89 -248l120 -131h-148zM305 420 l11 5q49 22 69.5 45.5t20.5 57.5q0 38 -23 60t-62 22q-38 0 -61 -21t-23 -56q0 -53 68 -113zM421 132l-164 181q-82 -45 -82 -119q0 -50 34.5 -80.5t89.5 -30.5q66 0 122 49z" />
<glyph unicode="'" horiz-adv-x="180" d="M36 474l-5 257h119l-5 -257h-109z" />
<glyph unicode="(" horiz-adv-x="360" d="M348 -88l-64 -70q-231 184 -231 461q0 275 231 461l64 -70q-178 -154 -178 -391t178 -391z" />
<glyph unicode=")" horiz-adv-x="360" d="M12 694l64 70q231 -184 231 -461t-231 -461l-64 70q178 154 178 391t-178 391z" />
<glyph unicode="*" horiz-adv-x="576" d="M90 537l29 96l136 -60l-16 147h99l-17 -147l136 60l30 -96l-143 -27l96 -107l-82 -59l-70 127l-69 -127l-82 59l96 107z" />
<glyph unicode="+" horiz-adv-x="576" d="M239 209h-193v92h193v209h99v-209h193v-92h-193v-209h-99v209z" />
<glyph unicode="," horiz-adv-x="288" d="M102 139h135l-100 -261h-113z" />
<glyph unicode="-" horiz-adv-x="311" d="M40 236v92h231v-92h-231z" />
<glyph unicode="." horiz-adv-x="288" d="M145 144q33 0 55 -22t22 -55q0 -34 -22 -56t-55 -22q-34 0 -56 22t-22 56q0 33 22.5 55t55.5 22z" />
<glyph unicode="/" horiz-adv-x="266" d="M-12 -24l180 730h107l-180 -730h-107z" />
<glyph unicode="0" horiz-adv-x="576" d="M288 703q124 0 183.5 -87.5t59.5 -269.5t-59.5 -269.5t-183.5 -87.5q-125 0 -184 88t-59 273q0 179 60 266t183 87zM288 605q-121 0 -121 -256q0 -134 29.5 -198t91.5 -64q121 0 121 259t-121 259z" />
<glyph unicode="1" horiz-adv-x="576" d="M260 0v558l-126 -85l-52 95l191 124h105v-692h-118z" />
<glyph unicode="2" horiz-adv-x="576" d="M54 0v96q187 172 256.5 259t69.5 150q0 45 -33 73t-86 28q-74 0 -166 -52l-29 101q102 48 208 48q108 0 168 -50t60 -141q0 -65 -30.5 -123.5t-109.5 -143.5q-74 -79 -148 -147h293v-98h-453z" />
<glyph unicode="3" horiz-adv-x="576" d="M47 25l26 99q84 -39 164 -39q65 0 101.5 31t36.5 86q0 113 -176 113q-27 0 -58 -2v94q25 -2 46 -2q181 0 181 108q0 44 -31.5 68.5t-86.5 24.5q-67 0 -158 -38l-24 98q94 37 197 37q107 0 166 -47t59 -132q0 -137 -141 -164q148 -21 148 -163q0 -100 -71 -157 q-62 -52 -181 -52q-103 0 -198 37z" />
<glyph unicode="4" horiz-adv-x="576" d="M327 0v175h-303v101l281 416h139v-425h93v-92h-93v-175h-117zM329 267v292l-192 -292h192z" />
<glyph unicode="5" horiz-adv-x="576" d="M55 31l34 100q83 -45 155 -45q66 0 105 38.5t39 103.5q0 61 -38 93.5t-108 32.5q-69 0 -159 -29l11 367h391v-98h-274l-6 -154q41 7 75 7q110 0 170 -57.5t60 -163.5q0 -113 -71 -178q-63 -59 -183 -59q-110 0 -201 42z" />
<glyph unicode="6" horiz-adv-x="576" d="M481 696l-9 -102q-51 12 -81 12q-85 0 -138.5 -57.5t-64.5 -158.5q57 60 143 60q92 0 145 -59t53 -161q0 -112 -63 -176.5t-172 -64.5q-116 0 -176.5 74t-60.5 216q0 108 29.5 198.5t82.5 143.5q79 82 221 82q31 0 91 -7zM299 355q-53 0 -85.5 -37t-32.5 -97 q0 -63 31 -100t84 -37q51 0 81.5 37.5t30.5 100.5q0 61 -29.5 97t-79.5 36z" />
<glyph unicode="7" horiz-adv-x="576" d="M229 0h-131l286 594h-329v98h457v-94z" />
<glyph unicode="8" horiz-adv-x="576" d="M180 361q-65 34 -90.5 69.5t-25.5 90.5q0 84 60.5 133t163.5 49t163.5 -49t60.5 -133q0 -53 -25 -87.5t-87 -68.5q69 -31 98.5 -71t29.5 -102q0 -95 -64 -149t-177 -54q-112 0 -176 53t-64 146q0 86 63 136q21 17 70 37zM298 407l5 2q42 16 65.5 45t23.5 65 q0 42 -28 66.5t-76 24.5t-76 -24t-28 -65q0 -39 27.5 -66.5t86.5 -47.5zM283 316q-114 -37 -114 -128q0 -48 32.5 -77t86.5 -29q52 0 85 29t33 76q0 87 -123 129z" />
<glyph unicode="9" horiz-adv-x="576" d="M94 -4l10 102q51 -12 80 -12q85 0 138.5 57.5t64.5 158.5q-57 -60 -143 -60q-92 0 -145 59t-53 161q0 111 62.5 176t170.5 65q118 0 178.5 -73.5t60.5 -216.5q0 -108 -29.5 -198.5t-81.5 -143.5q-81 -82 -221 -82q-30 0 -92 7zM279 608q-51 0 -81.5 -37.5t-30.5 -101.5 q0 -61 29.5 -96.5t79.5 -35.5q53 0 85.5 37t32.5 96q0 64 -31 101t-84 37z" />
<glyph unicode=":" horiz-adv-x="288" d="M160 144q33 0 55 -22t22 -55q0 -34 -22 -56t-55 -22q-34 0 -56 22t-22 56q0 33 22.5 55t55.5 22zM160 504q33 0 55 -22t22 -55q0 -34 -22 -56t-55 -22q-34 0 -56 22t-22 56q0 33 22.5 55t55.5 22z" />
<glyph unicode=";" horiz-adv-x="288" d="M93 139h135l-100 -261h-113zM159 504q33 0 55 -22t22 -55q0 -34 -22 -56t-55 -22q-34 0 -56 22t-22 56q0 33 22.5 55t55.5 22z" />
<glyph unicode="&#x3c;" horiz-adv-x="576" d="M184 255l344 -163v-106l-485 230v78l485 230v-106z" />
<glyph unicode="=" horiz-adv-x="576" d="M46 297v92h485v-92h-485zM46 120v92h485v-92h-485z" />
<glyph unicode="&#x3e;" horiz-adv-x="576" d="M392 255l-344 163v106l485 -230v-78l-485 -230v106z" />
<glyph unicode="?" horiz-adv-x="452" d="M258 208h-109v48q0 70 12.5 95.5t70.5 71.5q50 40 64.5 59.5t14.5 46.5q0 38 -24.5 60.5t-64.5 22.5q-59 0 -145 -48l-33 89q101 51 193 51t146 -45.5t54 -123.5q0 -48 -25 -85.5t-93 -89.5q-40 -31 -50.5 -49.5t-10.5 -57.5v-45zM205 144q33 0 55 -22t22 -55 q0 -34 -22 -56t-55 -22q-34 0 -56 22t-22 56q0 33 22.5 55t55.5 22z" />
<glyph unicode="@" horiz-adv-x="830" d="M596 92l14 -75q-87 -28 -180 -28q-173 0 -280.5 99t-107.5 259q0 156 108.5 256t278.5 100q161 0 260 -85t99 -223q0 -102 -57.5 -172t-141.5 -70q-79 0 -87 69q-49 -69 -132 -69q-68 0 -108 39.5t-40 107.5q0 98 69 164.5t170 66.5q78 0 144 -24l-32 -203q-5 -25 -5 -44 q0 -34 30 -34q43 0 75 53t32 123q0 104 -73 163q-81 64 -201 64q-133 0 -219.5 -80.5t-86.5 -203.5q0 -125 86.5 -203t226.5 -78q74 0 158 28zM483 334l20 122q-27 7 -40 7q-56 0 -99 -49t-43 -114q0 -34 17.5 -54t47.5 -20q47 0 74 38q14 20 23 70z" />
<glyph unicode="A" horiz-adv-x="671" d="M462 198h-260l-71 -198h-121l256 692h134l262 -692h-129zM429 293l-58 164q-19 51 -39 119q-14 -49 -39 -119l-58 -164h194z" />
<glyph unicode="B" horiz-adv-x="595" d="M86 0v692h185q72 0 111 -7t71 -25q37 -20 57.5 -60.5t20.5 -90.5q0 -125 -121 -156q136 -28 136 -162q0 -106 -79 -157q-54 -34 -174 -34h-207zM205 393h56q80 0 110 20q37 25 37 81q0 61 -38 85q-33 21 -114 21h-51v-207zM205 92h57q84 0 114 16q45 24 45 91 q0 66 -53 92q-34 17 -105 17h-58v-216z" />
<glyph unicode="C" horiz-adv-x="611" d="M559 133l34 -98q-101 -46 -205 -46q-158 0 -248 93.5t-90 258.5q0 167 89.5 264.5t242.5 97.5q101 0 204 -46l-40 -95q-83 43 -158 43q-97 0 -154.5 -70.5t-57.5 -190.5q0 -119 58.5 -188t159.5 -69q76 0 165 46z" />
<glyph unicode="D" horiz-adv-x="686" d="M86 0v692h174q100 0 161 -15.5t107 -52.5q109 -88 109 -277q0 -209 -128 -294q-44 -29 -102 -41t-157 -12h-164zM207 98h48q115 0 170 39q41 28 63.5 83t22.5 126q0 148 -83 211q-30 22 -66.5 29.5t-111.5 7.5h-43v-496z" />
<glyph unicode="E" horiz-adv-x="560" d="M86 0v692h405v-98h-284v-194h270v-98h-270v-204h299v-98h-420z" />
<glyph unicode="F" horiz-adv-x="542" d="M86 0v692h407v-98h-286v-194h272v-98h-272v-302h-121z" />
<glyph unicode="G" horiz-adv-x="706" d="M624 374v-342q-123 -43 -231 -43q-161 0 -252 93t-91 256q0 169 93.5 267t255.5 98q116 0 223 -48l-40 -97q-93 47 -181 47q-117 0 -176 -84q-49 -71 -49 -180q0 -116 60.5 -185t163.5 -69q52 0 105 18v171h-127v98h246z" />
<glyph unicode="H" horiz-adv-x="703" d="M86 0v692h121v-290h290v290h121v-692h-121v304h-290v-304h-121z" />
<glyph unicode="I" horiz-adv-x="293" d="M86 0v692h121v-692h-121z" />
<glyph unicode="J" horiz-adv-x="395" d="M195 692h121v-433q0 -94 -8 -135.5t-31 -72.5q-48 -62 -157 -62q-66 0 -121 20l11 101q49 -21 90 -21q61 0 81 40q14 28 14 126v437z" />
<glyph unicode="K" horiz-adv-x="635" d="M86 0v692h121v-326l273 326h140l-275 -324l286 -368h-148l-276 359v-359h-121z" />
<glyph unicode="L" horiz-adv-x="505" d="M86 0v692h121v-594h299v-98h-420z" />
<glyph unicode="M" horiz-adv-x="903" d="M86 0v692h176l155 -439q18 -55 37 -121q15 57 37 121l153 439h173v-692h-118v567q-17 -61 -47 -151l-144 -416h-115l-143 407q-23 66 -51 160v-567h-113z" />
<glyph unicode="N" horiz-adv-x="724" d="M86 0v692h135l222 -368q38 -64 68 -126q3 -4 13 -25q-2 43 -2 119v400h116v-692h-134l-217 357q-41 69 -87 163q2 -57 2 -151v-369h-116z" />
<glyph unicode="O" horiz-adv-x="741" d="M371 703q159 0 244 -110q77 -100 77 -247q0 -173 -101 -274q-80 -83 -220 -83q-159 0 -244 110q-77 99 -77 251q0 80 26.5 151t74.5 119q80 83 220 83zM371 605q-89 0 -142 -69.5t-53 -186.5q0 -122 52 -192t143 -70q90 0 142.5 70t52.5 189t-52.5 189t-142.5 70z" />
<glyph unicode="P" horiz-adv-x="551" d="M86 0v692h167q79 0 123.5 -9t76.5 -32q78 -56 78 -167t-81 -167q-59 -41 -187 -41h-56v-276h-121zM205 371h39q82 0 115 17q48 24 48 93q0 66 -44 94q-34 22 -113 22h-45v-226z" />
<glyph unicode="Q" horiz-adv-x="741" d="M644 -95l-61 -83q-123 68 -229 167q-110 7 -176 58q-61 46 -94.5 125t-33.5 174q0 171 101 274q80 83 220 83q159 0 244 -110q77 -100 77 -247q0 -121 -50.5 -208t-142.5 -125q45 -45 145 -108zM371 605q-89 0 -142 -69.5t-53 -186.5q0 -122 52 -192t143 -70 q90 0 142.5 70t52.5 189t-52.5 189t-142.5 70z" />
<glyph unicode="R" horiz-adv-x="591" d="M86 0v692h203q116 0 169 -36q74 -49 74 -148q0 -68 -35.5 -113.5t-102.5 -61.5q35 -13 51.5 -34.5t49.5 -97.5l87 -201h-130l-63 150q-39 92 -65.5 116.5t-86.5 24.5h-30v-291h-121zM205 386h46q70 0 105 17q52 28 52 90q0 59 -42 85q-33 19 -109 19h-52v-211z" />
<glyph unicode="S" horiz-adv-x="551" d="M53 24l16 106q112 -43 186 -43q56 0 88 27t32 73q0 38 -24 59t-110 58q-101 43 -134 69q-57 47 -57 127q0 94 62 148.5t169 54.5q85 0 194 -35l-24 -103q-94 40 -165 40q-50 0 -80 -23.5t-30 -63.5q0 -35 25 -56.5t100 -52.5q108 -44 145 -75q57 -49 57 -138 q0 -98 -64 -152.5t-180 -54.5q-104 0 -206 35z" />
<glyph unicode="T" horiz-adv-x="545" d="M211 0v594h-201v98h526v-98h-204v-594h-121z" />
<glyph unicode="U" horiz-adv-x="695" d="M80 692h121v-410q0 -111 31 -150q36 -45 116 -45q96 0 129 60q22 39 22 129v416h117v-385q0 -109 -8.5 -153.5t-35.5 -79.5q-66 -85 -224 -85q-176 0 -237 103q-19 32 -25 74.5t-6 140.5v385z" />
<glyph unicode="V" horiz-adv-x="636" d="M253 0l-253 692h128l137 -382q39 -110 57 -174q29 98 58 175l137 381h120l-252 -692h-132z" />
<glyph unicode="W" horiz-adv-x="924" d="M192 0l-162 692h122l83 -378q17 -76 32 -158q14 66 37 153l98 383h128l94 -370q26 -101 38 -159q13 72 33 158l85 371h115l-166 -692h-129l-96 371q-19 73 -41 171q-24 -103 -42 -169l-99 -373h-130z" />
<glyph unicode="X" horiz-adv-x="680" d="M20 0l247 354l-235 338h141l170 -246l174 246h137l-241 -339l246 -353h-146l-174 255l-177 -255h-142z" />
<glyph unicode="Y" horiz-adv-x="615" d="M248 0v296l-254 396h141l128 -203q28 -46 49 -87q31 58 50 88l127 202h133l-253 -396v-296h-121z" />
<glyph unicode="Z" horiz-adv-x="573" d="M32 0v91l349 503h-337v98h484v-91l-348 -503h359v-98h-507z" />
<glyph unicode="[" horiz-adv-x="360" d="M92 -147v897h211v-93h-99v-711h99v-93h-211z" />
<glyph unicode="\" horiz-adv-x="266" d="M171 -24l-180 730h107l180 -730h-107z" />
<glyph unicode="]" horiz-adv-x="360" d="M268 750v-897h-210v93h98v711h-98v93h210z" />
<glyph unicode="^" horiz-adv-x="576" d="M288 566l-141 -257h-120l218 383h86l218 -383h-120z" />
<glyph unicode="_" d="M-34 -215v89h569v-89h-569z" />
<glyph unicode="`" d="M231 731l121 -146h-109l-154 146h142z" />
<glyph unicode="a" horiz-adv-x="554" d="M364 0l-4 58q-37 -38 -72.5 -53.5t-85.5 -15.5q-77 0 -120.5 41t-43.5 113q0 99 81 143q49 26 151 26q14 0 83 -3v10q0 56 -29 86t-84 30q-63 0 -138 -43l-31 84q90 45 185 45q124 0 176 -67q22 -27 30 -63.5t8 -108.5v-152q0 -87 5 -130h-111zM353 140v96q-23 2 -53 2 q-141 0 -141 -92q0 -35 21.5 -56t57.5 -21q66 0 115 71z" />
<glyph unicode="b" horiz-adv-x="596" d="M189 0h-113q5 72 5 179v552h117v-285q59 75 149 75q93 0 149 -72.5t56 -192.5q0 -129 -64 -204q-53 -63 -141 -63q-50 0 -85.5 19t-68.5 65zM198 346v-180q53 -87 121 -87q51 0 81.5 48.5t30.5 129.5q0 80 -31 127t-84 47q-70 0 -118 -85z" />
<glyph unicode="c" horiz-adv-x="482" d="M425 118l38 -85q-69 -44 -165 -44q-119 0 -186 70t-67 194q0 126 64 197t178 71q87 0 165 -39l-35 -87q-60 37 -118 37q-64 0 -98.5 -46t-34.5 -131q0 -83 37.5 -129.5t105.5 -46.5q60 0 116 39z" />
<glyph unicode="d" horiz-adv-x="596" d="M399 731h117v-552q0 -114 5 -179h-113l-4 73q-33 -46 -68 -65t-86 -19q-101 0 -157 83q-48 74 -48 184q0 120 56 192.5t149 72.5q90 0 149 -75v285zM399 166v180q-48 85 -118 85q-53 0 -84 -47t-31 -127q0 -81 30.5 -129.5t81.5 -48.5q67 0 121 87z" />
<glyph unicode="e" horiz-adv-x="566" d="M524 218h-356q13 -141 147 -141q75 0 152 49l41 -86q-89 -51 -196 -51q-128 0 -197.5 69t-69.5 196q0 124 65.5 195.5t178.5 71.5q162 0 210 -125q24 -62 25 -178zM168 300h236q-1 64 -31.5 99.5t-83.5 35.5t-85.5 -36t-35.5 -99z" />
<glyph unicode="f" horiz-adv-x="370" d="M109 0v421h-81v89h81v34q0 93 28 136q39 63 134 63q43 0 93 -14l-10 -93q-29 14 -59 14q-37 0 -53 -27t-16 -90v-23h117v-89h-117v-421h-117z" />
<glyph unicode="g" horiz-adv-x="601" d="M411 510h112q-5 -155 -5 -201v-251q0 -87 -9 -129t-35 -75q-65 -80 -209 -80q-109 0 -198 45l36 87q76 -43 153 -43q97 0 129 68q16 35 16 119v36q-65 -74 -152 -74q-93 0 -148.5 69t-55.5 184q0 116 56 186t149 70q100 0 157 -82zM401 189v149q-20 44 -52.5 68.5 t-70.5 24.5q-52 0 -82 -45.5t-30 -122.5q0 -73 31 -117t83 -44q36 0 68 23t53 64z" />
<glyph unicode="h" horiz-adv-x="613" d="M83 0v731h117v-289q71 79 173 79t140 -72q22 -41 22 -142v-307h-117v301q0 59 -10 86q-17 44 -73 44q-72 0 -135 -86v-345h-117z" />
<glyph unicode="i" horiz-adv-x="280" d="M82 0v510h117v-510h-117zM141 747q31 0 51.5 -20.5t20.5 -51.5q0 -32 -20 -52.5t-52 -20.5t-52.5 20.5t-20.5 52.5q0 31 20.5 51.5t52.5 20.5z" />
<glyph unicode="j" horiz-adv-x="289" d="M90 510h117v-513q0 -123 -29 -164q-41 -59 -133 -59q-36 0 -84 11l10 91q33 -9 50 -9q37 0 53 26t16 87v530zM149 748q32 0 52.5 -20.5t20.5 -52.5t-20.5 -52.5t-52.5 -20.5t-52.5 20.5t-20.5 53.5q0 31 21 51.5t52 20.5z" />
<glyph unicode="k" horiz-adv-x="539" d="M83 0v731h117v-436l181 215h135l-197 -224l216 -286h-142l-193 262v-262h-117z" />
<glyph unicode="l" horiz-adv-x="282" d="M83 0v731h117v-731h-117z" />
<glyph unicode="m" horiz-adv-x="904" d="M84 0v331q0 75 -5 179h111l4 -75q43 47 80.5 66.5t87.5 19.5q107 0 138 -93q45 52 83.5 72.5t88.5 20.5q95 0 132 -72q21 -43 21 -142v-307h-117v301q0 62 -9 86q-16 44 -65 44q-64 0 -121 -86v-345h-117v313q0 62 -17 90t-55 28q-63 0 -123 -86v-345h-117z" />
<glyph unicode="n" horiz-adv-x="613" d="M84 0v331q0 78 -5 179h111l3 -75q47 48 87 67t94 19q101 0 139 -72q22 -41 22 -142v-307h-117v301q0 59 -10 86q-17 44 -73 44q-69 0 -134 -86v-345h-117z" />
<glyph unicode="o" horiz-adv-x="589" d="M295 521q116 0 183 -71t67 -195t-67 -195t-183 -71q-117 0 -183.5 71.5t-66.5 197.5q0 122 67.5 192.5t182.5 70.5zM295 432q-60 0 -94.5 -47t-34.5 -128q0 -84 34 -131.5t95 -47.5q60 0 94.5 47.5t34.5 129.5t-34.5 129.5t-94.5 47.5z" />
<glyph unicode="p" horiz-adv-x="596" d="M81 -215v521q0 126 -5 204h113l4 -70q34 43 70 62t84 19q93 0 149 -72.5t56 -192.5q0 -129 -64 -204q-53 -63 -142 -63q-48 0 -82.5 18t-65.5 58v-280h-117zM198 347v-181q54 -87 121 -87q51 0 81.5 48.5t30.5 129.5q0 80 -31 127t-84 47q-66 0 -118 -84z" />
<glyph unicode="q" horiz-adv-x="596" d="M408 510h113q-5 -73 -5 -204v-521h-117v280q-58 -76 -149 -76q-102 0 -158 83q-48 74 -48 184q0 120 56 192.5t149 72.5q48 0 84 -18.5t71 -62.5zM399 166v181q-52 84 -119 84q-53 0 -84 -47t-31 -127q0 -81 30.5 -129.5t81.5 -48.5q68 0 122 87z" />
<glyph unicode="r" horiz-adv-x="382" d="M83 0v318q0 69 -4 192h110l3 -96q45 104 135 104q22 0 45 -6l-7 -103q-24 4 -40 4q-44 0 -77 -30.5t-49 -86.5v-296h-116z" />
<glyph unicode="s" horiz-adv-x="455" d="M45 29l31 89q74 -41 135 -41q40 0 62 17t22 48q0 29 -20 43q-14 11 -82 35q-77 28 -106 53q-39 36 -39 94q0 71 50.5 112.5t137.5 41.5q82 0 166 -37l-30 -89q-67 39 -131 39q-36 0 -57 -15.5t-21 -42.5q0 -28 28 -44q16 -9 80 -33q79 -29 109.5 -61t30.5 -85 q0 -75 -54 -119.5t-145 -44.5q-88 0 -167 40z" />
<glyph unicode="t" horiz-adv-x="373" d="M110 421h-82v89h82v111l117 22v-133h116v-89h-116v-237q0 -56 15 -78.5t53 -22.5q22 0 55 12l11 -89q-52 -17 -104 -17q-87 0 -122 53q-25 38 -25 136v243z" />
<glyph unicode="u" horiz-adv-x="608" d="M525 510v-331q0 -94 5 -179h-111l-3 75q-45 -47 -85.5 -66.5t-92.5 -19.5q-100 0 -137 72q-22 43 -22 142v307h117v-301q0 -62 10 -86q17 -44 70 -44q69 0 132 86v345h117z" />
<glyph unicode="v" horiz-adv-x="539" d="M205 0l-193 510h121l106 -282q22 -59 38 -112q9 33 37 113l103 281h111l-191 -510h-132z" />
<glyph unicode="w" horiz-adv-x="829" d="M171 0l-147 510h116l68 -246q14 -50 34 -143q18 77 38 147l72 242h125l75 -240q27 -93 41 -149q10 42 14 63q1 5 5.5 21.5t9 32.5t8.5 29l69 243h106l-150 -510h-124l-77 245q-24 79 -43 153q-15 -62 -42 -155l-72 -243h-126z" />
<glyph unicode="x" horiz-adv-x="550" d="M15 0l197 258l-186 252h135l118 -170l125 170h129l-190 -247l194 -263h-134l-126 179l-133 -179h-129z" />
<glyph unicode="y" horiz-adv-x="537" d="M212 8l-205 502h124l102 -258q18 -44 43 -117q18 55 43 122l96 253h114l-206 -521q-52 -130 -94.5 -173t-120.5 -43q-45 0 -102 18l20 91q37 -15 64 -15q40 0 67 31t55 110z" />
<glyph unicode="z" horiz-adv-x="464" d="M30 0v79l250 342h-237v89h381v-83l-248 -338h256v-89h-402z" />
<glyph unicode="{" horiz-adv-x="360" d="M34 262v79q56 3 71 21.5t15 82.5v128q0 107 31.5 142t128.5 35h57v-85h-45q-37 0 -48 -17t-11 -72v-150q0 -67 -18.5 -90t-77.5 -34q60 -11 78 -34.5t18 -90.5v-150q0 -55 11 -72t48 -17h45v-85h-57q-97 0 -128.5 35t-31.5 142v128q0 64 -15 82.5t-71 21.5z" />
<glyph unicode="|" horiz-adv-x="288" d="M87 -215v907h115v-907h-115z" />
<glyph unicode="}" horiz-adv-x="360" d="M326 341v-79q-56 -3 -71 -21.5t-15 -82.5v-128q0 -107 -31.5 -142t-128.5 -35h-57v85h45q37 0 48 17t11 72v150q0 67 18 90.5t78 34.5q-59 11 -77.5 34t-18.5 90v150q0 55 -11 72t-48 17h-45v85h57q97 0 128.5 -35t31.5 -142v-128q0 -64 15 -82.5t71 -21.5z" />
<glyph unicode="~" horiz-adv-x="576" d="M102 172l-66 45q41 70 74 98t75 28q26 0 50.5 -9.5t74.5 -38.5q59 -33 81 -33q21 0 40 16.5t45 58.5l65 -44q-40 -73 -71 -99.5t-74 -26.5q-46 0 -122 43q-44 26 -58.5 32t-29.5 6q-20 0 -36 -14.5t-48 -61.5z" />
<glyph unicode="&#xa1;" horiz-adv-x="339" d="M133 301h102l9 -464h-120zM184 520q34 0 56 -22t22 -56q0 -33 -22.5 -55t-55.5 -22t-55 22t-22 56q0 33 22 55t55 22z" />
<glyph unicode="&#xa2;" horiz-adv-x="576" d="M299 86v82q-89 8 -136 46q-86 66 -86 213q0 81 28 143t80 94q39 24 114 31v85h65v-86q66 -7 118 -32l-28 -93q-47 27 -90 35v-345q45 6 98 41l24 -93q-50 -31 -122 -39v-82h-65zM299 261v343q-100 -20 -100 -171q0 -74 25.5 -118.5t74.5 -53.5z" />
<glyph unicode="&#xa3;" horiz-adv-x="576" d="M46 0v95h75q12 23 16 55t4 107v58h-86v86h86v49q0 80 9.5 119t36.5 69q58 64 172 64q79 0 174 -40l-30 -99q-83 41 -136 41q-58 0 -82.5 -37.5t-24.5 -124.5v-41h153v-86h-153v-58q0 -75 -3.5 -106t-14.5 -56h282v-95h-478z" />
<glyph unicode="&#xa4;" horiz-adv-x="576" d="M65 71l-60 60l65 66q-44 67 -44 152q0 86 44 153l-65 66l60 60l63 -64q67 51 160 51t160 -51l63 64l59 -60l-65 -66q44 -68 44 -153t-44 -152l65 -66l-59 -60l-63 63q-67 -50 -160 -50q-94 0 -160 50zM287 527q-74 0 -120.5 -48.5t-46.5 -126.5q0 -81 48 -132 q45 -48 120 -48t121 49t46 128q0 80 -46 129t-122 49z" />
<glyph unicode="&#xa5;" horiz-adv-x="576" d="M229 0v185h-160v64h160v47l-10 18h-152v64h119l-182 314h137l150 -272l150 272h131l-182 -314h118v-64h-151l-10 -18v-47h160v-64h-160v-185h-118z" />
<glyph unicode="&#xa6;" horiz-adv-x="288" d="M87 412v280h115v-280h-115zM87 0v280h115v-280h-115z" />
<glyph unicode="&#xa7;" horiz-adv-x="576" d="M76 -107l31 95q83 -39 156 -39q98 0 98 68q0 30 -26 50q-19 14 -100 47q-80 31 -109 58q-42 36 -42 96q0 78 85 140q-40 27 -56 55.5t-16 72.5q0 79 54 123t151 44q91 0 179 -40l-31 -95q-79 37 -142 37q-40 0 -62.5 -17t-22.5 -48t27 -49q24 -16 100 -46q80 -30 109 -58 q39 -34 39 -94q0 -43 -19 -76t-62 -66q70 -46 70 -126q0 -82 -57 -128t-158 -46q-105 0 -196 42zM263 362l-22 10q-46 -39 -46 -78q0 -34 47 -61q15 -9 82 -37l22 -9q41 42 41 79q0 32 -38 57q-22 13 -86 39z" />
<glyph unicode="&#xa8;" d="M146 732q31 0 50 -19t19 -49t-19 -49.5t-49 -19.5q-31 0 -50 19.5t-19 50.5q0 29 19.5 48t48.5 19zM353 732q31 0 50 -19t19 -49t-19 -49.5t-49 -19.5q-31 0 -50 19.5t-19 50.5q0 29 19.5 48t48.5 19z" />
<glyph unicode="&#xa9;" horiz-adv-x="800" d="M526 248l19 -65q-59 -27 -123 -27q-90 0 -142 50.5t-52 136.5q0 87 51 138t139 51q60 0 120 -25l-20 -63q-45 21 -88 21q-52 0 -82 -32.5t-30 -88.5t32 -88t88 -32q39 0 88 24zM400 702q154 0 255 -101t101 -255t-100.5 -255t-254.5 -101q-157 0 -257 101t-100 260 q0 150 102 250.5t254 100.5zM400 664q-133 0 -221.5 -89.5t-88.5 -224.5q0 -142 87 -232t224 -90q134 0 221.5 90t87.5 228t-88 228t-222 90z" />
<glyph unicode="&#xaa;" horiz-adv-x="360" d="M227 408l-3 30q-39 -36 -90 -36q-44 0 -69.5 23t-25.5 63q0 97 143 97q14 0 36 -1v8q0 50 -59 50q-37 0 -87 -20l-11 54q64 22 114 22q80 0 106 -41q10 -15 12.5 -31t2.5 -61v-77q0 -38 3 -80h-72zM218 487v51q-11 1 -23 1q-76 0 -76 -47q0 -33 39 -33q35 0 60 28z" />
<glyph unicode="&#xab;" horiz-adv-x="556" d="M389 255l125 -169l-77 -58l-178 227l178 226l77 -58zM161 255l126 -169l-77 -58l-179 227l179 226l77 -58z" />
<glyph unicode="&#xac;" horiz-adv-x="576" d="M407 75v214h-366v92h468v-306h-102z" />
<glyph unicode="&#xad;" horiz-adv-x="311" d="M40 236v92h231v-92h-231z" />
<glyph unicode="&#xae;" horiz-adv-x="600" d="M209 359v270h81q63 0 87 -12q35 -17 35 -63q0 -53 -58 -69q15 -7 22 -15t17 -30l34 -81h-66l-23 56q-13 32 -23.5 41t-33.5 9h-9v-106h-63zM272 506h10q34 0 46 7q18 11 18 35q0 20 -13 29t-44 9h-17v-80zM300 754q111 0 183.5 -73.5t72.5 -185.5t-72.5 -185.5 t-182.5 -73.5q-113 0 -185 73.5t-72 189.5q0 109 73.5 182t182.5 73zM300 718q-91 0 -151.5 -63t-60.5 -157q0 -99 59.5 -162.5t153.5 -63.5q92 0 151.5 63t59.5 160t-60 160t-152 63z" />
<glyph unicode="&#xaf;" d="M85 619v75h331v-75h-331z" />
<glyph unicode="&#xb0;" horiz-adv-x="332" d="M166 702q70 0 114 -43t44 -111q0 -69 -43.5 -112t-113.5 -43q-71 0 -114.5 43t-43.5 114q0 67 44 109.5t113 42.5zM166 647q-44 0 -70.5 -27t-26.5 -71q0 -47 26 -74.5t72 -27.5q44 0 70.5 27t26.5 73t-26.5 73t-71.5 27z" />
<glyph unicode="&#xb1;" horiz-adv-x="576" d="M46 291v91h193v135h99v-135h193v-91h-193v-133h-99v133h-193zM46 0v91h485v-91h-485z" />
<glyph unicode="&#xb2;" horiz-adv-x="388" d="M52 312v66q57 42 121 99q68 64 68 106q0 22 -17.5 35t-46.5 13q-40 0 -106 -31l-18 67q68 31 134 31q67 0 104 -28.5t37 -79.5q0 -34 -15.5 -63t-52.5 -66q-53 -51 -94 -83h165v-66h-279z" />
<glyph unicode="&#xb3;" horiz-adv-x="388" d="M48 327l15 67q60 -21 107 -21q35 0 54.5 14t19.5 39q0 54 -93 54q-3 0 -37 -2v60q18 -2 35 -2q91 0 91 52q0 20 -18.5 32t-50.5 12q-40 0 -95 -18l-13 65q66 19 124 19q68 0 105 -26t37 -74q0 -67 -73 -87q79 -20 79 -91q0 -55 -40.5 -84.5t-115.5 -29.5q-68 0 -131 21z " />
<glyph unicode="&#xb4;" d="M280 731h142l-154 -146h-109z" />
<glyph unicode="&#xb5;" horiz-adv-x="576" d="M74 -215v725h117v-294q0 -73 14 -100q21 -39 65 -39q31 0 56.5 22t55.5 74v337h117v-340q0 -74 4 -170h-110l-4 63q-51 -74 -123 -74q-49 0 -77 34v-238h-115z" />
<glyph unicode="&#xb6;" horiz-adv-x="660" d="M223 -118v409q-96 4 -149.5 56.5t-53.5 141.5q0 59 26 106t72 71q51 26 164 26h279v-810h-111v712h-116v-712h-111z" />
<glyph unicode="&#xb7;" horiz-adv-x="288" d="M145 362q33 0 55 -22t22 -55q0 -34 -22 -56t-55 -22q-34 0 -56 22.5t-22 56.5q0 32 22.5 54t55.5 22z" />
<glyph unicode="&#xb8;" d="M234 -33h131l-140 -150h-109z" />
<glyph unicode="&#xb9;" horiz-adv-x="388" d="M171 312v298l-81 -47l-31 59l122 70h73v-380h-83z" />
<glyph unicode="&#xba;" horiz-adv-x="360" d="M180 698q67 0 105 -39.5t38 -108.5t-38 -108.5t-105 -39.5t-105 39.5t-38 110.5q0 67 38.5 106.5t104.5 39.5zM180 637q-29 0 -46 -23.5t-17 -63.5t17 -63.5t46 -23.5t46 23.5t17 64.5q0 40 -17 63t-46 23z" />
<glyph unicode="&#xbb;" horiz-adv-x="556" d="M166 254l-125 169l77 58l179 -227l-179 -226l-77 57zM394 254l-125 169l77 58l178 -227l-178 -226l-77 57z" />
<glyph unicode="&#xbc;" horiz-adv-x="859" d="M160 312v298l-81 -47l-31 59l122 70h73v-380h-83zM230 -18l274 728h80l-274 -728h-80zM663 0v87h-187v66l162 227h107v-232h56v-61h-56v-87h-82zM667 148v168l-118 -168h118z" />
<glyph unicode="&#xbd;" horiz-adv-x="859" d="M158 312v298l-81 -47l-31 59l122 70h73v-380h-83zM217 -18l274 728h79l-274 -728h-79zM506 0v66q57 42 121 99q68 64 68 106q0 22 -17.5 35t-46.5 13q-41 0 -106 -32l-18 68q68 31 134 31q67 0 104 -28.5t37 -79.5q0 -34 -15.5 -63t-52.5 -66q-53 -51 -94 -83h165v-66 h-279z" />
<glyph unicode="&#xbe;" horiz-adv-x="859" d="M51 327l15 67q60 -21 107 -21q35 0 54.5 14t19.5 39q0 54 -93 54q-3 0 -37 -2v60q18 -2 35 -2q91 0 91 52q0 20 -18.5 32t-50.5 12q-40 0 -95 -18l-13 65q66 19 124 19q68 0 105 -26t37 -74q0 -67 -73 -87q79 -20 79 -91q0 -55 -40.5 -84.5t-115.5 -29.5q-68 0 -131 21z M257 -18l274 728h80l-274 -728h-80zM665 0v87h-187v66l162 227h107v-232h57v-61h-57v-87h-82zM669 148v168l-118 -168h118z" />
<glyph unicode="&#xbf;" horiz-adv-x="452" d="M193 302h109v-37q0 -70 -12.5 -95.5t-70.5 -71.5q-50 -40 -64.5 -59.5t-14.5 -45.5q0 -34 24 -54.5t64 -20.5q59 0 146 48l33 -89q-101 -51 -194 -51q-91 0 -145 43t-54 117q0 48 25 85.5t93 89.5q40 31 50.5 49.5t10.5 57.5v34zM247 520q34 0 56 -22t22 -56 q0 -33 -22.5 -55t-55.5 -22t-55 22t-22 56q0 33 22 55t55 22z" />
<glyph unicode="&#xc0;" horiz-adv-x="671" d="M462 198h-260l-71 -198h-121l256 692h134l262 -692h-129zM429 293l-58 164q-19 51 -39 119q-14 -49 -39 -119l-58 -164h194zM306 903l121 -146h-109l-154 146h142z" />
<glyph unicode="&#xc1;" horiz-adv-x="671" d="M462 198h-260l-71 -198h-121l256 692h134l262 -692h-129zM429 293l-58 164q-19 51 -39 119q-14 -49 -39 -119l-58 -164h194zM378 903h142l-154 -146h-109z" />
<glyph unicode="&#xc2;" horiz-adv-x="671" d="M462 198h-260l-71 -198h-121l256 692h134l262 -692h-129zM429 293l-58 164q-19 51 -39 119q-14 -49 -39 -119l-58 -164h194zM336 848l-70 -91h-110l110 146h139l111 -146h-110z" />
<glyph unicode="&#xc3;" horiz-adv-x="671" d="M462 198h-260l-71 -198h-121l256 692h134l262 -692h-129zM429 293l-58 164q-19 51 -39 119q-14 -49 -39 -119l-58 -164h194zM220 768h-69q5 57 31.5 89.5t69.5 32.5q32 0 94 -22q50 -17 67 -17q36 0 41 41h68q-12 -123 -103 -123q-30 0 -89 20q-57 19 -72 19 q-29 0 -38 -40z" />
<glyph unicode="&#xc4;" horiz-adv-x="671" d="M462 198h-260l-71 -198h-121l256 692h134l262 -692h-129zM429 293l-58 164q-19 51 -39 119q-14 -49 -39 -119l-58 -164h194zM233 902q31 0 51 -20t20 -51t-20 -51t-51 -20t-51 20t-20 52q0 31 20 50.5t51 19.5zM440 902q31 0 51 -20t20 -51t-20 -51t-51 -20t-51 20 t-20 52q0 31 20 50.5t51 19.5z" />
<glyph unicode="&#xc5;" horiz-adv-x="671" d="M10 0l257 693q-47 34 -47 94q0 50 33 82.5t83 32.5t83 -32.5t33 -82.5q0 -65 -51 -97l261 -690h-129l-71 198h-260l-71 -198h-121zM429 293l-58 164q-14 39 -39 119q-12 -41 -17 -56q-7 -22 -22 -63l-58 -164h194zM336 845q-25 0 -40 -16t-15 -42q0 -27 15 -43t40 -16 t40 16t15 42q0 27 -15 43t-40 16z" />
<glyph unicode="&#xc6;" horiz-adv-x="927" d="M453 178h-251l-103 -178h-139l417 692h481v-98h-284v-194h270v-98h-270v-204h298v-98h-419v178zM453 273v329h-8l-191 -329h199z" />
<glyph unicode="&#xc7;" horiz-adv-x="611" d="M559 133l34 -98q-101 -46 -205 -46q-158 0 -248 93.5t-90 258.5q0 167 89.5 264.5t242.5 97.5q101 0 204 -46l-40 -95q-83 43 -158 43q-97 0 -154.5 -70.5t-57.5 -190.5q0 -119 58.5 -188t159.5 -69q76 0 165 46zM302 -33h131l-140 -150h-109z" />
<glyph unicode="&#xc8;" horiz-adv-x="560" d="M86 0v692h405v-98h-284v-194h270v-98h-270v-204h299v-98h-420zM261 903l121 -146h-109l-154 146h142z" />
<glyph unicode="&#xc9;" horiz-adv-x="560" d="M86 0v692h405v-98h-284v-194h270v-98h-270v-204h299v-98h-420zM328 903h142l-154 -146h-109z" />
<glyph unicode="&#xca;" horiz-adv-x="560" d="M86 0v692h405v-98h-284v-194h270v-98h-270v-204h299v-98h-420zM289 848l-70 -91h-110l110 146h139l111 -146h-110z" />
<glyph unicode="&#xcb;" horiz-adv-x="560" d="M86 0v692h405v-98h-284v-194h270v-98h-270v-204h299v-98h-420zM185 902q31 0 51 -20t20 -51t-20 -51t-51 -20t-51 20t-20 52q0 31 20 50.5t51 19.5zM392 902q31 0 51 -20t20 -51t-20 -51t-51 -20t-51 20t-20 52q0 31 20 50.5t51 19.5z" />
<glyph unicode="&#xcc;" horiz-adv-x="293" d="M86 0v692h121v-692h-121zM114 903l121 -146h-109l-154 146h142z" />
<glyph unicode="&#xcd;" horiz-adv-x="293" d="M86 0v692h121v-692h-121zM189 903h142l-154 -146h-109z" />
<glyph unicode="&#xce;" horiz-adv-x="293" d="M86 0v692h121v-692h-121zM147 848l-70 -91h-110l110 146h139l111 -146h-110z" />
<glyph unicode="&#xcf;" horiz-adv-x="293" d="M86 0v692h121v-692h-121zM43 902q31 0 51 -20t20 -51t-20 -51t-51 -20t-51 20t-20 52q0 31 20 50.5t51 19.5zM250 902q31 0 51 -20t20 -51t-20 -51t-51 -20t-51 20t-20 52q0 31 20 50.5t51 19.5z" />
<glyph unicode="&#xd0;" horiz-adv-x="686" d="M86 317h-84v72h84v303h174q100 0 161 -15.5t107 -52.5q109 -88 109 -276q0 -210 -128 -295q-44 -29 -102 -41t-157 -12h-164v317zM207 317v-219h48q115 0 170 39q41 29 63.5 84t22.5 125q0 147 -83 211q-30 22 -66.5 29.5t-111.5 7.5h-43v-205h139v-72h-139z" />
<glyph unicode="&#xd1;" horiz-adv-x="724" d="M86 0v692h135l222 -368q38 -64 68 -126q3 -4 13 -25q-2 43 -2 119v400h116v-692h-134l-217 357q-41 69 -87 163q2 -57 2 -151v-369h-116zM258 768h-69q5 57 31.5 89.5t69.5 32.5q32 0 94 -22q50 -17 67 -17q36 0 41 41h68q-12 -123 -103 -123q-30 0 -89 20q-57 19 -72 19 q-29 0 -38 -40z" />
<glyph unicode="&#xd2;" horiz-adv-x="741" d="M371 703q159 0 244 -110q77 -100 77 -247q0 -173 -101 -274q-80 -83 -220 -83q-159 0 -244 110q-77 99 -77 251q0 80 26.5 151t74.5 119q80 83 220 83zM371 605q-89 0 -142 -69.5t-53 -186.5q0 -122 52 -192t143 -70q90 0 142.5 70t52.5 189t-52.5 189t-142.5 70z M352 903l121 -146h-109l-154 146h142z" />
<glyph unicode="&#xd3;" horiz-adv-x="741" d="M371 703q159 0 244 -110q77 -100 77 -247q0 -173 -101 -274q-80 -83 -220 -83q-159 0 -244 110q-77 99 -77 251q0 80 26.5 151t74.5 119q80 83 220 83zM371 605q-89 0 -142 -69.5t-53 -186.5q0 -122 52 -192t143 -70q90 0 142.5 70t52.5 189t-52.5 189t-142.5 70z M401 903h142l-154 -146h-109z" />
<glyph unicode="&#xd4;" horiz-adv-x="741" d="M371 703q159 0 244 -110q77 -100 77 -247q0 -173 -101 -274q-80 -83 -220 -83q-159 0 -244 110q-77 99 -77 251q0 80 26.5 151t74.5 119q80 83 220 83zM371 605q-89 0 -142 -69.5t-53 -186.5q0 -122 52 -192t143 -70q90 0 142.5 70t52.5 189t-52.5 189t-142.5 70z M371 848l-70 -91h-110l110 146h139l111 -146h-110z" />
<glyph unicode="&#xd5;" horiz-adv-x="741" d="M371 703q159 0 244 -110q77 -100 77 -247q0 -173 -101 -274q-80 -83 -220 -83q-159 0 -244 110q-77 99 -77 251q0 80 26.5 151t74.5 119q80 83 220 83zM371 605q-89 0 -142 -69.5t-53 -186.5q0 -122 52 -192t143 -70q90 0 142.5 70t52.5 189t-52.5 189t-142.5 70z M254 768h-69q5 57 31.5 89.5t69.5 32.5q32 0 94 -22q50 -17 67 -17q36 0 41 41h68q-12 -123 -103 -123q-30 0 -89 20q-57 19 -72 19q-29 0 -38 -40z" />
<glyph unicode="&#xd6;" horiz-adv-x="741" d="M371 703q159 0 244 -110q77 -100 77 -247q0 -173 -101 -274q-80 -83 -220 -83q-159 0 -244 110q-77 99 -77 251q0 80 26.5 151t74.5 119q80 83 220 83zM371 605q-89 0 -142 -69.5t-53 -186.5q0 -122 52 -192t143 -70q90 0 142.5 70t52.5 189t-52.5 189t-142.5 70z M268 902q31 0 51 -20t20 -51t-20 -51t-51 -20t-51 20t-20 52q0 31 20 50.5t51 19.5zM475 902q31 0 51 -20t20 -51t-20 -51t-51 -20t-51 20t-20 52q0 31 20 50.5t51 19.5z" />
<glyph unicode="&#xd7;" horiz-adv-x="576" d="M288 190l-158 -158l-65 65l158 158l-158 158l65 64l158 -157l158 157l64 -64l-157 -158l157 -158l-65 -65z" />
<glyph unicode="&#xd8;" horiz-adv-x="741" d="M53 26l68 79q-72 104 -72 241q0 173 101 274q82 83 221 83q123 0 203 -68l64 75l48 -43l-68 -80q73 -104 73 -241q0 -171 -101 -274q-82 -83 -222 -83q-122 0 -202 68l-63 -74zM204 202l297 347q-55 56 -132 56q-90 0 -142 -70t-52 -191q0 -72 29 -142zM536 491 l-297 -348q53 -56 131 -56q90 0 142.5 70t52.5 190q0 74 -29 144z" />
<glyph unicode="&#xd9;" horiz-adv-x="695" d="M80 692h121v-410q0 -111 31 -150q36 -45 116 -45q96 0 129 60q22 39 22 129v416h117v-385q0 -109 -8.5 -153.5t-35.5 -79.5q-66 -85 -224 -85q-176 0 -237 103q-19 32 -25 74.5t-6 140.5v385zM329 903l121 -146h-109l-154 146h142z" />
<glyph unicode="&#xda;" horiz-adv-x="695" d="M80 692h121v-410q0 -111 31 -150q36 -45 116 -45q96 0 129 60q22 39 22 129v416h117v-385q0 -109 -8.5 -153.5t-35.5 -79.5q-66 -85 -224 -85q-176 0 -237 103q-19 32 -25 74.5t-6 140.5v385zM400 903h142l-154 -146h-109z" />
<glyph unicode="&#xdb;" horiz-adv-x="695" d="M80 692h121v-410q0 -111 31 -150q36 -45 116 -45q96 0 129 60q22 39 22 129v416h117v-385q0 -109 -8.5 -153.5t-35.5 -79.5q-66 -85 -224 -85q-176 0 -237 103q-19 32 -25 74.5t-6 140.5v385zM348 848l-70 -91h-110l110 146h139l111 -146h-110z" />
<glyph unicode="&#xdc;" horiz-adv-x="695" d="M80 692h121v-410q0 -111 31 -150q36 -45 116 -45q96 0 129 60q22 39 22 129v416h117v-385q0 -109 -8.5 -153.5t-35.5 -79.5q-66 -85 -224 -85q-176 0 -237 103q-19 32 -25 74.5t-6 140.5v385zM245 902q31 0 51 -20t20 -51t-20 -51t-51 -20t-51 20t-20 52q0 31 20 50.5 t51 19.5zM452 902q31 0 51 -20t20 -51t-20 -51t-51 -20t-51 20t-20 52q0 31 20 50.5t51 19.5z" />
<glyph unicode="&#xdd;" horiz-adv-x="615" d="M248 0v296l-254 396h141l128 -203q28 -46 49 -87q31 58 50 88l127 202h133l-253 -396v-296h-121zM361 903h142l-154 -146h-109z" />
<glyph unicode="&#xde;" horiz-adv-x="551" d="M86 0v692h121v-136h46q78 0 122.5 -9t77.5 -32q78 -55 78 -166q0 -110 -81 -168q-59 -41 -183 -41h-60v-140h-121zM207 238h37q80 0 113 17q48 24 48 91q0 64 -44 92q-34 21 -111 21h-43v-221z" />
<glyph unicode="&#xdf;" horiz-adv-x="598" d="M80 0v485q0 75 8 115t29 68q56 75 178 75q101 0 160.5 -52t59.5 -141q0 -59 -29 -100.5t-81 -54.5q66 -16 99 -51q49 -52 49 -139q0 -100 -59.5 -158t-162.5 -58q-38 0 -82 9l13 92q28 -7 49 -7q57 0 89 33.5t32 93.5q0 62 -36.5 98t-98.5 36q-11 0 -18 -1v89 q115 2 115 115q0 50 -26 78.5t-72 28.5q-68 0 -89 -63q-10 -30 -10 -104v-487h-117z" />
<glyph unicode="&#xe0;" horiz-adv-x="554" d="M364 0l-4 58q-37 -38 -72.5 -53.5t-85.5 -15.5q-77 0 -120.5 41t-43.5 113q0 99 81 143q49 26 151 26q14 0 83 -3v10q0 56 -29 86t-84 30q-63 0 -138 -43l-31 84q90 45 185 45q124 0 176 -67q22 -27 30 -63.5t8 -108.5v-152q0 -87 5 -130h-111zM353 140v96q-23 2 -53 2 q-141 0 -141 -92q0 -35 21.5 -56t57.5 -21q66 0 115 71zM258 731l121 -146h-109l-154 146h142z" />
<glyph unicode="&#xe1;" horiz-adv-x="554" d="M364 0l-4 58q-37 -38 -72.5 -53.5t-85.5 -15.5q-77 0 -120.5 41t-43.5 113q0 99 81 143q49 26 151 26q14 0 83 -3v10q0 56 -29 86t-84 30q-63 0 -138 -43l-31 84q90 45 185 45q124 0 176 -67q22 -27 30 -63.5t8 -108.5v-152q0 -87 5 -130h-111zM353 140v96q-23 2 -53 2 q-141 0 -141 -92q0 -35 21.5 -56t57.5 -21q66 0 115 71zM307 731h142l-154 -146h-109z" />
<glyph unicode="&#xe2;" horiz-adv-x="554" d="M364 0l-4 58q-37 -38 -72.5 -53.5t-85.5 -15.5q-77 0 -120.5 41t-43.5 113q0 99 81 143q49 26 151 26q14 0 83 -3v10q0 56 -29 86t-84 30q-63 0 -138 -43l-31 84q90 45 185 45q124 0 176 -67q22 -27 30 -63.5t8 -108.5v-152q0 -87 5 -130h-111zM353 140v96q-23 2 -53 2 q-141 0 -141 -92q0 -35 21.5 -56t57.5 -21q66 0 115 71zM271 676l-70 -91h-110l110 146h139l111 -146h-110z" />
<glyph unicode="&#xe3;" horiz-adv-x="554" d="M364 0l-4 58q-37 -38 -72.5 -53.5t-85.5 -15.5q-77 0 -120.5 41t-43.5 113q0 99 81 143q49 26 151 26q14 0 83 -3v10q0 56 -29 86t-84 30q-63 0 -138 -43l-31 84q90 45 185 45q124 0 176 -67q22 -27 30 -63.5t8 -108.5v-152q0 -87 5 -130h-111zM353 140v96q-23 2 -53 2 q-141 0 -141 -92q0 -35 21.5 -56t57.5 -21q66 0 115 71zM149 594h-69q5 57 31.5 90t69.5 33q32 0 94 -22q50 -17 67 -17q36 0 41 41h68q-12 -124 -103 -124q-30 0 -89 20q-57 19 -72 19q-29 0 -38 -40z" />
<glyph unicode="&#xe4;" horiz-adv-x="554" d="M364 0l-4 58q-37 -38 -72.5 -53.5t-85.5 -15.5q-77 0 -120.5 41t-43.5 113q0 99 81 143q49 26 151 26q14 0 83 -3v10q0 56 -29 86t-84 30q-63 0 -138 -43l-31 84q90 45 185 45q124 0 176 -67q22 -27 30 -63.5t8 -108.5v-152q0 -87 5 -130h-111zM353 140v96q-23 2 -53 2 q-141 0 -141 -92q0 -35 21.5 -56t57.5 -21q66 0 115 71zM170 732q31 0 50 -19t19 -49t-19 -49.5t-49 -19.5q-31 0 -50 19.5t-19 50.5q0 29 19.5 48t48.5 19zM377 732q31 0 50 -19t19 -49t-19 -49.5t-49 -19.5q-31 0 -50 19.5t-19 50.5q0 29 19.5 48t48.5 19z" />
<glyph unicode="&#xe5;" horiz-adv-x="554" d="M364 0l-4 58q-37 -38 -72.5 -53.5t-85.5 -15.5q-77 0 -120.5 41t-43.5 113q0 99 81 143q49 26 151 26q14 0 83 -3v10q0 56 -29 86t-84 30q-63 0 -138 -43l-31 84q90 45 185 45q124 0 176 -67q22 -27 30 -63.5t8 -108.5v-152q0 -87 5 -130h-111zM353 140v96q-23 2 -53 2 q-141 0 -141 -92q0 -35 21.5 -56t57.5 -21q66 0 115 71zM277 780q46 0 77 -30.5t31 -76.5q0 -47 -30.5 -77.5t-77.5 -30.5t-77.5 31t-30.5 78q0 45 31 75.5t77 30.5zM277 726q-23 0 -36.5 -14.5t-13.5 -38.5q0 -25 13.5 -39.5t36.5 -14.5t36.5 14.5t13.5 39.5 q0 24 -13.5 38.5t-36.5 14.5z" />
<glyph unicode="&#xe6;" horiz-adv-x="857" d="M757 126l41 -86q-83 -51 -193 -51q-74 0 -119.5 20t-79.5 69q-38 -48 -82.5 -68.5t-111.5 -20.5q-84 0 -129 39.5t-45 113.5q0 98 83 140q48 26 149 26q32 0 84 -4v15q0 46 -22 77q-30 39 -92 39q-63 0 -138 -43l-31 84q90 45 185 45q119 0 174 -64q64 64 160 64 q155 0 200 -125q24 -63 24 -178h-341q12 -141 139 -141q72 0 145 49zM353 172v59q-46 2 -54 2q-140 0 -140 -89q0 -34 21.5 -54.5t57.5 -20.5q48 0 81.5 30t33.5 73zM473 300h222q-2 65 -30.5 99.5t-78.5 34.5q-49 0 -79.5 -36t-33.5 -98z" />
<glyph unicode="&#xe7;" horiz-adv-x="482" d="M425 118l38 -85q-69 -44 -165 -44q-119 0 -186 70t-67 194q0 126 64 197t178 71q87 0 165 -39l-35 -87q-60 37 -118 37q-64 0 -98.5 -46t-34.5 -131q0 -83 37.5 -129.5t105.5 -46.5q60 0 116 39zM226 -33h131l-140 -150h-109z" />
<glyph unicode="&#xe8;" horiz-adv-x="566" d="M524 218h-356q13 -141 147 -141q75 0 152 49l41 -86q-89 -51 -196 -51q-128 0 -197.5 69t-69.5 196q0 124 65.5 195.5t178.5 71.5q162 0 210 -125q24 -62 25 -178zM168 300h236q-1 64 -31.5 99.5t-83.5 35.5t-85.5 -36t-35.5 -99zM265 731l121 -146h-109l-154 146h142z " />
<glyph unicode="&#xe9;" horiz-adv-x="566" d="M524 218h-356q13 -141 147 -141q75 0 152 49l41 -86q-89 -51 -196 -51q-128 0 -197.5 69t-69.5 196q0 124 65.5 195.5t178.5 71.5q162 0 210 -125q24 -62 25 -178zM168 300h236q-1 64 -31.5 99.5t-83.5 35.5t-85.5 -36t-35.5 -99zM327 731h142l-154 -146h-109z" />
<glyph unicode="&#xea;" horiz-adv-x="566" d="M524 218h-356q13 -141 147 -141q75 0 152 49l41 -86q-89 -51 -196 -51q-128 0 -197.5 69t-69.5 196q0 124 65.5 195.5t178.5 71.5q162 0 210 -125q24 -62 25 -178zM168 300h236q-1 64 -31.5 99.5t-83.5 35.5t-85.5 -36t-35.5 -99zM292 676l-70 -91h-110l110 146h139 l111 -146h-110z" />
<glyph unicode="&#xeb;" horiz-adv-x="566" d="M524 218h-356q13 -141 147 -141q75 0 152 49l41 -86q-89 -51 -196 -51q-128 0 -197.5 69t-69.5 196q0 124 65.5 195.5t178.5 71.5q162 0 210 -125q24 -62 25 -178zM168 300h236q-1 64 -31.5 99.5t-83.5 35.5t-85.5 -36t-35.5 -99zM189 732q31 0 50 -19t19 -49t-19 -49.5 t-49 -19.5q-31 0 -50 19.5t-19 50.5q0 29 19.5 48t48.5 19zM396 732q31 0 50 -19t19 -49t-19 -49.5t-49 -19.5q-31 0 -50 19.5t-19 50.5q0 29 19.5 48t48.5 19z" />
<glyph unicode="&#xec;" horiz-adv-x="280" d="M81 0v510h117v-510h-117zM113 731l121 -146h-109l-154 146h142z" />
<glyph unicode="&#xed;" horiz-adv-x="280" d="M81 0v510h117v-510h-117zM182 731h142l-154 -146h-109z" />
<glyph unicode="&#xee;" horiz-adv-x="280" d="M81 0v510h117v-510h-117zM140 676l-70 -91h-110l110 146h139l111 -146h-110z" />
<glyph unicode="&#xef;" horiz-adv-x="280" d="M82 0v510h117v-510h-117zM36 732q31 0 50 -19t19 -49t-19 -49.5t-49 -19.5q-31 0 -50 19.5t-19 50.5q0 29 19.5 48t48.5 19zM243 732q31 0 50 -19t19 -49t-19 -49.5t-49 -19.5q-31 0 -50 19.5t-19 50.5q0 29 19.5 48t48.5 19z" />
<glyph unicode="&#xf0;" horiz-adv-x="567" d="M92 649l29 91q107 -18 195 -83l130 60l24 -52l-106 -49q159 -159 159 -369q0 -124 -63.5 -191t-179.5 -67q-110 0 -172.5 65.5t-62.5 181.5q0 109 57 174t153 65q47 0 94 -21q-39 67 -92 112l-140 -64l-22 52l107 50q-50 28 -110 45zM281 386q-55 0 -85 -39.5t-30 -111.5 q0 -73 31 -115t86 -42q54 0 86.5 43t32.5 114q0 70 -32.5 110.5t-88.5 40.5z" />
<glyph unicode="&#xf1;" horiz-adv-x="613" d="M84 0v331q0 78 -5 179h111l3 -75q47 48 87 67t94 19q101 0 139 -72q22 -41 22 -142v-307h-117v301q0 59 -10 86q-17 44 -73 44q-69 0 -134 -86v-345h-117zM204 594h-69q5 57 31.5 90t69.5 33q32 0 94 -22q50 -17 67 -17q36 0 41 41h68q-12 -124 -103 -124q-30 0 -89 20 q-57 19 -72 19q-29 0 -38 -40z" />
<glyph unicode="&#xf2;" horiz-adv-x="589" d="M295 521q116 0 183 -71t67 -195t-67 -195t-183 -71q-117 0 -183.5 71.5t-66.5 197.5q0 122 67.5 192.5t182.5 70.5zM295 432q-60 0 -94.5 -47t-34.5 -128q0 -84 34 -131.5t95 -47.5q60 0 94.5 47.5t34.5 129.5t-34.5 129.5t-94.5 47.5zM276 731l121 -146h-109l-154 146 h142z" />
<glyph unicode="&#xf3;" horiz-adv-x="589" d="M295 521q116 0 183 -71t67 -195t-67 -195t-183 -71q-117 0 -183.5 71.5t-66.5 197.5q0 122 67.5 192.5t182.5 70.5zM295 432q-60 0 -94.5 -47t-34.5 -128q0 -84 34 -131.5t95 -47.5q60 0 94.5 47.5t34.5 129.5t-34.5 129.5t-94.5 47.5zM325 731h142l-154 -146h-109z" />
<glyph unicode="&#xf4;" horiz-adv-x="589" d="M295 521q116 0 183 -71t67 -195t-67 -195t-183 -71q-117 0 -183.5 71.5t-66.5 197.5q0 122 67.5 192.5t182.5 70.5zM295 432q-60 0 -94.5 -47t-34.5 -128q0 -84 34 -131.5t95 -47.5q60 0 94.5 47.5t34.5 129.5t-34.5 129.5t-94.5 47.5zM295 676l-70 -91h-110l110 146h139 l111 -146h-110z" />
<glyph unicode="&#xf5;" horiz-adv-x="589" d="M295 521q116 0 183 -71t67 -195t-67 -195t-183 -71q-117 0 -183.5 71.5t-66.5 197.5q0 122 67.5 192.5t182.5 70.5zM295 432q-60 0 -94.5 -47t-34.5 -128q0 -84 34 -131.5t95 -47.5q60 0 94.5 47.5t34.5 129.5t-34.5 129.5t-94.5 47.5zM178 594h-69q5 57 31.5 90t69.5 33 q32 0 94 -22q50 -17 67 -17q36 0 41 41h68q-12 -124 -103 -124q-30 0 -89 20q-57 19 -72 19q-29 0 -38 -40z" />
<glyph unicode="&#xf6;" horiz-adv-x="589" d="M295 521q116 0 183 -71t67 -195t-67 -195t-183 -71q-117 0 -183.5 71.5t-66.5 197.5q0 122 67.5 192.5t182.5 70.5zM295 432q-60 0 -94.5 -47t-34.5 -128q0 -84 34 -131.5t95 -47.5q60 0 94.5 47.5t34.5 129.5t-34.5 129.5t-94.5 47.5zM191 732q31 0 50 -19t19 -49 t-19 -49.5t-49 -19.5q-31 0 -50 19.5t-19 50.5q0 29 19.5 48t48.5 19zM398 732q31 0 50 -19t19 -49t-19 -49.5t-49 -19.5q-31 0 -50 19.5t-19 50.5q0 29 19.5 48t48.5 19z" />
<glyph unicode="&#xf7;" horiz-adv-x="576" d="M46 209v92h485v-92h-485zM290 500q31 0 50.5 -19.5t19.5 -50.5t-19.5 -51t-50.5 -20q-32 0 -51.5 19.5t-19.5 51.5q0 31 20 50.5t51 19.5zM289 149q31 0 50.5 -19.5t19.5 -50.5t-19.5 -50.5t-50.5 -19.5t-50.5 19.5t-19.5 51.5q0 30 19.5 49.5t50.5 19.5z" />
<glyph unicode="&#xf8;" horiz-adv-x="589" d="M26 22l64 67q-45 70 -45 166q0 124 66.5 195t182.5 71q95 0 162 -52l61 63l44 -44l-63 -65q47 -73 47 -169q0 -123 -67 -194t-184 -71q-96 0 -162 53l-62 -64zM175 177l210 218q-35 38 -91 38q-61 0 -96 -48t-35 -132q0 -25 10 -68zM414 336l-210 -219q36 -40 92 -40 q61 0 96 47.5t35 131.5q0 34 -13 80z" />
<glyph unicode="&#xf9;" horiz-adv-x="608" d="M525 510v-331q0 -94 5 -179h-111l-3 75q-45 -47 -85.5 -66.5t-92.5 -19.5q-100 0 -137 72q-22 43 -22 142v307h117v-301q0 -62 10 -86q17 -44 70 -44q69 0 132 86v345h117zM285 731l121 -146h-109l-154 146h142z" />
<glyph unicode="&#xfa;" horiz-adv-x="608" d="M525 510v-331q0 -94 5 -179h-111l-3 75q-45 -47 -85.5 -66.5t-92.5 -19.5q-100 0 -137 72q-22 43 -22 142v307h117v-301q0 -62 10 -86q17 -44 70 -44q69 0 132 86v345h117zM349 731h142l-154 -146h-109z" />
<glyph unicode="&#xfb;" horiz-adv-x="608" d="M525 510v-331q0 -94 5 -179h-111l-3 75q-45 -47 -85.5 -66.5t-92.5 -19.5q-100 0 -137 72q-22 43 -22 142v307h117v-301q0 -62 10 -86q17 -44 70 -44q69 0 132 86v345h117zM304 676l-70 -91h-110l110 146h139l111 -146h-110z" />
<glyph unicode="&#xfc;" horiz-adv-x="608" d="M525 510v-331q0 -94 5 -179h-111l-3 75q-45 -47 -85.5 -66.5t-92.5 -19.5q-100 0 -137 72q-22 43 -22 142v307h117v-301q0 -62 10 -86q17 -44 70 -44q69 0 132 86v345h117zM200 732q31 0 50 -19t19 -49t-19 -49.5t-49 -19.5q-31 0 -50 19.5t-19 50.5q0 29 19.5 48 t48.5 19zM407 732q31 0 50 -19t19 -49t-19 -49.5t-49 -19.5q-31 0 -50 19.5t-19 50.5q0 29 19.5 48t48.5 19z" />
<glyph unicode="&#xfd;" horiz-adv-x="537" d="M212 8l-205 502h124l102 -258q18 -44 43 -117q18 55 43 122l96 253h114l-206 -521q-52 -130 -94.5 -173t-120.5 -43q-45 0 -102 18l20 91q37 -15 64 -15q40 0 67 31t55 110zM322 731h142l-154 -146h-109z" />
<glyph unicode="&#xfe;" horiz-adv-x="596" d="M80 -215v946h117v-288q38 43 71.5 60.5t78.5 17.5q93 0 148.5 -73.5t55.5 -195.5q0 -119 -56 -191t-148 -72q-94 0 -150 77v-281h-117zM197 346v-180q48 -88 121 -88q51 0 81.5 48t30.5 129q0 82 -31 129.5t-84 47.5q-64 0 -118 -86z" />
<glyph unicode="&#xff;" horiz-adv-x="537" d="M212 8l-205 502h124l102 -258q18 -44 43 -117q18 55 43 122l96 253h114l-206 -521q-52 -130 -94.5 -173t-120.5 -43q-45 0 -102 18l20 91q37 -15 64 -15q40 0 67 31t55 110zM164 732q31 0 50 -19t19 -49t-19 -49.5t-49 -19.5q-31 0 -50 19.5t-19 50.5q0 29 19.5 48 t48.5 19zM371 732q31 0 50 -19t19 -49t-19 -49.5t-49 -19.5q-31 0 -50 19.5t-19 50.5q0 29 19.5 48t48.5 19z" />
<glyph unicode="&#x100;" horiz-adv-x="671" d="M462 198h-260l-71 -198h-121l256 692h134l262 -692h-129zM429 293l-58 164q-19 51 -39 119q-14 -49 -39 -119l-58 -164h194zM171 772v75h331v-75h-331z" />
<glyph unicode="&#x101;" horiz-adv-x="554" d="M364 0l-4 58q-37 -38 -72.5 -53.5t-85.5 -15.5q-77 0 -120.5 41t-43.5 113q0 99 81 143q49 26 151 26q14 0 83 -3v10q0 56 -29 86t-84 30q-63 0 -138 -43l-31 84q90 45 185 45q124 0 176 -67q22 -27 30 -63.5t8 -108.5v-152q0 -87 5 -130h-111zM353 140v96q-23 2 -53 2 q-141 0 -141 -92q0 -35 21.5 -56t57.5 -21q66 0 115 71zM103 619v75h331v-75h-331z" />
<glyph unicode="&#x102;" horiz-adv-x="671" d="M462 198h-260l-71 -198h-121l256 692h134l262 -692h-129zM429 293l-58 164q-19 51 -39 119q-14 -49 -39 -119l-58 -164h194zM172 908h75q3 -42 24 -60.5t66 -18.5q44 0 65 18.5t25 60.5h74q-1 -80 -41 -118t-123 -38q-102 0 -141 59q-23 34 -24 97z" />
<glyph unicode="&#x103;" horiz-adv-x="554" d="M364 0l-4 58q-37 -38 -72.5 -53.5t-85.5 -15.5q-77 0 -120.5 41t-43.5 113q0 99 81 143q49 26 151 26q14 0 83 -3v10q0 56 -29 86t-84 30q-63 0 -138 -43l-31 84q90 45 185 45q124 0 176 -67q22 -27 30 -63.5t8 -108.5v-152q0 -87 5 -130h-111zM353 140v96q-23 2 -53 2 q-141 0 -141 -92q0 -35 21.5 -56t57.5 -21q66 0 115 71zM105 731h75q3 -42 24 -60.5t66 -18.5q44 0 65 18.5t25 60.5h74q-1 -80 -41 -118t-123 -38q-99 0 -140 58q-24 33 -25 98z" />
<glyph unicode="&#x104;" horiz-adv-x="671" d="M10 0l256 692h134l262 -692q-63 -38 -84.5 -60.5t-21.5 -50.5q0 -21 16.5 -34t43.5 -13q19 0 42 6l7 -58q-46 -10 -78 -10q-58 0 -92 25t-34 67q0 76 127 128h-55l-71 198h-260l-71 -198h-121zM429 293l-58 164q-19 51 -39 119l-10 -35q-6 -18 -11 -34q-12 -34 -18 -50 l-58 -164h194z" />
<glyph unicode="&#x105;" horiz-adv-x="554" d="M470 282v-152q0 -87 5 -130q-63 -38 -84.5 -60.5t-21.5 -50.5q0 -21 16.5 -34t43.5 -13q19 0 42 6l7 -58q-46 -10 -78 -10q-58 0 -92 25t-34 67q0 76 127 128h-37l-4 58q-37 -38 -72.5 -53.5t-85.5 -15.5q-77 0 -120.5 41t-43.5 113q0 99 81 143q49 26 150 26q18 0 84 -3 v10q0 56 -29 86t-84 30q-63 0 -138 -43l-31 84q90 45 185 45q124 0 176 -67q22 -27 30 -63.5t8 -108.5zM353 140v96q-23 2 -52 2q-142 0 -142 -92q0 -35 21.5 -56t57.5 -21q66 0 115 71z" />
<glyph unicode="&#x106;" horiz-adv-x="611" d="M559 133l34 -98q-101 -46 -205 -46q-158 0 -248 93.5t-90 258.5q0 167 89.5 264.5t242.5 97.5q101 0 204 -46l-40 -95q-83 43 -158 43q-97 0 -154.5 -70.5t-57.5 -190.5q0 -119 58.5 -188t159.5 -69q76 0 165 46zM418 903h142l-154 -146h-109z" />
<glyph unicode="&#x107;" horiz-adv-x="482" d="M425 118l38 -85q-69 -44 -165 -44q-119 0 -186 70t-67 194q0 126 64 197t178 71q87 0 165 -39l-35 -87q-60 37 -118 37q-64 0 -98.5 -46t-34.5 -131q0 -83 37.5 -129.5t105.5 -46.5q60 0 116 39zM321 731h142l-154 -146h-109z" />
<glyph unicode="&#x108;" horiz-adv-x="611" d="M559 133l34 -98q-101 -46 -205 -46q-158 0 -248 93.5t-90 258.5q0 167 89.5 264.5t242.5 97.5q101 0 204 -46l-40 -95q-83 43 -158 43q-97 0 -154.5 -70.5t-57.5 -190.5q0 -119 58.5 -188t159.5 -69q76 0 165 46zM376 848l-70 -91h-110l110 146h139l111 -146h-110z" />
<glyph unicode="&#x109;" horiz-adv-x="482" d="M425 118l38 -85q-69 -44 -165 -44q-119 0 -186 70t-67 194q0 126 64 197t178 71q87 0 165 -39l-35 -87q-60 37 -118 37q-64 0 -98.5 -46t-34.5 -131q0 -83 37.5 -129.5t105.5 -46.5q60 0 116 39zM283 676l-70 -91h-110l110 146h139l111 -146h-110z" />
<glyph unicode="&#x10a;" horiz-adv-x="611" d="M559 133l34 -98q-101 -46 -205 -46q-158 0 -248 93.5t-90 258.5q0 167 89.5 264.5t242.5 97.5q101 0 204 -46l-40 -95q-83 43 -158 43q-97 0 -154.5 -70.5t-57.5 -190.5q0 -119 58.5 -188t159.5 -69q76 0 165 46zM391 902q31 0 51 -20t20 -51t-20 -51t-51 -20t-51 20 t-20 52q0 31 20 50.5t51 19.5z" />
<glyph unicode="&#x10b;" horiz-adv-x="482" d="M425 118l38 -85q-69 -44 -165 -44q-119 0 -186 70t-67 194q0 126 64 197t178 71q87 0 165 -39l-35 -87q-60 37 -118 37q-64 0 -98.5 -46t-34.5 -131q0 -83 37.5 -129.5t105.5 -46.5q60 0 116 39zM290 732q31 0 51 -20t20 -51t-20 -51t-51 -20t-51 20t-20 52q0 31 20 50.5 t51 19.5z" />
<glyph unicode="&#x10c;" horiz-adv-x="611" d="M559 133l34 -98q-101 -46 -205 -46q-158 0 -248 93.5t-90 258.5q0 167 89.5 264.5t242.5 97.5q101 0 204 -46l-40 -95q-83 43 -158 43q-97 0 -154.5 -70.5t-57.5 -190.5q0 -119 58.5 -188t159.5 -69q76 0 165 46zM384 819l70 91h110l-111 -146h-139l-110 146h109z" />
<glyph unicode="&#x10d;" horiz-adv-x="482" d="M425 118l38 -85q-69 -44 -165 -44q-119 0 -186 70t-67 194q0 126 64 197t178 71q87 0 165 -39l-35 -87q-60 37 -118 37q-64 0 -98.5 -46t-34.5 -131q0 -83 37.5 -129.5t105.5 -46.5q60 0 116 39zM279 640l70 91h110l-111 -146h-139l-110 146h109z" />
<glyph unicode="&#x10e;" horiz-adv-x="686" d="M86 0v692h174q100 0 161 -15.5t107 -52.5q109 -88 109 -277q0 -209 -128 -294q-44 -29 -102 -41t-157 -12h-164zM207 98h48q115 0 170 39q41 28 63.5 83t22.5 126q0 148 -83 211q-30 22 -66.5 29.5t-111.5 7.5h-43v-496zM321 819l70 91h110l-111 -146h-139l-110 146h109z " />
<glyph unicode="&#x10f;" horiz-adv-x="712" d="M399 731h117v-552q0 -114 5 -179h-113l-4 73q-33 -46 -68 -65t-86 -19q-101 0 -157 83q-48 74 -48 184q0 120 56 192.5t149 72.5q90 0 149 -75v285zM399 166v180q-48 85 -118 85q-53 0 -84 -47t-31 -127q0 -81 30.5 -129.5t81.5 -48.5q67 0 121 87zM630 731h131 l-101 -257h-109z" />
<glyph unicode="&#x110;" horiz-adv-x="686" d="M86 317h-84v72h84v303h174q100 0 161 -15.5t107 -52.5q109 -88 109 -276q0 -210 -128 -295q-44 -29 -102 -41t-157 -12h-164v317zM207 317v-219h48q115 0 170 39q41 29 63.5 84t22.5 125q0 147 -83 211q-30 22 -66.5 29.5t-111.5 7.5h-43v-205h139v-72h-139z" />
<glyph unicode="&#x111;" horiz-adv-x="596" d="M516 659h78v-70h-78v-410q0 -101 5 -179h-113l-4 73q-33 -46 -68 -65t-86 -19q-101 0 -157 83q-48 74 -48 184q0 120 56 192.5t149 72.5q90 0 149 -75v143h-145v70h145v72h117v-72zM399 166v180q-48 85 -118 85q-53 0 -84 -47t-31 -127q0 -81 30.5 -129.5t81.5 -48.5 q67 0 121 87z" />
<glyph unicode="&#x112;" horiz-adv-x="560" d="M86 0v692h405v-98h-284v-194h270v-98h-270v-204h299v-98h-420zM115 772v75h331v-75h-331z" />
<glyph unicode="&#x113;" horiz-adv-x="566" d="M524 218h-356q13 -141 147 -141q75 0 152 49l41 -86q-89 -51 -196 -51q-128 0 -197.5 69t-69.5 196q0 124 65.5 195.5t178.5 71.5q162 0 210 -125q24 -62 25 -178zM168 300h236q-1 64 -31.5 99.5t-83.5 35.5t-85.5 -36t-35.5 -99zM121 619v75h331v-75h-331z" />
<glyph unicode="&#x114;" horiz-adv-x="560" d="M86 0v692h405v-98h-284v-194h270v-98h-270v-204h299v-98h-420zM128 908h75q3 -42 24 -60.5t66 -18.5q44 0 65 18.5t25 60.5h74q-1 -80 -41 -118t-123 -38q-102 0 -141 59q-23 34 -24 97z" />
<glyph unicode="&#x116;" horiz-adv-x="560" d="M86 0v692h405v-98h-284v-194h270v-98h-270v-204h299v-98h-420zM297 902q31 0 51 -20t20 -51t-20 -51t-51 -20t-51 20t-20 52q0 31 20 50.5t51 19.5z" />
<glyph unicode="&#x117;" horiz-adv-x="566" d="M524 218h-356q13 -141 147 -141q75 0 152 49l41 -86q-89 -51 -196 -51q-128 0 -197.5 69t-69.5 196q0 124 65.5 195.5t178.5 71.5q162 0 210 -125q24 -62 25 -178zM168 300h236q-1 64 -31.5 99.5t-83.5 35.5t-85.5 -36t-35.5 -99zM296 732q31 0 51 -20t20 -51t-20 -51 t-51 -20t-51 20t-20 52q0 31 20 50.5t51 19.5z" />
<glyph unicode="&#x118;" horiz-adv-x="560" d="M86 0v692h405v-98h-284v-194h270v-98h-270v-204h299v-98q-63 -38 -84.5 -60.5t-21.5 -50.5q0 -21 16.5 -34t43.5 -13q19 0 42 6l7 -58q-46 -10 -78 -10q-58 0 -92 25t-34 67q0 75 127 128h-346z" />
<glyph unicode="&#x119;" horiz-adv-x="566" d="M467 126l41 -86q-65 -40 -146 -48q-52 -32 -71.5 -54t-19.5 -48q0 -21 16.5 -34t43.5 -13q18 0 42 5l7 -58q-48 -9 -78 -9q-58 0 -92 24.5t-34 67.5q0 69 104 117q-116 11 -175.5 77.5t-59.5 185.5q0 125 65.5 196.5t178.5 71.5q162 0 210 -125q24 -62 25 -178h-356 q13 -141 147 -141q75 0 152 49zM168 300h236q-1 64 -31.5 99.5t-83.5 35.5t-85.5 -36t-35.5 -99z" />
<glyph unicode="&#x11a;" horiz-adv-x="560" d="M86 0v692h405v-98h-284v-194h270v-98h-270v-204h299v-98h-420zM289 819l70 91h110l-111 -146h-139l-110 146h109z" />
<glyph unicode="&#x11b;" horiz-adv-x="566" d="M524 218h-356q13 -141 147 -141q75 0 152 49l41 -86q-89 -51 -196 -51q-128 0 -197.5 69t-69.5 196q0 124 65.5 195.5t178.5 71.5q162 0 210 -125q24 -62 25 -178zM168 300h236q-1 64 -31.5 99.5t-83.5 35.5t-85.5 -36t-35.5 -99zM291 640l70 91h110l-111 -146h-139 l-110 146h109z" />
<glyph unicode="&#x11c;" horiz-adv-x="706" d="M624 374v-342q-123 -43 -231 -43q-161 0 -252 93t-91 256q0 169 93.5 267t255.5 98q116 0 223 -48l-40 -97q-93 47 -181 47q-117 0 -176 -84q-49 -71 -49 -180q0 -116 60.5 -185t163.5 -69q52 0 105 18v171h-127v98h246zM389 848l-70 -91h-110l110 146h139l111 -146h-110 z" />
<glyph unicode="&#x11d;" horiz-adv-x="601" d="M411 510h112q-5 -155 -5 -201v-251q0 -87 -9 -129t-35 -75q-65 -80 -209 -80q-109 0 -198 45l36 87q76 -43 153 -43q97 0 129 68q16 35 16 119v36q-65 -74 -152 -74q-93 0 -148.5 69t-55.5 184q0 116 56 186t149 70q100 0 157 -82zM401 189v149q-20 44 -52.5 68.5 t-70.5 24.5q-52 0 -82 -45.5t-30 -122.5q0 -73 31 -117t83 -44q36 0 68 23t53 64zM301 676l-70 -91h-110l110 146h139l111 -146h-110z" />
<glyph unicode="&#x11e;" horiz-adv-x="706" d="M624 374v-342q-123 -43 -231 -43q-161 0 -252 93t-91 256q0 169 93.5 267t255.5 98q116 0 223 -48l-40 -97q-93 47 -181 47q-117 0 -176 -84q-49 -71 -49 -180q0 -116 60.5 -185t163.5 -69q52 0 105 18v171h-127v98h246zM221 908h75q3 -42 24 -60.5t66 -18.5 q44 0 65 18.5t25 60.5h74q-1 -80 -41 -118t-123 -38q-102 0 -141 59q-23 34 -24 97z" />
<glyph unicode="&#x11f;" horiz-adv-x="601" d="M411 510h112q-5 -155 -5 -201v-251q0 -87 -9 -129t-35 -75q-65 -80 -209 -80q-109 0 -198 45l36 87q76 -43 153 -43q97 0 129 68q16 35 16 119v36q-65 -74 -152 -74q-93 0 -148.5 69t-55.5 184q0 116 56 186t149 70q100 0 157 -82zM401 189v149q-20 44 -52.5 68.5 t-70.5 24.5q-52 0 -82 -45.5t-30 -122.5q0 -73 31 -117t83 -44q36 0 68 23t53 64zM136 731h75q3 -42 24 -60.5t66 -18.5q44 0 65 18.5t25 60.5h74q-1 -80 -41 -118t-123 -38q-99 0 -140 58q-24 33 -25 98z" />
<glyph unicode="&#x120;" horiz-adv-x="706" d="M624 374v-342q-123 -43 -231 -43q-161 0 -252 93t-91 256q0 169 93.5 267t255.5 98q116 0 223 -48l-40 -97q-93 47 -181 47q-117 0 -176 -84q-49 -71 -49 -180q0 -116 60.5 -185t163.5 -69q52 0 105 18v171h-127v98h246zM394 902q31 0 51 -20t20 -51t-20 -51t-51 -20 t-51 20t-20 52q0 31 20 50.5t51 19.5z" />
<glyph unicode="&#x121;" horiz-adv-x="601" d="M411 510h112q-5 -155 -5 -201v-251q0 -87 -9 -129t-35 -75q-65 -80 -209 -80q-109 0 -198 45l36 87q76 -43 153 -43q97 0 129 68q16 35 16 119v36q-65 -74 -152 -74q-93 0 -148.5 69t-55.5 184q0 116 56 186t149 70q100 0 157 -82zM401 189v149q-20 44 -52.5 68.5 t-70.5 24.5q-52 0 -82 -45.5t-30 -122.5q0 -73 31 -117t83 -44q36 0 68 23t53 64zM301 732q31 0 51 -20t20 -51t-20 -51t-51 -20t-51 20t-20 52q0 31 20 50.5t51 19.5z" />
<glyph unicode="&#x122;" horiz-adv-x="706" d="M624 374v-342q-123 -43 -231 -43q-161 0 -252 93t-91 256q0 169 93.5 267t255.5 98q116 0 223 -48l-40 -97q-93 47 -181 47q-117 0 -176 -84q-49 -71 -49 -180q0 -116 60.5 -185t163.5 -69q52 0 105 18v171h-127v98h246zM347 -33h131l-140 -150h-109z" />
<glyph unicode="&#x123;" horiz-adv-x="601" d="M411 510h112q-5 -155 -5 -201v-251q0 -87 -9 -129t-35 -75q-65 -80 -209 -80q-109 0 -198 45l36 87q76 -43 153 -43q97 0 129 68q16 35 16 119v36q-65 -74 -152 -74q-93 0 -148.5 69t-55.5 184q0 116 56 186t149 70q100 0 157 -82zM401 189v149q-20 44 -52.5 68.5 t-70.5 24.5q-52 0 -82 -45.5t-30 -122.5q0 -73 31 -117t83 -44q36 0 68 23t53 64zM336 581h-131l140 150h109z" />
<glyph unicode="&#x124;" horiz-adv-x="703" d="M86 0v692h121v-290h290v290h121v-692h-121v304h-290v-304h-121zM352 848l-70 -91h-110l110 146h139l111 -146h-110z" />
<glyph unicode="&#x125;" horiz-adv-x="613" d="M82 0v731h117v-289q70 79 173 79q100 0 140 -72q22 -41 22 -142v-307h-117v301q0 59 -10 86q-17 44 -73 44q-70 0 -135 -86v-345h-117zM144 848l-70 -91h-110l110 146h139l111 -146h-110z" />
<glyph unicode="&#x126;" horiz-adv-x="703" d="M86 0v506h-62v70h62v116h121v-116h290v116h121v-116h62v-70h-62v-506h-121v304h-290v-304h-121zM207 402h290v104h-290v-104z" />
<glyph unicode="&#x127;" horiz-adv-x="613" d="M83 0v583h-82v75h82v73h116v-73h144v-75h-143v-141q71 79 173 79q100 0 140 -72q22 -41 22 -142v-307h-117v301q0 62 -10 86q-17 44 -73 44q-71 0 -135 -86v-345h-117z" />
<glyph unicode="&#x12a;" horiz-adv-x="293" d="M86 0v692h121v-692h-121zM-19 772v75h331v-75h-331z" />
<glyph unicode="&#x12b;" horiz-adv-x="280" d="M82 0v510h117v-510h-117zM-25 619v75h331v-75h-331z" />
<glyph unicode="&#x12d;" horiz-adv-x="280" d="M81 0v510h117v-510h-117zM-25 731h75q3 -42 24 -60.5t66 -18.5q44 0 65 18.5t25 60.5h74q-1 -80 -41 -118t-123 -38q-99 0 -140 58q-24 33 -25 98z" />
<glyph unicode="&#x12e;" horiz-adv-x="293" d="M86 0v692h121v-692q-63 -37 -85 -60t-22 -51q0 -21 16.5 -34t44.5 -13q19 0 42 6l7 -58q-46 -10 -78 -10q-58 0 -92 25t-34 67q0 75 127 128h-47z" />
<glyph unicode="&#x12f;" horiz-adv-x="280" d="M81 0v510h117v-510q-64 -38 -85 -60t-21 -51q0 -21 16.5 -34t43.5 -13q19 0 42 6l7 -58q-46 -10 -78 -10q-58 0 -92 25t-34 67q0 75 127 128h-43zM140 747q32 0 52 -20.5t20 -51.5q0 -32 -20 -52.5t-52 -20.5t-52.5 20.5t-20.5 52.5q0 31 20.5 51.5t52.5 20.5z" />
<glyph unicode="&#x130;" horiz-adv-x="293" d="M86 0v692h121v-692h-121zM147 902q31 0 51 -20t20 -51t-20 -51t-51 -20t-51 20t-20 52q0 31 20 50.5t51 19.5z" />
<glyph unicode="&#x131;" horiz-adv-x="280" d="M82 0v510h117v-510h-117z" />
<glyph unicode="&#x134;" horiz-adv-x="395" d="M195 692h121v-433q0 -94 -8 -135.5t-31 -72.5q-48 -62 -157 -62q-66 0 -121 20l11 101q49 -21 90 -21q61 0 81 40q14 28 14 126v437zM247 848l-70 -91h-110l110 146h139l111 -146h-110z" />
<glyph unicode="&#x135;" horiz-adv-x="289" d="M86 510h117v-513q0 -123 -29 -164q-41 -59 -133 -59q-36 0 -84 11l10 91q33 -9 50 -9q37 0 53 26t16 87v530zM141 676l-70 -91h-110l110 146h139l111 -146h-110z" />
<glyph unicode="&#x136;" horiz-adv-x="635" d="M86 0v692h121v-326l273 326h140l-275 -324l286 -368h-148l-276 359v-359h-121zM296 -33h131l-140 -150h-109z" />
<glyph unicode="&#x137;" horiz-adv-x="539" d="M83 0v731h117v-436l181 215h135l-197 -224l216 -286h-142l-193 262v-262h-117zM243 -33h131l-140 -150h-109z" />
<glyph unicode="&#x139;" horiz-adv-x="505" d="M86 0v692h121v-594h299v-98h-420zM218 903h142l-154 -146h-109z" />
<glyph unicode="&#x13a;" horiz-adv-x="282" d="M82 0v731h117v-731h-117zM183 903h142l-154 -146h-109z" />
<glyph unicode="&#x13b;" horiz-adv-x="505" d="M86 0v692h121v-594h299v-98h-420zM250 -33h131l-140 -150h-109z" />
<glyph unicode="&#x13c;" horiz-adv-x="282" d="M83 0v731h117v-731h-117zM95 -33h131l-140 -150h-109z" />
<glyph unicode="&#x13d;" horiz-adv-x="505" d="M86 0v692h121v-594h299v-98h-420zM357 731h131l-101 -257h-109z" />
<glyph unicode="&#x13e;" horiz-adv-x="396" d="M83 0v731h117v-731h-117zM314 731h131l-101 -257h-109z" />
<glyph unicode="&#x141;" horiz-adv-x="519" d="M99 0v284l-84 -58v85l84 58v323h121v-239l113 78v-85l-113 -78v-270h299v-98h-420z" />
<glyph unicode="&#x142;" horiz-adv-x="306" d="M95 0v306l-83 -61v87l83 61v338h117v-252l82 61v-87l-82 -61v-392h-117z" />
<glyph unicode="&#x143;" horiz-adv-x="724" d="M86 0v692h135l222 -368q38 -64 68 -126q3 -4 13 -25q-2 43 -2 119v400h116v-692h-134l-217 357q-41 69 -87 163q2 -57 2 -151v-369h-116zM423 903h142l-154 -146h-109z" />
<glyph unicode="&#x144;" horiz-adv-x="613" d="M84 0v331q0 78 -5 179h111l3 -75q47 48 87 67t94 19q101 0 139 -72q22 -41 22 -142v-307h-117v301q0 59 -10 86q-17 44 -73 44q-69 0 -134 -86v-345h-117zM371 731h142l-154 -146h-109z" />
<glyph unicode="&#x145;" horiz-adv-x="724" d="M86 0v692h135l222 -368q38 -64 68 -126q3 -4 13 -25q-2 43 -2 119v400h116v-692h-134l-217 357q-41 69 -87 163q2 -57 2 -151v-369h-116zM327 -33h131l-140 -150h-109z" />
<glyph unicode="&#x146;" horiz-adv-x="613" d="M84 0v331q0 78 -5 179h111l3 -75q47 48 87 67t94 19q101 0 139 -72q22 -41 22 -142v-307h-117v301q0 59 -10 86q-17 44 -73 44q-69 0 -134 -86v-345h-117zM269 -33h131l-140 -150h-109z" />
<glyph unicode="&#x147;" horiz-adv-x="724" d="M86 0v692h135l222 -368q38 -64 68 -126q3 -4 13 -25q-2 43 -2 119v400h116v-692h-134l-217 357q-41 69 -87 163q2 -57 2 -151v-369h-116zM381 819l70 91h110l-111 -146h-139l-110 146h109z" />
<glyph unicode="&#x148;" horiz-adv-x="613" d="M84 0v331q0 78 -5 179h111l3 -75q47 48 87 67t94 19q101 0 139 -72q22 -41 22 -142v-307h-117v301q0 59 -10 86q-17 44 -73 44q-69 0 -134 -86v-345h-117zM329 640l70 91h110l-111 -146h-139l-110 146h109z" />
<glyph unicode="&#x14c;" horiz-adv-x="741" d="M371 703q159 0 244 -110q77 -100 77 -247q0 -173 -101 -274q-80 -83 -220 -83q-159 0 -244 110q-77 99 -77 251q0 80 26.5 151t74.5 119q80 83 220 83zM371 605q-89 0 -142 -69.5t-53 -186.5q0 -122 52 -192t143 -70q90 0 142.5 70t52.5 189t-52.5 189t-142.5 70z M206 772v75h331v-75h-331z" />
<glyph unicode="&#x14d;" horiz-adv-x="589" d="M295 521q116 0 183 -71t67 -195t-67 -195t-183 -71q-117 0 -183.5 71.5t-66.5 197.5q0 122 67.5 192.5t182.5 70.5zM295 432q-60 0 -94.5 -47t-34.5 -128q0 -84 34 -131.5t95 -47.5q60 0 94.5 47.5t34.5 129.5t-34.5 129.5t-94.5 47.5zM129 619v75h331v-75h-331z" />
<glyph unicode="&#x150;" horiz-adv-x="741" d="M371 703q159 0 244 -110q77 -100 77 -247q0 -173 -101 -274q-80 -83 -220 -83q-159 0 -244 110q-77 99 -77 251q0 80 26.5 151t74.5 119q80 83 220 83zM371 605q-89 0 -142 -69.5t-53 -186.5q0 -122 52 -192t143 -70q90 0 142.5 70t52.5 189t-52.5 189t-142.5 70z M319 903h140l-145 -146h-107zM517 903h141l-147 -146h-105z" />
<glyph unicode="&#x151;" horiz-adv-x="589" d="M295 521q116 0 183 -71t67 -195t-67 -195t-183 -71q-117 0 -183.5 71.5t-66.5 197.5q0 122 67.5 192.5t182.5 70.5zM295 432q-60 0 -94.5 -47t-34.5 -128q0 -84 34 -131.5t95 -47.5q60 0 94.5 47.5t34.5 129.5t-34.5 129.5t-94.5 47.5zM243 731h140l-145 -146h-107z M441 731h141l-147 -146h-105z" />
<glyph unicode="&#x152;" horiz-adv-x="962" d="M907 0h-462q-117 0 -172 15q-107 30 -165 116t-58 216q0 208 136 296q70 45 167 48q20 1 87 1h452v-98h-283v-194h269v-98h-269v-204h298v-98zM488 594h-44q-90 0 -132 -11.5t-74 -44.5q-62 -64 -62 -188q0 -146 83 -209q58 -43 185 -43h44v496z" />
<glyph unicode="&#x153;" horiz-adv-x="932" d="M832 126l41 -86q-87 -51 -195 -51q-71 0 -119 21t-85 68q-67 -89 -183 -89q-114 0 -180 71.5t-66 194.5t65.5 194.5t177.5 71.5q121 0 187 -87q63 87 182 87q78 0 132 -32.5t76 -92.5q23 -61 24 -178h-354q13 -141 145 -141q76 0 152 49zM291 432q-58 0 -91.5 -47 t-33.5 -128q0 -84 33 -131.5t92 -47.5t92.5 47.5t33.5 129.5t-33.5 129.5t-92.5 47.5zM536 300h234q-2 65 -32 100t-83 35t-84.5 -36t-34.5 -99z" />
<glyph unicode="&#x154;" horiz-adv-x="591" d="M86 0v692h203q116 0 169 -36q74 -49 74 -148q0 -68 -35.5 -113.5t-102.5 -61.5q35 -13 51.5 -34.5t49.5 -97.5l87 -201h-130l-63 150q-39 92 -65.5 116.5t-86.5 24.5h-30v-291h-121zM205 386h46q70 0 105 17q52 28 52 90q0 59 -42 85q-33 19 -109 19h-52v-211zM341 903 h142l-154 -146h-109z" />
<glyph unicode="&#x155;" horiz-adv-x="382" d="M83 0v318q0 69 -4 192h110l3 -96q45 104 135 104q22 0 45 -6l-7 -103q-24 4 -40 4q-44 0 -77 -30.5t-49 -86.5v-296h-116zM259 731h142l-154 -146h-109z" />
<glyph unicode="&#x156;" horiz-adv-x="591" d="M86 0v692h203q116 0 169 -36q74 -49 74 -148q0 -68 -35.5 -113.5t-102.5 -61.5q35 -13 51.5 -34.5t49.5 -97.5l87 -201h-130l-63 150q-39 92 -65.5 116.5t-86.5 24.5h-30v-291h-121zM205 386h46q70 0 105 17q52 28 52 90q0 59 -42 85q-33 19 -109 19h-52v-211zM280 -33 h131l-140 -150h-109z" />
<glyph unicode="&#x157;" horiz-adv-x="382" d="M84 0v318q0 101 -4 192h110l3 -96q45 104 135 104q22 0 45 -6l-7 -103q-24 4 -40 4q-44 0 -77 -30.5t-49 -86.5v-296h-116zM90 -33h131l-140 -150h-109z" />
<glyph unicode="&#x158;" horiz-adv-x="591" d="M86 0v692h203q116 0 169 -36q74 -49 74 -148q0 -68 -35.5 -113.5t-102.5 -61.5q35 -13 51.5 -34.5t49.5 -97.5l87 -201h-130l-63 150q-39 92 -65.5 116.5t-86.5 24.5h-30v-291h-121zM205 386h46q70 0 105 17q52 28 52 90q0 59 -42 85q-33 19 -109 19h-52v-211zM296 819 l70 91h110l-111 -146h-139l-110 146h109z" />
<glyph unicode="&#x159;" horiz-adv-x="382" d="M83 0v318q0 89 -4 192h109l4 -96q46 104 135 104q22 0 45 -6l-7 -103q-24 4 -40 4q-43 0 -76 -30.5t-50 -86.5v-296h-116zM216 640l70 91h110l-111 -146h-139l-110 146h109z" />
<glyph unicode="&#x15a;" horiz-adv-x="551" d="M53 24l16 106q112 -43 186 -43q56 0 88 27t32 73q0 38 -24 59t-110 58q-101 43 -134 69q-57 47 -57 127q0 94 62 148.5t169 54.5q85 0 194 -35l-24 -103q-94 40 -165 40q-50 0 -80 -23.5t-30 -63.5q0 -35 25 -56.5t100 -52.5q108 -44 145 -75q57 -49 57 -138 q0 -98 -64 -152.5t-180 -54.5q-104 0 -206 35zM332 903h142l-154 -146h-109z" />
<glyph unicode="&#x15b;" horiz-adv-x="455" d="M45 29l31 89q74 -41 135 -41q40 0 62 17t22 48q0 29 -20 43q-14 11 -82 35q-77 28 -106 53q-39 36 -39 94q0 71 50.5 112.5t137.5 41.5q82 0 166 -37l-30 -89q-67 39 -131 39q-36 0 -57 -15.5t-21 -42.5q0 -28 28 -44q16 -9 80 -33q79 -29 109.5 -61t30.5 -85 q0 -75 -54 -119.5t-145 -44.5q-88 0 -167 40zM268 731h142l-154 -146h-109z" />
<glyph unicode="&#x15c;" horiz-adv-x="551" d="M53 24l16 106q112 -43 186 -43q56 0 88 27t32 73q0 38 -24 59t-110 58q-101 43 -134 69q-57 47 -57 127q0 94 62 148.5t169 54.5q85 0 194 -35l-24 -103q-94 40 -165 40q-50 0 -80 -23.5t-30 -63.5q0 -35 25 -56.5t100 -52.5q108 -44 145 -75q57 -49 57 -138 q0 -98 -64 -152.5t-180 -54.5q-104 0 -206 35zM286 848l-70 -91h-110l110 146h139l111 -146h-110z" />
<glyph unicode="&#x15d;" horiz-adv-x="455" d="M45 29l31 89q74 -41 135 -41q40 0 62 17t22 48q0 29 -20 43q-14 11 -82 35q-77 28 -106 53q-39 36 -39 94q0 71 50.5 112.5t137.5 41.5q82 0 166 -37l-30 -89q-67 39 -131 39q-36 0 -57 -15.5t-21 -42.5q0 -28 28 -44q16 -9 80 -33q79 -29 109.5 -61t30.5 -85 q0 -75 -54 -119.5t-145 -44.5q-88 0 -167 40zM240 676l-70 -91h-110l110 146h139l111 -146h-110z" />
<glyph unicode="&#x15e;" horiz-adv-x="551" d="M53 24l16 106q112 -43 186 -43q56 0 88 27t32 73q0 38 -24 59t-110 58q-101 43 -134 69q-57 47 -57 127q0 94 62 148.5t169 54.5q85 0 194 -35l-24 -103q-94 40 -165 40q-50 0 -80 -23.5t-30 -63.5q0 -35 25 -56.5t100 -52.5q108 -44 145 -75q57 -49 57 -138 q0 -98 -64 -152.5t-180 -54.5q-104 0 -206 35zM221 -33h131l-140 -150h-109z" />
<glyph unicode="&#x15f;" horiz-adv-x="455" d="M45 29l31 89q74 -41 135 -41q40 0 62 17t22 48q0 29 -20 43q-14 11 -82 35q-77 28 -106 53q-39 36 -39 94q0 71 50.5 112.5t137.5 41.5q82 0 166 -37l-30 -89q-67 39 -131 39q-36 0 -57 -15.5t-21 -42.5q0 -28 28 -44q16 -9 80 -33q79 -29 109.5 -61t30.5 -85 q0 -75 -54 -119.5t-145 -44.5q-88 0 -167 40zM178 -33h131l-140 -150h-109z" />
<glyph unicode="&#x160;" horiz-adv-x="551" d="M53 24l16 106q112 -43 186 -43q56 0 88 27t32 73q0 38 -24 59t-110 58q-101 43 -134 69q-57 47 -57 127q0 94 62 148.5t169 54.5q85 0 194 -35l-24 -103q-94 40 -165 40q-50 0 -80 -23.5t-30 -63.5q0 -35 25 -56.5t100 -52.5q108 -44 145 -75q57 -49 57 -138 q0 -98 -64 -152.5t-180 -54.5q-104 0 -206 35zM289 819l70 91h110l-111 -146h-139l-110 146h109z" />
<glyph unicode="&#x161;" horiz-adv-x="455" d="M45 29l31 89q74 -41 135 -41q40 0 62 17t22 48q0 29 -20 43q-14 11 -82 35q-77 28 -106 53q-39 36 -39 94q0 71 50.5 112.5t137.5 41.5q82 0 166 -37l-30 -89q-67 39 -131 39q-36 0 -57 -15.5t-21 -42.5q0 -28 28 -44q16 -9 80 -33q79 -29 109.5 -61t30.5 -85 q0 -75 -54 -119.5t-145 -44.5q-88 0 -167 40zM238 640l70 91h110l-111 -146h-139l-110 146h109z" />
<glyph unicode="&#x163;" horiz-adv-x="373" d="M110 421h-82v89h82v111l117 22v-133h116v-89h-116v-237q0 -56 15 -78.5t53 -22.5q22 0 55 12l11 -89q-52 -17 -104 -17q-87 0 -122 53q-25 38 -25 136v243zM174 -33h131l-140 -150h-109z" />
<glyph unicode="&#x164;" horiz-adv-x="545" d="M211 0v594h-201v98h526v-98h-204v-594h-121zM273 819l70 91h110l-111 -146h-139l-110 146h109z" />
<glyph unicode="&#x165;" horiz-adv-x="454" d="M110 421h-82v89h82v111l117 22v-133h116v-89h-116v-237q0 -56 15 -78.5t53 -22.5q22 0 55 12l11 -89q-52 -17 -104 -17q-87 0 -122 53q-25 38 -25 136v243zM377 818h131l-101 -257h-109z" />
<glyph unicode="&#x16a;" horiz-adv-x="695" d="M80 692h121v-410q0 -111 31 -150q36 -45 116 -45q96 0 129 60q22 39 22 129v416h117v-385q0 -109 -8.5 -153.5t-35.5 -79.5q-66 -85 -224 -85q-176 0 -237 103q-19 32 -25 74.5t-6 140.5v385zM183 772v75h331v-75h-331z" />
<glyph unicode="&#x16b;" horiz-adv-x="608" d="M525 510v-331q0 -94 5 -179h-111l-3 75q-45 -47 -85.5 -66.5t-92.5 -19.5q-100 0 -137 72q-22 43 -22 142v307h117v-301q0 -62 10 -86q17 -44 70 -44q69 0 132 86v345h117zM139 619v75h331v-75h-331z" />
<glyph unicode="&#x16d;" horiz-adv-x="608" d="M525 510v-331q0 -94 5 -179h-111l-3 75q-45 -47 -85.5 -66.5t-92.5 -19.5q-100 0 -137 72q-22 43 -22 142v307h117v-301q0 -62 10 -86q17 -44 70 -44q69 0 132 86v345h117zM140 731h75q3 -42 24 -60.5t66 -18.5q44 0 65 18.5t25 60.5h74q-1 -80 -41 -118t-123 -38 q-99 0 -140 58q-24 33 -25 98z" />
<glyph unicode="&#x16e;" horiz-adv-x="695" d="M80 692h121v-410q0 -111 31 -150q36 -45 116 -45q96 0 129 60q22 39 22 129v416h117v-385q0 -109 -8.5 -153.5t-35.5 -79.5q-66 -85 -224 -85q-176 0 -237 103q-19 32 -25 74.5t-6 140.5v385zM350 915q50 0 83 -33t33 -83t-33 -83t-83 -33t-83 33t-33 85q0 48 33.5 81 t82.5 33zM350 858q-25 0 -40 -16.5t-15 -42.5q0 -27 15 -43t40 -16t40 16t15 43t-15 43t-40 16z" />
<glyph unicode="&#x16f;" horiz-adv-x="608" d="M525 510v-331q0 -94 5 -179h-111l-3 75q-45 -47 -85.5 -66.5t-92.5 -19.5q-100 0 -137 72q-22 43 -22 142v307h117v-301q0 -62 10 -86q17 -44 70 -44q69 0 132 86v345h117zM304 780q46 0 77 -30.5t31 -76.5q0 -47 -31 -77.5t-77 -30.5q-47 0 -77.5 31t-30.5 78 q0 45 31 75.5t77 30.5zM304 726q-23 0 -36.5 -14.5t-13.5 -38.5q0 -25 13.5 -39.5t36.5 -14.5t36.5 14.5t13.5 39.5q0 24 -13.5 38.5t-36.5 14.5z" />
<glyph unicode="&#x170;" horiz-adv-x="695" d="M80 692h121v-410q0 -111 31 -150q36 -45 116 -45q96 0 129 60q22 39 22 129v416h117v-385q0 -109 -8.5 -153.5t-35.5 -79.5q-66 -85 -224 -85q-176 0 -237 103q-19 32 -25 74.5t-6 140.5v385zM296 903h140l-145 -146h-107zM494 903h141l-147 -146h-105z" />
<glyph unicode="&#x171;" horiz-adv-x="608" d="M525 510v-331q0 -94 5 -179h-111l-3 75q-45 -47 -85.5 -66.5t-92.5 -19.5q-100 0 -137 72q-22 43 -22 142v307h117v-301q0 -62 10 -86q17 -44 70 -44q69 0 132 86v345h117zM252 731h140l-145 -146h-107zM450 731h141l-147 -146h-105z" />
<glyph unicode="&#x172;" horiz-adv-x="695" d="M616 692v-385q0 -109 -8.5 -153.5t-35.5 -79.5q-44 -57 -136 -78q-54 -31 -77 -55.5t-23 -51.5q0 -21 16.5 -34t43.5 -13q19 0 42 6l7 -58q-47 -10 -78 -10q-58 0 -92 25t-34 67q0 68 102 117q-143 4 -205 68q-36 36 -47 83.5t-11 166.5v385h121v-410q0 -111 31 -150 q36 -45 116 -45q96 0 129 60q22 39 22 129v416h117z" />
<glyph unicode="&#x173;" horiz-adv-x="608" d="M419 0l-3 75q-45 -47 -85.5 -66.5t-92.5 -19.5q-100 0 -137 72q-22 43 -22 142v307h117v-301q0 -62 10 -86q17 -44 70 -44q69 0 132 86v345h117v-331q0 -94 5 -179q-64 -37 -86 -60t-22 -51q0 -21 16.5 -34t44.5 -13q20 0 43 6l6 -58q-46 -10 -78 -10q-58 0 -92 25 t-34 67q0 76 128 128h-37z" />
<glyph unicode="&#x174;" horiz-adv-x="924" d="M192 0l-162 692h122l83 -378q17 -76 32 -158q14 66 37 153l98 383h128l94 -370q26 -101 38 -159q13 72 33 158l85 371h115l-166 -692h-129l-96 371q-19 73 -41 171q-24 -103 -42 -169l-99 -373h-130zM463 848l-70 -91h-110l110 146h139l111 -146h-110z" />
<glyph unicode="&#x176;" horiz-adv-x="615" d="M248 0v296l-254 396h141l128 -203q28 -46 49 -87q31 58 50 88l127 202h133l-253 -396v-296h-121zM310 848l-70 -91h-110l110 146h139l111 -146h-110z" />
<glyph unicode="&#x177;" horiz-adv-x="537" d="M212 8l-205 502h124l102 -258q18 -44 43 -117q18 55 43 122l96 253h114l-206 -521q-52 -130 -94.5 -173t-120.5 -43q-45 0 -102 18l20 91q37 -15 64 -15q40 0 67 31t55 110zM268 676l-70 -91h-110l110 146h139l111 -146h-110z" />
<glyph unicode="&#x178;" horiz-adv-x="615" d="M248 0v296l-254 396h141l128 -203q28 -46 49 -87q31 58 50 88l127 202h133l-253 -396v-296h-121zM205 902q31 0 51 -20t20 -51t-20 -51t-51 -20t-51 20t-20 52q0 31 20 50.5t51 19.5zM412 902q31 0 51 -20t20 -51t-20 -51t-51 -20t-51 20t-20 52q0 31 20 50.5t51 19.5z " />
<glyph unicode="&#x179;" horiz-adv-x="573" d="M32 0v91l349 503h-337v98h484v-91l-348 -503h359v-98h-507zM341 903h142l-154 -146h-109z" />
<glyph unicode="&#x17a;" horiz-adv-x="464" d="M30 0v79l250 342h-237v89h381v-83l-248 -338h256v-89h-402zM284 731h142l-154 -146h-109z" />
<glyph unicode="&#x17b;" horiz-adv-x="573" d="M32 0v91l349 503h-337v98h484v-91l-348 -503h359v-98h-507zM302 902q31 0 51 -20t20 -51t-20 -51t-51 -20t-51 20t-20 52q0 31 20 50.5t51 19.5z" />
<glyph unicode="&#x17c;" horiz-adv-x="464" d="M30 0v79l250 342h-237v89h381v-83l-248 -338h256v-89h-402zM251 732q31 0 51 -20t20 -51t-20 -51t-51 -20t-51 20t-20 52q0 31 20 50.5t51 19.5z" />
<glyph unicode="&#x17d;" horiz-adv-x="573" d="M32 0v91l349 503h-337v98h484v-91l-348 -503h359v-98h-507zM300 819l70 91h110l-111 -146h-139l-110 146h109z" />
<glyph unicode="&#x17e;" horiz-adv-x="464" d="M30 0v79l250 342h-237v89h381v-83l-248 -338h256v-89h-402zM242 640l70 91h110l-111 -146h-139l-110 146h109z" />
<glyph unicode="&#x192;" horiz-adv-x="576" d="M202 313h-85v86h100l14 80q22 127 56 169q43 54 127 54q52 0 111 -21l-23 -89q-41 16 -68 16q-37 0 -54.5 -29.5t-33.5 -117.5l-10 -62h122v-86h-137l-35 -198q-15 -89 -26 -123.5t-31 -59.5q-45 -55 -130 -55q-46 0 -108 19l21 93q42 -17 70 -17q38 0 55.5 34t35.5 141z " />
<glyph unicode="&#x1cd;" horiz-adv-x="671" d="M462 198h-260l-71 -198h-121l256 692h134l262 -692h-129zM429 293l-58 164q-19 51 -39 119q-14 -49 -39 -119l-58 -164h194zM336 819l70 91h110l-111 -146h-139l-110 146h109z" />
<glyph unicode="&#x1ce;" horiz-adv-x="554" d="M364 0l-4 58q-37 -38 -72.5 -53.5t-85.5 -15.5q-77 0 -120.5 41t-43.5 113q0 99 81 143q49 26 151 26q14 0 83 -3v10q0 56 -29 86t-84 30q-63 0 -138 -43l-31 84q90 45 185 45q124 0 176 -67q22 -27 30 -63.5t8 -108.5v-152q0 -87 5 -130h-111zM353 140v96q-23 2 -53 2 q-141 0 -141 -92q0 -35 21.5 -56t57.5 -21q66 0 115 71zM268 640l70 91h110l-111 -146h-139l-110 146h109z" />
<glyph unicode="&#x1d3;" horiz-adv-x="695" d="M80 692h121v-410q0 -111 31 -150q36 -45 116 -45q96 0 129 60q22 39 22 129v416h117v-385q0 -109 -8.5 -153.5t-35.5 -79.5q-66 -85 -224 -85q-176 0 -237 103q-19 32 -25 74.5t-6 140.5v385zM348 819l70 91h110l-111 -146h-139l-110 146h109z" />
<glyph unicode="&#x1e6;" horiz-adv-x="706" d="M624 374v-342q-123 -43 -231 -43q-161 0 -252 93t-91 256q0 169 93.5 267t255.5 98q116 0 223 -48l-40 -97q-93 47 -181 47q-117 0 -176 -84q-49 -71 -49 -180q0 -116 60.5 -185t163.5 -69q52 0 105 18v171h-127v98h246zM390 819l70 91h110l-111 -146h-139l-110 146h109z " />
<glyph unicode="&#x1e7;" horiz-adv-x="601" d="M411 510h112q-5 -155 -5 -201v-251q0 -87 -9 -129t-35 -75q-65 -80 -209 -80q-109 0 -198 45l36 87q76 -43 153 -43q97 0 129 68q16 35 16 119v36q-65 -74 -152 -74q-93 0 -148.5 69t-55.5 184q0 116 56 186t149 70q100 0 157 -82zM401 189v149q-20 44 -52.5 68.5 t-70.5 24.5q-52 0 -82 -45.5t-30 -122.5q0 -73 31 -117t83 -44q36 0 68 23t53 64zM301 640l70 91h110l-111 -146h-139l-110 146h109z" />
<glyph unicode="&#x1f4;" horiz-adv-x="706" d="M624 374v-342q-123 -43 -231 -43q-161 0 -252 93t-91 256q0 169 93.5 267t255.5 98q116 0 223 -48l-40 -97q-93 47 -181 47q-117 0 -176 -84q-49 -71 -49 -180q0 -116 60.5 -185t163.5 -69q52 0 105 18v171h-127v98h246zM416 903h142l-154 -146h-109z" />
<glyph unicode="&#x219;" horiz-adv-x="455" d="M45 29l31 89q74 -41 135 -41q40 0 62 17t22 48q0 29 -20 43q-14 11 -82 35q-77 28 -106 53q-39 36 -39 94q0 71 50.5 112.5t137.5 41.5q82 0 166 -37l-30 -89q-67 39 -131 39q-36 0 -57 -15.5t-21 -42.5q0 -28 28 -44q16 -9 80 -33q79 -29 109.5 -61t30.5 -85 q0 -75 -54 -119.5t-145 -44.5q-88 0 -167 40zM182 -33h131l-140 -150h-109z" />
<glyph unicode="&#x21a;" horiz-adv-x="545" d="M211 0v594h-201v98h526v-98h-204v-594h-121zM222 -33h131l-140 -150h-109z" />
<glyph unicode="&#x2bc;" horiz-adv-x="225" d="M92 731h131l-101 -257h-109z" />
<glyph unicode="&#x2c6;" d="M250 676l-70 -91h-110l110 146h139l111 -146h-110z" />
<glyph unicode="&#x2c7;" d="M250 640l70 91h110l-111 -146h-139l-110 146h109z" />
<glyph unicode="&#x2c9;" d="M85 619v75h331v-75h-331z" />
<glyph unicode="&#x2d8;" d="M85 731h75q3 -42 24 -60.5t66 -18.5q44 0 65 18.5t25 60.5h74q-1 -80 -41 -118t-123 -38q-99 0 -140 58q-24 33 -25 98z" />
<glyph unicode="&#x2d9;" d="M251 732q31 0 51 -20t20 -51t-20 -51t-51 -20t-51 20t-20 52q0 31 20 50.5t51 19.5z" />
<glyph unicode="&#x2da;" d="M250 780q46 0 77 -30.5t31 -76.5q0 -47 -31 -77.5t-77 -30.5q-47 0 -77.5 31t-30.5 78q0 45 31 75.5t77 30.5zM250 726q-23 0 -36.5 -14.5t-13.5 -38.5q0 -25 13.5 -39.5t36.5 -14.5t36.5 14.5t13.5 39.5q0 24 -13.5 38.5t-36.5 14.5z" />
<glyph unicode="&#x2db;" d="M304 -152l7 -58q-46 -10 -78 -10q-58 0 -92 25t-34 67q0 75 127 128h74q-64 -38 -85 -60t-21 -51q0 -21 16.5 -34t43.5 -13q19 0 42 6z" />
<glyph unicode="&#x2dc;" d="M134 594h-69q5 57 31.5 90t69.5 33q32 0 94 -22q50 -17 67 -17q36 0 41 41h68q-12 -124 -103 -124q-30 0 -89 20q-57 19 -72 19q-29 0 -38 -40z" />
<glyph unicode="&#x2dd;" d="M198 731h140l-145 -146h-107zM396 731h141l-147 -146h-105z" />
<glyph unicode="&#x384;" d="M249 741h139l-97 -164h-94z" />
<glyph unicode="&#x385;" d="M116 721q26 0 42 -16.5t16 -41.5t-16 -41.5t-42 -16.5t-42 16.5t-16 42.5q0 25 16.5 41t41.5 16zM384 721q26 0 42 -16.5t16 -41.5t-16 -41.5t-42 -16.5t-42 16.5t-16 42.5q0 25 16.5 41t41.5 16zM210 577l-16 170h112l-17 -170h-79z" />
<glyph unicode="&#x386;" horiz-adv-x="674" d="M452 198h-259l-71 -198h-122l256 692h135l261 -692h-129zM419 293l-58 164q-19 51 -39 119q-16 -54 -39 -119l-58 -164h194zM34 731h139l-97 -210h-94z" />
<glyph unicode="&#x387;" horiz-adv-x="288" d="M145 362q33 0 55 -22t22 -55q0 -34 -22 -56t-55 -22q-34 0 -56 22.5t-22 56.5q0 32 22.5 54t55.5 22z" />
<glyph unicode="&#x388;" horiz-adv-x="721" d="M42 731h139l-97 -210h-94zM245 0v692h405v-98h-284v-194h270v-98h-270v-204h299v-98h-420z" />
<glyph unicode="&#x389;" horiz-adv-x="864" d="M42 731h139l-97 -210h-94zM245 0v692h121v-290h290v290h121v-692h-121v304h-290v-304h-121z" />
<glyph unicode="&#x38a;" horiz-adv-x="471" d="M42 731h139l-97 -210h-94zM254 0v692h121v-692h-121z" />
<glyph unicode="&#x38c;" horiz-adv-x="865" d="M42 731h139l-97 -210h-94zM493 703q159 0 244 -110q77 -100 77 -247q0 -173 -101 -274q-80 -83 -220 -83q-159 0 -244 110q-77 101 -77 251q0 80 26.5 151t74.5 119q80 83 220 83zM493 605q-89 0 -142 -69.5t-53 -186.5q0 -122 52 -192t143 -70q90 0 142.5 70t52.5 189 t-52.5 189t-142.5 70z" />
<glyph unicode="&#x38e;" horiz-adv-x="827" d="M42 731h139l-97 -210h-94zM458 0v296l-254 396h141l128 -203q25 -41 49 -87q25 48 50 88l127 202h133l-253 -396v-296h-121z" />
<glyph unicode="&#x38f;" horiz-adv-x="907" d="M42 731h139l-97 -210h-94zM177 0v93h199v28q-81 30 -121 70q-83 80 -83 205q0 148 108 236q89 71 234 71q166 0 259 -95q82 -87 82 -212q0 -144 -106 -225q-34 -27 -98 -50v-28h199v-93h-289v184q76 22 113 59q55 56 55 149q0 100 -57.5 156.5t-158.5 56.5t-158 -56.5 t-57 -156.5q0 -108 73 -166q35 -26 95 -42v-184h-289z" />
<glyph unicode="&#x390;" horiz-adv-x="336" d="M89 510h117v-339q0 -50 14 -71t47 -21q17 0 46 7l11 -86q-47 -11 -90 -11q-98 0 -128 67q-17 37 -17 140v314zM14 721q26 0 42 -16.5t16 -41.5t-16 -41.5t-42 -16.5t-42 16.5t-16 42.5q0 25 16.5 41t41.5 16zM282 721q26 0 42 -16.5t16 -41.5t-16 -41.5t-42 -16.5 t-42 16.5t-16 42.5q0 25 16.5 41t41.5 16zM108 577l-16 170h112l-17 -170h-79z" />
<glyph unicode="&#x391;" horiz-adv-x="674" d="M463 198h-260l-71 -198h-121l256 692h134l262 -692h-129zM430 293l-58 164q-19 51 -39 119q-16 -54 -39 -119l-58 -164h194z" />
<glyph unicode="&#x392;" horiz-adv-x="598" d="M87 0v692h185q72 0 111 -7t71 -25q37 -20 57.5 -60.5t20.5 -90.5q0 -125 -121 -156q136 -28 136 -162q0 -106 -79 -157q-54 -34 -174 -34h-207zM206 393h56q80 0 110 20q37 25 37 81q0 61 -38 85q-33 21 -114 21h-51v-207zM206 92h57q84 0 114 16q45 24 45 91 q0 66 -53 92q-34 17 -105 17h-58v-216z" />
<glyph unicode="&#x393;" horiz-adv-x="509" d="M87 0v692h402v-98h-281v-594h-121z" />
<glyph unicode="&#x394;" horiz-adv-x="675" d="M21 0v89l240 603h143l250 -603v-89h-633zM146 95h378l-139 358q-31 80 -50 141q-11 -29 -22 -65q-2 -4 -11.5 -30.5t-16.5 -43.5z" />
<glyph unicode="&#x395;" horiz-adv-x="563" d="M87 0v692h405v-98h-284v-194h270v-98h-270v-204h299v-98h-420z" />
<glyph unicode="&#x396;" horiz-adv-x="575" d="M33 0v91l349 503h-337v98h484v-91l-348 -503h359v-98h-507z" />
<glyph unicode="&#x397;" horiz-adv-x="706" d="M87 0v692h121v-290h290v290h121v-692h-121v304h-290v-304h-121z" />
<glyph unicode="&#x398;" horiz-adv-x="744" d="M244 303v96h256v-96h-256zM372 703q159 0 244 -110q77 -100 77 -247q0 -173 -101 -274q-80 -83 -220 -83q-159 0 -244 110q-77 99 -77 251q0 80 26.5 151t74.5 119q80 83 220 83zM372 605q-89 0 -142 -69.5t-53 -186.5q0 -122 52 -192t143 -70q90 0 142.5 70t52.5 189 t-52.5 189t-142.5 70z" />
<glyph unicode="&#x399;" horiz-adv-x="313" d="M96 0v692h121v-692h-121z" />
<glyph unicode="&#x39a;" horiz-adv-x="638" d="M87 0v692h121v-326l273 326h140l-275 -324l286 -368h-148l-276 359v-359h-121z" />
<glyph unicode="&#x39b;" horiz-adv-x="653" d="M11 0l245 692h135l251 -692h-129l-153 457q-16 45 -37 119q-10 -34 -16 -54q-10 -32 -21 -65l-154 -457h-121z" />
<glyph unicode="&#x39c;" horiz-adv-x="905" d="M87 0v692h176l155 -439q26 -83 37 -121q21 73 37 121l153 439h173v-692h-118v567q-17 -61 -47 -151l-144 -416h-115l-143 407q-23 66 -51 160v-567h-113z" />
<glyph unicode="&#x39d;" horiz-adv-x="726" d="M87 0v692h135l222 -368q38 -64 68 -126q2 -4 13 -25q-2 43 -2 119v400h116v-692h-134l-217 357q-41 69 -87 163q2 -57 2 -151v-369h-116z" />
<glyph unicode="&#x39e;" horiz-adv-x="583" d="M50 0v98h483v-98h-483zM106 303v98h371v-98h-371zM65 594v98h453v-98h-453z" />
<glyph unicode="&#x39f;" horiz-adv-x="744" d="M372 703q159 0 244 -110q77 -100 77 -247q0 -173 -101 -274q-80 -83 -220 -83q-159 0 -244 110q-77 99 -77 251q0 80 26.5 151t74.5 119q80 83 220 83zM372 605q-89 0 -142 -69.5t-53 -186.5q0 -122 52 -192t143 -70q90 0 142.5 70t52.5 189t-52.5 189t-142.5 70z" />
<glyph unicode="&#x3a0;" horiz-adv-x="703" d="M101 0v594h-63v98h628v-98h-64v-594h-121v594h-259v-594h-121z" />
<glyph unicode="&#x3a1;" horiz-adv-x="554" d="M87 0v692h167q79 0 123.5 -9t76.5 -32q78 -56 78 -167t-81 -167q-59 -41 -187 -41h-56v-276h-121zM206 371h39q82 0 115 17q48 24 48 93q0 66 -44 94q-34 22 -113 22h-45v-226z" />
<glyph unicode="&#x3a3;" horiz-adv-x="552" d="M36 0v91l221 265l-210 245v91h464v-98h-320l185 -210v-57l-198 -229h351v-98h-493z" />
<glyph unicode="&#x3a4;" horiz-adv-x="548" d="M212 0v594h-201v98h526v-98h-204v-594h-121z" />
<glyph unicode="&#x3a5;" horiz-adv-x="618" d="M249 0v296l-254 396h141l128 -203q28 -46 49 -87q31 58 50 88l127 202h133l-253 -396v-296h-121z" />
<glyph unicode="&#x3a6;" horiz-adv-x="859" d="M374 -30v85q-150 10 -236.5 88t-86.5 203t86.5 203t236.5 88v85h111v-85q150 -10 236.5 -88t86.5 -203t-86.5 -203t-236.5 -88v-85h-111zM485 546v-400q93 11 145.5 64t52.5 136t-52.5 136t-145.5 64zM374 146v400q-93 -11 -145.5 -64t-52.5 -136t52.5 -136t145.5 -64z " />
<glyph unicode="&#x3a7;" horiz-adv-x="683" d="M14 0l253 356l-234 336h141l170 -246l173 246h137l-241 -339l247 -353h-146l-177 257l-180 -257h-143z" />
<glyph unicode="&#x3a8;" horiz-adv-x="882" d="M381 0v179h-34q-82 0 -134 16t-88 52q-36 37 -47 84.5t-11 166.5v194h121v-219q0 -70 10 -106.5t35 -58.5q37 -31 119 -31h29v415h121v-415h29q83 0 119 31q25 21 35 58t10 107v219h121v-194q0 -119 -11 -166.5t-47 -84.5q-36 -36 -88 -52t-134 -16h-34v-179h-121z" />
<glyph unicode="&#x3a9;" horiz-adv-x="786" d="M56 0v93h200v28q-78 27 -122 70q-83 81 -83 205q0 148 109 236q88 71 233 71q167 0 259 -95q83 -86 83 -212q0 -144 -107 -225q-34 -27 -98 -50v-28h200v-93h-290v184q76 22 113 59q55 56 55 149q0 100 -57 156.5t-158 56.5t-158 -56.5t-57 -156.5q0 -108 73 -166 q31 -23 95 -42v-184h-290z" />
<glyph unicode="&#x3aa;" horiz-adv-x="313" d="M96 0v692h121v-692h-121zM53 902q31 0 51 -20t20 -51t-20 -51t-51 -20t-51 20t-20 52q0 31 20 50.5t51 19.5zM260 902q31 0 51 -20t20 -51t-20 -51t-51 -20t-51 20t-20 52q0 31 20 50.5t51 19.5z" />
<glyph unicode="&#x3ab;" horiz-adv-x="618" d="M249 0v296l-254 396h141l128 -203q28 -46 49 -87q31 58 50 88l127 202h133l-253 -396v-296h-121zM206 902q31 0 51 -20t20 -51t-20 -51t-51 -20t-51 20t-20 52q0 31 20 50.5t51 19.5zM413 902q31 0 51 -20t20 -51t-20 -51t-51 -20t-51 20t-20 52q0 31 20 50.5t51 19.5z " />
<glyph unicode="&#x3ac;" horiz-adv-x="609" d="M564 12l-117 -25q-15 45 -27 121q-32 -64 -72.5 -91.5t-102.5 -27.5q-95 0 -147 69t-52 194t55 197t150 72q58 0 96.5 -26t66.5 -84q3 45 13 105l117 -13q-20 -117 -20 -244q0 -134 40 -247zM405 191v90q-23 79 -53.5 114.5t-75.5 35.5q-53 0 -81 -45.5t-28 -131.5 q0 -175 108 -175q84 0 130 112zM284 741h139l-97 -164h-94z" />
<glyph unicode="&#x3ad;" horiz-adv-x="511" d="M407 219h-238q11 -73 46 -106.5t101 -33.5q68 0 133 40l38 -86q-78 -44 -183 -44q-126 0 -192.5 67t-66.5 194q0 130 63.5 200.5t181.5 70.5q90 0 181 -39l-35 -87q-67 37 -131 37q-116 0 -135 -129h237v-84zM287 741h139l-97 -164h-94z" />
<glyph unicode="&#x3ae;" horiz-adv-x="616" d="M85 0v331q0 78 -5 179h111l3 -75q47 48 86.5 67t92.5 19q100 0 138 -72q22 -41 22 -142v-522h-117v516q0 62 -10 86q-17 44 -71 44q-70 0 -133 -86v-345h-117zM314 741h139l-97 -164h-94z" />
<glyph unicode="&#x3af;" horiz-adv-x="336" d="M90 510h117v-339q0 -50 13.5 -71t47.5 -21q17 0 46 7l11 -86q-47 -11 -90 -11q-98 0 -128 67q-17 37 -17 140v314zM157 741h139l-97 -164h-94z" />
<glyph unicode="&#x3b0;" horiz-adv-x="600" d="M80 510h117v-278q0 -72 12 -101q19 -53 91 -53t91 53q12 29 12 101v278h117v-272q0 -116 -24 -163q-42 -86 -196 -86t-196 86q-24 47 -24 163v272zM166 721q26 0 42 -16.5t16 -41.5t-16 -41.5t-42 -16.5t-42 16.5t-16 42.5q0 25 16.5 41t41.5 16zM434 721q26 0 42 -16.5 t16 -41.5t-16 -41.5t-42 -16.5t-42 16.5t-16 42.5q0 25 16.5 41t41.5 16zM260 577l-16 170h112l-17 -170h-79z" />
<glyph unicode="&#x3b1;" horiz-adv-x="609" d="M564 12l-117 -25q-15 45 -27 121q-32 -64 -72.5 -91.5t-102.5 -27.5q-95 0 -147 69t-52 194t55 197t150 72q58 0 96.5 -26t66.5 -84q3 45 13 105l117 -13q-20 -117 -20 -244q0 -134 40 -247zM405 191v90q-23 79 -53.5 114.5t-75.5 35.5q-53 0 -81 -45.5t-28 -131.5 q0 -175 108 -175q84 0 130 112z" />
<glyph unicode="&#x3b2;" horiz-adv-x="620" d="M83 -215v700q0 76 8.5 115.5t30.5 67.5q57 75 185 75q106 0 167.5 -51.5t61.5 -139.5q0 -58 -31 -98.5t-85 -54.5q69 -16 103 -51q51 -52 51 -141q0 -98 -60 -158t-158 -60q-48 0 -83 13.5t-73 46.5v-264h-117zM200 487v-348q35 -33 64.5 -46.5t66.5 -13.5q58 0 91 35.5 t33 96.5q0 63 -38 100t-102 37h-19v88q59 0 90 29t31 84q0 49 -29 77t-79 28q-74 0 -98 -63q-11 -29 -11 -104z" />
<glyph unicode="&#x3b3;" horiz-adv-x="542" d="M212 -215v125q0 120 -38.5 229.5t-157.5 331.5l97 49q126 -223 161 -343q33 118 161 343l90 -49q-119 -220 -157.5 -330.5t-38.5 -230.5v-125h-117z" />
<glyph unicode="&#x3b4;" horiz-adv-x="586" d="M484 714l-22 -91q-89 33 -166 33t-77 -50q0 -26 19 -41.5t96 -50.5q119 -55 162.5 -112t43.5 -159q0 -119 -65.5 -186.5t-180.5 -67.5q-118 0 -183 64.5t-65 182.5q0 89 36 147t115 94q-44 29 -56 43q-35 38 -35 88q0 135 186 135q86 0 192 -29zM266 438 q-31 -16 -42 -25.5t-23 -29.5q-34 -54 -34 -141q0 -79 32.5 -121.5t92.5 -42.5t93.5 42.5t33.5 119.5q0 85 -44 129q-24 26 -109 69z" />
<glyph unicode="&#x3b5;" horiz-adv-x="509" d="M408 219h-238q11 -73 46 -106.5t101 -33.5q64 0 127 36l38 -85q-74 -41 -177 -41q-126 0 -192.5 67t-66.5 194q0 130 63.5 200.5t180.5 70.5q91 0 180 -43l-36 -84q-66 38 -128 38q-116 0 -135 -129h237v-84z" />
<glyph unicode="&#x3b6;" horiz-adv-x="419" d="M60 649l7 91q73 -9 183 -9h174v-98q-144 -143 -200.5 -238.5t-56.5 -194.5q0 -52 17 -77t63 -39q69 -21 93 -31.5t45 -28.5q42 -36 42 -108q0 -62 -42 -148l-90 37q26 62 26 102q0 38 -24 55q-15 11 -68 24q-65 16 -91 27t-45 32q-47 47 -47 141q0 81 32.5 155t104.5 155 q58 67 150 146h-103q-93 0 -170 7z" />
<glyph unicode="&#x3b7;" horiz-adv-x="616" d="M85 0v331q0 78 -5 179h111l3 -75q47 48 86.5 67t92.5 19q100 0 138 -72q22 -41 22 -142v-522h-117v516q0 62 -10 86q-17 44 -71 44q-70 0 -133 -86v-345h-117z" />
<glyph unicode="&#x3b8;" horiz-adv-x="590" d="M295 742q114 0 179 -101t65 -277q0 -180 -71 -283q-63 -92 -173 -92q-115 0 -179 99.5t-64 279.5q0 172 65.5 273t177.5 101zM420 341h-249q6 -265 124 -265q119 0 125 265zM172 423h247q-18 232 -124 232q-105 0 -123 -232z" />
<glyph unicode="&#x3b9;" horiz-adv-x="336" d="M90 510h117v-339q0 -50 13.5 -71t47.5 -21q17 0 46 7l11 -86q-47 -11 -90 -11q-98 0 -128 67q-17 37 -17 140v314z" />
<glyph unicode="&#x3ba;" horiz-adv-x="563" d="M85 0v510h117v-215l201 215h137l-218 -226l235 -284h-140l-215 262v-262h-117z" />
<glyph unicode="&#x3bb;" horiz-adv-x="536" d="M6 13l212 501l-7 16q-28 64 -52.5 85t-77.5 23l9 103q100 -1 146 -39.5t90 -158.5l112 -299q30 -78 50.5 -118t50.5 -73l-93 -67q-34 34 -57.5 81t-58.5 149l-21 60q-26 72 -37 113q-28 -82 -58 -154l-99 -250z" />
<glyph unicode="&#x3bc;" horiz-adv-x="616" d="M87 -215v725h117v-261q0 -83 12 -115q19 -55 82 -55q65 0 116 77v354h117v-331q0 -97 5 -179h-111l-4 70q-32 -44 -61.5 -62.5t-67.5 -18.5q-52 0 -88 39v-243h-117z" />
<glyph unicode="&#x3bd;" horiz-adv-x="542" d="M206 0l-193 510h121l106 -282q22 -59 38 -112q9 33 37 113l103 281h111l-191 -510h-132z" />
<glyph unicode="&#x3be;" horiz-adv-x="466" d="M60 647l6 92q96 -8 187 -8h192v-89h-38q-100 0 -146 -27.5t-46 -86.5q0 -104 134 -104h61v-83h-61q-90 0 -127 -30q-46 -37 -46 -110q0 -66 36 -94q17 -13 78 -29q83 -21 112 -53q35 -40 35 -108q0 -66 -35 -147l-96 37q25 67 25 102q0 38 -22 57q-14 12 -70 25 t-82.5 24.5t-48.5 32.5q-53 51 -53 146q0 106 71 160q25 20 78 35q-111 38 -111 122q0 90 122 131h-35q-60 0 -120 5z" />
<glyph unicode="&#x3bf;" horiz-adv-x="592" d="M296 521q116 0 183 -71t67 -195t-67 -195t-183 -71q-117 0 -183.5 71.5t-66.5 197.5q0 122 67.5 192.5t182.5 70.5zM296 432q-60 0 -94.5 -47t-34.5 -128q0 -84 34 -131.5t95 -47.5q60 0 94.5 47.5t34.5 129.5t-34.5 129.5t-94.5 47.5z" />
<glyph unicode="&#x3c0;" horiz-adv-x="611" d="M97 0v421h-79v89h575v-89h-76v-421h-117v421h-186v-421h-117z" />
<glyph unicode="&#x3c1;" horiz-adv-x="608" d="M199 50v-265h-117v447q0 129 46 197q62 92 193 92q113 0 177.5 -71t64.5 -196q0 -124 -56.5 -194.5t-156.5 -70.5q-96 0 -151 61zM199 256v-98q43 -79 121 -79q58 0 90 46t32 130q0 83 -32 130t-89 47q-59 0 -90.5 -45.5t-31.5 -130.5z" />
<glyph unicode="&#x3c2;" horiz-adv-x="482" d="M364 -232l-90 37q32 72 32 116q0 28 -17.5 41t-122.5 64q-120 62 -120 212q0 72 22.5 133.5t62.5 96.5q60 53 159 53q83 0 162 -38l-34 -84q-59 33 -114 33q-66 0 -101 -51t-35 -146q0 -61 22 -91t91 -65q54 -27 71.5 -38.5t30.5 -27.5q28 -36 28 -84q0 -59 -47 -161z " />
<glyph unicode="&#x3c3;" horiz-adv-x="597" d="M566 419l-100 5q67 -66 67 -176q0 -125 -69 -196q-62 -63 -171 -63q-118 0 -182.5 69.5t-64.5 196.5q0 124 64 195t176 71q27 0 90 -6q46 -5 65 -5h125v-91zM289 432q-58 0 -90 -46.5t-32 -130.5q0 -85 33 -131t92 -46q58 0 89 45t31 128q0 86 -32 133.5t-91 47.5z" />
<glyph unicode="&#x3c4;" horiz-adv-x="472" d="M159 421h-153v89h449v-89h-179v-243q0 -57 13.5 -78t49.5 -21q25 0 59 10l12 -84q-58 -16 -110 -16q-84 0 -117 52q-24 37 -24 132v248z" />
<glyph unicode="&#x3c5;" horiz-adv-x="600" d="M80 510h117v-278q0 -72 12 -101q19 -53 91 -53t91 53q12 29 12 101v278h117v-272q0 -116 -24 -163q-42 -86 -196 -86t-196 86q-24 47 -24 163v272z" />
<glyph unicode="&#x3c6;" horiz-adv-x="770" d="M331 -215v209q-137 10 -211 78t-74 184q0 198 205 253l26 -82q-61 -25 -86 -63.5t-25 -107.5q0 -162 165 -179v440q41 3 60 3q158 0 245.5 -69.5t87.5 -193.5q0 -79 -38 -139t-107 -91q-54 -24 -141 -33v-209h-107zM438 435v-357q78 4 122 51.5t44 126.5 q0 80 -44.5 127.5t-121.5 51.5z" />
<glyph unicode="&#x3c7;" d="M182 181l-44 93q-38 76 -63 102t-71 37l15 104q86 -16 127.5 -53.5t92.5 -146.5l23 -46l125 250l98 -43l-164 -321l60 -121q34 -72 61 -110t66 -71l-70 -84q-50 38 -83 83.5t-68 127.5l-43 93l-161 -304l-98 43z" />
<glyph unicode="&#x3c8;" horiz-adv-x="791" d="M338 -215v211q-77 2 -117.5 9.5t-74.5 26.5q-89 51 -89 225q0 115 29 260l115 -16q-23 -124 -23 -228q0 -106 34 -146t126 -42v425h115v-425q92 2 126 42t34 146q0 104 -23 228l115 16q29 -145 29 -260q0 -174 -89 -225q-34 -19 -74.5 -26.5t-117.5 -9.5v-211h-115z" />
<glyph unicode="&#x3c9;" horiz-adv-x="749" d="M501 496l90 24q60 -64 86.5 -130t26.5 -153q0 -118 -50.5 -183t-141.5 -65q-92 0 -137 91q-45 -91 -137 -91q-91 0 -141.5 65t-50.5 183q0 87 26.5 153t86.5 130l90 -24q-44 -69 -62.5 -128t-18.5 -134q0 -156 82 -156q50 0 64 53q8 27 8 93v155h106v-155q0 -76 11 -105 q17 -41 61 -41q82 0 82 156q0 75 -18.5 134.5t-62.5 127.5z" />
<glyph unicode="&#x3ca;" horiz-adv-x="336" d="M89 510h117v-339q0 -50 13.5 -71t47.5 -21q17 0 46 7l11 -86q-47 -11 -90 -11q-98 0 -128 67q-17 37 -17 140v314zM58 732q31 0 50 -19t19 -49t-19 -49.5t-49 -19.5q-31 0 -50 19.5t-19 50.5q0 29 19.5 48t48.5 19zM265 732q31 0 50 -19t19 -49t-19 -49.5t-49 -19.5 q-31 0 -50 19.5t-19 50.5q0 29 19.5 48t48.5 19z" />
<glyph unicode="&#x3cb;" horiz-adv-x="600" d="M80 510h117v-278q0 -72 12 -101q19 -53 91 -53t91 53q12 29 12 101v278h117v-272q0 -116 -24 -163q-42 -86 -196 -86t-196 86q-24 47 -24 163v272zM196 732q31 0 50 -19t19 -49t-19.5 -49.5t-48.5 -19.5q-31 0 -50 19.5t-19 50.5q0 29 19.5 48t48.5 19zM403 732 q31 0 50 -19t19 -49t-19.5 -49.5t-48.5 -19.5q-31 0 -50 19.5t-19 50.5q0 29 19.5 48t48.5 19z" />
<glyph unicode="&#x3cc;" horiz-adv-x="592" d="M296 521q116 0 183 -71t67 -195t-67 -195t-183 -71q-117 0 -183.5 71.5t-66.5 197.5q0 122 67.5 192.5t182.5 70.5zM296 432q-60 0 -94.5 -47t-34.5 -128q0 -84 34 -131.5t95 -47.5q60 0 94.5 47.5t34.5 129.5t-34.5 129.5t-94.5 47.5zM294 741h139l-97 -164h-94z" />
<glyph unicode="&#x3cd;" horiz-adv-x="600" d="M80 510h117v-278q0 -72 12 -101q19 -53 91 -53t91 53q12 29 12 101v278h117v-272q0 -116 -24 -163q-42 -86 -196 -86t-196 86q-24 47 -24 163v272zM299 741h139l-97 -164h-94z" />
<glyph unicode="&#x3ce;" horiz-adv-x="749" d="M501 496l90 24q60 -64 86.5 -130t26.5 -153q0 -118 -50.5 -183t-141.5 -65q-92 0 -137 91q-45 -91 -137 -91q-91 0 -141.5 65t-50.5 183q0 87 26.5 153t86.5 130l90 -24q-44 -69 -62.5 -128t-18.5 -134q0 -156 82 -156q50 0 64 53q8 27 8 93v155h106v-155q0 -76 11 -105 q17 -41 61 -41q82 0 82 156q0 75 -18.5 134.5t-62.5 127.5zM370 741h139l-97 -164h-94z" />
<glyph unicode="&#x401;" horiz-adv-x="565" d="M88 0v692h405v-98h-284v-194h270v-98h-270v-204h299v-98h-420zM189 902q31 0 51 -20t20 -51t-20 -51t-51 -20t-51 20t-20 52q0 31 20 50.5t51 19.5zM396 902q31 0 51 -20t20 -51t-20 -51t-51 -20t-51 20t-20 52q0 31 20 50.5t51 19.5z" />
<glyph unicode="&#x402;" horiz-adv-x="761" d="M177 0v594h-163v98h555v-98h-270v-218q50 44 96.5 63.5t104.5 19.5q113 0 154 -77q24 -45 24 -152v-102q0 -128 -13.5 -189t-50.5 -95q-59 -55 -195 -59v89q90 3 116 54q21 42 21 189v91q0 88 -19 120.5t-69 32.5q-91 0 -169 -92v-269h-122z" />
<glyph unicode="&#x403;" horiz-adv-x="511" d="M88 0v692h402v-98h-281v-594h-121zM325 903h142l-154 -146h-109z" />
<glyph unicode="&#x404;" horiz-adv-x="597" d="M486 304h-305q7 -112 51 -165t131 -53q78 0 157 44l40 -92q-98 -49 -212 -49q-296 0 -296 356q0 176 73.5 267t215.5 91q110 0 206 -51l-39 -92q-79 45 -157 45q-80 0 -120 -48.5t-49 -154.5h304v-98z" />
<glyph unicode="&#x405;" horiz-adv-x="557" d="M55 24l16 106q112 -43 186 -43q56 0 88 27t32 73q0 38 -24 59t-110 58q-101 43 -134 69q-57 47 -57 127q0 94 62 148.5t169 54.5q85 0 194 -35l-24 -103q-94 40 -165 40q-50 0 -80 -23.5t-30 -63.5q0 -35 25 -56.5t100 -52.5q108 -44 145 -75q57 -49 57 -138 q0 -98 -64 -152.5t-180 -54.5q-104 0 -206 35z" />
<glyph unicode="&#x406;" horiz-adv-x="298" d="M88 0v692h121v-692h-121z" />
<glyph unicode="&#x407;" horiz-adv-x="298" d="M89 0v692h121v-692h-121zM46 902q31 0 51 -20t20 -51t-20 -51t-51 -20t-51 20t-20 52q0 31 20 50.5t51 19.5zM253 902q31 0 51 -20t20 -51t-20 -51t-51 -20t-51 20t-20 52q0 31 20 50.5t51 19.5z" />
<glyph unicode="&#x408;" horiz-adv-x="401" d="M197 692h121v-433q0 -94 -8 -135.5t-31 -72.5q-48 -62 -157 -62q-66 0 -121 20l11 101q49 -21 90 -21q61 0 81 40q14 28 14 126v437z" />
<glyph unicode="&#x409;" horiz-adv-x="957" d="M447 0v594h-223v-346q0 -98 -11 -138q-17 -59 -64 -83t-149 -27v98q39 4 57.5 9.5t31 25.5t15 48t2.5 87v424h462v-254h97q68 0 106 -8t68 -30q79 -56 79 -181t-79 -181q-30 -22 -68 -30t-106 -8h-218zM568 92h71q83 0 115 24q39 31 39 103t-39 103q-32 24 -115 24h-71 v-254z" />
<glyph unicode="&#x40a;" horiz-adv-x="994" d="M88 0v692h121v-272h269v272h121v-272h100q68 0 106.5 -8t69.5 -29q80 -53 80 -173t-80 -173q-31 -21 -69.5 -29t-106.5 -8h-221v323h-269v-323h-121zM599 92h74q86 0 118 23q39 28 39 95t-39 95q-31 23 -118 23h-74v-236z" />
<glyph unicode="&#x40b;" horiz-adv-x="764" d="M177 0v594h-163v98h555v-98h-270v-218q50 45 97 64t106 19q114 0 157 -72q25 -40 25 -142v-245h-121v227q0 67 -13 93q-20 41 -82 41q-93 0 -169 -92v-269h-122z" />
<glyph unicode="&#x40c;" horiz-adv-x="633" d="M88 0v692h120v-300h31q52 0 76 30q15 18 49 102q43 107 78 139.5t109 32.5q24 0 51 -4l-9 -96q-17 4 -29 4q-42 0 -65 -37q-14 -22 -38 -87q-22 -59 -38.5 -80.5t-51.5 -40.5q50 -17 72.5 -39.5t64.5 -101.5l110 -214h-133l-85 165q-29 57 -39.5 74t-25.5 33 q-30 34 -87 34h-40v-306h-120zM386 903h142l-154 -146h-109z" />
<glyph unicode="&#x40e;" horiz-adv-x="610" d="M270 152l-255 540h134l111 -261q25 -58 28 -66q3 -7 8 -20t14 -36.5t16 -41.5q28 81 63 166l106 259h119l-219 -518q-46 -108 -90 -146.5t-123 -38.5q-39 0 -79 10l17 94q29 -7 54 -7q37 0 58 14.5t38 51.5zM157 902h74q4 -42 25 -60.5t65 -18.5q45 0 66 18.5t24 60.5h75 q-1 -67 -24 -102q-41 -62 -141 -62q-101 0 -140 62q-23 33 -24 102z" />
<glyph unicode="&#x40f;" horiz-adv-x="676" d="M88 0v692h121v-594h257v594h121v-692h-190l-14 -168h-91l-14 168h-190z" />
<glyph unicode="&#x410;" horiz-adv-x="677" d="M464 198h-260l-71 -198h-121l256 692h134l262 -692h-129zM431 293l-58 164q-19 51 -39 119q-16 -54 -39 -119l-58 -164h194z" />
<glyph unicode="&#x411;" horiz-adv-x="596" d="M88 0v692h417v-98h-296v-162h82q122 0 177 -38q81 -53 81 -178q0 -124 -81 -178q-53 -38 -168 -38h-212zM209 92h66q76 0 108 23q41 30 41 101t-41 101q-32 23 -108 23h-66v-248z" />
<glyph unicode="&#x412;" horiz-adv-x="601" d="M88 0v692h185q72 0 111 -7t71 -25q37 -20 57.5 -60.5t20.5 -90.5q0 -125 -121 -156q136 -28 136 -162q0 -106 -79 -157q-54 -34 -174 -34h-207zM207 393h56q80 0 110 20q37 25 37 81q0 61 -38 85q-33 21 -114 21h-51v-207zM207 92h57q84 0 114 16q45 24 45 91 q0 66 -53 92q-34 17 -105 17h-58v-216z" />
<glyph unicode="&#x413;" horiz-adv-x="511" d="M88 0v692h402v-98h-281v-594h-121z" />
<glyph unicode="&#x414;" horiz-adv-x="677" d="M549 0h-458l-14 -168h-91v266h66q37 67 53 167q23 143 23 333v94h452v-594h73v-266h-90zM459 96v498h-216v-48q0 -133 -21 -280q-13 -90 -44 -170h281z" />
<glyph unicode="&#x415;" horiz-adv-x="565" d="M88 0v692h405v-98h-284v-194h270v-98h-270v-204h299v-98h-420z" />
<glyph unicode="&#x416;" horiz-adv-x="887" d="M384 0v306h-8q-49 0 -77.5 -27t-71.5 -114l-81 -165h-132l106 214q41 78 63.5 101.5t73.5 39.5q-40 21 -56 44.5t-47 109.5q-18 52 -37 71t-52 19q-4 0 -28 -2l-8 95q33 3 51 3q86 0 127 -57q14 -20 23 -39.5t49 -118.5q21 -53 40.5 -70.5t57.5 -17.5h7v300h119v-300h7 q50 0 74 35q9 15 49 113q35 91 67 121q38 34 107 34q18 0 51 -3l-8 -95q-24 2 -28 2q-37 0 -55 -21.5t-47 -102.5q-22 -60 -37 -80t-53 -40q51 -16 74 -39.5t63 -101.5l106 -214h-132l-81 165q-43 87 -71.5 114t-77.5 27h-8v-306h-119z" />
<glyph unicode="&#x417;" horiz-adv-x="582" d="M26 27l27 97q94 -38 189 -38q77 0 118.5 29.5t41.5 84.5q0 60 -48.5 87.5t-152.5 27.5q-40 0 -71 -1v93q24 -2 57 -2q109 0 157 28q51 29 51 79q0 46 -36.5 70t-104.5 24q-76 0 -176 -38l-24 96q104 39 213 39q121 0 185.5 -46.5t64.5 -133.5q0 -66 -36.5 -107.5 t-104.5 -54.5q77 -15 113 -55t36 -110q0 -99 -71 -153t-203 -54q-117 0 -225 38z" />
<glyph unicode="&#x418;" horiz-adv-x="703" d="M88 0v692h118v-464l290 406v58h118v-692h-118v469l-290 -406v-63h-118z" />
<glyph unicode="&#x419;" horiz-adv-x="703" d="M88 0v692h118v-464l290 406v58h118v-692h-118v469l-290 -406v-63h-118zM187 902h74q3 -42 24 -60.5t66 -18.5t66 18.5t24 60.5h75q-1 -67 -24 -102q-41 -62 -141 -62q-101 0 -140 62q-23 33 -24 102z" />
<glyph unicode="&#x41a;" horiz-adv-x="633" d="M88 0v692h120v-300h31q52 0 76 30q15 18 49 102q43 107 78 139.5t109 32.5q24 0 51 -4l-9 -96q-17 4 -29 4q-42 0 -65 -37q-14 -22 -38 -87q-22 -59 -38.5 -80.5t-51.5 -40.5q50 -17 72.5 -39.5t64.5 -101.5l110 -214h-133l-85 165q-29 57 -39.5 74t-25.5 33 q-30 34 -87 34h-40v-306h-120z" />
<glyph unicode="&#x41b;" horiz-adv-x="664" d="M106 692h469v-692h-121v594h-230v-346q0 -102 -13.5 -145.5t-52.5 -69.5q-47 -30 -158 -33v98q39 4 57.5 9.5t31 25t15 48t2.5 87.5v424z" />
<glyph unicode="&#x41c;" horiz-adv-x="908" d="M88 0v692h176l155 -439q26 -83 37 -121q21 73 37 121l153 439h173v-692h-118v567q-17 -61 -47 -151l-144 -416h-115l-143 407q-23 66 -51 160v-567h-113z" />
<glyph unicode="&#x41d;" horiz-adv-x="709" d="M88 0v692h121v-290h290v290h121v-692h-121v304h-290v-304h-121z" />
<glyph unicode="&#x41e;" horiz-adv-x="747" d="M373 703q159 0 244 -110q77 -100 77 -247q0 -173 -101 -274q-80 -83 -220 -83q-159 0 -244 110q-77 99 -77 251q0 80 26.5 151t74.5 119q80 83 220 83zM373 605q-89 0 -142 -69.5t-53 -186.5q0 -122 52 -192t143 -70q90 0 142.5 70t52.5 189t-52.5 189t-142.5 70z" />
<glyph unicode="&#x41f;" horiz-adv-x="691" d="M88 0v692h514v-692h-121v594h-272v-594h-121z" />
<glyph unicode="&#x420;" horiz-adv-x="556" d="M88 0v692h167q79 0 123.5 -9t76.5 -32q78 -56 78 -167t-81 -167q-59 -41 -187 -41h-56v-276h-121zM207 371h39q82 0 115 17q48 24 48 93q0 66 -44 94q-34 22 -113 22h-45v-226z" />
<glyph unicode="&#x421;" horiz-adv-x="595" d="M540 133l34 -98q-96 -46 -195 -46q-156 0 -241.5 91.5t-85.5 258.5q0 168 86.5 266t234.5 98q95 0 194 -46l-40 -95q-79 43 -149 43q-92 0 -146 -70.5t-54 -191.5t54.5 -188.5t151.5 -67.5q42 0 75 9.5t81 36.5z" />
<glyph unicode="&#x422;" horiz-adv-x="551" d="M213 0v594h-201v98h526v-98h-204v-594h-121z" />
<glyph unicode="&#x423;" horiz-adv-x="610" d="M270 152l-255 540h134l111 -261q25 -58 28 -66q3 -7 8 -20t14 -36.5t16 -41.5q28 81 63 166l106 259h119l-219 -518q-46 -108 -90 -146.5t-123 -38.5q-39 0 -79 10l17 94q29 -7 54 -7q37 0 58 14.5t38 51.5z" />
<glyph unicode="&#x424;" horiz-adv-x="862" d="M375 -30v85q-150 10 -236.5 88t-86.5 203t86.5 203t236.5 88v85h111v-85q150 -10 236.5 -88t86.5 -203t-86.5 -203t-236.5 -88v-85h-111zM486 546v-400q93 11 145.5 64t52.5 136t-52.5 136t-145.5 64zM375 146v400q-93 -11 -145.5 -64t-52.5 -136t52.5 -136t145.5 -64z " />
<glyph unicode="&#x425;" horiz-adv-x="685" d="M10 0l255 359l-230 333h141l170 -246l173 246h137l-240 -339l246 -353h-146l-179 262l-187 -262h-140z" />
<glyph unicode="&#x426;" horiz-adv-x="684" d="M88 0v692h121v-594h257v594h121v-595h73v-265h-90l-15 168h-467z" />
<glyph unicode="&#x427;" horiz-adv-x="661" d="M452 0v247q-85 -78 -193 -78q-115 0 -158 72q-26 41 -26 142v309h121v-295q0 -63 13 -86q22 -44 90 -44q81 0 153 86v339h121v-692h-121z" />
<glyph unicode="&#x428;" horiz-adv-x="1006" d="M88 0v692h121v-594h233v594h121v-594h233v594h121v-692h-829z" />
<glyph unicode="&#x429;" horiz-adv-x="1015" d="M88 0v692h121v-594h233v594h121v-594h233v594h121v-595h73v-265h-90l-15 168h-797z" />
<glyph unicode="&#x42a;" horiz-adv-x="630" d="M130 0v594h-143v98h264v-254h82q122 0 178 -38q81 -57 81 -181q0 -125 -81 -181q-56 -38 -169 -38h-212zM251 92h66q76 0 109 24q41 30 41 103t-41 103q-33 24 -109 24h-66v-254z" />
<glyph unicode="&#x42b;" horiz-adv-x="864" d="M88 0v692h121v-254h88q68 0 106 -8t68 -30q79 -56 79 -181t-79 -181q-30 -22 -68 -30t-106 -8h-209zM209 92h62q83 0 115 24q39 31 39 103t-39 103q-32 24 -115 24h-62v-254zM655 0v692h121v-692h-121z" />
<glyph unicode="&#x42c;" horiz-adv-x="589" d="M88 0v692h121v-254h88q68 0 106 -8t68 -30q79 -56 79 -181t-79 -181q-30 -22 -68 -30t-106 -8h-209zM209 92h62q83 0 115 24q39 31 39 103t-39 103q-32 24 -115 24h-62v-254z" />
<glyph unicode="&#x42d;" horiz-adv-x="597" d="M415 304h-305v98h304q-9 107 -48 155t-117 48q-79 0 -161 -45l-39 92q99 51 207 51q141 0 214.5 -91.5t73.5 -266.5q0 -356 -297 -356q-114 0 -211 49l40 92q79 -44 157 -44q87 0 131 53t51 165z" />
<glyph unicode="&#x42e;" horiz-adv-x="1030" d="M88 0v692h121v-290h160q10 89 50 160q80 141 253 141q152 0 232 -111q73 -99 73 -246q0 -172 -96 -274q-77 -83 -209 -83q-172 0 -252 140q-44 77 -52 175h-159v-304h-121zM672 605q-82 0 -130.5 -69.5t-48.5 -187.5q0 -122 48 -192t131 -70q82 0 130.5 70t48.5 189 q0 120 -48 190t-131 70z" />
<glyph unicode="&#x42f;" horiz-adv-x="626" d="M416 286h-52q-66 0 -92.5 -23t-66.5 -115l-63 -148h-130l87 197q34 77 50 97.5t51 32.5q-66 17 -101.5 63t-35.5 115q0 99 74 151q55 36 168 36h232v-692h-121v286zM418 380v218h-80q-76 0 -109 -20q-42 -26 -42 -87q0 -66 52 -93q36 -18 104 -18h75z" />
<glyph unicode="&#x430;" horiz-adv-x="559" d="M369 0l-4 58q-37 -38 -72.5 -53.5t-85.5 -15.5q-77 0 -120.5 41t-43.5 113q0 99 81 143q49 26 151 26q14 0 83 -3v10q0 56 -29 86t-84 30q-63 0 -138 -43l-31 84q90 45 185 45q124 0 176 -67q22 -27 30 -63.5t8 -108.5v-152q0 -87 5 -130h-111zM358 140v96q-23 2 -53 2 q-141 0 -141 -92q0 -35 21.5 -56t57.5 -21q66 0 115 71z" />
<glyph unicode="&#x431;" horiz-adv-x="581" d="M485 739l7 -88q-23 -4 -100 -11q-75 -4 -114 -11.5t-66.5 -31.5t-37.5 -60.5t-17 -105.5q37 50 73.5 70t89.5 20q98 0 155.5 -72t57.5 -193q0 -125 -64.5 -196t-176.5 -71q-124 0 -186 82q-55 72 -55 242q0 280 95 357q43 35 119 47q24 4 117 11q66 5 103 11zM172 337 v-52q0 -98 22 -143q30 -64 99 -64q55 0 87 48.5t32 130.5q0 80 -31 127.5t-83 47.5q-78 0 -126 -95z" />
<glyph unicode="&#x432;" horiz-adv-x="572" d="M86 0v510h230q96 0 138 -27q55 -35 55 -109q0 -76 -81 -110q50 -18 71.5 -45t21.5 -72q0 -147 -194 -147h-241zM201 84h114q83 0 83 69q0 68 -86 68h-111v-137zM201 299h114q76 0 76 64q0 63 -82 63h-108v-127z" />
<glyph unicode="&#x433;" horiz-adv-x="449" d="M86 0v510h338v-89h-221v-421h-117z" />
<glyph unicode="&#x434;" horiz-adv-x="574" d="M446 0h-353l-13 -148h-89v237h51q34 57 47 120q22 105 22 238v63h377v-421h60v-237h-91zM371 88v333h-152v-23q0 -96 -19 -193q-10 -47 -36 -117h207z" />
<glyph unicode="&#x435;" horiz-adv-x="572" d="M526 218h-356q13 -141 147 -141q75 0 152 49l41 -86q-89 -51 -196 -51q-128 0 -197.5 69t-69.5 196q0 124 65.5 195.5t178.5 71.5q162 0 210 -125q24 -62 25 -178zM170 300h236q-1 64 -31.5 99.5t-83.5 35.5t-85.5 -36t-35.5 -99z" />
<glyph unicode="&#x436;" horiz-adv-x="782" d="M334 0v225h-17q-32 0 -51 -17.5t-48 -73.5l-70 -134h-124l83 157q30 55 49.5 76t51.5 32q-28 19 -40 36.5t-30 61.5q-16 39 -26.5 50.5t-30.5 11.5q-7 0 -29 -3l-9 88q32 4 54 4q67 0 96 -40q16 -21 54 -113q17 -38 29.5 -49t41.5 -11h16v209h115v-209h19q31 0 42 13 t41 85q30 71 56 93t79 22q22 0 54 -4l-9 -88q-22 3 -29 3q-28 0 -43 -31q-4 -7 -25 -58q-19 -43 -59 -71q32 -11 51.5 -32t49.5 -76l83 -157h-124l-70 134q-28 55 -47.5 73t-48.5 18h-20v-225h-115z" />
<glyph unicode="&#x437;" horiz-adv-x="495" d="M23 26l29 92q84 -40 164 -40q112 0 112 74q0 39 -35.5 56t-116.5 17q-3 0 -63 -2v84l12 -1l14 -1h26q83 0 121 16t38 52q0 29 -25 45t-71 16q-68 0 -155 -40l-28 90q94 37 193 37q203 0 203 -139q0 -82 -82 -114q88 -29 88 -120q0 -159 -222 -159q-103 0 -202 37z" />
<glyph unicode="&#x438;" horiz-adv-x="608" d="M86 0v510h116v-309l204 256v53h116v-510h-116v312l-204 -256v-56h-116z" />
<glyph unicode="&#x439;" horiz-adv-x="608" d="M86 0v510h116v-309l204 256v53h116v-510h-116v312l-204 -256v-56h-116zM140 725h74q4 -40 25 -57t65 -17q45 0 66 17t24 57h75q-1 -66 -25 -101q-40 -60 -140 -60t-139 60q-24 33 -25 101z" />
<glyph unicode="&#x43a;" horiz-adv-x="562" d="M86 0v510h116v-209h39q31 0 43 13.5t42 84.5t56 93t81 22q24 0 55 -4l-9 -88q-22 3 -29 3q-20 0 -30.5 -11.5t-27.5 -50.5q-19 -47 -31.5 -64t-40.5 -34q31 -10 50 -30t50 -74l88 -161h-126l-71 131q-30 56 -50 73.5t-55 17.5h-34v-222h-116z" />
<glyph unicode="&#x43b;" horiz-adv-x="571" d="M97 510h388v-510h-117v421h-158v-188q0 -99 -12 -140t-48 -65q-42 -27 -140 -28v90q58 4 72.5 29t14.5 120v271z" />
<glyph unicode="&#x43c;" horiz-adv-x="773" d="M86 0v510h159l121 -326q10 -25 23 -71q11 42 22 70l120 327h156v-510h-113v390q-7 -32 -36 -115l-101 -275h-102l-104 276q-27 75 -36 114v-390h-109z" />
<glyph unicode="&#x43d;" horiz-adv-x="613" d="M86 0v510h117v-205h207v205h117v-510h-117v216h-207v-216h-117z" />
<glyph unicode="&#x43e;" horiz-adv-x="594" d="M297 521q116 0 183 -71t67 -195t-67 -195t-183 -71q-117 0 -183.5 71.5t-66.5 197.5q0 122 67.5 192.5t182.5 70.5zM297 432q-60 0 -94.5 -47t-34.5 -128q0 -84 34 -131.5t95 -47.5q60 0 94.5 47.5t34.5 129.5t-34.5 129.5t-94.5 47.5z" />
<glyph unicode="&#x43f;" horiz-adv-x="605" d="M86 0v510h433v-510h-117v421h-199v-421h-117z" />
<glyph unicode="&#x440;" horiz-adv-x="602" d="M84 -215v521q0 126 -5 204h113l4 -70q34 43 70 62t84 19q93 0 149 -72.5t56 -192.5q0 -129 -64 -204q-52 -63 -142 -63q-48 0 -82.5 18t-65.5 58v-280h-117zM201 347v-181q54 -87 121 -87q51 0 81.5 48.5t30.5 129.5q0 80 -31 127t-84 47q-66 0 -118 -84z" />
<glyph unicode="&#x441;" horiz-adv-x="487" d="M427 118l38 -85q-69 -44 -165 -44q-119 0 -186 70t-67 194q0 126 64 197t178 71q87 0 165 -39l-35 -87q-60 37 -118 37q-64 0 -98.5 -46t-34.5 -131q0 -83 37.5 -129.5t105.5 -46.5q60 0 116 39z" />
<glyph unicode="&#x442;" horiz-adv-x="447" d="M164 0v421h-156v89h431v-89h-158v-421h-117z" />
<glyph unicode="&#x443;" horiz-adv-x="542" d="M215 8l-205 502h124l102 -258q26 -67 43 -117q21 65 43 122l96 253h114l-206 -521q-52 -130 -94.5 -173t-120.5 -43q-45 0 -102 18l20 91q37 -15 63 -15q40 0 67.5 31.5t55.5 109.5z" />
<glyph unicode="&#x444;" horiz-adv-x="845" d="M368 -215v280q-29 -41 -59.5 -58.5t-74.5 -17.5q-86 0 -136.5 71.5t-50.5 193.5q0 121 52 194t138 73q81 0 131 -72v282h108v-282q55 72 133 72q85 0 136.5 -72.5t51.5 -192.5q0 -122 -51 -194.5t-137 -72.5q-43 0 -74 17.5t-59 58.5v-280h-108zM368 166v181 q-45 84 -102 84q-46 0 -73 -47t-27 -127q0 -82 26.5 -130t70.5 -48q31 0 55 20t50 67zM476 347v-181q27 -48 51 -67.5t55 -19.5q43 0 69.5 49t26.5 129t-27 127t-73 47q-58 0 -102 -84z" />
<glyph unicode="&#x445;" horiz-adv-x="555" d="M17 0l197 258l-186 252h135l118 -170l125 170h129l-190 -247l194 -263h-134l-126 179l-133 -179h-129z" />
<glyph unicode="&#x446;" horiz-adv-x="600" d="M86 0v510h117v-421h194v421h117v-421h60v-237h-91l-11 148h-386z" />
<glyph unicode="&#x447;" horiz-adv-x="597" d="M394 0v198q-44 -40 -80 -55t-86 -15q-98 0 -135 64q-22 37 -22 126v192h117v-185q0 -52 9 -71q17 -36 67 -36q66 0 130 76v216h117v-510h-117z" />
<glyph unicode="&#x448;" horiz-adv-x="878" d="M86 0v510h117v-421h178v421h117v-421h178v421h117v-510h-707z" />
<glyph unicode="&#x449;" horiz-adv-x="878" d="M86 0v510h117v-421h178v421h117v-421h178v421h117v-421h59v-237h-90l-11 148h-665z" />
<glyph unicode="&#x44a;" horiz-adv-x="577" d="M136 0v421h-141v89h256v-165h77q101 0 146 -29q65 -43 65 -144q0 -100 -65 -143q-45 -29 -146 -29h-192zM251 84h56q61 0 85 18q28 22 28 71t-28 71q-24 18 -85 18h-56v-178z" />
<glyph unicode="&#x44b;" horiz-adv-x="784" d="M581 0v510h117v-510h-117zM86 0v510h117v-165h77q101 0 146 -29q65 -43 65 -144q0 -100 -65 -143q-45 -29 -146 -29h-194zM203 84h56q61 0 85 18q28 22 28 71t-28 71q-24 18 -85 18h-56v-178z" />
<glyph unicode="&#x44c;" horiz-adv-x="529" d="M86 0v510h117v-165h77q101 0 146 -29q65 -43 65 -144q0 -100 -65 -143q-45 -29 -146 -29h-194zM203 84h56q61 0 85 18q28 22 28 71t-28 71q-24 18 -85 18h-56v-178z" />
<glyph unicode="&#x44d;" horiz-adv-x="512" d="M103 219v84h237q-9 67 -40.5 98t-89.5 31q-65 0 -133 -38l-36 84q87 43 180 43q117 0 180.5 -70.5t63.5 -199.5q0 -126 -67 -194t-192 -68q-103 0 -177 41l39 85q63 -36 126 -36q128 0 147 140h-238z" />
<glyph unicode="&#x44e;" horiz-adv-x="857" d="M86 0v510h117v-205h132q13 103 75 159.5t161 56.5q111 0 175 -71t64 -195t-64 -195t-175 -71q-101 0 -163.5 59.5t-73.5 167.5h-131v-216h-117zM571 432q-55 0 -86.5 -47t-31.5 -128q0 -84 31.5 -131.5t86.5 -47.5t86.5 47.5t31.5 129.5t-31.5 129.5t-86.5 47.5z" />
<glyph unicode="&#x44f;" horiz-adv-x="575" d="M372 0v190h-68q-42 0 -62 -16t-49 -73l-52 -101h-129l84 147q26 44 36.5 57t26.5 22q-52 20 -76 52t-24 83q0 83 62 121q45 28 142 28h226v-510h-117zM374 275v149h-86q-60 0 -85 -16.5t-25 -56.5q0 -41 26.5 -58.5t88.5 -17.5h81z" />
<glyph unicode="&#x451;" horiz-adv-x="572" d="M526 218h-356q13 -141 147 -141q75 0 152 49l41 -86q-89 -51 -196 -51q-128 0 -197.5 69t-69.5 196q0 124 65.5 195.5t178.5 71.5q162 0 210 -125q24 -62 25 -178zM170 300h236q-1 64 -31.5 99.5t-83.5 35.5t-85.5 -36t-35.5 -99zM195 732q31 0 50 -19t19 -49t-19 -49.5 t-49 -19.5q-31 0 -50 19.5t-19 50.5q0 29 19.5 48t48.5 19zM402 732q31 0 50 -19t19 -49t-19 -49.5t-49 -19.5q-31 0 -50 19.5t-19 50.5q0 29 19.5 48t48.5 19z" />
<glyph unicode="&#x452;" horiz-adv-x="619" d="M86 0v577h-82v75h82v79h117v-79h143v-75h-143v-135q78 79 174 79q99 0 139 -72q22 -41 22 -142v-149q0 -135 -10.5 -200t-38.5 -101q-53 -66 -205 -72v89q90 3 116 54q21 42 21 189v184q0 62 -10 86q-17 44 -73 44q-70 0 -135 -86v-345h-117z" />
<glyph unicode="&#x453;" horiz-adv-x="449" d="M86 0v510h338v-89h-221v-421h-117zM295 731h142l-154 -146h-109z" />
<glyph unicode="&#x454;" horiz-adv-x="512" d="M409 219h-238q11 -73 46 -106.5t101 -33.5q64 0 127 36l38 -85q-74 -41 -177 -41q-126 0 -192.5 67t-66.5 194q0 130 63.5 200.5t180.5 70.5q91 0 180 -43l-36 -84q-66 38 -128 38q-115 0 -135 -129h237v-84z" />
<glyph unicode="&#x455;" horiz-adv-x="461" d="M47 29l31 89q74 -41 135 -41q40 0 62 17t22 48q0 29 -20 43q-14 11 -82 35q-77 28 -106 53q-39 36 -39 94q0 71 50.5 112.5t137.5 41.5q82 0 166 -37l-30 -89q-67 39 -131 39q-36 0 -57 -15.5t-21 -42.5q0 -28 28 -44q16 -9 80 -33q79 -29 109.5 -61t30.5 -85 q0 -75 -54 -119.5t-145 -44.5q-88 0 -167 40z" />
<glyph unicode="&#x456;" horiz-adv-x="285" d="M84 0v510h117v-510h-117zM143 747q31 0 51.5 -20.5t20.5 -51.5q0 -32 -20 -52.5t-52 -20.5t-52.5 20.5t-20.5 52.5q0 31 20.5 51.5t52.5 20.5z" />
<glyph unicode="&#x457;" horiz-adv-x="285" d="M85 0v510h117v-510h-117zM39 732q31 0 50 -19t19 -49t-19 -49.5t-49 -19.5q-31 0 -50 19.5t-19 50.5q0 29 19.5 48t48.5 19zM246 732q31 0 50 -19t19 -49t-19 -49.5t-49 -19.5q-31 0 -50 19.5t-19 50.5q0 29 19.5 48t48.5 19z" />
<glyph unicode="&#x458;" horiz-adv-x="295" d="M93 510h117v-513q0 -123 -29 -164q-41 -59 -133 -59q-36 0 -84 11l10 91q33 -9 50 -9q37 0 53 26t16 87v530zM152 748q32 0 52.5 -20.5t20.5 -52.5t-20.5 -52.5t-52.5 -20.5t-52.5 20.5t-20.5 53.5q0 31 21 51.5t52 20.5z" />
<glyph unicode="&#x459;" horiz-adv-x="810" d="M368 0v421h-158v-187q0 -100 -12 -141.5t-48 -64.5q-42 -27 -140 -28v89q58 4 72.5 29.5t14.5 120.5v271h386v-165h77q101 0 146 -29q65 -43 65 -144q0 -100 -65 -143q-45 -29 -146 -29h-192zM483 84h56q61 0 85 18q28 22 28 71t-28 71q-24 18 -85 18h-56v-178z" />
<glyph unicode="&#x45a;" horiz-adv-x="847" d="M86 0v510h117v-184h199v184h117v-168h77q102 0 147 -29q66 -42 66 -142q0 -101 -66 -142q-45 -29 -147 -29h-194v237h-199v-237h-117zM519 84h56q62 0 87 18q28 20 28 69q0 47 -28 69q-24 19 -87 19h-56v-175z" />
<glyph unicode="&#x45b;" horiz-adv-x="619" d="M86 0v577h-82v75h82v79h117v-79h143v-75h-143v-135q41 42 81.5 60.5t92.5 18.5q99 0 139 -72q22 -41 22 -142v-307h-117v301q0 62 -10 86q-17 44 -73 44q-70 0 -135 -86v-345h-117z" />
<glyph unicode="&#x45c;" horiz-adv-x="562" d="M86 0v510h116v-209h39q31 0 43 13.5t42 84.5t56 93t81 22q24 0 55 -4l-9 -88q-22 3 -29 3q-20 0 -30.5 -11.5t-27.5 -50.5q-19 -47 -31.5 -64t-40.5 -34q31 -10 50 -30t50 -74l88 -161h-126l-71 131q-30 56 -50 73.5t-55 17.5h-34v-222h-116zM340 731h142l-154 -146h-109 z" />
<glyph unicode="&#x45e;" horiz-adv-x="542" d="M215 8l-205 502h124l102 -258q26 -67 43 -117q21 65 43 122l96 253h114l-206 -521q-52 -130 -94.5 -173t-120.5 -43q-45 0 -102 18l20 91q37 -15 63 -15q40 0 67.5 31.5t55.5 109.5zM111 725h75q3 -40 24 -57t66 -17q44 0 65 17t25 57h74q-1 -66 -25 -101 q-39 -60 -139 -60t-140 60q-24 35 -25 101z" />
<glyph unicode="&#x45f;" horiz-adv-x="600" d="M86 0v510h117v-421h194v421h117v-510h-158l-11 -148h-90l-11 148h-158z" />
<glyph unicode="&#x490;" horiz-adv-x="511" d="M88 0v692h303l15 117h84v-215h-281v-594h-121z" />
<glyph unicode="&#x491;" horiz-adv-x="446" d="M86 0v510h241l11 104h86v-193h-221v-421h-117z" />
<glyph unicode="&#x4c0;" horiz-adv-x="298" d="M88 0v692h121v-692h-121z" />
<glyph unicode="&#x1e84;" horiz-adv-x="924" d="M192 0l-162 692h122l83 -378q17 -76 32 -158q14 66 37 153l98 383h128l94 -370q26 -101 38 -159q13 72 33 158l85 371h115l-166 -692h-129l-96 371q-19 73 -41 171q-24 -103 -42 -169l-99 -373h-130zM359 902q31 0 51 -20t20 -51t-20 -51t-51 -20t-51 20t-20 52 q0 31 20 50.5t51 19.5zM566 902q31 0 51 -20t20 -51t-20 -51t-51 -20t-51 20t-20 52q0 31 20 50.5t51 19.5z" />
<glyph unicode="&#x2007;" horiz-adv-x="288" />
<glyph unicode="&#x2011;" horiz-adv-x="311" d="M40 236v92h231v-92h-231z" />
<glyph unicode="&#x2012;" horiz-adv-x="576" d="M46 236v92h485v-92h-485z" />
<glyph unicode="&#x2013;" horiz-adv-x="576" d="M46 236v92h485v-92h-485z" />
<glyph unicode="&#x2014;" horiz-adv-x="1000" d="M-36 236v92h1073v-92h-1073z" />
<glyph unicode="&#x2015;" horiz-adv-x="1000" d="M-36 236v92h1073v-92h-1073z" />
<glyph unicode="&#x2017;" d="M-34 -222v56h569v-56h-569zM-34 -121v56h569v-56h-569z" />
<glyph unicode="&#x2018;" horiz-adv-x="225" d="M133 474h-131l101 257h109z" />
<glyph unicode="&#x2019;" horiz-adv-x="225" d="M92 731h131l-101 -257h-109z" />
<glyph unicode="&#x201a;" horiz-adv-x="225" d="M84 138h131l-101 -257h-109z" />
<glyph unicode="&#x201c;" horiz-adv-x="423" d="M136 474h-131l101 257h109zM335 474h-131l101 257h109z" />
<glyph unicode="&#x201d;" horiz-adv-x="423" d="M89 731h131l-101 -257h-109zM288 731h131l-101 -257h-109z" />
<glyph unicode="&#x201e;" horiz-adv-x="423" d="M79 138h131l-101 -257h-109zM278 138h131l-101 -257h-109z" />
<glyph unicode="&#x2020;" horiz-adv-x="576" d="M229 412h-184v98h184v182h116v-182h186v-98h-186v-528h-116v528z" />
<glyph unicode="&#x2021;" horiz-adv-x="576" d="M229 412h-184v98h184v182h116v-182h186v-98h-186v-185h186v-98h-186v-245h-116v245h-184v98h184v185z" />
<glyph unicode="&#x2022;" d="M252 514q70 0 117.5 -47.5t47.5 -117.5q0 -69 -47.5 -117t-116.5 -48q-71 0 -118.5 48t-47.5 119q0 67 48.5 115t116.5 48z" />
<glyph unicode="&#x2026;" horiz-adv-x="864" d="M145 144q33 0 55 -22t22 -55q0 -34 -22 -56t-55 -22q-34 0 -56 22t-22 56q0 33 22.5 55t55.5 22zM433 144q33 0 55 -22t22 -55q0 -34 -22 -56t-55 -22q-34 0 -56 22t-22 56q0 33 22.5 55t55.5 22zM721 144q33 0 55 -22t22 -55q0 -34 -22 -56t-55 -22q-34 0 -56 22t-22 56 q0 33 22.5 55t55.5 22z" />
<glyph unicode="&#x2030;" horiz-adv-x="1087" d="M177 698q149 0 149 -196t-149 -196t-149 198q0 194 149 194zM177 631q-61 0 -61 -128q0 -130 61 -130t61 129t-61 129zM201 -18l274 728h79l-274 -728h-79zM577 386q149 0 149 -196t-149 -196t-149 198q0 194 149 194zM577 319q-61 0 -61 -128q0 -130 61 -130t61 129 t-61 129zM910 386q149 0 149 -196t-149 -196t-149 198q0 194 149 194zM910 319q-61 0 -61 -128q0 -130 61 -130t61 129t-61 129z" />
<glyph unicode="&#x2039;" horiz-adv-x="328" d="M161 255l125 -169l-77 -58l-178 227l178 226l77 -58z" />
<glyph unicode="&#x203a;" horiz-adv-x="328" d="M166 254l-125 169l77 58l178 -227l-178 -226l-77 58z" />
<glyph unicode="&#x203e;" d="M-34 794v89h569v-89h-569z" />
<glyph unicode="&#x2044;" horiz-adv-x="80" d="M-137 -18l274 728h79l-274 -728h-79z" />
<glyph unicode="&#x2070;" horiz-adv-x="388" d="M194 698q157 0 157 -196t-157 -196t-157 198q0 95 40 144.5t117 49.5zM194 631q-69 0 -69 -128q0 -130 69 -130t69 129t-69 129z" />
<glyph unicode="&#x2074;" horiz-adv-x="388" d="M216 312v87h-188v66l163 227h107v-232h56v-61h-56v-87h-82zM220 460v168l-119 -168h119z" />
<glyph unicode="&#x2075;" horiz-adv-x="388" d="M43 333l26 66q58 -26 102 -26q37 0 60 18t23 47q0 58 -88 58q-42 0 -103 -15l9 211h253v-67h-173l-2 -74q25 6 52 6q66 0 103 -31.5t37 -87.5q0 -63 -42.5 -97.5t-120.5 -34.5q-75 0 -136 27z" />
<glyph unicode="&#x2076;" horiz-adv-x="388" d="M322 692l-7 -64q-36 6 -54 6q-96 0 -122 -100q36 28 83 28q59 0 94 -32.5t35 -88.5q0 -62 -41 -98.5t-111 -36.5q-76 0 -116 42t-40 122q0 127 73 187q48 41 136 41q25 0 70 -6zM198 499q-30 0 -48 -17t-18 -45q0 -31 17.5 -48.5t47.5 -17.5t48.5 18t18.5 47t-17.5 46 t-48.5 17z" />
<glyph unicode="&#x2077;" horiz-adv-x="388" d="M61 312l181 313h-198v67h295v-63l-177 -317h-101z" />
<glyph unicode="&#x2078;" horiz-adv-x="388" d="M120 507q-40 18 -56 37.5t-16 51.5q0 49 38.5 75.5t107.5 26.5t107.5 -27t38.5 -74q0 -31 -15.5 -50t-57.5 -38q44 -15 63.5 -36.5t19.5 -55.5q0 -51 -42 -81t-113 -30q-72 0 -114 30t-42 82q0 35 19 56t62 33zM198 534l5 2q23 9 37.5 25t14.5 32q0 20 -16 31.5t-45 11.5 t-45 -11.5t-16 -31.5q0 -34 65 -59zM189 478q-30 -7 -47.5 -22.5t-17.5 -35.5q0 -23 19.5 -37.5t51.5 -14.5q30 0 50 14t20 36q0 43 -76 60z" />
<glyph unicode="&#x2079;" horiz-adv-x="388" d="M67 312l6 64q36 -6 54 -6q96 0 122 100q-35 -28 -83 -28q-58 0 -93.5 33t-35.5 88q0 62 41 98.5t111 36.5q76 0 116 -42t40 -122q0 -126 -72 -187q-50 -41 -137 -41q-26 0 -69 6zM190 633q-30 0 -48 -17.5t-18 -47.5q0 -29 17.5 -46t47.5 -17q31 0 49 17t18 45 q0 31 -17.5 48.5t-48.5 17.5z" />
<glyph unicode="&#x2080;" horiz-adv-x="388" d="M194 386q157 0 157 -196t-157 -196t-157 198q0 95 40 144.5t117 49.5zM194 319q-69 0 -69 -128q0 -130 69 -130t69 129t-69 129z" />
<glyph unicode="&#x2081;" horiz-adv-x="388" d="M171 0v298l-81 -47l-31 59l122 70h73v-380h-83z" />
<glyph unicode="&#x2082;" horiz-adv-x="388" d="M52 0v66q57 42 121 99q68 64 68 106q0 22 -17.5 35t-46.5 13q-42 0 -106 -32l-18 68q68 31 134 31q67 0 104 -28.5t37 -79.5q0 -34 -15.5 -63t-52.5 -66q-53 -51 -94 -83h165v-66h-279z" />
<glyph unicode="&#x2083;" horiz-adv-x="388" d="M48 15l15 67q60 -21 107 -21q35 0 54.5 14t19.5 39q0 54 -93 54q-3 0 -37 -2v60q18 -2 35 -2q91 0 91 52q0 20 -18.5 32t-50.5 12q-40 0 -95 -18l-13 65q66 19 124 19q68 0 105 -26t37 -74q0 -67 -73 -87q79 -20 79 -91q0 -55 -40.5 -84.5t-115.5 -29.5q-68 0 -131 21z " />
<glyph unicode="&#x2084;" horiz-adv-x="388" d="M216 0v87h-188v66l163 227h107v-232h56v-61h-56v-87h-82zM220 148v168l-119 -168h119z" />
<glyph unicode="&#x2085;" horiz-adv-x="388" d="M43 21l26 66q56 -26 102 -26q37 0 60 18t23 47q0 58 -88 58q-40 0 -103 -15l9 211h253v-67h-173l-2 -74q25 6 52 6q66 0 103 -31.5t37 -87.5q0 -63 -42.5 -97.5t-120.5 -34.5q-75 0 -136 27z" />
<glyph unicode="&#x2086;" horiz-adv-x="388" d="M322 380l-7 -64q-36 6 -54 6q-96 0 -122 -100q36 28 83 28q59 0 94 -32.5t35 -88.5q0 -62 -41 -98.5t-111 -36.5q-76 0 -116 42t-40 122q0 127 73 187q48 41 136 41q25 0 70 -6zM198 187q-30 0 -48 -17t-18 -45q0 -31 17.5 -48.5t47.5 -17.5t48.5 18t18.5 47t-17.5 46 t-48.5 17z" />
<glyph unicode="&#x2087;" horiz-adv-x="388" d="M61 0l181 313h-198v67h295v-63l-177 -317h-101z" />
<glyph unicode="&#x2088;" horiz-adv-x="388" d="M120 195q-40 18 -56 37.5t-16 51.5q0 49 38.5 75.5t107.5 26.5t107.5 -27t38.5 -74q0 -31 -15.5 -50t-57.5 -38q44 -15 63.5 -36.5t19.5 -55.5q0 -51 -42 -81t-113 -30q-72 0 -114 30t-42 82q0 35 19 56t62 33zM198 222l5 2q23 9 37.5 25t14.5 32q0 20 -16 31.5t-45 11.5 t-45 -11.5t-16 -31.5q0 -34 65 -59zM189 166q-30 -7 -47.5 -22.5t-17.5 -35.5q0 -23 19.5 -37.5t51.5 -14.5q30 0 50 14t20 36q0 43 -76 60z" />
<glyph unicode="&#x2089;" horiz-adv-x="388" d="M67 0l6 64q36 -6 54 -6q96 0 122 100q-35 -28 -83 -28q-58 0 -93.5 33t-35.5 88q0 62 41 98.5t111 36.5q76 0 116 -42t40 -122q0 -126 -72 -187q-50 -41 -137 -41q-26 0 -69 6zM190 321q-30 0 -48 -17.5t-18 -47.5q0 -29 17.5 -46t47.5 -17q31 0 49 17t18 45 q0 31 -17.5 48.5t-48.5 17.5z" />
<glyph unicode="&#x20ac;" horiz-adv-x="576" d="M4 245l21 65h72q-1 11 -1 28q0 20 1 35h-93l21 64h80q25 128 99.5 197t187.5 69q96 0 178 -44l-32 -96q-75 45 -139 45q-137 0 -174 -171h271l-21 -64h-256q-1 -12 -1 -29q0 -21 2 -34h235l-21 -64h-205q35 -162 174 -162q68 0 144 41l26 -97q-88 -39 -181 -39 q-121 0 -194.5 65.5t-93.5 190.5h-100z" />
<glyph unicode="&#x2116;" horiz-adv-x="1153" d="M88 0v692h135l222 -368q38 -64 68 -126q3 -4 13 -25q-2 43 -2 119v400h116v-692h-134l-217 357q-41 69 -87 163q2 -57 2 -151v-369h-116zM923 531q87 0 136 -47.5t49 -131.5t-49 -131.5t-136 -47.5t-136 48t-49 133q0 83 49.5 130t135.5 47zM923 461q-78 0 -78 -108 q0 -110 78 -110t78 109t-78 109zM754 44v70h339v-70h-339z" />
<glyph unicode="&#x2122;" horiz-adv-x="850" d="M354 313v379h113l105 -285l103 285h112v-379h-82v180q0 54 4 115q-24 -85 -38 -123l-65 -172h-70l-63 164q-23 61 -42 131q4 -58 4 -115v-180h-81zM114 313v312h-113v67h312v-67h-113v-312h-86z" />
<glyph unicode="&#x2126;" horiz-adv-x="717" d="M34 0v92h150q-79 63 -113.5 129.5t-34.5 158.5q0 146 88.5 234.5t233.5 88.5q146 0 234 -88.5t88 -234.5q0 -92 -34.5 -158.5t-113.5 -129.5h150v-92h-281v89q155 108 155 279q0 105 -55 171t-143 66t-143 -66t-55 -171q0 -173 155 -279v-89h-281z" />
<glyph unicode="&#x2153;" horiz-adv-x="859" d="M160 312v298l-81 -47l-31 59l122 70h73v-380h-83zM212 -18l274 728h79l-274 -728h-79zM489 15l14 67q62 -21 108 -21q35 0 54.5 14t19.5 39q0 54 -94 54q-4 0 -36 -2v60q18 -2 35 -2q91 0 91 52q0 20 -18.5 32t-50.5 12q-40 0 -95 -18l-14 65q67 19 125 19q68 0 105 -26 t37 -74q0 -65 -74 -87q80 -20 80 -91q0 -55 -40.5 -84.5t-115.5 -29.5q-64 0 -131 21z" />
<glyph unicode="&#x2154;" horiz-adv-x="859" d="M52 312v66q57 42 121 99q68 64 68 106q0 22 -17.5 35t-46.5 13q-40 0 -106 -31l-18 67q68 31 134 31q67 0 104 -28.5t37 -79.5q0 -34 -15.5 -63t-52.5 -66q-53 -51 -94 -83h165v-66h-279zM250 -18l274 728h80l-274 -728h-80zM513 15l15 67q60 -21 107 -21q35 0 54.5 14 t19.5 39q0 54 -93 54q-3 0 -37 -2v60q18 -2 35 -2q91 0 91 52q0 20 -18.5 32t-50.5 12q-40 0 -95 -18l-13 65q66 19 124 19q68 0 105 -26t37 -74q0 -67 -73 -87q79 -20 79 -91q0 -55 -40.5 -84.5t-115.5 -29.5q-64 0 -131 21z" />
<glyph unicode="&#x2155;" horiz-adv-x="859" d="M163 312v298l-81 -47l-31 59l122 70h73v-380h-83zM215 -18l274 728h80l-274 -728h-80zM490 21l26 66q56 -26 102 -26q38 0 60.5 18t22.5 48q0 57 -88 57q-40 0 -103 -15l9 211h253v-67h-173l-3 -74q26 6 53 6q66 0 103 -31.5t37 -87.5q0 -63 -42.5 -97.5t-120.5 -34.5 q-75 0 -136 27z" />
<glyph unicode="&#x2159;" horiz-adv-x="859" d="M160 312v298l-81 -47l-31 59l122 70h73v-380h-83zM220 -18l274 728h80l-274 -728h-80zM768 380l-7 -64q-36 6 -54 6q-96 0 -122 -100q37 28 83 28q59 0 94 -32.5t35 -88.5q0 -63 -41 -99t-112 -36q-76 0 -115.5 42t-39.5 122q0 127 73 187q48 41 136 41q25 0 70 -6z M644 187q-30 0 -48 -17t-18 -45q0 -31 17.5 -48.5t48.5 -17.5q29 0 47.5 18t18.5 47t-17.5 46t-48.5 17z" />
<glyph unicode="&#x215b;" horiz-adv-x="859" d="M159 312v298l-81 -47l-31 59l122 70h73v-380h-83zM208 -18l274 728h79l-274 -728h-79zM561 195q-40 18 -56 37.5t-16 51.5q0 49 38.5 75.5t107.5 26.5t107.5 -27t38.5 -74q0 -31 -15.5 -50t-57.5 -38q44 -15 63.5 -36.5t19.5 -55.5q0 -51 -42 -81t-113 -30q-72 0 -114 30 t-42 82q0 35 19 56t62 33zM639 222l5 2q23 9 37.5 25t14.5 32q0 20 -16 31.5t-45 11.5t-45 -11.5t-16 -31.5q0 -34 65 -59zM630 166q-30 -7 -47.5 -22.5t-17.5 -35.5q0 -23 19.5 -37.5t51.5 -14.5q30 0 50 14t20 36q0 41 -76 60z" />
<glyph unicode="&#x215c;" horiz-adv-x="859" d="M42 327l15 67q60 -21 107 -21q35 0 54.5 14t19.5 39q0 54 -93 54q-3 0 -37 -2v60q18 -2 35 -2q91 0 91 52q0 20 -18.5 32t-50.5 12q-40 0 -95 -18l-13 65q66 19 124 19q68 0 105 -26t37 -74q0 -67 -73 -87q79 -20 79 -91q0 -55 -40.5 -84.5t-115.5 -29.5q-68 0 -131 21z M247 -18l274 728h79l-274 -728h-79zM584 195q-40 18 -55.5 37.5t-15.5 51.5q0 49 38 75.5t108 26.5q68 0 106.5 -27t38.5 -74q0 -31 -15.5 -50t-57.5 -38q44 -15 63.5 -36.5t19.5 -55.5q0 -51 -42 -81t-113 -30q-72 0 -114 30t-42 82q0 35 19 56t62 33zM662 222l5 2 q23 9 37.5 25t14.5 32q0 20 -16 31.5t-45 11.5q-60 0 -60 -43q0 -34 64 -59zM653 166q-30 -7 -47.5 -22.5t-17.5 -35.5q0 -23 20 -37.5t51 -14.5q30 0 50 14t20 36q0 41 -76 60z" />
<glyph unicode="&#x215d;" horiz-adv-x="859" d="M39 333l26 66q58 -26 102 -26q37 0 60 18t23 47q0 58 -88 58q-42 0 -103 -15l9 211h253v-67h-173l-2 -74q25 6 52 6q66 0 103 -31.5t37 -87.5q0 -63 -42.5 -97.5t-120.5 -34.5q-75 0 -136 27zM249 -18l274 728h79l-274 -728h-79zM586 195q-40 18 -55.5 37.5t-15.5 51.5 q0 49 38 75.5t108 26.5q68 0 106.5 -27t38.5 -74q0 -31 -15.5 -50t-57.5 -38q44 -15 63.5 -36.5t19.5 -55.5q0 -51 -42 -81t-114 -30q-71 0 -113 30t-42 82q0 35 19 56t62 33zM664 222l5 2q23 9 37.5 25t14.5 32q0 20 -16 31.5t-45 11.5q-60 0 -60 -43q0 -34 64 -59z M655 166q-30 -7 -47.5 -22.5t-17.5 -35.5q0 -23 20 -37.5t51 -14.5q30 0 50 14t20 36q0 41 -76 60z" />
<glyph unicode="&#x215e;" horiz-adv-x="859" d="M74 312l181 313h-198v67h295v-63l-177 -317h-101zM213 -18l274 728h80l-274 -728h-80zM568 195q-40 18 -56 37.5t-16 51.5q0 49 38.5 75.5t107.5 26.5t107.5 -27t38.5 -74q0 -31 -15.5 -50t-58.5 -38q45 -15 64.5 -36.5t19.5 -55.5q0 -51 -42 -81t-114 -30q-71 0 -113 30 t-42 82q0 35 19 56t62 33zM645 222l5 2q24 9 38.5 24.5t14.5 32.5q0 20 -16 31.5t-45 11.5q-61 0 -61 -43q0 -34 64 -59zM637 166q-30 -7 -47.5 -22.5t-17.5 -35.5q0 -23 20 -37.5t51 -14.5q30 0 50 14t20 36q0 41 -76 60z" />
<glyph unicode="&#x2202;" horiz-adv-x="576" d="M105 649l27 92q116 -23 209 -103q82 -70 128.5 -174t46.5 -217q0 -124 -60 -191t-172 -67q-104 0 -163.5 65.5t-59.5 180.5q0 111 54 175.5t146 64.5q47 0 82 -17q-75 144 -238 191zM285 386q-48 0 -75.5 -40.5t-27.5 -110.5q0 -72 28 -114.5t77 -42.5q48 0 77.5 43.5 t29.5 113.5t-29.5 110.5t-79.5 40.5z" />
<glyph unicode="&#x2206;" horiz-adv-x="576" d="M570 0h-563v77l218 615h128l217 -615v-77zM442 95l-154 448l-153 -448h307z" />
<glyph unicode="&#x220f;" horiz-adv-x="660" d="M63 -155v946h534v-946h-122v848h-290v-848h-122z" />
<glyph unicode="&#x2211;" horiz-adv-x="576" d="M59 -155v101l200 383l-200 362v100h500v-98h-364l198 -364l-201 -386h374v-98h-507z" />
<glyph unicode="&#x2212;" horiz-adv-x="576" d="M46 209v92h485v-92h-485z" />
<glyph unicode="&#x221a;" horiz-adv-x="576" d="M226 0l-98 295h-85v88h163l74 -235l203 735h282v-89h-201l-223 -794h-115z" />
<glyph unicode="&#x221e;" horiz-adv-x="794" d="M397 192q-77 -100 -182 -100q-79 0 -124 44.5t-45 122.5q0 77 45 121.5t124 44.5q55 0 97.5 -23t84.5 -76q42 53 85 76t98 23q79 0 124 -44.5t45 -121.5q0 -78 -45 -122.5t-124 -44.5q-55 0 -98.5 24t-84.5 76zM349 259l-8 9q-64 71 -122 71q-36 0 -58 -22t-22 -58 q0 -37 22 -59t59 -22q31 0 57 15.5t63 55.5zM446 259l9 -10q65 -71 120 -71q37 0 59 22t22 59q0 36 -22 58t-59 22q-31 0 -58 -16t-63 -55z" />
<glyph unicode="&#x222b;" horiz-adv-x="360" d="M4 -147l19 95q28 -12 50 -12q34 0 45 30q5 18 5 70v566q0 74 4.5 101.5t21.5 49.5q37 49 119 49q43 0 88 -16l-17 -98q-31 12 -51 12q-32 0 -43 -29q-5 -14 -5 -60v-565q0 -73 -4.5 -103.5t-17.5 -52.5q-36 -56 -120 -56q-49 0 -94 19z" />
<glyph unicode="&#x2248;" horiz-adv-x="576" d="M103 84l-67 45q42 71 74.5 98.5t74.5 27.5q25 0 49.5 -9.5t75.5 -38.5q59 -34 81 -34q21 0 39.5 16.5t45.5 59.5l65 -45q-41 -73 -71.5 -99.5t-73.5 -26.5q-46 0 -122 44q-44 26 -58.5 32t-29.5 6q-20 0 -36 -14.5t-47 -61.5zM102 260l-66 45q42 71 74.5 98.5t74.5 27.5 q26 0 50.5 -9.5t74.5 -38.5q59 -33 81 -33q21 0 40 16.5t45 58.5l65 -44q-41 -72 -71.5 -99t-73.5 -27q-45 0 -122 43q-45 25 -59 31.5t-29 6.5q-20 0 -36 -14t-48 -62z" />
<glyph unicode="&#x2260;" horiz-adv-x="576" d="M46 120v92h169l43 85h-212v92h259l71 143l80 -46l-48 -97h123v-92h-169l-43 -85h212v-92h-259l-71 -142l-80 46l47 96h-122z" />
<glyph unicode="&#x2261;" horiz-adv-x="576" d="M46 383v92h485v-92h-485zM46 209v92h485v-92h-485zM46 34v92h485v-92h-485z" />
<glyph unicode="&#x2264;" horiz-adv-x="576" d="M46 0v91h485v-91h-485zM193 334l338 -101v-98l-485 158v81l485 158v-97z" />
<glyph unicode="&#x2265;" horiz-adv-x="576" d="M46 0v91h485v-91h-485zM384 334l-338 101v97l485 -158v-81l-485 -158v98z" />
<glyph unicode="&#x22c5;" horiz-adv-x="288" d="M145 362q33 0 55 -22t22 -55q0 -34 -22 -56t-55 -22q-34 0 -56 22.5t-22 56.5q0 32 22.5 54t55.5 22z" />
<glyph unicode="&#x25ca;" horiz-adv-x="576" d="M288 -27l-280 373l280 372l280 -372zM288 137l156 209l-156 208l-156 -208z" />
<glyph unicode="&#xe000;" horiz-adv-x="510" d="M0 510h510v-510h-510v510z" />
<glyph unicode="&#xea3f;" d="M229 731h131l-101 -257h-109z" />
<glyph unicode="&#xea4e;" horiz-adv-x="0" d="M15 794v89h589v-89h-589z" />
<glyph unicode="&#xea4f;" d="M247 581h-131l140 150h109z" />
<glyph unicode="&#xea67;" d="M229 731h131l-101 -257h-109z" />
<glyph unicode="&#xf6be;" horiz-adv-x="289" d="M90 510h117v-513q0 -123 -29 -164q-41 -59 -133 -59q-36 0 -84 11l10 91q33 -9 50 -9q37 0 53 26t16 87v530z" />
<glyph unicode="&#xf6c3;" d="M228 -33h131l-140 -150h-109z" />
<glyph unicode="&#xf6c9;" d="M280 903h142l-154 -146h-109z" />
<glyph unicode="&#xf6ca;" d="M250 819l70 91h110l-111 -146h-139l-110 146h109z" />
<glyph unicode="&#xf6cb;" d="M147 902q31 0 51 -20t20 -51t-20 -51t-51 -20t-51 20t-20 52q0 31 20 50.5t51 19.5zM354 902q31 0 51 -20t20 -51t-20 -51t-51 -20t-51 20t-20 52q0 31 20 50.5t51 19.5z" />
<glyph unicode="&#xf6ce;" d="M231 903l121 -146h-109l-154 146h142z" />
<glyph unicode="&#xf6cf;" d="M198 903h140l-145 -146h-107zM396 903h141l-147 -146h-105z" />
<glyph unicode="&#xf6d0;" d="M85 772v75h331v-75h-331z" />
<glyph unicode="&#xf6f4;" d="M85 751h75q3 -42 24 -60.5t66 -18.5q44 0 65 18.5t25 60.5h74q-1 -80 -41 -118t-123 -38q-99 0 -140 58q-24 33 -25 98z" />
<glyph unicode="&#xf6f5;" d="M250 660l70 91h110l-111 -146h-139l-110 146h109z" />
<glyph unicode="&#xf6f6;" d="M250 696l-70 -91h-110l110 146h139l111 -146h-110z" />
<glyph unicode="&#xf6f7;" d="M250 742q31 0 50 -19t19 -49t-19 -49.5t-49 -19.5q-31 0 -50 19.5t-19 50.5q0 29 19.5 48t48.5 19z" />
<glyph unicode="&#xf6f8;" d="M198 751h140l-145 -146h-107zM396 751h141l-147 -146h-105z" />
<glyph unicode="&#xf6f9;" horiz-adv-x="456" d="M100 277v262h116v-189l118 75v-84l-118 -76v-174h238v-91h-354v193l-77 -49v84z" />
<glyph unicode="&#xf6fa;" horiz-adv-x="803" d="M751 0h-385q-81 0 -128.5 9t-83.5 32q-106 68 -106 229q0 140 81 210q38 34 88 46.5t143 12.5h378v-90h-228v-132h217v-90h-217v-137h241v-90zM394 452h-30q-58 0 -89 -8t-54 -29q-24 -21 -38 -60t-14 -85q0 -103 60 -149q43 -34 135 -34h30v365z" />
<glyph unicode="&#xf6fb;" d="M304 -152l7 -58q-46 -10 -78 -10q-58 0 -92 25t-34 67q0 75 127 128h74q-64 -38 -85 -60t-21 -51q0 -21 16.5 -34t43.5 -13q19 0 42 6z" />
<glyph unicode="&#xf6fc;" d="M250 796q46 0 77 -30.5t31 -76.5q0 -47 -31 -77.5t-77 -30.5q-47 0 -77.5 31t-30.5 78q0 45 31 75.5t77 30.5zM250 742q-23 0 -36.5 -14.5t-13.5 -38.5q0 -25 13.5 -39.5t36.5 -14.5t36.5 14.5t13.5 39.5q0 24 -13.5 38.5t-36.5 14.5z" />
<glyph unicode="&#xf6fd;" horiz-adv-x="474" d="M48 20l18 96q86 -40 151 -40q40 0 64 18.5t24 50.5q0 26 -19 42t-83 42q-79 32 -107 53q-47 35 -47 101q0 78 52 122.5t143 44.5q76 0 163 -31l-24 -94q-83 38 -136 38q-34 0 -55.5 -16.5t-21.5 -42.5q0 -23 19.5 -39t74.5 -39q83 -32 116 -57q47 -38 47 -111 q0 -81 -52.5 -125t-149.5 -44q-90 0 -177 31zM247 660l70 91h110l-110 -146h-139l-110 146h109z" />
<glyph unicode="&#xf6fe;" d="M134 604h-69q5 57 31.5 90t69.5 33q32 0 94 -22q50 -17 67 -17q36 0 41 41h68q-12 -124 -103 -124q-30 0 -89 20q-57 19 -72 19q-29 0 -38 -40z" />
<glyph unicode="&#xf6ff;" horiz-adv-x="489" d="M30 0v81l274 369h-264v89h409v-81l-273 -369h282v-89h-428zM262 660l70 91h109l-110 -146h-139l-110 146h109z" />
<glyph unicode="&#xf730;" horiz-adv-x="614" d="M307 550q121 0 190.5 -74.5t69.5 -205.5t-69.5 -206t-190.5 -75q-122 0 -191 75t-69 208q0 128 70 203t190 75zM307 452q-65 0 -101.5 -48t-36.5 -133q0 -88 36 -136t102 -48q65 0 101.5 48t36.5 135q0 86 -36.5 134t-101.5 48z" />
<glyph unicode="&#xf731;" horiz-adv-x="451" d="M203 0v410l-118 -73l-53 90l184 112h104v-539h-117z" />
<glyph unicode="&#xf732;" horiz-adv-x="539" d="M41 0v92q113 66 203 138q59 48 83 80t24 63q0 37 -28 58.5t-78 21.5q-75 0 -161 -43l-35 91q105 49 209 49q99 0 157 -45t58 -121q0 -67 -55.5 -126.5t-211.5 -159.5h270v-98h-435z" />
<glyph unicode="&#xf733;" horiz-adv-x="538" d="M28 -137l27 97q75 -28 152 -28q70 0 110.5 31t40.5 85q0 114 -188 114q-30 0 -52 -2v93q15 -1 36 -1q196 0 196 108q0 44 -34 68.5t-94 24.5q-68 0 -149 -33l-29 95q95 35 193 35q112 0 173.5 -47t61.5 -132q0 -138 -148 -164q156 -22 156 -163q0 -101 -75 -157 q-67 -52 -191 -52q-95 0 -186 28z" />
<glyph unicode="&#xf734;" horiz-adv-x="602" d="M350 -153v175h-323v102l299 415h141v-425h99v-92h-99v-175h-117zM352 114v304l-213 -304h213z" />
<glyph unicode="&#xf735;" horiz-adv-x="554" d="M37 -120l35 96q81 -44 157 -44q70 0 111 38t41 103q0 62 -38.5 95.5t-109.5 33.5q-73 0 -161 -28l12 365h395v-98h-279l-6 -156q46 9 83 9q107 0 166.5 -58t59.5 -163q0 -112 -75 -179q-69 -59 -190 -59q-107 0 -201 45z" />
<glyph unicode="&#xf736;" horiz-adv-x="606" d="M503 696l-10 -101q-50 11 -82 11q-96 0 -153.5 -59t-68.5 -166q63 69 158 69t151 -59.5t56 -160.5q0 -111 -66.5 -176t-179.5 -65q-122 0 -186 74t-64 216q0 108 31.5 198t87.5 144q85 82 232 82q31 0 94 -7zM312 355q-59 0 -94.5 -36.5t-35.5 -97.5q0 -64 34 -100.5 t93 -36.5q57 0 90.5 37t33.5 101q0 62 -32.5 97.5t-88.5 35.5z" />
<glyph unicode="&#xf737;" horiz-adv-x="499" d="M166 -153h-131l304 594h-326v98h455v-94z" />
<glyph unicode="&#xf738;" horiz-adv-x="606" d="M191 361q-68 33 -95.5 68.5t-27.5 91.5q0 83 63.5 132.5t171.5 49.5q109 0 172.5 -49t63.5 -133q0 -53 -26.5 -88t-92.5 -68q73 -30 104.5 -70.5t31.5 -102.5q0 -95 -67 -149t-186 -54q-118 0 -185.5 53t-67.5 146q0 86 66 136q25 19 75 37zM314 406l8 3q46 16 71.5 45 t25.5 65q0 42 -31 66.5t-85 24.5q-53 0 -84 -24t-31 -65q0 -39 30 -66.5t96 -48.5zM297 316q-125 -37 -125 -128q0 -48 36 -77t95 -29t95 29t36 76q0 86 -137 129z" />
<glyph unicode="&#xf739;" horiz-adv-x="606" d="M103 -157l11 101q48 -11 81 -11q96 0 154 58.5t69 166.5q-65 -69 -159 -69q-95 0 -151 59.5t-56 160.5q0 111 66.5 176t179.5 65q122 0 186 -74t64 -216q0 -108 -31 -198t-88 -144q-85 -82 -232 -82q-34 0 -94 7zM297 455q-57 0 -90.5 -37.5t-33.5 -101.5 q0 -61 32.5 -96.5t88.5 -35.5q59 0 94.5 36.5t35.5 97.5q0 64 -34 100.5t-93 36.5z" />
<glyph unicode="&#xf760;" d="M231 751l121 -146h-109l-154 146h142z" />
<glyph unicode="&#xf761;" horiz-adv-x="571" d="M388 135h-211l-50 -135h-119l211 539h128l217 -539h-125zM359 221l-76 217l-76 -217h152z" />
<glyph unicode="&#xf762;" horiz-adv-x="520" d="M84 0v539h159q107 0 153 -23q65 -33 65 -121q0 -91 -84 -119q52 -18 73.5 -46t21.5 -78q0 -89 -66 -126q-44 -26 -147 -26h-175zM195 311h39q64 0 84 15q28 19 28 59q0 45 -29 61q-20 12 -78 12h-44v-147zM195 81h40q64 0 88 12q33 17 33 64q0 42 -25 59t-87 17h-49v-152 z" />
<glyph unicode="&#xf763;" horiz-adv-x="519" d="M468 120l34 -88q-90 -43 -179 -43q-129 0 -202 73.5t-73 203.5q0 132 72.5 208t198.5 76q93 0 179 -43l-42 -86q-47 26 -70.5 34t-56.5 8q-72 0 -116 -53.5t-44 -141.5q0 -87 45 -139.5t119 -52.5q66 0 135 44z" />
<glyph unicode="&#xf764;" horiz-adv-x="591" d="M84 0v539h153q82 0 132 -12t87 -40q88 -67 88 -216q0 -167 -104 -231q-37 -22 -84 -31t-128 -9h-144zM200 87h32q85 0 126 29q65 46 65 155q0 110 -60 154q-22 16 -49 21.5t-84 5.5h-30v-365z" />
<glyph unicode="&#xf765;" horiz-adv-x="494" d="M84 0v539h345v-90h-229v-132h218v-90h-218v-137h241v-90h-357z" />
<glyph unicode="&#xf766;" horiz-adv-x="478" d="M84 0v539h347v-90h-231v-137h219v-90h-219v-222h-116z" />
<glyph unicode="&#xf767;" horiz-adv-x="605" d="M524 300v-274q-100 -37 -193 -37q-134 0 -208.5 72t-74.5 203q0 134 75.5 210.5t207.5 76.5q96 0 193 -47l-39 -86q-73 46 -146 46q-77 0 -123.5 -53.5t-46.5 -143.5q0 -85 46.5 -137.5t121.5 -52.5q39 0 74 15v122h-104v86h217z" />
<glyph unicode="&#xf768;" horiz-adv-x="615" d="M84 0v539h116v-218h215v218h116v-539h-116v231h-215v-231h-116z" />
<glyph unicode="&#xf769;" horiz-adv-x="284" d="M84 0v539h116v-539h-116z" />
<glyph unicode="&#xf76a;" horiz-adv-x="351" d="M156 539h116v-338q0 -75 -6.5 -107.5t-25.5 -55.5q-40 -49 -134 -49q-63 0 -108 17l10 94q43 -22 78 -22q43 0 56.5 24t13.5 99v338z" />
<glyph unicode="&#xf76b;" horiz-adv-x="561" d="M84 0v539h116v-240l203 240h143l-218 -249l225 -290h-147l-206 274v-274h-116z" />
<glyph unicode="&#xf76c;" horiz-adv-x="440" d="M84 0v539h116v-448h239v-91h-355z" />
<glyph unicode="&#xf76d;" horiz-adv-x="785" d="M84 0v539h169l89 -255q28 -92 49 -176q22 85 57 188l85 243h168v-539h-109v442q-16 -65 -45 -150l-99 -292h-118l-101 295q-27 83 -45 147l1 -442h-101z" />
<glyph unicode="&#xf76e;" horiz-adv-x="636" d="M84 0v539h136l172 -286q38 -64 57 -105v391h104v-539h-134l-167 278q-42 70 -64 112v-390h-104z" />
<glyph unicode="&#xf76f;" horiz-adv-x="625" d="M313 550q137 0 205 -87q60 -75 60 -193q0 -139 -80 -216q-66 -65 -185 -65q-136 0 -205 87q-60 75 -60 197q0 135 80 212q68 65 185 65zM313 463q-66 0 -105 -51.5t-39 -139.5q0 -92 38.5 -144t105.5 -52t105.5 52t38.5 141q0 90 -38.5 142t-105.5 52z" />
<glyph unicode="&#xf770;" horiz-adv-x="499" d="M84 0v539h151q121 0 171 -31q63 -41 63 -135q0 -93 -67 -137q-49 -32 -156 -32h-49v-204h-113zM195 289h38q62 0 85 13q35 19 35 71q0 49 -32 68q-23 13 -82 13h-44v-165z" />
<glyph unicode="&#xf771;" horiz-adv-x="625" d="M544 -58l-57 -82q-112 57 -192 129q-91 6 -144 45q-103 75 -103 235q0 139 80 216q66 65 185 65q137 0 205 -87q60 -75 60 -194q0 -126 -66 -200q-26 -29 -77 -55q41 -34 109 -72zM313 463q-66 0 -105 -51.5t-39 -139.5q0 -92 38.5 -144t105.5 -52t105.5 52t38.5 141 q0 90 -38.5 142t-105.5 52z" />
<glyph unicode="&#xf772;" horiz-adv-x="532" d="M84 0v539h186q98 0 143 -28q62 -37 62 -119q0 -53 -26 -88t-75 -45q25 -10 37 -25.5t35 -66.5l76 -167h-122l-53 117q-29 64 -49.5 81.5t-66.5 17.5h-34v-216h-113zM195 301h48q61 0 88.5 18.5t27.5 59.5t-25.5 58t-86.5 17h-52v-153z" />
<glyph unicode="&#xf773;" horiz-adv-x="474" d="M48 20l18 96q86 -40 151 -40q40 0 64 18.5t24 50.5q0 26 -19 42t-83 42q-79 32 -107 53q-47 35 -47 101q0 78 52 122.5t143 44.5q76 0 163 -31l-24 -94q-83 38 -136 38q-34 0 -55.5 -16.5t-21.5 -42.5q0 -23 19.5 -39t74.5 -39q83 -32 116 -57q47 -38 47 -111 q0 -81 -52.5 -125t-149.5 -44q-90 0 -177 31z" />
<glyph unicode="&#xf774;" horiz-adv-x="458" d="M170 0v448h-162v91h443v-91h-165v-448h-116z" />
<glyph unicode="&#xf775;" horiz-adv-x="609" d="M79 539h116v-320q0 -81 24 -112t86 -31t85.5 31t23.5 112v320h116v-297q0 -89 -7.5 -126t-30.5 -64q-54 -63 -187 -63q-149 0 -198 78q-17 25 -22.5 60.5t-5.5 114.5v297z" />
<glyph unicode="&#xf776;" horiz-adv-x="537" d="M204 0l-206 539h121l107 -287q28 -75 45 -130q28 83 44 127l109 290h116l-207 -539h-129z" />
<glyph unicode="&#xf777;" horiz-adv-x="809" d="M164 0l-136 539h117l65 -278q14 -65 22 -117l5 -25q13 65 33 147l73 273h131l80 -316q12 -49 23 -104q13 73 36 169l62 251h107l-144 -539h-132l-62 248q-24 90 -40 182q-15 -73 -43 -182l-65 -248h-132z" />
<glyph unicode="&#xf778;" horiz-adv-x="585" d="M18 0l210 278l-194 261h135l127 -178l133 178h131l-200 -264l207 -275h-139l-136 190l-141 -190h-133z" />
<glyph unicode="&#xf779;" horiz-adv-x="529" d="M207 0v226l-215 313h136l105 -158l17 -25q2 -4 3.5 -6.5t4 -6t4.5 -7.5l6 -10q8 13 38 59l102 154h130l-214 -313v-226h-117z" />
<glyph unicode="&#xf77a;" horiz-adv-x="489" d="M30 0v81l274 369h-264v89h409v-81l-273 -369h282v-89h-428z" />
<glyph unicode="&#xf7a8;" d="M146 742q31 0 50 -19t19 -49t-19 -49.5t-49 -19.5q-31 0 -50 19.5t-19 50.5q0 29 19.5 48t48.5 19zM353 742q31 0 50 -19t19 -49t-19 -49.5t-49 -19.5q-31 0 -50 19.5t-19 50.5q0 29 19.5 48t48.5 19z" />
<glyph unicode="&#xf7af;" d="M85 629v75h331v-75h-331z" />
<glyph unicode="&#xf7b4;" d="M280 751h142l-154 -146h-109z" />
<glyph unicode="&#xf7b8;" d="M234 -33h131l-140 -150h-109z" />
<glyph unicode="&#xf7e0;" horiz-adv-x="571" d="M388 135h-211l-50 -135h-119l211 539h128l217 -539h-125zM359 221l-76 217l-76 -217h152zM253 751l121 -146h-109l-154 146h142z" />
<glyph unicode="&#xf7e1;" horiz-adv-x="571" d="M388 135h-211l-50 -135h-119l211 539h128l217 -539h-125zM359 221l-76 217l-76 -217h152zM326 751h142l-153 -146h-109z" />
<glyph unicode="&#xf7e2;" horiz-adv-x="571" d="M388 135h-211l-50 -135h-119l211 539h128l217 -539h-125zM359 221l-76 217l-76 -217h152zM286 696l-70 -91h-110l110 146h139l111 -146h-110z" />
<glyph unicode="&#xf7e3;" horiz-adv-x="571" d="M388 135h-211l-50 -135h-119l211 539h128l217 -539h-125zM359 221l-76 217l-76 -217h152zM169 604h-69q5 58 32 90.5t69 32.5q34 0 94 -22q50 -17 68 -17q36 0 40 41h68q-10 -124 -102 -124q-31 0 -90 20q-56 19 -72 19q-29 0 -38 -40z" />
<glyph unicode="&#xf7e4;" horiz-adv-x="571" d="M388 135h-211l-50 -135h-119l211 539h128l217 -539h-125zM359 221l-76 217l-76 -217h152zM182 742q31 0 50 -19t19 -49t-19 -49.5t-49 -19.5q-31 0 -50 19.5t-19 50.5q0 29 19.5 48t48.5 19zM389 742q30 0 49.5 -19t19.5 -49t-19.5 -49.5t-48.5 -19.5q-31 0 -50 19.5 t-19 50.5q0 29 19.5 48t48.5 19z" />
<glyph unicode="&#xf7e5;" horiz-adv-x="571" d="M388 135h-211l-50 -135h-119l211 539h128l217 -539h-125zM359 221l-76 217l-76 -217h152zM286 796q46 0 77 -30.5t31 -76.5q0 -47 -31 -77.5t-77 -30.5q-47 0 -77.5 31t-30.5 78q0 45 31 75.5t77 30.5zM286 742q-23 0 -36.5 -14.5t-13.5 -38.5q0 -25 13.5 -39.5 t36.5 -14.5t36.5 14.5t13.5 39.5q0 24 -13.5 38.5t-36.5 14.5z" />
<glyph unicode="&#xf7e6;" horiz-adv-x="776" d="M367 132h-202l-80 -132h-131l334 539h423v-90h-228v-132h217v-90h-217v-137h241v-90h-357v132zM367 219v256l-153 -256h153z" />
<glyph unicode="&#xf7e7;" horiz-adv-x="519" d="M468 120l34 -88q-90 -43 -179 -43q-129 0 -202 73.5t-73 203.5q0 132 72.5 208t198.5 76q93 0 179 -43l-42 -86q-47 26 -70.5 34t-56.5 8q-72 0 -116 -53.5t-44 -141.5q0 -87 45 -139.5t119 -52.5q66 0 135 44zM244 -33h131l-140 -150h-109z" />
<glyph unicode="&#xf7e8;" horiz-adv-x="494" d="M84 0v539h345v-90h-229v-132h218v-90h-218v-137h241v-90h-357zM237 751l121 -146h-109l-154 146h142z" />
<glyph unicode="&#xf7e9;" horiz-adv-x="494" d="M84 0v539h345v-90h-229v-132h218v-90h-218v-137h241v-90h-357zM300 751h142l-153 -146h-110z" />
<glyph unicode="&#xf7ea;" horiz-adv-x="494" d="M82 0v539h345v-90h-229v-132h218v-90h-218v-137h241v-90h-357zM254 696l-70 -91h-110l110 146h139l111 -146h-110z" />
<glyph unicode="&#xf7eb;" horiz-adv-x="494" d="M83 0v539h345v-90h-229v-132h218v-90h-218v-137h242v-90h-358zM148 742q31 0 50 -19t19 -49t-19 -49.5t-49 -19.5q-31 0 -50 19.5t-19 50.5q0 29 19.5 48t48.5 19zM355 742q31 0 50 -19t19 -49t-19 -49.5t-49 -19.5q-31 0 -50 19.5t-19 50.5q0 29 19.5 48t48.5 19z" />
<glyph unicode="&#xf7ec;" horiz-adv-x="284" d="M84 0v539h116v-539h-116zM106 751l121 -146h-109l-154 146h142z" />
<glyph unicode="&#xf7ed;" horiz-adv-x="284" d="M84 0v539h116v-539h-116zM183 751h142l-154 -146h-109z" />
<glyph unicode="&#xf7ee;" horiz-adv-x="284" d="M84 0v539h116v-539h-116zM142 696l-70 -91h-110l110 146h139l111 -146h-110z" />
<glyph unicode="&#xf7ef;" horiz-adv-x="284" d="M84 0v539h116v-539h-116zM38 742q31 0 50 -19t19 -49t-19 -49.5t-49 -19.5q-31 0 -50 19.5t-19 50.5q0 29 19.5 48t48.5 19zM245 742q31 0 50 -19t19 -49t-19 -49.5t-49 -19.5q-31 0 -50 19.5t-19 50.5q0 29 19.5 48t48.5 19z" />
<glyph unicode="&#xf7f0;" horiz-adv-x="608" d="M101 235h-87v75h87v229h152q82 0 132 -12t87 -40q88 -67 88 -217q0 -166 -104 -230q-68 -40 -211 -40h-144v235zM217 235v-148h32q84 0 125 29q65 46 65 154q0 111 -60 155q-22 16 -49 21.5t-84 5.5h-29v-142h113v-75h-113z" />
<glyph unicode="&#xf7f1;" horiz-adv-x="636" d="M84 0v539h136l172 -286q38 -64 57 -105v391h104v-539h-134l-167 278q-42 70 -64 112v-390h-104zM217 604h-69q4 57 31.5 90t69.5 33q32 0 94 -22q50 -17 67 -17q37 0 41 41h68q-12 -124 -103 -124q-30 0 -89 20q-53 19 -72 19q-29 0 -38 -40z" />
<glyph unicode="&#xf7f2;" horiz-adv-x="625" d="M313 550q137 0 205 -87q60 -75 60 -193q0 -139 -80 -216q-66 -65 -185 -65q-136 0 -205 87q-60 75 -60 197q0 135 80 212q68 65 185 65zM313 463q-66 0 -105 -51.5t-39 -139.5q0 -92 38.5 -144t105.5 -52t105.5 52t38.5 141q0 90 -38.5 142t-105.5 52zM294 751l121 -146 h-109l-154 146h142z" />
<glyph unicode="&#xf7f3;" horiz-adv-x="625" d="M313 550q137 0 205 -87q60 -75 60 -193q0 -139 -80 -216q-66 -65 -185 -65q-136 0 -205 87q-60 75 -60 197q0 135 80 212q68 65 185 65zM313 463q-66 0 -105 -51.5t-39 -139.5q0 -92 38.5 -144t105.5 -52t105.5 52t38.5 141q0 90 -38.5 142t-105.5 52zM343 751h142 l-154 -146h-109z" />
<glyph unicode="&#xf7f4;" horiz-adv-x="625" d="M313 550q137 0 205 -87q60 -75 60 -193q0 -139 -80 -216q-66 -65 -185 -65q-136 0 -205 87q-60 75 -60 197q0 135 80 212q68 65 185 65zM313 463q-66 0 -105 -51.5t-39 -139.5q0 -92 38.5 -144t105.5 -52t105.5 52t38.5 141q0 90 -38.5 142t-105.5 52zM313 696l-70 -91 h-110l110 146h139l111 -146h-110z" />
<glyph unicode="&#xf7f5;" horiz-adv-x="625" d="M313 550q137 0 205 -87q60 -75 60 -193q0 -139 -80 -216q-66 -65 -185 -65q-136 0 -205 87q-60 75 -60 197q0 135 80 212q68 65 185 65zM313 463q-66 0 -105 -51.5t-39 -139.5q0 -92 38.5 -144t105.5 -52t105.5 52t38.5 141q0 90 -38.5 142t-105.5 52zM196 604h-69 q5 58 32 90.5t69 32.5q34 0 94 -22q50 -17 68 -17q35 0 41 41h67q-10 -124 -102 -124q-31 0 -89 20q-57 19 -73 19q-29 0 -38 -40z" />
<glyph unicode="&#xf7f6;" horiz-adv-x="625" d="M313 550q137 0 205 -87q60 -75 60 -193q0 -139 -80 -216q-66 -65 -185 -65q-136 0 -205 87q-60 75 -60 197q0 135 80 212q68 65 185 65zM313 463q-66 0 -105 -51.5t-39 -139.5q0 -92 38.5 -144t105.5 -52t105.5 52t38.5 141q0 90 -38.5 142t-105.5 52zM209 742 q31 0 50 -19t19 -49t-19 -49.5t-49 -19.5q-31 0 -50 19.5t-19 50.5q0 29 19.5 48t48.5 19zM416 742q31 0 50 -19t19 -49t-19 -49.5t-49 -19.5q-31 0 -50 19.5t-19 50.5q0 29 19.5 48t48.5 19z" />
<glyph unicode="&#xf7f8;" horiz-adv-x="625" d="M95 -19l-54 46l55 60q-52 76 -52 183q0 138 80 215q66 65 184 65q101 0 165 -47l50 55l53 -46l-54 -60q52 -75 52 -183q0 -138 -80 -215q-68 -65 -185 -65q-104 0 -164 47zM180 180l222 245q-38 38 -93 38q-67 0 -105.5 -52t-38.5 -142q0 -44 15 -89zM437 359l-222 -245 q38 -38 94 -38q67 0 105.5 52t38.5 141q0 46 -16 90z" />
<glyph unicode="&#xf7f9;" horiz-adv-x="609" d="M79 539h116v-320q0 -81 24 -112t86 -31t85.5 31t23.5 112v320h116v-297q0 -89 -7.5 -126t-30.5 -64q-54 -63 -187 -63q-149 0 -198 78q-17 25 -22.5 60.5t-5.5 114.5v297zM281 751l121 -146h-109l-154 146h142z" />
<glyph unicode="&#xf7fa;" horiz-adv-x="609" d="M79 539h116v-320q0 -81 24 -112t86 -31t85.5 31t23.5 112v320h116v-297q0 -89 -7.5 -126t-30.5 -64q-54 -63 -187 -63q-149 0 -198 78q-17 25 -22.5 60.5t-5.5 114.5v297zM352 751h142l-153 -146h-110z" />
<glyph unicode="&#xf7fb;" horiz-adv-x="609" d="M79 539h116v-320q0 -81 24 -112t86 -31t85.5 31t23.5 112v320h116v-297q0 -89 -7.5 -126t-30.5 -64q-54 -63 -187 -63q-149 0 -198 78q-17 25 -22.5 60.5t-5.5 114.5v297zM305 696l-70 -91h-110l110 146h139l110 -146h-109z" />
<glyph unicode="&#xf7fc;" horiz-adv-x="609" d="M79 539h116v-320q0 -81 24 -112t86 -31t85.5 31t23.5 112v320h116v-297q0 -89 -7.5 -126t-30.5 -64q-54 -63 -187 -63q-149 0 -198 78q-17 25 -22.5 60.5t-5.5 114.5v297zM201 742q31 0 50 -19t19 -49t-19.5 -49.5t-48.5 -19.5q-31 0 -50 19.5t-19 50.5q0 29 19.5 48 t48.5 19zM408 742q31 0 50 -19t19 -49t-19.5 -49.5t-48.5 -19.5q-31 0 -50 19.5t-19 50.5q0 29 19.5 48t48.5 19z" />
<glyph unicode="&#xf7fd;" horiz-adv-x="529" d="M207 0v226l-215 313h136l105 -158l17 -25q2 -4 3.5 -6.5t4 -6t4.5 -7.5l6 -10q8 13 38 59l102 154h130l-214 -313v-226h-117zM317 751h142l-154 -146h-109z" />
<glyph unicode="&#xf7fe;" horiz-adv-x="504" d="M84 0v539h113v-91h43q69 0 106 -7t64 -26q64 -45 64 -140t-67 -139q-49 -32 -156 -32h-54v-104h-113zM195 189h43q62 0 85 13q35 21 35 73t-32 73q-22 15 -82 15h-49v-174z" />
<glyph unicode="&#xf7ff;" horiz-adv-x="529" d="M207 0v226l-215 313h136l105 -158l17 -25q2 -4 3.5 -6.5t4 -6t4.5 -7.5l6 -10q8 13 38 59l102 154h130l-214 -313v-226h-117zM160 742q30 0 49.5 -19t19.5 -49t-19.5 -49.5t-48.5 -19.5q-31 0 -50 19.5t-19 50.5q0 29 19.5 48t48.5 19zM368 742q30 0 49.5 -19t19.5 -49 t-19.5 -49.5t-48.5 -19.5q-31 0 -50 19.5t-19 50.5q0 29 19.5 48t48.5 19z" />
<glyph horiz-adv-x="859" d="M170 312v298l-81 -47l-31 59l122 70h73v-380h-83zM242 -18l274 728h80l-274 -728h-80zM641 0v298l-81 -47l-31 59l122 70h73v-380h-83z" />
<glyph horiz-adv-x="859" d="M52 312v66q57 42 121 99q68 64 68 106q0 22 -17.5 35t-46.5 13q-40 0 -106 -31l-18 67q68 31 134 31q67 0 104 -28.5t37 -79.5q0 -34 -15.5 -63t-52.5 -66q-53 -51 -94 -83h165v-66h-279zM251 -18l274 728h80l-274 -728h-80zM511 21l26 66q56 -26 102 -26q37 0 60 18 t23 47q0 58 -88 58q-40 0 -103 -15l9 211h253v-67h-173l-2 -74q25 6 52 6q66 0 103 -31.5t37 -87.5q0 -63 -42.5 -97.5t-120.5 -34.5q-73 0 -136 27z" />
<glyph horiz-adv-x="859" d="M48 327l15 67q60 -21 107 -21q35 0 54.5 14t19.5 39q0 54 -93 54q-3 0 -37 -2v60q18 -2 35 -2q91 0 91 52q0 20 -18.5 32t-50.5 12q-40 0 -95 -18l-13 65q66 19 124 19q68 0 105 -26t37 -74q0 -67 -73 -87q79 -20 79 -91q0 -55 -40.5 -84.5t-115.5 -29.5q-68 0 -131 21z M253 -18l274 728h79l-274 -728h-79zM514 21l26 66q56 -26 102 -26q37 0 60 18t23 47q0 58 -88 58q-40 0 -103 -15l9 211h253v-67h-173l-2 -74q25 6 52 6q66 0 103 -31.5t37 -87.5q0 -63 -42.5 -97.5t-120.5 -34.5q-73 0 -136 27z" />
<glyph horiz-adv-x="859" d="M216 312v87h-188v66l163 227h107v-232h56v-61h-56v-87h-82zM220 460v168l-119 -168h119zM253 -18l274 728h80l-274 -728h-80zM514 21l26 66q56 -26 102 -26q37 0 60 18t23 47q0 58 -88 58q-40 0 -103 -15l9 211h253v-67h-173l-3 -74q26 6 53 6q66 0 103 -31.5t37 -87.5 q0 -63 -42.5 -97.5t-120.5 -34.5q-75 0 -136 27z" />
<glyph horiz-adv-x="859" d="M46 333l26 66q58 -26 102 -26q37 0 60 18t23 47q0 58 -88 58q-42 0 -103 -15l9 211h253v-67h-173l-2 -74q25 6 52 6q66 0 103 -31.5t37 -87.5q0 -63 -42.5 -97.5t-120.5 -34.5q-75 0 -136 27zM259 -18l274 728h79l-274 -728h-79zM784 380l-7 -64q-36 6 -54 6 q-96 0 -122 -100q36 28 83 28q59 0 94 -32.5t35 -88.5q0 -62 -41 -98.5t-111 -36.5q-76 0 -116 42t-40 122q0 127 73 187q48 41 136 41q25 0 70 -6zM660 187q-30 0 -48 -17t-18 -45q0 -31 17.5 -48.5t47.5 -17.5t48.5 18t18.5 47t-17.5 46t-48.5 17z" />
<glyph d="M251 902q31 0 51 -20t20 -51t-20 -51t-51 -20t-51 20t-20 52q0 31 20 50.5t51 19.5z" />
<glyph d="M250 903q50 0 83 -33t33 -83t-33 -83t-83 -33t-83 33t-33 85q0 48 33.5 81t82.5 33zM250 846q-25 0 -40 -16.5t-15 -42.5q0 -27 15 -43t40 -16t40 16t15 43t-15 43t-40 16z" />
<glyph d="M250 848l-70 -91h-110l110 146h139l111 -146h-110z" />
<glyph d="M85 908h75q3 -42 24 -60.5t66 -18.5q44 0 65 18.5t25 60.5h74q-1 -80 -41 -118t-123 -38q-102 0 -141 59q-23 34 -24 97z" />
<glyph d="M134 768h-69q5 57 31.5 89.5t69.5 32.5q32 0 94 -22q50 -17 67 -17q36 0 41 41h68q-12 -123 -103 -123q-30 0 -89 20q-57 19 -72 19q-29 0 -38 -40z" />
<glyph d="M247 -33h131l-140 -150h-109z" />
<glyph d="M307 -152l7 -58q-46 -10 -78 -10q-58 0 -92 25t-34 67q0 75 127 128h74q-64 -38 -85 -60t-21 -51q0 -21 16.5 -34t43.5 -13q19 0 42 6z" />
<glyph d="M247 -33h131l-140 -150h-109z" />
<glyph horiz-adv-x="924" d="M48 20l17 96q86 -40 151 -40q41 0 64.5 18.5t23.5 50.5q0 26 -19 42t-83 42q-79 32 -107 53q-47 36 -47 101q0 78 52 122.5t143 44.5q74 0 163 -31l-24 -94q-81 38 -136 38q-34 0 -55.5 -16.5t-21.5 -42.5q0 -23 19.5 -39t74.5 -39q83 -32 116 -57q47 -39 47 -110 q0 -82 -52.5 -126t-149.5 -44q-87 0 -176 31zM498 20l17 96q86 -40 151 -40q40 0 64 18.5t24 50.5q0 26 -19 42t-83 42q-79 32 -107 53q-47 35 -47 101q0 78 52 122.5t143 44.5q76 0 163 -31l-24 -94q-84 38 -136 38q-34 0 -55.5 -16.5t-21.5 -42.5q0 -23 19.5 -39t74.5 -39 q85 -34 116 -57q47 -38 47 -111q0 -81 -52.5 -125t-149.5 -44q-87 0 -176 31z" />
<glyph horiz-adv-x="284" d="M84 0v539h116v-539h-116z" />
<glyph horiz-adv-x="351" d="M156 539h116v-338q0 -75 -6.5 -107.5t-25.5 -55.5q-40 -49 -134 -49q-63 0 -108 17l10 94q43 -22 78 -22q43 0 56.5 24t13.5 99v338z" />
<glyph horiz-adv-x="749" d="M84 0v539h347v-90h-231v-137h219v-90h-219v-222h-116zM549 0v539h116v-539h-116z" />
<glyph horiz-adv-x="908" d="M84 0v539h347v-90h-231v-137h219v-90h-219v-222h-116zM549 0v539h116v-448h241v-91h-357z" />
<glyph horiz-adv-x="571" d="M388 135h-211l-50 -135h-119l211 539h128l217 -539h-125zM359 221l-76 217l-76 -217h152zM286 660l70 91h110l-111 -146h-139l-110 146h109z" />
<glyph horiz-adv-x="571" d="M388 135h-211l-50 -135h-119l211 539h128l217 -539h-125zM359 221l-76 217l-76 -217h152zM121 751h75q3 -42 24 -60.5t66 -18.5t66 18.5t24 60.5h74q-1 -65 -25 -98q-40 -58 -139 -58q-83 0 -123.5 38t-41.5 118z" />
<glyph horiz-adv-x="571" d="M388 135h-211l-50 -135h-119l211 539h128l217 -539q-63 -38 -84.5 -60.5t-21.5 -50.5q0 -21 16 -34t44 -13q19 0 42 6l6 -58q-46 -10 -77 -10q-58 0 -92 25t-34 67q0 76 127 128h-51zM359 221l-76 217l-76 -217h152z" />
<glyph horiz-adv-x="519" d="M468 120l34 -88q-90 -43 -179 -43q-129 0 -202 73.5t-73 203.5q0 132 72.5 208t198.5 76q93 0 179 -43l-42 -86q-47 26 -70.5 34t-56.5 8q-72 0 -116 -53.5t-44 -141.5q0 -87 45 -139.5t119 -52.5q66 0 135 44zM352 751h142l-154 -146h-109z" />
<glyph horiz-adv-x="519" d="M468 120l34 -88q-90 -43 -179 -43q-129 0 -202 73.5t-73 203.5q0 132 72.5 208t198.5 76q93 0 179 -43l-42 -86q-47 26 -70.5 34t-56.5 8q-72 0 -116 -53.5t-44 -141.5q0 -87 45 -139.5t119 -52.5q66 0 135 44zM315 660l70 91h110l-110 -146h-139l-110 146h109z" />
<glyph horiz-adv-x="519" d="M468 120l34 -88q-90 -43 -179 -43q-129 0 -202 73.5t-73 203.5q0 132 72.5 208t198.5 76q93 0 179 -43l-42 -86q-47 26 -70.5 34t-56.5 8q-72 0 -116 -53.5t-44 -141.5q0 -87 45 -139.5t119 -52.5q66 0 135 44zM325 742q31 0 50 -19t19 -49t-19 -49.5t-49 -19.5 q-31 0 -50 19.5t-19 50.5q0 29 19.5 48t48.5 19z" />
<glyph horiz-adv-x="633" d="M84 0v539h153q82 0 132 -12t87 -40q88 -67 88 -216q0 -167 -104 -231q-37 -22 -84 -31t-128 -9h-144zM200 87h32q85 0 126 29q65 46 65 155q0 110 -60 154q-22 16 -49 21.5t-84 5.5h-30v-365zM618 731h120l-101 -257h-98z" />
<glyph horiz-adv-x="608" d="M101 235h-87v75h87v229h152q82 0 132 -12t87 -40q88 -67 88 -217q0 -166 -104 -230q-68 -40 -211 -40h-144v235zM217 235v-148h32q84 0 125 29q65 46 65 154q0 111 -60 155q-22 16 -49 21.5t-84 5.5h-29v-142h113v-75h-113z" />
<glyph horiz-adv-x="494" d="M78 0v539h344v-90h-228v-132h217v-90h-217v-137h241v-90h-357zM254 660l70 91h110l-111 -146h-139l-110 146h109z" />
<glyph horiz-adv-x="494" d="M84 0v539h345v-90h-229v-132h218v-90h-218v-137h241v-90h-357zM272 742q31 0 50 -19t19 -49t-19.5 -49.5t-48.5 -19.5q-31 0 -50 19.5t-19 50.5q0 29 19.5 48t48.5 19z" />
<glyph horiz-adv-x="494" d="M84 0v539h345v-90h-229v-132h218v-90h-218v-137h241v-90q-6 -4 -13 -8q-55 -35 -74 -55.5t-19 -47.5q0 -21 16.5 -34t44.5 -13q19 0 41 6l7 -58q-44 -10 -78 -10q-58 0 -92 25t-34 67q0 39 30.5 69.5t97.5 58.5h-284z" />
<glyph horiz-adv-x="605" d="M524 300v-274q-100 -37 -193 -37q-134 0 -208.5 72t-74.5 203q0 134 75.5 210.5t207.5 76.5q96 0 193 -47l-39 -86q-73 46 -146 46q-77 0 -123.5 -53.5t-46.5 -143.5q0 -85 46.5 -137.5t121.5 -52.5q39 0 74 15v122h-104v86h217zM328 660l70 91h110l-110 -146h-139 l-111 146h110z" />
<glyph horiz-adv-x="605" d="M524 300v-274q-100 -37 -193 -37q-134 0 -208.5 72t-74.5 203q0 134 75.5 210.5t207.5 76.5q96 0 193 -47l-39 -86q-73 46 -146 46q-77 0 -123.5 -53.5t-46.5 -143.5q0 -85 46.5 -137.5t121.5 -52.5q39 0 74 15v122h-104v86h217zM152 751h74q4 -42 24.5 -60.5t65.5 -18.5 t66 18.5t24 60.5h75q-1 -65 -25 -98q-41 -58 -140 -58q-83 0 -123 38t-41 118z" />
<glyph horiz-adv-x="605" d="M524 300v-274q-100 -37 -193 -37q-134 0 -208.5 72t-74.5 203q0 134 75.5 210.5t207.5 76.5q96 0 193 -47l-39 -86q-73 46 -146 46q-77 0 -123.5 -53.5t-46.5 -143.5q0 -85 46.5 -137.5t121.5 -52.5q39 0 74 15v122h-104v86h217zM323 742q30 0 49.5 -19t19.5 -49 t-19.5 -49.5t-48.5 -19.5q-31 0 -50 19.5t-19 50.5q0 29 19.5 48t48.5 19z" />
<glyph horiz-adv-x="440" d="M84 0v539h116v-448h239v-91h-355zM219 751h142l-154 -146h-109z" />
<glyph horiz-adv-x="440" d="M84 0v539h116v-448h239v-91h-355zM330 731h120l-101 -257h-98z" />
<glyph horiz-adv-x="636" d="M84 0v539h136l172 -286q38 -64 57 -105v391h104v-539h-134l-167 278q-42 70 -64 112v-390h-104zM376 751h142l-154 -146h-109z" />
<glyph horiz-adv-x="636" d="M84 0v539h136l172 -286q38 -64 57 -105v391h104v-539h-134l-167 278q-42 70 -64 112v-390h-104zM334 660l70 91h109l-110 -146h-139l-110 146h109z" />
<glyph horiz-adv-x="625" d="M313 550q137 0 205 -87q60 -75 60 -193q0 -139 -80 -216q-66 -65 -185 -65q-136 0 -205 87q-60 75 -60 197q0 135 80 212q68 65 185 65zM313 463q-66 0 -105 -51.5t-39 -139.5q0 -92 38.5 -144t105.5 -52t105.5 52t38.5 141q0 90 -38.5 142t-105.5 52zM261 751h140 l-145 -146h-107zM459 751h141l-147 -146h-105z" />
<glyph horiz-adv-x="532" d="M84 0v539h186q98 0 143 -28q62 -37 62 -119q0 -53 -26 -88t-75 -45q25 -10 37 -25.5t35 -66.5l76 -167h-122l-53 117q-29 64 -49.5 81.5t-66.5 17.5h-34v-216h-113zM195 301h48q61 0 88.5 18.5t27.5 59.5t-25.5 58t-86.5 17h-52v-153zM306 751h142l-153 -146h-109z" />
<glyph horiz-adv-x="474" d="M48 20l18 96q86 -40 151 -40q40 0 64 18.5t24 50.5q0 26 -19 42t-83 42q-79 32 -107 53q-47 35 -47 101q0 78 52 122.5t143 44.5q76 0 163 -31l-24 -94q-83 38 -136 38q-34 0 -55.5 -16.5t-21.5 -42.5q0 -23 19.5 -39t74.5 -39q83 -32 116 -57q47 -38 47 -111 q0 -81 -52.5 -125t-149.5 -44q-90 0 -177 31zM300 751h142l-154 -146h-109z" />
<glyph horiz-adv-x="474" d="M48 20l18 96q86 -40 151 -40q40 0 64 18.5t24 50.5q0 26 -19 42t-83 42q-79 32 -107 53q-47 35 -47 101q0 78 52 122.5t143 44.5q76 0 163 -31l-24 -94q-83 38 -136 38q-34 0 -55.5 -16.5t-21.5 -42.5q0 -23 19.5 -39t74.5 -39q83 -32 116 -57q47 -38 47 -111 q0 -81 -52.5 -125t-149.5 -44q-90 0 -177 31zM251 696l-70 -91h-109l110 146h139l110 -146h-109z" />
<glyph horiz-adv-x="474" d="M48 20l18 96q86 -40 151 -40q40 0 64 18.5t24 50.5q0 26 -19 42t-83 42q-79 32 -107 53q-47 35 -47 101q0 78 52 122.5t143 44.5q76 0 163 -31l-24 -94q-83 38 -136 38q-34 0 -55.5 -16.5t-21.5 -42.5q0 -23 19.5 -39t74.5 -39q83 -32 116 -57q47 -38 47 -111 q0 -81 -52.5 -125t-149.5 -44q-90 0 -177 31zM181 -33h131l-140 -150h-109z" />
<glyph horiz-adv-x="570" d="M170 0v448h-162v91h443v-91h-165v-448h-116zM565 731h120l-101 -257h-98z" />
<glyph horiz-adv-x="609" d="M79 539h116v-320q0 -81 24 -112t86 -31t85.5 31t23.5 112v320h116v-297q0 -89 -7.5 -126t-30.5 -64q-54 -63 -187 -63q-149 0 -198 78q-17 25 -22.5 60.5t-5.5 114.5v297zM305 796q46 0 77 -30.5t31 -76.5q0 -47 -30.5 -77.5t-77.5 -30.5t-77.5 31t-30.5 78q0 45 31 75.5 t77 30.5zM305 742q-22 0 -36 -15t-14 -38q0 -25 13.5 -39.5t36.5 -14.5t36.5 14.5t13.5 39.5q0 24 -13.5 38.5t-36.5 14.5z" />
<glyph horiz-adv-x="609" d="M79 539h116v-320q0 -81 24 -112t86 -31t85.5 31t23.5 112v320h116v-297q0 -89 -7.5 -126t-30.5 -64q-54 -63 -187 -63q-149 0 -198 78q-17 25 -22.5 60.5t-5.5 114.5v297zM253 751h140l-145 -146h-107zM451 751h141l-147 -146h-105z" />
<glyph horiz-adv-x="489" d="M30 0v81l274 369h-264v89h409v-81l-273 -369h282v-89h-428zM293 751h142l-154 -146h-109z" />
<glyph horiz-adv-x="489" d="M30 0v81l274 369h-264v89h409v-81l-273 -369h282v-89h-428zM260 742q30 0 49.5 -19t19.5 -49t-19.5 -49.5t-48.5 -19.5q-31 0 -50 19.5t-19 50.5q0 29 19.5 48t48.5 19z" />
<glyph horiz-adv-x="615" d="M84 0v393h-77v68h77v78h116v-78h215v78h116v-78h78v-68h-78v-393h-116v225h-215v-225h-116zM415 310v83h-215v-83h215z" />
<glyph horiz-adv-x="458" d="M170 0v448h-162v91h443v-91h-165v-448h-116zM170 -33h132l-141 -150h-108z" />
<glyph horiz-adv-x="571" d="M388 135h-211l-50 -135h-119l211 539h128l217 -539h-125zM359 221l-76 217l-76 -217h152zM120 629v75h331v-75h-331z" />
<glyph horiz-adv-x="529" d="M207 0v226l-215 313h136l105 -158l17 -25q2 -4 3.5 -6.5t4 -6t4.5 -7.5l6 -10q8 13 38 59l102 154h130l-214 -313v-226h-117zM264 696l-70 -91h-109l110 146h139l110 -146h-109z" />
<glyph horiz-adv-x="519" d="M468 120l34 -88q-90 -43 -179 -43q-129 0 -202 73.5t-73 203.5q0 132 72.5 208t198.5 76q93 0 179 -43l-42 -86q-47 26 -70.5 34t-56.5 8q-72 0 -116 -53.5t-44 -141.5q0 -87 45 -139.5t119 -52.5q66 0 135 44zM312 696l-70 -91h-110l110 146h139l111 -146h-110z" />
<glyph horiz-adv-x="494" d="M83 0v539h345v-90h-229v-132h218v-90h-218v-137h242v-90h-358zM81 629v75h331v-75h-331z" />
<glyph horiz-adv-x="605" d="M524 300v-274q-100 -37 -193 -37q-134 0 -208.5 72t-74.5 203q0 134 75.5 210.5t207.5 76.5q96 0 193 -47l-39 -86q-73 46 -146 46q-77 0 -123.5 -53.5t-46.5 -143.5q0 -85 46.5 -137.5t121.5 -52.5q39 0 74 15v122h-104v86h217zM321 696l-70 -91h-109l110 146h139 l110 -146h-109z" />
<glyph horiz-adv-x="284" d="M83 0v539h116v-539h-116zM-23 751h75q3 -42 24 -60.5t66 -18.5q44 0 65 18.5t25 60.5h74q-1 -80 -41 -118t-123 -38q-99 0 -140 58q-24 33 -25 98z" />
<glyph horiz-adv-x="284" d="M83 0v539h116v-539h-116zM-24 629v75h331v-75h-331z" />
<glyph horiz-adv-x="351" d="M155 539h116v-338q0 -75 -6.5 -107.5t-25.5 -55.5q-40 -49 -134 -49q-63 0 -108 17l10 94q43 -22 78 -22q43 0 56.5 24t13.5 99v338zM208 696l-70 -91h-110l110 146h139l110 -146h-109z" />
<glyph horiz-adv-x="561" d="M84 0v539h116v-240l203 240h143l-218 -249l225 -290h-147l-206 274v-274h-116zM244 -33h131l-140 -150h-109z" />
<glyph horiz-adv-x="440" d="M82 0v539h116v-448h238v-91h-354zM196 -33h131l-140 -150h-109z" />
<glyph horiz-adv-x="636" d="M84 0v539h136l172 -286q38 -64 57 -105v391h104v-539h-134l-167 278q-42 70 -64 112v-390h-104zM262 -33h132l-141 -150h-108z" />
<glyph horiz-adv-x="625" d="M313 550q137 0 205 -87q60 -75 60 -193q0 -139 -80 -216q-66 -65 -185 -65q-136 0 -205 87q-60 75 -60 197q0 135 80 212q68 65 185 65zM313 463q-66 0 -105 -51.5t-39 -139.5q0 -92 38.5 -144t105.5 -52t105.5 52t38.5 141q0 90 -38.5 142t-105.5 52zM147 629v75h331 v-75h-331z" />
<glyph horiz-adv-x="532" d="M84 0v539h186q98 0 143 -28q62 -37 62 -119q0 -53 -26 -88t-75 -45q25 -10 37 -25.5t35 -66.5l76 -167h-122l-53 117q-29 64 -49.5 81.5t-66.5 17.5h-34v-216h-113zM195 301h48q61 0 88.5 18.5t27.5 59.5t-25.5 58t-86.5 17h-52v-153zM230 -33h132l-141 -150h-108z" />
<glyph horiz-adv-x="609" d="M79 539h116v-320q0 -81 24 -112t86 -31t85.5 31t23.5 112v320h116v-297q0 -89 -7.5 -126t-30.5 -64q-54 -63 -187 -63q-149 0 -198 78q-17 25 -22.5 60.5t-5.5 114.5v297zM140 751h75q3 -42 24 -60.5t66 -18.5t65.5 18.5t24.5 60.5h74q-1 -65 -25 -98q-40 -58 -139 -58 t-140 58q-24 33 -25 98z" />
<glyph horiz-adv-x="609" d="M79 539h116v-320q0 -81 24 -112t86 -31t85.5 31t23.5 112v320h116v-297q0 -89 -7.5 -126t-30.5 -64q-54 -63 -187 -63q-149 0 -198 78q-17 25 -22.5 60.5t-5.5 114.5v297zM139 629v75h331v-75h-331z" />
<glyph horiz-adv-x="609" d="M79 539h116v-320q0 -81 24 -112t86 -31t85.5 31t23.5 112v320h116v-297q0 -86 -7 -123t-28 -64q-30 -34 -82 -52q-62 -35 -87 -60.5t-25 -53.5q0 -21 16.5 -34t43.5 -13q20 0 43 6l6 -58q-46 -10 -78 -10q-58 0 -92 25t-34 67q0 68 103 117h-14q-139 0 -188 77 q-17 26 -22.5 61.5t-5.5 114.5v297z" />
<glyph horiz-adv-x="532" d="M79 0v539h186q98 0 143 -28q62 -37 62 -119q0 -53 -26 -87.5t-75 -45.5q25 -10 37 -25.5t35 -66.5l76 -167h-122l-53 117q-29 64 -49.5 81.5t-66.5 17.5h-34v-216h-113zM190 301h48q61 0 88.5 18.5t27.5 59.5q0 45 -34 63q-24 12 -78 12h-52v-153zM259 660l70 91h110 l-111 -146h-139l-110 146h109z" />
<glyph horiz-adv-x="474" d="M48 20l18 96q86 -40 151 -40q40 0 64 18.5t24 50.5q0 26 -19 42t-83 42q-79 32 -107 53q-47 35 -47 101q0 78 52 122.5t143 44.5q76 0 163 -31l-24 -94q-83 38 -136 38q-34 0 -55.5 -16.5t-21.5 -42.5q0 -23 19.5 -39t74.5 -39q83 -32 116 -57q47 -38 47 -111 q0 -81 -52.5 -125t-149.5 -44q-90 0 -177 31zM182 -33h132l-141 -150h-108z" />
<glyph horiz-adv-x="605" d="M524 300v-274q-100 -37 -193 -37q-134 0 -208.5 72t-74.5 203q0 134 75.5 210.5t207.5 76.5q96 0 193 -47l-39 -86q-73 46 -146 46q-77 0 -123.5 -53.5t-46.5 -143.5q0 -85 46.5 -137.5t121.5 -52.5q39 0 74 15v122h-104v86h217zM365 591h-131l140 150h109z" />
<glyph horiz-adv-x="390" d="M173 0v421l-109 -62l-50 91l174 95h101v-545h-116z" />
<glyph horiz-adv-x="457" d="M13 0v86q102 84 178 160q52 53 72 84.5t20 60.5q0 35 -22 53.5t-63 18.5q-64 0 -146 -43l-31 86q100 44 194 44q91 0 140 -40.5t49 -115.5q0 -66 -49 -131t-179 -173h233v-90h-396z" />
<glyph horiz-adv-x="477" d="M14 21l28 87q75 -32 154 -32q109 0 109 83q0 41 -34.5 59t-114.5 18q-21 0 -55 -1v89q18 -2 45 -2q152 0 152 79q0 62 -95 62q-65 0 -145 -32l-25 84q98 35 188 35q198 0 198 -146q0 -48 -21 -76t-73 -47q101 -26 101 -125q0 -82 -57 -124.5t-166 -42.5q-108 0 -189 32z " />
<glyph horiz-adv-x="489" d="M278 0v132h-270v90l249 317h136v-323h83v-84h-83v-132h-115zM281 216v214l-165 -214h165z" />
<glyph horiz-adv-x="499" d="M33 27l36 89q81 -40 144 -40q55 0 86 26.5t31 73.5q0 83 -121 83q-57 0 -148 -24l12 304h355v-90h-243l-4 -110q37 7 68 7q202 0 202 -166q0 -95 -63 -146q-57 -45 -165 -45t-190 38z" />
<glyph horiz-adv-x="516" d="M439 540l-11 -85q-45 8 -71 8q-146 0 -183 -150q53 39 123 39q86 0 134 -45t48 -125q0 -91 -57 -142t-158 -51q-218 0 -218 231q0 177 100 266q72 64 197 64q32 0 96 -10zM265 269q-46 0 -73 -26t-27 -70q0 -46 26.5 -72.5t72.5 -26.5t72.5 26.5t26.5 71.5 q0 44 -26.5 70.5t-71.5 26.5z" />
<glyph horiz-adv-x="443" d="M171 0h-139l262 448h-284v91h415v-85z" />
<glyph horiz-adv-x="514" d="M143 282q-50 22 -71 49.5t-21 71.5q0 70 54 108.5t151 38.5q100 0 154 -38.5t54 -108.5q0 -42 -20 -68.5t-70 -49.5q56 -27 80 -58t24 -77q0 -76 -58.5 -118.5t-162.5 -42.5t-162.5 42t-58.5 117q0 47 25 78t82 56zM275 317l8 3q65 26 65 79q0 31 -24 49t-67 18 q-41 0 -65.5 -17.5t-24.5 -47.5q0 -55 108 -84zM248 242q-94 -24 -94 -90q0 -35 28 -56.5t75 -21.5q46 0 74.5 21t28.5 54q0 61 -112 93z" />
<glyph horiz-adv-x="516" d="M78 -1l10 85q40 -8 72 -8q146 0 182 150q-52 -39 -122 -39q-86 0 -134 45t-48 125q0 91 56.5 142t156.5 51q220 0 220 -231q0 -84 -26 -153.5t-74 -112.5q-73 -64 -197 -64q-37 0 -96 10zM253 465q-46 0 -72.5 -26.5t-26.5 -71.5t26.5 -71t71.5 -26t72.5 26.5t27.5 69.5 q0 46 -26.5 72.5t-72.5 26.5z" />
<glyph horiz-adv-x="538" d="M269 550q113 0 168 -69t55 -211q0 -143 -55 -212t-168 -69q-114 0 -168.5 69t-54.5 214q0 278 223 278zM269 463q-102 0 -102 -191q0 -196 102 -196t102 193q0 194 -102 194z" />
<glyph horiz-adv-x="502" d="M29 0v89h69q16 26 16 111v38h-77v81h77v28q0 66 9 99.5t33 57.5q45 45 144 45q89 0 178 -37l-32 -83q-70 32 -123 32q-51 0 -72 -27.5t-21 -92.5v-22h139v-81h-139v-38q0 -82 -11 -111h249v-89h-439z" />
<glyph horiz-adv-x="493" d="M214 -98v87q-86 4 -156 31l18 96q89 -40 151 -40q40 0 64 18.5t24 50.5q0 26 -19 42t-83 42q-80 33 -107 53q-47 35 -47 102q0 68 41 111.5t114 52.5v89h60v-87q77 -5 143 -31l-24 -93q-82 37 -136 37q-34 0 -55.5 -16.5t-21.5 -42.5q0 -23 19.5 -39t75.5 -39 q86 -35 115 -58q47 -36 47 -110q0 -72 -42 -115.5t-121 -51.5v-89h-60z" />
<glyph horiz-adv-x="471" d="M241 39v94q-86 10 -132 61t-46 139q0 90 46.5 145t131.5 64v95h60v-94q62 -5 117 -33l-36 -77q-42 30 -90 30q-52 0 -81 -33.5t-29 -92.5q0 -58 30.5 -91.5t83.5 -33.5q48 0 90 30l35 -77q-50 -30 -120 -34v-92h-60z" />
<glyph horiz-adv-x="454" d="M144 237h-77v81h89l9 52q14 92 36 126q33 54 118 54q49 0 116 -21l-24 -80q-35 13 -64 13q-28 0 -42 -21t-24 -80l-7 -43h109v-81h-121l-23 -143q-12 -73 -20.5 -101t-24.5 -47q-35 -41 -113 -41q-59 0 -112 19l21 83q40 -13 64 -13q31 0 44.5 23t25.5 97z" />
<glyph horiz-adv-x="553" d="M5 188l23 57h64q-1 8 -1 19q0 13 1 26h-87l23 57h71q55 203 260 203q95 0 171 -38l-34 -85q-68 36 -128 36q-57 0 -91.5 -27.5t-54.5 -88.5h242l-23 -57h-228q-1 -11 -1 -27q0 -11 1 -18h211l-23 -57h-178q25 -112 149 -112q67 0 133 33l28 -85q-76 -35 -173 -35 q-149 0 -215 86q-28 38 -46 113h-94z" />
<glyph horiz-adv-x="544" d="M214 0v145h-144v57h144v24l-13 20h-131v57h95l-162 236h142l130 -198l131 198h137l-163 -236h95v-57h-131l-13 -20v-24h144v-57h-144v-145h-117z" />
<glyph horiz-adv-x="762" d="M173 550q70 0 106.5 -40t36.5 -117q0 -76 -36.5 -116t-106.5 -40q-143 0 -143 158q0 75 36.5 115t106.5 40zM173 487q-27 0 -42 -24t-15 -68q0 -95 57 -95t57 93q0 94 -57 94zM218 -13l248 565h78l-247 -565h-79zM589 302q70 0 106.5 -40t36.5 -116q0 -77 -36.5 -117 t-106.5 -40q-143 0 -143 158q0 75 36.5 115t106.5 40zM589 239q-27 0 -42 -24t-15 -68q0 -95 57 -95t57 94q0 93 -57 93z" />
<glyph horiz-adv-x="1091" d="M173 550q70 0 106.5 -40t36.5 -117q0 -76 -36.5 -116t-106.5 -40q-143 0 -143 158q0 75 36.5 115t106.5 40zM173 487q-27 0 -42 -24t-15 -68q0 -95 57 -95t57 93q0 94 -57 94zM218 -13l248 565h78l-247 -565h-79zM589 302q70 0 106.5 -40t36.5 -116q0 -77 -36.5 -117 t-106.5 -40q-143 0 -143 158q0 75 36.5 115t106.5 40zM589 239q-27 0 -42 -24t-15 -68q0 -95 57 -95t57 94q0 93 -57 93zM918 302q70 0 106.5 -40t36.5 -116q0 -77 -36.5 -117t-106.5 -40q-142 0 -142 158q0 75 36.5 115t105.5 40zM919 239q-27 0 -42 -24t-15 -68 q0 -95 57 -95q56 0 56 94q0 93 -56 93z" />
<glyph d="M228 -33h131l-140 -150h-109z" />
</font>
</defs>
</svg>
