<?xml version="1.0" standalone="no"?>
<!DOCTYPE svg PUBLIC "-//W3C//DTD SVG 1.1//EN" "http://www.w3.org/Graphics/SVG/1.1/DTD/svg11.dtd" >
<svg xmlns="http://www.w3.org/2000/svg">
<metadata></metadata>
<defs>
<font id="siemens_slabregular" horiz-adv-x="500" >
<font-face units-per-em="1000" ascent="800" descent="-200" />
<missing-glyph horiz-adv-x="250" />
<glyph unicode="fi" horiz-adv-x="599" d="M114 57v389h-82v61h82v48q0 89 25 130q33 56 115 56q32 0 72 -10l-7 -66q-27 15 -58 15q-40 0 -55.5 -29t-15.5 -102v-42h159q59 0 149 5v-455l73 -3v-54h-222v54l73 3v389h-232v-389l73 -3v-54h-227v54zM460 741q24 0 39 -15t15 -39t-15 -39t-39 -15t-39 15t-15 40 q0 23 15.5 38t38.5 15z" />
<glyph unicode="fl" horiz-adv-x="593" d="M114 57v389h-82v61h82v28q0 112 43 159t145 47q85 0 190 -17v-667l73 -3v-54h-222v54l73 3v606q-67 17 -116 17q-63 0 -86.5 -32.5t-23.5 -118.5v-22h101v-61h-101v-389l73 -3v-54h-227v54z" />
<glyph unicode=" "  horiz-adv-x="250" />
<glyph unicode="&#x09;" horiz-adv-x="250" />
<glyph unicode="&#xa0;" horiz-adv-x="250" />
<glyph unicode="!" horiz-adv-x="310" d="M207 183h-64l-9 509h82zM175 108q25 0 42 -17t17 -42t-17 -42t-42 -17q-26 0 -42.5 17t-16.5 43q0 25 17 41.5t42 16.5z" />
<glyph unicode="&#x22;" horiz-adv-x="324" d="M55 505l-5 224h80l-5 -224h-70zM199 507l-5 224h80l-5 -224h-70z" />
<glyph unicode="#" horiz-adv-x="576" d="M115 0l29 207h-90v58h98l23 163h-89v58h97l29 206h60l-29 -206h128l29 206h60l-29 -206h90v-58h-98l-23 -163h89v-58h-97l-29 -207h-60l29 207h-128l-29 -207h-60zM212 265h128l23 163h-128z" />
<glyph unicode="$" horiz-adv-x="576" d="M70 30v146h71l8 -91q49 -29 105 -31v261q-88 36 -123 63q-62 49 -62 132t50.5 133t140.5 57v74h50v-72q76 -3 173 -40v-146h-71l-8 86q-37 30 -94 35v-255q85 -33 115 -52q76 -47 76 -141q0 -84 -51 -135t-146 -63v-76h-50v75q-39 0 -93 12t-91 28zM260 400v237 q-53 -7 -81.5 -36t-28.5 -77q0 -42 24.5 -69.5t85.5 -54.5zM304 296v-241q51 6 83.5 40t32.5 83q0 40 -21 63t-80 49z" />
<glyph unicode="%" horiz-adv-x="754" d="M178 698q72 0 106 -47.5t34 -148.5t-34 -148.5t-107 -47.5q-72 0 -106 48t-34 150q0 99 34.5 146.5t106.5 47.5zM178 652q-79 0 -79 -148q0 -152 79 -152q78 0 78 150t-78 150zM212 -20l273 732h59l-273 -732h-59zM577 386q72 0 106 -47.5t34 -148.5t-34 -148.5 t-107 -47.5q-72 0 -106 48t-34 150q0 99 34.5 146.5t106.5 47.5zM577 340q-79 0 -79 -148q0 -152 79 -152q78 0 78 150t-78 150z" />
<glyph unicode="&#x26;" horiz-adv-x="679" d="M539 0l-53 66q-47 -41 -94.5 -58.5t-110.5 -17.5q-99 0 -158 50.5t-59 135.5q0 93 71 150q29 24 82 49q-46 53 -65 91.5t-19 79.5q0 70 49 113t129 43q83 0 131 -40.5t48 -111.5q0 -89 -79 -142q-24 -17 -88 -45l163 -190q47 61 62 160l-58 3v54h198v-54l-67 -3 q-9 -64 -28.5 -112t-58.5 -102l53 -62l84 -3v-54h-132zM286 409l13 6q59 27 85 56t26 69q0 46 -26 71.5t-73 25.5q-45 0 -71.5 -25t-26.5 -66q0 -60 73 -137zM439 117l-186 215q-55 -31 -79.5 -65.5t-24.5 -82.5q0 -59 38.5 -93.5t103.5 -34.5q87 0 148 61z" />
<glyph unicode="'" horiz-adv-x="180" d="M55 507l-5 224h80l-5 -224h-70z" />
<glyph unicode="(" horiz-adv-x="360" d="M322 -113l-38 -42q-97 83 -153 206t-56 253t56 252.5t153 206.5l38 -42q-77 -74 -122 -187t-45 -230t45 -229t122 -188z" />
<glyph unicode=")" horiz-adv-x="360" d="M38 721l38 42q97 -83 153 -206t56 -253t-56 -252.5t-153 -206.5l-38 42q77 74 122 187t45 230t-45 229t-122 188z" />
<glyph unicode="*" horiz-adv-x="576" d="M98 564l24 74l139 -57l-12 150h78l-13 -150l140 57l24 -74l-144 -35l93 -108l-63 -46l-76 123l-76 -123l-63 46l93 108z" />
<glyph unicode="+" horiz-adv-x="576" d="M258 223h-223v60h223v224h60v-224h223v-60h-223v-223h-60v223z" />
<glyph unicode="," horiz-adv-x="288" d="M115 102h96l-86 -224h-79z" />
<glyph unicode="-" horiz-adv-x="311" d="M40 249v61h231v-61h-231z" />
<glyph unicode="." horiz-adv-x="288" d="M144 108q26 0 42.5 -17t16.5 -42t-16.5 -42t-42.5 -17t-42.5 17t-16.5 43q0 25 17 41.5t42 16.5z" />
<glyph unicode="/" horiz-adv-x="266" d="M30 -20l140 732h66l-140 -732h-66z" />
<glyph unicode="0" horiz-adv-x="576" d="M288 702q238 0 238 -356t-238 -356q-121 0 -179.5 88.5t-58.5 270.5q0 353 238 353zM288 636q-94 0 -132 -97q-25 -66 -25 -190q0 -154 36 -219q39 -74 121 -74q94 0 132 97q25 63 25 193q0 150 -36 216q-40 74 -121 74z" />
<glyph unicode="1" horiz-adv-x="576" d="M281 57v548l-141 -90l-34 61l183 116h69v-635l88 -3v-54h-253v54z" />
<glyph unicode="2" horiz-adv-x="576" d="M64 0v70q198 178 274 275.5t76 173.5q0 53 -41 86t-108 33q-79 0 -161 -52l-20 69q97 47 190 47q103 0 162 -47.5t59 -130.5q0 -67 -37.5 -133.5t-131.5 -164.5q-78 -84 -166 -160h341v-66h-437z" />
<glyph unicode="3" horiz-adv-x="576" d="M61 22l18 64q90 -32 162 -32q77 0 122.5 39t45.5 105q0 136 -218 136q-23 0 -39 -2v66q16 -2 42 -2q95 0 150.5 36t55.5 97q0 51 -38 80t-104 29q-72 0 -159 -34l-15 65q90 33 181 33q100 0 158 -44.5t58 -120.5q0 -68 -40 -112t-115 -59q79 -8 121.5 -52t42.5 -118 q0 -93 -67 -149.5t-178 -56.5q-88 0 -184 32z" />
<glyph unicode="4" horiz-adv-x="576" d="M346 57v142h-312v76l298 417h90v-427h107v-66h-107v-142l89 -3v-54h-253v54zM346 265v338l-239 -338h239z" />
<glyph unicode="5" horiz-adv-x="576" d="M72 34l30 65q78 -45 149 -45q77 0 125 48.5t48 125.5q0 68 -42 108t-114 40q-82 0 -177 -37l11 353h373v-66h-295l-8 -202q56 16 109 16q103 0 163.5 -58.5t60.5 -157.5q0 -104 -70 -169t-182 -65q-92 0 -181 44z" />
<glyph unicode="6" horiz-adv-x="576" d="M469 701l-4 -65q-19 2 -42 2q-235 0 -268 -281q63 80 167 80q91 0 147 -60t56 -158q0 -103 -63 -166t-165 -63q-112 0 -170.5 73t-58.5 213q0 108 32 199t90 146q84 81 234 81q14 0 45 -1zM302 373q-67 0 -108 -43.5t-41 -115.5q0 -74 39 -117t107 -43q67 0 106 43 t39 117q0 73 -38.5 116t-103.5 43z" />
<glyph unicode="7" horiz-adv-x="576" d="M133 626l-8 -110h-71v176h454v-66l-300 -626h-88l306 626h-293z" />
<glyph unicode="8" horiz-adv-x="576" d="M212 359q-73 32 -104 71.5t-31 98.5q0 79 57.5 126t154.5 47q98 0 155 -46.5t57 -125.5q0 -56 -27 -90.5t-100 -71.5q78 -32 112.5 -74.5t34.5 -106.5q0 -91 -62.5 -144t-170.5 -53q-106 0 -169.5 53t-63.5 141q0 67 38.5 109.5t118.5 65.5zM312 394l8 4q101 50 101 129 q0 52 -35.5 81.5t-97.5 29.5q-61 0 -96 -29t-35 -80q0 -44 33.5 -73.5t121.5 -61.5zM283 331q-76 -21 -111.5 -56t-35.5 -90q0 -58 42.5 -94.5t110.5 -36.5q67 0 109 34.5t42 89.5q0 50 -34 83.5t-123 69.5z" />
<glyph unicode="9" horiz-adv-x="576" d="M107 -9l4 65q19 -2 42 -2q235 0 268 281q-63 -80 -167 -80q-91 0 -147 60t-56 158q0 103 63 166t165 63q112 0 170.5 -73t58.5 -213q0 -108 -32 -199t-90 -146q-84 -81 -234 -81q-14 0 -45 1zM277 638q-67 0 -106 -43t-39 -117q0 -73 38.5 -116t103.5 -43q67 0 108 43.5 t41 115.5q0 74 -39 117t-107 43z" />
<glyph unicode=":" horiz-adv-x="288" d="M165 108q25 0 42 -17t17 -42t-17 -42t-42 -17q-26 0 -42.5 17t-16.5 43q0 25 17 41.5t42 16.5zM165 480q25 0 42 -17t17 -42t-17 -42t-42 -17q-26 0 -42.5 17t-16.5 43q0 25 17 41.5t42 16.5z" />
<glyph unicode=";" horiz-adv-x="288" d="M115 102h96l-86 -224h-79zM165 480q25 0 42 -17t17 -42t-17 -42t-42 -17q-26 0 -42.5 17t-16.5 43q0 25 17 41.5t42 16.5z" />
<glyph unicode="&#x3c;" horiz-adv-x="576" d="M112 254l426 -199v-65l-506 238v52l506 237v-65z" />
<glyph unicode="=" horiz-adv-x="576" d="M35 295v60h506v-60h-506zM35 151v60h506v-60h-506z" />
<glyph unicode="&#x3e;" horiz-adv-x="576" d="M464 254l-426 198v65l506 -237v-52l-506 -238v65z" />
<glyph unicode="?" horiz-adv-x="410" d="M218 180h-68v54q0 58 5 83.5t20.5 47.5t57.5 61q44 41 58 63.5t14 51.5q0 46 -27 74t-71 28q-55 0 -136 -47l-21 64q82 44 165 44q79 0 127 -44t48 -117q0 -41 -18.5 -73t-68.5 -79q-59 -55 -72 -75.5t-13 -58.5v-77zM185 108q25 0 42 -17t17 -42t-17 -42t-42 -17 q-26 0 -42.5 17t-16.5 43q0 25 17 41.5t42 16.5z" />
<glyph unicode="@" horiz-adv-x="830" d="M572 76l21 -49q-88 -37 -174 -37q-149 0 -252.5 104t-103.5 252q0 151 105 253.5t260 102.5q67 0 131.5 -21.5t110.5 -59.5q98 -81 98 -222q0 -117 -65 -185q-60 -63 -129 -63q-33 0 -53 19.5t-21 51.5q-52 -71 -132 -71q-62 0 -100 38.5t-38 101.5q0 48 21.5 95.5 t58.5 82.5q62 60 156 60q60 0 127 -22l-35 -220q-5 -30 -5 -45q0 -17 9 -27t24 -10q47 0 85.5 62t38.5 138q0 104 -80.5 173.5t-200.5 69.5q-129 0 -218.5 -87t-89.5 -213q0 -129 89 -216.5t220 -87.5q68 0 142 32zM495 305l27 166q-30 10 -55 10q-64 0 -113.5 -55 t-49.5 -127q0 -44 20.5 -69t57.5 -25q51 0 91 45q16 18 22 55z" />
<glyph unicode="A" horiz-adv-x="631" d="M442 242h-258l-65 -185l86 -3v-54h-237v54l70 3l226 635h101l228 -635l70 -3v-54h-242v54l86 3zM418 308l-62 182q-26 78 -42 134q-13 -43 -19 -62q0 -2 -24 -72l-63 -182h210z" />
<glyph unicode="B" horiz-adv-x="564" d="M108 57v578l-80 3v54h188q131 0 187 -23q44 -17 68 -58t24 -98q0 -71 -33.5 -109t-106.5 -51q159 -18 159 -169q0 -115 -88 -158q-33 -17 -65.5 -21.5t-115.5 -4.5h-217v54zM188 382h36q101 0 138 22q48 30 48 100q0 76 -48 102q-38 21 -138 21h-36v-245zM188 65h36 q116 0 152 20q53 27 53 108q0 84 -70 111q-39 16 -135 16h-36v-255z" />
<glyph unicode="C" horiz-adv-x="581" d="M533 93l20 -64q-96 -39 -182 -39q-143 0 -230 96.5t-87 253.5q0 164 86 263t229 99q77 0 168 -30v-156h-71l-8 105q-46 15 -90 15q-102 0 -165.5 -82t-63.5 -214q0 -130 63.5 -207t169.5 -77q78 0 161 37z" />
<glyph unicode="D" horiz-adv-x="674" d="M108 57v578l-80 3v54h235q88 0 140.5 -11t93.5 -38q123 -85 123 -293t-123 -296q-43 -30 -97.5 -42t-147.5 -12h-224v54zM188 66h70q123 0 183 44q94 69 94 235q0 89 -27.5 155t-77.5 96q-30 18 -66.5 24t-117.5 6h-58v-560z" />
<glyph unicode="E" horiz-adv-x="561" d="M108 57v578l-80 3v54h455v-176h-71l-8 110h-216v-242h197v-66h-197v-252h231l8 110h71v-176h-470v54z" />
<glyph unicode="F" horiz-adv-x="543" d="M108 57v578l-80 3v54h457v-176h-71l-8 110h-218v-242h213v-66h-213v-261l80 -3v-54h-240v54z" />
<glyph unicode="G" horiz-adv-x="677" d="M664 348v-54l-75 -3v-261q-102 -40 -210 -40q-147 0 -236 95t-89 252q0 165 90.5 265t239.5 100q103 0 205 -34v-152h-71l-7 101q-69 19 -122 19q-129 0 -193 -93q-57 -84 -57 -205q0 -129 67.5 -205.5t180.5 -76.5q61 0 122 22v213l-92 3v54h247z" />
<glyph unicode="H" horiz-adv-x="709" d="M108 57v578l-80 3v54h240v-54l-80 -3v-248h333v248l-80 3v54h240v-54l-80 -3v-578l80 -3v-54h-240v54l80 3v264h-333v-264l80 -3v-54h-240v54z" />
<glyph unicode="I" horiz-adv-x="296" d="M108 57v578l-80 3v54h240v-54l-80 -3v-578l80 -3v-54h-240v54z" />
<glyph unicode="J" horiz-adv-x="398" d="M296 635v-409q0 -74 -7 -112t-26 -63q-43 -61 -142 -61q-58 0 -109 20l7 66q46 -20 94 -20q72 0 90 49q13 34 13 156v374l-90 3v54h244v-54z" />
<glyph unicode="K" horiz-adv-x="616" d="M108 57v578l-80 3v54h240v-54l-80 -3v-273l251 273l-73 3v54h230v-54l-59 -3l-251 -273l257 -305l65 -3v-54h-245v54l76 2l-251 301v-300l80 -3v-54h-240v54z" />
<glyph unicode="L" horiz-adv-x="520" d="M108 57v578l-80 3v54h248v-54l-88 -3v-569h231l8 110h71v-176h-470v54z" />
<glyph unicode="M" horiz-adv-x="888" d="M108 57v578l-80 3v54h191l196 -524q21 -57 34 -96q8 27 33 97l191 523h187v-54l-80 -3v-578l80 -3v-54h-234v54l74 3v519q-36 -113 -59 -176l-149 -400h-93l-153 395q-24 65 -62 181v-519l74 -3v-54h-230v54z" />
<glyph unicode="N" horiz-adv-x="726" d="M108 57v578l-80 3v54h172l267 -441q35 -58 77 -137l-1 27q-1 7 -1 19v56v419l-80 3v54h236v-54l-80 -3v-635h-93l-269 445q-36 59 -74 132q2 -49 2 -130v-390l80 -3v-54h-236v54z" />
<glyph unicode="O" horiz-adv-x="720" d="M360 702q150 0 232 -112q74 -102 74 -244q0 -168 -97 -271q-76 -85 -209 -85q-150 0 -232 112q-74 101 -74 248q0 76 25.5 147.5t70.5 120.5q78 84 210 84zM360 636q-101 0 -161 -77.5t-60 -209.5q0 -136 59 -214.5t162 -78.5q102 0 161.5 78t59.5 212t-59.5 212 t-161.5 78z" />
<glyph unicode="P" horiz-adv-x="531" d="M108 57v578l-80 3v54h214q125 0 181 -37q80 -50 80 -165q0 -56 -24 -100t-67 -66q-61 -32 -180 -32h-44v-235l92 -3v-54h-252v54zM188 358h33q102 0 141 21q56 29 56 111q0 75 -49 109q-38 27 -136 27h-45v-268z" />
<glyph unicode="Q" horiz-adv-x="720" d="M600 -123l-42 -48q-100 63 -208 161q-107 6 -174 60q-56 47 -89 126.5t-33 169.5q0 168 97 271q76 85 209 85q151 0 232 -112q74 -102 74 -244q0 -166 -97 -271q-48 -53 -121 -74q69 -65 152 -124zM360 636q-101 0 -161 -77.5t-60 -209.5q0 -136 59 -214.5t162 -78.5 q102 0 161.5 78t59.5 212t-59.5 212t-161.5 78z" />
<glyph unicode="R" horiz-adv-x="560" d="M108 57v578l-80 3v54h227q108 0 163 -31q81 -48 81 -151q0 -68 -38 -113t-109 -61q41 -13 58.5 -34t46.5 -92l62 -153l68 -3v-54h-130l-73 173q-38 90 -66.5 112t-105.5 22h-24v-250l80 -3v-54h-240v54zM188 373h37q83 0 124 20q65 29 65 109q0 75 -56 105 q-38 19 -121 19h-49v-253z" />
<glyph unicode="S" horiz-adv-x="542" d="M57 32v144h71l8 -92q58 -28 121 -28q66 0 107 34t41 89q0 48 -33 76q-29 23 -121 58q-106 41 -141 68q-56 44 -56 129q0 91 59.5 141.5t165.5 50.5q83 0 182 -36v-150h-71l-7 94q-52 26 -106 26q-66 0 -103 -30.5t-37 -84.5q0 -46 27 -71t114 -60q77 -30 105 -44t51 -32 q54 -42 54 -126q0 -91 -64 -144.5t-173 -53.5q-98 0 -194 42z" />
<glyph unicode="T" horiz-adv-x="550" d="M233 57v569h-150l-9 -110h-70v176h542v-176h-71l-8 110h-154v-569l110 -3v-54h-300v54z" />
<glyph unicode="U" horiz-adv-x="701" d="M182 635v-363q0 -119 38 -167.5t130 -48.5q91 0 132 48t41 153v378l-80 3v54h236v-54l-80 -3v-330q0 -108 -8 -152t-34 -78q-64 -85 -207 -85q-160 0 -218 103q-18 32 -24 74t-6 138v330l-80 3v54h240v-54z" />
<glyph unicode="V" horiz-adv-x="602" d="M248 0l-221 635l-68 3v54h240v-54l-84 -3l142 -417q31 -94 46 -148q20 68 51 158l139 407l-84 3v54h233v-54l-69 -3l-221 -635h-104z" />
<glyph unicode="W" horiz-adv-x="867" d="M193 0l-142 635l-69 3v54h231v-54l-79 -3l87 -411q15 -72 28 -149q10 60 30 150l105 467h101l106 -464q20 -87 30 -148q9 56 29 146l89 409l-79 3v54h225v-54l-69 -3l-144 -635h-102l-107 462q-18 80 -30 151q-8 -48 -31 -151l-106 -462h-103z" />
<glyph unicode="X" horiz-adv-x="623" d="M-11 0v54l63 3l208 303l-183 275l-69 3v54h236v-54l-74 -3l145 -217l145 217l-74 3v54h231v-54l-69 -3l-188 -283l197 -295l71 -3v-54h-240v54l74 3l-158 237l-160 -237l81 -3v-54h-236z" />
<glyph unicode="Y" horiz-adv-x="568" d="M244 57v255l-206 323l-67 3v54h240v-54l-79 -3l108 -173q29 -47 47 -81q23 41 49 84l106 170l-78 3v54h233v-54l-67 -3l-206 -323v-255l88 -3v-54h-256v54z" />
<glyph unicode="Z" horiz-adv-x="584" d="M42 0v66l392 560h-301l-8 -110h-71v176h471v-66l-390 -560h322l9 110h70v-176h-494z" />
<glyph unicode="[" horiz-adv-x="360" d="M112 -155v908h166v-61h-90v-786h90v-61h-166z" />
<glyph unicode="\" horiz-adv-x="266" d="M170 -20l-140 732h66l140 -732h-66z" />
<glyph unicode="]" horiz-adv-x="360" d="M248 753v-908h-166v61h90v786h-90v61h166z" />
<glyph unicode="^" horiz-adv-x="576" d="M288 620l-190 -366h-64l230 438h49l230 -438h-64z" />
<glyph unicode="_" d="M-16 -215v61h532v-61h-532z" />
<glyph unicode="`" d="M222 731l122 -146h-73l-146 146h97z" />
<glyph unicode="a" horiz-adv-x="517" d="M353 0l-3 59q-65 -69 -151 -69q-74 0 -116.5 40t-42.5 110q0 102 88 144q51 23 143 23q31 0 73 -2v14q0 72 -27 104.5t-88 32.5t-131 -44l-33 54q80 51 172 51q117 0 158 -69q15 -24 20 -55.5t5 -100.5v-235l73 -3v-54h-140zM344 129v118q-22 2 -57 2q-86 0 -126.5 -26 t-40.5 -82q0 -41 25 -65.5t67 -24.5q80 0 132 78z" />
<glyph unicode="b" horiz-adv-x="572" d="M97 57v617l-73 3v54l149 5v-299q59 80 149 80q88 0 144 -72.5t56 -187.5q0 -120 -56 -193.5t-148 -73.5q-48 0 -80 18.5t-71 68.5v-77h-143v54zM173 361v-215q32 -51 63 -73t70 -22q63 0 99.5 55t36.5 149q0 93 -36.5 147t-98.5 54q-86 0 -134 -95z" />
<glyph unicode="c" horiz-adv-x="482" d="M433 490v-138h-71l-8 92q-40 12 -74 12q-72 0 -111 -51.5t-39 -146.5q0 -97 42 -152t116 -55q67 0 129 45l29 -59q-73 -47 -159 -47q-111 0 -174 69t-63 190q0 136 72 208q60 60 162 60q79 0 149 -27z" />
<glyph unicode="d" horiz-adv-x="574" d="M405 0v77q-39 -50 -71 -68.5t-81 -18.5q-91 0 -147 73.5t-56 193.5q0 115 56 187.5t144 72.5q90 0 149 -80v237l-73 3v54l149 5v-679l73 -3v-54h-143zM399 146v215q-48 95 -134 95q-62 0 -98.5 -54t-36.5 -147q0 -94 36.5 -149t99.5 -55q39 0 70 22t63 73z" />
<glyph unicode="e" horiz-adv-x="530" d="M480 233h-350q9 -94 48.5 -138t114.5 -44q71 0 139 48l29 -59q-79 -50 -169 -50q-113 0 -177.5 70t-64.5 193t59 193.5t162 70.5q135 0 181 -111q27 -61 28 -173zM132 294h267q-2 79 -36 120.5t-95 41.5t-97 -43t-39 -119z" />
<glyph unicode="f" horiz-adv-x="347" d="M114 57v389h-82v61h82v48q0 89 25 130q33 56 115 56q32 0 72 -10l-7 -66q-27 15 -58 15q-40 0 -55.5 -29t-15.5 -102v-42h120v-61h-120v-389l93 -3v-54h-247v54z" />
<glyph unicode="g" horiz-adv-x="574" d="M476 450v-396q0 -83 -8.5 -124t-32.5 -73q-59 -82 -177 -82q-100 0 -191 55l32 59q77 -53 158 -53q92 0 125 76q18 41 18 135v42q-71 -80 -155 -80q-88 0 -142 69t-54 181q0 117 54 187.5t144 70.5q96 0 157 -88v83l146 -5v-54zM400 159v199q-52 98 -137 98 q-61 0 -97.5 -53.5t-36.5 -142.5q0 -86 37.5 -138t99.5 -52q82 0 134 89z" />
<glyph unicode="h" horiz-adv-x="609" d="M101 57v617l-73 3v54l149 5v-307q48 47 90 67.5t91 20.5q106 0 138 -86q16 -40 16 -127v-247l73 -3v-54h-222v54l73 3v247q0 74 -14 102q-22 50 -85 50q-82 0 -160 -95v-304l73 -3v-54h-222v54z" />
<glyph unicode="i" horiz-adv-x="278" d="M101 57v393l-73 3v54l149 5v-455l73 -3v-54h-222v54zM139 741q24 0 39 -15t15 -39t-15 -39t-39 -15t-39 15t-15 40q0 23 15.5 38t38.5 15z" />
<glyph unicode="j" horiz-adv-x="278" d="M181 512v-522q0 -120 -19 -153q-36 -62 -124 -62q-30 0 -58 7l9 64q25 -7 43 -7q39 0 56 22.5t17 73.5v515l-85 3v54zM143 741q24 0 39 -15t15 -39t-15 -39t-39 -15t-39 15t-15 40q0 23 15.5 38t38.5 15z" />
<glyph unicode="k" horiz-adv-x="512" d="M101 57v617l-73 3v54l149 5v-448l171 162l-64 3v54h210v-54l-57 -3l-180 -168l188 -225l61 -3v-54h-200v54l46 2l-175 211v-210l73 -3v-54h-222v54z" />
<glyph unicode="l" horiz-adv-x="278" d="M101 57v617l-73 3v54l149 5v-679l73 -3v-54h-222v54z" />
<glyph unicode="m" horiz-adv-x="898" d="M101 57v393l-73 3v54l147 5v-85q47 49 86 69.5t85 20.5q107 0 133 -100q46 53 87.5 76.5t91.5 23.5q98 0 129 -86q14 -39 14 -127v-247l73 -3v-54h-222v54l73 3v247q0 72 -12 102q-20 50 -75 50q-75 0 -149 -95v-304l73 -3v-54h-222v54l73 3v247q0 72 -12 102 q-20 50 -75 50q-75 0 -149 -95v-304l73 -3v-54h-222v54z" />
<glyph unicode="n" horiz-adv-x="609" d="M101 57v393l-73 3v54l147 5v-85q50 49 91.5 69.5t91.5 20.5q106 0 138 -86q16 -40 16 -127v-247l73 -3v-54h-222v54l73 3v247q0 74 -14 102q-22 50 -85 50q-82 0 -160 -95v-304l73 -3v-54h-222v54z" />
<glyph unicode="o" horiz-adv-x="567" d="M284 517q104 0 168.5 -73t64.5 -191t-64.5 -190.5t-169.5 -72.5t-169 73t-64 194q0 115 65 187.5t169 72.5zM283 456q-69 0 -111 -55t-42 -146q0 -93 41.5 -148.5t111.5 -55.5t112 55t42 147t-42 147.5t-112 55.5z" />
<glyph unicode="p" horiz-adv-x="576" d="M101 -158v608l-73 3v54l143 5v-82q64 87 155 87q88 0 144 -72.5t56 -187.5q0 -120 -56 -193.5t-148 -73.5q-46 0 -78 17.5t-67 61.5v-227l83 -3v-54h-232v54zM177 363v-217q35 -52 64.5 -73.5t68.5 -21.5q63 0 99.5 55t36.5 149q0 93 -36.5 147t-98.5 54q-79 0 -134 -93z " />
<glyph unicode="q" horiz-adv-x="576" d="M399 -158v227q-35 -44 -67 -61.5t-79 -17.5q-91 0 -147 73.5t-56 193.5q0 115 56 187.5t144 72.5q91 0 155 -87v82l143 -5v-54l-73 -3v-608l73 -3v-54h-238v54zM399 146v217q-55 93 -134 93q-62 0 -98.5 -54t-36.5 -147q0 -94 36.5 -149t99.5 -55q39 0 68.5 21.5 t64.5 73.5z" />
<glyph unicode="r" horiz-adv-x="368" d="M101 57v393l-73 3v54l144 5v-86q47 91 137 91q19 0 39 -5l-4 -67q-16 4 -30 4q-93 0 -137 -119v-273l83 -3v-54h-232v54z" />
<glyph unicode="s" horiz-adv-x="461" d="M55 26v131h71l8 -87q39 -19 89 -19q54 0 84 21.5t30 61.5q0 35 -24 53q-15 10 -98 35q-87 26 -119 49q-45 31 -45 97q0 71 49 110t137 39q77 0 154 -32v-133h-71l-7 89q-34 15 -75 15q-53 0 -81.5 -21t-28.5 -59q0 -39 33 -58q26 -14 92 -32q66 -20 90 -30.5t42 -29.5 q30 -30 30 -84q0 -73 -51.5 -112.5t-145.5 -39.5q-85 0 -163 36z" />
<glyph unicode="t" horiz-adv-x="353" d="M110 446h-82v61h82v111l76 16v-127h120v-61h-120v-277q0 -67 15 -92.5t53 -25.5q27 0 59 16l7 -61q-44 -16 -82 -16q-70 0 -99 37t-29 127v292z" />
<glyph unicode="u" horiz-adv-x="599" d="M433 0v79q-49 -48 -91.5 -68.5t-92.5 -20.5q-105 0 -137 86q-15 41 -15 131v243l-73 3v54l149 5v-309q0 -73 13 -102q23 -50 83 -50q80 0 157 88v311l-73 3v54l149 5v-455l73 -3v-54h-142z" />
<glyph unicode="v" horiz-adv-x="507" d="M206 0l-162 450l-58 3v54h219v-54l-81 -3l104 -286q17 -45 32 -96q16 51 31 93l102 289l-81 3v54h209v-54l-58 -3l-160 -450h-97z" />
<glyph unicode="w" horiz-adv-x="795" d="M171 0l-123 450l-58 3v54h215v-54l-80 -3l69 -260q4 -16 8 -31.5t6 -24t3 -11.5q7 -27 14 -58q2 9 5 19.5t4.5 17.5t3.5 15q5 14 8 29q5 15 13 47l89 314h99l91 -307l20 -67l5 -19l13 -49q11 45 13 53l5 17l16 60l69 255l-80 3v54h206v-54l-58 -3l-126 -450h-96l-97 324 q-23 76 -35 120q-4 -15 -7 -27.5t-4.5 -18t-2.5 -10.5q-5 -15 -20 -70l-91 -318h-97z" />
<glyph unicode="x" horiz-adv-x="522" d="M8 0v54l52 3l153 210l-132 183l-54 3v54h202v-54l-58 -3l94 -131l94 131l-58 3v54h194v-54l-55 -3l-136 -186l150 -207l52 -3v-54h-211v54l70 2l-112 156l-109 -155l69 -3v-54h-205z" />
<glyph unicode="y" horiz-adv-x="497" d="M216 -7l-178 457l-58 3v54h220v-54l-81 -3l94 -246q22 -60 41 -116q24 70 43 119l91 243l-81 3v54h210v-54l-58 -3l-185 -493q-38 -103 -78.5 -142.5t-106.5 -39.5q-35 0 -75 10l14 62q30 -11 56 -11q46 0 76.5 36.5t55.5 120.5z" />
<glyph unicode="z" horiz-adv-x="494" d="M38 0v57l305 389h-213l-8 -94h-71v155h385v-61l-304 -385h237l8 96h71v-157h-410z" />
<glyph unicode="{" horiz-adv-x="360" d="M57 270v58q54 4 70.5 26t16.5 92v139q0 100 28.5 134t111.5 34h35v-58h-35q-40 0 -53 -21q-7 -12 -9 -25.5t-2 -54.5v-164q0 -69 -16.5 -95t-66.5 -36q50 -10 66.5 -36t16.5 -95v-164q0 -62 11 -80q13 -21 53 -21h35v-58h-35q-83 0 -111.5 34t-28.5 134v139 q0 70 -16.5 92t-70.5 26z" />
<glyph unicode="|" horiz-adv-x="288" d="M104 -215v907h80v-907h-80z" />
<glyph unicode="}" horiz-adv-x="360" d="M303 328v-58q-54 -4 -70.5 -26t-16.5 -92v-139q0 -100 -28.5 -134t-111.5 -34h-35v58h35q39 0 53 21q7 11 9 25t2 55v164q0 69 16.5 95t66.5 36q-50 10 -66.5 36t-16.5 95v164q0 59 -9 77q-11 24 -55 24h-35v58h35q83 0 111.5 -34t28.5 -134v-139q0 -70 16.5 -92 t70.5 -26z" />
<glyph unicode="~" horiz-adv-x="576" d="M80 190l-45 36q40 55 73 78t72 23q41 0 118 -45q41 -25 57 -31.5t34 -6.5q26 0 47.5 13.5t51.5 50.5l8 10l45 -38q-74 -101 -146 -101q-43 0 -116 45q-39 23 -57.5 30.5t-39.5 7.5q-26 0 -46.5 -14.5t-55.5 -57.5z" />
<glyph unicode="&#xa1;" horiz-adv-x="310" d="M143 324h64l9 -464h-82zM175 517q26 0 42.5 -17t16.5 -43q0 -25 -17 -41.5t-42 -16.5t-42 16.5t-17 42.5t17 42.5t42 16.5z" />
<glyph unicode="&#xa2;" horiz-adv-x="576" d="M497 664v-135h-71l-7 90q-32 13 -69 18v-402q63 7 121 44l29 -59q-64 -40 -150 -46v-73h-50v73q-100 9 -155 76.5t-55 182.5q0 118 54.5 187.5t155.5 78.5v75h50v-75q75 -6 147 -35zM300 236v402q-130 -20 -130 -197q0 -181 130 -205z" />
<glyph unicode="&#xa3;" horiz-adv-x="576" d="M52 0v64h72q17 25 22.5 60.5t5.5 127.5v77h-90v58h90v69q0 77 9.5 115t36.5 68q57 63 170 63q75 0 158 -29v-157h-71l-8 108q-40 12 -78 12q-87 0 -118 -61q-19 -37 -19 -128v-60h171v-58h-171v-77q0 -100 -4.5 -131.5t-21.5 -56.5h241l8 112h71v-176h-474z" />
<glyph unicode="&#xa4;" horiz-adv-x="576" d="M73 95l-40 40l60 60q-49 66 -49 155q0 87 49 155l-60 60l40 39l59 -59q64 52 156 52q91 0 155 -52l59 59l40 -39l-60 -60q49 -68 49 -155q0 -89 -49 -155l60 -60l-40 -40l-59 59q-64 -52 -155 -52q-92 0 -156 52zM288 544q-82 0 -133 -53.5t-51 -138.5q0 -89 52 -144 q52 -53 132 -53q82 0 132.5 53.5t50.5 141.5q0 87 -50.5 140.5t-132.5 53.5z" />
<glyph unicode="&#xa5;" horiz-adv-x="576" d="M248 57v135h-156v51h156v56l-7 13h-149v51h123l-173 272l-73 3v54h240v-54l-74 -3l157 -248l156 248l-81 3v54h240v-54l-73 -3l-173 -272h124v-51h-150l-7 -13v-56h157v-51h-157v-135l79 -3v-54h-240v54z" />
<glyph unicode="&#xa6;" horiz-adv-x="288" d="M104 420v272h80v-272h-80zM104 0v272h80v-272h-80z" />
<glyph unicode="&#xa7;" horiz-adv-x="576" d="M105 -117v147h71l8 -99q25 -21 79 -21q56 0 87 25t31 70q0 42 -28 65q-25 21 -104 55q-85 36 -116.5 67.5t-31.5 81.5q0 75 87 141q-39 26 -54.5 54t-15.5 72q0 76 50.5 118.5t140.5 42.5q72 0 150 -34v-142h-71l-8 94q-39 16 -72 16q-48 0 -76.5 -24t-28.5 -64 q0 -42 32 -65q16 -12 31.5 -19.5t72.5 -30.5q78 -33 108 -65t30 -82q0 -78 -84 -143q39 -22 56 -52.5t17 -77.5q0 -80 -52.5 -124.5t-148.5 -44.5q-88 0 -160 39zM260 378l-24 10q-55 -44 -55 -94q0 -36 32.5 -60.5t131.5 -63.5q52 55 52 95t-41 69q-18 13 -96 44z" />
<glyph unicode="&#xa8;" d="M155 710q23 0 37.5 -14.5t14.5 -37.5t-14.5 -37.5t-37.5 -14.5t-37.5 15t-14.5 39q0 22 14.5 36t37.5 14zM345 710q23 0 37.5 -14.5t14.5 -37.5t-14.5 -37.5t-37.5 -14.5t-37.5 15t-14.5 39q0 22 14.5 36t37.5 14z" />
<glyph unicode="&#xa9;" horiz-adv-x="800" d="M524 509v-98h-49l-7 64q-19 11 -50 11q-55 0 -88.5 -38.5t-33.5 -100.5q0 -63 35 -100.5t94 -37.5q43 0 89 23l12 -46q-42 -24 -107 -24q-84 0 -134.5 50t-50.5 133q0 85 50 136t134 51q51 0 106 -23zM400 702q154 0 255 -101t101 -255t-100.5 -255t-254.5 -101 q-157 0 -257 101.5t-100 259.5q0 150 102 250.5t254 100.5zM400 672q-136 0 -227 -92t-91 -230q0 -145 89.5 -237.5t229.5 -92.5q137 0 227 92.5t90 233.5t-90 233.5t-228 92.5z" />
<glyph unicode="&#xaa;" horiz-adv-x="360" d="M230 412l-2 28q-35 -34 -82 -34q-42 0 -66 22.5t-24 62.5q0 94 132 94q6 0 28 -1l10 -1v12q0 59 -55 59q-35 0 -81 -26l-17 42q53 28 104 28q73 0 96 -44q11 -23 11 -87v-114l38 -2v-39h-92zM226 489v54q-10 1 -24 1q-87 0 -87 -51q0 -18 12.5 -29.5t31.5 -11.5 q39 0 67 37z" />
<glyph unicode="&#xab;" horiz-adv-x="480" d="M321 249l117 -172l-52 -35l-155 207l155 208l52 -36zM123 249l118 -172l-52 -35l-156 207l156 208l52 -36z" />
<glyph unicode="&#xac;" horiz-adv-x="576" d="M452 98v222h-417v60h485v-282h-68z" />
<glyph unicode="&#xad;" horiz-adv-x="311" d="M40 249v61h231v-61h-231z" />
<glyph unicode="&#xae;" horiz-adv-x="600" d="M268 392l38 -3v-30h-130v30l40 3v206l-40 3v30h123q50 0 72 -13q34 -19 34 -60q0 -48 -54 -65q17 -9 31 -40l28 -61l30 -3v-30h-70l-33 72q-14 31 -25.5 40t-35.5 9h-8v-88zM268 513h10q73 0 73 42q0 43 -66 43h-17v-85zM300 754q112 0 185.5 -73t73.5 -186 q0 -112 -73.5 -185.5t-184.5 -73.5q-114 0 -187 74t-73 189q0 109 74 182t185 73zM300 724q-95 0 -158 -64.5t-63 -161.5q0 -102 62 -167t160 -65q95 0 157.5 65t62.5 164t-62.5 164t-158.5 65z" />
<glyph unicode="&#xaf;" d="M105 626v58h291v-58h-291z" />
<glyph unicode="&#xb0;" horiz-adv-x="332" d="M166 702q64 0 105 -40t41 -103q0 -64 -40.5 -104t-105.5 -40t-105.5 40.5t-40.5 105.5q0 62 41 101.5t105 39.5zM166 665q-46 0 -74.5 -29t-28.5 -76q0 -50 28 -79t75 -29t75 29t28 77q0 49 -28 78t-75 29z" />
<glyph unicode="&#xb1;" horiz-adv-x="576" d="M35 301v60h223v146h60v-146h223v-60h-223v-145h-60v145h-223zM35 0v60h506v-60h-506z" />
<glyph unicode="&#xb2;" horiz-adv-x="360" d="M47 312v46q109 95 151.5 146.5t42.5 91.5q0 25 -19.5 40.5t-50.5 15.5q-43 0 -98 -34l-19 47q66 33 122 33q58 0 92.5 -26.5t34.5 -70.5q0 -34 -17 -66.5t-58 -77.5q-52 -55 -104 -99h182v-46h-259z" />
<glyph unicode="&#xb3;" horiz-adv-x="360" d="M45 325l13 48q57 -19 97 -19q37 0 61 19.5t24 49.5q0 31 -29.5 49.5t-79.5 18.5q-13 0 -34 -3v48q15 -2 33 -2q46 0 75.5 18.5t29.5 47.5q0 23 -19.5 37.5t-51.5 14.5q-37 0 -93 -21l-13 47q54 20 113 20t92.5 -25t33.5 -69q0 -65 -74 -90q79 -20 79 -94q0 -51 -39 -82.5 t-103 -31.5q-49 0 -115 19z" />
<glyph unicode="&#xb4;" d="M288 731h97l-146 -146h-73z" />
<glyph unicode="&#xb5;" horiz-adv-x="576" d="M83 -215v665l-73 3v54l149 5v-288q0 -91 21 -125q30 -47 93 -47q38 0 71 20.5t70 69.5v308l-73 3v54l149 5v-455l71 -3v-54h-141v79q-79 -89 -171 -89q-60 0 -90 48v-253h-76z" />
<glyph unicode="&#xb6;" horiz-adv-x="660" d="M254 -118v423q-91 0 -147.5 53.5t-56.5 139.5q0 54 24.5 99t67.5 69q28 15 59 20.5t92 5.5h317v-54l-80 -3v-753h-76v744h-124v-744h-76z" />
<glyph unicode="&#xb7;" horiz-adv-x="288" d="M144 338q26 0 42.5 -17t16.5 -42t-16.5 -42t-42.5 -17t-42.5 17t-16.5 43q0 25 17 41.5t42 16.5z" />
<glyph unicode="&#xb8;" d="M258 -34h91l-135 -147h-74z" />
<glyph unicode="&#xb9;" horiz-adv-x="360" d="M171 354v279l-80 -47l-23 41l108 65h52v-338l58 -3v-39h-175v39z" />
<glyph unicode="&#xba;" horiz-adv-x="360" d="M180 698q61 0 96.5 -39.5t35.5 -106.5t-35.5 -106.5t-96.5 -39.5t-96.5 40t-35.5 108q0 66 36 105t96 39zM180 652q-32 0 -52.5 -28t-20.5 -71q0 -44 20.5 -72.5t52.5 -28.5q31 0 52 28.5t21 72.5q0 43 -20.5 71t-52.5 28z" />
<glyph unicode="&#xbb;" horiz-adv-x="480" d="M159 249l-117 172l52 36l156 -208l-156 -207l-52 35zM357 249l-117 172l52 36l155 -208l-155 -207l-52 35z" />
<glyph unicode="&#xbc;" horiz-adv-x="800" d="M154 354v279l-80 -47l-23 41l108 65h52v-338l58 -3v-39h-175v39zM234 -20l273 732h59l-273 -732h-59zM628 0v98h-175v54l169 228h66v-236h60v-46h-60v-98h-60zM630 144v166l-121 -166h121z" />
<glyph unicode="&#xbd;" horiz-adv-x="800" d="M154 354v279l-80 -47l-23 41l108 65h52v-338l58 -3v-39h-175v39zM217 -20l273 732h59l-273 -732h-59zM470 0v46q109 95 151.5 146.5t42.5 91.5q0 25 -19.5 40.5t-50.5 15.5q-43 0 -98 -34l-19 47q66 33 122 33q58 0 92.5 -26.5t34.5 -70.5q0 -34 -17 -66.5t-58 -77.5 q-52 -55 -104 -99h182v-46h-259z" />
<glyph unicode="&#xbe;" horiz-adv-x="800" d="M52 325l13 48q57 -19 97 -19q37 0 61 19.5t24 49.5q0 31 -29.5 49.5t-79.5 18.5q-13 0 -34 -3v48q15 -2 33 -2q46 0 75.5 18.5t29.5 47.5q0 23 -19.5 37.5t-51.5 14.5q-37 0 -93 -21l-13 47q54 20 113 20t92.5 -25t33.5 -69q0 -65 -74 -90q79 -20 79 -94q0 -51 -39 -82.5 t-103 -31.5q-49 0 -115 19zM244 -20l273 732h59l-273 -732h-59zM633 0v98h-175v54l169 228h66v-236h60v-46h-60v-98h-60zM635 144v166l-121 -166h121z" />
<glyph unicode="&#xbf;" horiz-adv-x="410" d="M192 327h68v-29q0 -58 -5 -83.5t-20.5 -47.5t-57.5 -61q-43 -40 -57.5 -62.5t-14.5 -50.5q0 -38 27 -61t70 -23q56 0 137 47l21 -64q-82 -44 -166 -44q-79 0 -126.5 39t-47.5 104q0 39 18.5 71t68.5 79q59 54 72 74.5t13 59.5v52zM225 517q26 0 42.5 -17t16.5 -43 q0 -25 -17 -41.5t-42 -16.5t-42 16.5t-17 42.5t17 42.5t42 16.5z" />
<glyph unicode="&#xc0;" horiz-adv-x="631" d="M442 242h-258l-65 -185l86 -3v-54h-237v54l70 3l226 635h101l228 -635l70 -3v-54h-242v54l86 3zM418 308l-62 182q-26 78 -42 134q-13 -43 -19 -62q0 -2 -24 -72l-63 -182h210zM261 901l122 -146h-73l-146 146h97z" />
<glyph unicode="&#xc1;" horiz-adv-x="631" d="M442 242h-258l-65 -185l86 -3v-54h-237v54l70 3l226 635h101l228 -635l70 -3v-54h-242v54l86 3zM418 308l-62 182q-26 78 -42 134q-13 -43 -19 -62q0 -2 -24 -72l-63 -182h210zM374 901h97l-146 -146h-73z" />
<glyph unicode="&#xc2;" horiz-adv-x="631" d="M442 242h-258l-65 -185l86 -3v-54h-237v54l70 3l226 635h101l228 -635l70 -3v-54h-242v54l86 3zM418 308l-62 182q-26 78 -42 134q-13 -43 -19 -62q0 -2 -24 -72l-63 -182h210zM316 853l-73 -98h-73l100 146h92l100 -146h-73z" />
<glyph unicode="&#xc3;" horiz-adv-x="631" d="M442 242h-258l-65 -185l86 -3v-54h-237v54l70 3l226 635h101l228 -635l70 -3v-54h-242v54l86 3zM418 308l-62 182q-26 78 -42 134q-13 -43 -19 -62q0 -2 -24 -72l-63 -182h210zM200 774h-52q6 48 31 75t63 27q34 0 89 -21q39 -15 57 -15q40 0 45 42h51q-12 -103 -94 -103 q-31 0 -85 20q-42 16 -62 16q-30 0 -43 -41z" />
<glyph unicode="&#xc4;" horiz-adv-x="631" d="M442 242h-258l-65 -185l86 -3v-54h-237v54l70 3l226 635h101l228 -635l70 -3v-54h-242v54l86 3zM418 308l-62 182q-26 78 -42 134q-13 -43 -19 -62q0 -2 -24 -72l-63 -182h210zM221 880q23 0 37.5 -14.5t14.5 -37.5t-14.5 -37.5t-37.5 -14.5t-37.5 15t-14.5 39 q0 22 14.5 36t37.5 14zM411 880q23 0 37.5 -14.5t14.5 -37.5t-14.5 -37.5t-37.5 -14.5t-37.5 15t-14.5 39q0 22 14.5 36t37.5 14z" />
<glyph unicode="&#xc5;" horiz-adv-x="631" d="M38 57l227 637q-49 28 -49 86q0 42 29 71t71 29q41 0 70 -29t29 -71q0 -57 -50 -87l228 -636l70 -3v-54h-242v54l86 3l-65 185h-258l-65 -185l86 -3v-54h-237v54zM418 308l-62 182q-26 78 -42 134q-15 -50 -19 -62l-24 -72l-63 -182h210zM316 840q-25 0 -41.5 -17 t-16.5 -42q0 -27 16 -44t42 -17q25 0 41 17t16 43t-16 43t-41 17z" />
<glyph unicode="&#xc6;" horiz-adv-x="902" d="M449 196h-281l-88 -139l76 -3v-54h-240v54l70 3l410 635h428v-176h-71l-8 110h-216v-242h271v-66h-271v-252h231l8 110h71v-176h-390v196zM449 262v364h-8l-231 -364h239z" />
<glyph unicode="&#xc7;" horiz-adv-x="581" d="M533 93l20 -64q-96 -39 -182 -39q-143 0 -230 96.5t-87 253.5q0 164 86 263t229 99q77 0 168 -30v-156h-71l-8 105q-46 15 -90 15q-102 0 -165.5 -82t-63.5 -214q0 -130 63.5 -207t169.5 -77q78 0 161 37zM308 -34h91l-135 -147h-74z" />
<glyph unicode="&#xc8;" horiz-adv-x="561" d="M108 57v578l-80 3v54h455v-176h-71l-8 110h-216v-242h197v-66h-197v-252h231l8 110h71v-176h-470v54zM259 901l122 -146h-73l-146 146h97z" />
<glyph unicode="&#xc9;" horiz-adv-x="561" d="M108 57v578l-80 3v54h455v-176h-71l-8 110h-216v-242h197v-66h-197v-252h231l8 110h71v-176h-470v54zM336 901h97l-146 -146h-73z" />
<glyph unicode="&#xca;" horiz-adv-x="561" d="M108 57v578l-80 3v54h455v-176h-71l-8 110h-216v-242h197v-66h-197v-252h231l8 110h71v-176h-470v54zM288 853l-73 -98h-73l100 146h92l100 -146h-73z" />
<glyph unicode="&#xcb;" horiz-adv-x="561" d="M108 57v578l-80 3v54h455v-176h-71l-8 110h-216v-242h197v-66h-197v-252h231l8 110h71v-176h-470v54zM193 880q23 0 37.5 -14.5t14.5 -37.5t-14.5 -37.5t-37.5 -14.5t-37.5 15t-14.5 39q0 22 14.5 36t37.5 14zM383 880q23 0 37.5 -14.5t14.5 -37.5t-14.5 -37.5 t-37.5 -14.5t-37.5 15t-14.5 39q0 22 14.5 36t37.5 14z" />
<glyph unicode="&#xcc;" horiz-adv-x="296" d="M108 57v578l-80 3v54h240v-54l-80 -3v-578l80 -3v-54h-240v54zM120 901l122 -146h-73l-146 146h97z" />
<glyph unicode="&#xcd;" horiz-adv-x="296" d="M108 57v578l-80 3v54h240v-54l-80 -3v-578l80 -3v-54h-240v54zM186 901h97l-146 -146h-73z" />
<glyph unicode="&#xce;" horiz-adv-x="296" d="M108 57v578l-80 3v54h240v-54l-80 -3v-578l80 -3v-54h-240v54zM148 853l-73 -98h-73l100 146h92l100 -146h-73z" />
<glyph unicode="&#xcf;" horiz-adv-x="296" d="M108 57v578l-80 3v54h240v-54l-80 -3v-578l80 -3v-54h-240v54zM53 880q23 0 37.5 -14.5t14.5 -37.5t-14.5 -37.5t-37.5 -14.5t-37.5 15t-14.5 39q0 22 14.5 36t37.5 14zM243 880q23 0 37.5 -14.5t14.5 -37.5t-14.5 -37.5t-37.5 -14.5t-37.5 15t-14.5 39q0 22 14.5 36 t37.5 14z" />
<glyph unicode="&#xd0;" horiz-adv-x="674" d="M108 326h-83v52h83v257l-80 3v54h235q88 0 140.5 -11t93.5 -38q123 -85 123 -293t-123 -296q-43 -30 -97.5 -42t-147.5 -12h-224v54l80 3v269zM188 326v-260h70q123 0 183 44q94 69 94 235q0 89 -27.5 155t-77.5 96q-30 18 -67 24t-117 6h-58v-248h149v-52h-149z" />
<glyph unicode="&#xd1;" horiz-adv-x="726" d="M108 57v578l-80 3v54h172l267 -441q35 -58 77 -137l-1 27q-1 7 -1 19v56v419l-80 3v54h236v-54l-80 -3v-635h-93l-269 445q-36 59 -74 132q2 -49 2 -130v-390l80 -3v-54h-236v54zM260 774h-52q6 48 31 75t63 27q34 0 89 -21q39 -15 57 -15q40 0 45 42h51 q-12 -103 -94 -103q-31 0 -85 20q-42 16 -62 16q-30 0 -43 -41z" />
<glyph unicode="&#xd2;" horiz-adv-x="720" d="M360 702q150 0 232 -112q74 -102 74 -244q0 -168 -97 -271q-76 -85 -209 -85q-150 0 -232 112q-74 101 -74 248q0 76 25.5 147.5t70.5 120.5q78 84 210 84zM360 636q-101 0 -161 -77.5t-60 -209.5q0 -136 59 -214.5t162 -78.5q102 0 161.5 78t59.5 212t-59.5 212 t-161.5 78zM332 901l122 -146h-73l-146 146h97z" />
<glyph unicode="&#xd3;" horiz-adv-x="720" d="M360 702q150 0 232 -112q74 -102 74 -244q0 -168 -97 -271q-76 -85 -209 -85q-150 0 -232 112q-74 101 -74 248q0 76 25.5 147.5t70.5 120.5q78 84 210 84zM360 636q-101 0 -161 -77.5t-60 -209.5q0 -136 59 -214.5t162 -78.5q102 0 161.5 78t59.5 212t-59.5 212 t-161.5 78zM398 901h97l-146 -146h-73z" />
<glyph unicode="&#xd4;" horiz-adv-x="720" d="M360 702q150 0 232 -112q74 -102 74 -244q0 -168 -97 -271q-76 -85 -209 -85q-150 0 -232 112q-74 101 -74 248q0 76 25.5 147.5t70.5 120.5q78 84 210 84zM360 636q-101 0 -161 -77.5t-60 -209.5q0 -136 59 -214.5t162 -78.5q102 0 161.5 78t59.5 212t-59.5 212 t-161.5 78zM360 853l-73 -98h-73l100 146h92l100 -146h-73z" />
<glyph unicode="&#xd5;" horiz-adv-x="720" d="M360 702q150 0 232 -112q74 -102 74 -244q0 -168 -97 -271q-76 -85 -209 -85q-150 0 -232 112q-74 101 -74 248q0 76 25.5 147.5t70.5 120.5q78 84 210 84zM360 636q-101 0 -161 -77.5t-60 -209.5q0 -136 59 -214.5t162 -78.5q102 0 161.5 78t59.5 212t-59.5 212 t-161.5 78zM244 774h-52q6 48 31 75t63 27q34 0 89 -21q39 -15 57 -15q40 0 45 42h51q-12 -103 -94 -103q-31 0 -85 20q-42 16 -62 16q-30 0 -43 -41z" />
<glyph unicode="&#xd6;" horiz-adv-x="720" d="M360 702q150 0 232 -112q74 -102 74 -244q0 -168 -97 -271q-76 -85 -209 -85q-150 0 -232 112q-74 101 -74 248q0 76 25.5 147.5t70.5 120.5q78 84 210 84zM360 636q-101 0 -161 -77.5t-60 -209.5q0 -136 59 -214.5t162 -78.5q102 0 161.5 78t59.5 212t-59.5 212 t-161.5 78zM265 880q23 0 37.5 -14.5t14.5 -37.5t-14.5 -37.5t-37.5 -14.5t-37.5 15t-14.5 39q0 22 14.5 36t37.5 14zM455 880q23 0 37.5 -14.5t14.5 -37.5t-14.5 -37.5t-37.5 -14.5t-37.5 15t-14.5 39q0 22 14.5 36t37.5 14z" />
<glyph unicode="&#xd7;" horiz-adv-x="576" d="M245 253l-172 172l44 43l171 -172l173 172l43 -43l-173 -172l172 -172l-43 -43l-172 172l-172 -172l-43 43z" />
<glyph unicode="&#xd8;" horiz-adv-x="720" d="M66 19l65 80q-77 102 -77 246q0 168 96 273q79 84 209 84q121 0 201 -74l60 74l34 -28l-65 -80q77 -113 77 -248q0 -168 -97 -271q-78 -85 -209 -85q-125 0 -200 75l-59 -73zM181 161l331 408q-34 36 -69 51.5t-83 15.5q-102 0 -161.5 -78t-59.5 -212q0 -109 42 -185z M539 532l-332 -409q61 -67 153 -67q102 0 161.5 78t59.5 212q0 108 -42 186z" />
<glyph unicode="&#xd9;" horiz-adv-x="701" d="M182 635v-363q0 -119 38 -167.5t130 -48.5q91 0 132 48t41 153v378l-80 3v54h236v-54l-80 -3v-330q0 -108 -8 -152t-34 -78q-64 -85 -207 -85q-160 0 -218 103q-18 32 -24 74t-6 138v330l-80 3v54h240v-54zM322 901l122 -146h-73l-146 146h97z" />
<glyph unicode="&#xda;" horiz-adv-x="701" d="M182 635v-363q0 -119 38 -167.5t130 -48.5q91 0 132 48t41 153v378l-80 3v54h236v-54l-80 -3v-330q0 -108 -8 -152t-34 -78q-64 -85 -207 -85q-160 0 -218 103q-18 32 -24 74t-6 138v330l-80 3v54h240v-54zM425 901h97l-146 -146h-73z" />
<glyph unicode="&#xdb;" horiz-adv-x="701" d="M182 635v-363q0 -119 38 -167.5t130 -48.5q91 0 132 48t41 153v378l-80 3v54h236v-54l-80 -3v-330q0 -108 -8 -152t-34 -78q-64 -85 -207 -85q-160 0 -218 103q-18 32 -24 74t-6 138v330l-80 3v54h240v-54zM351 853l-73 -98h-73l100 146h92l100 -146h-73z" />
<glyph unicode="&#xdc;" horiz-adv-x="701" d="M182 635v-363q0 -119 38 -167.5t130 -48.5q91 0 132 48t41 153v378l-80 3v54h236v-54l-80 -3v-330q0 -108 -8 -152t-34 -78q-64 -85 -207 -85q-160 0 -218 103q-18 32 -24 74t-6 138v330l-80 3v54h240v-54zM258 880q23 0 37.5 -14.5t14.5 -37.5t-14.5 -37.5t-37.5 -14.5 t-37.5 15t-14.5 39q0 22 14.5 36t37.5 14zM448 880q23 0 37.5 -14.5t14.5 -37.5t-14.5 -37.5t-37.5 -14.5t-37.5 15t-14.5 39q0 22 14.5 36t37.5 14z" />
<glyph unicode="&#xdd;" horiz-adv-x="568" d="M244 57v255l-206 323l-67 3v54h240v-54l-79 -3l108 -173q29 -47 47 -81q23 41 49 84l106 170l-78 3v54h233v-54l-67 -3l-206 -323v-255l88 -3v-54h-256v54zM349 901h97l-146 -146h-73z" />
<glyph unicode="&#xde;" horiz-adv-x="531" d="M108 57v578l-80 3v54h240v-54l-80 -3v-82h54q122 0 180 -37q38 -23 59.5 -66.5t21.5 -97.5q0 -115 -91 -165q-62 -34 -170 -34h-54v-96l94 -3v-54h-254v54zM188 220h33q97 0 140 22q57 30 57 110q0 75 -49 109q-38 27 -136 27h-45v-268z" />
<glyph unicode="&#xdf;" horiz-adv-x="577" d="M97 57v441q0 76 7 109.5t28 62.5q53 71 156 71q87 0 142.5 -51.5t55.5 -132.5q0 -69 -38 -113.5t-105 -51.5q79 -1 124 -44q57 -52 57 -144q0 -97 -58 -155.5t-155 -58.5q-38 0 -80 10l12 64q33 -11 64 -11q65 0 101 40t36 111q0 73 -42 114t-118 41h-18v61 q67 2 103.5 37.5t36.5 97.5q0 55 -32.5 90t-84.5 35q-75 0 -102 -64q-14 -32 -14 -117v-499h-149v54z" />
<glyph unicode="&#xe0;" horiz-adv-x="517" d="M353 0l-3 59q-65 -69 -151 -69q-74 0 -116.5 40t-42.5 110q0 102 88 144q51 23 143 23q31 0 73 -2v14q0 72 -27 104.5t-88 32.5t-131 -44l-33 54q80 51 172 51q117 0 158 -69q15 -24 20 -55.5t5 -100.5v-235l73 -3v-54h-140zM344 129v118q-22 2 -57 2q-86 0 -126.5 -26 t-40.5 -82q0 -41 25 -65.5t67 -24.5q80 0 132 78zM230 731l122 -146h-73l-146 146h97z" />
<glyph unicode="&#xe1;" horiz-adv-x="517" d="M353 0l-3 59q-65 -69 -151 -69q-74 0 -116.5 40t-42.5 110q0 102 88 144q51 23 143 23q31 0 73 -2v14q0 72 -27 104.5t-88 32.5t-131 -44l-33 54q80 51 172 51q117 0 158 -69q15 -24 20 -55.5t5 -100.5v-235l73 -3v-54h-140zM344 129v118q-22 2 -57 2q-86 0 -126.5 -26 t-40.5 -82q0 -41 25 -65.5t67 -24.5q80 0 132 78zM296 731h97l-146 -146h-73z" />
<glyph unicode="&#xe2;" horiz-adv-x="517" d="M353 0l-3 59q-65 -69 -151 -69q-74 0 -116.5 40t-42.5 110q0 102 88 144q51 23 143 23q31 0 73 -2v14q0 72 -27 104.5t-88 32.5t-131 -44l-33 54q80 51 172 51q117 0 158 -69q15 -24 20 -55.5t5 -100.5v-235l73 -3v-54h-140zM344 129v118q-22 2 -57 2q-86 0 -126.5 -26 t-40.5 -82q0 -41 25 -65.5t67 -24.5q80 0 132 78zM245 683l-73 -98h-73l100 146h92l100 -146h-73z" />
<glyph unicode="&#xe3;" horiz-adv-x="517" d="M353 0l-3 59q-65 -69 -151 -69q-74 0 -116.5 40t-42.5 110q0 102 88 144q51 23 143 23q31 0 73 -2v14q0 72 -27 104.5t-88 32.5t-131 -44l-33 54q80 51 172 51q117 0 158 -69q15 -24 20 -55.5t5 -100.5v-235l73 -3v-54h-140zM344 129v118q-22 2 -57 2q-86 0 -126.5 -26 t-40.5 -82q0 -41 25 -65.5t67 -24.5q80 0 132 78zM129 604h-52q6 48 31 75t63 27q34 0 89 -21q39 -15 57 -15q40 0 45 42h51q-12 -103 -94 -103q-31 0 -85 20q-42 16 -62 16q-30 0 -43 -41z" />
<glyph unicode="&#xe4;" horiz-adv-x="517" d="M353 0l-3 59q-65 -69 -151 -69q-74 0 -116.5 40t-42.5 110q0 102 88 144q51 23 143 23q31 0 73 -2v14q0 72 -27 104.5t-88 32.5t-131 -44l-33 54q80 51 172 51q117 0 158 -69q15 -24 20 -55.5t5 -100.5v-235l73 -3v-54h-140zM344 129v118q-22 2 -57 2q-86 0 -126.5 -26 t-40.5 -82q0 -41 25 -65.5t67 -24.5q80 0 132 78zM164 710q23 0 37.5 -14.5t14.5 -37.5t-14.5 -37.5t-37.5 -14.5t-37.5 15t-14.5 39q0 22 14.5 36t37.5 14zM354 710q23 0 37.5 -14.5t14.5 -37.5t-14.5 -37.5t-37.5 -14.5t-37.5 15t-14.5 39q0 22 14.5 36t37.5 14z" />
<glyph unicode="&#xe5;" horiz-adv-x="517" d="M353 0l-3 59q-65 -69 -151 -69q-74 0 -116.5 40t-42.5 110q0 102 88 144q51 23 143 23q31 0 73 -2v14q0 72 -27 104.5t-88 32.5t-131 -44l-33 54q80 51 172 51q117 0 158 -69q15 -24 20 -55.5t5 -100.5v-235l73 -3v-54h-140zM344 129v118q-22 2 -57 2q-86 0 -126.5 -26 t-40.5 -82q0 -41 25 -65.5t67 -24.5q80 0 132 78zM252 765q42 0 70.5 -29t28.5 -71t-29 -71t-70 -29q-43 0 -71.5 29t-28.5 72q0 41 29 70t71 29zM252 725q-25 0 -41.5 -17t-16.5 -42q0 -27 16 -44t42 -17q25 0 41 17t16 43t-16 43t-41 17z" />
<glyph unicode="&#xe6;" horiz-adv-x="803" d="M704 99l29 -59q-73 -50 -160 -50q-119 0 -184 91q-42 -49 -85 -70t-103 -21q-76 0 -118.5 38t-42.5 106q0 163 230 163q20 0 74 -3v27q0 70 -27.5 102.5t-87.5 32.5q-61 0 -131 -44l-33 54q80 51 173 51q115 0 160 -73q58 73 156 73q127 0 172 -111q25 -64 26 -173h-328 q8 -94 45 -138t107 -44q65 0 128 48zM344 164v70q-22 2 -58 2q-86 0 -126 -24t-40 -75q0 -40 25.5 -63t68.5 -23q53 0 91.5 33.5t38.5 79.5zM426 294h245q-2 79 -32.5 120.5t-86.5 41.5t-89.5 -43t-36.5 -119z" />
<glyph unicode="&#xe7;" horiz-adv-x="482" d="M433 490v-138h-71l-8 92q-40 12 -74 12q-72 0 -111 -51.5t-39 -146.5q0 -97 42 -152t116 -55q67 0 129 45l29 -59q-73 -47 -159 -47q-111 0 -174 69t-63 190q0 136 72 208q60 60 162 60q79 0 149 -27zM249 -34h91l-135 -147h-74z" />
<glyph unicode="&#xe8;" horiz-adv-x="530" d="M480 233h-350q9 -94 48.5 -138t114.5 -44q71 0 139 48l29 -59q-79 -50 -169 -50q-113 0 -177.5 70t-64.5 193t59 193.5t162 70.5q135 0 181 -111q27 -61 28 -173zM132 294h267q-2 79 -36 120.5t-95 41.5t-97 -43t-39 -119zM237 731l122 -146h-73l-146 146h97z" />
<glyph unicode="&#xe9;" horiz-adv-x="530" d="M480 233h-350q9 -94 48.5 -138t114.5 -44q71 0 139 48l29 -59q-79 -50 -169 -50q-113 0 -177.5 70t-64.5 193t59 193.5t162 70.5q135 0 181 -111q27 -61 28 -173zM132 294h267q-2 79 -36 120.5t-95 41.5t-97 -43t-39 -119zM320 731h97l-146 -146h-73z" />
<glyph unicode="&#xea;" horiz-adv-x="530" d="M480 233h-350q9 -94 48.5 -138t114.5 -44q71 0 139 48l29 -59q-79 -50 -169 -50q-113 0 -177.5 70t-64.5 193t59 193.5t162 70.5q135 0 181 -111q27 -61 28 -173zM132 294h267q-2 79 -36 120.5t-95 41.5t-97 -43t-39 -119zM265 683l-73 -98h-73l100 146h92l100 -146h-73z " />
<glyph unicode="&#xeb;" horiz-adv-x="530" d="M480 233h-350q9 -94 48.5 -138t114.5 -44q71 0 139 48l29 -59q-79 -50 -169 -50q-113 0 -177.5 70t-64.5 193t59 193.5t162 70.5q135 0 181 -111q27 -61 28 -173zM132 294h267q-2 79 -36 120.5t-95 41.5t-97 -43t-39 -119zM180 710q23 0 37.5 -14.5t14.5 -37.5 t-14.5 -37.5t-37.5 -14.5t-37.5 15t-14.5 39q0 22 14.5 36t37.5 14zM370 710q23 0 37.5 -14.5t14.5 -37.5t-14.5 -37.5t-37.5 -14.5t-37.5 15t-14.5 39q0 22 14.5 36t37.5 14z" />
<glyph unicode="&#xec;" horiz-adv-x="278" d="M101 57v393l-73 3v54l149 5v-455l73 -3v-54h-222v54zM77 731l122 -146h-73l-146 146h97z" />
<glyph unicode="&#xed;" horiz-adv-x="278" d="M101 57v393l-73 3v54l149 5v-455l73 -3v-54h-222v54zM177 731h97l-146 -146h-73z" />
<glyph unicode="&#xee;" horiz-adv-x="278" d="M101 57v393l-73 3v54l149 5v-455l73 -3v-54h-222v54zM122 683l-73 -98h-73l100 146h92l100 -146h-73z" />
<glyph unicode="&#xef;" horiz-adv-x="278" d="M101 57v393l-73 3v54l149 5v-455l73 -3v-54h-222v54zM34 710q23 0 37.5 -14.5t14.5 -37.5t-14.5 -37.5t-37.5 -14.5t-37.5 15t-14.5 39q0 22 14.5 36t37.5 14zM224 710q23 0 37.5 -14.5t14.5 -37.5t-14.5 -37.5t-37.5 -14.5t-37.5 15t-14.5 39q0 22 14.5 36t37.5 14z" />
<glyph unicode="&#xf0;" horiz-adv-x="546" d="M113 674l31 64q75 -27 146 -85l134 64l20 -44l-115 -54q164 -166 164 -373q0 -120 -59.5 -188t-163.5 -68q-101 0 -159 66t-58 182q0 112 56.5 179.5t150.5 67.5q54 0 101 -27q-41 75 -102 127l-132 -62l-20 44l109 51q-56 38 -103 56zM273 424q-65 0 -102.5 -49 t-37.5 -134q0 -88 37.5 -138.5t102.5 -50.5q76 0 110 64q30 55 30 127q0 84 -37.5 132.5t-102.5 48.5z" />
<glyph unicode="&#xf1;" horiz-adv-x="609" d="M101 57v393l-73 3v54l147 5v-85q50 49 91.5 69.5t91.5 20.5q106 0 138 -86q16 -40 16 -127v-247l73 -3v-54h-222v54l73 3v247q0 74 -14 102q-22 50 -85 50q-82 0 -160 -95v-304l73 -3v-54h-222v54zM188 604h-52q6 48 31 75t63 27q34 0 89 -21q39 -15 57 -15q40 0 45 42 h51q-12 -103 -94 -103q-31 0 -85 20q-42 16 -62 16q-30 0 -43 -41z" />
<glyph unicode="&#xf2;" horiz-adv-x="567" d="M284 517q104 0 168.5 -73t64.5 -191t-64.5 -190.5t-169.5 -72.5t-169 73t-64 194q0 115 65 187.5t169 72.5zM283 456q-69 0 -111 -55t-42 -146q0 -93 41.5 -148.5t111.5 -55.5t112 55t42 147t-42 147.5t-112 55.5zM255 731l122 -146h-73l-146 146h97z" />
<glyph unicode="&#xf3;" horiz-adv-x="567" d="M284 517q104 0 168.5 -73t64.5 -191t-64.5 -190.5t-169.5 -72.5t-169 73t-64 194q0 115 65 187.5t169 72.5zM283 456q-69 0 -111 -55t-42 -146q0 -93 41.5 -148.5t111.5 -55.5t112 55t42 147t-42 147.5t-112 55.5zM342 731h97l-146 -146h-73z" />
<glyph unicode="&#xf4;" horiz-adv-x="567" d="M284 517q104 0 168.5 -73t64.5 -191t-64.5 -190.5t-169.5 -72.5t-169 73t-64 194q0 115 65 187.5t169 72.5zM283 456q-69 0 -111 -55t-42 -146q0 -93 41.5 -148.5t111.5 -55.5t112 55t42 147t-42 147.5t-112 55.5zM284 683l-73 -98h-73l100 146h92l100 -146h-73z" />
<glyph unicode="&#xf5;" horiz-adv-x="567" d="M284 517q104 0 168.5 -73t64.5 -191t-64.5 -190.5t-169.5 -72.5t-169 73t-64 194q0 115 65 187.5t169 72.5zM283 456q-69 0 -111 -55t-42 -146q0 -93 41.5 -148.5t111.5 -55.5t112 55t42 147t-42 147.5t-112 55.5zM168 604h-52q6 48 31 75t63 27q34 0 89 -21 q39 -15 57 -15q40 0 45 42h51q-12 -103 -94 -103q-31 0 -85 20q-42 16 -62 16q-30 0 -43 -41z" />
<glyph unicode="&#xf6;" horiz-adv-x="567" d="M284 517q104 0 168.5 -73t64.5 -191t-64.5 -190.5t-169.5 -72.5t-169 73t-64 194q0 115 65 187.5t169 72.5zM283 456q-69 0 -111 -55t-42 -146q0 -93 41.5 -148.5t111.5 -55.5t112 55t42 147t-42 147.5t-112 55.5zM189 710q23 0 37.5 -14.5t14.5 -37.5t-14.5 -37.5 t-37.5 -14.5t-37.5 15t-14.5 39q0 22 14.5 36t37.5 14zM379 710q23 0 37.5 -14.5t14.5 -37.5t-14.5 -37.5t-37.5 -14.5t-37.5 15t-14.5 39q0 22 14.5 36t37.5 14z" />
<glyph unicode="&#xf7;" horiz-adv-x="576" d="M35 223v60h506v-60h-506zM288 470q23 0 39 -16t16 -39t-16 -39t-39 -16q-24 0 -39.5 15.5t-15.5 40.5q0 23 16 38.5t39 15.5zM288 147q23 0 39 -16t16 -39t-16 -39t-39 -16q-24 0 -39.5 15.5t-15.5 40.5q0 23 16 38.5t39 15.5z" />
<glyph unicode="&#xf8;" horiz-adv-x="573" d="M40 13l63 69q-49 71 -49 172q0 118 64.5 190.5t169.5 72.5q91 0 155 -60l60 66l31 -28l-63 -70q50 -72 50 -172q0 -118 -64.5 -190.5t-169.5 -72.5q-94 0 -156 61l-60 -66zM155 140l241 265q-44 51 -109 51q-70 0 -111.5 -55t-41.5 -147q0 -63 21 -114zM418 368 l-240 -265q43 -52 109 -52q70 0 112 55.5t42 146.5q0 65 -23 115z" />
<glyph unicode="&#xf9;" horiz-adv-x="599" d="M433 0v79q-49 -48 -91.5 -68.5t-92.5 -20.5q-105 0 -137 86q-15 41 -15 131v243l-73 3v54l149 5v-309q0 -73 13 -102q23 -50 83 -50q80 0 157 88v311l-73 3v54l149 5v-455l73 -3v-54h-142zM258 731l122 -146h-73l-146 146h97z" />
<glyph unicode="&#xfa;" horiz-adv-x="599" d="M433 0v79q-49 -48 -91.5 -68.5t-92.5 -20.5q-105 0 -137 86q-15 41 -15 131v243l-73 3v54l149 5v-309q0 -73 13 -102q23 -50 83 -50q80 0 157 88v311l-73 3v54l149 5v-455l73 -3v-54h-142zM348 731h97l-146 -146h-73z" />
<glyph unicode="&#xfb;" horiz-adv-x="599" d="M433 0v79q-49 -48 -91.5 -68.5t-92.5 -20.5q-105 0 -137 86q-15 41 -15 131v243l-73 3v54l149 5v-309q0 -73 13 -102q23 -50 83 -50q80 0 157 88v311l-73 3v54l149 5v-455l73 -3v-54h-142zM289 683l-73 -98h-73l100 146h92l100 -146h-73z" />
<glyph unicode="&#xfc;" horiz-adv-x="599" d="M433 0v79q-49 -48 -91.5 -68.5t-92.5 -20.5q-105 0 -137 86q-15 41 -15 131v243l-73 3v54l149 5v-309q0 -73 13 -102q23 -50 83 -50q80 0 157 88v311l-73 3v54l149 5v-455l73 -3v-54h-142zM205 710q23 0 37.5 -14.5t14.5 -37.5t-14.5 -37.5t-37.5 -14.5t-37.5 15 t-14.5 39q0 22 14.5 36t37.5 14zM395 710q23 0 37.5 -14.5t14.5 -37.5t-14.5 -37.5t-37.5 -14.5t-37.5 15t-14.5 39q0 22 14.5 36t37.5 14z" />
<glyph unicode="&#xfd;" horiz-adv-x="497" d="M216 -7l-178 457l-58 3v54h220v-54l-81 -3l94 -246q22 -60 41 -116q24 70 43 119l91 243l-81 3v54h210v-54l-58 -3l-185 -493q-38 -103 -78.5 -142.5t-106.5 -39.5q-35 0 -75 10l14 62q30 -11 56 -11q46 0 76.5 36.5t55.5 120.5zM326 731h97l-146 -146h-73z" />
<glyph unicode="&#xfe;" horiz-adv-x="569" d="M91 -158v832l-73 3v54l149 5v-305q41 47 75 66.5t77 19.5q86 0 141.5 -75t55.5 -193q0 -114 -56 -186.5t-144 -72.5q-91 0 -149 80v-228l83 -3v-54h-232v54zM167 360v-214q48 -95 134 -95q62 0 98.5 54t36.5 146q0 94 -36 149.5t-98 55.5q-75 0 -135 -96z" />
<glyph unicode="&#xff;" horiz-adv-x="497" d="M216 -7l-178 457l-58 3v54h220v-54l-81 -3l94 -246q22 -60 41 -116q24 70 43 119l91 243l-81 3v54h210v-54l-58 -3l-185 -493q-38 -103 -78.5 -142.5t-106.5 -39.5q-35 0 -75 10l14 62q30 -11 56 -11q46 0 76.5 36.5t55.5 120.5zM163 710q23 0 37.5 -14.5t14.5 -37.5 t-14.5 -37.5t-37.5 -14.5t-37.5 15t-14.5 39q0 22 14.5 36t37.5 14zM353 710q23 0 37.5 -14.5t14.5 -37.5t-14.5 -37.5t-37.5 -14.5t-37.5 15t-14.5 39q0 22 14.5 36t37.5 14z" />
<glyph unicode="&#x100;" horiz-adv-x="631" d="M442 242h-258l-65 -185l86 -3v-54h-237v54l70 3l226 635h101l228 -635l70 -3v-54h-242v54l86 3zM418 308l-62 182q-26 78 -42 134q-13 -43 -19 -62q0 -2 -24 -72l-63 -182h210zM170 782v58h291v-58h-291z" />
<glyph unicode="&#x101;" horiz-adv-x="517" d="M353 0l-3 59q-65 -69 -151 -69q-74 0 -116.5 40t-42.5 110q0 102 88 144q51 23 143 23q31 0 73 -2v14q0 72 -27 104.5t-88 32.5t-131 -44l-33 54q80 51 172 51q117 0 158 -69q15 -24 20 -55.5t5 -100.5v-235l73 -3v-54h-140zM344 129v118q-22 2 -57 2q-86 0 -126.5 -26 t-40.5 -82q0 -41 25 -65.5t67 -24.5q80 0 132 78zM103 626v58h291v-58h-291z" />
<glyph unicode="&#x102;" horiz-adv-x="631" d="M442 242h-258l-65 -185l86 -3v-54h-237v54l70 3l226 635h101l228 -635l70 -3v-54h-242v54l86 3zM418 308l-62 182q-26 78 -42 134q-13 -43 -19 -62q0 -2 -24 -72l-63 -182h210zM169 901h66q8 -94 81 -94t81 94h65q-3 -72 -40.5 -110t-105.5 -38t-105.5 38t-41.5 110z" />
<glyph unicode="&#x103;" horiz-adv-x="517" d="M353 0l-3 59q-65 -69 -151 -69q-74 0 -116.5 40t-42.5 110q0 102 88 144q51 23 143 23q31 0 73 -2v14q0 72 -27 104.5t-88 32.5t-131 -44l-33 54q80 51 172 51q117 0 158 -69q15 -24 20 -55.5t5 -100.5v-235l73 -3v-54h-140zM344 129v118q-22 2 -57 2q-86 0 -126.5 -26 t-40.5 -82q0 -41 25 -65.5t67 -24.5q80 0 132 78zM108 731h66q8 -94 81 -94t81 94h65q-3 -71 -41 -109.5t-105 -38.5t-105 38.5t-42 109.5z" />
<glyph unicode="&#x104;" horiz-adv-x="631" d="M38 57l226 635h101l228 -635l70 -3v-54q-56 -36 -76 -54q-34 -34 -34 -66q0 -20 15 -32.5t38 -12.5q16 0 49 8l8 -48q-47 -13 -74 -13q-46 0 -74.5 23.5t-28.5 60.5q0 43 31 75t98 59h-194v54l86 3l-65 185h-258l-65 -185l86 -3v-54h-237v54zM418 308l-62 182 q-26 78 -42 134q-15 -50 -19 -62l-24 -72l-63 -182h210z" />
<glyph unicode="&#x105;" horiz-adv-x="517" d="M353 0l-3 59q-65 -69 -151 -69q-74 0 -116.5 40t-42.5 110q0 102 88 144q51 23 143 23q31 0 73 -2v14q0 72 -27 104.5t-88 32.5t-131 -44l-33 54q80 51 172 51q117 0 158 -69q15 -24 20 -55.5t5 -100.5v-235l73 -3v-54q-56 -36 -76 -54q-34 -34 -34 -66q0 -20 15 -32.5 t38 -12.5q16 0 49 8l8 -48q-47 -13 -74 -13q-46 0 -74.5 23.5t-28.5 60.5q0 83 129 134h-92zM344 129v118q-22 2 -57 2q-86 0 -126.5 -26t-40.5 -82q0 -41 25 -65.5t67 -24.5q80 0 132 78z" />
<glyph unicode="&#x106;" horiz-adv-x="581" d="M533 93l20 -64q-96 -39 -182 -39q-143 0 -230 96.5t-87 253.5q0 164 86 263t229 99q77 0 168 -30v-156h-71l-8 105q-46 15 -90 15q-102 0 -165.5 -82t-63.5 -214q0 -130 63.5 -207t169.5 -77q78 0 161 37zM411 901h97l-146 -146h-73z" />
<glyph unicode="&#x107;" horiz-adv-x="482" d="M433 490v-138h-71l-8 92q-40 12 -74 12q-72 0 -111 -51.5t-39 -146.5q0 -97 42 -152t116 -55q67 0 129 45l29 -59q-73 -47 -159 -47q-111 0 -174 69t-63 190q0 136 72 208q60 60 162 60q79 0 149 -27zM329 731h97l-146 -146h-73z" />
<glyph unicode="&#x108;" horiz-adv-x="581" d="M533 93l20 -64q-96 -39 -182 -39q-143 0 -230 96.5t-87 253.5q0 164 86 263t229 99q77 0 168 -30v-156h-71l-8 105q-46 15 -90 15q-102 0 -165.5 -82t-63.5 -214q0 -130 63.5 -207t169.5 -77q78 0 161 37zM366 853l-73 -98h-73l100 146h92l100 -146h-73z" />
<glyph unicode="&#x109;" horiz-adv-x="482" d="M433 490v-138h-71l-8 92q-40 12 -74 12q-72 0 -111 -51.5t-39 -146.5q0 -97 42 -152t116 -55q67 0 129 45l29 -59q-73 -47 -159 -47q-111 0 -174 69t-63 190q0 136 72 208q60 60 162 60q79 0 149 -27zM271 683l-73 -98h-73l100 146h92l100 -146h-73z" />
<glyph unicode="&#x10a;" horiz-adv-x="581" d="M533 93l20 -64q-96 -39 -182 -39q-143 0 -230 96.5t-87 253.5q0 164 86 263t229 99q77 0 168 -30v-156h-71l-8 105q-46 15 -90 15q-102 0 -165.5 -82t-63.5 -214q0 -130 63.5 -207t169.5 -77q78 0 161 37zM362 880q23 0 37.5 -14.5t14.5 -37.5t-14.5 -37.5t-37.5 -14.5 t-37.5 15t-14.5 39q0 22 14.5 36t37.5 14z" />
<glyph unicode="&#x10b;" horiz-adv-x="482" d="M433 490v-138h-71l-8 92q-40 12 -74 12q-72 0 -111 -51.5t-39 -146.5q0 -97 42 -152t116 -55q67 0 129 45l29 -59q-73 -47 -159 -47q-111 0 -174 69t-63 190q0 136 72 208q60 60 162 60q79 0 149 -27zM281 710q23 0 37.5 -14.5t14.5 -37.5t-14.5 -37.5t-37.5 -14.5 t-37.5 15t-14.5 39q0 22 14.5 36t37.5 14z" />
<glyph unicode="&#x10c;" horiz-adv-x="581" d="M533 93l20 -64q-96 -39 -182 -39q-143 0 -230 96.5t-87 253.5q0 164 86 263t229 99q77 0 168 -30v-156h-71l-8 105q-46 15 -90 15q-102 0 -165.5 -82t-63.5 -214q0 -130 63.5 -207t169.5 -77q78 0 161 37zM359 809l73 98h73l-100 -146h-92l-100 146h73z" />
<glyph unicode="&#x10d;" horiz-adv-x="482" d="M433 490v-138h-71l-8 92q-40 12 -74 12q-72 0 -111 -51.5t-39 -146.5q0 -97 42 -152t116 -55q67 0 129 45l29 -59q-73 -47 -159 -47q-111 0 -174 69t-63 190q0 136 72 208q60 60 162 60q79 0 149 -27zM271 633l73 98h73l-100 -146h-92l-100 146h73z" />
<glyph unicode="&#x10e;" horiz-adv-x="674" d="M108 57v578l-80 3v54h235q88 0 140.5 -11t93.5 -38q123 -85 123 -293t-123 -296q-43 -30 -97.5 -42t-147.5 -12h-224v54zM188 66h70q123 0 183 44q94 69 94 235q0 89 -27.5 155t-77.5 96q-30 18 -66.5 24t-117.5 6h-58v-560zM306 809l73 98h73l-100 -146h-92l-100 146h73 z" />
<glyph unicode="&#x10f;" horiz-adv-x="635" d="M405 0v77q-39 -50 -71 -68.5t-81 -18.5q-91 0 -147 73.5t-56 193.5q0 115 56 187.5t144 72.5q90 0 149 -80v237l-73 3v54l149 5v-679l73 -3v-54h-143zM399 146v215q-48 95 -134 95q-62 0 -98.5 -54t-36.5 -147q0 -94 36.5 -149t99.5 -55q39 0 70 22t63 73zM606 736h89 l-89 -224h-69z" />
<glyph unicode="&#x110;" horiz-adv-x="674" d="M108 326h-83v52h83v257l-80 3v54h235q88 0 140.5 -11t93.5 -38q123 -85 123 -293t-123 -296q-43 -30 -97.5 -42t-147.5 -12h-224v54l80 3v269zM188 326v-260h70q123 0 183 44q94 69 94 235q0 89 -27.5 155t-77.5 96q-30 18 -67 24t-117 6h-58v-248h149v-52h-149z" />
<glyph unicode="&#x111;" horiz-adv-x="574" d="M399 571h-142v58h142v45l-73 3v54l149 5v-107h73v-58h-73v-514l73 -3v-54h-143v77q-39 -50 -71 -68.5t-81 -18.5q-91 0 -147 73.5t-56 193.5q0 115 55.5 187.5t143.5 72.5q91 0 150 -80v134zM399 146v215q-48 95 -134 95q-62 0 -98.5 -54t-36.5 -147q0 -94 36.5 -149 t98.5 -55q40 0 71 22t63 73z" />
<glyph unicode="&#x112;" horiz-adv-x="561" d="M108 57v578l-80 3v54h455v-176h-71l-8 110h-216v-242h197v-66h-197v-252h231l8 110h71v-176h-470v54zM129 782v58h291v-58h-291z" />
<glyph unicode="&#x113;" horiz-adv-x="530" d="M480 233h-350q9 -94 48.5 -138t114.5 -44q71 0 139 48l29 -59q-79 -50 -169 -50q-113 0 -177.5 70t-64.5 193t59 193.5t162 70.5q135 0 181 -111q27 -61 28 -173zM132 294h267q-2 79 -36 120.5t-95 41.5t-97 -43t-39 -119zM120 626v58h291v-58h-291z" />
<glyph unicode="&#x114;" horiz-adv-x="561" d="M108 57v578l-80 3v54h455v-176h-71l-8 110h-216v-242h197v-66h-197v-252h231l8 110h71v-176h-470v54zM141 901h66q8 -94 81 -94t81 94h65q-3 -72 -40.5 -110t-105.5 -38t-105.5 38t-41.5 110z" />
<glyph unicode="&#x116;" horiz-adv-x="561" d="M108 57v578l-80 3v54h455v-176h-71l-8 110h-216v-242h197v-66h-197v-252h231l8 110h71v-176h-470v54zM288 880q23 0 37.5 -14.5t14.5 -37.5t-14.5 -37.5t-37.5 -14.5t-37.5 15t-14.5 39q0 22 14.5 36t37.5 14z" />
<glyph unicode="&#x117;" horiz-adv-x="530" d="M480 233h-350q9 -94 48.5 -138t114.5 -44q71 0 139 48l29 -59q-79 -50 -169 -50q-113 0 -177.5 70t-64.5 193t59 193.5t162 70.5q135 0 181 -111q27 -61 28 -173zM132 294h267q-2 79 -36 120.5t-95 41.5t-97 -43t-39 -119zM275 710q23 0 37.5 -14.5t14.5 -37.5 t-14.5 -37.5t-37.5 -14.5t-37.5 15t-14.5 39q0 22 14.5 36t37.5 14z" />
<glyph unicode="&#x118;" horiz-adv-x="561" d="M108 57v578l-80 3v54h455v-176h-71l-8 110h-216v-242h197v-66h-197v-252h231l8 110h71v-176q-56 -36 -76 -54q-34 -34 -34 -66q0 -20 15 -32.5t38 -12.5q16 0 49 8l8 -48q-47 -13 -74 -13q-46 0 -74.5 23.5t-28.5 60.5q0 43 31 75t98 59h-422v54z" />
<glyph unicode="&#x119;" horiz-adv-x="530" d="M480 233h-350q9 -94 48.5 -138t114.5 -44q71 0 139 48l29 -59q-63 -43 -142 -49q-55 -35 -75 -58.5t-20 -52.5q0 -20 14.5 -32.5t38.5 -12.5q15 0 48 8l8 -48q-47 -13 -73 -13q-46 0 -74.5 23t-28.5 61q0 77 107 125q-101 9 -157.5 78t-56.5 184q0 123 59 193.5t162 70.5 q135 0 181 -111q27 -61 28 -173zM132 294h267q-2 79 -36 120.5t-95 41.5t-97 -43t-39 -119z" />
<glyph unicode="&#x11a;" horiz-adv-x="561" d="M108 57v578l-80 3v54h455v-176h-71l-8 110h-216v-242h197v-66h-197v-252h231l8 110h71v-176h-470v54zM288 809l73 98h73l-100 -146h-92l-100 146h73z" />
<glyph unicode="&#x11b;" horiz-adv-x="530" d="M480 233h-350q9 -94 48.5 -138t114.5 -44q71 0 139 48l29 -59q-79 -50 -169 -50q-113 0 -177.5 70t-64.5 193t59 193.5t162 70.5q135 0 181 -111q27 -61 28 -173zM132 294h267q-2 79 -36 120.5t-95 41.5t-97 -43t-39 -119zM265 633l73 98h73l-100 -146h-92l-100 146h73z " />
<glyph unicode="&#x11c;" horiz-adv-x="677" d="M664 348v-54l-75 -3v-261q-102 -40 -210 -40q-147 0 -236 95t-89 252q0 165 90.5 265t239.5 100q103 0 205 -34v-152h-71l-7 101q-69 19 -122 19q-129 0 -193 -93q-57 -84 -57 -205q0 -129 67.5 -205.5t180.5 -76.5q61 0 122 22v213l-92 3v54h247zM384 853l-73 -98h-73 l100 146h92l100 -146h-73z" />
<glyph unicode="&#x11d;" horiz-adv-x="574" d="M476 450v-396q0 -83 -8.5 -124t-32.5 -73q-59 -82 -177 -82q-100 0 -191 55l32 59q77 -53 158 -53q92 0 125 76q18 41 18 135v42q-71 -80 -155 -80q-88 0 -142 69t-54 181q0 117 54 187.5t144 70.5q96 0 157 -88v83l146 -5v-54zM400 159v199q-52 98 -137 98 q-61 0 -97.5 -53.5t-36.5 -142.5q0 -86 37.5 -138t99.5 -52q82 0 134 89zM287 683l-73 -98h-73l100 146h92l100 -146h-73z" />
<glyph unicode="&#x11e;" horiz-adv-x="677" d="M664 348v-54l-75 -3v-261q-102 -40 -210 -40q-147 0 -236 95t-89 252q0 165 90.5 265t239.5 100q103 0 205 -34v-152h-71l-7 101q-69 19 -122 19q-129 0 -193 -93q-57 -84 -57 -205q0 -129 67.5 -205.5t180.5 -76.5q61 0 122 22v213l-92 3v54h247zM237 901h66 q8 -94 81 -94t81 94h65q-3 -72 -40.5 -110t-105.5 -38t-105.5 38t-41.5 110z" />
<glyph unicode="&#x11f;" horiz-adv-x="574" d="M476 450v-396q0 -83 -8.5 -124t-32.5 -73q-59 -82 -177 -82q-100 0 -191 55l32 59q77 -53 158 -53q92 0 125 76q18 41 18 135v42q-71 -80 -155 -80q-88 0 -142 69t-54 181q0 117 54 187.5t144 70.5q96 0 157 -88v83l146 -5v-54zM400 159v199q-52 98 -137 98 q-61 0 -97.5 -53.5t-36.5 -142.5q0 -86 37.5 -138t99.5 -52q82 0 134 89zM140 731h66q8 -94 81 -94t81 94h65q-3 -71 -41 -109.5t-105 -38.5t-105 38.5t-42 109.5z" />
<glyph unicode="&#x120;" horiz-adv-x="677" d="M664 348v-54l-75 -3v-261q-102 -40 -210 -40q-147 0 -236 95t-89 252q0 165 90.5 265t239.5 100q103 0 205 -34v-152h-71l-7 101q-69 19 -122 19q-129 0 -193 -93q-57 -84 -57 -205q0 -129 67.5 -205.5t180.5 -76.5q61 0 122 22v213l-92 3v54h247zM387 880 q23 0 37.5 -14.5t14.5 -37.5t-14.5 -37.5t-37.5 -14.5t-37.5 15t-14.5 39q0 22 14.5 36t37.5 14z" />
<glyph unicode="&#x121;" horiz-adv-x="574" d="M476 450v-396q0 -83 -8.5 -124t-32.5 -73q-59 -82 -177 -82q-100 0 -191 55l32 59q77 -53 158 -53q92 0 125 76q18 41 18 135v42q-71 -80 -155 -80q-88 0 -142 69t-54 181q0 117 54 187.5t144 70.5q96 0 157 -88v83l146 -5v-54zM400 159v199q-52 98 -137 98 q-61 0 -97.5 -53.5t-36.5 -142.5q0 -86 37.5 -138t99.5 -52q82 0 134 89zM280 710q23 0 37.5 -14.5t14.5 -37.5t-14.5 -37.5t-37.5 -14.5t-37.5 15t-14.5 39q0 22 14.5 36t37.5 14z" />
<glyph unicode="&#x122;" horiz-adv-x="677" d="M668 348v-54l-75 -3v-261q-102 -40 -210 -40q-147 0 -236 95t-89 252q0 165 90.5 265t239.5 100q103 0 205 -34v-152h-71l-7 101q-69 19 -122 19q-129 0 -193 -93q-57 -84 -57 -205q0 -129 67.5 -205.5t180.5 -76.5q62 0 122 22v213l-92 3v54h247zM350 -34h91l-135 -147 h-74z" />
<glyph unicode="&#x123;" horiz-adv-x="574" d="M476 450v-396q0 -83 -8.5 -124t-32.5 -73q-59 -82 -177 -82q-100 0 -191 55l32 59q77 -53 158 -53q92 0 125 76q18 41 18 135v42q-71 -80 -155 -80q-88 0 -142 69t-54 181q0 117 54 187.5t144 70.5q96 0 157 -88v83l146 -5v-54zM400 159v199q-52 98 -137 98 q-61 0 -97.5 -53.5t-36.5 -142.5q0 -86 37.5 -138t99.5 -52q82 0 134 89zM310 584h-91l135 147h74z" />
<glyph unicode="&#x124;" horiz-adv-x="695" d="M108 57v578l-80 3v54h240v-54l-80 -3v-248h333v248l-80 3v54h240v-54l-80 -3v-578l80 -3v-54h-240v54l80 3v264h-333v-264l80 -3v-54h-240v54zM355 853l-73 -98h-73l100 146h92l100 -146h-73z" />
<glyph unicode="&#x125;" horiz-adv-x="609" d="M101 57v617l-73 3v54l149 5v-307q48 47 90 67.5t91 20.5q106 0 138 -86q16 -40 16 -127v-247l73 -3v-54h-222v54l73 3v247q0 74 -14 102q-22 50 -85 50q-82 0 -160 -95v-304l73 -3v-54h-222v54zM140 873l-73 -98h-73l100 146h92l100 -146h-73z" />
<glyph unicode="&#x126;" horiz-adv-x="709" d="M108 476h-80v58h80v101l-80 3v54h240v-54l-80 -3v-101h333v101l-80 3v54h240v-54l-80 -3v-101h80v-58h-80v-419l80 -3v-54h-240v54l80 3v264h-333v-264l80 -3v-54h-240v54l80 3v419zM188 476v-89h333v89h-333z" />
<glyph unicode="&#x127;" horiz-adv-x="609" d="M101 57v508h-73v58h73v51l-73 3v54l149 5v-113h142v-58h-142v-136q48 48 89.5 68t91.5 20q106 0 138 -86q16 -40 16 -127v-247l73 -3v-54h-222v54l73 3v247q0 74 -14 102q-22 50 -85 50q-82 0 -160 -95v-304l73 -3v-54h-222v54z" />
<glyph unicode="&#x12a;" horiz-adv-x="282" d="M108 57v578l-80 3v54h240v-54l-80 -3v-578l80 -3v-54h-240v54zM3 782v58h291v-58h-291z" />
<glyph unicode="&#x12b;" horiz-adv-x="278" d="M101 57v393l-73 3v54l149 5v-455l73 -3v-54h-222v54zM-16 626v58h291v-58h-291z" />
<glyph unicode="&#x12d;" horiz-adv-x="278" d="M101 57v393l-73 3v54l149 5v-455l73 -3v-54h-222v54zM-25 731h66q8 -94 81 -94t81 94h65q-3 -71 -41 -109.5t-105 -38.5t-105 38.5t-42 109.5z" />
<glyph unicode="&#x12e;" horiz-adv-x="282" d="M108 57v578l-80 3v54h240v-54l-80 -3v-578l80 -3v-54q-56 -36 -76 -54q-34 -34 -34 -66q0 -20 15 -32.5t38 -12.5q16 0 49 8l8 -48q-47 -13 -74 -13q-46 0 -74.5 23.5t-28.5 60.5q0 43 31 75t98 59h-192v54z" />
<glyph unicode="&#x12f;" horiz-adv-x="278" d="M101 57v393l-73 3v54l149 5v-455l73 -3v-54q-56 -35 -76 -54q-34 -33 -34 -66q0 -20 14.5 -32.5t38.5 -12.5q16 0 49 8l8 -48q-47 -13 -74 -13q-46 0 -74.5 23.5t-28.5 60.5q0 43 31 75t98 59h-174v54zM139 741q24 0 39 -15t15 -39t-15 -39t-39 -15t-39 15t-15 40 q0 23 15.5 38t38.5 15z" />
<glyph unicode="&#x130;" horiz-adv-x="296" d="M108 57v578l-80 3v54h240v-54l-80 -3v-578l80 -3v-54h-240v54zM148 880q23 0 37.5 -14.5t14.5 -37.5t-14.5 -37.5t-37.5 -14.5t-37.5 15t-14.5 39q0 22 14.5 36t37.5 14z" />
<glyph unicode="&#x131;" horiz-adv-x="278" d="M101 57v393l-73 3v54l149 5v-455l73 -3v-54h-222v54z" />
<glyph unicode="&#x134;" horiz-adv-x="384" d="M296 635v-409q0 -74 -7 -112t-26 -63q-43 -61 -142 -61q-58 0 -109 20l7 66q46 -20 94 -20q72 0 90 49q13 34 13 156v374l-90 3v54h244v-54zM243 853l-73 -98h-73l100 146h92l100 -146h-73z" />
<glyph unicode="&#x135;" horiz-adv-x="278" d="M177 512v-522q0 -120 -19 -153q-36 -62 -123 -62q-28 0 -59 7l9 63q22 -6 42 -6q40 0 57 22.5t17 73.5v515l-85 3v54zM122 683l-73 -98h-73l100 146h92l100 -146h-73z" />
<glyph unicode="&#x136;" horiz-adv-x="602" d="M108 57v578l-80 3v54h240v-54l-80 -3v-273l251 273l-73 3v54h230v-54l-59 -3l-251 -273l257 -305l65 -3v-54h-245v54l76 2l-251 301v-300l80 -3v-54h-240v54zM290 -34h91l-135 -147h-74z" />
<glyph unicode="&#x137;" horiz-adv-x="512" d="M101 57v617l-73 3v54l149 5v-448l171 162l-64 3v54h210v-54l-57 -3l-180 -168l188 -225l61 -3v-54h-200v54l46 2l-175 211v-210l73 -3v-54h-222v54zM258 -34h91l-135 -147h-74z" />
<glyph unicode="&#x139;" horiz-adv-x="520" d="M108 57v578l-80 3v54h248v-54l-88 -3v-569h231l8 110h71v-176h-470v54zM237 901h97l-146 -146h-73z" />
<glyph unicode="&#x13a;" horiz-adv-x="278" d="M101 57v617l-73 3v54l149 5v-679l73 -3v-54h-222v54zM187 935h97l-146 -146h-73z" />
<glyph unicode="&#x13b;" horiz-adv-x="506" d="M108 57v578l-80 3v54h248v-54l-88 -3v-569h231l8 110h71v-176h-470v54zM269 -34h91l-135 -147h-74z" />
<glyph unicode="&#x13c;" horiz-adv-x="278" d="M101 57v617l-73 3v54l149 5v-679l73 -3v-54h-222v54zM127 -34h91l-135 -147h-74z" />
<glyph unicode="&#x13d;" horiz-adv-x="520" d="M108 57v578l-80 3v54h248v-54l-88 -3v-569h231l8 110h71v-176h-470v54zM381 731h89l-89 -224h-69z" />
<glyph unicode="&#x13e;" horiz-adv-x="337" d="M101 57v617l-73 3v54l149 5v-679l73 -3v-54h-222v54zM308 736h89l-89 -224h-69z" />
<glyph unicode="&#x141;" horiz-adv-x="533" d="M121 57v260l-83 -63v61l83 63v257l-80 3v54h240v-54l-80 -3v-197l103 78v-61l-103 -78v-311h231l8 110h71v-176h-470v54z" />
<glyph unicode="&#x142;" horiz-adv-x="280" d="M102 57v276l-83 -64v61l83 64v280l-73 3v54l149 5v-283l83 65v-61l-83 -65v-335l73 -3v-54h-222v54z" />
<glyph unicode="&#x143;" horiz-adv-x="726" d="M108 57v578l-80 3v54h172l267 -441q35 -58 77 -137l-1 27q-1 7 -1 19v56v419l-80 3v54h236v-54l-80 -3v-635h-93l-269 445q-36 59 -74 132q2 -49 2 -130v-390l80 -3v-54h-236v54zM418 901h97l-146 -146h-73z" />
<glyph unicode="&#x144;" horiz-adv-x="609" d="M101 57v393l-73 3v54l147 5v-85q50 49 91.5 69.5t91.5 20.5q106 0 138 -86q16 -40 16 -127v-247l73 -3v-54h-222v54l73 3v247q0 74 -14 102q-22 50 -85 50q-82 0 -160 -95v-304l73 -3v-54h-222v54zM363 731h97l-146 -146h-73z" />
<glyph unicode="&#x145;" horiz-adv-x="712" d="M108 57v578l-80 3v54h172l267 -441q35 -58 77 -137l-1 27q-1 7 -1 19v56v419l-80 3v54h236v-54l-80 -3v-635h-93l-269 445q-36 59 -74 132q2 -49 2 -130v-390l80 -3v-54h-236v54zM362 -34h91l-135 -147h-74z" />
<glyph unicode="&#x146;" horiz-adv-x="609" d="M101 57v393l-73 3v54l147 5v-85q50 49 91.5 69.5t91.5 20.5q106 0 138 -86q16 -40 16 -127v-247l73 -3v-54h-222v54l73 3v247q0 74 -14 102q-22 50 -85 50q-82 0 -160 -95v-304l73 -3v-54h-222v54zM279 -34h91l-135 -147h-74z" />
<glyph unicode="&#x147;" horiz-adv-x="726" d="M108 57v578l-80 3v54h172l267 -441q35 -58 77 -137l-1 27q-1 7 -1 19v56v419l-80 3v54h236v-54l-80 -3v-635h-93l-269 445q-36 59 -74 132q2 -49 2 -130v-390l80 -3v-54h-236v54zM363 809l73 98h73l-100 -146h-92l-100 146h73z" />
<glyph unicode="&#x148;" horiz-adv-x="609" d="M101 57v393l-73 3v54l147 5v-85q50 49 91.5 69.5t91.5 20.5q106 0 138 -86q16 -40 16 -127v-247l73 -3v-54h-222v54l73 3v247q0 74 -14 102q-22 50 -85 50q-82 0 -160 -95v-304l73 -3v-54h-222v54zM311 633l73 98h73l-100 -146h-92l-100 146h73z" />
<glyph unicode="&#x14c;" horiz-adv-x="720" d="M360 702q150 0 232 -112q74 -102 74 -244q0 -168 -97 -271q-76 -85 -209 -85q-150 0 -232 112q-74 101 -74 248q0 76 25.5 147.5t70.5 120.5q78 84 210 84zM360 636q-101 0 -161 -77.5t-60 -209.5q0 -136 59 -214.5t162 -78.5q102 0 161.5 78t59.5 212t-59.5 212 t-161.5 78zM215 782v58h291v-58h-291z" />
<glyph unicode="&#x14d;" horiz-adv-x="567" d="M284 517q104 0 168.5 -73t64.5 -191t-64.5 -190.5t-169.5 -72.5t-169 73t-64 194q0 115 65 187.5t169 72.5zM283 456q-69 0 -111 -55t-42 -146q0 -93 41.5 -148.5t111.5 -55.5t112 55t42 147t-42 147.5t-112 55.5zM138 626v58h291v-58h-291z" />
<glyph unicode="&#x150;" horiz-adv-x="720" d="M360 702q150 0 232 -112q74 -102 74 -244q0 -168 -97 -271q-76 -85 -209 -85q-150 0 -232 112q-74 101 -74 248q0 76 25.5 147.5t70.5 120.5q78 84 210 84zM360 636q-101 0 -161 -77.5t-60 -209.5q0 -136 59 -214.5t162 -78.5q102 0 161.5 78t59.5 212t-59.5 212 t-161.5 78zM338 901h93l-126 -146h-69zM494 901h93l-126 -146h-69z" />
<glyph unicode="&#x151;" horiz-adv-x="567" d="M284 517q104 0 168.5 -73t64.5 -191t-64.5 -190.5t-169.5 -72.5t-169 73t-64 194q0 115 65 187.5t169 72.5zM283 456q-69 0 -111 -55t-42 -146q0 -93 41.5 -148.5t111.5 -55.5t112 55t42 147t-42 147.5t-112 55.5zM261 731h93l-126 -146h-69zM417 731h93l-126 -146h-69z " />
<glyph unicode="&#x152;" horiz-adv-x="944" d="M571 318v-252h231l8 110h71v-176h-451q-114 0 -165 17q-100 31 -155.5 118.5t-55.5 213.5q0 196 123 287q69 52 160 55q19 1 87 1h442v-176h-71l-8 110h-216v-242h271v-66h-271zM491 626h-62q-97 0 -139 -13q-72 -23 -111.5 -93.5t-39.5 -174.5q0 -161 89 -231 q34 -26 79 -37t122 -11h62v560z" />
<glyph unicode="&#x153;" horiz-adv-x="909" d="M810 99l29 -59q-78 -50 -168 -50q-129 0 -194 102q-72 -102 -190 -102q-105 0 -169.5 73t-64.5 191t64.5 190.5t169.5 72.5q119 0 188 -99q59 99 175 99q134 0 181 -111q26 -62 27 -173h-345q9 -94 47.5 -138t111.5 -44q70 0 138 48zM286 456q-69 0 -111 -55t-42 -146 q0 -93 41.5 -148.5t111.5 -55.5t112 55t42 147t-42 147.5t-112 55.5zM515 294h262q-2 79 -35.5 120.5t-94.5 41.5q-59 0 -94 -43t-38 -119z" />
<glyph unicode="&#x154;" horiz-adv-x="560" d="M108 57v578l-80 3v54h227q108 0 163 -31q81 -48 81 -151q0 -68 -38 -113t-109 -61q41 -13 58.5 -34t46.5 -92l62 -153l68 -3v-54h-130l-73 173q-38 90 -66.5 112t-105.5 22h-24v-250l80 -3v-54h-240v54zM188 373h37q83 0 124 20q65 29 65 109q0 75 -56 105 q-38 19 -121 19h-49v-253zM325 901h97l-146 -146h-73z" />
<glyph unicode="&#x155;" horiz-adv-x="368" d="M101 57v393l-73 3v54l144 5v-86q47 91 137 91q19 0 39 -5l-4 -67q-16 4 -30 4q-93 0 -137 -119v-273l83 -3v-54h-232v54zM245 731h97l-146 -146h-73z" />
<glyph unicode="&#x156;" horiz-adv-x="560" d="M108 57v578l-80 3v54h227q108 0 163 -31q81 -48 81 -151q0 -68 -38 -113t-109 -61q41 -13 58.5 -34t46.5 -92l62 -153l68 -3v-54h-130l-73 173q-38 90 -66.5 112t-105.5 22h-24v-250l80 -3v-54h-240v54zM188 373h37q83 0 124 20q65 29 65 109q0 75 -56 105 q-38 19 -121 19h-49v-253zM306 -34h91l-135 -147h-74z" />
<glyph unicode="&#x157;" horiz-adv-x="368" d="M101 57v393l-73 3v54l144 5v-86q47 91 137 91q19 0 39 -5l-4 -67q-16 4 -30 4q-93 0 -137 -119v-273l83 -3v-54h-232v54zM122 -34h91l-135 -147h-74z" />
<glyph unicode="&#x158;" horiz-adv-x="560" d="M108 57v578l-80 3v54h227q108 0 163 -31q81 -48 81 -151q0 -68 -38 -113t-109 -61q41 -13 58.5 -34t46.5 -92l62 -153l68 -3v-54h-130l-73 173q-38 90 -66.5 112t-105.5 22h-24v-250l80 -3v-54h-240v54zM188 373h37q83 0 124 20q65 29 65 109q0 75 -56 105 q-38 19 -121 19h-49v-253zM270 809l73 98h73l-100 -146h-92l-100 146h73z" />
<glyph unicode="&#x159;" horiz-adv-x="368" d="M101 57v393l-73 3v54l144 5v-86q47 91 137 91q19 0 39 -5l-4 -67q-16 4 -30 4q-93 0 -137 -119v-273l83 -3v-54h-232v54zM194 633l73 98h73l-100 -146h-92l-100 146h73z" />
<glyph unicode="&#x15a;" horiz-adv-x="542" d="M57 32v144h71l8 -92q58 -28 121 -28q66 0 107 34t41 89q0 48 -33 76q-29 23 -121 58q-106 41 -141 68q-56 44 -56 129q0 91 59.5 141.5t165.5 50.5q83 0 182 -36v-150h-71l-7 94q-52 26 -106 26q-66 0 -103 -30.5t-37 -84.5q0 -46 27 -71t114 -60q77 -30 105 -44t51 -32 q54 -42 54 -126q0 -91 -64 -144.5t-173 -53.5q-98 0 -194 42zM346 901h97l-146 -146h-73z" />
<glyph unicode="&#x15b;" horiz-adv-x="461" d="M55 26v131h71l8 -87q39 -19 89 -19q54 0 84 21.5t30 61.5q0 35 -24 53q-15 10 -98 35q-87 26 -119 49q-45 31 -45 97q0 71 49 110t137 39q77 0 154 -32v-133h-71l-7 89q-34 15 -75 15q-53 0 -81.5 -21t-28.5 -59q0 -39 33 -58q26 -14 92 -32q66 -20 90 -30.5t42 -29.5 q30 -30 30 -84q0 -73 -51.5 -112.5t-145.5 -39.5q-85 0 -163 36zM295 731h97l-146 -146h-73z" />
<glyph unicode="&#x15c;" horiz-adv-x="542" d="M57 32v144h71l8 -92q58 -28 121 -28q66 0 107 34t41 89q0 48 -33 76q-29 23 -121 58q-106 41 -141 68q-56 44 -56 129q0 91 59.5 141.5t165.5 50.5q83 0 182 -36v-150h-71l-7 94q-52 26 -106 26q-66 0 -103 -30.5t-37 -84.5q0 -46 27 -71t114 -60q77 -30 105 -44t51 -32 q54 -42 54 -126q0 -91 -64 -144.5t-173 -53.5q-98 0 -194 42zM284 853l-73 -98h-73l100 146h92l100 -146h-73z" />
<glyph unicode="&#x15d;" horiz-adv-x="461" d="M55 26v131h71l8 -87q39 -19 89 -19q54 0 84 21.5t30 61.5q0 35 -24 53q-15 10 -98 35q-87 26 -119 49q-45 31 -45 97q0 71 49 110t137 39q77 0 154 -32v-133h-71l-7 89q-34 15 -75 15q-53 0 -81.5 -21t-28.5 -59q0 -39 33 -58q26 -14 92 -32q66 -20 90 -30.5t42 -29.5 q30 -30 30 -84q0 -73 -51.5 -112.5t-145.5 -39.5q-85 0 -163 36zM241 683l-73 -98h-73l100 146h92l100 -146h-73z" />
<glyph unicode="&#x15e;" horiz-adv-x="542" d="M57 32v144h71l8 -92q58 -28 121 -28q66 0 107 34t41 89q0 48 -33 76q-29 23 -121 58q-106 41 -141 68q-56 44 -56 129q0 91 59.5 141.5t165.5 50.5q83 0 182 -36v-150h-71l-7 94q-52 26 -106 26q-66 0 -103 -30.5t-37 -84.5q0 -46 27 -71t114 -60q77 -30 105 -44t51 -32 q54 -42 54 -126q0 -91 -64 -144.5t-173 -53.5q-98 0 -194 42zM237 -34h91l-135 -147h-74z" />
<glyph unicode="&#x15f;" horiz-adv-x="461" d="M55 26v131h71l8 -87q39 -19 89 -19q54 0 84 21.5t30 61.5q0 35 -24 53q-15 10 -98 35q-87 26 -119 49q-45 31 -45 97q0 71 49 110t137 39q77 0 154 -32v-133h-71l-7 89q-34 15 -75 15q-53 0 -81.5 -21t-28.5 -59q0 -39 33 -58q26 -14 92 -32q66 -20 90 -30.5t42 -29.5 q30 -30 30 -84q0 -73 -51.5 -112.5t-145.5 -39.5q-85 0 -163 36zM202 -34h91l-135 -147h-74z" />
<glyph unicode="&#x160;" horiz-adv-x="542" d="M57 32v144h71l8 -92q58 -28 121 -28q66 0 107 34t41 89q0 48 -33 76q-29 23 -121 58q-106 41 -141 68q-56 44 -56 129q0 91 59.5 141.5t165.5 50.5q83 0 182 -36v-150h-71l-7 94q-52 26 -106 26q-66 0 -103 -30.5t-37 -84.5q0 -46 27 -71t114 -60q77 -30 105 -44t51 -32 q54 -42 54 -126q0 -91 -64 -144.5t-173 -53.5q-98 0 -194 42zM288 809l73 98h73l-100 -146h-92l-100 146h73z" />
<glyph unicode="&#x161;" horiz-adv-x="461" d="M55 26v131h71l8 -87q39 -19 89 -19q54 0 84 21.5t30 61.5q0 35 -24 53q-15 10 -98 35q-87 26 -119 49q-45 31 -45 97q0 71 49 110t137 39q77 0 154 -32v-133h-71l-7 89q-34 15 -75 15q-53 0 -81.5 -21t-28.5 -59q0 -39 33 -58q26 -14 92 -32q66 -20 90 -30.5t42 -29.5 q30 -30 30 -84q0 -73 -51.5 -112.5t-145.5 -39.5q-85 0 -163 36zM241 633l73 98h73l-100 -146h-92l-100 146h73z" />
<glyph unicode="&#x163;" horiz-adv-x="353" d="M110 446h-82v61h82v111l76 16v-127h120v-61h-120v-277q0 -67 15 -92.5t53 -25.5q27 0 59 16l7 -61q-44 -16 -82 -16q-70 0 -99 37t-29 127v292zM181 -34h91l-135 -147h-74z" />
<glyph unicode="&#x164;" horiz-adv-x="550" d="M233 57v569h-150l-9 -110h-70v176h542v-176h-71l-8 110h-154v-569l110 -3v-54h-300v54zM275 809l73 98h73l-100 -146h-92l-100 146h73z" />
<glyph unicode="&#x165;" horiz-adv-x="381" d="M110 446h-82v61h82v111l76 16v-127h120v-61h-120v-277q0 -67 15 -92.5t53 -25.5q27 0 59 16l7 -61q-44 -16 -82 -16q-70 0 -99 37t-29 127v292zM358 797h89l-89 -224h-69z" />
<glyph unicode="&#x16a;" horiz-adv-x="687" d="M182 635v-363q0 -119 38 -167.5t130 -48.5q91 0 132 48t41 153v378l-80 3v54h236v-54l-80 -3v-330q0 -108 -8 -152t-34 -78q-64 -85 -207 -85q-160 0 -218 103q-18 32 -24 74t-6 138v330l-80 3v54h240v-54zM207 782v58h291v-58h-291z" />
<glyph unicode="&#x16b;" horiz-adv-x="599" d="M433 0v79q-49 -48 -91.5 -68.5t-92.5 -20.5q-105 0 -137 86q-15 41 -15 131v243l-73 3v54l149 5v-309q0 -73 13 -102q23 -50 83 -50q80 0 157 88v311l-73 3v54l149 5v-455l73 -3v-54h-142zM147 626v58h291v-58h-291z" />
<glyph unicode="&#x16d;" horiz-adv-x="599" d="M433 0v79q-49 -48 -91.5 -68.5t-92.5 -20.5q-105 0 -137 86q-15 41 -15 131v243l-73 3v54l149 5v-309q0 -73 13 -102q23 -50 83 -50q80 0 157 88v311l-73 3v54l149 5v-455l73 -3v-54h-142zM146 731h66q8 -94 81 -94t81 94h65q-3 -71 -41 -109.5t-105 -38.5t-105 38.5 t-42 109.5z" />
<glyph unicode="&#x16e;" horiz-adv-x="701" d="M182 635v-363q0 -119 38 -167.5t130 -48.5q91 0 132 48t41 153v378l-80 3v54h236v-54l-80 -3v-330q0 -108 -8 -152t-34 -78q-64 -85 -207 -85q-160 0 -218 103q-18 32 -24 74t-6 138v330l-80 3v54h240v-54zM353 900q42 0 70.5 -29t28.5 -71t-29 -71t-70 -29 q-43 0 -71.5 29t-28.5 72q0 41 29 70t71 29zM353 860q-25 0 -41.5 -17t-16.5 -42q0 -27 16 -44t42 -17q25 0 41 17t16 43t-16 43t-41 17z" />
<glyph unicode="&#x16f;" horiz-adv-x="599" d="M433 0v79q-49 -48 -91.5 -68.5t-92.5 -20.5q-105 0 -137 86q-15 41 -15 131v243l-73 3v54l149 5v-309q0 -73 13 -102q23 -50 83 -50q80 0 157 88v311l-73 3v54l149 5v-455l73 -3v-54h-142zM290 765q42 0 70.5 -29t28.5 -71t-29 -71t-70 -29q-43 0 -71.5 29t-28.5 72 q0 41 29 70t71 29zM290 725q-25 0 -41.5 -17t-16.5 -42q0 -27 16 -44t42 -17q25 0 41 17t16 43t-16 43t-41 17z" />
<glyph unicode="&#x170;" horiz-adv-x="701" d="M182 635v-363q0 -119 38 -167.5t130 -48.5q91 0 132 48t41 153v378l-80 3v54h236v-54l-80 -3v-330q0 -108 -8 -152t-34 -78q-64 -85 -207 -85q-160 0 -218 103q-18 32 -24 74t-6 138v330l-80 3v54h240v-54zM328 901h93l-126 -146h-69zM484 901h93l-126 -146h-69z" />
<glyph unicode="&#x171;" horiz-adv-x="599" d="M433 0v79q-49 -48 -91.5 -68.5t-92.5 -20.5q-105 0 -137 86q-15 41 -15 131v243l-73 3v54l149 5v-309q0 -73 13 -102q23 -50 83 -50q80 0 157 88v311l-73 3v54l149 5v-455l73 -3v-54h-142zM267 731h93l-126 -146h-69zM423 731h93l-126 -146h-69z" />
<glyph unicode="&#x172;" horiz-adv-x="687" d="M599 635v-330q0 -108 -8 -152t-34 -78q-47 -62 -136 -79q-59 -38 -81 -62.5t-22 -53.5q0 -20 14.5 -32.5t38.5 -12.5q15 0 48 8l8 -48q-47 -13 -73 -13q-46 0 -74.5 23.5t-28.5 60.5q0 77 105 124q-118 0 -183 54q-59 49 -67 135q-4 40 -4 126v330l-80 3v54h240v-54 l-80 -3v-363q0 -119 38 -167.5t130 -48.5q91 0 132 48t41 153v378l-80 3v54h236v-54z" />
<glyph unicode="&#x173;" horiz-adv-x="599" d="M433 0v79q-49 -48 -91.5 -68.5t-92.5 -20.5q-105 0 -137 86q-15 41 -15 131v243l-73 3v54l149 5v-309q0 -73 13 -102q23 -50 83 -50q80 0 157 88v311l-73 3v54l149 5v-455l73 -3v-54q-56 -36 -76 -54q-34 -34 -34 -66q0 -20 15 -32.5t38 -12.5q16 0 49 8l8 -48 q-47 -13 -74 -13q-46 0 -74.5 23.5t-28.5 60.5q0 43 31 75t98 59h-94z" />
<glyph unicode="&#x174;" horiz-adv-x="867" d="M193 0l-142 635l-69 3v54h231v-54l-79 -3l87 -411q15 -72 28 -149q10 60 30 150l105 467h101l106 -464q20 -87 30 -148q9 56 29 146l89 409l-79 3v54h225v-54l-69 -3l-144 -635h-102l-107 462q-18 80 -30 151q-8 -48 -31 -151l-106 -462h-103zM434 853l-73 -98h-73 l100 146h92l100 -146h-73z" />
<glyph unicode="&#x176;" horiz-adv-x="568" d="M244 57v255l-206 323l-67 3v54h240v-54l-79 -3l108 -173q29 -47 47 -81q23 41 49 84l106 170l-78 3v54h233v-54l-67 -3l-206 -323v-255l88 -3v-54h-256v54zM293 853l-73 -98h-73l100 146h92l100 -146h-73z" />
<glyph unicode="&#x177;" horiz-adv-x="497" d="M216 -7l-178 457l-58 3v54h220v-54l-81 -3l94 -246q22 -60 41 -116q24 70 43 119l91 243l-81 3v54h210v-54l-58 -3l-185 -493q-38 -103 -78.5 -142.5t-106.5 -39.5q-35 0 -75 10l14 62q30 -11 56 -11q46 0 76.5 36.5t55.5 120.5zM258 683l-73 -98h-73l100 146h92 l100 -146h-73z" />
<glyph unicode="&#x178;" horiz-adv-x="568" d="M244 57v255l-206 323l-67 3v54h240v-54l-79 -3l108 -173q29 -47 47 -81q23 41 49 84l106 170l-78 3v54h233v-54l-67 -3l-206 -323v-255l88 -3v-54h-256v54zM193 880q23 0 37.5 -14.5t14.5 -37.5t-14.5 -37.5t-37.5 -14.5t-37.5 15t-14.5 39q0 22 14.5 36t37.5 14z M383 880q23 0 37.5 -14.5t14.5 -37.5t-14.5 -37.5t-37.5 -14.5t-37.5 15t-14.5 39q0 22 14.5 36t37.5 14z" />
<glyph unicode="&#x179;" horiz-adv-x="584" d="M42 0v66l392 560h-301l-8 -110h-71v176h471v-66l-390 -560h322l9 110h70v-176h-494zM347 901h97l-146 -146h-73z" />
<glyph unicode="&#x17a;" horiz-adv-x="494" d="M38 0v57l305 389h-213l-8 -94h-71v155h385v-61l-304 -385h237l8 96h71v-157h-410zM302 731h97l-146 -146h-73z" />
<glyph unicode="&#x17b;" horiz-adv-x="584" d="M42 0v66l392 560h-301l-8 -110h-71v176h471v-66l-390 -560h322l9 110h70v-176h-494zM302 880q23 0 37.5 -14.5t14.5 -37.5t-14.5 -37.5t-37.5 -14.5t-37.5 15t-14.5 39q0 22 14.5 36t37.5 14z" />
<glyph unicode="&#x17c;" horiz-adv-x="494" d="M38 0v57l305 389h-213l-8 -94h-71v155h385v-61l-304 -385h237l8 96h71v-157h-410zM257 710q23 0 37.5 -14.5t14.5 -37.5t-14.5 -37.5t-37.5 -14.5t-37.5 15t-14.5 39q0 22 14.5 36t37.5 14z" />
<glyph unicode="&#x17d;" horiz-adv-x="584" d="M42 0v66l392 560h-301l-8 -110h-71v176h471v-66l-390 -560h322l9 110h70v-176h-494zM299 809l73 98h73l-100 -146h-92l-100 146h73z" />
<glyph unicode="&#x17e;" horiz-adv-x="494" d="M38 0v57l305 389h-213l-8 -94h-71v155h385v-61l-304 -385h237l8 96h71v-157h-410zM254 633l73 98h73l-100 -146h-92l-100 146h73z" />
<glyph unicode="&#x192;" horiz-adv-x="576" d="M226 329h-96v58h106l16 92q21 121 59.5 167t118.5 46q42 0 93 -13v-133h-71l-9 82q-7 2 -17 2q-40 0 -62 -34.5t-38 -122.5l-15 -86h135v-58h-145l-43 -242q-14 -81 -22.5 -108.5t-25.5 -51.5q-42 -56 -131 -56q-41 0 -92 12v125h71l7 -72q6 -2 14 -2q63 0 86 74 q8 24 25 121z" />
<glyph unicode="&#x1cd;" horiz-adv-x="631" d="M442 242h-258l-65 -185l86 -3v-54h-237v54l70 3l226 635h101l228 -635l70 -3v-54h-242v54l86 3zM418 308l-62 182q-26 78 -42 134q-13 -43 -19 -62q0 -2 -24 -72l-63 -182h210zM316 809l73 98h73l-100 -146h-92l-100 146h73z" />
<glyph unicode="&#x1ce;" horiz-adv-x="517" d="M353 0l-3 59q-65 -69 -151 -69q-74 0 -116.5 40t-42.5 110q0 102 88 144q51 23 143 23q31 0 73 -2v14q0 72 -27 104.5t-88 32.5t-131 -44l-33 54q80 51 172 51q117 0 158 -69q15 -24 20 -55.5t5 -100.5v-235l73 -3v-54h-140zM344 129v118q-22 2 -57 2q-86 0 -126.5 -26 t-40.5 -82q0 -41 25 -65.5t67 -24.5q80 0 132 78zM245 633l73 98h73l-100 -146h-92l-100 146h73z" />
<glyph unicode="&#x1d3;" horiz-adv-x="687" d="M182 635v-363q0 -119 38 -167.5t130 -48.5q91 0 132 48t41 153v378l-80 3v54h236v-54l-80 -3v-330q0 -108 -8 -152t-34 -78q-64 -85 -207 -85q-160 0 -218 103q-18 32 -24 74t-6 138v330l-80 3v54h240v-54zM353 809l73 98h73l-100 -146h-92l-100 146h73z" />
<glyph unicode="&#x1e6;" horiz-adv-x="677" d="M664 348v-54l-75 -3v-261q-102 -40 -210 -40q-147 0 -236 95t-89 252q0 165 90.5 265t239.5 100q103 0 205 -34v-152h-71l-7 101q-69 19 -122 19q-129 0 -193 -93q-57 -84 -57 -205q0 -129 67.5 -205.5t180.5 -76.5q61 0 122 22v213l-92 3v54h247zM384 809l73 98h73 l-100 -146h-92l-100 146h73z" />
<glyph unicode="&#x1e7;" horiz-adv-x="574" d="M476 450v-396q0 -83 -8.5 -124t-32.5 -73q-59 -82 -177 -82q-100 0 -191 55l32 59q77 -53 158 -53q92 0 125 76q18 41 18 135v42q-71 -80 -155 -80q-88 0 -142 69t-54 181q0 117 54 187.5t144 70.5q96 0 157 -88v83l146 -5v-54zM400 159v199q-52 98 -137 98 q-61 0 -97.5 -53.5t-36.5 -142.5q0 -86 37.5 -138t99.5 -52q82 0 134 89zM287 633l73 98h73l-100 -146h-92l-100 146h73z" />
<glyph unicode="&#x1f4;" horiz-adv-x="677" d="M668 348v-54l-75 -3v-261q-102 -40 -210 -40q-147 0 -236 95t-89 252q0 165 90.5 265t239.5 100q103 0 205 -34v-152h-71l-7 101q-69 19 -122 19q-129 0 -193 -93q-57 -84 -57 -205q0 -129 67.5 -205.5t180.5 -76.5q62 0 122 22v213l-92 3v54h247zM432 901h97l-146 -146 h-73z" />
<glyph unicode="&#x219;" horiz-adv-x="461" d="M55 26v131h71l8 -87q39 -19 89 -19q54 0 84 21.5t30 61.5q0 35 -24 53q-15 10 -98 35q-87 26 -119 49q-45 31 -45 97q0 71 49 110t137 39q77 0 154 -32v-133h-71l-7 89q-34 15 -75 15q-53 0 -81.5 -21t-28.5 -59q0 -39 33 -58q26 -14 92 -32q66 -20 90 -30.5t42 -29.5 q30 -30 30 -84q0 -73 -51.5 -112.5t-145.5 -39.5q-85 0 -163 36zM209 -34h91l-135 -147h-74z" />
<glyph unicode="&#x21a;" horiz-adv-x="550" d="M233 57v569h-150l-9 -110h-70v176h542v-176h-71l-8 110h-154v-569l110 -3v-54h-300v54zM257 -34h91l-135 -147h-74z" />
<glyph unicode="&#x2bc;" horiz-adv-x="168" d="M76 731h89l-89 -224h-69z" />
<glyph unicode="&#x2c6;" d="M250 683l-73 -98h-73l100 146h92l100 -146h-73z" />
<glyph unicode="&#x2c7;" d="M250 633l73 98h73l-100 -146h-92l-100 146h73z" />
<glyph unicode="&#x2c9;" d="M105 626v58h291v-58h-291z" />
<glyph unicode="&#x2d8;" d="M103 731h66q8 -94 81 -94t81 94h65q-3 -71 -41 -109.5t-105 -38.5t-105 38.5t-42 109.5z" />
<glyph unicode="&#x2d9;" d="M250 710q23 0 37.5 -14.5t14.5 -37.5t-14.5 -37.5t-37.5 -14.5t-37.5 15t-14.5 39q0 22 14.5 36t37.5 14z" />
<glyph unicode="&#x2da;" d="M250 765q42 0 70.5 -29t28.5 -71t-29 -71t-70 -29q-43 0 -71.5 29t-28.5 72q0 41 29 70t71 29zM250 725q-25 0 -41.5 -17t-16.5 -42q0 -27 16 -44t42 -17q25 0 41 17t16 43t-16 43t-41 17z" />
<glyph unicode="&#x2db;" d="M280 -157l8 -48q-47 -13 -73 -13q-46 0 -74.5 23t-28.5 61q0 43 30.5 74.5t97.5 59.5h48q-51 -33 -75 -54q-34 -33 -34 -66q0 -20 14.5 -32.5t38.5 -12.5q15 0 48 8z" />
<glyph unicode="&#x2dc;" d="M134 604h-52q6 48 31 75t63 27q34 0 89 -21q39 -15 57 -15q40 0 45 42h51q-12 -103 -94 -103q-31 0 -85 20q-42 16 -62 16q-30 0 -43 -41z" />
<glyph unicode="&#x2dd;" d="M228 731h93l-126 -146h-69zM384 731h93l-126 -146h-69z" />
<glyph unicode="&#x384;" d="M267 741h91l-91 -164h-52z" />
<glyph unicode="&#x385;" d="M141 704q20 0 33 -13t13 -33t-13 -33t-33 -13t-33 13t-13 35q0 19 13 31.5t33 12.5zM359 704q20 0 33 -13t13 -33t-13 -33t-33 -13t-33 13t-13 35q0 19 13 31.5t33 12.5zM223 578l-14 165h82l-14 -165h-54z" />
<glyph unicode="&#x386;" horiz-adv-x="655" d="M463 242h-258l-65 -185l86 -3v-54h-237v54l70 3l226 635h101l228 -635l70 -3v-54h-242v54l86 3zM439 308l-62 182q-24 69 -42 134q-12 -43 -19 -62q-2 -8 -24 -72l-63 -182h210zM81 692h91l-91 -204h-52z" />
<glyph unicode="&#x387;" horiz-adv-x="288" d="M144 338q26 0 42.5 -17t16.5 -42t-16.5 -42t-42.5 -17t-42.5 17t-16.5 43q0 25 17 41.5t42 16.5z" />
<glyph unicode="&#x388;" horiz-adv-x="724" d="M41 692h91l-91 -204h-52zM253 57v578l-80 3v54h469v-176h-71l-8 110h-230v-242h211v-66h-211v-252h245l8 110h71v-176h-484v54z" />
<glyph unicode="&#x389;" horiz-adv-x="858" d="M41 692h91l-91 -204h-52zM253 57v578l-80 3v54h240v-54l-80 -3v-248h333v248l-80 3v54h240v-54l-80 -3v-578l80 -3v-54h-240v54l80 3v264h-333v-264l80 -3v-54h-240v54z" />
<glyph unicode="&#x38a;" horiz-adv-x="453" d="M41 692h91l-91 -204h-52zM253 57v578l-80 3v54h240v-54l-80 -3v-578l80 -3v-54h-240v54z" />
<glyph unicode="&#x38c;" horiz-adv-x="809" d="M41 692h91l-91 -204h-52zM445 702q150 0 232 -112q74 -102 74 -244q0 -168 -97 -271q-76 -85 -209 -85q-150 0 -232 112q-74 101 -74 248q0 76 25.5 147.5t70.5 120.5q78 84 210 84zM445 636q-101 0 -161 -77.5t-60 -209.5q0 -136 59 -214.5t162 -78.5q102 0 161.5 78 t59.5 212t-59.5 212t-161.5 78z" />
<glyph unicode="&#x38e;" horiz-adv-x="759" d="M41 692h91l-91 -204h-52zM432 57v255l-206 323l-67 3v54h240v-54l-79 -3l108 -173q29 -47 47 -81q23 41 49 84l106 170l-78 3v54h233v-54l-67 -3l-206 -323v-255l88 -3v-54h-256v54z" />
<glyph unicode="&#x38f;" horiz-adv-x="849" d="M41 692h91l-91 -204h-52zM143 0v80q76 -14 169 -14h38v37q-53 20 -81.5 36.5t-52.5 41.5q-77 82 -77 210q0 145 103 237q85 74 223 74q159 0 247 -98q79 -88 79 -213q0 -150 -102 -233q-35 -28 -109 -55v-37h38q93 0 169 14v-80h-276v152q100 25 147.5 82t47.5 153 q0 116 -64 182.5t-177 66.5t-177 -66.5t-64 -182.5q0 -96 47.5 -153t147.5 -82v-152h-276z" />
<glyph unicode="&#x390;" horiz-adv-x="289" d="M100 450l-73 3v54l154 5q-5 -117 -5 -215v-147q0 -54 13.5 -75t47.5 -21q17 0 45 6l9 -63q-34 -7 -63 -7q-92 0 -117 70q-11 29 -11 135v255zM29 704q20 0 33 -13t13 -33t-13 -33t-33 -13t-33 13t-13 35q0 19 13 31.5t33 12.5zM247 704q20 0 33 -13t13 -33t-13 -33 t-33 -13t-33 13t-13 35q0 19 13 31.5t33 12.5zM111 578l-14 165h82l-14 -165h-54z" />
<glyph unicode="&#x391;" horiz-adv-x="637" d="M445 242h-258l-65 -185l86 -3v-54h-237v54l70 3l226 635h101l228 -635l70 -3v-54h-242v54l86 3zM421 308l-62 182q-24 69 -42 134q-13 -43 -19 -62q-2 -8 -24 -72l-63 -182h210z" />
<glyph unicode="&#x392;" horiz-adv-x="584" d="M111 57v578l-80 3v54h202q131 0 187 -23q44 -17 68 -58t24 -98q0 -71 -33 -109t-107 -51q159 -18 159 -169q0 -115 -88 -158q-33 -17 -65.5 -21.5t-115.5 -4.5h-231v54zM191 382h50q101 0 138 22q48 30 48 100q0 76 -48 102q-38 21 -138 21h-50v-245zM191 65h50 q116 0 152 20q53 27 53 108q0 84 -70 111q-39 16 -135 16h-50v-255z" />
<glyph unicode="&#x393;" horiz-adv-x="511" d="M111 57v578l-80 3v54h457v-176h-71l-8 110h-218v-569l80 -3v-54h-240v54z" />
<glyph unicode="&#x394;" horiz-adv-x="642" d="M23 0v62l248 630h101l247 -630v-62h-596zM109 66h422l-159 415q-15 35 -51 143q-3 -8 -9 -26l-15 -45q-1 -3 -12 -33t-14 -36z" />
<glyph unicode="&#x395;" horiz-adv-x="581" d="M111 57v578l-80 3v54h469v-176h-71l-8 110h-230v-242h211v-66h-211v-252h245l8 110h71v-176h-484v54z" />
<glyph unicode="&#x396;" horiz-adv-x="582" d="M45 0v66l384 560h-293l-8 -110h-71v176h463v-66l-382 -560h314l9 110h70v-176h-486z" />
<glyph unicode="&#x397;" horiz-adv-x="715" d="M111 57v578l-80 3v54h240v-54l-80 -3v-248h333v248l-80 3v54h240v-54l-80 -3v-578l80 -3v-54h-240v54l80 3v264h-333v-264l80 -3v-54h-240v54z" />
<glyph unicode="&#x398;" horiz-adv-x="726" d="M227 318v66h272v-66h-272zM363 702q150 0 232 -112q74 -102 74 -244q0 -168 -97 -271q-76 -85 -209 -85q-150 0 -232 112q-74 101 -74 248q0 76 25.5 147.5t70.5 120.5q78 84 210 84zM363 636q-101 0 -161 -77.5t-60 -209.5q0 -136 59 -214.5t162 -78.5q102 0 161.5 78 t59.5 212t-59.5 212t-161.5 78z" />
<glyph unicode="&#x399;" horiz-adv-x="318" d="M119 57v578l-80 3v54h240v-54l-80 -3v-578l80 -3v-54h-240v54z" />
<glyph unicode="&#x39a;" horiz-adv-x="634" d="M111 57v578l-80 3v54h240v-54l-80 -3v-273l268 273l-73 3v54h225v-54l-59 -3l-268 -273l274 -305l65 -3v-54h-240v54l76 3l-268 300v-300l80 -3v-54h-240v54z" />
<glyph unicode="&#x39b;" horiz-adv-x="639" d="M53 57l215 635h101l217 -635l70 -3v-54h-242v54l86 3l-142 433q-22 70 -40 134q-7 -22 -11.5 -38.5t-6.5 -23.5q-9 -32 -23 -72l-143 -433l86 -3v-54h-237v54z" />
<glyph unicode="&#x39c;" horiz-adv-x="894" d="M111 57v578l-80 3v54h190l196 -524q23 -61 34 -96q24 72 33 96l191 524h188v-54l-80 -3v-578l80 -3v-54h-234v54l74 3v527q-36 -113 -59 -176l-152 -408h-87l-156 403q-27 73 -62 181v-527l74 -3v-54h-230v54z" />
<glyph unicode="&#x39d;" horiz-adv-x="726" d="M111 57v578l-80 3v54h166l267 -441q28 -46 77 -137q-2 42 -2 102v419l-80 3v54h236v-54l-80 -3v-635h-87l-269 445q-36 59 -74 132q2 -49 2 -130v-390l80 -3v-54h-236v54z" />
<glyph unicode="&#x39e;" horiz-adv-x="625" d="M66 0v176h71l8 -110h335l8 110h71v-176h-493zM127 318v66h371v-66h-371zM81 516v176h463v-176h-71l-8 110h-305l-8 -110h-71z" />
<glyph unicode="&#x39f;" horiz-adv-x="726" d="M363 702q150 0 232 -112q74 -102 74 -244q0 -168 -97 -271q-76 -85 -209 -85q-150 0 -232 112q-74 101 -74 248q0 76 25.5 147.5t70.5 120.5q78 84 210 84zM363 636q-101 0 -161 -77.5t-60 -209.5q0 -136 59 -214.5t162 -78.5q102 0 161.5 78t59.5 212t-59.5 212 t-161.5 78z" />
<glyph unicode="&#x3a0;" horiz-adv-x="689" d="M111 57v578l-80 3v54h627v-54l-80 -3v-578l80 -3v-54h-240v54l80 3v569h-307v-569l80 -3v-54h-240v54z" />
<glyph unicode="&#x3a1;" horiz-adv-x="549" d="M111 57v578l-80 3v54h226q125 0 181 -37q80 -50 80 -165q0 -56 -24 -100t-67 -66q-61 -32 -180 -32h-56v-235l92 -3v-54h-252v54zM191 358h45q102 0 141 21q56 29 56 111q0 75 -49 109q-38 27 -136 27h-57v-268z" />
<glyph unicode="&#x3a3;" horiz-adv-x="584" d="M49 0v66l237 293l-225 267v66h440v-176h-71l-8 110h-270l213 -248v-37l-229 -275h306l8 110h71v-176h-472z" />
<glyph unicode="&#x3a4;" horiz-adv-x="588" d="M252 57v569h-150l-9 -110h-70v176h542v-176h-71l-8 110h-154v-569l110 -3v-54h-300v54z" />
<glyph unicode="&#x3a5;" horiz-adv-x="574" d="M247 57v255l-206 323l-67 3v54h240v-54l-79 -3l108 -173q29 -47 47 -81q23 41 49 84l106 170l-78 3v54h233v-54l-67 -3l-206 -323v-255l88 -3v-54h-256v54z" />
<glyph unicode="&#x3a6;" horiz-adv-x="817" d="M373 -1v61q-146 10 -231 87t-85 199t85 199t231 87v61l-79 3v54h230v-54l-80 -3v-61q146 -10 231.5 -87t85.5 -199t-85.5 -199t-231.5 -87v-61l80 -3v-54h-230v54zM444 575v-458q109 9 172 70.5t63 158.5t-63 158.5t-172 70.5zM373 117v458q-108 -10 -171 -71t-63 -158 t63 -158t171 -71z" />
<glyph unicode="&#x3a7;" horiz-adv-x="629" d="M-8 0v54l63 3l209 304l-184 274l-69 3v54h236v-54l-77 -3l150 -221l147 221l-74 3v54h227v-54l-69 -3l-189 -284l198 -294l71 -3v-54h-240v54l77 3l-162 241l-163 -241l81 -3v-54h-232z" />
<glyph unicode="&#x3a8;" horiz-adv-x="883" d="M401 57v134h-35q-76 0 -124.5 16t-83.5 53q-34 37 -44.5 83t-10.5 163v129l-80 3v54h160v-219q0 -76 12.5 -117t43.5 -67q37 -32 128 -32h34v378l-67 3v54h216v-54l-69 -3v-378h35q91 0 128 32q31 26 43.5 67t12.5 117v219h160v-54l-80 -3v-129q0 -117 -10.5 -163 t-44.5 -83q-35 -37 -83 -53t-125 -16h-36v-134l101 -3v-54h-280v54z" />
<glyph unicode="&#x3a9;" horiz-adv-x="766" d="M61 0v80q76 -14 169 -14h38v37q-53 20 -81.5 36.5t-52.5 41.5q-77 82 -77 210q0 145 103 237q85 74 223 74q159 0 247 -98q79 -88 79 -213q0 -150 -102 -233q-35 -28 -109 -55v-37h38q93 0 169 14v-80h-276v152q100 25 147.5 82t47.5 153q0 116 -64 182.5t-177 66.5 t-177 -66.5t-64 -182.5q0 -96 47.5 -153t147.5 -82v-152h-276z" />
<glyph unicode="&#x3aa;" horiz-adv-x="318" d="M119 57v578l-80 3v54h240v-54l-80 -3v-578l80 -3v-54h-240v54zM64 880q23 0 37.5 -14.5t14.5 -37.5t-14.5 -37.5t-37.5 -14.5t-37.5 15t-14.5 39q0 22 14.5 36t37.5 14zM254 880q23 0 37.5 -14.5t14.5 -37.5t-14.5 -37.5t-37.5 -14.5t-37.5 15t-14.5 39q0 22 14.5 36 t37.5 14z" />
<glyph unicode="&#x3ab;" horiz-adv-x="574" d="M247 57v255l-206 323l-67 3v54h240v-54l-79 -3l108 -173q29 -47 47 -81q23 41 49 84l106 170l-78 3v54h233v-54l-67 -3l-206 -323v-255l88 -3v-54h-256v54zM195 880q23 0 37.5 -14.5t14.5 -37.5t-14.5 -37.5t-37.5 -14.5t-37.5 15t-14.5 39q0 22 14.5 36t37.5 14z M385 880q23 0 37.5 -14.5t14.5 -37.5t-14.5 -37.5t-37.5 -14.5t-37.5 15t-14.5 39q0 22 14.5 36t37.5 14z" />
<glyph unicode="&#x3ac;" horiz-adv-x="583" d="M534 6l-77 -16q-16 52 -25 121q-34 -67 -75.5 -94t-107.5 -27q-95 0 -146 66.5t-51 191.5q0 126 54 197.5t149 71.5q60 0 100.5 -28t69.5 -90q7 55 16 112l73 -10q-21 -115 -21 -243q0 -145 41 -252zM417 190v91q-46 175 -155 175q-64 0 -97 -53t-33 -154 q0 -198 129 -198q54 0 91.5 33.5t64.5 105.5zM297 741h91l-91 -164h-52z" />
<glyph unicode="&#x3ad;" horiz-adv-x="493" d="M359 233h-226q5 -86 46.5 -134t111.5 -48q72 0 140 46l29 -59q-78 -48 -170 -48q-113 0 -175.5 68t-62.5 191q0 137 68 210q57 58 155 58q81 0 165 -42v-113h-71l-8 79q-40 15 -79 15q-135 0 -149 -162h226v-61zM290 741h91l-91 -164h-52z" />
<glyph unicode="&#x3ae;" horiz-adv-x="605" d="M104 0v450l-73 3v54l147 5v-86q46 49 87.5 70t93.5 21q95 0 129 -70q21 -43 21 -154v-305q0 -135 5 -203h-81v509q0 77 -10 108q-19 54 -85 54q-80 0 -158 -95v-361h-76zM320 741h91l-91 -164h-52z" />
<glyph unicode="&#x3af;" horiz-adv-x="289" d="M100 450l-73 3v54l154 5q-5 -117 -5 -215v-147q0 -54 13.5 -75t47.5 -21q17 0 45 6l9 -63q-34 -7 -63 -7q-92 0 -117 70q-11 29 -11 135v255zM162 741h91l-91 -164h-52z" />
<glyph unicode="&#x3b0;" horiz-adv-x="596" d="M100 450l-73 3v54l154 5q-5 -128 -5 -179v-85q0 -119 24.5 -158t99.5 -39t99.5 39t24.5 158v202l-77 3v54l153 5v-264q0 -128 -23 -177q-36 -81 -177 -81q-73 0 -115.5 19.5t-62.5 61.5q-22 49 -22 177v202zM185 704q20 0 33 -13t13 -33t-13 -33t-33 -13t-33 13t-13 35 q0 19 13 31.5t33 12.5zM403 704q20 0 33 -13t13 -33t-13 -33t-33 -13t-33 13t-13 35q0 19 13 31.5t33 12.5zM267 578l-14 165h82l-14 -165h-54z" />
<glyph unicode="&#x3b1;" horiz-adv-x="583" d="M534 6l-77 -16q-16 52 -25 121q-34 -67 -75.5 -94t-107.5 -27q-95 0 -146 66.5t-51 191.5q0 126 54 197.5t149 71.5q60 0 100.5 -28t69.5 -90q7 55 16 112l73 -10q-21 -115 -21 -243q0 -145 41 -252zM417 190v91q-46 175 -155 175q-64 0 -97 -53t-33 -154 q0 -198 129 -198q54 0 91.5 33.5t64.5 105.5z" />
<glyph unicode="&#x3b2;" horiz-adv-x="578" d="M163 58v-273h-81q5 92 5 223v499q0 69 7.5 102t30.5 62q56 70 166 70q92 0 150.5 -50t58.5 -129q0 -67 -40 -109.5t-109 -50.5q82 -1 128 -45q59 -54 59 -148q0 -97 -61 -158t-158 -61q-46 0 -80 15t-76 53zM163 499v-376q74 -70 150 -70q67 0 106 42t39 115 q0 74 -44 116.5t-122 42.5h-18v61q64 1 99 28q47 36 47 102q0 53 -36 86.5t-93 33.5q-83 0 -113 -63q-15 -33 -15 -118z" />
<glyph unicode="&#x3b3;" horiz-adv-x="498" d="M-31 453l-2 54l113 6q147 -253 170 -365q27 99 137 305h-60l-2 54l157 6v-32q-36 -61 -81.5 -153t-65.5 -142q-49 -121 -49 -266v-135h-81q5 47 5 110v29q0 75 -9 127t-32 115q-38 106 -138 287h-62z" />
<glyph unicode="&#x3b4;" horiz-adv-x="559" d="M456 711l-18 -63q-77 32 -162 32q-91 0 -91 -58q0 -29 21.5 -48.5t101.5 -58.5q67 -33 101.5 -59t56.5 -59q41 -62 41 -158q0 -112 -62 -180.5t-164 -68.5q-107 0 -168 65.5t-61 180.5q0 198 168 254q-62 33 -85 60.5t-23 70.5q0 120 166 120q85 0 178 -30zM296 449 l-24 13q-140 -39 -140 -230q0 -84 39.5 -132.5t109.5 -48.5q67 0 106.5 49.5t39.5 134.5q0 80 -32 133q-15 25 -34.5 41t-64.5 40z" />
<glyph unicode="&#x3b5;" horiz-adv-x="493" d="M359 233h-226q5 -86 46.5 -134t111.5 -48q72 0 140 46l29 -59q-78 -48 -170 -48q-113 0 -175.5 68t-62.5 191q0 137 68 210q57 58 155 58q81 0 165 -42v-113h-71l-8 79q-40 15 -79 15q-135 0 -149 -162h226v-61z" />
<glyph unicode="&#x3b6;" horiz-adv-x="391" d="M63 677l5 61q63 -7 154 -7h168v-76q-60 -67 -84 -96.5t-57 -78.5q-63 -90 -90.5 -162t-27.5 -143q0 -54 17.5 -77t66.5 -35q97 -23 121 -38q48 -29 48 -101q0 -67 -45 -153l-63 28q35 71 35 114q0 40 -23 58q-14 11 -64 23q-70 15 -90 22.5t-39 25.5q-43 40 -43 126 q0 229 282 502h-95q-105 0 -176 7z" />
<glyph unicode="&#x3b7;" horiz-adv-x="605" d="M104 0v450l-73 3v54l147 5v-86q46 49 87.5 70t93.5 21q95 0 129 -70q21 -43 21 -154v-305q0 -135 5 -203h-81v509q0 77 -10 108q-19 54 -85 54q-80 0 -158 -95v-361h-76z" />
<glyph unicode="&#x3b8;" horiz-adv-x="573" d="M287 741q104 0 164.5 -101.5t60.5 -275.5q0 -172 -61 -274q-57 -100 -165 -100q-106 0 -165.5 100.5t-59.5 278.5q0 170 61.5 271t164.5 101zM432 353h-291q2 -147 39.5 -224.5t106.5 -77.5q68 0 105.5 78t39.5 224zM142 414h289q-17 266 -144 266q-128 0 -145 -266z" />
<glyph unicode="&#x3b9;" horiz-adv-x="289" d="M100 450l-73 3v54l154 5q-5 -117 -5 -215v-147q0 -54 13.5 -75t47.5 -21q17 0 45 6l9 -63q-34 -7 -63 -7q-92 0 -117 70q-11 29 -11 135v255z" />
<glyph unicode="&#x3ba;" horiz-adv-x="550" d="M104 57v393l-73 3v54l149 5v-224l201 162l-62 3v54h210v-54l-57 -3l-212 -171l220 -222l61 -3v-54h-200v54l46 2l-207 211v-210l73 -3v-54h-222v54z" />
<glyph unicode="&#x3bb;" horiz-adv-x="497" d="M14 26l201 487q-42 116 -78 162l-65 2v54l113 5q69 -98 143 -324l53 -157q48 -146 91 -198l61 -3v-54h-114q-59 72 -111 236l-61 195q-23 -64 -47 -127l-99 -250h68v-54h-155v26z" />
<glyph unicode="&#x3bc;" horiz-adv-x="601" d="M27 453v54l149 5v-271q0 -90 13 -126q22 -64 96 -64t140 95v304l-73 3v54l149 5v-455l73 -3v-54h-144l-3 81q-38 -49 -73 -70t-77 -21q-61 0 -101 49v-254h-81q5 83 5 203v462z" />
<glyph unicode="&#x3bd;" horiz-adv-x="554" d="M225 0l-154 450l-72 3v54l128 6l122 -349q15 -44 32 -98q36 96 38 100l114 284l-76 3v54l161 6v-35l-195 -478h-98z" />
<glyph unicode="&#x3be;" horiz-adv-x="447" d="M70 673l4 63q118 -5 164 -5h192v-61h-21q-230 0 -230 -127q0 -56 40.5 -87t113.5 -31h58v-61h-50q-100 0 -144 -33q-56 -41 -56 -129q0 -78 46 -112q25 -18 89 -31q50 -11 70.5 -19t38.5 -25q35 -34 35 -91q0 -68 -45 -153l-63 28q35 73 35 116q0 38 -26 58 q-15 12 -75 25q-83 17 -120 46q-65 50 -65 157q0 112 72 166q30 22 80 31q-112 32 -112 135q0 50 27.5 82.5t87.5 54.5h-35q-66 0 -111 3z" />
<glyph unicode="&#x3bf;" horiz-adv-x="571" d="M286 517q104 0 168.5 -73t64.5 -191t-64.5 -190.5t-169.5 -72.5t-169 73t-64 194q0 115 65 187.5t169 72.5zM285 456q-69 0 -111 -55t-42 -146q0 -93 41.5 -148.5t111.5 -55.5t112 55t42 147t-42 147.5t-112 55.5z" />
<glyph unicode="&#x3c0;" horiz-adv-x="596" d="M110 0v446h-101v61h581v-61h-107v-279q0 -70 12.5 -92t51.5 -22q17 0 41 6l9 -59q-31 -10 -69 -10q-66 0 -93.5 34.5t-27.5 119.5v302h-221v-446h-76z" />
<glyph unicode="&#x3c1;" horiz-adv-x="587" d="M166 61v-103q0 -82 5 -173h-81v440q0 130 43 198q59 94 180 94q101 0 161.5 -72.5t60.5 -193.5q0 -119 -58.5 -190t-157.5 -71q-96 0 -153 71zM166 255v-109q49 -95 145 -95q67 0 105.5 53.5t38.5 148.5q0 94 -38.5 148.5t-104.5 54.5q-68 0 -107 -54t-39 -147z" />
<glyph unicode="&#x3c2;" horiz-adv-x="479" d="M355 -229l-63 28q35 80 35 121q0 32 -21.5 48t-121.5 57q-68 29 -100 79.5t-32 132.5q0 131 64.5 205.5t176.5 74.5q78 0 153 -39l-29 -60q-59 38 -124 38q-76 0 -118.5 -57t-42.5 -160q0 -70 26 -104.5t103 -66.5q79 -33 103 -56q36 -34 36 -83q0 -68 -45 -158z" />
<glyph unicode="&#x3c3;" horiz-adv-x="583" d="M535 445l-110 4q82 -73 82 -203q0 -121 -58 -188.5t-162 -67.5q-111 0 -173 69.5t-62 194.5q0 119 61 191t163 72q24 0 81 -6q48 -4 57 -4h121v-62zM278 456q-69 0 -107.5 -53.5t-38.5 -148.5q0 -97 40.5 -150t113.5 -53q69 0 105 50.5t36 145.5q0 97 -40 153t-109 56z " />
<glyph unicode="&#x3c4;" horiz-adv-x="432" d="M156 446h-155v61h416v-61h-185v-279q0 -67 10 -86q13 -28 53 -28q27 0 61 13l10 -61q-50 -15 -88 -15q-67 0 -94.5 34.5t-27.5 119.5v302z" />
<glyph unicode="&#x3c5;" horiz-adv-x="596" d="M100 450l-73 3v54l154 5q-5 -128 -5 -179v-85q0 -119 24.5 -158t99.5 -39t99.5 39t24.5 158v202l-77 3v54l153 5v-264q0 -128 -23 -177q-36 -81 -177 -81q-73 0 -115.5 19.5t-62.5 61.5q-22 49 -22 177v202z" />
<glyph unicode="&#x3c6;" horiz-adv-x="708" d="M317 -215v209q-114 13 -173 53q-92 63 -92 202q0 205 183 254l16 -52q-57 -24 -80 -53q-41 -49 -41 -147q0 -187 187 -201v465q28 2 45 2q141 0 214 -67q80 -75 80 -193q0 -74 -34 -134t-95 -92q-54 -28 -139 -37v-209h-71zM388 463v-413q92 8 141 62t49 145t-51 146.5 t-139 59.5z" />
<glyph unicode="&#x3c7;" horiz-adv-x="488" d="M201 181l-26 57q-88 185 -110 215h-61v54l111 6q30 -48 103 -203l39 -81l125 224h-62l-2 54l153 6v-32l-184 -316l86 -182q55 -116 88 -141l51 -3v-54h-90q-25 13 -52.5 54t-66.5 126l-72 153l-159 -279l60 -2v-52h-153v32z" />
<glyph unicode="&#x3c8;" horiz-adv-x="734" d="M331 -29v19q-152 4 -209 60t-57 203q0 85 18 200h-64v54l148 6q-26 -135 -26 -251q0 -119 40.5 -164.5t149.5 -46.5v402h-64v54l136 6v-462q108 2 149 47t41 164q0 88 -16 191h-64v54l128 6q28 -159 28 -260q0 -147 -57 -203t-209 -60v-205h-77q5 88 5 186z" />
<glyph unicode="&#x3c9;" horiz-adv-x="735" d="M499 507l129 6q50 -147 50 -278q0 -126 -42.5 -185.5t-131.5 -59.5q-93 0 -139 90q-47 -90 -136 -90q-82 0 -128 60.5t-46 170.5q0 107 55 232h-62v54l150 6v-32q-66 -117 -66 -254q0 -176 103 -176q60 0 81 54q11 27 11 98v174h76v-174q0 -81 16 -109q24 -43 80 -43 q55 0 78.5 42t23.5 140q0 116 -40 220h-62v54z" />
<glyph unicode="&#x3ca;" horiz-adv-x="289" d="M100 450l-73 3v54l154 5q-5 -117 -5 -215v-147q0 -54 13.5 -75t47.5 -21q17 0 45 6l9 -63q-34 -7 -63 -7q-92 0 -117 70q-11 29 -11 135v255zM37 710q23 0 37.5 -14.5t14.5 -37.5t-14.5 -37.5t-37.5 -14.5t-37.5 15t-14.5 39q0 22 14.5 36t37.5 14zM227 710 q23 0 37.5 -14.5t14.5 -37.5t-14.5 -37.5t-37.5 -14.5t-37.5 15t-14.5 39q0 22 14.5 36t37.5 14z" />
<glyph unicode="&#x3cb;" horiz-adv-x="596" d="M100 450l-73 3v54l154 5q-5 -128 -5 -179v-85q0 -119 24.5 -158t99.5 -39t99.5 39t24.5 158v202l-77 3v54l153 5v-264q0 -128 -23 -177q-36 -81 -177 -81q-73 0 -115.5 19.5t-62.5 61.5q-22 49 -22 177v202zM203 710q23 0 37.5 -14.5t14.5 -37.5t-14.5 -37.5t-37.5 -14.5 t-37.5 15t-14.5 39q0 22 14.5 36t37.5 14zM393 710q23 0 37.5 -14.5t14.5 -37.5t-14.5 -37.5t-37.5 -14.5t-37.5 15t-14.5 39q0 22 14.5 36t37.5 14z" />
<glyph unicode="&#x3cc;" horiz-adv-x="571" d="M286 517q104 0 168.5 -73t64.5 -191t-64.5 -190.5t-169.5 -72.5t-169 73t-64 194q0 115 65 187.5t169 72.5zM285 456q-69 0 -111 -55t-42 -146q0 -93 41.5 -148.5t111.5 -55.5t112 55t42 147t-42 147.5t-112 55.5zM303 741h91l-91 -164h-52z" />
<glyph unicode="&#x3cd;" horiz-adv-x="596" d="M100 450l-73 3v54l154 5q-5 -128 -5 -179v-85q0 -119 24.5 -158t99.5 -39t99.5 39t24.5 158v202l-77 3v54l153 5v-264q0 -128 -23 -177q-36 -81 -177 -81q-73 0 -115.5 19.5t-62.5 61.5q-22 49 -22 177v202zM308 741h91l-91 -164h-52z" />
<glyph unicode="&#x3ce;" horiz-adv-x="735" d="M499 507l129 6q50 -147 50 -278q0 -126 -42.5 -185.5t-131.5 -59.5q-93 0 -139 90q-47 -90 -136 -90q-82 0 -128 60.5t-46 170.5q0 107 55 232h-62v54l150 6v-32q-66 -117 -66 -254q0 -176 103 -176q60 0 81 54q11 27 11 98v174h76v-174q0 -81 16 -109q24 -43 80 -43 q55 0 78.5 42t23.5 140q0 116 -40 220h-62v54zM379 741h91l-91 -164h-52z" />
<glyph unicode="&#x401;" horiz-adv-x="571" d="M113 57v578l-80 3v54h455v-176h-71l-8 110h-216v-242h197v-66h-197v-252h231l8 110h71v-176h-470v54zM191 880q23 0 37.5 -14.5t14.5 -37.5t-14.5 -37.5t-37.5 -14.5t-37.5 15t-14.5 39q0 22 14.5 36t37.5 14zM381 880q23 0 37.5 -14.5t14.5 -37.5t-14.5 -37.5 t-37.5 -14.5t-37.5 15t-14.5 39q0 22 14.5 36t37.5 14z" />
<glyph unicode="&#x402;" horiz-adv-x="768" d="M221 57v569h-133l-8 -110h-71v176h525v-176h-70l-9 110h-154v-270q59 53 110 75.5t110 22.5q102 0 135 -74q21 -45 21 -160v-82q0 -118 -10 -176.5t-37 -95.5q-51 -72 -183 -81v64q92 7 124 67q26 49 26 211v90q0 101 -19 136t-75 35q-50 0 -96 -25t-106 -84v-222l110 -3 v-54h-300v54z" />
<glyph unicode="&#x403;" horiz-adv-x="515" d="M113 57v578l-80 3v54h457v-176h-71l-8 110h-218v-569l80 -3v-54h-240v54zM318 901h97l-146 -146h-73z" />
<glyph unicode="&#x404;" horiz-adv-x="573" d="M462 321h-318q8 -137 56 -201t142 -64q80 0 168 47l28 -60q-99 -53 -199 -53q-137 0 -208.5 90.5t-71.5 265.5t69 265.5t203 90.5q97 0 188 -45v-141h-71l-8 102q-55 18 -104 18q-92 0 -137 -58.5t-53 -190.5h316v-66z" />
<glyph unicode="&#x405;" horiz-adv-x="552" d="M62 32v144h71l8 -92q58 -28 121 -28q66 0 107 34t41 89q0 48 -33 76q-29 23 -121 58q-106 41 -141 68q-56 44 -56 129q0 91 59.5 141.5t165.5 50.5q83 0 182 -36v-150h-71l-7 94q-52 26 -106 26q-66 0 -103 -30.5t-37 -84.5q0 -46 27 -71t114 -60q77 -30 105 -44t51 -32 q54 -42 54 -126q0 -91 -64 -144.5t-173 -53.5q-98 0 -194 42z" />
<glyph unicode="&#x406;" horiz-adv-x="318" d="M119 57v578l-80 3v54h240v-54l-80 -3v-578l80 -3v-54h-240v54z" />
<glyph unicode="&#x407;" horiz-adv-x="296" d="M108 57v578l-80 3v54h240v-54l-80 -3v-578l80 -3v-54h-240v54zM53 880q23 0 37.5 -14.5t14.5 -37.5t-14.5 -37.5t-37.5 -14.5t-37.5 15t-14.5 39q0 22 14.5 36t37.5 14zM243 880q23 0 37.5 -14.5t14.5 -37.5t-14.5 -37.5t-37.5 -14.5t-37.5 15t-14.5 39q0 22 14.5 36 t37.5 14z" />
<glyph unicode="&#x408;" horiz-adv-x="408" d="M301 635v-409q0 -74 -7 -112t-26 -63q-43 -61 -142 -61q-58 0 -109 20l7 66q46 -20 94 -20q72 0 90 49q13 34 13 156v374l-90 3v54h244v-54z" />
<glyph unicode="&#x409;" horiz-adv-x="878" d="M429 57v569h-237v-422q0 -77 -10 -113.5t-36 -58.5q-36 -29 -129 -32v54q63 7 80 36.5t17 134.5v410l-79 3v54h574v-54l-100 -3v-203h57q83 0 116 -5.5t65 -23.5q88 -52 88 -187t-88 -187q-32 -18 -65 -23.5t-116 -5.5h-217v54zM509 65h36q67 0 98.5 5t53.5 19 q53 34 53 127t-53 127q-22 14 -53.5 19t-98.5 5h-36v-302z" />
<glyph unicode="&#x40a;" horiz-adv-x="961" d="M113 57v578l-80 3v54h240v-54l-80 -3v-223h293v223l-80 3v54h240v-54l-80 -3v-223h83q84 0 117 -5t64 -23q88 -49 88 -178t-88 -178q-31 -18 -64.5 -23t-116.5 -5h-243v54l80 3v290h-293v-290l80 -3v-54h-240v54zM566 65h62q114 0 152 22q53 33 53 119t-53 119 q-38 22 -152 22h-62v-282z" />
<glyph unicode="&#x40b;" horiz-adv-x="794" d="M221 57v569h-133l-8 -110h-71v176h525v-176h-70l-9 110h-154v-270q60 53 111 75.5t112 22.5q105 0 143 -71q22 -41 22 -153v-173l80 -3v-54h-248v54l88 3v169q0 95 -21 128.5t-82 33.5q-52 0 -99 -25t-106 -84v-222l88 -3v-54h-258v54z" />
<glyph unicode="&#x40c;" horiz-adv-x="630" d="M113 57v578l-80 3v54h240v-54l-80 -3v-257h68q48 0 77 31q19 19 49 87l62 139l-56 3v54h202v-54l-59 -3l-84 -173q-26 -54 -47 -75t-69 -37q76 -19 139 -129l91 -164l75 -3v-54h-138l-105 190q-53 94 -91 118q-21 15 -67 15h-47v-266l80 -3v-54h-240v54zM375 901h97 l-146 -146h-73z" />
<glyph unicode="&#x40e;" horiz-adv-x="590" d="M274 137l-221 498l-67 3v54h240v-54l-87 -3l115 -270q12 -31 59 -144q36 96 54 141l110 273l-87 3v54h232v-54l-66 -3l-195 -470q-28 -68 -40 -90t-29 -41q-41 -44 -116 -44q-32 0 -60 7l11 64q24 -9 50 -9q37 0 57.5 18t39.5 67zM162 887h66q8 -94 81 -94t81 94h65 q-3 -72 -40.5 -110t-105.5 -38t-105.5 38t-41.5 110z" />
<glyph unicode="&#x40f;" horiz-adv-x="690" d="M113 57v578l-80 3v54h240v-54l-80 -3v-569h304v569l-80 3v54h240v-54l-80 -3v-578l80 -3v-54h-266l-14 -168h-64l-14 168h-266v54z" />
<glyph unicode="&#x410;" horiz-adv-x="641" d="M447 242h-258l-65 -185l86 -3v-54h-237v54l70 3l226 635h101l228 -635l70 -3v-54h-242v54l86 3zM423 308l-62 182q-24 69 -42 134q-13 -43 -19 -62q-2 -8 -24 -72l-63 -182h210z" />
<glyph unicode="&#x411;" horiz-adv-x="578" d="M113 57v578l-80 3v54h445v-176h-71l-8 110h-206v-194h44q85 0 121 -5.5t69 -23.5q92 -51 92 -187q0 -135 -92 -187q-31 -17 -65.5 -23t-103.5 -6h-225v54zM193 65h44q101 0 141 24q56 34 56 127t-56 127q-40 24 -141 24h-44v-302z" />
<glyph unicode="&#x412;" horiz-adv-x="574" d="M113 57v578l-80 3v54h188q131 0 187 -23q44 -17 68 -58t24 -98q0 -71 -33 -109t-107 -51q159 -18 159 -169q0 -115 -88 -158q-33 -17 -65.5 -21.5t-115.5 -4.5h-217v54zM193 382h36q101 0 138 22q48 30 48 100q0 76 -48 102q-38 21 -138 21h-36v-245zM193 65h36 q116 0 152 20q53 27 53 108q0 84 -70 111q-39 16 -135 16h-36v-255z" />
<glyph unicode="&#x413;" horiz-adv-x="515" d="M113 57v578l-80 3v54h457v-176h-71l-8 110h-218v-569l80 -3v-54h-240v54z" />
<glyph unicode="&#x414;" horiz-adv-x="643" d="M531 0h-469l-13 -168h-66v234h73q38 63 56 185q24 160 24 346v37l-74 4v54h542v-54l-73 -3v-569h79v-234h-66zM451 66v560h-238v-45q0 -158 -23 -319q-19 -121 -53 -196h314z" />
<glyph unicode="&#x415;" horiz-adv-x="571" d="M113 57v578l-80 3v54h455v-176h-71l-8 110h-216v-242h197v-66h-197v-252h231l8 110h71v-176h-470v54z" />
<glyph unicode="&#x416;" horiz-adv-x="892" d="M407 57v266h-17q-46 0 -68 -15q-39 -25 -90 -118l-105 -190h-138v54l75 3l91 164q63 113 139 129q-43 12 -66 32.5t-43 64.5l-91 188l-59 3v54h202v-54l-58 -3l71 -154q29 -64 53.5 -83.5t75.5 -19.5h28v257l-68 3v54h214v-54l-68 -3v-257h28q51 0 75.5 19.5t53.5 83.5 l71 154l-58 3v54h202v-54l-59 -3l-91 -188q-20 -44 -43 -64.5t-66 -32.5q76 -16 139 -129l91 -164l75 -3v-54h-138l-105 190q-51 93 -90 118q-22 15 -68 15h-17v-266l68 -3v-54h-214v54z" />
<glyph unicode="&#x417;" horiz-adv-x="554" d="M43 28l18 64q99 -38 180 -38q83 0 127 36.5t44 105.5q0 71 -52.5 104.5t-164.5 33.5q-31 0 -54 -2v66q24 -2 59 -2q95 0 149 35.5t54 98.5q0 52 -38 80t-109 28q-56 0 -120 -20l-7 -102h-71v143q105 43 202 43q107 0 165.5 -43.5t58.5 -123.5q0 -64 -36.5 -108 t-101.5 -59q69 -18 100 -48q47 -45 47 -123q0 -98 -65.5 -152.5t-182.5 -54.5q-102 0 -202 38z" />
<glyph unicode="&#x418;" horiz-adv-x="719" d="M113 57v578l-80 3v54h240v-54l-80 -3v-452l333 435v17l-80 3v54h240v-54l-80 -3v-578l80 -3v-54h-240v54l80 3v457l-333 -436v-21l80 -3v-54h-240v54z" />
<glyph unicode="&#x419;" horiz-adv-x="719" d="M113 57v578l-80 3v54h240v-54l-80 -3v-452l333 435v17l-80 3v54h240v-54l-80 -3v-578l80 -3v-54h-240v54l80 3v457l-333 -436v-21l80 -3v-54h-240v54zM213 887h66q8 -94 81 -94t81 94h65q-3 -72 -40.5 -110t-105.5 -38t-105.5 38t-41.5 110z" />
<glyph unicode="&#x41a;" horiz-adv-x="630" d="M113 57v578l-80 3v54h240v-54l-80 -3v-257h68q48 0 77 31q19 19 49 87l62 139l-56 3v54h202v-54l-59 -3l-84 -173q-26 -54 -47 -75t-69 -37q76 -19 139 -129l91 -164l75 -3v-54h-138l-105 190q-53 94 -91 118q-21 15 -67 15h-47v-266l80 -3v-54h-240v54z" />
<glyph unicode="&#x41b;" horiz-adv-x="642" d="M114 635l-79 3v54h574v-54l-80 -3v-578l80 -3v-54h-240v54l80 3v569h-257v-422q0 -77 -10 -113.5t-36 -58.5q-36 -29 -129 -32v54q63 7 80 36.5t17 134.5v410z" />
<glyph unicode="&#x41c;" horiz-adv-x="898" d="M113 57v578l-80 3v54h190l196 -524q23 -61 34 -96q24 72 33 96l191 524h188v-54l-80 -3v-578l80 -3v-54h-234v54l74 3v527q-36 -113 -59 -176l-152 -408h-87l-156 403q-27 73 -62 181v-527l74 -3v-54h-230v54z" />
<glyph unicode="&#x41d;" horiz-adv-x="719" d="M113 57v578l-80 3v54h240v-54l-80 -3v-248h333v248l-80 3v54h240v-54l-80 -3v-578l80 -3v-54h-240v54l80 3v264h-333v-264l80 -3v-54h-240v54z" />
<glyph unicode="&#x41e;" horiz-adv-x="730" d="M365 702q150 0 232 -112q74 -102 74 -244q0 -168 -97 -271q-76 -85 -209 -85q-150 0 -232 112q-74 101 -74 248q0 76 25.5 147.5t70.5 120.5q78 84 210 84zM365 636q-101 0 -161 -77.5t-60 -209.5q0 -136 59 -214.5t162 -78.5q102 0 161.5 78t59.5 212t-59.5 212 t-161.5 78z" />
<glyph unicode="&#x41f;" horiz-adv-x="713" d="M113 57v578l-80 3v54h647v-54l-80 -3v-578l80 -3v-54h-240v54l80 3v569h-327v-569l80 -3v-54h-240v54z" />
<glyph unicode="&#x420;" horiz-adv-x="541" d="M113 57v578l-80 3v54h214q125 0 181 -37q80 -50 80 -165q0 -56 -24 -100t-67 -66q-61 -32 -180 -32h-44v-235l92 -3v-54h-252v54zM193 358h33q102 0 141 21q56 29 56 111q0 75 -49 109q-38 27 -136 27h-45v-268z" />
<glyph unicode="&#x421;" horiz-adv-x="591" d="M538 93l20 -64q-96 -39 -182 -39q-143 0 -230 96.5t-87 253.5q0 164 86 263t229 99q77 0 168 -30v-156h-71l-8 105q-46 15 -90 15q-102 0 -165.5 -82t-63.5 -214q0 -130 63.5 -207t169.5 -77q78 0 161 37z" />
<glyph unicode="&#x422;" horiz-adv-x="560" d="M238 57v569h-150l-9 -110h-70v176h542v-176h-71l-8 110h-154v-569l110 -3v-54h-300v54z" />
<glyph unicode="&#x423;" horiz-adv-x="590" d="M274 137l-221 498l-67 3v54h240v-54l-87 -3l115 -270q12 -31 59 -144q36 96 54 141l110 273l-87 3v54h232v-54l-66 -3l-195 -470q-28 -68 -40 -90t-29 -41q-41 -44 -116 -44q-32 0 -60 7l11 64q24 -9 50 -9q37 0 57.5 18t39.5 67z" />
<glyph unicode="&#x424;" horiz-adv-x="821" d="M375 -1v61q-146 10 -231 87t-85 199t85 199t231 87v61l-79 3v54h230v-54l-80 -3v-61q146 -10 231.5 -87t85.5 -199t-85.5 -199t-231.5 -87v-61l80 -3v-54h-230v54zM446 575v-458q109 9 172 70.5t63 158.5t-63 158.5t-172 70.5zM375 117v458q-108 -10 -171 -71t-63 -158 t63 -158t171 -71z" />
<glyph unicode="&#x425;" horiz-adv-x="633" d="M-6 0v54l63 3l209 304l-184 274l-69 3v54h236v-54l-77 -3l150 -221l147 221l-74 3v54h227v-54l-69 -3l-189 -284l198 -294l71 -3v-54h-240v54l77 3l-162 241l-163 -241l81 -3v-54h-232z" />
<glyph unicode="&#x426;" horiz-adv-x="696" d="M113 57v578l-80 3v54h240v-54l-80 -3v-569h304v569l-80 3v54h240v-54l-80 -3v-569h86v-234h-66l-13 168h-551v54z" />
<glyph unicode="&#x427;" horiz-adv-x="665" d="M472 57v200q-94 -87 -204 -87q-109 0 -149 70q-24 42 -24 154v241l-70 3v54h230v-54l-80 -3v-237q0 -78 13 -108q23 -54 104 -54q92 0 180 95v304l-80 3v54h240v-54l-80 -3v-578l80 -3v-54h-260v54z" />
<glyph unicode="&#x428;" horiz-adv-x="994" d="M113 57v578l-80 3v54h240v-54l-80 -3v-569h264v569l-72 3v54h224v-54l-72 -3v-569h264v569l-80 3v54h240v-54l-80 -3v-578l80 -3v-54h-928v54z" />
<glyph unicode="&#x429;" horiz-adv-x="1000" d="M113 57v578l-80 3v54h240v-54l-80 -3v-569h264v569l-72 3v54h224v-54l-72 -3v-569h264v569l-80 3v54h240v-54l-80 -3v-569h86v-234h-66l-13 168h-855v54z" />
<glyph unicode="&#x42a;" horiz-adv-x="694" d="M245 57v569h-156l-8 -110h-65v176h389v-54l-80 -3v-203h57q83 0 116 -5.5t65 -23.5q88 -52 88 -187t-88 -187q-32 -18 -65 -23.5t-116 -5.5h-217v54zM325 65h36q67 0 98.5 5t53.5 19q53 34 53 127t-53 127q-22 14 -53.5 19t-98.5 5h-36v-302z" />
<glyph unicode="&#x42b;" horiz-adv-x="826" d="M113 57v578l-80 3v54h260v-54l-100 -3v-203h57q83 0 116 -5.5t65 -23.5q88 -52 88 -187t-88 -187q-32 -18 -65 -23.5t-116 -5.5h-217v54zM193 65h36q67 0 98.5 5t53.5 19q53 34 53 127t-53 127q-22 14 -53.5 19t-98.5 5h-36v-302zM633 57v578l-80 3v54h240v-54l-80 -3 v-578l80 -3v-54h-240v54z" />
<glyph unicode="&#x42c;" horiz-adv-x="562" d="M113 57v578l-80 3v54h260v-54l-100 -3v-203h57q83 0 116 -5.5t65 -23.5q88 -52 88 -187t-88 -187q-32 -18 -65 -23.5t-116 -5.5h-217v54zM193 65h36q67 0 98.5 5t53.5 19q53 34 53 127t-53 127q-22 14 -53.5 19t-98.5 5h-36v-302z" />
<glyph unicode="&#x42d;" horiz-adv-x="573" d="M110 321v66h316q-8 132 -53 190.5t-137 58.5q-49 0 -104 -18l-8 -102h-71v141q92 45 188 45q134 0 203 -90.5t69 -265.5t-71.5 -265.5t-208.5 -90.5q-102 0 -199 53l28 60q88 -47 168 -47q94 0 142 64t56 201h-318z" />
<glyph unicode="&#x42e;" horiz-adv-x="990" d="M113 57v578l-80 3v54h240v-54l-80 -3v-248h167q7 93 50 174q76 141 235 141q141 0 217 -112q69 -101 69 -244q0 -167 -90 -271q-72 -85 -196 -85q-157 0 -234 141q-48 90 -51 190h-167v-264l80 -3v-54h-240v54zM645 636q-92 0 -146.5 -77.5t-54.5 -209.5 q0 -137 53.5 -215t147.5 -78q93 0 147 78t54 212t-54 212t-147 78z" />
<glyph unicode="&#x42f;" horiz-adv-x="596" d="M403 307h-54q-77 0 -105.5 -22t-66.5 -112l-73 -173h-130v54l68 3l62 153q29 71 46.5 92t58.5 34q-71 16 -109 61t-38 113q0 103 81 151q55 31 163 31h257v-54l-80 -3v-578l80 -3v-54h-240v54l80 3v250zM403 373v253h-79q-83 0 -121 -19q-56 -30 -56 -105q0 -80 65 -109 q41 -20 124 -20h67z" />
<glyph unicode="&#x430;" horiz-adv-x="527" d="M358 0l-3 59q-65 -69 -151 -69q-74 0 -116.5 40t-42.5 110q0 102 88 144q51 23 143 23q31 0 73 -2v14q0 72 -27 104.5t-88 32.5t-131 -44l-33 54q79 51 172 51q117 0 158 -69q15 -24 20 -55.5t5 -100.5v-235l73 -3v-54h-140zM349 129v118q-22 2 -57 2q-86 0 -126.5 -26 t-40.5 -82q0 -41 25 -65.5t67 -24.5q79 0 132 78z" />
<glyph unicode="&#x431;" horiz-adv-x="555" d="M456 738l7 -59q-30 -5 -117 -13q-98 -8 -129.5 -20t-53.5 -52q-26 -50 -26 -168q41 51 76 71t85 20q92 0 147.5 -71.5t55.5 -190.5t-60.5 -192t-160.5 -73q-111 0 -171 85q-50 74 -50 228q0 262 52 340q32 49 100 66q34 9 123 16q59 4 122 13zM138 342v-33 q0 -121 27 -178q37 -80 116 -80q64 0 102 56t38 149t-36 146.5t-98 53.5q-87 0 -149 -114z" />
<glyph unicode="&#x432;" horiz-adv-x="553" d="M106 57v393l-73 3v54h276q175 0 175 -128q0 -42 -22 -67.5t-73 -43.5q61 -17 87 -45.5t26 -78.5q0 -69 -48 -106.5t-136 -37.5h-285v54zM182 59h130q52 0 81 23t29 64t-30 63.5t-86 22.5h-124v-173zM182 291h130q44 0 68 21t24 60q0 76 -105 76h-117v-157z" />
<glyph unicode="&#x433;" horiz-adv-x="439" d="M106 57v393l-73 3v54h383v-155h-71l-8 94h-155v-389l73 -3v-54h-222v54z" />
<glyph unicode="&#x434;" horiz-adv-x="570" d="M465 0h-409l-10 -148h-61v209h66q80 122 84 389l-73 3v54h469v-54l-73 -3v-389h79v-209h-62zM382 61v385h-179v-21q0 -49 -8 -120t-19 -114q-17 -67 -49 -130h255z" />
<glyph unicode="&#x435;" horiz-adv-x="540" d="M485 233h-350q9 -94 48.5 -138t114.5 -44q71 0 139 48l29 -59q-79 -50 -169 -50q-113 0 -177.5 70t-64.5 193t59 193.5t162 70.5q135 0 181 -111q27 -61 28 -173zM137 294h267q-2 79 -36 120.5t-95 41.5t-97 -43t-39 -119z" />
<glyph unicode="&#x436;" horiz-adv-x="770" d="M348 57v181h-42q-30 0 -50 -17t-43 -63l-81 -158h-123v54l69 3l45 87q29 55 52.5 81.5t52.5 36.5q-34 15 -52 35.5t-45 74.5l-41 78l-64 3v54h197v-54l-57 -3l25 -51q34 -72 59.5 -90.5t89.5 -18.5h8v160l-53 3v54h180v-54l-53 -3v-160h8q64 0 89.5 18.5t59.5 90.5l25 51 l-57 3v54h197v-54l-64 -3l-41 -78q-27 -54 -45 -74.5t-52 -35.5q29 -10 52.5 -36.5t52.5 -81.5l45 -87l69 -3v-54h-123l-81 158q-23 46 -43 63t-50 17h-42v-181l53 -3v-54h-180v54z" />
<glyph unicode="&#x437;" horiz-adv-x="468" d="M122 236v62h6l11 -1q5 -1 25 -1q165 0 165 89q0 34 -26.5 53t-75.5 19q-50 0 -101 -18l-8 -77h-71v114q91 41 185 41q84 0 129 -33.5t45 -95.5q0 -85 -79 -119q86 -26 86 -122q0 -77 -50 -117t-146 -40q-92 0 -184 42l21 63q76 -44 159 -44q58 0 89.5 24.5t31.5 69.5 q0 49 -40.5 71t-129.5 22q-21 0 -42 -2z" />
<glyph unicode="&#x438;" horiz-adv-x="608" d="M106 57v393l-73 3v54h222v-54l-75 -3v-284l248 263v21l-75 3v54h222v-54l-73 -3v-393l73 -3v-54h-222v54l75 3v287l-248 -263v-24l75 -3v-54h-222v54z" />
<glyph unicode="&#x439;" horiz-adv-x="608" d="M106 57v393l-73 3v54h222v-54l-75 -3v-284l248 263v21l-75 3v54h222v-54l-73 -3v-393l73 -3v-54h-222v54l75 3v287l-248 -263v-24l75 -3v-54h-222v54zM157 715h66q8 -94 81 -94t81 94h65q-3 -71 -41 -109.5t-105 -38.5t-105 38.5t-42 109.5z" />
<glyph unicode="&#x43a;" horiz-adv-x="568" d="M106 57v393l-73 3v54h226v-54l-73 -3v-160h66q55 0 75 23q24 26 49 86l21 51l-62 3v54h205v-54l-64 -3l-35 -77q-23 -56 -42.5 -77.5t-60.5 -34.5q32 -11 54 -35t51 -82l45 -87l69 -3v-54h-127l-81 158q-23 46 -43 63t-50 17h-70v-181l73 -3v-54h-226v54z" />
<glyph unicode="&#x43b;" horiz-adv-x="547" d="M103 450l-73 3v54h484v-54l-73 -3v-393l73 -3v-54h-222v54l73 3v389h-189v-252q0 -76 -9 -111.5t-32 -54.5q-33 -27 -118 -28v55q55 2 70.5 30t15.5 125v240z" />
<glyph unicode="&#x43c;" horiz-adv-x="755" d="M106 57v393l-73 3v54h170l157 -376q7 -16 21 -53q14 36 21 53l153 376h167v-54l-73 -3v-393l73 -3v-54h-214v54l72 3v365q-23 -75 -52 -145l-116 -277h-66l-120 278q-23 54 -54 147v-368l73 -3v-54h-212v54z" />
<glyph unicode="&#x43d;" horiz-adv-x="611" d="M106 57v393l-73 3v54h222v-54l-73 -3v-160h247v160l-73 3v54h222v-54l-73 -3v-393l73 -3v-54h-222v54l73 3v172h-247v-172l73 -3v-54h-222v54z" />
<glyph unicode="&#x43e;" horiz-adv-x="577" d="M289 517q104 0 168.5 -73t64.5 -191t-64.5 -190.5t-169.5 -72.5t-169 73t-64 194q0 115 65 187.5t169 72.5zM288 456q-69 0 -111 -55t-42 -146q0 -93 41.5 -148.5t111.5 -55.5t112 55t42 147t-42 147.5t-112 55.5z" />
<glyph unicode="&#x43f;" horiz-adv-x="601" d="M106 57v393l-73 3v54h535v-54l-73 -3v-393l73 -3v-54h-222v54l73 3v389h-237v-389l73 -3v-54h-222v54z" />
<glyph unicode="&#x440;" horiz-adv-x="586" d="M106 -158v608l-73 3v54l143 5v-82q64 87 155 87q88 0 144 -72.5t56 -187.5q0 -120 -56 -193.5t-148 -73.5q-46 0 -78 17.5t-67 61.5v-227l83 -3v-54h-232v54zM182 363v-217q34 -52 64 -73.5t69 -21.5q63 0 99.5 55t36.5 149q0 93 -36.5 147t-98.5 54q-79 0 -134 -93z" />
<glyph unicode="&#x441;" horiz-adv-x="492" d="M438 490v-138h-71l-8 92q-41 12 -74 12q-72 0 -111 -51.5t-39 -146.5q0 -97 42 -152t116 -55q67 0 129 45l29 -59q-73 -47 -159 -47q-111 0 -174 69t-63 190q0 136 72 208q60 60 162 60q79 0 149 -27z" />
<glyph unicode="&#x442;" horiz-adv-x="513" d="M218 57v389h-116l-7 -92h-70v153h463v-153h-71l-6 92h-117v-389l87 -3v-54h-250v54z" />
<glyph unicode="&#x443;" horiz-adv-x="507" d="M221 -7l-178 457l-58 3v54h220v-54l-81 -3l94 -246q22 -60 41 -116q24 70 43 119l91 243l-81 3v54h210v-54l-58 -3l-185 -493q-38 -103 -78.5 -142.5t-106.5 -39.5q-35 0 -75 10l14 62q30 -11 56 -11q46 0 76.5 36.5t55.5 120.5z" />
<glyph unicode="&#x444;" horiz-adv-x="810" d="M371 -158v227q-32 -45 -60.5 -62t-70.5 -17q-83 0 -134.5 74t-51.5 193q0 115 51.5 187.5t132.5 72.5q78 0 133 -74v231l-73 3v54l141 5v-293q53 74 133 74q81 0 132.5 -72.5t51.5 -187.5q0 -120 -51.5 -193.5t-134.5 -73.5q-42 0 -70.5 17t-60.5 62v-227l93 -3v-54h-254 v54zM371 146v217q-48 93 -118 93q-55 0 -87 -54t-32 -147q0 -94 32.5 -149t87.5 -55q35 0 61 21.5t56 73.5zM439 363v-217q30 -52 56 -73.5t61 -21.5q55 0 87.5 55t32.5 149q0 93 -32 147t-87 54q-70 0 -118 -93z" />
<glyph unicode="&#x445;" horiz-adv-x="532" d="M13 0v54l52 3l153 210l-132 183l-54 3v54h202v-54l-58 -3l94 -131l94 131l-58 3v54h194v-54l-55 -3l-136 -186l150 -207l52 -3v-54h-211v54l70 3l-112 155l-109 -155l69 -3v-54h-205z" />
<glyph unicode="&#x446;" horiz-adv-x="601" d="M106 57v393l-73 3v54h222v-54l-73 -3v-389h231v389l-73 3v54h222v-54l-73 -3v-389h79v-209h-62l-10 148h-463v54z" />
<glyph unicode="&#x447;" horiz-adv-x="593" d="M411 57v151q-45 -38 -82 -53t-87 -15q-91 0 -125 52q-19 30 -19 114v144l-73 3v54h222v-54l-73 -3v-141q0 -63 17.5 -85.5t66.5 -22.5q74 0 153 70v179l-73 3v54h222v-54l-73 -3v-393l73 -3v-54h-250v54z" />
<glyph unicode="&#x448;" horiz-adv-x="856" d="M106 57v393l-73 3v54h216v-54l-67 -3v-389h208v389l-67 3v54h210v-54l-67 -3v-389h208v389l-67 3v54h216v-54l-73 -3v-393l73 -3v-54h-790v54z" />
<glyph unicode="&#x449;" horiz-adv-x="862" d="M106 57v393l-73 3v54h216v-54l-67 -3v-389h208v389l-67 3v54h210v-54l-67 -3v-389h208v389l-67 3v54h216v-54l-73 -3v-389h79v-209h-62l-10 148h-724v54z" />
<glyph unicode="&#x44a;" horiz-adv-x="615" d="M216 57v391h-125l-6 -94h-71v153h345v-54l-67 -3v-116h77q69 0 96.5 -4t52.5 -18q72 -38 72 -146q0 -106 -72 -144q-25 -14 -52.5 -18t-96.5 -4h-226v54zM292 60h63q87 0 117 18q40 24 40 89t-40 89q-30 18 -117 18h-63v-214z" />
<glyph unicode="&#x44b;" horiz-adv-x="760" d="M106 57v393l-73 3v54h216v-54l-67 -3v-116h77q69 0 96.5 -4t52.5 -18q72 -38 72 -146q0 -106 -72 -144q-25 -14 -52.5 -18t-96.5 -4h-226v54zM182 60h63q87 0 117 18q40 24 40 89t-40 89q-30 18 -117 18h-63v-214zM578 57v393l-73 3v54h222v-54l-73 -3v-393l73 -3v-54 h-222v54z" />
<glyph unicode="&#x44c;" horiz-adv-x="506" d="M106 57v393l-73 3v54h216v-54l-67 -3v-116h77q69 0 96.5 -4t52.5 -18q72 -38 72 -146q0 -106 -72 -144q-25 -14 -52.5 -18t-96.5 -4h-226v54zM182 60h63q87 0 117 18q40 24 40 89t-40 89q-30 18 -117 18h-63v-214z" />
<glyph unicode="&#x44d;" horiz-adv-x="497" d="M35 38l29 59q69 -46 141 -46q70 0 111 47t46 135h-236v61h236q-7 82 -44 122t-105 40q-39 0 -79 -15l-8 -79h-71v113q84 42 165 42q114 0 170 -77q53 -70 53 -191q0 -123 -62.5 -191t-175.5 -68q-94 0 -170 48z" />
<glyph unicode="&#x44e;" horiz-adv-x="825" d="M106 57v393l-73 3v54h222v-54l-73 -3v-160h143q11 104 71 165.5t151 61.5q100 0 162 -72.5t62 -190.5t-61.5 -191t-161.5 -73q-122 0 -185 107q-31 52 -38 132h-143v-172l73 -3v-54h-222v54zM547 456q-65 0 -104 -55t-39 -146q0 -93 39 -148.5t104 -55.5t104.5 55 t39.5 147t-39.5 147.5t-104.5 55.5z" />
<glyph unicode="&#x44f;" horiz-adv-x="554" d="M372 205h-81q-55 0 -74.5 -14.5t-44.5 -72.5l-51 -118h-121v54l60 3l37 82q22 49 33 65.5t29 25.5q-98 33 -98 134q0 82 66 119q44 24 134 24h260v-54l-73 -3v-393l73 -3v-54h-222v54l73 3v148zM372 264v182h-97q-73 0 -103.5 -20t-30.5 -68q0 -50 33.5 -72t110.5 -22h87 z" />
<glyph unicode="&#x451;" horiz-adv-x="540" d="M485 233h-350q9 -94 48.5 -138t114.5 -44q71 0 139 48l29 -59q-79 -50 -169 -50q-113 0 -177.5 70t-64.5 193t59 193.5t162 70.5q135 0 181 -111q27 -61 28 -173zM137 294h267q-2 79 -36 120.5t-95 41.5t-97 -43t-39 -119zM184 710q23 0 37.5 -14.5t14.5 -37.5 t-14.5 -37.5t-37.5 -14.5t-37.5 15t-14.5 39q0 22 14.5 36t37.5 14zM374 710q23 0 37.5 -14.5t14.5 -37.5t-14.5 -37.5t-37.5 -14.5t-37.5 15t-14.5 39q0 22 14.5 36t37.5 14z" />
<glyph unicode="&#x452;" horiz-adv-x="591" d="M92 57v508h-73v58h73v51l-73 3v54l149 5v-113h142v-58h-142v-137q45 47 87.5 68t93.5 21q108 0 140 -88q14 -36 14 -136v-155q0 -117 -10 -176t-36 -96q-51 -72 -180 -81v64q92 7 124 68q26 48 26 210v167q0 82 -12 111q-21 51 -85 51q-85 0 -162 -95v-304l73 -3v-54 h-222v54z" />
<glyph unicode="&#x453;" horiz-adv-x="439" d="M106 57v393l-73 3v54h383v-155h-71l-8 94h-155v-389l73 -3v-54h-222v54zM280 731h97l-146 -146h-73z" />
<glyph unicode="&#x454;" horiz-adv-x="497" d="M361 233h-226q5 -86 46.5 -134t111.5 -48q72 0 140 46l29 -59q-78 -48 -170 -48q-113 0 -175.5 68t-62.5 191q0 137 68 210q57 58 155 58q81 0 165 -42v-113h-71l-8 79q-40 15 -79 15q-135 0 -149 -162h226v-61z" />
<glyph unicode="&#x455;" horiz-adv-x="471" d="M60 26v131h71l8 -87q39 -19 89 -19q54 0 84 21.5t30 61.5q0 35 -24 53q-15 10 -98 35q-87 26 -119 49q-45 31 -45 97q0 71 49 110t137 39q77 0 154 -32v-133h-71l-7 89q-34 15 -75 15q-53 0 -81.5 -21t-28.5 -59q0 -39 33 -58q26 -14 92 -32q66 -20 90 -30.5t42 -29.5 q30 -30 30 -84q0 -73 -51.5 -112.5t-145.5 -39.5q-85 0 -163 36z" />
<glyph unicode="&#x456;" horiz-adv-x="288" d="M106 57v393l-73 3v54l149 5v-455l73 -3v-54h-222v54zM144 741q24 0 39 -15t15 -39t-15 -39t-39 -15t-39 15t-15 40q0 23 15.5 38t38.5 15z" />
<glyph unicode="&#x457;" horiz-adv-x="278" d="M101 57v393l-73 3v54l149 5v-455l73 -3v-54h-222v54zM35 710q23 0 37.5 -14.5t14.5 -37.5t-14.5 -37.5t-37.5 -14.5t-37.5 15t-14.5 39q0 22 14.5 36t37.5 14zM225 710q23 0 37.5 -14.5t14.5 -37.5t-14.5 -37.5t-37.5 -14.5t-37.5 15t-14.5 39q0 22 14.5 36t37.5 14z" />
<glyph unicode="&#x458;" horiz-adv-x="288" d="M186 512v-522q0 -120 -19 -153q-36 -62 -124 -62q-30 0 -58 7l9 64q25 -7 43 -7q39 0 56 22.5t17 73.5v515l-85 3v54zM148 741q24 0 39 -15t15 -39t-15 -39t-39 -15t-39 15t-15 40q0 23 15.5 38t38.5 15z" />
<glyph unicode="&#x459;" horiz-adv-x="765" d="M365 57v389h-189v-252q0 -76 -9 -111.5t-32 -54.5q-35 -28 -118 -28v55q55 2 70.5 30t15.5 125v240l-73 3v54h478v-54l-67 -3v-116h77q69 0 96.5 -4t52.5 -18q72 -38 72 -146q0 -106 -72 -144q-25 -14 -52.5 -18t-96.5 -4h-226v54zM441 60h63q87 0 117 18q40 24 40 89 t-40 89q-30 18 -117 18h-63v-214z" />
<glyph unicode="&#x45a;" horiz-adv-x="818" d="M106 57v393l-73 3v54h222v-54l-73 -3v-140h233v140l-73 3v54h216v-54l-67 -3v-124h80q69 0 96 -4t53 -17q72 -38 72 -143q0 -102 -72 -141q-25 -13 -52.5 -17t-96.5 -4h-229v54l73 3v192h-233v-192l73 -3v-54h-222v54zM491 60h66q87 0 117 17q40 24 40 86t-40 86 q-30 17 -117 17h-66v-206z" />
<glyph unicode="&#x45b;" horiz-adv-x="619" d="M106 57v508h-73v58h73v51l-73 3v54l149 5v-113h142v-58h-142v-136q48 48 89.5 68t91.5 20q106 0 138 -86q16 -40 16 -127v-247l73 -3v-54h-222v54l73 3v247q0 74 -14 102q-22 50 -85 50q-82 0 -160 -95v-304l73 -3v-54h-222v54z" />
<glyph unicode="&#x45c;" horiz-adv-x="568" d="M106 57v393l-73 3v54h226v-54l-73 -3v-160h66q55 0 75 23q24 26 49 86l21 51l-62 3v54h205v-54l-64 -3l-35 -77q-23 -56 -42.5 -77.5t-60.5 -34.5q32 -11 54 -35t51 -82l45 -87l69 -3v-54h-127l-81 158q-23 46 -43 63t-50 17h-70v-181l73 -3v-54h-226v54zM354 731h97 l-146 -146h-73z" />
<glyph unicode="&#x45e;" horiz-adv-x="507" d="M221 -7l-178 457l-58 3v54h220v-54l-81 -3l94 -246q22 -60 41 -116q24 70 43 119l91 243l-81 3v54h210v-54l-58 -3l-185 -493q-38 -103 -78.5 -142.5t-106.5 -39.5q-35 0 -75 10l14 62q30 -11 56 -11q46 0 76.5 36.5t55.5 120.5zM117 715h66q8 -94 81 -94t81 94h65 q-3 -71 -41 -109.5t-105 -38.5t-105 38.5t-42 109.5z" />
<glyph unicode="&#x45f;" horiz-adv-x="595" d="M106 57v393l-73 3v54h222v-54l-73 -3v-389h231v389l-73 3v54h222v-54l-73 -3v-393l73 -3v-54h-224l-10 -148h-61l-10 148h-224v54z" />
<glyph unicode="&#x490;" horiz-adv-x="515" d="M113 57v578l-80 3v54h378l19 125h70l-10 -191h-297v-569l80 -3v-54h-240v54z" />
<glyph unicode="&#x491;" horiz-adv-x="439" d="M106 57v393l-73 3v54h304l20 113h71l-12 -174h-234v-389l73 -3v-54h-222v54z" />
<glyph unicode="&#x4c0;" horiz-adv-x="318" d="M119 57v578l-80 3v54h240v-54l-80 -3v-578l80 -3v-54h-240v54z" />
<glyph unicode="&#x1e84;" horiz-adv-x="867" d="M193 0l-142 635l-69 3v54h231v-54l-79 -3l87 -411q15 -72 28 -149q10 60 30 150l105 467h101l106 -464q20 -87 30 -148q9 56 29 146l89 409l-79 3v54h225v-54l-69 -3l-144 -635h-102l-107 462q-18 80 -30 151q-8 -48 -31 -151l-106 -462h-103zM339 880q23 0 37.5 -14.5 t14.5 -37.5t-14.5 -37.5t-37.5 -14.5t-37.5 15t-14.5 39q0 22 14.5 36t37.5 14zM529 880q23 0 37.5 -14.5t14.5 -37.5t-14.5 -37.5t-37.5 -14.5t-37.5 15t-14.5 39q0 22 14.5 36t37.5 14z" />
<glyph unicode="&#x2007;" horiz-adv-x="288" />
<glyph unicode="&#x2011;" horiz-adv-x="311" d="M40 249v61h231v-61h-231z" />
<glyph unicode="&#x2012;" horiz-adv-x="576" d="M40 249v61h496v-61h-496z" />
<glyph unicode="&#x2013;" horiz-adv-x="576" d="M40 249v61h496v-61h-496z" />
<glyph unicode="&#x2014;" horiz-adv-x="1000" d="M-20 249v61h1040v-61h-1040z" />
<glyph unicode="&#x2015;" horiz-adv-x="1000" d="M-20 249v61h1040v-61h-1040z" />
<glyph unicode="&#x2017;" d="M-16 -220v53h532v-53h-532zM-16 -119v53h532v-53h-532z" />
<glyph unicode="&#x2018;" horiz-adv-x="168" d="M92 507h-89l89 224h69z" />
<glyph unicode="&#x2019;" horiz-adv-x="168" d="M76 731h89l-89 -224h-69z" />
<glyph unicode="&#x201a;" horiz-adv-x="168" d="M66 100h89l-89 -224h-69z" />
<glyph unicode="&#x201c;" horiz-adv-x="324" d="M92 507h-89l89 224h69zM248 507h-89l89 224h69z" />
<glyph unicode="&#x201d;" horiz-adv-x="324" d="M76 731h89l-89 -224h-69zM232 731h89l-89 -224h-69z" />
<glyph unicode="&#x201e;" horiz-adv-x="324" d="M66 100h89l-89 -224h-69zM222 100h89l-89 -224h-69z" />
<glyph unicode="&#x2020;" horiz-adv-x="576" d="M247 441h-183v66h183v185h80v-185h185v-66h-185v-563h-80v563z" />
<glyph unicode="&#x2021;" horiz-adv-x="576" d="M247 441h-183v66h183v185h80v-185h185v-66h-185v-232h185v-66h-185v-265h-80v265h-183v66h183v232z" />
<glyph unicode="&#x2022;" d="M251 496q60 0 102 -42.5t42 -101.5t-42 -101.5t-102 -42.5t-102 42.5t-42 103.5q0 58 42.5 100t101.5 42z" />
<glyph unicode="&#x2026;" horiz-adv-x="864" d="M144 108q26 0 42.5 -17t16.5 -42t-16.5 -42t-42.5 -17t-42.5 17t-16.5 43q0 25 17 41.5t42 16.5zM432 108q26 0 42.5 -17t16.5 -42t-16.5 -42t-42.5 -17t-42.5 17t-16.5 43q0 25 17 41.5t42 16.5zM720 108q26 0 42.5 -17t16.5 -42t-16.5 -42t-42.5 -17t-42.5 17t-16.5 43 q0 25 17 41.5t42 16.5z" />
<glyph unicode="&#x2030;" horiz-adv-x="1087" d="M178 698q72 0 106 -47.5t34 -148.5t-34 -148.5t-107 -47.5q-72 0 -106 48t-34 150q0 99 34.5 146.5t106.5 47.5zM178 652q-79 0 -79 -148q0 -152 79 -152q78 0 78 150t-78 150zM212 -20l273 732h59l-273 -732h-59zM577 386q72 0 106 -47.5t34 -148.5t-34 -148.5 t-107 -47.5q-72 0 -106 48t-34 150q0 99 34.5 146.5t106.5 47.5zM577 340q-79 0 -79 -148q0 -152 79 -152q78 0 78 150t-78 150zM910 386q72 0 106 -47.5t34 -148.5t-34 -148.5t-107 -47.5q-72 0 -106 48t-34 150q0 99 34.5 146.5t106.5 47.5zM910 340q-79 0 -79 -148 q0 -152 79 -152q78 0 78 150t-78 150z" />
<glyph unicode="&#x2039;" horiz-adv-x="282" d="M123 249l117 -172l-52 -35l-155 207l155 208l52 -36z" />
<glyph unicode="&#x203a;" horiz-adv-x="282" d="M159 250l-117 172l52 35l155 -207l-155 -208l-52 36z" />
<glyph unicode="&#x203e;" d="M-16 779v61h532v-61h-532z" />
<glyph unicode="&#x2044;" horiz-adv-x="80" d="M-126 -20l273 732h59l-273 -732h-59z" />
<glyph unicode="&#x2070;" horiz-adv-x="360" d="M181 698q72 0 106 -47.5t34 -148.5t-34 -148.5t-107 -47.5q-72 0 -106 48t-34 150q0 99 34.5 146.5t106.5 47.5zM181 652q-79 0 -79 -148q0 -152 79 -152q78 0 78 150t-78 150z" />
<glyph unicode="&#x2074;" horiz-adv-x="360" d="M206 312v98h-175v54l169 228h66v-236h60v-46h-60v-98h-60zM208 456v166l-121 -166h121z" />
<glyph unicode="&#x2075;" horiz-adv-x="360" d="M49 333l21 48q50 -29 89 -29q38 0 63 24.5t25 61.5q0 34 -22 53.5t-60 19.5q-41 0 -103 -23l8 204h222v-46h-165l-4 -96q29 7 55 7q61 0 96 -32t35 -88q0 -60 -40 -95.5t-108 -35.5q-57 0 -112 27z" />
<glyph unicode="&#x2076;" horiz-adv-x="360" d="M287 696v-46q-13 2 -29 2q-116 0 -142 -123q35 27 79 27q56 0 90 -33.5t34 -89.5q0 -58 -36.5 -92.5t-97.5 -34.5q-138 0 -138 158q0 126 70 190q50 44 137 44q20 0 33 -2zM185 510q-32 0 -53 -21.5t-21 -54.5q0 -35 20.5 -58.5t51.5 -23.5q32 0 53 23.5t21 57.5 t-20 55.5t-52 21.5z" />
<glyph unicode="&#x2077;" horiz-adv-x="360" d="M102 646l-5 -60h-52v106h266v-46l-169 -334h-70l172 334h-142z" />
<glyph unicode="&#x2078;" horiz-adv-x="360" d="M124 507q-40 18 -56.5 40t-16.5 55q0 46 33.5 71t94.5 25q58 0 92.5 -25t34.5 -68q0 -32 -16.5 -52.5t-59.5 -41.5q48 -19 67.5 -41t19.5 -57q0 -47 -38 -77t-99 -30t-99.5 30.5t-38.5 78.5q0 35 19.5 57t62.5 35zM186 531l6 3q52 28 52 67q0 23 -18.5 37t-47.5 14 q-30 0 -47.5 -14t-17.5 -38q0 -20 17 -36t56 -33zM168 485q-64 -20 -64 -69q0 -27 22 -45.5t54 -18.5q31 0 53 17.5t22 42.5q0 22 -20 39t-67 34z" />
<glyph unicode="&#x2079;" horiz-adv-x="360" d="M72 308v46q13 -2 29 -2q116 0 142 123q-34 -27 -81 -27q-55 0 -88.5 34t-33.5 89q0 58 36.5 92.5t97.5 34.5q138 0 138 -158q0 -126 -70 -190q-50 -44 -137 -44q-20 0 -33 2zM175 652q-32 0 -52.5 -23t-20.5 -58q0 -34 20 -55.5t52 -21.5t53 21.5t21 54.5q0 36 -20.5 59 t-52.5 23z" />
<glyph unicode="&#x2080;" horiz-adv-x="360" d="M181 386q72 0 106 -47.5t34 -148.5t-34 -148.5t-107 -47.5q-72 0 -106 48t-34 150q0 99 34.5 146.5t106.5 47.5zM181 340q-79 0 -79 -148q0 -152 79 -152q78 0 78 150t-78 150z" />
<glyph unicode="&#x2081;" horiz-adv-x="360" d="M171 42v279l-80 -47l-23 41l108 65h52v-338l58 -3v-39h-175v39z" />
<glyph unicode="&#x2082;" horiz-adv-x="360" d="M47 0v46q109 95 151.5 146.5t42.5 91.5q0 25 -19.5 40.5t-50.5 15.5q-43 0 -98 -34l-19 47q66 33 122 33q58 0 92.5 -26.5t34.5 -70.5q0 -34 -17 -66.5t-58 -77.5q-52 -55 -104 -99h182v-46h-259z" />
<glyph unicode="&#x2083;" horiz-adv-x="360" d="M45 13l13 48q57 -19 97 -19q37 0 61 19.5t24 49.5q0 31 -29.5 49.5t-79.5 18.5q-13 0 -34 -3v48q15 -2 33 -2q46 0 75.5 18.5t29.5 47.5q0 23 -19.5 37.5t-51.5 14.5q-37 0 -93 -21l-13 47q54 20 113 20t92.5 -25t33.5 -69q0 -65 -74 -90q79 -20 79 -94q0 -51 -39 -82.5 t-103 -31.5q-49 0 -115 19z" />
<glyph unicode="&#x2084;" horiz-adv-x="360" d="M206 0v98h-175v54l169 228h66v-236h60v-46h-60v-98h-60zM208 144v166l-121 -166h121z" />
<glyph unicode="&#x2085;" horiz-adv-x="360" d="M49 21l21 48q50 -29 89 -29q38 0 63 24.5t25 61.5q0 34 -22 53.5t-60 19.5q-41 0 -103 -23l8 204h222v-46h-165l-4 -96q29 7 55 7q61 0 96 -32t35 -88q0 -60 -40 -95.5t-108 -35.5q-57 0 -112 27z" />
<glyph unicode="&#x2086;" horiz-adv-x="360" d="M287 384v-46q-13 2 -29 2q-116 0 -142 -123q35 27 79 27q56 0 90 -33.5t34 -89.5q0 -58 -36.5 -92.5t-97.5 -34.5q-138 0 -138 158q0 126 70 190q50 44 137 44q20 0 33 -2zM185 198q-32 0 -53 -21.5t-21 -54.5q0 -35 20.5 -58.5t51.5 -23.5q32 0 53 23.5t21 57.5 t-20 55.5t-52 21.5z" />
<glyph unicode="&#x2087;" horiz-adv-x="360" d="M102 334l-5 -60h-52v106h266v-46l-169 -334h-70l172 334h-142z" />
<glyph unicode="&#x2088;" horiz-adv-x="360" d="M124 195q-40 18 -56.5 40t-16.5 55q0 46 33.5 71t94.5 25q58 0 92.5 -25t34.5 -68q0 -32 -16.5 -52.5t-59.5 -41.5q48 -19 67.5 -41t19.5 -57q0 -47 -38 -77t-99 -30t-99.5 30.5t-38.5 78.5q0 35 19.5 57t62.5 35zM186 219l6 3q52 28 52 67q0 23 -18.5 37t-47.5 14 q-30 0 -47.5 -14t-17.5 -38q0 -20 17 -36t56 -33zM168 173q-64 -20 -64 -69q0 -27 22 -45.5t54 -18.5q31 0 53 17.5t22 42.5q0 22 -20 39t-67 34z" />
<glyph unicode="&#x2089;" horiz-adv-x="360" d="M72 -4v46q13 -2 29 -2q116 0 142 123q-34 -27 -81 -27q-55 0 -88.5 34t-33.5 89q0 58 36.5 92.5t97.5 34.5q138 0 138 -158q0 -126 -70 -190q-50 -44 -137 -44q-20 0 -33 2zM175 340q-32 0 -52.5 -23t-20.5 -58q0 -34 20 -55.5t52 -21.5t53 21.5t21 54.5q0 36 -20.5 59 t-52.5 23z" />
<glyph unicode="&#x20ac;" horiz-adv-x="576" d="M4 258l19 54h87q-1 13 -1 30q0 19 2 37h-107l19 54h95q25 127 101.5 198t187.5 71q78 0 162 -42l-24 -63q-74 41 -139 41q-159 0 -206 -205h289l-19 -54h-278q-2 -30 -2 -48q0 -11 1 -19h256l-19 -53h-232q32 -205 205 -205q77 0 155 37l20 -62q-96 -39 -178 -39 q-123 0 -196 69t-87 199h-111z" />
<glyph unicode="&#x2116;" horiz-adv-x="1124" d="M108 57v578l-80 3v54h172l267 -441q35 -58 77 -137l-1 27q-1 7 -1 19v56v419l-80 3v54h236v-54l-80 -3v-635h-93l-269 445q-36 59 -74 132q2 -49 2 -130v-390l80 -3v-54h-236v54zM909 526q83 0 128 -45t45 -129t-45 -129t-128 -45q-84 0 -128.5 45.5t-44.5 130.5 q0 82 45.5 127t127.5 45zM909 472q-45 0 -71 -32t-26 -87q0 -57 25.5 -89t71.5 -32t71.5 31.5t25.5 88.5t-25.5 88.5t-71.5 31.5zM749 55v58h320v-58h-320z" />
<glyph unicode="&#x2122;" horiz-adv-x="870" d="M392 354v296l-44 3v39h120l122 -319l120 319h118v-39l-45 -3v-296l45 -3v-39h-140v39l36 3v124q0 58 3 127q-18 -65 -40 -125l-66 -168h-65l-61 151q-27 64 -49 142q3 -62 3 -127v-124l39 -3v-39h-140v39zM141 354v292h-74l-4 -60h-53v106h323v-106h-52l-5 60h-75v-292 l50 -3v-39h-160v39z" />
<glyph unicode="&#x2126;" horiz-adv-x="691" d="M32 0v63h170q-171 113 -171 313q0 144 92 237q90 89 223 89q132 0 221 -89q92 -93 92 -237q0 -200 -171 -313h170v-63h-270v61q187 113 187 307q0 116 -65 192t-164 76q-100 0 -165 -76t-65 -192q0 -194 187 -307v-61h-271z" />
<glyph unicode="&#x2153;" horiz-adv-x="800" d="M153 354v279l-80 -47l-23 41l108 65h52v-338l58 -3v-39h-175v39zM211 -20l273 732h59l-273 -732h-59zM465 13l13 48q57 -19 97 -19q37 0 61 19.5t24 49.5q0 31 -29.5 49.5t-79.5 18.5q-13 0 -34 -3v48q15 -2 33 -2q46 0 75.5 18.5t29.5 47.5q0 23 -19.5 37.5t-51.5 14.5 q-38 0 -93 -21l-13 47q54 20 113 20t92.5 -25t33.5 -69q0 -65 -74 -90q79 -20 79 -94q0 -51 -39 -82.5t-103 -31.5q-49 0 -115 19z" />
<glyph unicode="&#x2154;" horiz-adv-x="800" d="M47 312v46q109 95 151.5 146.5t42.5 91.5q0 25 -19.5 40.5t-50.5 15.5q-43 0 -98 -34l-19 47q66 33 122 33q58 0 92.5 -26.5t34.5 -70.5q0 -34 -17 -66.5t-58 -77.5q-52 -55 -104 -99h182v-46h-259zM234 -20l273 732h59l-273 -732h-59zM484 13l13 48q57 -19 97 -19 q37 0 61 19.5t24 49.5q0 31 -29.5 49.5t-79.5 18.5q-13 0 -34 -3v48q15 -2 33 -2q46 0 75.5 18.5t29.5 47.5q0 23 -19.5 37.5t-51.5 14.5q-37 0 -93 -21l-13 47q54 20 113 20t92.5 -25t33.5 -69q0 -65 -74 -90q79 -20 79 -94q0 -51 -39 -82.5t-103 -31.5q-49 0 -115 19z" />
<glyph unicode="&#x2155;" horiz-adv-x="800" d="M161 354v279l-80 -47l-23 41l108 65h52v-338l58 -3v-39h-175v39zM217 -20l273 732h59l-273 -732h-59zM479 21l21 48q50 -29 89 -29q38 0 63 24.5t25 61.5q0 34 -22 53.5t-60 19.5q-41 0 -103 -23l8 204h222v-46h-165l-4 -96q29 7 55 7q61 0 96 -32t35 -88 q0 -60 -40 -95.5t-108 -35.5q-57 0 -112 27z" />
<glyph unicode="&#x2159;" horiz-adv-x="800" d="M154 354v279l-80 -47l-23 41l108 65h52v-338l58 -3v-39h-175v39zM227 -20l273 732h59l-273 -732h-59zM710 384v-46q-13 2 -29 2q-116 0 -142 -123q35 27 79 27q56 0 90 -33.5t34 -89.5q0 -58 -36.5 -92.5t-97.5 -34.5q-138 0 -138 158q0 126 70 190q50 44 137 44 q20 0 33 -2zM608 198q-32 0 -53 -21.5t-21 -54.5q0 -35 20.5 -58.5t51.5 -23.5q32 0 53 23.5t21 57.5t-20 55.5t-52 21.5z" />
<glyph unicode="&#x215b;" horiz-adv-x="800" d="M151 354v279l-80 -47l-23 41l108 65h52v-338l58 -3v-39h-175v39zM207 -20l273 732h59l-273 -732h-59zM544 195q-39 19 -55.5 40.5t-16.5 54.5q0 46 33.5 71t93.5 25q58 0 92.5 -25t34.5 -68q0 -32 -16.5 -52.5t-59.5 -41.5q48 -20 68 -42t20 -56q0 -47 -38.5 -77 t-99.5 -30t-99.5 30.5t-38.5 78.5q0 35 19.5 57t62.5 35zM606 219l6 3q24 12 38 30.5t14 36.5q0 23 -18.5 37t-47.5 14t-46.5 -14t-17.5 -38q0 -20 16.5 -36t55.5 -33zM588 173q-64 -20 -64 -69q0 -27 22 -45.5t55 -18.5q31 0 53 17.5t22 42.5q0 23 -20 39.5t-68 33.5z" />
<glyph unicode="&#x215c;" horiz-adv-x="800" d="M45 325l13 48q57 -19 97 -19q37 0 61 19.5t24 49.5q0 31 -29.5 49.5t-79.5 18.5q-13 0 -34 -3v48q15 -2 33 -2q46 0 75.5 18.5t29.5 47.5q0 23 -19.5 37.5t-51.5 14.5q-37 0 -93 -21l-13 47q54 20 113 20t92.5 -25t33.5 -69q0 -65 -74 -90q79 -20 79 -94q0 -51 -39 -82.5 t-103 -31.5q-49 0 -115 19zM234 -20l273 732h59l-273 -732h-59zM565 195q-40 18 -56.5 40t-16.5 55q0 46 33.5 71t93.5 25q58 0 92.5 -25t34.5 -68q0 -32 -16.5 -52.5t-59.5 -41.5q48 -20 68 -42t20 -56q0 -47 -38.5 -77t-99.5 -30t-99.5 30.5t-38.5 78.5q0 35 19.5 56.5 t63.5 35.5zM627 219l5 3q24 12 38 30.5t14 36.5q0 23 -18.5 37t-47.5 14t-46.5 -14t-17.5 -38q0 -20 16.5 -36t56.5 -33zM608 173q-64 -22 -64 -69q0 -27 22 -45.5t55 -18.5q31 0 53 17.5t22 42.5q0 23 -20 39.5t-68 33.5z" />
<glyph unicode="&#x215d;" horiz-adv-x="800" d="M49 333l21 48q50 -29 89 -29q38 0 63 24.5t25 61.5q0 34 -22 53.5t-60 19.5q-41 0 -103 -23l8 204h222v-46h-165l-4 -96q29 7 55 7q61 0 96 -32t35 -88q0 -60 -40 -95.5t-108 -35.5q-57 0 -112 27zM234 -20l273 732h59l-273 -732h-59zM564 195q-40 18 -56.5 40t-16.5 55 q0 46 33.5 71t94.5 25q58 0 92.5 -25t34.5 -68q0 -32 -16.5 -52.5t-59.5 -41.5q48 -19 67.5 -41t19.5 -57q0 -47 -38 -77t-99 -30t-99.5 30.5t-38.5 78.5q0 35 19.5 57t62.5 35zM626 219l6 3q52 28 52 67q0 23 -18.5 37t-47.5 14q-30 0 -47.5 -14t-17.5 -38q0 -20 17 -36 t56 -33zM608 173q-64 -20 -64 -69q0 -27 22 -45.5t54 -18.5q31 0 53 17.5t22 42.5q0 22 -20 39t-67 34z" />
<glyph unicode="&#x215e;" horiz-adv-x="800" d="M113 646l-5 -60h-52v106h266v-46l-169 -334h-70l172 334h-142zM197 -20l273 732h59l-273 -732h-59zM544 195q-40 18 -56.5 40t-16.5 55q0 46 33.5 71t94.5 25q58 0 92.5 -25t34.5 -68q0 -32 -16.5 -52.5t-59.5 -41.5q48 -19 67.5 -41t19.5 -57q0 -47 -38 -77t-99 -30 t-99.5 30.5t-38.5 78.5q0 35 19.5 57t62.5 35zM606 219l6 3q52 28 52 67q0 23 -18.5 37t-47.5 14q-30 0 -47.5 -14t-17.5 -38q0 -20 17 -36t56 -33zM588 173q-64 -20 -64 -69q0 -27 22 -45.5t54 -18.5q31 0 53 17.5t22 42.5q0 22 -20 39t-67 34z" />
<glyph unicode="&#x2202;" horiz-adv-x="576" d="M128 674l31 64q154 -60 251.5 -197.5t97.5 -294.5q0 -120 -59.5 -188t-163.5 -68q-101 0 -159 65.5t-58 180.5q0 113 56.5 181t150.5 68q52 0 101 -27q-37 70 -101.5 126.5t-146.5 89.5zM287 424q-65 0 -102 -49t-37 -134q0 -88 37.5 -138.5t102.5 -50.5q76 0 110 64 q30 55 30 127q0 85 -37.5 133t-103.5 48z" />
<glyph unicode="&#x2206;" horiz-adv-x="576" d="M573 0h-570v63l238 629h96l236 -629v-63zM487 66l-199 540l-199 -540h398z" />
<glyph unicode="&#x220f;" horiz-adv-x="660" d="M89 -98v832l-80 3v54h642v-54l-80 -3v-832l80 -3v-54h-240v54l80 3v823h-322v-823l80 -3v-54h-240v54z" />
<glyph unicode="&#x2211;" horiz-adv-x="576" d="M563 791v-176h-71l-8 110h-358l229 -380l-228 -434h365l8 110h71v-176h-529v74l225 425l-225 375v72h521z" />
<glyph unicode="&#x2212;" horiz-adv-x="576" d="M35 223v60h506v-60h-506z" />
<glyph unicode="&#x221a;" horiz-adv-x="576" d="M236 0l-98 314h-85v58h137l82 -271l231 739h263v-61h-211l-243 -779h-76z" />
<glyph unicode="&#x221e;" horiz-adv-x="761" d="M380 211q-75 -114 -178 -114q-69 0 -111.5 43.5t-42.5 114.5q0 70 42.5 113.5t111.5 43.5q101 0 178 -114q78 114 179 114q69 0 111.5 -43.5t42.5 -113.5q0 -71 -42.5 -114.5t-112.5 -43.5q-101 0 -178 114zM347 254l-5 8q-60 96 -138 96q-44 0 -70 -28t-26 -75 q0 -48 26 -76t70 -28q47 0 90 37q30 27 48 58zM414 254l4 -8q12 -23 49 -58q40 -37 90 -37q44 0 70 28t26 76q0 47 -26 75t-70 28q-79 0 -138 -96z" />
<glyph unicode="&#x222b;" horiz-adv-x="360" d="M27 -152l18 67q29 -11 46 -11q37 0 46 33q5 13 5 67v604q0 73 3.5 99.5t15.5 45.5q30 48 103 48q35 0 70 -13l-18 -67q-28 11 -47 11q-36 0 -45 -33q-5 -13 -5 -67v-604q0 -73 -3.5 -99.5t-15.5 -45.5q-30 -48 -104 -48q-33 0 -69 13z" />
<glyph unicode="&#x2248;" horiz-adv-x="576" d="M80 120l-45 36q40 55 73 78t72 23q41 0 118 -45q41 -25 57 -31.5t34 -6.5q26 0 47.5 13.5t51.5 50.5l8 10l45 -38q-74 -101 -146 -101q-43 0 -116 45q-39 23 -57.5 30.5t-39.5 7.5q-26 0 -46.5 -14.5t-55.5 -57.5zM80 260l-45 36q40 55 73 78t72 23q41 0 118 -45 q41 -25 57 -31.5t34 -6.5q26 0 47.5 13.5t51.5 50.5l8 10l45 -38q-74 -101 -146 -101q-43 0 -116 45q-39 23 -57.5 30.5t-39.5 7.5q-26 0 -46.5 -14.5t-55.5 -57.5z" />
<glyph unicode="&#x2260;" horiz-adv-x="576" d="M35 151v60h198l40 84h-238v60h267l65 138l58 -24l-54 -114h170v-60h-199l-40 -84h239v-60h-267l-66 -137l-57 24l54 113h-170z" />
<glyph unicode="&#x2261;" horiz-adv-x="576" d="M35 367v60h506v-60h-506zM35 223v60h506v-60h-506zM35 79v60h506v-60h-506z" />
<glyph unicode="&#x2264;" horiz-adv-x="576" d="M35 0v60h506v-60h-506zM123 314l418 -139v-65l-506 178v52l506 177v-65z" />
<glyph unicode="&#x2265;" horiz-adv-x="576" d="M35 0v60h506v-60h-506zM453 314l-418 138v65l506 -177v-52l-506 -178v65z" />
<glyph unicode="&#x22c5;" horiz-adv-x="288" d="M144 338q26 0 42.5 -17t16.5 -42t-16.5 -42t-42.5 -17t-42.5 17t-16.5 43q0 25 17 41.5t42 16.5z" />
<glyph unicode="&#x25ca;" horiz-adv-x="576" d="M288 -33l-278 379l278 378l278 -378zM288 83l194 263l-194 263l-194 -263z" />
<glyph unicode="&#xe000;" horiz-adv-x="505" d="M0 505h505v-505h-505v505z" />
<glyph unicode="&#xea3f;" d="M242 731h89l-89 -224h-69z" />
<glyph unicode="&#xea4e;" horiz-adv-x="0" d="M84 779v61h505v-61h-505z" />
<glyph unicode="&#xea4f;" d="M231 584h-91l135 147h74z" />
<glyph unicode="&#xea67;" d="M242 731h89l-89 -224h-69z" />
<glyph unicode="&#xf6be;" horiz-adv-x="278" d="M177 512v-522q0 -120 -19 -153q-36 -62 -123 -62q-28 0 -59 7l9 63q22 -6 42 -6q40 0 57 22.5t17 73.5v515l-85 3v54z" />
<glyph unicode="&#xf6c3;" d="M258 -34h91l-135 -147h-74z" />
<glyph unicode="&#xf6c9;" d="M288 901h97l-146 -146h-73z" />
<glyph unicode="&#xf6ca;" d="M250 809l73 98h73l-100 -146h-92l-100 146h73z" />
<glyph unicode="&#xf6cb;" d="M155 880q23 0 37.5 -14.5t14.5 -37.5t-14.5 -37.5t-37.5 -14.5t-37.5 15t-14.5 39q0 22 14.5 36t37.5 14zM345 880q23 0 37.5 -14.5t14.5 -37.5t-14.5 -37.5t-37.5 -14.5t-37.5 15t-14.5 39q0 22 14.5 36t37.5 14z" />
<glyph unicode="&#xf6ce;" d="M222 901l122 -146h-73l-146 146h97z" />
<glyph unicode="&#xf6cf;" d="M228 901h93l-126 -146h-69zM384 901h93l-126 -146h-69z" />
<glyph unicode="&#xf6d0;" d="M105 782v58h291v-58h-291z" />
<glyph unicode="&#xf6f4;" d="M103 751h66q8 -94 81 -94t81 94h65q-3 -71 -41 -109.5t-105 -38.5t-105 38.5t-42 109.5z" />
<glyph unicode="&#xf6f5;" d="M250 653l73 98h73l-100 -146h-92l-100 146h73z" />
<glyph unicode="&#xf6f6;" d="M250 703l-73 -98h-73l100 146h92l100 -146h-73z" />
<glyph unicode="&#xf6f7;" d="M250 720q23 0 37.5 -14.5t14.5 -37.5t-14.5 -37.5t-37.5 -14.5t-37.5 15t-14.5 39q0 22 14.5 36t37.5 14z" />
<glyph unicode="&#xf6f8;" d="M228 751h93l-126 -146h-69zM384 751h93l-126 -146h-69z" />
<glyph unicode="&#xf6f9;" horiz-adv-x="463" d="M115 280v199l-73 3v54h228v-54l-79 -3v-153l118 73v-59l-118 -73v-209h173l6 89h69v-147h-397v54l73 3v164l-81 -50v59z" />
<glyph unicode="&#xf6fa;" horiz-adv-x="782" d="M476 243v-185h172l7 89h69v-147h-368q-84 0 -127.5 10.5t-82.5 40.5q-96 73 -96 219q0 162 112 230q36 22 72 29t118 7h360v-147h-69l-7 89h-160v-177h157v-58h-157zM400 478h-44q-68 0 -100.5 -8t-60.5 -31q-65 -56 -65 -172t65 -169q48 -40 161 -40h44v420z" />
<glyph unicode="&#xf6fb;" d="M280 -157l8 -48q-47 -13 -73 -13q-46 0 -74.5 23t-28.5 61q0 43 30.5 74.5t97.5 59.5h48q-51 -33 -75 -54q-34 -33 -34 -66q0 -20 14.5 -32.5t38.5 -12.5q15 0 48 8z" />
<glyph unicode="&#xf6fc;" d="M250 781q42 0 70.5 -29t28.5 -71t-29 -71t-70 -29q-43 0 -71.5 29t-28.5 72q0 41 29 70t71 29zM250 741q-25 0 -41.5 -17t-16.5 -42q0 -27 16 -44t42 -17q25 0 41 17t16 43t-16 43t-41 17z" />
<glyph unicode="&#xf6fd;" horiz-adv-x="460" d="M52 26v121h68l7 -76q43 -23 92 -23q47 0 79 26.5t32 65.5q0 35 -25 55q-20 16 -95 44q-87 33 -119 59q-41 35 -41 98q0 71 49 110.5t136 39.5q71 0 153 -31v-126h-68l-6 78q-39 21 -80 21q-48 0 -76 -23t-28 -63q0 -34 21 -52t89 -44q98 -38 126 -58q44 -33 44 -100 q0 -73 -52.5 -115.5t-142.5 -42.5q-85 0 -163 36zM240 653l73 98h73l-100 -146h-92l-100 146h73z" />
<glyph unicode="&#xf6fe;" d="M134 614h-52q6 48 31 75t63 27q34 0 89 -21q39 -15 57 -15q40 0 45 42h51q-12 -103 -94 -103q-31 0 -85 20q-42 16 -62 16q-30 0 -43 -41z" />
<glyph unicode="&#xf6ff;" horiz-adv-x="491" d="M39 0v58l308 420h-224l-7 -89h-68v147h389v-58l-308 -420h242l7 89h68v-147h-407zM252 653l73 98h73l-100 -146h-92l-100 146h73z" />
<glyph unicode="&#xf730;" horiz-adv-x="592" d="M296 546q113 0 179.5 -75.5t66.5 -202.5t-66.5 -202.5t-179.5 -75.5t-179.5 75.5t-66.5 204.5q0 125 67 200.5t179 75.5zM296 480q-78 0 -121.5 -55.5t-43.5 -154.5q0 -102 43 -158t122 -56q78 0 121.5 56t43.5 156t-43.5 156t-121.5 56z" />
<glyph unicode="&#xf731;" horiz-adv-x="410" d="M201 57v392l-128 -81l-33 61l169 107h69v-479l88 -3v-54h-267v54z" />
<glyph unicode="&#xf732;" horiz-adv-x="520" d="M39 0v66q111 70 215 152q67 52 92.5 87t25.5 73q0 48 -34 76t-93 28q-73 0 -158 -51l-31 58q102 57 199 57q89 0 143.5 -43.5t54.5 -114.5q0 -52 -29.5 -95.5t-101.5 -99.5q-61 -47 -179 -127h309v-66h-413z" />
<glyph unicode="&#xf733;" horiz-adv-x="520" d="M40 -138l18 64q78 -28 146 -28q76 0 121.5 39.5t45.5 104.5q0 67 -55.5 101.5t-161.5 34.5q-21 0 -35 -2v66q14 -2 38 -2q95 0 150 36t55 97q0 50 -37.5 79.5t-102.5 29.5q-69 0 -144 -37l-26 62q91 39 178 39q98 0 155.5 -44.5t57.5 -120.5q0 -68 -40 -112t-115 -59 q79 -8 121.5 -52t42.5 -118q0 -93 -67 -149.5t-177 -56.5q-83 0 -168 28z" />
<glyph unicode="&#xf734;" horiz-adv-x="566" d="M345 -156v199h-312v76l298 417h90v-427h107v-66h-107v-199h-76zM345 109v338l-239 -338h239z" />
<glyph unicode="&#xf735;" horiz-adv-x="550" d="M56 -121l30 65q79 -46 150 -46q77 0 124.5 48.5t47.5 126.5q0 67 -39 107t-104 40q-81 0 -178 -37l11 353h368v-66h-290l-8 -202q56 16 108 16q98 0 155.5 -58t57.5 -157q0 -104 -69.5 -169.5t-181.5 -65.5q-91 0 -182 45z" />
<glyph unicode="&#xf736;" horiz-adv-x="576" d="M463 701l-4 -65q-19 2 -42 2q-235 0 -268 -281q63 80 167 80q91 0 147 -60t56 -158q0 -103 -63 -166t-165 -63q-112 0 -170.5 73t-58.5 213q0 108 32 199t90 146q84 81 234 81q14 0 45 -1zM296 373q-67 0 -108 -43.5t-41 -115.5q0 -74 39 -117t107 -43q67 0 106 43 t39 117q0 73 -38.5 116t-103.5 43z" />
<glyph unicode="&#xf737;" d="M128 470l-8 -110h-71v176h422v-66l-300 -626h-88l306 626h-261z" />
<glyph unicode="&#xf738;" horiz-adv-x="576" d="M212 359q-73 32 -104 71.5t-31 98.5q0 79 57.5 126t154.5 47q98 0 155 -46.5t57 -125.5q0 -56 -27 -90.5t-100 -71.5q78 -32 112.5 -74.5t34.5 -106.5q0 -92 -62.5 -144.5t-171.5 -52.5q-106 0 -169 51t-63 137q0 136 157 181zM312 394l8 4q101 50 101 129 q0 52 -35.5 81.5t-97.5 29.5q-61 0 -96 -29t-35 -80q0 -44 33.5 -73.5t121.5 -61.5zM283 331q-147 -43 -147 -150q0 -58 41.5 -92.5t111.5 -34.5q67 0 109 34.5t42 89.5q0 50 -34 83.5t-123 69.5z" />
<glyph unicode="&#xf739;" horiz-adv-x="576" d="M113 -165l4 65q19 -2 42 -2q235 0 268 281q-63 -80 -167 -80q-91 0 -147 60t-56 158q0 103 63 166t165 63q112 0 170.5 -73t58.5 -213q0 -108 -32 -199t-90 -146q-84 -81 -234 -81q-14 0 -45 1zM283 482q-67 0 -106 -43t-39 -117q0 -73 38.5 -116t103.5 -43 q67 0 108 43.5t41 115.5q0 74 -39 117t-107 43z" />
<glyph unicode="&#xf760;" d="M222 751l122 -146h-73l-146 146h97z" />
<glyph unicode="&#xf761;" horiz-adv-x="544" d="M48 56l180 480h90l180 -480l59 -2v-54h-205v54l64 2l-40 110h-208l-40 -110l61 -2v-54h-200v54zM355 224l-48 134q-26 74 -35 102l-16 -48l-19 -54l-48 -134h166z" />
<glyph unicode="&#xf762;" horiz-adv-x="494" d="M105 57v422l-73 3v54h178q107 0 149 -16q73 -28 73 -125q0 -50 -22 -79t-71 -43q57 -11 82.5 -41t25.5 -86q0 -95 -73 -128q-26 -11 -53.5 -14.5t-94.5 -3.5h-194v54zM181 299h28q79 0 106 17q37 22 37 75q0 54 -31 73q-25 15 -102 15h-38v-180zM181 57h28q89 0 118 15 q40 22 40 80q0 50 -31 71t-107 21h-48v-187z" />
<glyph unicode="&#xf763;" horiz-adv-x="510" d="M444 82l19 -58q-75 -34 -154 -34q-117 0 -188 75t-71 199q0 129 70 205.5t188 76.5q68 0 141 -27v-130h-68l-7 86q-36 13 -66 13q-78 0 -128 -63t-50 -161q0 -97 49.5 -156.5t130.5 -59.5q63 0 134 34z" />
<glyph unicode="&#xf764;" horiz-adv-x="577" d="M105 57v422l-73 3v54h203q132 0 192 -38q100 -65 100 -227q0 -161 -100 -229q-62 -42 -201 -42h-194v54zM181 58h50q96 0 142 34q74 52 74 175q0 66 -22 116t-61 73q-23 13 -51 17.5t-92 4.5h-40v-420z" />
<glyph unicode="&#xf765;" horiz-adv-x="487" d="M105 57v422l-73 3v54h385v-147h-68l-7 89h-161v-177h158v-58h-158v-185h173l7 89h68v-147h-397v54z" />
<glyph unicode="&#xf766;" horiz-adv-x="474" d="M105 57v422l-73 3v54h387v-147h-68l-8 89h-162v-177h170v-58h-170v-186l79 -3v-54h-228v54z" />
<glyph unicode="&#xf767;" horiz-adv-x="583" d="M550 273v-54l-60 -3v-192q-86 -34 -175 -34q-121 0 -193 74t-72 197q0 130 73.5 207.5t196.5 77.5q84 0 170 -30v-127h-69l-7 83q-55 16 -92 16q-97 0 -147 -71q-45 -64 -45 -155q0 -96 52.5 -155t138.5 -59q47 0 93 18v150l-74 3v54h210z" />
<glyph unicode="&#xf768;" horiz-adv-x="616" d="M105 57v422l-73 3v54h222v-54l-73 -3v-176h254v176l-73 3v54h222v-54l-73 -3v-422l73 -3v-54h-222v54l73 3v188h-254v-188l73 -3v-54h-222v54z" />
<glyph unicode="&#xf769;" horiz-adv-x="286" d="M105 57v422l-73 3v54h222v-54l-73 -3v-422l73 -3v-54h-222v54z" />
<glyph unicode="&#xf76a;" horiz-adv-x="341" d="M242 479v-305q0 -58 -5.5 -87.5t-21.5 -49.5q-36 -47 -119 -47q-46 0 -94 16l7 61q44 -19 81 -19q52 0 66 36q10 24 10 117v278l-77 3v54h221v-54z" />
<glyph unicode="&#xf76b;" horiz-adv-x="538" d="M105 57v422l-73 3v54h213v-54l-64 -3v-186l174 188l-46 1v54h198v-54l-61 -2l-179 -194l202 -230l54 -2v-54h-201v54l49 1l-190 218v-216l64 -3v-54h-213v54z" />
<glyph unicode="&#xf76c;" horiz-adv-x="453" d="M105 57v422l-73 3v54h228v-54l-79 -3v-421h173l7 89h68v-147h-397v54z" />
<glyph unicode="&#xf76d;" horiz-adv-x="774" d="M105 57v422l-73 3v54h191l134 -375q24 -69 31 -92q18 60 35 106l129 361h190v-54l-73 -3v-422l73 -3v-54h-218v54l69 3v403q-20 -73 -49 -153l-113 -307h-88l-117 319q-24 66 -28 78q-5 13 -15 41q-1 4 -3.5 11.5l-3.5 10.5l2 -403l68 -3v-54h-214v54z" />
<glyph unicode="&#xf76e;" horiz-adv-x="630" d="M105 57v422l-73 3v54h173l202 -351q34 -60 49 -94v388l-73 3v54h219v-54l-73 -3v-479h-100l-195 338q-37 65 -56 104v-385l73 -3v-54h-219v54z" />
<glyph unicode="&#xf76f;" horiz-adv-x="602" d="M301 546q117 0 184 -74t67 -204q0 -135 -74 -211q-64 -67 -177 -67q-118 0 -184.5 74.5t-66.5 206.5t74 208q66 67 177 67zM301 488q-78 0 -124.5 -59t-46.5 -159q0 -103 46 -162.5t125 -59.5t125 59.5t46 160.5t-46 160.5t-125 59.5z" />
<glyph unicode="&#xf770;" horiz-adv-x="471" d="M105 57v422l-73 3v54h191q108 0 152 -26q63 -35 63 -131q0 -94 -75 -132q-49 -24 -147 -24h-35v-166l83 -3v-54h-232v54zM181 281h25q79 0 109 15q43 22 43 84q0 59 -36 82q-28 16 -103 16h-38v-197z" />
<glyph unicode="&#xf771;" horiz-adv-x="602" d="M500 -88l-38 -49q-90 54 -171 127q-91 4 -146 48q-95 75 -95 230q0 135 74 211q64 67 177 67q129 0 196 -89q55 -75 55 -189q0 -102 -44.5 -173t-123.5 -94q51 -46 116 -89zM301 488q-78 0 -124.5 -59t-46.5 -159q0 -103 46 -162.5t125 -59.5t125 59.5t46 160.5 t-46 160.5t-125 59.5z" />
<glyph unicode="&#xf772;" horiz-adv-x="501" d="M105 57v422l-73 3v54h210q90 0 134 -24q67 -37 67 -118q0 -103 -107 -134q26 -10 38 -25.5t35 -67.5l46 -110l63 -3v-54h-120l-59 134q-30 68 -52 84.5t-80 16.5h-26v-178l73 -3v-54h-222v54zM181 293h37q62 0 95 15q50 22 50 80q0 54 -43 75q-30 15 -93 15h-46v-185z " />
<glyph unicode="&#xf773;" horiz-adv-x="460" d="M52 26v121h68l7 -76q43 -23 92 -23q47 0 79 26.5t32 65.5q0 35 -25 55q-20 16 -95 44q-87 33 -119 59q-41 35 -41 98q0 71 49 110.5t136 39.5q71 0 153 -31v-126h-68l-6 78q-39 21 -80 21q-48 0 -76 -23t-28 -63q0 -34 21 -52t89 -44q98 -38 126 -58q44 -33 44 -100 q0 -73 -52.5 -115.5t-142.5 -42.5q-85 0 -163 36z" />
<glyph unicode="&#xf774;" horiz-adv-x="467" d="M194 57v421h-108l-7 -89h-68v147h445v-147h-68l-7 89h-111v-421l88 -3v-54h-252v54z" />
<glyph unicode="&#xf775;" horiz-adv-x="600" d="M171 479v-270q0 -92 30 -125q32 -36 99 -36q79 0 110 50q19 32 19 111v270l-64 3v54h213v-54l-73 -3v-245q0 -83 -6.5 -117t-27.5 -61q-51 -66 -171 -66q-133 0 -181 80q-14 24 -19 56.5t-5 107.5v245l-73 3v54h216v-54z" />
<glyph unicode="&#xf776;" horiz-adv-x="505" d="M39 480l-56 2v54h208v-54l-73 -2l101 -300q21 -60 34 -103q16 53 33 103l102 300l-74 2v54h208v-54l-57 -2l-168 -480h-91z" />
<glyph unicode="&#xf777;" horiz-adv-x="772" d="M57 480l-56 2v54h207v-54l-74 -2l66 -287q11 -48 13 -62l4 -18l7 -38q10 45 28 122l83 339h100l86 -349q9 -34 26 -112q6 34 26 119l68 286l-73 2v54h203v-54l-57 -2l-121 -480h-101l-83 342q-6 25 -27 123q-15 -77 -26 -122l-82 -343h-101z" />
<glyph unicode="&#xf778;" horiz-adv-x="546" d="M64 56l161 223l-141 201l-60 2v54h210v-54l-61 -2l103 -150l104 152h-64v54h207v-54h-58l-146 -210l152 -216l61 -2v-54h-213v54l61 1l-113 162l-115 -161l67 -2v-54h-210v54z" />
<glyph unicode="&#xf779;" horiz-adv-x="487" d="M206 57v182l-161 241l-58 2v54h212v-54l-65 -2l81 -120q23 -38 32 -53q3 5 35 53l76 120l-65 2v54h207v-54l-58 -2l-160 -241v-182l78 -3v-54h-234v54z" />
<glyph unicode="&#xf77a;" horiz-adv-x="491" d="M39 0v58l308 420h-224l-7 -89h-68v147h389v-58l-308 -420h242l7 89h68v-147h-407z" />
<glyph unicode="&#xf7a8;" d="M155 720q23 0 37.5 -14.5t14.5 -37.5t-14.5 -37.5t-37.5 -14.5t-37.5 15t-14.5 39q0 22 14.5 36t37.5 14zM345 720q23 0 37.5 -14.5t14.5 -37.5t-14.5 -37.5t-37.5 -14.5t-37.5 15t-14.5 39q0 22 14.5 36t37.5 14z" />
<glyph unicode="&#xf7af;" d="M105 636v58h291v-58h-291z" />
<glyph unicode="&#xf7b4;" d="M288 751h97l-146 -146h-73z" />
<glyph unicode="&#xf7b8;" d="M258 -34h91l-135 -147h-74z" />
<glyph unicode="&#xf7e0;" horiz-adv-x="544" d="M48 56l180 480h90l180 -480l59 -2v-54h-205v54l64 2l-40 110h-208l-40 -110l61 -2v-54h-200v54zM355 224l-48 134q-26 74 -35 102l-16 -48l-19 -54l-48 -134h166zM207 751l122 -146h-73l-146 146h97z" />
<glyph unicode="&#xf7e1;" horiz-adv-x="544" d="M48 56l180 480h90l180 -480l59 -2v-54h-205v54l64 2l-40 110h-208l-40 -110l61 -2v-54h-200v54zM355 224l-48 134q-26 74 -35 102l-16 -48l-19 -54l-48 -134h166zM340 751h97l-146 -146h-73z" />
<glyph unicode="&#xf7e2;" horiz-adv-x="544" d="M48 56l180 480h90l180 -480l59 -2v-54h-205v54l64 2l-40 110h-208l-40 -110l61 -2v-54h-200v54zM355 224l-48 134q-26 74 -35 102l-16 -48l-19 -54l-48 -134h166zM272 703l-73 -98h-73l100 146h92l100 -146h-73z" />
<glyph unicode="&#xf7e3;" horiz-adv-x="544" d="M48 56l180 480h90l180 -480l59 -2v-54h-205v54l64 2l-40 110h-208l-40 -110l61 -2v-54h-200v54zM355 224l-48 134q-26 74 -35 102l-16 -48l-19 -54l-48 -134h166zM156 614h-52q6 48 31 75t63 27q34 0 89 -21q39 -15 57 -15q40 0 45 42h51q-12 -103 -94 -103q-31 0 -85 20 q-42 16 -62 16q-30 0 -43 -41z" />
<glyph unicode="&#xf7e4;" horiz-adv-x="544" d="M48 56l180 480h90l180 -480l59 -2v-54h-205v54l64 2l-40 110h-208l-40 -110l61 -2v-54h-200v54zM355 224l-48 134q-26 74 -35 102l-16 -48l-19 -54l-48 -134h166zM177 720q23 0 37.5 -14.5t14.5 -37.5t-14.5 -37.5t-37.5 -14.5t-37.5 15t-14.5 39q0 22 14.5 36t37.5 14z M367 720q23 0 37.5 -14.5t14.5 -37.5t-14.5 -37.5t-37.5 -14.5t-37.5 15t-14.5 39q0 22 14.5 36t37.5 14z" />
<glyph unicode="&#xf7e5;" horiz-adv-x="544" d="M48 56l180 480h90l180 -480l59 -2v-54h-205v54l64 2l-40 110h-208l-40 -110l61 -2v-54h-200v54zM355 224l-48 134q-26 74 -35 102l-16 -48l-19 -54l-48 -134h166zM272 781q42 0 70.5 -29t28.5 -71t-29 -71t-70 -29q-43 0 -71.5 29t-28.5 72q0 41 29 70t71 29zM272 741 q-25 0 -41.5 -17t-16.5 -42q0 -27 16 -44t42 -17q25 0 41 17t16 43t-16 43t-41 17z" />
<glyph unicode="&#xf7e6;" horiz-adv-x="745" d="M363 150h-220l-62 -94l55 -2v-54h-204v54l60 2l325 480h358v-147h-68l-7 89h-161v-177h158v-58h-158v-185h173l7 89h68v-147h-324v150zM363 208v273h-2l-180 -273h182z" />
<glyph unicode="&#xf7e7;" horiz-adv-x="510" d="M444 82l19 -58q-75 -34 -154 -34q-117 0 -188 75t-71 199q0 129 70 205.5t188 76.5q68 0 141 -27v-130h-68l-7 86q-36 13 -66 13q-78 0 -128 -63t-50 -161q0 -97 49.5 -156.5t130.5 -59.5q63 0 134 34zM263 -34h91l-135 -147h-74z" />
<glyph unicode="&#xf7e8;" horiz-adv-x="487" d="M105 57v422l-73 3v54h385v-147h-68l-7 89h-161v-177h158v-58h-158v-185h173l7 89h68v-147h-397v54zM209 751l122 -146h-73l-146 146h97z" />
<glyph unicode="&#xf7e9;" horiz-adv-x="487" d="M105 57v422l-73 3v54h385v-147h-68l-7 89h-161v-177h158v-58h-158v-185h173l7 89h68v-147h-397v54zM305 751h97l-146 -146h-73z" />
<glyph unicode="&#xf7ea;" horiz-adv-x="487" d="M105 57v422l-73 3v54h385v-147h-68l-7 89h-161v-177h158v-58h-158v-185h173l7 89h68v-147h-397v54zM244 703l-73 -98h-73l100 146h92l100 -146h-73z" />
<glyph unicode="&#xf7eb;" horiz-adv-x="487" d="M105 57v422l-73 3v54h385v-147h-68l-7 89h-161v-177h158v-58h-158v-185h173l7 89h68v-147h-397v54zM149 720q23 0 37.5 -14.5t14.5 -37.5t-14.5 -37.5t-37.5 -14.5t-37.5 15t-14.5 39q0 22 14.5 36t37.5 14zM339 720q23 0 37.5 -14.5t14.5 -37.5t-14.5 -37.5t-37.5 -14.5 t-37.5 15t-14.5 39q0 22 14.5 36t37.5 14z" />
<glyph unicode="&#xf7ec;" horiz-adv-x="286" d="M105 57v422l-73 3v54h222v-54l-73 -3v-422l73 -3v-54h-222v54zM105 751l122 -146h-73l-146 146h97z" />
<glyph unicode="&#xf7ed;" horiz-adv-x="286" d="M105 57v422l-73 3v54h222v-54l-73 -3v-422l73 -3v-54h-222v54zM194 751h97l-146 -146h-73z" />
<glyph unicode="&#xf7ee;" horiz-adv-x="286" d="M105 57v422l-73 3v54h222v-54l-73 -3v-422l73 -3v-54h-222v54zM143 703l-73 -98h-73l100 146h92l100 -146h-73z" />
<glyph unicode="&#xf7ef;" horiz-adv-x="286" d="M105 57v422l-73 3v54h222v-54l-73 -3v-422l73 -3v-54h-222v54zM48 720q23 0 37.5 -14.5t14.5 -37.5t-14.5 -37.5t-37.5 -14.5t-37.5 15t-14.5 39q0 22 14.5 36t37.5 14zM238 720q23 0 37.5 -14.5t14.5 -37.5t-14.5 -37.5t-37.5 -14.5t-37.5 15t-14.5 39q0 22 14.5 36 t37.5 14z" />
<glyph unicode="&#xf7f0;" horiz-adv-x="577" d="M105 243h-87v58h87v178l-73 3v54h203q132 0 192 -38q101 -64 101 -227q0 -161 -100 -229q-62 -42 -202 -42h-194v54l73 3v186zM181 243v-185h50q96 0 143 34q74 52 74 175q0 66 -22 116t-61 73q-23 13 -51 17.5t-92 4.5h-41v-177h128v-58h-128z" />
<glyph unicode="&#xf7f1;" horiz-adv-x="630" d="M105 57v422l-73 3v54h173l202 -351q34 -60 49 -94v388l-73 3v54h219v-54l-73 -3v-479h-100l-195 338q-37 65 -56 104v-385l73 -3v-54h-219v54zM209 614h-52q6 48 31 75t63 27q34 0 89 -21q39 -15 57 -15q40 0 45 42h51q-5 -50 -29.5 -76.5t-64.5 -26.5q-31 0 -85 20 q-42 16 -62 16q-30 0 -43 -41z" />
<glyph unicode="&#xf7f2;" horiz-adv-x="602" d="M301 546q117 0 184 -74t67 -204q0 -135 -74 -211q-64 -67 -177 -67q-118 0 -184.5 74.5t-66.5 206.5t74 208q66 67 177 67zM301 488q-78 0 -124.5 -59t-46.5 -159q0 -103 46 -162.5t125 -59.5t125 59.5t46 160.5t-46 160.5t-125 59.5zM273 751l122 -146h-73l-146 146h97z " />
<glyph unicode="&#xf7f3;" horiz-adv-x="602" d="M301 546q117 0 184 -74t67 -204q0 -135 -74 -211q-64 -67 -177 -67q-118 0 -184.5 74.5t-66.5 206.5t74 208q66 67 177 67zM301 488q-78 0 -124.5 -59t-46.5 -159q0 -103 46 -162.5t125 -59.5t125 59.5t46 160.5t-46 160.5t-125 59.5zM352 751h97l-146 -146h-73z" />
<glyph unicode="&#xf7f4;" horiz-adv-x="602" d="M301 546q117 0 184 -74t67 -204q0 -135 -74 -211q-64 -67 -177 -67q-118 0 -184.5 74.5t-66.5 206.5t74 208q66 67 177 67zM301 488q-78 0 -124.5 -59t-46.5 -159q0 -103 46 -162.5t125 -59.5t125 59.5t46 160.5t-46 160.5t-125 59.5zM301 703l-73 -98h-73l100 146h92 l100 -146h-73z" />
<glyph unicode="&#xf7f5;" horiz-adv-x="602" d="M301 546q117 0 184 -74t67 -204q0 -135 -74 -211q-64 -67 -177 -67q-118 0 -184.5 74.5t-66.5 206.5t74 208q66 67 177 67zM301 488q-78 0 -124.5 -59t-46.5 -159q0 -103 46 -162.5t125 -59.5t125 59.5t46 160.5t-46 160.5t-125 59.5zM185 614h-52q6 48 31 75t63 27 q34 0 89 -21q39 -15 57 -15q40 0 45 42h51q-12 -103 -94 -103q-31 0 -85 20q-42 16 -62 16q-30 0 -43 -41z" />
<glyph unicode="&#xf7f6;" horiz-adv-x="602" d="M301 546q117 0 184 -74t67 -204q0 -135 -74 -211q-64 -67 -177 -67q-118 0 -184.5 74.5t-66.5 206.5t74 208q66 67 177 67zM301 488q-78 0 -124.5 -59t-46.5 -159q0 -103 46 -162.5t125 -59.5t125 59.5t46 160.5t-46 160.5t-125 59.5zM206 720q23 0 37.5 -14.5 t14.5 -37.5t-14.5 -37.5t-37.5 -14.5t-37.5 15t-14.5 39q0 22 14.5 36t37.5 14zM396 720q23 0 37.5 -14.5t14.5 -37.5t-14.5 -37.5t-37.5 -14.5t-37.5 15t-14.5 39q0 22 14.5 36t37.5 14z" />
<glyph unicode="&#xf7f8;" horiz-adv-x="602" d="M95 -10l-38 28l50 58q-57 76 -57 192q0 134 74 211q66 67 177 67q99 0 161 -52l46 54l37 -29l-51 -59q58 -77 58 -192q0 -134 -74 -211q-64 -67 -178 -67q-98 0 -160 52zM158 136l258 304q-45 48 -115 48q-79 0 -125 -59.5t-46 -160.5q0 -75 28 -132zM444 400l-259 -304 q48 -48 116 -48q79 0 125 59.5t46 160.5q0 73 -28 132z" />
<glyph unicode="&#xf7f9;" horiz-adv-x="600" d="M171 479v-270q0 -92 30 -125q32 -36 99 -36q79 0 110 50q19 32 19 111v270l-64 3v54h213v-54l-73 -3v-245q0 -83 -6.5 -117t-27.5 -61q-51 -66 -171 -66q-133 0 -181 80q-14 24 -19 56.5t-5 107.5v245l-73 3v54h216v-54zM262 751l122 -146h-73l-146 146h97z" />
<glyph unicode="&#xf7fa;" horiz-adv-x="600" d="M171 479v-270q0 -92 30 -125q32 -36 99 -36q79 0 110 50q19 32 19 111v270l-64 3v54h213v-54l-73 -3v-245q0 -83 -6.5 -117t-27.5 -61q-51 -66 -171 -66q-133 0 -181 80q-14 24 -19 56.5t-5 107.5v245l-73 3v54h216v-54zM375 751h97l-146 -146h-73z" />
<glyph unicode="&#xf7fb;" horiz-adv-x="600" d="M171 479v-270q0 -92 30 -125q32 -36 99 -36q79 0 110 50q19 32 19 111v270l-64 3v54h213v-54l-73 -3v-245q0 -83 -6.5 -117t-27.5 -61q-51 -66 -171 -66q-133 0 -181 80q-14 24 -19 56.5t-5 107.5v245l-73 3v54h216v-54zM306 703l-73 -98h-73l100 146h92l100 -146h-73z " />
<glyph unicode="&#xf7fc;" horiz-adv-x="600" d="M171 479v-270q0 -92 30 -125q32 -36 99 -36q79 0 110 50q19 32 19 111v270l-64 3v54h213v-54l-73 -3v-245q0 -83 -6.5 -117t-27.5 -61q-51 -66 -171 -66q-133 0 -181 80q-14 24 -19 56.5t-5 107.5v245l-73 3v54h216v-54zM211 720q23 0 37.5 -14.5t14.5 -37.5t-14.5 -37.5 t-37.5 -14.5t-37.5 15t-14.5 39q0 22 14.5 36t37.5 14zM401 720q23 0 37.5 -14.5t14.5 -37.5t-14.5 -37.5t-37.5 -14.5t-37.5 15t-14.5 39q0 22 14.5 36t37.5 14z" />
<glyph unicode="&#xf7fd;" horiz-adv-x="487" d="M206 57v182l-161 241l-58 2v54h212v-54l-65 -2l81 -120q23 -38 32 -53q3 5 35 53l76 120l-65 2v54h207v-54l-58 -2l-160 -241v-182l78 -3v-54h-234v54zM315 751h97l-146 -146h-73z" />
<glyph unicode="&#xf7fe;" horiz-adv-x="474" d="M181 117v-60l83 -3v-54h-232v54l73 3v422l-73 3v54h226v-54l-77 -3v-39h52q105 0 151 -28q64 -39 64 -135q0 -97 -75 -135q-49 -25 -147 -25h-45zM181 175h35q78 0 109 16q43 22 43 88q0 62 -36 85q-28 18 -103 18h-48v-207z" />
<glyph unicode="&#xf7ff;" horiz-adv-x="487" d="M206 57v182l-161 241l-58 2v54h212v-54l-65 -2l81 -120q23 -38 32 -53q3 5 35 53l76 120l-65 2v54h207v-54l-58 -2l-160 -241v-182l78 -3v-54h-234v54zM159 720q23 0 37.5 -14.5t14.5 -37.5t-14.5 -37.5t-37.5 -14.5t-37.5 15t-14.5 39q0 22 14.5 36t37.5 14zM349 720 q23 0 37.5 -14.5t14.5 -37.5t-14.5 -37.5t-37.5 -14.5t-37.5 15t-14.5 39q0 22 14.5 36t37.5 14z" />
<glyph horiz-adv-x="800" d="M171 354v279l-80 -47l-23 41l108 65h52v-338l58 -3v-39h-175v39zM234 -20l273 732h59l-273 -732h-59zM611 42v279l-80 -47l-23 41l108 65h52v-338l58 -3v-39h-175v39z" />
<glyph horiz-adv-x="800" d="M47 312v46q109 95 151.5 146.5t42.5 91.5q0 25 -19.5 40.5t-50.5 15.5q-43 0 -98 -34l-19 47q66 33 122 33q58 0 92.5 -26.5t34.5 -70.5q0 -34 -17 -66.5t-58 -77.5q-52 -55 -104 -99h182v-46h-259zM234 -20l273 732h59l-273 -732h-59zM489 21l21 48q50 -29 89 -29 q38 0 63 24.5t25 61.5q0 34 -22 53.5t-60 19.5q-41 0 -103 -23l8 204h222v-46h-165l-4 -96q29 7 55 7q61 0 96 -32t35 -88q0 -60 -40 -95.5t-108 -35.5q-57 0 -112 27z" />
<glyph horiz-adv-x="800" d="M45 325l13 48q57 -19 97 -19q37 0 61 19.5t24 49.5q0 31 -29.5 49.5t-79.5 18.5q-13 0 -34 -3v48q15 -2 33 -2q46 0 75.5 18.5t29.5 47.5q0 23 -19.5 37.5t-51.5 14.5q-37 0 -93 -21l-13 47q54 20 113 20t92.5 -25t33.5 -69q0 -65 -74 -90q79 -20 79 -94q0 -51 -39 -82.5 t-103 -31.5q-49 0 -115 19zM234 -20l273 732h59l-273 -732h-59zM489 21l21 48q50 -29 89 -29q38 0 63 24.5t25 61.5q0 34 -22 53.5t-60 19.5q-41 0 -103 -23l8 204h222v-46h-165l-4 -96q29 7 55 7q61 0 96 -32t35 -88q0 -60 -40 -95.5t-108 -35.5q-57 0 -112 27z" />
<glyph horiz-adv-x="800" d="M206 312v98h-175v54l169 228h66v-236h60v-46h-60v-98h-60zM208 456v166l-121 -166h121zM234 -20l273 732h59l-273 -732h-59zM489 21l21 48q50 -29 89 -29q38 0 63 24.5t25 61.5q0 34 -22 53.5t-60 19.5q-41 0 -103 -23l8 204h222v-46h-165l-4 -96q29 7 55 7q61 0 96 -32 t35 -88q0 -60 -40 -95.5t-108 -35.5q-57 0 -112 27z" />
<glyph horiz-adv-x="800" d="M56 333l21 48q50 -29 89 -29q38 0 63 24.5t25 61.5q0 34 -22 53.5t-60 19.5q-41 0 -103 -23l8 204h222v-46h-165l-4 -96q29 7 55 7q61 0 96 -32t35 -88q0 -60 -40 -95.5t-108 -35.5q-57 0 -112 27zM241 -20l273 732h59l-273 -732h-59zM714 384v-46q-13 2 -29 2 q-116 0 -142 -123q35 27 79 27q56 0 90 -33.5t34 -89.5q0 -58 -36.5 -92.5t-97.5 -34.5q-138 0 -138 158q0 126 70 190q50 44 137 44q20 0 33 -2zM612 198q-32 0 -53 -21.5t-21 -54.5q0 -35 20.5 -58.5t51.5 -23.5q32 0 53 23.5t21 57.5t-20 55.5t-52 21.5z" />
<glyph d="M250 880q23 0 37.5 -14.5t14.5 -37.5t-14.5 -37.5t-37.5 -14.5t-37.5 15t-14.5 39q0 22 14.5 36t37.5 14z" />
<glyph d="M250 880q42 0 70.5 -29t28.5 -71t-29 -71t-70 -29q-43 0 -71.5 29t-28.5 72q0 41 29 70t71 29zM250 840q-25 0 -41.5 -17t-16.5 -42q0 -27 16 -44t42 -17q25 0 41 17t16 43t-16 43t-41 17z" />
<glyph d="M250 853l-73 -98h-73l100 146h92l100 -146h-73z" />
<glyph d="M103 901h66q8 -94 81 -94t81 94h65q-3 -72 -40.5 -110t-105.5 -38t-105.5 38t-41.5 110z" />
<glyph d="M134 774h-52q6 48 31 75t63 27q34 0 89 -21q39 -15 57 -15q40 0 45 42h51q-12 -103 -94 -103q-31 0 -85 20q-42 16 -62 16q-30 0 -43 -41z" />
<glyph d="M269 -34h91l-135 -147h-74z" />
<glyph d="M282 -157l8 -48q-47 -13 -73 -13q-46 0 -74.5 23t-28.5 61q0 43 30.5 74.5t97.5 59.5h48q-51 -33 -75 -54q-34 -33 -34 -66q0 -20 14.5 -32.5t38.5 -12.5q15 0 48 8z" />
<glyph d="M269 -34h91l-135 -147h-74z" />
<glyph horiz-adv-x="902" d="M53 26v121h68l7 -76q43 -23 92 -23q47 0 79 26.5t32 65.5q0 35 -25 55q-20 16 -95 44q-87 33 -119 59q-41 35 -41 98q0 71 49 110.5t136 39.5q71 0 153 -31v-126h-68l-6 78q-39 21 -80 21q-48 0 -76 -23t-28 -63q0 -34 21 -52t89 -44q98 -38 126 -58q44 -33 44 -100 q0 -73 -52.5 -115.5t-142.5 -42.5q-85 0 -163 36zM493 26v121h68l7 -76q43 -23 92 -23q47 0 79 26.5t32 65.5q0 35 -25 55q-20 16 -95 44q-87 33 -119 59q-41 35 -41 98q0 71 49 110.5t136 39.5q71 0 153 -31v-126h-68l-6 78q-39 21 -80 21q-48 0 -76 -23t-28 -63 q0 -34 21 -52t89 -44q98 -38 126 -58q44 -33 44 -100q0 -73 -52.5 -115.5t-142.5 -42.5q-85 0 -163 36z" />
<glyph horiz-adv-x="286" d="M105 57v422l-73 3v54h222v-54l-73 -3v-422l73 -3v-54h-222v54z" />
<glyph horiz-adv-x="341" d="M242 479v-305q0 -58 -5.5 -87.5t-21.5 -49.5q-36 -47 -119 -47q-46 0 -94 16l7 61q44 -19 81 -19q52 0 66 36q10 24 10 117v278l-77 3v54h221v-54z" />
<glyph horiz-adv-x="706" d="M94 57v422l-73 3v54h387v-147h-68l-8 89h-162v-177h170v-58h-170v-186l79 -3v-54h-228v54zM536 57v422l-73 3v54h222v-54l-73 -3v-422l73 -3v-54h-222v54z" />
<glyph horiz-adv-x="884" d="M94 57v422l-73 3v54h387v-147h-68l-8 89h-162v-177h170v-58h-170v-186l79 -3v-54h-228v54zM536 57v422l-73 3v54h228v-54l-79 -3v-421h173l7 89h68v-147h-397v54z" />
<glyph horiz-adv-x="544" d="M48 56l180 480h90l180 -480l59 -2v-54h-205v54l64 2l-40 110h-208l-40 -110l61 -2v-54h-200v54zM355 224l-48 134q-26 74 -35 102l-16 -48l-19 -54l-48 -134h166zM272 653l73 98h73l-100 -146h-92l-100 146h73z" />
<glyph horiz-adv-x="544" d="M48 56l180 480h90l180 -480l59 -2v-54h-205v54l64 2l-40 110h-208l-40 -110l61 -2v-54h-200v54zM355 224l-48 134q-26 74 -35 102l-16 -48l-19 -54l-48 -134h166zM125 751h66q8 -94 81 -94t81 94h66q-4 -71 -42 -109.5t-105 -38.5t-105 38.5t-42 109.5z" />
<glyph horiz-adv-x="544" d="M48 56l180 480h90l180 -480l59 -2v-54h-45q-52 -33 -76 -54q-34 -34 -34 -66q0 -20 14.5 -32.5t38.5 -12.5q16 0 49 8l8 -48q-48 -13 -74 -13q-46 0 -74.5 23.5t-28.5 60.5q0 43 30.5 74.5t97.5 59.5h-111v54l64 2l-40 110h-208l-40 -110l61 -2v-54h-200v54zM355 224 l-48 134q-20 55 -35 102q-9 -28 -16 -48q-18 -52 -19 -54l-48 -134h166z" />
<glyph horiz-adv-x="510" d="M444 82l19 -58q-75 -34 -154 -34q-117 0 -188 75t-71 199q0 129 70 205.5t188 76.5q68 0 141 -27v-130h-68l-7 86q-36 13 -66 13q-78 0 -128 -63t-50 -161q0 -97 49.5 -156.5t130.5 -59.5q63 0 134 34zM360 751h97l-146 -146h-73z" />
<glyph horiz-adv-x="510" d="M444 82l19 -58q-75 -34 -154 -34q-117 0 -188 75t-71 199q0 129 70 205.5t188 76.5q68 0 141 -27v-130h-68l-7 86q-36 13 -66 13q-78 0 -128 -63t-50 -161q0 -97 49.5 -156.5t130.5 -59.5q63 0 134 34zM309 653l73 98h73l-100 -146h-92l-100 146h73z" />
<glyph horiz-adv-x="510" d="M444 82l19 -58q-75 -34 -154 -34q-117 0 -188 75t-71 199q0 129 70 205.5t188 76.5q68 0 141 -27v-130h-68l-7 86q-36 13 -66 13q-78 0 -128 -63t-50 -161q0 -97 49.5 -156.5t130.5 -59.5q63 0 134 34zM312 720q23 0 37.5 -14.5t14.5 -37.5t-14.5 -37.5t-37.5 -14.5 t-37.5 15t-14.5 39q0 22 14.5 36t37.5 14z" />
<glyph horiz-adv-x="577" d="M105 57v422l-73 3v54h203q132 0 192 -38q100 -65 100 -227q0 -161 -100 -229q-62 -42 -201 -42h-194v54zM181 58h50q96 0 142 34q74 52 74 175q0 66 -22 116t-61 73q-23 13 -51 17.5t-92 4.5h-40v-420zM563 731h89l-89 -224h-69z" />
<glyph horiz-adv-x="577" d="M105 243h-87v58h87v178l-73 3v54h203q132 0 192 -38q101 -64 101 -227q0 -161 -100 -229q-62 -42 -202 -42h-194v54l73 3v186zM181 243v-185h50q96 0 143 34q74 52 74 175q0 66 -22 116t-61 73q-23 13 -51 17.5t-92 4.5h-41v-177h128v-58h-128z" />
<glyph horiz-adv-x="487" d="M105 57v422l-73 3v54h385v-147h-68l-7 89h-161v-177h158v-58h-158v-185h173l7 89h68v-147h-397v54zM244 653l73 98h73l-100 -146h-92l-100 146h73z" />
<glyph horiz-adv-x="487" d="M105 57v422l-73 3v54h385v-147h-68l-7 89h-161v-177h158v-58h-158v-185h173l7 89h68v-147h-397v54zM254 720q23 0 37.5 -14.5t14.5 -37.5t-14.5 -37.5t-37.5 -14.5t-37.5 15t-14.5 39q0 22 14.5 36t37.5 14z" />
<glyph horiz-adv-x="487" d="M105 57v422l-73 3v54h385v-147h-68l-7 89h-161v-177h158v-58h-158v-185h173l7 89h68v-147q-53 -34 -76 -54q-34 -33 -34 -66q0 -20 14.5 -32.5t38.5 -12.5q16 0 49 8l8 -48q-47 -13 -74 -13q-46 0 -74.5 23.5t-28.5 60.5q0 43 31 75t98 59h-349v54z" />
<glyph horiz-adv-x="583" d="M550 273v-54l-60 -3v-192q-86 -34 -175 -34q-121 0 -193 74t-72 197q0 130 73.5 207.5t196.5 77.5q84 0 170 -30v-127h-69l-7 83q-55 16 -92 16q-97 0 -147 -71q-45 -64 -45 -155q0 -96 52.5 -155t138.5 -59q47 0 93 18v150l-74 3v54h210zM325 653l73 98h73l-100 -146 h-92l-100 146h73z" />
<glyph horiz-adv-x="583" d="M550 273v-54l-60 -3v-192q-86 -34 -175 -34q-121 0 -193 74t-72 197q0 130 73.5 207.5t196.5 77.5q84 0 170 -30v-127h-69l-7 83q-55 16 -92 16q-97 0 -147 -71q-45 -64 -45 -155q0 -96 52.5 -155t138.5 -59q47 0 93 18v150l-74 3v54h210zM168 751h66q8 -94 81 -94t81 94 h66q-4 -71 -42 -109.5t-105 -38.5t-105 38.5t-42 109.5z" />
<glyph horiz-adv-x="583" d="M550 273v-54l-60 -3v-192q-86 -34 -175 -34q-121 0 -193 74t-72 197q0 130 73.5 207.5t196.5 77.5q84 0 170 -30v-127h-69l-7 83q-55 16 -92 16q-97 0 -147 -71q-45 -64 -45 -155q0 -96 52.5 -155t138.5 -59q47 0 93 18v150l-74 3v54h210zM312 720q23 0 37.5 -14.5 t14.5 -37.5t-14.5 -37.5t-37.5 -14.5t-37.5 15t-14.5 39q0 22 14.5 36t37.5 14z" />
<glyph horiz-adv-x="453" d="M105 57v422l-73 3v54h228v-54l-79 -3v-421h173l7 89h68v-147h-397v54zM238 751h97l-146 -146h-73z" />
<glyph horiz-adv-x="453" d="M105 57v422l-73 3v54h228v-54l-79 -3v-421h173l7 89h68v-147h-397v54zM372 731h88l-88 -224h-70z" />
<glyph horiz-adv-x="630" d="M105 57v422l-73 3v54h173l202 -351q34 -60 49 -94v388l-73 3v54h219v-54l-73 -3v-479h-100l-195 338q-37 65 -56 104v-385l73 -3v-54h-219v54zM387 751h97l-146 -146h-73z" />
<glyph horiz-adv-x="630" d="M105 57v422l-73 3v54h173l202 -351q34 -60 49 -94v388l-73 3v54h219v-54l-73 -3v-479h-100l-195 338q-37 65 -56 104v-385l73 -3v-54h-219v54zM315 653l73 98h73l-100 -146h-92l-100 146h73z" />
<glyph horiz-adv-x="602" d="M301 546q117 0 184 -74t67 -204q0 -135 -74 -211q-64 -67 -177 -67q-118 0 -184.5 74.5t-66.5 206.5t74 208q66 67 177 67zM301 488q-78 0 -124.5 -59t-46.5 -159q0 -103 46 -162.5t125 -59.5t125 59.5t46 160.5t-46 160.5t-125 59.5zM279 751h93l-126 -146h-69zM435 751 h93l-126 -146h-69z" />
<glyph horiz-adv-x="501" d="M105 57v422l-73 3v54h210q90 0 134 -24q67 -37 67 -118q0 -103 -107 -134q26 -10 38 -25.5t35 -67.5l46 -110l63 -3v-54h-120l-59 134q-30 68 -52 84.5t-80 16.5h-26v-178l73 -3v-54h-222v54zM181 293h37q62 0 95 15q50 22 50 80q0 54 -43 75q-30 15 -93 15h-46v-185z M302 751h97l-146 -146h-73z" />
<glyph horiz-adv-x="460" d="M52 26v121h68l7 -76q43 -23 92 -23q47 0 79 26.5t32 65.5q0 35 -25 55q-20 16 -95 44q-87 33 -119 59q-41 35 -41 98q0 71 49 110.5t136 39.5q71 0 153 -31v-126h-68l-6 78q-39 21 -80 21q-48 0 -76 -23t-28 -63q0 -34 21 -52t89 -44q98 -38 126 -58q44 -33 44 -100 q0 -73 -52.5 -115.5t-142.5 -42.5q-85 0 -163 36zM305 751h97l-146 -146h-73z" />
<glyph horiz-adv-x="460" d="M52 26v121h68l7 -76q43 -23 92 -23q47 0 79 26.5t32 65.5q0 35 -25 55q-20 16 -95 44q-87 33 -119 59q-41 35 -41 98q0 71 49 110.5t136 39.5q71 0 153 -31v-126h-68l-6 78q-39 21 -80 21q-48 0 -76 -23t-28 -63q0 -34 21 -52t89 -44q98 -38 126 -58q44 -33 44 -100 q0 -73 -52.5 -115.5t-142.5 -42.5q-85 0 -163 36zM243 703l-73 -98h-73l100 146h92l100 -146h-73z" />
<glyph horiz-adv-x="460" d="M52 26v121h68l7 -76q43 -23 92 -23q47 0 79 26.5t32 65.5q0 35 -25 55q-20 16 -95 44q-87 33 -119 59q-41 35 -41 98q0 71 49 110.5t136 39.5q71 0 153 -31v-126h-68l-6 78q-39 21 -80 21q-48 0 -76 -23t-28 -63q0 -34 21 -52t89 -44q98 -38 126 -58q44 -33 44 -100 q0 -73 -52.5 -115.5t-142.5 -42.5q-85 0 -163 36zM188 -34h91l-135 -147h-74z" />
<glyph horiz-adv-x="573" d="M194 57v421h-108l-7 -89h-68v147h445v-147h-68l-7 89h-111v-421l88 -3v-54h-252v54zM558 731h89l-89 -224h-69z" />
<glyph horiz-adv-x="600" d="M171 479v-270q0 -92 30 -125q32 -36 99 -36q79 0 110 50q19 32 19 111v270l-64 3v54h213v-54l-73 -3v-245q0 -83 -6.5 -117t-27.5 -61q-51 -66 -171 -66q-133 0 -181 80q-14 24 -19 56.5t-5 107.5v245l-73 3v54h216v-54zM306 781q42 0 70.5 -29t28.5 -71t-29 -71t-70 -29 q-43 0 -71.5 29t-28.5 72q0 41 29 70t71 29zM306 741q-25 0 -41.5 -17t-16.5 -42q0 -27 16 -44t42 -17q25 0 41 17t16 43t-16 43t-41 17z" />
<glyph horiz-adv-x="600" d="M171 479v-270q0 -92 30 -125q32 -36 99 -36q79 0 110 50q19 32 19 111v270l-64 3v54h213v-54l-73 -3v-245q0 -83 -6.5 -117t-27.5 -61q-51 -66 -171 -66q-133 0 -181 80q-14 24 -19 56.5t-5 107.5v245l-73 3v54h216v-54zM278 751h93l-126 -146h-69zM434 751h93l-126 -146 h-69z" />
<glyph horiz-adv-x="491" d="M39 0v58l308 420h-224l-7 -89h-68v147h389v-58l-308 -420h242l7 89h68v-147h-407zM320 751h97l-146 -146h-73z" />
<glyph horiz-adv-x="491" d="M39 0v58l308 420h-224l-7 -89h-68v147h389v-58l-308 -420h242l7 89h68v-147h-407zM259 720q23 0 37.5 -14.5t14.5 -37.5t-14.5 -37.5t-37.5 -14.5t-37.5 15t-14.5 39q0 22 14.5 36t37.5 14z" />
<glyph horiz-adv-x="616" d="M105 57v307h-73v54h73v61l-73 3v54h222v-54l-73 -3v-61h254v61l-73 3v54h222v-54l-73 -3v-61h73v-54h-73v-307l73 -3v-54h-222v54l73 3v188h-254v-188l73 -3v-54h-222v54zM435 303v61h-254v-61h254z" />
<glyph horiz-adv-x="467" d="M194 57v421h-108l-7 -89h-68v147h445v-147h-68l-7 89h-111v-421l88 -3v-54h-252v54zM192 -34h91l-135 -147h-74z" />
<glyph horiz-adv-x="544" d="M48 56l180 480h90l180 -480l59 -2v-54h-205v54l64 2l-40 110h-208l-40 -110l61 -2v-54h-200v54zM355 224l-48 134q-26 74 -35 102l-16 -48l-19 -54l-48 -134h166zM127 636v58h290v-58h-290z" />
<glyph horiz-adv-x="487" d="M206 57v182l-161 241l-58 2v54h212v-54l-65 -2l81 -120q23 -38 32 -53q3 5 35 53l76 120l-65 2v54h207v-54l-58 -2l-160 -241v-182l78 -3v-54h-234v54zM250 703l-73 -98h-73l100 146h92l100 -146h-73z" />
<glyph horiz-adv-x="510" d="M444 82l19 -58q-75 -34 -154 -34q-117 0 -188 75t-71 199q0 129 70 205.5t188 76.5q68 0 141 -27v-130h-68l-7 86q-36 13 -66 13q-78 0 -128 -63t-50 -161q0 -97 49.5 -156.5t130.5 -59.5q63 0 134 34zM309 703l-73 -98h-73l100 146h92l100 -146h-73z" />
<glyph horiz-adv-x="487" d="M105 57v422l-73 3v54h385v-147h-68l-7 89h-161v-177h158v-58h-158v-185h173l7 89h68v-147h-397v54zM91 636v58h291v-58h-291z" />
<glyph horiz-adv-x="583" d="M550 273v-54l-60 -3v-192q-86 -34 -175 -34q-121 0 -193 74t-72 197q0 130 73.5 207.5t196.5 77.5q84 0 170 -30v-127h-69l-7 83q-55 16 -92 16q-97 0 -147 -71q-45 -64 -45 -155q0 -96 52.5 -155t138.5 -59q47 0 93 18v150l-74 3v54h210zM322 703l-73 -98h-73l100 146 h92l100 -146h-73z" />
<glyph horiz-adv-x="286" d="M105 57v422l-73 3v54h222v-54l-73 -3v-422l73 -3v-54h-222v54zM-4 751h66q8 -94 81 -94t81 94h65q-3 -71 -41 -109.5t-105 -38.5t-105 38.5t-42 109.5z" />
<glyph horiz-adv-x="286" d="M105 57v422l-73 3v54h222v-54l-73 -3v-422l73 -3v-54h-222v54zM-2 636v58h291v-58h-291z" />
<glyph horiz-adv-x="341" d="M242 479v-305q0 -58 -5.5 -87.5t-21.5 -49.5q-36 -47 -119 -47q-46 0 -94 16l7 61q44 -19 81 -19q52 0 66 36q10 24 10 117v278l-77 3v54h221v-54zM196 703l-73 -98h-73l100 146h92l100 -146h-73z" />
<glyph horiz-adv-x="538" d="M105 57v422l-73 3v54h213v-54l-64 -3v-186l174 188l-46 1v54h198v-54l-61 -2l-179 -194l202 -230l54 -2v-54h-201v54l49 1l-190 218v-216l64 -3v-54h-213v54zM254 -34h91l-135 -147h-74z" />
<glyph horiz-adv-x="453" d="M105 57v422l-73 3v54h228v-54l-79 -3v-421h173l7 89h68v-147h-397v54zM215 -34h91l-135 -147h-74z" />
<glyph horiz-adv-x="630" d="M105 57v422l-73 3v54h173l202 -351q34 -60 49 -94v388l-73 3v54h219v-54l-73 -3v-479h-100l-195 338q-37 65 -56 104v-385l73 -3v-54h-219v54zM300 -34h91l-135 -147h-74z" />
<glyph horiz-adv-x="602" d="M301 546q117 0 184 -74t67 -204q0 -135 -74 -211q-64 -67 -177 -67q-118 0 -184.5 74.5t-66.5 206.5t74 208q66 67 177 67zM301 488q-78 0 -124.5 -59t-46.5 -159q0 -103 46 -162.5t125 -59.5t125 59.5t46 160.5t-46 160.5t-125 59.5zM156 636v58h290v-58h-290z" />
<glyph horiz-adv-x="501" d="M105 57v422l-73 3v54h210q90 0 134 -24q67 -37 67 -118q0 -103 -107 -134q26 -10 38 -25.5t35 -67.5l46 -110l63 -3v-54h-120l-59 134q-30 68 -52 84.5t-80 16.5h-26v-178l73 -3v-54h-222v54zM181 293h37q62 0 95 15q50 22 50 80q0 54 -43 75q-30 15 -93 15h-46v-185z M256 -34h91l-135 -147h-74z" />
<glyph horiz-adv-x="600" d="M171 479v-270q0 -92 30 -125q32 -36 99 -36q79 0 110 50q19 32 19 111v270l-64 3v54h213v-54l-73 -3v-245q0 -83 -6.5 -117t-27.5 -61q-51 -66 -171 -66q-133 0 -181 80q-14 24 -19 56.5t-5 107.5v245l-73 3v54h216v-54zM153 751h66q8 -94 81 -94t81 94h66 q-4 -71 -42 -109.5t-105 -38.5t-105 38.5t-42 109.5z" />
<glyph horiz-adv-x="600" d="M171 479v-270q0 -92 30 -125q32 -36 99 -36q79 0 110 50q19 32 19 111v270l-64 3v54h213v-54l-73 -3v-245q0 -83 -6.5 -117t-27.5 -61q-51 -66 -171 -66q-133 0 -181 80q-14 24 -19 56.5t-5 107.5v245l-73 3v54h216v-54zM155 636v58h290v-58h-290z" />
<glyph horiz-adv-x="600" d="M171 479v-270q0 -92 30 -125q32 -36 99 -36q79 0 110 50q19 32 19 111v270l-64 3v54h213v-54l-73 -3v-245q0 -112 -16 -149q-23 -51 -86 -79q-62 -39 -80 -56q-37 -35 -37 -70q0 -20 14.5 -32.5t38.5 -12.5q15 0 48 8l8 -48q-47 -13 -73 -13q-46 0 -74.5 23t-28.5 61 q0 76 97 124h-18q-131 0 -179 80q-14 24 -19 56.5t-5 107.5v245l-73 3v54h216v-54z" />
<glyph horiz-adv-x="501" d="M105 57v422l-73 3v54h210q90 0 134 -24q67 -37 67 -118q0 -103 -107 -134q26 -10 38 -25.5t35 -67.5l46 -110l63 -3v-54h-120l-59 134q-30 68 -52 84.5t-80 16.5h-26v-178l73 -3v-54h-222v54zM181 293h37q62 0 95 15q50 22 50 80q0 54 -43 75q-30 15 -93 15h-46v-185z M241 653l73 98h73l-100 -146h-92l-100 146h73z" />
<glyph horiz-adv-x="460" d="M52 26v121h68l7 -76q43 -23 92 -23q47 0 79 26.5t32 65.5q0 35 -25 55q-20 16 -95 44q-87 33 -119 59q-41 35 -41 98q0 71 49 110.5t136 39.5q71 0 153 -31v-126h-68l-6 78q-39 21 -80 21q-48 0 -76 -23t-28 -63q0 -34 21 -52t89 -44q98 -38 126 -58q44 -33 44 -100 q0 -73 -52.5 -115.5t-142.5 -42.5q-85 0 -163 36zM201 -34h91l-135 -147h-74z" />
<glyph horiz-adv-x="583" d="M550 273v-54l-60 -3v-192q-86 -34 -175 -34q-121 0 -193 74t-72 197q0 130 73.5 207.5t196.5 77.5q84 0 170 -30v-127h-69l-7 83q-55 16 -92 16q-97 0 -147 -71q-45 -64 -45 -155q0 -96 52.5 -155t138.5 -59q47 0 93 18v150l-74 3v54h210zM340 594h-91l135 147h74z" />
<glyph horiz-adv-x="378" d="M180 57v405l-115 -67l-32 57l156 90h67v-485l74 -3v-54h-234v54z" />
<glyph horiz-adv-x="422" d="M14 0v58q150 134 210.5 210.5t60.5 133.5q0 41 -26.5 63.5t-74.5 22.5q-59 0 -135 -38l-19 58q87 38 165 38q80 0 125 -36.5t45 -102.5q0 -52 -28 -102.5t-98 -125.5q-63 -67 -124 -121h255v-58h-356z" />
<glyph horiz-adv-x="440" d="M16 18l18 58q67 -28 141 -28q64 0 98.5 27.5t34.5 77.5q0 99 -171 99q-8 0 -44 -2v62q30 -2 42 -2q78 0 122 26t44 73q0 38 -29 58.5t-82 20.5q-64 0 -140 -29l-16 58q83 29 163 29q90 0 137 -33.5t47 -98.5q0 -50 -25.5 -80t-84.5 -50q117 -22 117 -132 q0 -79 -52.5 -120.5t-152.5 -41.5q-96 0 -167 28z" />
<glyph horiz-adv-x="449" d="M269 0v152h-261v64l251 320h86v-326h90v-58h-90v-152h-76zM269 210v241l-187 -241h187z" />
<glyph horiz-adv-x="474" d="M47 28l27 59q69 -39 134 -39q63 0 99 34.5t36 94.5q0 109 -127 109q-62 0 -152 -30l10 280h324v-58h-247l-7 -146q48 12 90 12q92 0 140.5 -42.5t48.5 -123.5q0 -89 -56.5 -138.5t-156.5 -49.5q-90 0 -163 38z" />
<glyph horiz-adv-x="477" d="M394 543l-4 -57q-22 2 -36 2q-100 0 -155 -56q-46 -46 -65 -137q53 46 129 46q82 0 130 -46t48 -123q0 -83 -53.5 -132.5t-142.5 -49.5q-199 0 -199 224q0 85 27 155.5t77 114.5q71 62 196 62q20 0 48 -3zM246 283q-53 0 -85.5 -32t-32.5 -84q0 -54 31.5 -86.5 t84.5 -32.5t85 32.5t32 85.5t-31.5 85t-83.5 32z" />
<glyph horiz-adv-x="420" d="M104 478l-7 -89h-68v147h367v-58l-244 -478h-90l254 478h-212z" />
<glyph horiz-adv-x="475" d="M159 279q-57 24 -81 53.5t-24 74.5q0 65 49.5 102t134.5 37q86 0 135 -36.5t49 -101.5q0 -43 -21.5 -69.5t-78.5 -53.5q64 -25 90.5 -56.5t26.5 -81.5q0 -73 -53.5 -115t-148.5 -42q-94 0 -147.5 40.5t-53.5 110.5q0 100 123 138zM258 310l12 5q72 32 72 90q0 39 -28 61 t-77 22q-47 0 -75 -21.5t-28 -58.5q0 -31 29 -54t95 -44zM232 252q-64 -17 -90 -41t-26 -65q0 -44 33.5 -71t88.5 -27q52 0 86.5 26.5t34.5 66.5q0 35 -28.5 60t-98.5 51z" />
<glyph horiz-adv-x="477" d="M83 -7l4 57q22 -2 36 -2q100 0 155 56q46 46 65 137q-53 -46 -129 -46q-82 0 -130 46t-48 123q0 83 53.5 132.5t142.5 49.5q199 0 199 -224q0 -85 -27 -155.5t-77 -114.5q-71 -62 -196 -62q-19 0 -48 3zM233 488q-53 0 -85 -32.5t-32 -85.5t31.5 -85t83.5 -32 q53 0 85.5 32t32.5 84q0 54 -31.5 86.5t-84.5 32.5z" />
<glyph horiz-adv-x="502" d="M251 546q105 0 155 -68t50 -210q0 -143 -50 -210.5t-156 -67.5q-104 0 -154 68.5t-50 212.5q0 275 205 275zM251 488q-73 0 -104 -73q-21 -48 -21 -145q0 -117 30 -166q33 -56 95 -56q73 0 104 73q21 49 21 147q0 113 -30 164q-31 56 -95 56z" />
<glyph horiz-adv-x="460" d="M29 0v58h62q14 17 18 43.5t4 94.5v54h-76v53h76v48q0 62 8.5 92.5t31.5 54.5q48 48 141 48q63 0 142 -21v-131h-71l-7 85q-28 9 -59 9q-69 0 -94 -46q-15 -28 -15 -97v-42h143v-53h-143v-54q0 -71 -3 -96t-14 -42h185l7 84h71v-142h-407z" />
<glyph horiz-adv-x="460" d="M206 -98v88q-84 2 -154 36v121h68l7 -76q41 -23 92 -23q47 0 79 26.5t32 65.5q0 35 -25 55q-19 15 -95 44q-87 33 -119 59q-41 35 -41 98q0 65 40 103.5t116 45.5v89h50v-89q64 -3 132 -30v-126h-69l-5 78q-39 21 -80 21q-48 0 -76 -23t-28 -63q0 -34 21 -52t89 -44 q97 -37 126 -58q44 -33 44 -100q0 -65 -40 -105t-114 -50v-91h-50z" />
<glyph horiz-adv-x="460" d="M229 39v91q-83 8 -129.5 61.5t-46.5 141.5q0 91 46.5 144.5t129.5 60.5v96h50v-96q64 -3 117 -24v-110h-71l-6 68q-26 13 -62 13q-58 0 -91 -39t-33 -107q0 -72 36 -114t97 -42q54 0 111 41l28 -49q-56 -39 -126 -45v-91h-50z" />
<glyph horiz-adv-x="400" d="M138 250h-78v53h87l11 70q16 100 46 136.5t95 36.5q44 0 96 -13l-18 -109h-64l3 63q-6 1 -14 1q-29 0 -43.5 -24.5t-25.5 -90.5l-11 -70h110v-53h-119l-27 -172q-17 -105 -47.5 -140.5t-104.5 -35.5q-51 0 -88 13l16 99h64l-2 -55q9 -3 16 -3q41 0 58 54q6 21 17 92z" />
<glyph horiz-adv-x="520" d="M3 197l19 48h73q-1 9 -1 22t1 24h-92l19 48h78q22 100 85 153.5t158 53.5q78 0 152 -37l-24 -58q-65 37 -126 37q-130 0 -162 -149h243l-19 -48h-232q-1 -10 -1 -27q0 -12 1 -19h214l-19 -48h-190q28 -149 164 -149q61 0 134 32l20 -56q-81 -34 -156 -34q-105 0 -168 54 t-74 153h-97z" />
<glyph d="M213 0v147h-131v48h131v34l-5 8h-126v48h99l-175 251h92l156 -226l156 226h85l-175 -251h100v-48h-126l-5 -8v-34h131v-48h-131v-147h-76z" />
<glyph horiz-adv-x="679" d="M156 546q63 0 93 -37.5t30 -115.5q0 -79 -30 -116.5t-94 -37.5q-63 0 -93 38t-30 117q0 152 124 152zM156 505q-63 0 -63 -111q0 -114 63 -114q62 0 62 113q0 112 -62 112zM195 -15l232 566h57l-232 -566h-57zM524 297q63 0 93 -37.5t30 -115.5q0 -79 -30 -116.5 t-94 -37.5q-63 0 -93 38t-30 117q0 152 124 152zM524 256q-63 0 -63 -111q0 -114 63 -114q62 0 62 113q0 112 -62 112z" />
<glyph horiz-adv-x="973" d="M156 546q63 0 93 -37.5t30 -115.5q0 -79 -30 -116.5t-94 -37.5q-63 0 -93 38t-30 117q0 152 124 152zM156 505q-63 0 -63 -111q0 -114 63 -114q62 0 62 113q0 112 -62 112zM195 -15l232 566h57l-232 -566h-57zM524 297q63 0 93 -37.5t30 -115.5q0 -79 -30 -116.5 t-94 -37.5q-63 0 -93 38t-30 117q0 152 124 152zM524 256q-63 0 -63 -111q0 -114 63 -114q62 0 62 113q0 112 -62 112zM818 297q63 0 93 -37.5t30 -115.5q0 -79 -30 -116.5t-94 -37.5q-63 0 -93 38t-30 117q0 152 124 152zM818 256q-63 0 -63 -111q0 -114 63 -114 q62 0 62 113q0 112 -62 112z" />
<glyph d="M258 -34h91l-135 -147h-74z" />
</font>
</defs>
</svg>
